<?xml version="1.0" encoding="utf-8" standalone="no"?>
<!DOCTYPE svg PUBLIC "-//W3C//DTD SVG 1.1//EN"
  "http://www.w3.org/Graphics/SVG/1.1/DTD/svg11.dtd">
<svg xmlns:xlink="http://www.w3.org/1999/xlink" width="864pt" height="576pt" viewBox="0 0 864 576" xmlns="http://www.w3.org/2000/svg" version="1.1">
 <metadata>
  <rdf:RDF xmlns:dc="http://purl.org/dc/elements/1.1/" xmlns:cc="http://creativecommons.org/ns#" xmlns:rdf="http://www.w3.org/1999/02/22-rdf-syntax-ns#">
   <cc:Work>
    <dc:type rdf:resource="http://purl.org/dc/dcmitype/StillImage"/>
    <dc:date>2024-05-20T13:41:07.273902</dc:date>
    <dc:format>image/svg+xml</dc:format>
    <dc:creator>
     <cc:Agent>
      <dc:title>Matplotlib v3.9.0, https://matplotlib.org/</dc:title>
     </cc:Agent>
    </dc:creator>
   </cc:Work>
  </rdf:RDF>
 </metadata>
 <defs>
  <style type="text/css">*{stroke-linejoin: round; stroke-linecap: butt}</style>
 </defs>
 <g id="figure_1">
  <g id="patch_1">
   <path d="M 0 576 
L 864 576 
L 864 0 
L 0 0 
z
" style="fill: #ffffff"/>
  </g>
  <g id="axes_1">
   <g id="patch_2">
    <path d="M 108 512.64 
L 777.6 512.64 
L 777.6 69.12 
L 108 69.12 
z
" style="fill: #eaeaf2"/>
   </g>
   <g id="matplotlib.axis_1">
    <g id="xtick_1">
     <g id="line2d_1">
      <path d="M 138.436364 512.64 
L 138.436364 69.12 
" clip-path="url(#p61f60ac961)" style="fill: none; stroke: #ffffff; stroke-width: 1.5; stroke-linecap: round"/>
     </g>
     <g id="text_1">
      <!-- 0 -->
      <g style="fill: #262626" transform="translate(134.865145 534.60275) scale(0.132 -0.132)">
       <defs>
        <path id="SIL-Hei-Med-Jian-30" d="M 3169 2113 
Q 3169 -116 1713 -116 
Q 294 -116 294 2094 
Q 294 4309 1728 4309 
Q 3169 4309 3169 2113 
z
M 2563 2144 
Q 2563 3078 2380 3454 
Q 2197 3831 1741 3831 
Q 1275 3831 1087 3412 
Q 900 2994 900 1959 
Q 900 1106 1092 734 
Q 1284 363 1725 363 
Q 2178 363 2370 773 
Q 2563 1184 2563 2144 
z
" transform="scale(0.015625)"/>
       </defs>
       <use xlink:href="#SIL-Hei-Med-Jian-30"/>
      </g>
     </g>
    </g>
    <g id="xtick_2">
     <g id="line2d_2">
      <path d="M 260.181818 512.64 
L 260.181818 69.12 
" clip-path="url(#p61f60ac961)" style="fill: none; stroke: #ffffff; stroke-width: 1.5; stroke-linecap: round"/>
     </g>
     <g id="text_2">
      <!-- 20 -->
      <g style="fill: #262626" transform="translate(253.039381 534.60275) scale(0.132 -0.132)">
       <defs>
        <path id="SIL-Hei-Med-Jian-32" d="M 3075 516 
L 3075 0 
L 378 0 
L 378 591 
L 513 694 
Q 2456 2175 2456 3116 
Q 2456 3434 2256 3632 
Q 2056 3831 1738 3831 
Q 1181 3831 1016 3338 
L 431 3338 
L 456 3428 
Q 684 4309 1769 4309 
Q 2369 4309 2716 4003 
Q 3063 3697 3063 3169 
Q 3063 2569 2570 1853 
Q 2078 1138 1356 691 
L 1078 516 
L 3075 516 
z
" transform="scale(0.015625)"/>
       </defs>
       <use xlink:href="#SIL-Hei-Med-Jian-32"/>
       <use xlink:href="#SIL-Hei-Med-Jian-30" x="54.101562"/>
      </g>
     </g>
    </g>
    <g id="xtick_3">
     <g id="line2d_3">
      <path d="M 381.927273 512.64 
L 381.927273 69.12 
" clip-path="url(#p61f60ac961)" style="fill: none; stroke: #ffffff; stroke-width: 1.5; stroke-linecap: round"/>
     </g>
     <g id="text_3">
      <!-- 40 -->
      <g style="fill: #262626" transform="translate(374.784835 534.60275) scale(0.132 -0.132)">
       <defs>
        <path id="SIL-Hei-Med-Jian-34" d="M 2728 4250 
L 2728 1306 
L 3159 1306 
L 3159 809 
L 2728 809 
L 2728 0 
L 2266 0 
L 2266 809 
L 284 809 
L 284 1341 
L 2119 4250 
L 2728 4250 
z
M 2266 1328 
L 2266 3744 
L 784 1328 
L 2266 1328 
z
" transform="scale(0.015625)"/>
       </defs>
       <use xlink:href="#SIL-Hei-Med-Jian-34"/>
       <use xlink:href="#SIL-Hei-Med-Jian-30" x="54.101562"/>
      </g>
     </g>
    </g>
    <g id="xtick_4">
     <g id="line2d_4">
      <path d="M 503.672727 512.64 
L 503.672727 69.12 
" clip-path="url(#p61f60ac961)" style="fill: none; stroke: #ffffff; stroke-width: 1.5; stroke-linecap: round"/>
     </g>
     <g id="text_4">
      <!-- 60 -->
      <g style="fill: #262626" transform="translate(496.53029 534.60275) scale(0.132 -0.132)">
       <defs>
        <path id="SIL-Hei-Med-Jian-36" d="M 3063 3384 
L 2481 3384 
L 2463 3438 
Q 2322 3869 1803 3869 
Q 978 3869 978 2425 
L 975 2284 
Q 1013 2319 1031 2334 
Q 1444 2700 1859 2700 
Q 2419 2700 2741 2348 
Q 3063 1997 3063 1378 
Q 3063 -116 1738 -116 
Q 1025 -116 703 384 
Q 381 884 381 1994 
Q 381 4306 1831 4306 
Q 2838 4306 3063 3384 
z
M 2506 1303 
Q 2506 2266 1763 2266 
Q 969 2266 969 1344 
Q 969 363 1738 363 
Q 2506 363 2506 1303 
z
" transform="scale(0.015625)"/>
       </defs>
       <use xlink:href="#SIL-Hei-Med-Jian-36"/>
       <use xlink:href="#SIL-Hei-Med-Jian-30" x="54.101562"/>
      </g>
     </g>
    </g>
    <g id="xtick_5">
     <g id="line2d_5">
      <path d="M 625.418182 512.64 
L 625.418182 69.12 
" clip-path="url(#p61f60ac961)" style="fill: none; stroke: #ffffff; stroke-width: 1.5; stroke-linecap: round"/>
     </g>
     <g id="text_5">
      <!-- 80 -->
      <g style="fill: #262626" transform="translate(618.275744 534.60275) scale(0.132 -0.132)">
       <defs>
        <path id="SIL-Hei-Med-Jian-38" d="M 2234 2272 
L 2300 2247 
Q 3103 1963 3103 1128 
Q 3103 553 2737 212 
Q 2372 -128 1750 -128 
Q 1119 -128 739 206 
Q 359 541 359 1094 
Q 359 2025 1166 2259 
L 1234 2278 
L 1169 2300 
Q 522 2519 522 3216 
Q 522 3722 858 4022 
Q 1194 4322 1756 4322 
Q 2316 4322 2636 4042 
Q 2956 3763 2956 3275 
Q 2956 2525 2300 2294 
L 2234 2272 
z
M 2403 3206 
Q 2403 3888 1738 3888 
Q 1075 3888 1075 3188 
Q 1075 2869 1259 2669 
Q 1444 2469 1741 2469 
Q 2403 2469 2403 3206 
z
M 2497 1141 
Q 2497 2000 1738 2000 
Q 966 2000 966 1113 
Q 966 306 1725 306 
Q 2497 306 2497 1141 
z
" transform="scale(0.015625)"/>
       </defs>
       <use xlink:href="#SIL-Hei-Med-Jian-38"/>
       <use xlink:href="#SIL-Hei-Med-Jian-30" x="54.101562"/>
      </g>
     </g>
    </g>
    <g id="xtick_6">
     <g id="line2d_6">
      <path d="M 747.163636 512.64 
L 747.163636 69.12 
" clip-path="url(#p61f60ac961)" style="fill: none; stroke: #ffffff; stroke-width: 1.5; stroke-linecap: round"/>
     </g>
     <g id="text_6">
      <!-- 100 -->
      <g style="fill: #262626" transform="translate(736.44998 534.60275) scale(0.132 -0.132)">
       <defs>
        <path id="SIL-Hei-Med-Jian-31" d="M 2469 4250 
L 2469 0 
L 1931 0 
L 1931 3678 
Q 1641 3372 800 2941 
L 800 3575 
Q 1384 3888 1878 4250 
L 2469 4250 
z
" transform="scale(0.015625)"/>
       </defs>
       <use xlink:href="#SIL-Hei-Med-Jian-31"/>
       <use xlink:href="#SIL-Hei-Med-Jian-30" x="54.101562"/>
       <use xlink:href="#SIL-Hei-Med-Jian-30" x="108.203125"/>
      </g>
     </g>
    </g>
    <g id="text_7">
     <!-- 互联网用户占比占比 -->
     <g style="fill: #262626" transform="translate(378 552.353813) scale(0.144 -0.144)">
      <defs>
       <path id="SIL-Hei-Med-Jian-4e92" d="M 356 -541 
Q 381 -328 381 -216 
Q 381 -119 356 88 
L 1181 66 
L 4019 66 
L 4178 1059 
L 2225 1059 
L 1847 1047 
L 1581 1038 
L 1644 1353 
Q 1875 2525 2019 3619 
L 2091 4172 
L 1316 4172 
Q 988 4172 659 4138 
Q 672 4303 672 4400 
Q 672 4500 647 4722 
L 1097 4713 
L 1644 4700 
L 4931 4700 
L 5294 4700 
L 5791 4713 
Q 5769 4519 5769 4431 
Q 5769 4328 5788 4141 
Q 5191 4172 4869 4172 
L 2684 4172 
L 2516 3222 
L 4225 3222 
L 4688 3234 
L 5075 3244 
Q 4966 2559 4797 1219 
L 4650 56 
L 5450 56 
Q 5694 56 6059 75 
Q 6047 -106 6047 -216 
Q 6047 -316 6069 -547 
Q 5625 -519 5344 -519 
L 1169 -519 
L 647 -531 
L 356 -541 
z
M 2238 1556 
L 4250 1556 
L 4409 2716 
L 2431 2716 
L 2238 1556 
z
" transform="scale(0.015625)"/>
       <path id="SIL-Hei-Med-Jian-8054" d="M 209 397 
L 384 394 
Q 503 394 763 419 
L 763 4263 
L 547 4263 
Q 428 4263 291 4247 
Q 316 4450 316 4544 
Q 316 4628 303 4775 
Q 631 4750 738 4750 
L 2581 4750 
Q 2759 4750 2988 4781 
Q 2963 4603 2963 4519 
Q 2963 4425 2988 4244 
Q 2791 4259 2719 4259 
L 2538 4259 
L 2538 706 
L 3119 816 
Q 3034 700 3019 450 
L 3009 341 
Q 2772 303 2538 253 
L 2538 -384 
Q 3069 -259 3503 370 
Q 3938 1000 3938 1647 
L 3409 1647 
Q 3059 1647 2734 1625 
Q 2750 1806 2750 1894 
Q 2750 1997 2731 2194 
Q 3059 2159 3331 2159 
L 3978 2159 
L 3978 3288 
L 3559 3288 
Q 3194 3288 2850 3244 
Q 2894 3459 2894 3569 
Q 2894 3663 2859 3856 
Q 3306 3813 3509 3813 
L 4403 3813 
Q 4700 4513 4828 5184 
Q 5159 4994 5553 4909 
Q 5247 4669 4953 4050 
Q 4916 3972 4838 3813 
L 5250 3813 
Q 5516 3813 5841 3859 
Q 5819 3681 5819 3584 
Q 5819 3475 5859 3244 
Q 5441 3288 5206 3288 
L 4500 3288 
L 4500 2159 
L 5259 2159 
Q 5584 2159 6006 2203 
Q 5997 2013 5997 1900 
Q 5997 1813 6009 1606 
Q 5519 1647 5244 1647 
L 4553 1647 
Q 4681 281 6178 -222 
Q 5822 -425 5644 -822 
L 5547 -741 
Q 4984 -263 4718 109 
Q 4453 481 4278 1038 
Q 4163 484 3825 -53 
Q 3488 -591 3072 -881 
Q 2906 -503 2541 -431 
L 2541 -631 
Q 2541 -716 2559 -906 
Q 2384 -888 2303 -888 
Q 2203 -888 2019 -906 
Q 2028 -781 2034 -719 
Q 2053 -531 2053 -472 
L 2053 163 
Q 1594 63 1359 19 
Q 722 -106 406 -253 
Q 325 197 209 397 
z
M 1234 503 
L 2053 609 
L 2053 1506 
L 1234 1506 
L 1234 503 
z
M 1238 1938 
L 2056 1938 
L 2056 2900 
L 1238 2900 
L 1238 1938 
z
M 1234 3325 
L 2056 3325 
L 2056 4259 
L 1234 4259 
L 1234 3325 
z
M 3181 4963 
Q 3488 5028 3766 5131 
Q 3809 4759 4113 4188 
Q 3847 4144 3566 4053 
Q 3441 4625 3181 4963 
z
" transform="scale(0.015625)"/>
       <path id="SIL-Hei-Med-Jian-7f51" d="M 616 -822 
Q 647 -600 647 -347 
L 647 4600 
Q 647 4706 622 5019 
Q 859 4994 1100 4994 
L 5278 4994 
Q 5525 4994 5781 5019 
Q 5756 4803 5756 4613 
L 5756 -128 
Q 5756 -578 5539 -726 
Q 5322 -875 4603 -916 
Q 4584 -547 4297 -184 
Q 4675 -231 4891 -231 
Q 5081 -231 5134 -168 
Q 5188 -106 5188 119 
L 5188 4450 
L 1184 4450 
L 1184 534 
Q 1663 1094 2141 2141 
Q 1834 2847 1369 3572 
Q 1631 3653 1847 3769 
Q 2094 3256 2375 2716 
Q 2547 3259 2684 4028 
Q 2988 3863 3328 3794 
Q 3159 3638 3000 3206 
L 2766 2581 
Q 2731 2484 2638 2175 
Q 2856 1666 3256 988 
Q 3519 1347 3831 2028 
Q 3597 2594 3269 3131 
L 3134 3353 
Q 3384 3434 3597 3575 
Q 3819 3100 4066 2628 
Q 4206 3075 4341 3944 
Q 4663 3822 5034 3769 
Q 4831 3553 4691 3069 
Q 4681 3044 4494 2481 
Q 4441 2328 4344 2009 
Q 4600 1456 4691 1256 
L 4969 641 
Q 4684 572 4419 425 
Q 4263 1003 4066 1516 
Q 3700 834 3309 216 
Q 3003 375 2675 434 
Q 2984 656 3219 950 
Q 2950 878 2706 744 
Q 2544 1213 2375 1625 
Q 2044 913 1663 238 
Q 1422 372 1188 450 
L 1188 -356 
Q 1188 -544 1219 -822 
Q 1019 -788 913 -788 
Q 816 -788 616 -822 
z
" transform="scale(0.015625)"/>
       <path id="SIL-Hei-Med-Jian-7528" d="M 275 -616 
Q 853 -209 1058 292 
Q 1263 794 1263 1809 
L 1263 4613 
Q 1263 4647 1244 4797 
Q 1238 4856 1231 4969 
Q 1569 4931 1706 4931 
L 5319 4931 
Q 5725 4931 5925 4963 
Q 5888 4775 5888 4566 
L 5888 -316 
Q 5888 -647 5639 -784 
Q 5391 -922 4797 -922 
Q 4797 -534 4538 -256 
L 4691 -272 
Q 4931 -297 5069 -297 
Q 5316 -297 5316 3 
L 5316 1478 
L 3763 1478 
L 3763 -156 
Q 3763 -291 3794 -519 
Q 3606 -488 3509 -488 
Q 3403 -488 3184 -531 
Q 3234 -300 3234 -31 
L 3234 1478 
L 1816 1478 
Q 1763 616 1597 159 
Q 1431 -297 941 -928 
Q 763 -734 275 -616 
z
M 1831 4391 
L 1831 3397 
L 3234 3397 
L 3234 4391 
L 1831 4391 
z
M 1822 1959 
L 3234 1959 
L 3234 2944 
L 1822 2944 
L 1822 1959 
z
M 3763 4384 
L 3763 3397 
L 5316 3397 
L 5316 4384 
L 3763 4384 
z
M 3759 2944 
L 3759 1959 
L 5316 1959 
L 5316 2944 
L 3759 2944 
z
" transform="scale(0.015625)"/>
       <path id="SIL-Hei-Med-Jian-6237" d="M 428 -547 
Q 1094 9 1328 593 
Q 1563 1178 1563 2288 
Q 1563 3547 1525 4178 
L 1859 4169 
L 2219 4159 
L 5125 4159 
L 5559 4159 
L 5884 4169 
Q 5875 4050 5872 3988 
Q 5859 3841 5859 3794 
L 5859 1428 
L 5859 1178 
Q 5859 1144 5872 1003 
Q 5641 1019 5531 1019 
L 5259 1013 
Q 5281 1284 5281 1538 
L 5281 1703 
L 2109 1703 
Q 2013 769 1792 251 
Q 1572 -266 1003 -894 
Q 750 -663 428 -547 
z
M 2109 2197 
L 5281 2197 
L 5281 3634 
L 2109 3634 
L 2109 2197 
z
M 3169 5038 
Q 3450 5084 3738 5225 
Q 3919 4822 4138 4466 
Q 3809 4419 3538 4275 
Q 3406 4681 3169 5038 
z
" transform="scale(0.015625)"/>
       <path id="SIL-Hei-Med-Jian-5360" d="M 922 -916 
Q 956 -447 956 -166 
L 956 1584 
Q 956 1959 909 2316 
Q 1325 2263 1625 2263 
L 2603 2263 
L 2603 4631 
Q 2603 4994 2566 5266 
Q 2850 5188 3313 5188 
Q 3197 4975 3197 4750 
L 3197 3978 
L 5219 3978 
Q 5634 3978 5956 4038 
Q 5916 3822 5916 3725 
Q 5916 3613 5947 3416 
Q 5681 3463 5228 3463 
L 3200 3463 
L 3200 2263 
L 4434 2263 
Q 4825 2263 5250 2306 
Q 5213 2028 5213 1741 
L 5213 -116 
Q 5213 -522 5269 -891 
Q 5053 -869 4938 -869 
Q 4819 -869 4572 -897 
Q 4581 -763 4588 -694 
Q 4606 -519 4606 -472 
L 4606 -259 
L 1516 -259 
L 1516 -453 
Q 1516 -678 1550 -931 
Q 1325 -881 1219 -881 
Q 1116 -881 922 -916 
z
M 1513 228 
L 4606 228 
L 4606 1800 
L 1513 1800 
L 1513 228 
z
" transform="scale(0.015625)"/>
       <path id="SIL-Hei-Med-Jian-6bd4" d="M 509 -328 
Q 734 -113 734 188 
L 734 4275 
Q 734 4394 709 4756 
Q 706 4822 700 4947 
Q 947 4863 1263 4863 
L 1441 4863 
Q 1300 4606 1300 4250 
L 1300 3047 
L 2113 3047 
Q 2184 3047 2494 3066 
Q 2713 3078 2772 3078 
Q 2759 2897 2759 2806 
Q 2759 2716 2772 2531 
Q 2675 2531 2478 2547 
Q 2172 2566 2122 2566 
L 1297 2566 
L 1297 44 
L 2684 1000 
Q 2684 653 2816 350 
Q 1734 -247 909 -894 
Q 763 -603 509 -328 
z
M 3200 5184 
Q 3484 5113 3741 5113 
L 3981 5116 
Q 3891 4931 3869 4716 
L 3841 4431 
Q 3819 4225 3819 4203 
L 3819 2559 
Q 4581 2988 5247 3638 
Q 5466 3278 5791 3038 
Q 5394 2888 4013 2159 
L 3803 2050 
L 3803 466 
Q 3803 -84 3843 -154 
Q 3884 -225 4203 -225 
L 4603 -225 
Q 4959 -225 5079 -47 
Q 5200 131 5294 800 
Q 5594 469 5972 350 
Q 5791 -316 5562 -536 
Q 5334 -756 4825 -756 
L 4038 -756 
Q 3519 -756 3376 -618 
Q 3234 -481 3234 22 
L 3234 4406 
Q 3234 4797 3200 5184 
z
" transform="scale(0.015625)"/>
      </defs>
      <use xlink:href="#SIL-Hei-Med-Jian-4e92"/>
      <use xlink:href="#SIL-Hei-Med-Jian-8054" x="100"/>
      <use xlink:href="#SIL-Hei-Med-Jian-7f51" x="200"/>
      <use xlink:href="#SIL-Hei-Med-Jian-7528" x="300"/>
      <use xlink:href="#SIL-Hei-Med-Jian-6237" x="400"/>
      <use xlink:href="#SIL-Hei-Med-Jian-5360" x="500"/>
      <use xlink:href="#SIL-Hei-Med-Jian-6bd4" x="600"/>
      <use xlink:href="#SIL-Hei-Med-Jian-5360" x="700"/>
      <use xlink:href="#SIL-Hei-Med-Jian-6bd4" x="800"/>
     </g>
    </g>
   </g>
   <g id="matplotlib.axis_2">
    <g id="ytick_1">
     <g id="line2d_7">
      <path d="M 108 512.64 
L 777.6 512.64 
" clip-path="url(#p61f60ac961)" style="fill: none; stroke: #ffffff; stroke-width: 1.5; stroke-linecap: round"/>
     </g>
     <g id="text_8">
      <!-- 0 -->
      <g style="fill: #262626" transform="translate(88.357563 517.371375) scale(0.132 -0.132)">
       <use xlink:href="#SIL-Hei-Med-Jian-30"/>
      </g>
     </g>
    </g>
    <g id="ytick_2">
     <g id="line2d_8">
      <path d="M 108 443.394098 
L 777.6 443.394098 
" clip-path="url(#p61f60ac961)" style="fill: none; stroke: #ffffff; stroke-width: 1.5; stroke-linecap: round"/>
     </g>
     <g id="text_9">
      <!-- 10 -->
      <g style="fill: #262626" transform="translate(81.215125 448.125473) scale(0.132 -0.132)">
       <use xlink:href="#SIL-Hei-Med-Jian-31"/>
       <use xlink:href="#SIL-Hei-Med-Jian-30" x="54.101562"/>
      </g>
     </g>
    </g>
    <g id="ytick_3">
     <g id="line2d_9">
      <path d="M 108 374.148197 
L 777.6 374.148197 
" clip-path="url(#p61f60ac961)" style="fill: none; stroke: #ffffff; stroke-width: 1.5; stroke-linecap: round"/>
     </g>
     <g id="text_10">
      <!-- 20 -->
      <g style="fill: #262626" transform="translate(81.215125 378.879572) scale(0.132 -0.132)">
       <use xlink:href="#SIL-Hei-Med-Jian-32"/>
       <use xlink:href="#SIL-Hei-Med-Jian-30" x="54.101562"/>
      </g>
     </g>
    </g>
    <g id="ytick_4">
     <g id="line2d_10">
      <path d="M 108 304.902295 
L 777.6 304.902295 
" clip-path="url(#p61f60ac961)" style="fill: none; stroke: #ffffff; stroke-width: 1.5; stroke-linecap: round"/>
     </g>
     <g id="text_11">
      <!-- 30 -->
      <g style="fill: #262626" transform="translate(81.215125 309.63367) scale(0.132 -0.132)">
       <defs>
        <path id="SIL-Hei-Med-Jian-33" d="M 1050 3372 
L 453 3372 
L 463 3422 
Q 531 3825 873 4064 
Q 1216 4303 1725 4303 
Q 2966 4303 2966 3259 
Q 2966 2559 2259 2278 
L 2194 2253 
L 2269 2231 
Q 3072 2025 3072 1172 
Q 3072 569 2694 226 
Q 2316 -116 1653 -116 
Q 647 -116 375 794 
L 975 794 
L 991 744 
Q 1131 325 1688 325 
Q 2463 325 2463 1138 
Q 2463 1938 1503 1938 
L 1456 1938 
L 1456 2441 
L 1516 2444 
Q 2356 2513 2356 3225 
Q 2356 3866 1706 3866 
Q 1172 3866 1050 3372 
z
" transform="scale(0.015625)"/>
       </defs>
       <use xlink:href="#SIL-Hei-Med-Jian-33"/>
       <use xlink:href="#SIL-Hei-Med-Jian-30" x="54.101562"/>
      </g>
     </g>
    </g>
    <g id="ytick_5">
     <g id="line2d_11">
      <path d="M 108 235.656393 
L 777.6 235.656393 
" clip-path="url(#p61f60ac961)" style="fill: none; stroke: #ffffff; stroke-width: 1.5; stroke-linecap: round"/>
     </g>
     <g id="text_12">
      <!-- 40 -->
      <g style="fill: #262626" transform="translate(81.215125 240.387768) scale(0.132 -0.132)">
       <use xlink:href="#SIL-Hei-Med-Jian-34"/>
       <use xlink:href="#SIL-Hei-Med-Jian-30" x="54.101562"/>
      </g>
     </g>
    </g>
    <g id="ytick_6">
     <g id="line2d_12">
      <path d="M 108 166.410492 
L 777.6 166.410492 
" clip-path="url(#p61f60ac961)" style="fill: none; stroke: #ffffff; stroke-width: 1.5; stroke-linecap: round"/>
     </g>
     <g id="text_13">
      <!-- 50 -->
      <g style="fill: #262626" transform="translate(81.215125 171.141867) scale(0.132 -0.132)">
       <defs>
        <path id="SIL-Hei-Med-Jian-35" d="M 2891 4228 
L 2891 3713 
L 1222 3713 
L 1059 2384 
Q 1491 2744 1931 2744 
Q 2469 2744 2772 2384 
Q 3075 2025 3075 1388 
Q 3075 -119 1641 -119 
Q 591 -119 406 750 
L 397 797 
L 994 797 
L 1009 759 
Q 1163 319 1675 319 
Q 2472 319 2472 1297 
Q 2472 2266 1703 2266 
Q 1303 2266 1131 2013 
L 1106 1978 
L 531 1975 
L 778 4228 
L 2891 4228 
z
" transform="scale(0.015625)"/>
       </defs>
       <use xlink:href="#SIL-Hei-Med-Jian-35"/>
       <use xlink:href="#SIL-Hei-Med-Jian-30" x="54.101562"/>
      </g>
     </g>
    </g>
    <g id="ytick_7">
     <g id="line2d_13">
      <path d="M 108 97.16459 
L 777.6 97.16459 
" clip-path="url(#p61f60ac961)" style="fill: none; stroke: #ffffff; stroke-width: 1.5; stroke-linecap: round"/>
     </g>
     <g id="text_14">
      <!-- 60 -->
      <g style="fill: #262626" transform="translate(81.215125 101.895965) scale(0.132 -0.132)">
       <use xlink:href="#SIL-Hei-Med-Jian-36"/>
       <use xlink:href="#SIL-Hei-Med-Jian-30" x="54.101562"/>
      </g>
     </g>
    </g>
    <g id="text_15">
     <!-- 国家地区数量 -->
     <g style="fill: #262626" transform="translate(74.908875 334.08) rotate(-90) scale(0.144 -0.144)">
      <defs>
       <path id="SIL-Hei-Med-Jian-56fd" d="M 1706 3841 
Q 2006 3816 2197 3816 
L 4256 3816 
Q 4506 3816 4766 3841 
Q 4753 3669 4753 3581 
Q 4753 3497 4766 3325 
Q 4434 3347 4269 3347 
L 3409 3347 
L 3409 2572 
L 4188 2572 
Q 4425 2572 4644 2606 
Q 4622 2422 4622 2334 
Q 4622 2241 4641 2066 
Q 4363 2088 4181 2088 
L 3409 2088 
L 3409 1041 
L 4441 1041 
Q 4600 1041 4884 1063 
Q 4863 888 4863 800 
Q 4863 713 4884 541 
Q 4566 563 4413 563 
L 1938 563 
Q 1763 563 1516 541 
Q 1528 716 1528 803 
Q 1528 891 1516 1063 
Q 1756 1041 1972 1041 
L 2909 1041 
L 2909 2088 
L 2306 2088 
Q 2056 2088 1816 2066 
Q 1825 2225 1825 2313 
Q 1825 2403 1809 2600 
Q 1928 2591 1988 2588 
Q 2159 2572 2231 2572 
L 2909 2572 
L 2909 3347 
L 2184 3347 
Q 2028 3347 1706 3325 
Q 1719 3497 1719 3581 
Q 1719 3669 1706 3841 
z
M 4088 1950 
Q 4238 1728 4506 1419 
Q 4259 1350 4028 1234 
Q 3891 1506 3666 1766 
Q 3894 1841 4088 1950 
z
M 684 4941 
Q 978 4916 1244 4916 
L 5128 4916 
Q 5422 4916 5756 4941 
Q 5734 4688 5734 4403 
L 5734 -428 
Q 5734 -709 5756 -938 
Q 5559 -913 5475 -913 
Q 5359 -913 5156 -938 
Q 5178 -750 5178 -653 
L 5178 -466 
L 1234 -466 
L 1234 -653 
Q 1234 -750 1259 -931 
Q 1056 -916 959 -916 
Q 863 -916 684 -928 
Q 709 -653 709 -450 
L 709 4403 
Q 709 4625 684 4941 
z
M 1238 4397 
L 1238 9 
L 5184 9 
L 5184 4397 
L 1238 4397 
z
" transform="scale(0.015625)"/>
       <path id="SIL-Hei-Med-Jian-5bb6" d="M 181 -75 
Q 941 6 1777 447 
Q 2613 888 3194 1516 
L 3019 1794 
L 2956 1744 
Q 1903 900 656 453 
Q 544 797 263 963 
Q 863 1025 1630 1369 
Q 2397 1713 2747 2078 
L 2522 2284 
Q 1950 1884 641 1469 
Q 478 1763 206 1978 
L 319 1975 
Q 769 1975 1537 2294 
Q 2306 2613 2778 2994 
L 2225 2994 
Q 1694 2994 1313 2944 
Q 1331 3144 1331 3244 
Q 1331 3347 1313 3547 
Q 1788 3506 2472 3506 
L 4325 3506 
Q 4619 3506 5069 3566 
Q 5056 3359 5056 3253 
Q 5056 3156 5069 2956 
Q 4722 2994 4341 2994 
L 3478 2994 
L 2947 2584 
L 2881 2531 
L 2944 2481 
Q 3334 2150 3603 1738 
Q 4150 1984 4850 2709 
Q 5106 2353 5425 2222 
Q 5281 2194 5138 2113 
L 4891 1972 
L 4631 1825 
Q 4603 1806 4541 1766 
Q 4841 488 6138 156 
Q 5706 -47 5503 -444 
Q 5459 -406 5438 -391 
Q 4772 159 4509 545 
Q 4247 931 4113 1556 
L 3772 1328 
Q 3878 866 3878 438 
Q 3878 -225 3618 -481 
Q 3359 -738 2531 -894 
Q 2509 -897 2466 -906 
Q 2466 -497 2213 -219 
Q 2419 -247 2619 -247 
Q 3088 -247 3239 -114 
Q 3391 19 3391 431 
Q 3391 644 3344 1050 
Q 2716 316 1631 -181 
L 784 -566 
Q 772 -572 672 -622 
Q 497 -247 181 -75 
z
M 484 3253 
Q 506 3738 506 3950 
L 494 4566 
Q 1022 4506 1694 4506 
L 3019 4506 
Q 2888 4844 2725 5091 
Q 3066 5091 3447 5178 
L 3606 4516 
L 4819 4516 
Q 5328 4516 5894 4553 
Q 5872 4122 5872 3875 
Q 5872 3681 5897 3244 
Q 5672 3259 5569 3259 
Q 5459 3259 5256 3247 
Q 5256 3338 5263 3425 
Q 5275 3575 5275 3591 
L 5275 3997 
L 1094 3997 
L 1094 3647 
Q 1094 3534 1106 3256 
Q 906 3278 803 3278 
Q 697 3278 484 3253 
z
" transform="scale(0.015625)"/>
       <path id="SIL-Hei-Med-Jian-5730" d="M 416 -375 
Q 344 -100 175 209 
Q 597 259 1053 441 
L 1053 2816 
L 781 2816 
Q 716 2816 534 2803 
Q 438 2797 247 2784 
Q 256 2956 256 3041 
Q 256 3128 247 3300 
Q 319 3300 534 3288 
Q 750 3275 806 3275 
L 1041 3275 
L 1041 4253 
L 1034 4650 
L 1028 4944 
Q 1372 4856 1725 4838 
Q 1519 4641 1519 4328 
L 1519 3275 
L 1778 3275 
Q 2000 3275 2219 3300 
Q 2206 3131 2206 3044 
Q 2206 2959 2219 2791 
L 2047 2803 
Q 1866 2816 1756 2816 
L 1522 2816 
L 1522 572 
Q 2019 781 2322 978 
Q 2297 778 2297 669 
Q 2297 581 2319 391 
Q 1353 78 416 -375 
z
M 2078 2656 
Q 2281 2694 2541 2769 
Q 2606 2788 2738 2825 
L 2738 3700 
L 2731 3972 
L 2719 4281 
Q 3059 4194 3391 4175 
Q 3219 4019 3219 3609 
L 3219 2966 
L 3906 3194 
L 3906 4569 
Q 3906 4853 3872 5203 
Q 4181 5131 4481 5103 
Q 4381 4881 4381 4531 
L 4381 3341 
L 5238 3622 
Q 5453 3694 5731 3853 
Q 5719 3625 5709 3509 
Q 5694 3294 5691 3253 
L 5613 1641 
Q 5588 1088 5441 927 
Q 5294 766 4747 684 
Q 4700 1153 4531 1416 
L 4663 1388 
Q 4775 1363 4841 1363 
Q 5009 1363 5062 1477 
Q 5116 1591 5116 1969 
L 5150 3116 
L 4381 2888 
L 4381 938 
Q 4381 906 4400 563 
Q 4413 388 4413 288 
Q 4234 306 4144 306 
Q 4056 306 3878 288 
Q 3878 338 3888 575 
Q 3903 863 3903 944 
L 3903 2747 
L 3219 2497 
L 3219 109 
Q 3219 -175 3298 -237 
Q 3378 -300 3738 -300 
L 4891 -300 
Q 5275 -300 5406 -147 
Q 5538 6 5600 528 
Q 5891 225 6203 122 
Q 6009 -456 5784 -612 
Q 5559 -769 4922 -769 
L 3600 -769 
Q 3044 -769 2889 -644 
Q 2734 -519 2734 -69 
L 2734 2322 
Q 2478 2209 2206 2063 
Q 2184 2363 2078 2656 
z
" transform="scale(0.015625)"/>
       <path id="SIL-Hei-Med-Jian-533a" d="M 538 -681 
Q 547 -516 553 -434 
Q 569 -194 569 -91 
L 569 4253 
Q 569 4559 531 4850 
Q 866 4813 1200 4813 
L 5034 4813 
Q 5169 4813 5663 4859 
Q 5631 4666 5631 4566 
Q 5631 4453 5681 4222 
L 5353 4247 
Q 5122 4263 5019 4263 
L 1119 4263 
L 1119 -116 
L 5178 -116 
Q 5669 -116 5925 -72 
Q 5897 -281 5897 -391 
Q 5897 -488 5928 -697 
Q 5488 -650 5169 -650 
L 1125 -650 
Q 863 -650 538 -681 
z
M 1559 744 
Q 2231 1072 3222 2128 
Q 2128 3034 1622 3306 
Q 1897 3475 2072 3725 
Q 2344 3453 3366 2606 
Q 3413 2569 3509 2488 
L 3606 2625 
Q 4138 3375 4344 3919 
Q 4613 3684 4944 3516 
Q 4681 3309 4409 2906 
Q 4328 2784 4078 2447 
Q 4016 2359 3891 2188 
Q 4647 1538 4963 1259 
L 5347 922 
Q 5031 725 4822 444 
Q 4409 1078 3584 1822 
Q 3269 1459 3159 1350 
L 2406 609 
Q 2363 566 2150 309 
Q 1916 575 1559 744 
z
" transform="scale(0.015625)"/>
       <path id="SIL-Hei-Med-Jian-6570" d="M 188 -228 
Q 1269 -228 1897 172 
Q 1328 309 850 416 
Q 1047 788 1231 1200 
L 756 1200 
Q 716 1200 566 1188 
Q 503 1181 375 1175 
Q 400 1353 400 1450 
Q 400 1528 375 1703 
Q 484 1697 541 1691 
Q 672 1678 709 1678 
L 1409 1678 
Q 1506 1969 1594 2256 
Q 1869 2084 2184 2047 
Q 1988 1891 1900 1678 
L 3219 1678 
Q 3272 1678 3422 1691 
Q 3484 1697 3609 1703 
Q 3588 1534 3588 1444 
Q 3588 1356 3613 1175 
Q 3484 1181 3422 1188 
Q 3272 1200 3231 1200 
L 2947 1200 
Q 2834 797 2638 378 
Q 2953 275 3291 159 
Q 3091 -34 2934 -266 
Q 2675 -81 2375 0 
Q 1978 -338 1678 -481 
Q 1378 -625 634 -828 
Q 541 -456 188 -228 
z
M 1484 716 
Q 1850 613 2216 516 
Q 2388 844 2494 1200 
L 1744 1200 
Q 1609 972 1484 716 
z
M 222 2359 
Q 916 2672 1325 3244 
L 838 3244 
Q 778 3244 588 3231 
Q 525 3228 400 3222 
Q 422 3400 422 3497 
Q 422 3578 397 3759 
Q 550 3750 625 3747 
Q 822 3734 897 3734 
L 1719 3734 
L 1719 4775 
Q 1719 4847 1706 5019 
Q 1703 5081 1694 5203 
Q 2028 5156 2334 5156 
Q 2206 5000 2206 4763 
L 2206 3734 
L 3016 3734 
Q 3084 3734 3253 3747 
Q 3316 3750 3444 3759 
Q 3419 3578 3419 3491 
Q 3419 3400 3444 3219 
Q 3300 3228 3228 3231 
Q 3059 3244 3003 3244 
L 2206 3244 
L 2206 2594 
Q 2206 2553 2219 2425 
Q 2222 2372 2228 2266 
Q 2053 2288 1969 2288 
Q 1875 2288 1694 2266 
Q 1703 2347 1706 2388 
Q 1719 2488 1719 2522 
L 1719 3219 
Q 1297 2519 638 1966 
Q 463 2194 222 2359 
z
M 638 4766 
Q 869 4766 1147 4875 
Q 1281 4463 1447 4041 
Q 1197 4003 969 3931 
Q 847 4356 638 4766 
z
M 2303 2816 
Q 2484 2953 2634 3134 
Q 2938 2831 3284 2528 
Q 3063 2394 2888 2194 
Q 2625 2528 2303 2816 
z
M 2456 3981 
Q 2669 4409 2803 4863 
Q 3034 4756 3316 4688 
Q 3044 4322 2875 3869 
Q 2675 3953 2456 3981 
z
M 2719 -419 
Q 3672 -219 4338 450 
Q 4013 1216 3875 2409 
L 3756 2178 
L 3659 1994 
Q 3463 2178 3197 2291 
Q 3794 3122 3997 4716 
L 4044 5094 
Q 4406 4941 4797 4913 
Q 4513 4550 4363 3909 
L 5516 3909 
Q 5578 3909 5753 3922 
Q 5828 3925 5981 3934 
Q 5969 3750 5969 3638 
Q 5969 3563 5981 3388 
Q 5878 3397 5825 3403 
Q 5719 3416 5672 3416 
L 5516 3416 
Q 5403 2031 5295 1500 
Q 5188 969 4909 416 
Q 5366 -78 6119 -281 
Q 5863 -500 5681 -859 
Q 5019 -409 4634 22 
Q 4000 -525 3184 -922 
Q 3006 -634 2719 -419 
z
M 3944 2584 
L 4113 2581 
Q 4222 2581 4422 2619 
Q 4347 2384 4341 2281 
Q 4331 2063 4420 1611 
Q 4509 1159 4625 856 
Q 4900 1788 4981 3416 
L 4244 3416 
Q 4109 3003 3944 2584 
z
" transform="scale(0.015625)"/>
       <path id="SIL-Hei-Med-Jian-91cf" d="M 375 -728 
Q 403 -559 403 -484 
Q 403 -403 381 -253 
Q 766 -297 1159 -297 
L 2916 -297 
L 2916 53 
L 1669 53 
L 1250 41 
L 944 31 
Q 963 172 963 241 
Q 963 309 947 444 
Q 1319 425 1681 425 
L 2916 425 
L 2916 697 
L 1669 697 
Q 1506 697 1238 681 
L 1038 672 
Q 1063 897 1063 1078 
L 1063 1900 
Q 1063 2153 1038 2431 
Q 1347 2413 1863 2413 
L 4316 2413 
Q 4750 2413 5328 2441 
Q 5309 2128 5309 1934 
L 5309 1084 
L 5309 850 
Q 5309 816 5328 681 
L 4956 688 
L 4450 697 
L 3394 697 
L 3394 422 
L 4753 422 
Q 5150 422 5388 456 
Q 5378 316 5378 234 
Q 5378 166 5391 13 
Q 5056 53 4669 53 
L 3394 53 
L 3394 -297 
L 5209 -297 
Q 5497 -297 5959 -250 
Q 5953 -378 5953 -456 
Q 5953 -541 5969 -728 
Q 5597 -703 5200 -703 
L 1169 -703 
Q 822 -703 375 -728 
z
M 1556 1050 
L 2919 1050 
L 2919 1400 
L 1556 1400 
L 1556 1050 
z
M 1556 2053 
L 1556 1669 
L 2919 1669 
L 2919 2053 
L 1556 2053 
z
M 3397 1050 
L 4841 1050 
L 4841 1400 
L 3397 1400 
L 3397 1050 
z
M 3397 1669 
L 4841 1669 
L 4841 2053 
L 3397 2053 
L 3397 1669 
z
M 372 2622 
Q 391 2784 391 2866 
Q 391 2947 372 3116 
Q 1053 3072 1747 3072 
L 4541 3072 
Q 5278 3072 6028 3131 
Q 6016 2953 6016 2866 
Q 6016 2778 6028 2600 
Q 5400 2659 4588 2659 
L 1713 2659 
Q 963 2659 372 2622 
z
M 1153 3328 
Q 1153 3350 1159 3497 
Q 1169 3669 1169 3725 
L 1169 4500 
Q 1169 4747 1144 5050 
Q 1788 5009 2022 5009 
L 4259 5009 
L 4822 5006 
L 5278 5034 
Q 5269 4863 5263 4778 
Q 5247 4578 5247 4513 
L 5247 3700 
Q 5247 3563 5269 3319 
Q 4863 3350 4344 3350 
L 1950 3350 
Q 1528 3350 1153 3328 
z
M 1638 4625 
L 1638 4288 
L 4741 4288 
L 4741 4625 
L 1638 4625 
z
M 1638 4013 
L 1638 3678 
L 4741 3678 
L 4741 4013 
L 1638 4013 
z
" transform="scale(0.015625)"/>
      </defs>
      <use xlink:href="#SIL-Hei-Med-Jian-56fd"/>
      <use xlink:href="#SIL-Hei-Med-Jian-5bb6" x="100"/>
      <use xlink:href="#SIL-Hei-Med-Jian-5730" x="200"/>
      <use xlink:href="#SIL-Hei-Med-Jian-533a" x="300"/>
      <use xlink:href="#SIL-Hei-Med-Jian-6570" x="400"/>
      <use xlink:href="#SIL-Hei-Med-Jian-91cf" x="500"/>
     </g>
    </g>
   </g>
   <g id="patch_3">
    <path d="M 138.436364 512.64 
L 206.072727 512.64 
L 206.072727 90.24 
L 138.436364 90.24 
z
" clip-path="url(#p61f60ac961)" style="fill: #4c72b0; fill-opacity: 0.75; stroke: #ffffff; stroke-width: 1.5; stroke-linejoin: miter"/>
   </g>
   <g id="patch_4">
    <path d="M 206.072727 512.64 
L 273.709091 512.64 
L 273.709091 450.318689 
L 206.072727 450.318689 
z
" clip-path="url(#p61f60ac961)" style="fill: #4c72b0; fill-opacity: 0.75; stroke: #ffffff; stroke-width: 1.5; stroke-linejoin: miter"/>
   </g>
   <g id="patch_5">
    <path d="M 273.709091 512.64 
L 341.345455 512.64 
L 341.345455 401.846557 
L 273.709091 401.846557 
z
" clip-path="url(#p61f60ac961)" style="fill: #4c72b0; fill-opacity: 0.75; stroke: #ffffff; stroke-width: 1.5; stroke-linejoin: miter"/>
   </g>
   <g id="patch_6">
    <path d="M 341.345455 512.64 
L 408.981818 512.64 
L 408.981818 387.997377 
L 341.345455 387.997377 
z
" clip-path="url(#p61f60ac961)" style="fill: #4c72b0; fill-opacity: 0.75; stroke: #ffffff; stroke-width: 1.5; stroke-linejoin: miter"/>
   </g>
   <g id="patch_7">
    <path d="M 408.981818 512.64 
L 476.618182 512.64 
L 476.618182 450.318689 
L 408.981818 450.318689 
z
" clip-path="url(#p61f60ac961)" style="fill: #4c72b0; fill-opacity: 0.75; stroke: #ffffff; stroke-width: 1.5; stroke-linejoin: miter"/>
   </g>
   <g id="patch_8">
    <path d="M 476.618182 512.64 
L 544.254545 512.64 
L 544.254545 408.771148 
L 476.618182 408.771148 
z
" clip-path="url(#p61f60ac961)" style="fill: #4c72b0; fill-opacity: 0.75; stroke: #ffffff; stroke-width: 1.5; stroke-linejoin: miter"/>
   </g>
   <g id="patch_9">
    <path d="M 544.254545 512.64 
L 611.890909 512.64 
L 611.890909 339.525246 
L 544.254545 339.525246 
z
" clip-path="url(#p61f60ac961)" style="fill: #4c72b0; fill-opacity: 0.75; stroke: #ffffff; stroke-width: 1.5; stroke-linejoin: miter"/>
   </g>
   <g id="patch_10">
    <path d="M 611.890909 512.64 
L 679.527273 512.64 
L 679.527273 284.128525 
L 611.890909 284.128525 
z
" clip-path="url(#p61f60ac961)" style="fill: #4c72b0; fill-opacity: 0.75; stroke: #ffffff; stroke-width: 1.5; stroke-linejoin: miter"/>
   </g>
   <g id="patch_11">
    <path d="M 679.527273 512.64 
L 747.163636 512.64 
L 747.163636 263.354754 
L 679.527273 263.354754 
z
" clip-path="url(#p61f60ac961)" style="fill: #4c72b0; fill-opacity: 0.75; stroke: #ffffff; stroke-width: 1.5; stroke-linejoin: miter"/>
   </g>
   <g id="patch_12">
    <path d="M 108 512.64 
L 108 69.12 
" style="fill: none; stroke: #ffffff; stroke-width: 1.875; stroke-linejoin: miter; stroke-linecap: square"/>
   </g>
   <g id="patch_13">
    <path d="M 777.6 512.64 
L 777.6 69.12 
" style="fill: none; stroke: #ffffff; stroke-width: 1.875; stroke-linejoin: miter; stroke-linecap: square"/>
   </g>
   <g id="patch_14">
    <path d="M 108 512.64 
L 777.6 512.64 
" style="fill: none; stroke: #ffffff; stroke-width: 1.875; stroke-linejoin: miter; stroke-linecap: square"/>
   </g>
   <g id="patch_15">
    <path d="M 108 69.12 
L 777.6 69.12 
" style="fill: none; stroke: #ffffff; stroke-width: 1.875; stroke-linejoin: miter; stroke-linecap: square"/>
   </g>
   <g id="text_16">
    <!-- 2020年各国家地区互联网用户占比分布直方图 -->
    <g style="fill: #262626" transform="translate(297.6165 63.12) scale(0.144 -0.144)">
     <defs>
      <path id="SIL-Hei-Med-Jian-5e74" d="M 216 659 
Q 228 828 228 925 
Q 228 1013 209 1206 
Q 281 1206 441 1197 
Q 628 1181 669 1181 
L 1456 1181 
L 1456 2372 
Q 1456 2528 1434 2831 
L 1738 2822 
L 2069 2813 
L 3253 2813 
L 3253 3750 
L 1906 3750 
Q 1747 3516 1694 3431 
L 1400 2963 
Q 1322 2838 1034 2466 
Q 759 2681 422 2784 
Q 1600 3881 1919 5209 
Q 2275 5028 2716 4975 
Q 2472 4800 2141 4234 
L 5150 4234 
Q 5200 4234 5431 4247 
Q 5631 4259 5725 4259 
Q 5697 4081 5697 4000 
Q 5697 3903 5722 3725 
Q 5656 3725 5453 3738 
Q 5244 3750 5184 3750 
L 3803 3750 
L 3803 2809 
L 4828 2809 
Q 4919 2809 5159 2822 
Q 5409 2831 5441 2831 
Q 5419 2659 5419 2563 
Q 5419 2481 5444 2300 
Q 5406 2300 5163 2313 
Q 4928 2325 4844 2325 
L 3800 2325 
L 3800 1181 
L 5475 1181 
Q 5522 1181 5766 1197 
Q 5975 1206 6113 1206 
Q 6100 1006 6100 922 
L 6106 653 
Q 5663 688 5475 688 
L 3800 688 
L 3800 -350 
Q 3800 -600 3819 -934 
L 3503 -928 
L 3219 -934 
Q 3250 -606 3250 -363 
L 3250 684 
L 778 684 
Q 688 684 447 672 
Q 369 669 216 659 
z
M 2000 1184 
L 3250 1184 
L 3250 2325 
L 2000 2325 
L 2000 1184 
z
" transform="scale(0.015625)"/>
      <path id="SIL-Hei-Med-Jian-5404" d="M 219 2034 
Q 1766 2125 2906 2766 
Q 2513 3156 2125 3850 
Q 1722 3222 1334 2794 
Q 1038 3038 722 3131 
Q 1706 3825 2222 5228 
Q 2528 5122 2934 5056 
Q 2678 4844 2488 4516 
L 4203 4516 
L 4697 4525 
L 5131 4531 
Q 4641 3459 3631 2703 
Q 4591 2263 6156 2191 
Q 5916 1903 5828 1494 
Q 4325 1788 3234 2406 
Q 1856 1669 613 1469 
Q 488 1756 219 2034 
z
M 2525 4034 
Q 2794 3469 3294 3006 
Q 3941 3516 4281 4034 
L 2525 4034 
z
M 1478 -919 
L 1484 -647 
L 1491 -256 
L 1491 947 
L 1484 1328 
L 1478 1559 
L 3266 1541 
L 5072 1559 
L 5066 1294 
L 5059 1000 
L 5059 -300 
L 5066 -622 
L 5072 -900 
Q 4869 -866 4772 -866 
Q 4672 -866 4481 -897 
Q 4500 -528 4500 -428 
L 2016 -428 
L 2028 -925 
Q 1834 -897 1738 -897 
Q 1650 -897 1478 -919 
z
M 2016 6 
L 4500 6 
L 4500 1113 
L 2016 1113 
L 2016 6 
z
" transform="scale(0.015625)"/>
      <path id="SIL-Hei-Med-Jian-5206" d="M 153 2459 
Q 1688 3309 2231 5097 
Q 2566 4909 2931 4784 
Q 2744 4622 2688 4528 
L 2172 3634 
Q 1963 3272 1438 2709 
L 1753 2684 
Q 2066 2659 2203 2659 
L 3819 2659 
Q 4266 2659 4794 2700 
Q 4731 2144 4731 1950 
L 4731 47 
Q 4731 -416 4490 -603 
Q 4250 -791 3553 -875 
L 3456 -884 
Q 3384 -397 3144 -128 
Q 3466 -213 3653 -213 
Q 3925 -213 4023 -108 
Q 4122 -3 4122 284 
L 4181 2163 
L 2981 2163 
Q 2947 2000 2944 1972 
L 2875 1513 
Q 2744 634 2392 182 
Q 2041 -269 1025 -872 
L 925 -928 
Q 756 -569 328 -413 
Q 1219 -234 1756 303 
Q 2050 597 2181 970 
Q 2313 1344 2409 2163 
L 2022 2163 
Q 1891 2163 1656 2150 
L 1425 2138 
Q 1438 2338 1438 2434 
Q 1438 2522 1431 2688 
L 719 2006 
Q 556 2250 153 2459 
z
M 3441 5063 
Q 3759 5063 4119 5216 
Q 4434 3409 6231 2772 
Q 5888 2531 5753 2119 
Q 4325 3009 3831 4163 
L 3575 4759 
Q 3531 4859 3441 5063 
z
" transform="scale(0.015625)"/>
      <path id="SIL-Hei-Med-Jian-5e03" d="M 197 1497 
Q 1259 2106 2184 3663 
L 1316 3663 
L 959 3663 
Q 841 3663 472 3638 
Q 494 3834 494 3934 
Q 494 4031 472 4225 
L 934 4203 
Q 1181 4191 1316 4191 
L 2403 4191 
Q 2634 4784 2738 5256 
Q 3069 5147 3431 5100 
Q 3222 4878 2947 4191 
L 5169 4191 
Q 5606 4191 6147 4225 
Q 6128 4044 6128 3959 
Q 6128 3853 6150 3650 
L 5766 3663 
L 5194 3659 
L 2741 3659 
Q 2406 3078 1984 2491 
L 3244 2491 
L 3244 2888 
L 3244 3116 
Q 3244 3178 3219 3388 
Q 3575 3325 3884 3325 
Q 3769 3122 3769 2888 
L 3769 2484 
L 4978 2484 
Q 5272 2484 5531 2513 
Q 5503 2125 5503 1997 
L 5503 438 
Q 5503 81 5342 -67 
Q 5181 -216 4716 -288 
Q 4631 -300 4463 -328 
Q 4434 75 4219 391 
Q 4381 375 4450 375 
Q 4788 375 4873 436 
Q 4959 497 4959 734 
L 4959 2056 
L 3769 2056 
L 3769 -384 
L 3769 -669 
Q 3769 -725 3791 -931 
Q 3572 -906 3453 -906 
Q 3378 -906 3219 -919 
Q 3244 -725 3244 -669 
L 3244 -397 
L 3244 2056 
L 2172 2056 
L 2172 116 
Q 2172 -94 2191 -381 
Q 2006 -372 1906 -372 
Q 1809 -372 1603 -384 
Q 1603 -313 1613 -169 
Q 1638 125 1638 153 
L 1638 2056 
Q 1209 1578 769 1103 
Q 497 1341 197 1497 
z
" transform="scale(0.015625)"/>
      <path id="SIL-Hei-Med-Jian-76f4" d="M 259 -744 
Q 284 -519 284 -419 
Q 284 -306 266 -103 
Q 538 -156 809 -156 
L 1403 -156 
L 1403 3084 
Q 1403 3166 1388 3319 
L 1369 3497 
Q 1741 3459 1941 3459 
L 2869 3459 
L 2869 3972 
L 950 3972 
Q 750 3972 459 3934 
Q 488 4147 488 4244 
Q 488 4347 466 4534 
Q 906 4497 1081 4497 
L 2869 4497 
L 2869 4953 
Q 2869 5053 2828 5206 
Q 3275 5144 3528 5144 
Q 3416 5034 3416 4834 
L 3416 4497 
L 5366 4497 
Q 5600 4497 5831 4544 
Q 5806 4338 5806 4231 
Q 5806 4134 5831 3934 
Q 5453 3972 5319 3972 
L 3416 3972 
L 3416 3459 
L 4628 3459 
Q 4813 3459 5038 3497 
Q 5009 3328 5009 3156 
L 5009 -156 
L 5594 -156 
Q 5778 -156 6053 -109 
Q 6006 -319 6006 -422 
Q 6006 -528 6053 -738 
Q 5916 -722 5847 -713 
Q 5681 -694 5603 -694 
L 856 -694 
Q 575 -694 259 -744 
z
M 1913 1613 
L 4463 1613 
L 4463 2178 
L 1913 2178 
L 1913 1613 
z
M 1913 -159 
L 4463 -159 
L 4463 381 
L 1913 381 
L 1913 -159 
z
M 1916 3025 
L 1916 2528 
L 4459 2528 
L 4459 3025 
L 1916 3025 
z
M 1916 753 
L 4463 753 
L 4463 1256 
L 1916 1256 
L 1916 753 
z
" transform="scale(0.015625)"/>
      <path id="SIL-Hei-Med-Jian-65b9" d="M 309 -488 
Q 1469 66 1872 784 
Q 2275 1503 2347 3159 
L 2366 3534 
L 1819 3534 
Q 1156 3534 378 3500 
Q 400 3700 400 3794 
Q 400 3897 381 4094 
Q 1222 4053 1819 4053 
L 4763 4053 
Q 5203 4053 6038 4091 
Q 6013 3894 6013 3797 
Q 6013 3697 6038 3500 
Q 5191 3538 4475 3538 
L 2900 3538 
L 2841 2581 
L 4006 2581 
Q 4678 2581 5234 2616 
Q 5163 2331 5131 1994 
Q 4928 -147 4762 -451 
Q 4597 -756 3584 -841 
Q 3584 -397 3284 -84 
Q 3547 -156 3784 -156 
Q 4353 -156 4397 244 
L 4600 2050 
L 2816 2050 
Q 2678 1272 2578 975 
Q 2478 678 2250 353 
Q 1784 -313 913 -925 
Q 688 -575 309 -488 
z
M 2722 5006 
Q 3038 5081 3325 5194 
Q 3400 4922 3575 4516 
Q 3603 4450 3656 4319 
Q 3359 4247 3059 4138 
Q 2931 4766 2722 5006 
z
" transform="scale(0.015625)"/>
      <path id="SIL-Hei-Med-Jian-56fe" d="M 1288 2019 
Q 2131 2078 2963 2469 
Q 2631 2747 2400 3072 
Q 2197 2816 1956 2572 
Q 1738 2738 1444 2847 
Q 1897 3103 2136 3401 
Q 2375 3700 2694 4406 
Q 2988 4278 3356 4194 
Q 3163 4088 3025 3878 
L 4363 3878 
Q 4409 3878 4569 3891 
Q 4634 3897 4766 3903 
Q 4347 3097 3650 2469 
Q 4441 2159 5144 2084 
Q 4944 1769 4828 1434 
Q 3897 1800 3294 2191 
Q 2547 1741 1628 1447 
Q 1522 1769 1288 2019 
z
M 2731 3400 
L 2681 3338 
Q 2944 3022 3294 2744 
Q 3641 3050 3897 3400 
L 2731 3400 
z
M 2591 1463 
Q 2753 1609 2834 1825 
Q 3475 1606 4153 1434 
Q 3966 1225 3859 959 
Q 3247 1275 2591 1463 
z
M 672 -900 
Q 681 -756 684 -688 
Q 697 -497 697 -422 
L 697 4581 
Q 697 4616 684 4797 
Q 675 4941 675 5022 
Q 759 5022 944 5013 
Q 1166 5000 1213 5000 
L 5244 5000 
Q 5309 5000 5513 5013 
Q 5725 5025 5772 5025 
Q 5772 4956 5759 4797 
Q 5747 4634 5747 4594 
L 5747 -434 
Q 5747 -497 5759 -688 
Q 5766 -756 5772 -900 
Q 5575 -875 5472 -875 
Q 5378 -875 5181 -900 
Q 5194 -769 5194 -725 
L 5194 -622 
L 5194 -509 
L 1225 -509 
L 1225 -622 
L 1225 -738 
Q 1225 -778 1238 -900 
Q 1047 -888 938 -888 
Q 856 -888 672 -900 
z
M 1225 19 
L 3822 19 
Q 3222 378 2113 716 
Q 2297 906 2388 1141 
Q 3291 803 4213 497 
Q 4009 269 3872 19 
L 5194 19 
L 5194 4469 
L 1225 4469 
L 1225 19 
z
" transform="scale(0.015625)"/>
     </defs>
     <use xlink:href="#SIL-Hei-Med-Jian-32"/>
     <use xlink:href="#SIL-Hei-Med-Jian-30" x="54.101562"/>
     <use xlink:href="#SIL-Hei-Med-Jian-32" x="108.203125"/>
     <use xlink:href="#SIL-Hei-Med-Jian-30" x="162.304688"/>
     <use xlink:href="#SIL-Hei-Med-Jian-5e74" x="216.40625"/>
     <use xlink:href="#SIL-Hei-Med-Jian-5404" x="316.40625"/>
     <use xlink:href="#SIL-Hei-Med-Jian-56fd" x="416.40625"/>
     <use xlink:href="#SIL-Hei-Med-Jian-5bb6" x="516.40625"/>
     <use xlink:href="#SIL-Hei-Med-Jian-5730" x="616.40625"/>
     <use xlink:href="#SIL-Hei-Med-Jian-533a" x="716.40625"/>
     <use xlink:href="#SIL-Hei-Med-Jian-4e92" x="816.40625"/>
     <use xlink:href="#SIL-Hei-Med-Jian-8054" x="916.40625"/>
     <use xlink:href="#SIL-Hei-Med-Jian-7f51" x="1016.40625"/>
     <use xlink:href="#SIL-Hei-Med-Jian-7528" x="1116.40625"/>
     <use xlink:href="#SIL-Hei-Med-Jian-6237" x="1216.40625"/>
     <use xlink:href="#SIL-Hei-Med-Jian-5360" x="1316.40625"/>
     <use xlink:href="#SIL-Hei-Med-Jian-6bd4" x="1416.40625"/>
     <use xlink:href="#SIL-Hei-Med-Jian-5206" x="1516.40625"/>
     <use xlink:href="#SIL-Hei-Med-Jian-5e03" x="1616.40625"/>
     <use xlink:href="#SIL-Hei-Med-Jian-76f4" x="1716.40625"/>
     <use xlink:href="#SIL-Hei-Med-Jian-65b9" x="1816.40625"/>
     <use xlink:href="#SIL-Hei-Med-Jian-56fe" x="1916.40625"/>
    </g>
   </g>
  </g>
 </g>
 <defs>
  <clipPath id="p61f60ac961">
   <rect x="108" y="69.12" width="669.6" height="443.52"/>
  </clipPath>
 </defs>
</svg>
