<?xml version="1.0" encoding="utf-8" standalone="no"?>
<!DOCTYPE svg PUBLIC "-//W3C//DTD SVG 1.1//EN"
  "http://www.w3.org/Graphics/SVG/1.1/DTD/svg11.dtd">
<svg xmlns:xlink="http://www.w3.org/1999/xlink" width="864pt" height="576pt" viewBox="0 0 864 576" xmlns="http://www.w3.org/2000/svg" version="1.1">
 <metadata>
  <rdf:RDF xmlns:dc="http://purl.org/dc/elements/1.1/" xmlns:cc="http://creativecommons.org/ns#" xmlns:rdf="http://www.w3.org/1999/02/22-rdf-syntax-ns#">
   <cc:Work>
    <dc:type rdf:resource="http://purl.org/dc/dcmitype/StillImage"/>
    <dc:date>2024-05-20T13:41:08.598028</dc:date>
    <dc:format>image/svg+xml</dc:format>
    <dc:creator>
     <cc:Agent>
      <dc:title>Matplotlib v3.9.0, https://matplotlib.org/</dc:title>
     </cc:Agent>
    </dc:creator>
   </cc:Work>
  </rdf:RDF>
 </metadata>
 <defs>
  <style type="text/css">*{stroke-linejoin: round; stroke-linecap: butt}</style>
 </defs>
 <g id="figure_1">
  <g id="patch_1">
   <path d="M 0 576 
L 864 576 
L 864 0 
L 0 0 
z
" style="fill: #ffffff"/>
  </g>
  <g id="axes_1">
   <g id="patch_2">
    <path d="M 108 512.64 
L 777.6 512.64 
L 777.6 69.12 
L 108 69.12 
z
" style="fill: #eaeaf2"/>
   </g>
   <g id="matplotlib.axis_1">
    <g id="xtick_1">
     <g id="line2d_1">
      <path d="M 138.436364 512.64 
L 138.436364 69.12 
" clip-path="url(#p266eefe13f)" style="fill: none; stroke: #ffffff; stroke-width: 1.5; stroke-linecap: round"/>
     </g>
     <g id="text_1">
      <!-- 0 -->
      <g style="fill: #262626" transform="translate(134.865145 534.60275) scale(0.132 -0.132)">
       <defs>
        <path id="SIL-Hei-Med-Jian-30" d="M 3169 2113 
Q 3169 -116 1713 -116 
Q 294 -116 294 2094 
Q 294 4309 1728 4309 
Q 3169 4309 3169 2113 
z
M 2563 2144 
Q 2563 3078 2380 3454 
Q 2197 3831 1741 3831 
Q 1275 3831 1087 3412 
Q 900 2994 900 1959 
Q 900 1106 1092 734 
Q 1284 363 1725 363 
Q 2178 363 2370 773 
Q 2563 1184 2563 2144 
z
" transform="scale(0.015625)"/>
       </defs>
       <use xlink:href="#SIL-Hei-Med-Jian-30"/>
      </g>
     </g>
    </g>
    <g id="xtick_2">
     <g id="line2d_2">
      <path d="M 260.181818 512.64 
L 260.181818 69.12 
" clip-path="url(#p266eefe13f)" style="fill: none; stroke: #ffffff; stroke-width: 1.5; stroke-linecap: round"/>
     </g>
     <g id="text_2">
      <!-- 20 -->
      <g style="fill: #262626" transform="translate(253.039381 534.60275) scale(0.132 -0.132)">
       <defs>
        <path id="SIL-Hei-Med-Jian-32" d="M 3075 516 
L 3075 0 
L 378 0 
L 378 591 
L 513 694 
Q 2456 2175 2456 3116 
Q 2456 3434 2256 3632 
Q 2056 3831 1738 3831 
Q 1181 3831 1016 3338 
L 431 3338 
L 456 3428 
Q 684 4309 1769 4309 
Q 2369 4309 2716 4003 
Q 3063 3697 3063 3169 
Q 3063 2569 2570 1853 
Q 2078 1138 1356 691 
L 1078 516 
L 3075 516 
z
" transform="scale(0.015625)"/>
       </defs>
       <use xlink:href="#SIL-Hei-Med-Jian-32"/>
       <use xlink:href="#SIL-Hei-Med-Jian-30" x="54.101562"/>
      </g>
     </g>
    </g>
    <g id="xtick_3">
     <g id="line2d_3">
      <path d="M 381.927273 512.64 
L 381.927273 69.12 
" clip-path="url(#p266eefe13f)" style="fill: none; stroke: #ffffff; stroke-width: 1.5; stroke-linecap: round"/>
     </g>
     <g id="text_3">
      <!-- 40 -->
      <g style="fill: #262626" transform="translate(374.784835 534.60275) scale(0.132 -0.132)">
       <defs>
        <path id="SIL-Hei-Med-Jian-34" d="M 2728 4250 
L 2728 1306 
L 3159 1306 
L 3159 809 
L 2728 809 
L 2728 0 
L 2266 0 
L 2266 809 
L 284 809 
L 284 1341 
L 2119 4250 
L 2728 4250 
z
M 2266 1328 
L 2266 3744 
L 784 1328 
L 2266 1328 
z
" transform="scale(0.015625)"/>
       </defs>
       <use xlink:href="#SIL-Hei-Med-Jian-34"/>
       <use xlink:href="#SIL-Hei-Med-Jian-30" x="54.101562"/>
      </g>
     </g>
    </g>
    <g id="xtick_4">
     <g id="line2d_4">
      <path d="M 503.672727 512.64 
L 503.672727 69.12 
" clip-path="url(#p266eefe13f)" style="fill: none; stroke: #ffffff; stroke-width: 1.5; stroke-linecap: round"/>
     </g>
     <g id="text_4">
      <!-- 60 -->
      <g style="fill: #262626" transform="translate(496.53029 534.60275) scale(0.132 -0.132)">
       <defs>
        <path id="SIL-Hei-Med-Jian-36" d="M 3063 3384 
L 2481 3384 
L 2463 3438 
Q 2322 3869 1803 3869 
Q 978 3869 978 2425 
L 975 2284 
Q 1013 2319 1031 2334 
Q 1444 2700 1859 2700 
Q 2419 2700 2741 2348 
Q 3063 1997 3063 1378 
Q 3063 -116 1738 -116 
Q 1025 -116 703 384 
Q 381 884 381 1994 
Q 381 4306 1831 4306 
Q 2838 4306 3063 3384 
z
M 2506 1303 
Q 2506 2266 1763 2266 
Q 969 2266 969 1344 
Q 969 363 1738 363 
Q 2506 363 2506 1303 
z
" transform="scale(0.015625)"/>
       </defs>
       <use xlink:href="#SIL-Hei-Med-Jian-36"/>
       <use xlink:href="#SIL-Hei-Med-Jian-30" x="54.101562"/>
      </g>
     </g>
    </g>
    <g id="xtick_5">
     <g id="line2d_5">
      <path d="M 625.418182 512.64 
L 625.418182 69.12 
" clip-path="url(#p266eefe13f)" style="fill: none; stroke: #ffffff; stroke-width: 1.5; stroke-linecap: round"/>
     </g>
     <g id="text_5">
      <!-- 80 -->
      <g style="fill: #262626" transform="translate(618.275744 534.60275) scale(0.132 -0.132)">
       <defs>
        <path id="SIL-Hei-Med-Jian-38" d="M 2234 2272 
L 2300 2247 
Q 3103 1963 3103 1128 
Q 3103 553 2737 212 
Q 2372 -128 1750 -128 
Q 1119 -128 739 206 
Q 359 541 359 1094 
Q 359 2025 1166 2259 
L 1234 2278 
L 1169 2300 
Q 522 2519 522 3216 
Q 522 3722 858 4022 
Q 1194 4322 1756 4322 
Q 2316 4322 2636 4042 
Q 2956 3763 2956 3275 
Q 2956 2525 2300 2294 
L 2234 2272 
z
M 2403 3206 
Q 2403 3888 1738 3888 
Q 1075 3888 1075 3188 
Q 1075 2869 1259 2669 
Q 1444 2469 1741 2469 
Q 2403 2469 2403 3206 
z
M 2497 1141 
Q 2497 2000 1738 2000 
Q 966 2000 966 1113 
Q 966 306 1725 306 
Q 2497 306 2497 1141 
z
" transform="scale(0.015625)"/>
       </defs>
       <use xlink:href="#SIL-Hei-Med-Jian-38"/>
       <use xlink:href="#SIL-Hei-Med-Jian-30" x="54.101562"/>
      </g>
     </g>
    </g>
    <g id="xtick_6">
     <g id="line2d_6">
      <path d="M 747.163636 512.64 
L 747.163636 69.12 
" clip-path="url(#p266eefe13f)" style="fill: none; stroke: #ffffff; stroke-width: 1.5; stroke-linecap: round"/>
     </g>
     <g id="text_6">
      <!-- 100 -->
      <g style="fill: #262626" transform="translate(736.44998 534.60275) scale(0.132 -0.132)">
       <defs>
        <path id="SIL-Hei-Med-Jian-31" d="M 2469 4250 
L 2469 0 
L 1931 0 
L 1931 3678 
Q 1641 3372 800 2941 
L 800 3575 
Q 1384 3888 1878 4250 
L 2469 4250 
z
" transform="scale(0.015625)"/>
       </defs>
       <use xlink:href="#SIL-Hei-Med-Jian-31"/>
       <use xlink:href="#SIL-Hei-Med-Jian-30" x="54.101562"/>
       <use xlink:href="#SIL-Hei-Med-Jian-30" x="108.203125"/>
      </g>
     </g>
    </g>
    <g id="text_7">
     <!-- 互联网用户占比占比 -->
     <g style="fill: #262626" transform="translate(378 552.353813) scale(0.144 -0.144)">
      <defs>
       <path id="SIL-Hei-Med-Jian-4e92" d="M 356 -541 
Q 381 -328 381 -216 
Q 381 -119 356 88 
L 1181 66 
L 4019 66 
L 4178 1059 
L 2225 1059 
L 1847 1047 
L 1581 1038 
L 1644 1353 
Q 1875 2525 2019 3619 
L 2091 4172 
L 1316 4172 
Q 988 4172 659 4138 
Q 672 4303 672 4400 
Q 672 4500 647 4722 
L 1097 4713 
L 1644 4700 
L 4931 4700 
L 5294 4700 
L 5791 4713 
Q 5769 4519 5769 4431 
Q 5769 4328 5788 4141 
Q 5191 4172 4869 4172 
L 2684 4172 
L 2516 3222 
L 4225 3222 
L 4688 3234 
L 5075 3244 
Q 4966 2559 4797 1219 
L 4650 56 
L 5450 56 
Q 5694 56 6059 75 
Q 6047 -106 6047 -216 
Q 6047 -316 6069 -547 
Q 5625 -519 5344 -519 
L 1169 -519 
L 647 -531 
L 356 -541 
z
M 2238 1556 
L 4250 1556 
L 4409 2716 
L 2431 2716 
L 2238 1556 
z
" transform="scale(0.015625)"/>
       <path id="SIL-Hei-Med-Jian-8054" d="M 209 397 
L 384 394 
Q 503 394 763 419 
L 763 4263 
L 547 4263 
Q 428 4263 291 4247 
Q 316 4450 316 4544 
Q 316 4628 303 4775 
Q 631 4750 738 4750 
L 2581 4750 
Q 2759 4750 2988 4781 
Q 2963 4603 2963 4519 
Q 2963 4425 2988 4244 
Q 2791 4259 2719 4259 
L 2538 4259 
L 2538 706 
L 3119 816 
Q 3034 700 3019 450 
L 3009 341 
Q 2772 303 2538 253 
L 2538 -384 
Q 3069 -259 3503 370 
Q 3938 1000 3938 1647 
L 3409 1647 
Q 3059 1647 2734 1625 
Q 2750 1806 2750 1894 
Q 2750 1997 2731 2194 
Q 3059 2159 3331 2159 
L 3978 2159 
L 3978 3288 
L 3559 3288 
Q 3194 3288 2850 3244 
Q 2894 3459 2894 3569 
Q 2894 3663 2859 3856 
Q 3306 3813 3509 3813 
L 4403 3813 
Q 4700 4513 4828 5184 
Q 5159 4994 5553 4909 
Q 5247 4669 4953 4050 
Q 4916 3972 4838 3813 
L 5250 3813 
Q 5516 3813 5841 3859 
Q 5819 3681 5819 3584 
Q 5819 3475 5859 3244 
Q 5441 3288 5206 3288 
L 4500 3288 
L 4500 2159 
L 5259 2159 
Q 5584 2159 6006 2203 
Q 5997 2013 5997 1900 
Q 5997 1813 6009 1606 
Q 5519 1647 5244 1647 
L 4553 1647 
Q 4681 281 6178 -222 
Q 5822 -425 5644 -822 
L 5547 -741 
Q 4984 -263 4718 109 
Q 4453 481 4278 1038 
Q 4163 484 3825 -53 
Q 3488 -591 3072 -881 
Q 2906 -503 2541 -431 
L 2541 -631 
Q 2541 -716 2559 -906 
Q 2384 -888 2303 -888 
Q 2203 -888 2019 -906 
Q 2028 -781 2034 -719 
Q 2053 -531 2053 -472 
L 2053 163 
Q 1594 63 1359 19 
Q 722 -106 406 -253 
Q 325 197 209 397 
z
M 1234 503 
L 2053 609 
L 2053 1506 
L 1234 1506 
L 1234 503 
z
M 1238 1938 
L 2056 1938 
L 2056 2900 
L 1238 2900 
L 1238 1938 
z
M 1234 3325 
L 2056 3325 
L 2056 4259 
L 1234 4259 
L 1234 3325 
z
M 3181 4963 
Q 3488 5028 3766 5131 
Q 3809 4759 4113 4188 
Q 3847 4144 3566 4053 
Q 3441 4625 3181 4963 
z
" transform="scale(0.015625)"/>
       <path id="SIL-Hei-Med-Jian-7f51" d="M 616 -822 
Q 647 -600 647 -347 
L 647 4600 
Q 647 4706 622 5019 
Q 859 4994 1100 4994 
L 5278 4994 
Q 5525 4994 5781 5019 
Q 5756 4803 5756 4613 
L 5756 -128 
Q 5756 -578 5539 -726 
Q 5322 -875 4603 -916 
Q 4584 -547 4297 -184 
Q 4675 -231 4891 -231 
Q 5081 -231 5134 -168 
Q 5188 -106 5188 119 
L 5188 4450 
L 1184 4450 
L 1184 534 
Q 1663 1094 2141 2141 
Q 1834 2847 1369 3572 
Q 1631 3653 1847 3769 
Q 2094 3256 2375 2716 
Q 2547 3259 2684 4028 
Q 2988 3863 3328 3794 
Q 3159 3638 3000 3206 
L 2766 2581 
Q 2731 2484 2638 2175 
Q 2856 1666 3256 988 
Q 3519 1347 3831 2028 
Q 3597 2594 3269 3131 
L 3134 3353 
Q 3384 3434 3597 3575 
Q 3819 3100 4066 2628 
Q 4206 3075 4341 3944 
Q 4663 3822 5034 3769 
Q 4831 3553 4691 3069 
Q 4681 3044 4494 2481 
Q 4441 2328 4344 2009 
Q 4600 1456 4691 1256 
L 4969 641 
Q 4684 572 4419 425 
Q 4263 1003 4066 1516 
Q 3700 834 3309 216 
Q 3003 375 2675 434 
Q 2984 656 3219 950 
Q 2950 878 2706 744 
Q 2544 1213 2375 1625 
Q 2044 913 1663 238 
Q 1422 372 1188 450 
L 1188 -356 
Q 1188 -544 1219 -822 
Q 1019 -788 913 -788 
Q 816 -788 616 -822 
z
" transform="scale(0.015625)"/>
       <path id="SIL-Hei-Med-Jian-7528" d="M 275 -616 
Q 853 -209 1058 292 
Q 1263 794 1263 1809 
L 1263 4613 
Q 1263 4647 1244 4797 
Q 1238 4856 1231 4969 
Q 1569 4931 1706 4931 
L 5319 4931 
Q 5725 4931 5925 4963 
Q 5888 4775 5888 4566 
L 5888 -316 
Q 5888 -647 5639 -784 
Q 5391 -922 4797 -922 
Q 4797 -534 4538 -256 
L 4691 -272 
Q 4931 -297 5069 -297 
Q 5316 -297 5316 3 
L 5316 1478 
L 3763 1478 
L 3763 -156 
Q 3763 -291 3794 -519 
Q 3606 -488 3509 -488 
Q 3403 -488 3184 -531 
Q 3234 -300 3234 -31 
L 3234 1478 
L 1816 1478 
Q 1763 616 1597 159 
Q 1431 -297 941 -928 
Q 763 -734 275 -616 
z
M 1831 4391 
L 1831 3397 
L 3234 3397 
L 3234 4391 
L 1831 4391 
z
M 1822 1959 
L 3234 1959 
L 3234 2944 
L 1822 2944 
L 1822 1959 
z
M 3763 4384 
L 3763 3397 
L 5316 3397 
L 5316 4384 
L 3763 4384 
z
M 3759 2944 
L 3759 1959 
L 5316 1959 
L 5316 2944 
L 3759 2944 
z
" transform="scale(0.015625)"/>
       <path id="SIL-Hei-Med-Jian-6237" d="M 428 -547 
Q 1094 9 1328 593 
Q 1563 1178 1563 2288 
Q 1563 3547 1525 4178 
L 1859 4169 
L 2219 4159 
L 5125 4159 
L 5559 4159 
L 5884 4169 
Q 5875 4050 5872 3988 
Q 5859 3841 5859 3794 
L 5859 1428 
L 5859 1178 
Q 5859 1144 5872 1003 
Q 5641 1019 5531 1019 
L 5259 1013 
Q 5281 1284 5281 1538 
L 5281 1703 
L 2109 1703 
Q 2013 769 1792 251 
Q 1572 -266 1003 -894 
Q 750 -663 428 -547 
z
M 2109 2197 
L 5281 2197 
L 5281 3634 
L 2109 3634 
L 2109 2197 
z
M 3169 5038 
Q 3450 5084 3738 5225 
Q 3919 4822 4138 4466 
Q 3809 4419 3538 4275 
Q 3406 4681 3169 5038 
z
" transform="scale(0.015625)"/>
       <path id="SIL-Hei-Med-Jian-5360" d="M 922 -916 
Q 956 -447 956 -166 
L 956 1584 
Q 956 1959 909 2316 
Q 1325 2263 1625 2263 
L 2603 2263 
L 2603 4631 
Q 2603 4994 2566 5266 
Q 2850 5188 3313 5188 
Q 3197 4975 3197 4750 
L 3197 3978 
L 5219 3978 
Q 5634 3978 5956 4038 
Q 5916 3822 5916 3725 
Q 5916 3613 5947 3416 
Q 5681 3463 5228 3463 
L 3200 3463 
L 3200 2263 
L 4434 2263 
Q 4825 2263 5250 2306 
Q 5213 2028 5213 1741 
L 5213 -116 
Q 5213 -522 5269 -891 
Q 5053 -869 4938 -869 
Q 4819 -869 4572 -897 
Q 4581 -763 4588 -694 
Q 4606 -519 4606 -472 
L 4606 -259 
L 1516 -259 
L 1516 -453 
Q 1516 -678 1550 -931 
Q 1325 -881 1219 -881 
Q 1116 -881 922 -916 
z
M 1513 228 
L 4606 228 
L 4606 1800 
L 1513 1800 
L 1513 228 
z
" transform="scale(0.015625)"/>
       <path id="SIL-Hei-Med-Jian-6bd4" d="M 509 -328 
Q 734 -113 734 188 
L 734 4275 
Q 734 4394 709 4756 
Q 706 4822 700 4947 
Q 947 4863 1263 4863 
L 1441 4863 
Q 1300 4606 1300 4250 
L 1300 3047 
L 2113 3047 
Q 2184 3047 2494 3066 
Q 2713 3078 2772 3078 
Q 2759 2897 2759 2806 
Q 2759 2716 2772 2531 
Q 2675 2531 2478 2547 
Q 2172 2566 2122 2566 
L 1297 2566 
L 1297 44 
L 2684 1000 
Q 2684 653 2816 350 
Q 1734 -247 909 -894 
Q 763 -603 509 -328 
z
M 3200 5184 
Q 3484 5113 3741 5113 
L 3981 5116 
Q 3891 4931 3869 4716 
L 3841 4431 
Q 3819 4225 3819 4203 
L 3819 2559 
Q 4581 2988 5247 3638 
Q 5466 3278 5791 3038 
Q 5394 2888 4013 2159 
L 3803 2050 
L 3803 466 
Q 3803 -84 3843 -154 
Q 3884 -225 4203 -225 
L 4603 -225 
Q 4959 -225 5079 -47 
Q 5200 131 5294 800 
Q 5594 469 5972 350 
Q 5791 -316 5562 -536 
Q 5334 -756 4825 -756 
L 4038 -756 
Q 3519 -756 3376 -618 
Q 3234 -481 3234 22 
L 3234 4406 
Q 3234 4797 3200 5184 
z
" transform="scale(0.015625)"/>
      </defs>
      <use xlink:href="#SIL-Hei-Med-Jian-4e92"/>
      <use xlink:href="#SIL-Hei-Med-Jian-8054" x="100"/>
      <use xlink:href="#SIL-Hei-Med-Jian-7f51" x="200"/>
      <use xlink:href="#SIL-Hei-Med-Jian-7528" x="300"/>
      <use xlink:href="#SIL-Hei-Med-Jian-6237" x="400"/>
      <use xlink:href="#SIL-Hei-Med-Jian-5360" x="500"/>
      <use xlink:href="#SIL-Hei-Med-Jian-6bd4" x="600"/>
      <use xlink:href="#SIL-Hei-Med-Jian-5360" x="700"/>
      <use xlink:href="#SIL-Hei-Med-Jian-6bd4" x="800"/>
     </g>
    </g>
   </g>
   <g id="matplotlib.axis_2">
    <g id="ytick_1">
     <g id="line2d_7">
      <path d="M 108 504.058129 
L 777.6 504.058129 
" clip-path="url(#p266eefe13f)" style="fill: none; stroke: #ffffff; stroke-width: 1.5; stroke-linecap: round"/>
     </g>
     <g id="text_8">
      <!-- 0 -->
      <g style="fill: #262626" transform="translate(88.357563 508.789504) scale(0.132 -0.132)">
       <use xlink:href="#SIL-Hei-Med-Jian-30"/>
      </g>
     </g>
    </g>
    <g id="ytick_2">
     <g id="line2d_8">
      <path d="M 108 407.62778 
L 777.6 407.62778 
" clip-path="url(#p266eefe13f)" style="fill: none; stroke: #ffffff; stroke-width: 1.5; stroke-linecap: round"/>
     </g>
     <g id="text_9">
      <!-- 100 -->
      <g style="fill: #262626" transform="translate(74.072688 412.359155) scale(0.132 -0.132)">
       <use xlink:href="#SIL-Hei-Med-Jian-31"/>
       <use xlink:href="#SIL-Hei-Med-Jian-30" x="54.101562"/>
       <use xlink:href="#SIL-Hei-Med-Jian-30" x="108.203125"/>
      </g>
     </g>
    </g>
    <g id="ytick_3">
     <g id="line2d_9">
      <path d="M 108 311.197432 
L 777.6 311.197432 
" clip-path="url(#p266eefe13f)" style="fill: none; stroke: #ffffff; stroke-width: 1.5; stroke-linecap: round"/>
     </g>
     <g id="text_10">
      <!-- 200 -->
      <g style="fill: #262626" transform="translate(74.072688 315.928807) scale(0.132 -0.132)">
       <use xlink:href="#SIL-Hei-Med-Jian-32"/>
       <use xlink:href="#SIL-Hei-Med-Jian-30" x="54.101562"/>
       <use xlink:href="#SIL-Hei-Med-Jian-30" x="108.203125"/>
      </g>
     </g>
    </g>
    <g id="ytick_4">
     <g id="line2d_10">
      <path d="M 108 214.767083 
L 777.6 214.767083 
" clip-path="url(#p266eefe13f)" style="fill: none; stroke: #ffffff; stroke-width: 1.5; stroke-linecap: round"/>
     </g>
     <g id="text_11">
      <!-- 300 -->
      <g style="fill: #262626" transform="translate(74.072688 219.498458) scale(0.132 -0.132)">
       <defs>
        <path id="SIL-Hei-Med-Jian-33" d="M 1050 3372 
L 453 3372 
L 463 3422 
Q 531 3825 873 4064 
Q 1216 4303 1725 4303 
Q 2966 4303 2966 3259 
Q 2966 2559 2259 2278 
L 2194 2253 
L 2269 2231 
Q 3072 2025 3072 1172 
Q 3072 569 2694 226 
Q 2316 -116 1653 -116 
Q 647 -116 375 794 
L 975 794 
L 991 744 
Q 1131 325 1688 325 
Q 2463 325 2463 1138 
Q 2463 1938 1503 1938 
L 1456 1938 
L 1456 2441 
L 1516 2444 
Q 2356 2513 2356 3225 
Q 2356 3866 1706 3866 
Q 1172 3866 1050 3372 
z
" transform="scale(0.015625)"/>
       </defs>
       <use xlink:href="#SIL-Hei-Med-Jian-33"/>
       <use xlink:href="#SIL-Hei-Med-Jian-30" x="54.101562"/>
       <use xlink:href="#SIL-Hei-Med-Jian-30" x="108.203125"/>
      </g>
     </g>
    </g>
    <g id="ytick_5">
     <g id="line2d_11">
      <path d="M 108 118.336735 
L 777.6 118.336735 
" clip-path="url(#p266eefe13f)" style="fill: none; stroke: #ffffff; stroke-width: 1.5; stroke-linecap: round"/>
     </g>
     <g id="text_12">
      <!-- 400 -->
      <g style="fill: #262626" transform="translate(74.072688 123.06811) scale(0.132 -0.132)">
       <use xlink:href="#SIL-Hei-Med-Jian-34"/>
       <use xlink:href="#SIL-Hei-Med-Jian-30" x="54.101562"/>
       <use xlink:href="#SIL-Hei-Med-Jian-30" x="108.203125"/>
      </g>
     </g>
    </g>
    <g id="text_13">
     <!-- 移动互联网订阅量 -->
     <g style="fill: #262626" transform="translate(67.766437 348.48) rotate(-90) scale(0.144 -0.144)">
      <defs>
       <path id="SIL-Hei-Med-Jian-79fb" d="M 194 875 
Q 922 1591 1372 2863 
L 831 2863 
Q 766 2863 588 2850 
Q 525 2844 403 2838 
Q 428 3013 428 3103 
Q 428 3188 403 3359 
Q 541 3350 609 3347 
Q 778 3334 844 3334 
L 1469 3334 
L 1469 4200 
Q 1119 4128 725 4041 
Q 647 4369 438 4597 
Q 2050 4675 2603 5053 
Q 2747 4725 2963 4431 
L 2806 4431 
Q 2509 4431 1956 4316 
L 1956 3334 
L 2316 3334 
Q 2363 3334 2475 3344 
Q 2541 3350 2675 3363 
Q 2647 3178 2647 3094 
Q 2647 3003 2669 2838 
Q 2563 2844 2509 2850 
Q 2378 2863 2338 2863 
L 1959 2863 
L 1959 2022 
Q 2150 2125 2313 2259 
L 2634 1856 
L 2922 1500 
Q 2669 1372 2463 1194 
Q 2272 1550 2069 1806 
Q 2031 1850 1959 1944 
L 1959 -347 
Q 1959 -606 2006 -853 
Q 1806 -806 1703 -806 
Q 1616 -806 1438 -844 
Q 1469 -591 1469 -334 
L 1469 1956 
Q 1078 1053 609 369 
Q 444 669 194 875 
z
M 2313 -328 
Q 3475 -328 4250 97 
Q 4022 447 3725 747 
Q 3978 881 4169 1072 
L 4447 709 
L 4681 403 
Q 5141 950 5366 1475 
L 4119 1475 
Q 3619 956 3081 475 
Q 2866 722 2559 888 
Q 3122 1159 3442 1451 
Q 3763 1744 4241 2428 
Q 3828 2194 3272 1972 
Q 3166 1931 2953 1844 
Q 2816 2113 2594 2369 
Q 3244 2453 4006 2788 
Q 3763 3088 3491 3347 
Q 3753 3459 3919 3666 
Q 4138 3369 4381 3094 
Q 4728 3403 5122 4034 
L 3809 4034 
Q 3641 3816 3591 3753 
L 3356 3475 
Q 3266 3363 3066 3116 
Q 2875 3325 2622 3450 
Q 3450 4159 3838 5256 
Q 4188 5075 4594 5003 
Q 4313 4838 4094 4519 
L 5503 4519 
Q 5672 4519 5959 4556 
Q 5538 3663 5267 3306 
Q 4997 2950 4409 2519 
Q 4681 2378 5000 2338 
Q 4725 2209 4522 1959 
L 5697 1959 
Q 5872 1959 6134 2000 
L 5991 1641 
Q 5484 363 4817 -160 
Q 4150 -684 2716 -922 
Q 2600 -581 2313 -328 
z
" transform="scale(0.015625)"/>
       <path id="SIL-Hei-Med-Jian-52a8" d="M 500 2472 
Q 528 2672 528 2778 
Q 528 2888 491 3113 
Q 972 3056 1172 3056 
L 2544 3056 
L 2809 3056 
Q 2850 3056 3016 3078 
Q 3066 3278 3066 3381 
Q 3066 3475 3019 3666 
Q 3400 3631 3622 3631 
L 4119 3631 
L 4122 4016 
Q 4122 4631 4059 5213 
Q 4513 5078 4891 5078 
Q 4666 4800 4666 4141 
Q 4666 4116 4641 3631 
L 5456 3631 
Q 5616 3631 6150 3675 
Q 6097 3441 6075 3147 
L 5844 203 
Q 5806 -275 5576 -444 
Q 5347 -613 4653 -672 
L 4653 -619 
L 4647 -500 
Q 4628 -303 4413 -22 
Q 4669 -41 4794 -53 
Q 4875 -63 4944 -63 
Q 5150 -63 5239 90 
Q 5328 244 5359 653 
L 5541 3125 
L 4641 3125 
Q 4481 1184 4145 489 
Q 3809 -206 2700 -906 
Q 2553 -634 2125 -428 
Q 2903 -188 3434 369 
Q 3141 291 2881 147 
Q 2831 344 2772 516 
Q 1753 272 794 -63 
Q 706 225 544 491 
Q 897 672 1086 1022 
Q 1275 1372 1631 2491 
L 1084 2491 
L 722 2478 
L 500 2472 
z
M 1341 584 
L 2641 931 
Q 2469 1253 2306 1531 
Q 2547 1609 2775 1750 
Q 2994 1244 3100 1047 
L 3344 597 
Q 3363 559 3444 391 
Q 3769 906 3881 1367 
Q 3994 1828 4109 3125 
L 3647 3125 
Q 3556 3125 3403 3113 
L 3216 3100 
Q 3172 2881 3172 2781 
Q 3172 2666 3209 2456 
Q 2841 2491 2591 2491 
L 2238 2491 
L 2131 2213 
L 1850 1509 
Q 1631 953 1341 584 
z
M 794 3944 
Q 819 4175 819 4284 
Q 819 4394 803 4594 
Q 1219 4544 1341 4544 
L 2469 4544 
Q 2775 4544 3138 4588 
Q 3088 4309 3088 4184 
Q 3088 4091 3097 3947 
Q 2894 3966 2847 3966 
L 2469 3966 
L 1328 3966 
L 1025 3966 
Q 978 3966 794 3944 
z
" transform="scale(0.015625)"/>
       <path id="SIL-Hei-Med-Jian-8ba2" d="M 159 2722 
Q 194 2931 194 3038 
Q 194 3138 159 3344 
Q 481 3306 609 3306 
L 1272 3306 
Q 1506 3306 1791 3353 
Q 1766 3009 1766 2806 
L 1766 375 
Q 1934 528 2022 606 
Q 2384 925 2613 1178 
Q 2659 822 2834 541 
Q 2178 81 1241 -794 
Q 1150 -466 878 -269 
Q 1034 -172 1184 -31 
L 1184 2766 
L 606 2766 
Q 372 2766 159 2722 
z
M 834 4991 
Q 1163 5075 1428 5272 
Q 1722 4656 2169 4009 
Q 1853 3900 1553 3719 
L 1441 3978 
Q 1219 4469 834 4991 
z
M 2572 4081 
Q 2597 4316 2597 4431 
Q 2597 4547 2575 4769 
Q 2866 4709 3094 4709 
L 5750 4709 
Q 6038 4709 6263 4750 
Q 6244 4547 6244 4441 
Q 6244 4328 6269 4091 
Q 5994 4131 5750 4131 
L 5106 4131 
L 5106 -138 
Q 5106 -528 4853 -701 
Q 4600 -875 3975 -906 
Q 3919 -538 3719 -209 
Q 3978 -244 4203 -244 
Q 4400 -244 4454 -167 
Q 4509 -91 4509 181 
L 4509 4131 
L 3138 4131 
Q 2803 4131 2572 4081 
z
" transform="scale(0.015625)"/>
       <path id="SIL-Hei-Med-Jian-9605" d="M 613 -850 
Q 631 -738 631 -691 
L 628 -569 
L 628 3800 
L 631 3969 
Q 631 4000 613 4103 
Q 934 3991 1325 3966 
Q 1175 3772 1175 3569 
L 1175 -459 
L 1175 -678 
Q 1175 -713 1188 -850 
Q 991 -822 878 -822 
Q 800 -822 613 -850 
z
M 1122 4944 
Q 1400 5056 1644 5222 
Q 1925 4775 2231 4303 
Q 1938 4169 1663 4019 
Q 1431 4503 1122 4944 
z
M 2050 3906 
Q 2319 3966 2541 4138 
Q 2731 3828 2975 3506 
Q 2706 3406 2453 3281 
Q 2266 3619 2050 3906 
z
M 2628 4353 
Q 2653 4550 2653 4650 
Q 2653 4744 2628 4938 
Q 2734 4928 2788 4925 
Q 2941 4913 3000 4913 
L 5313 4913 
Q 5369 4913 5538 4925 
Q 5600 4928 5722 4938 
Q 5716 4819 5709 4759 
Q 5697 4594 5697 4544 
L 5697 -241 
Q 5697 -572 5573 -681 
Q 5450 -791 5019 -841 
Q 4891 -856 4641 -897 
Q 4575 -509 4391 -206 
Q 4616 -259 4803 -259 
Q 5153 -259 5153 78 
L 5153 4378 
L 3009 4378 
Q 2969 4378 2825 4366 
Q 2759 4363 2628 4353 
z
M 3656 4184 
Q 3972 4028 4300 3900 
Q 4019 3713 3669 3234 
L 4163 3234 
Q 4209 3234 4350 3247 
Q 4403 3253 4509 3259 
Q 4503 3156 4497 3103 
Q 4484 2991 4484 2959 
L 4484 1925 
Q 4484 1891 4497 1759 
Q 4503 1703 4509 1591 
Q 4403 1600 4350 1603 
Q 4197 1616 4138 1616 
L 3753 1616 
L 3753 519 
L 3750 447 
Q 3750 359 3831 353 
L 3894 353 
L 4069 353 
Q 4306 353 4306 713 
L 4303 872 
Q 4544 672 4834 638 
Q 4731 147 4614 17 
Q 4497 -113 4153 -113 
L 3628 -113 
Q 3391 -113 3330 -63 
Q 3269 -13 3269 181 
L 3269 1616 
L 2850 1616 
Q 2816 844 2603 469 
Q 2391 94 1725 -372 
Q 1556 -125 1303 59 
Q 1891 281 2091 572 
Q 2291 863 2369 1616 
L 2072 1616 
Q 2028 1616 1900 1603 
Q 1850 1600 1750 1591 
Q 1759 1725 1763 1794 
Q 1775 1963 1775 2019 
L 1775 2950 
Q 1775 2984 1763 3103 
Q 1756 3156 1750 3259 
Q 1850 3250 1900 3247 
Q 2034 3234 2084 3234 
L 3147 3234 
Q 3478 3691 3656 4184 
z
M 2281 2794 
L 2281 2091 
L 3978 2091 
L 3978 2794 
L 2281 2794 
z
" transform="scale(0.015625)"/>
       <path id="SIL-Hei-Med-Jian-91cf" d="M 375 -728 
Q 403 -559 403 -484 
Q 403 -403 381 -253 
Q 766 -297 1159 -297 
L 2916 -297 
L 2916 53 
L 1669 53 
L 1250 41 
L 944 31 
Q 963 172 963 241 
Q 963 309 947 444 
Q 1319 425 1681 425 
L 2916 425 
L 2916 697 
L 1669 697 
Q 1506 697 1238 681 
L 1038 672 
Q 1063 897 1063 1078 
L 1063 1900 
Q 1063 2153 1038 2431 
Q 1347 2413 1863 2413 
L 4316 2413 
Q 4750 2413 5328 2441 
Q 5309 2128 5309 1934 
L 5309 1084 
L 5309 850 
Q 5309 816 5328 681 
L 4956 688 
L 4450 697 
L 3394 697 
L 3394 422 
L 4753 422 
Q 5150 422 5388 456 
Q 5378 316 5378 234 
Q 5378 166 5391 13 
Q 5056 53 4669 53 
L 3394 53 
L 3394 -297 
L 5209 -297 
Q 5497 -297 5959 -250 
Q 5953 -378 5953 -456 
Q 5953 -541 5969 -728 
Q 5597 -703 5200 -703 
L 1169 -703 
Q 822 -703 375 -728 
z
M 1556 1050 
L 2919 1050 
L 2919 1400 
L 1556 1400 
L 1556 1050 
z
M 1556 2053 
L 1556 1669 
L 2919 1669 
L 2919 2053 
L 1556 2053 
z
M 3397 1050 
L 4841 1050 
L 4841 1400 
L 3397 1400 
L 3397 1050 
z
M 3397 1669 
L 4841 1669 
L 4841 2053 
L 3397 2053 
L 3397 1669 
z
M 372 2622 
Q 391 2784 391 2866 
Q 391 2947 372 3116 
Q 1053 3072 1747 3072 
L 4541 3072 
Q 5278 3072 6028 3131 
Q 6016 2953 6016 2866 
Q 6016 2778 6028 2600 
Q 5400 2659 4588 2659 
L 1713 2659 
Q 963 2659 372 2622 
z
M 1153 3328 
Q 1153 3350 1159 3497 
Q 1169 3669 1169 3725 
L 1169 4500 
Q 1169 4747 1144 5050 
Q 1788 5009 2022 5009 
L 4259 5009 
L 4822 5006 
L 5278 5034 
Q 5269 4863 5263 4778 
Q 5247 4578 5247 4513 
L 5247 3700 
Q 5247 3563 5269 3319 
Q 4863 3350 4344 3350 
L 1950 3350 
Q 1528 3350 1153 3328 
z
M 1638 4625 
L 1638 4288 
L 4741 4288 
L 4741 4625 
L 1638 4625 
z
M 1638 4013 
L 1638 3678 
L 4741 3678 
L 4741 4013 
L 1638 4013 
z
" transform="scale(0.015625)"/>
      </defs>
      <use xlink:href="#SIL-Hei-Med-Jian-79fb"/>
      <use xlink:href="#SIL-Hei-Med-Jian-52a8" x="100"/>
      <use xlink:href="#SIL-Hei-Med-Jian-4e92" x="200"/>
      <use xlink:href="#SIL-Hei-Med-Jian-8054" x="300"/>
      <use xlink:href="#SIL-Hei-Med-Jian-7f51" x="400"/>
      <use xlink:href="#SIL-Hei-Med-Jian-8ba2" x="500"/>
      <use xlink:href="#SIL-Hei-Med-Jian-9605" x="600"/>
      <use xlink:href="#SIL-Hei-Med-Jian-91cf" x="700"/>
     </g>
    </g>
   </g>
   <g id="PathCollection_1">
    <defs>
     <path id="C0_0_2a1ca656a6" d="M 0 4.5 
C 1.193414 4.5 2.338109 4.025852 3.181981 3.181981 
C 4.025852 2.338109 4.5 1.193414 4.5 -0 
C 4.5 -1.193414 4.025852 -2.338109 3.181981 -3.181981 
C 2.338109 -4.025852 1.193414 -4.5 0 -4.5 
C -1.193414 -4.5 -2.338109 -4.025852 -3.181981 -3.181981 
C -4.025852 -2.338109 -4.5 -1.193414 -4.5 0 
C -4.5 1.193414 -4.025852 2.338109 -3.181981 3.181981 
C -2.338109 4.025852 -1.193414 4.5 0 4.5 
z
"/>
    </defs>
    <g clip-path="url(#p266eefe13f)">
     <use xlink:href="#C0_0_2a1ca656a6" x="250.44218" y="447.881845" style="fill: #f77189; stroke: #ffffff; stroke-width: 0.72"/>
    </g>
    <g clip-path="url(#p266eefe13f)">
     <use xlink:href="#C0_0_2a1ca656a6" x="578.180932" y="416.303672" style="fill: #f77185; stroke: #ffffff; stroke-width: 0.72"/>
    </g>
    <g clip-path="url(#p266eefe13f)">
     <use xlink:href="#C0_0_2a1ca656a6" x="521.325827" y="403.87923" style="fill: #f77181; stroke: #ffffff; stroke-width: 0.72"/>
    </g>
    <g clip-path="url(#p266eefe13f)">
     <use xlink:href="#C0_0_2a1ca656a6" x="138.436364" y="386.741714" style="fill: #f7727d; stroke: #ffffff; stroke-width: 0.72"/>
    </g>
    <g clip-path="url(#p266eefe13f)">
     <use xlink:href="#C0_0_2a1ca656a6" x="357.578182" y="461.089239" style="fill: #f77279; stroke: #ffffff; stroke-width: 0.72"/>
    </g>
    <g clip-path="url(#p266eefe13f)">
     <use xlink:href="#C0_0_2a1ca656a6" x="138.436364" y="322.87397" style="fill: #f77374; stroke: #ffffff; stroke-width: 0.72"/>
    </g>
    <g clip-path="url(#p266eefe13f)">
     <use xlink:href="#C0_0_2a1ca656a6" x="658.898182" y="387.213087" style="fill: #f7736f; stroke: #ffffff; stroke-width: 0.72"/>
    </g>
    <g clip-path="url(#p266eefe13f)">
     <use xlink:href="#C0_0_2a1ca656a6" x="604.173613" y="390.525114" style="fill: #f7746a; stroke: #ffffff; stroke-width: 0.72"/>
    </g>
    <g clip-path="url(#p266eefe13f)">
     <use xlink:href="#C0_0_2a1ca656a6" x="138.436364" y="376.707858" style="fill: #f77465; stroke: #ffffff; stroke-width: 0.72"/>
    </g>
    <g clip-path="url(#p266eefe13f)">
     <use xlink:href="#C0_0_2a1ca656a6" x="683.855991" y="400.241874" style="fill: #f7745e; stroke: #ffffff; stroke-width: 0.72"/>
    </g>
    <g clip-path="url(#p266eefe13f)">
     <use xlink:href="#C0_0_2a1ca656a6" x="671.251855" y="389.307817" style="fill: #f77558; stroke: #ffffff; stroke-width: 0.72"/>
    </g>
    <g clip-path="url(#p266eefe13f)">
     <use xlink:href="#C0_0_2a1ca656a6" x="653.419627" y="405.676926" style="fill: #f77550; stroke: #ffffff; stroke-width: 0.72"/>
    </g>
    <g clip-path="url(#p266eefe13f)">
     <use xlink:href="#C0_0_2a1ca656a6" x="668.029091" y="389.786731" style="fill: #f87647; stroke: #ffffff; stroke-width: 0.72"/>
    </g>
    <g clip-path="url(#p266eefe13f)">
     <use xlink:href="#C0_0_2a1ca656a6" x="745.154825" y="404.958738" style="fill: #f8763c; stroke: #ffffff; stroke-width: 0.72"/>
    </g>
    <g clip-path="url(#p266eefe13f)">
     <use xlink:href="#C0_0_2a1ca656a6" x="289.400723" y="400.841452" style="fill: #f77832; stroke: #ffffff; stroke-width: 0.72"/>
    </g>
    <g clip-path="url(#p266eefe13f)">
     <use xlink:href="#C0_0_2a1ca656a6" x="138.436364" y="405.069167" style="fill: #f37a32; stroke: #ffffff; stroke-width: 0.72"/>
    </g>
    <g clip-path="url(#p266eefe13f)">
     <use xlink:href="#C0_0_2a1ca656a6" x="656.402378" y="384.617946" style="fill: #ef7d32; stroke: #ffffff; stroke-width: 0.72"/>
    </g>
    <g clip-path="url(#p266eefe13f)">
     <use xlink:href="#C0_0_2a1ca656a6" x="695.582601" y="408.126132" style="fill: #eb7f32; stroke: #ffffff; stroke-width: 0.72"/>
    </g>
    <g clip-path="url(#p266eefe13f)">
     <use xlink:href="#C0_0_2a1ca656a6" x="138.436364" y="440.034438" style="fill: #e88232; stroke: #ffffff; stroke-width: 0.72"/>
    </g>
    <g clip-path="url(#p266eefe13f)">
     <use xlink:href="#C0_0_2a1ca656a6" x="295.487995" y="415.441264" style="fill: #e58432; stroke: #ffffff; stroke-width: 0.72"/>
    </g>
    <g clip-path="url(#p266eefe13f)">
     <use xlink:href="#C0_0_2a1ca656a6" x="138.436364" y="398.767918" style="fill: #e28532; stroke: #ffffff; stroke-width: 0.72"/>
    </g>
    <g clip-path="url(#p266eefe13f)">
     <use xlink:href="#C0_0_2a1ca656a6" x="464.105455" y="410.935945" style="fill: #df8732; stroke: #ffffff; stroke-width: 0.72"/>
    </g>
    <g clip-path="url(#p266eefe13f)">
     <use xlink:href="#C0_0_2a1ca656a6" x="503.308109" y="406.542932" style="fill: #dc8932; stroke: #ffffff; stroke-width: 0.72"/>
    </g>
    <g clip-path="url(#p266eefe13f)">
     <use xlink:href="#C0_0_2a1ca656a6" x="584.085594" y="400.901235" style="fill: #da8a32; stroke: #ffffff; stroke-width: 0.72"/>
    </g>
    <g clip-path="url(#p266eefe13f)">
     <use xlink:href="#C0_0_2a1ca656a6" x="528.021818" y="347.030188" style="fill: #d78b32; stroke: #ffffff; stroke-width: 0.72"/>
    </g>
    <g clip-path="url(#p266eefe13f)">
     <use xlink:href="#C0_0_2a1ca656a6" x="633.591545" y="410.6785" style="fill: #d58d32; stroke: #ffffff; stroke-width: 0.72"/>
    </g>
    <g clip-path="url(#p266eefe13f)">
     <use xlink:href="#C0_0_2a1ca656a6" x="138.436364" y="391.89577" style="fill: #d28e32; stroke: #ffffff; stroke-width: 0.72"/>
    </g>
    <g clip-path="url(#p266eefe13f)">
     <use xlink:href="#C0_0_2a1ca656a6" x="716.727273" y="385.781677" style="fill: #d08f32; stroke: #ffffff; stroke-width: 0.72"/>
    </g>
    <g clip-path="url(#p266eefe13f)">
     <use xlink:href="#C0_0_2a1ca656a6" x="565.51944" y="393.787356" style="fill: #ce9032; stroke: #ffffff; stroke-width: 0.72"/>
    </g>
    <g clip-path="url(#p266eefe13f)">
     <use xlink:href="#C0_0_2a1ca656a6" x="272.356364" y="402.027644" style="fill: #cc9132; stroke: #ffffff; stroke-width: 0.72"/>
    </g>
    <g clip-path="url(#p266eefe13f)">
     <use xlink:href="#C0_0_2a1ca656a6" x="195.656725" y="450.281675" style="fill: #c99232; stroke: #ffffff; stroke-width: 0.72"/>
    </g>
    <g clip-path="url(#p266eefe13f)">
     <use xlink:href="#C0_0_2a1ca656a6" x="138.436364" y="382.435374" style="fill: #c79332; stroke: #ffffff; stroke-width: 0.72"/>
    </g>
    <g clip-path="url(#p266eefe13f)">
     <use xlink:href="#C0_0_2a1ca656a6" x="368.535268" y="422.868524" style="fill: #c59432; stroke: #ffffff; stroke-width: 0.72"/>
    </g>
    <g clip-path="url(#p266eefe13f)">
     <use xlink:href="#C0_0_2a1ca656a6" x="728.719207" y="421.379059" style="fill: #c39532; stroke: #ffffff; stroke-width: 0.72"/>
    </g>
    <g clip-path="url(#p266eefe13f)">
     <use xlink:href="#C0_0_2a1ca656a6" x="531.065455" y="409.580364" style="fill: #c19532; stroke: #ffffff; stroke-width: 0.72"/>
    </g>
    <g clip-path="url(#p266eefe13f)">
     <use xlink:href="#C0_0_2a1ca656a6" x="138.436364" y="357.333518" style="fill: #bf9632; stroke: #ffffff; stroke-width: 0.72"/>
    </g>
    <g clip-path="url(#p266eefe13f)">
     <use xlink:href="#C0_0_2a1ca656a6" x="201.743998" y="467.500678" style="fill: #bd9732; stroke: #ffffff; stroke-width: 0.72"/>
    </g>
    <g clip-path="url(#p266eefe13f)">
     <use xlink:href="#C0_0_2a1ca656a6" x="201.743998" y="453.058984" style="fill: #bb9832; stroke: #ffffff; stroke-width: 0.72"/>
    </g>
    <g clip-path="url(#p266eefe13f)">
     <use xlink:href="#C0_0_2a1ca656a6" x="675.942564" y="377.603093" style="fill: #ba9932; stroke: #ffffff; stroke-width: 0.72"/>
    </g>
    <g clip-path="url(#p266eefe13f)">
     <use xlink:href="#C0_0_2a1ca656a6" x="567.009446" y="388.929782" style="fill: #b89932; stroke: #ffffff; stroke-width: 0.72"/>
    </g>
    <g clip-path="url(#p266eefe13f)">
     <use xlink:href="#C0_0_2a1ca656a6" x="563.267133" y="375.808944" style="fill: #b69a32; stroke: #ffffff; stroke-width: 0.72"/>
    </g>
    <g clip-path="url(#p266eefe13f)">
     <use xlink:href="#C0_0_2a1ca656a6" x="138.436364" y="417.388572" style="fill: #b49b32; stroke: #ffffff; stroke-width: 0.72"/>
    </g>
    <g clip-path="url(#p266eefe13f)">
     <use xlink:href="#C0_0_2a1ca656a6" x="138.436364" y="418.603803" style="fill: #b29b32; stroke: #ffffff; stroke-width: 0.72"/>
    </g>
    <g clip-path="url(#p266eefe13f)">
     <use xlink:href="#C0_0_2a1ca656a6" x="628.64559" y="361.850895" style="fill: #b09c32; stroke: #ffffff; stroke-width: 0.72"/>
    </g>
    <g clip-path="url(#p266eefe13f)">
     <use xlink:href="#C0_0_2a1ca656a6" x="138.436364" y="357.483013" style="fill: #ae9d31; stroke: #ffffff; stroke-width: 0.72"/>
    </g>
    <g clip-path="url(#p266eefe13f)">
     <use xlink:href="#C0_0_2a1ca656a6" x="615.197228" y="401.275489" style="fill: #ac9d31; stroke: #ffffff; stroke-width: 0.72"/>
    </g>
    <g clip-path="url(#p266eefe13f)">
     <use xlink:href="#C0_0_2a1ca656a6" x="588.894545" y="447.342503" style="fill: #aa9e31; stroke: #ffffff; stroke-width: 0.72"/>
    </g>
    <g clip-path="url(#p266eefe13f)">
     <use xlink:href="#C0_0_2a1ca656a6" x="138.436364" y="397.104614" style="fill: #a99f31; stroke: #ffffff; stroke-width: 0.72"/>
    </g>
    <g clip-path="url(#p266eefe13f)">
     <use xlink:href="#C0_0_2a1ca656a6" x="691.172589" y="369.407485" style="fill: #a79f31; stroke: #ffffff; stroke-width: 0.72"/>
    </g>
    <g clip-path="url(#p266eefe13f)">
     <use xlink:href="#C0_0_2a1ca656a6" x="633.568417" y="386.999711" style="fill: #a5a031; stroke: #ffffff; stroke-width: 0.72"/>
    </g>
    <g clip-path="url(#p266eefe13f)">
     <use xlink:href="#C0_0_2a1ca656a6" x="221.223275" y="460.130685" style="fill: #a3a031; stroke: #ffffff; stroke-width: 0.72"/>
    </g>
    <g clip-path="url(#p266eefe13f)">
     <use xlink:href="#C0_0_2a1ca656a6" x="726.157363" y="383.313379" style="fill: #a1a131; stroke: #ffffff; stroke-width: 0.72"/>
    </g>
    <g clip-path="url(#p266eefe13f)">
     <use xlink:href="#C0_0_2a1ca656a6" x="497.585455" y="461.695633" style="fill: #9fa231; stroke: #ffffff; stroke-width: 0.72"/>
    </g>
    <g clip-path="url(#p266eefe13f)">
     <use xlink:href="#C0_0_2a1ca656a6" x="138.436364" y="402.250739" style="fill: #9ca231; stroke: #ffffff; stroke-width: 0.72"/>
    </g>
    <g clip-path="url(#p266eefe13f)">
     <use xlink:href="#C0_0_2a1ca656a6" x="606.547646" y="424.146973" style="fill: #9aa331; stroke: #ffffff; stroke-width: 0.72"/>
    </g>
    <g clip-path="url(#p266eefe13f)">
     <use xlink:href="#C0_0_2a1ca656a6" x="559.785732" y="382.662508" style="fill: #98a331; stroke: #ffffff; stroke-width: 0.72"/>
    </g>
    <g clip-path="url(#p266eefe13f)">
     <use xlink:href="#C0_0_2a1ca656a6" x="531.674173" y="419.420899" style="fill: #96a431; stroke: #ffffff; stroke-width: 0.72"/>
    </g>
    <g clip-path="url(#p266eefe13f)">
     <use xlink:href="#C0_0_2a1ca656a6" x="576.197711" y="414.202226" style="fill: #94a531; stroke: #ffffff; stroke-width: 0.72"/>
    </g>
    <g clip-path="url(#p266eefe13f)">
     <use xlink:href="#C0_0_2a1ca656a6" x="470.809805" y="356.146443" style="fill: #91a531; stroke: #ffffff; stroke-width: 0.72"/>
    </g>
    <g clip-path="url(#p266eefe13f)">
     <use xlink:href="#C0_0_2a1ca656a6" x="138.436364" y="459.725812" style="fill: #8fa631; stroke: #ffffff; stroke-width: 0.72"/>
    </g>
    <g clip-path="url(#p266eefe13f)">
     <use xlink:href="#C0_0_2a1ca656a6" x="138.436364" y="455.087334" style="fill: #8ca631; stroke: #ffffff; stroke-width: 0.72"/>
    </g>
    <g clip-path="url(#p266eefe13f)">
     <use xlink:href="#C0_0_2a1ca656a6" x="680.558455" y="364.065971" style="fill: #89a731; stroke: #ffffff; stroke-width: 0.72"/>
    </g>
    <g clip-path="url(#p266eefe13f)">
     <use xlink:href="#C0_0_2a1ca656a6" x="138.436364" y="400.742632" style="fill: #86a831; stroke: #ffffff; stroke-width: 0.72"/>
    </g>
    <g clip-path="url(#p266eefe13f)">
     <use xlink:href="#C0_0_2a1ca656a6" x="284.530909" y="466.731958" style="fill: #84a831; stroke: #ffffff; stroke-width: 0.72"/>
    </g>
    <g clip-path="url(#p266eefe13f)">
     <use xlink:href="#C0_0_2a1ca656a6" x="649.09191" y="383.496312" style="fill: #80a931; stroke: #ffffff; stroke-width: 0.72"/>
    </g>
    <g clip-path="url(#p266eefe13f)">
     <use xlink:href="#C0_0_2a1ca656a6" x="654.293019" y="386.902502" style="fill: #7daa31; stroke: #ffffff; stroke-width: 0.72"/>
    </g>
    <g clip-path="url(#p266eefe13f)">
     <use xlink:href="#C0_0_2a1ca656a6" x="138.436364" y="387.202221" style="fill: #7aaa31; stroke: #ffffff; stroke-width: 0.72"/>
    </g>
    <g clip-path="url(#p266eefe13f)">
     <use xlink:href="#C0_0_2a1ca656a6" x="138.436364" y="397.402736" style="fill: #76ab31; stroke: #ffffff; stroke-width: 0.72"/>
    </g>
    <g clip-path="url(#p266eefe13f)">
     <use xlink:href="#C0_0_2a1ca656a6" x="699.50028" y="380.142085" style="fill: #72ac31; stroke: #ffffff; stroke-width: 0.72"/>
    </g>
    <g clip-path="url(#p266eefe13f)">
     <use xlink:href="#C0_0_2a1ca656a6" x="654.637109" y="396.581079" style="fill: #6dad31; stroke: #ffffff; stroke-width: 0.72"/>
    </g>
    <g clip-path="url(#p266eefe13f)">
     <use xlink:href="#C0_0_2a1ca656a6" x="138.436364" y="389.059031" style="fill: #69ad31; stroke: #ffffff; stroke-width: 0.72"/>
    </g>
    <g clip-path="url(#p266eefe13f)">
     <use xlink:href="#C0_0_2a1ca656a6" x="515.847273" y="371.936662" style="fill: #64ae31; stroke: #ffffff; stroke-width: 0.72"/>
    </g>
    <g clip-path="url(#p266eefe13f)">
     <use xlink:href="#C0_0_2a1ca656a6" x="360.621818" y="397.201896" style="fill: #5eaf31; stroke: #ffffff; stroke-width: 0.72"/>
    </g>
    <g clip-path="url(#p266eefe13f)">
     <use xlink:href="#C0_0_2a1ca656a6" x="579.955907" y="380.773114" style="fill: #57b031; stroke: #ffffff; stroke-width: 0.72"/>
    </g>
    <g clip-path="url(#p266eefe13f)">
     <use xlink:href="#C0_0_2a1ca656a6" x="685.152239" y="380.447094" style="fill: #50b131; stroke: #ffffff; stroke-width: 0.72"/>
    </g>
    <g clip-path="url(#p266eefe13f)">
     <use xlink:href="#C0_0_2a1ca656a6" x="491.498182" y="378.491413" style="fill: #47b231; stroke: #ffffff; stroke-width: 0.72"/>
    </g>
    <g clip-path="url(#p266eefe13f)">
     <use xlink:href="#C0_0_2a1ca656a6" x="138.436364" y="402.627516" style="fill: #3cb331; stroke: #ffffff; stroke-width: 0.72"/>
    </g>
    <g clip-path="url(#p266eefe13f)">
     <use xlink:href="#C0_0_2a1ca656a6" x="613.948815" y="398.4692" style="fill: #31b335; stroke: #ffffff; stroke-width: 0.72"/>
    </g>
    <g clip-path="url(#p266eefe13f)">
     <use xlink:href="#C0_0_2a1ca656a6" x="138.436364" y="392.020913" style="fill: #31b341; stroke: #ffffff; stroke-width: 0.72"/>
    </g>
    <g clip-path="url(#p266eefe13f)">
     <use xlink:href="#C0_0_2a1ca656a6" x="484.802191" y="399.506147" style="fill: #32b34b; stroke: #ffffff; stroke-width: 0.72"/>
    </g>
    <g clip-path="url(#p266eefe13f)">
     <use xlink:href="#C0_0_2a1ca656a6" x="442.617389" y="394.305565" style="fill: #32b253; stroke: #ffffff; stroke-width: 0.72"/>
    </g>
    <g clip-path="url(#p266eefe13f)">
     <use xlink:href="#C0_0_2a1ca656a6" x="296.705455" y="402.765402" style="fill: #32b25a; stroke: #ffffff; stroke-width: 0.72"/>
    </g>
    <g clip-path="url(#p266eefe13f)">
     <use xlink:href="#C0_0_2a1ca656a6" x="277.834907" y="410.280741" style="fill: #32b260; stroke: #ffffff; stroke-width: 0.72"/>
    </g>
    <g clip-path="url(#p266eefe13f)">
     <use xlink:href="#C0_0_2a1ca656a6" x="138.436364" y="399.113538" style="fill: #32b165; stroke: #ffffff; stroke-width: 0.72"/>
    </g>
    <g clip-path="url(#p266eefe13f)">
     <use xlink:href="#C0_0_2a1ca656a6" x="348.447273" y="442.161877" style="fill: #33b169; stroke: #ffffff; stroke-width: 0.72"/>
    </g>
    <g clip-path="url(#p266eefe13f)">
     <use xlink:href="#C0_0_2a1ca656a6" x="685.205044" y="386.118174" style="fill: #33b16d; stroke: #ffffff; stroke-width: 0.72"/>
    </g>
    <g clip-path="url(#p266eefe13f)">
     <use xlink:href="#C0_0_2a1ca656a6" x="394.406177" y="436.289839" style="fill: #33b171; stroke: #ffffff; stroke-width: 0.72"/>
    </g>
    <g clip-path="url(#p266eefe13f)">
     <use xlink:href="#C0_0_2a1ca656a6" x="700.980346" y="222.815551" style="fill: #33b175; stroke: #ffffff; stroke-width: 0.72"/>
    </g>
    <g clip-path="url(#p266eefe13f)">
     <use xlink:href="#C0_0_2a1ca656a6" x="654.461465" y="400.916744" style="fill: #33b078; stroke: #ffffff; stroke-width: 0.72"/>
    </g>
    <g clip-path="url(#p266eefe13f)">
     <use xlink:href="#C0_0_2a1ca656a6" x="741.076364" y="384.98109" style="fill: #33b07b; stroke: #ffffff; stroke-width: 0.72"/>
    </g>
    <g clip-path="url(#p266eefe13f)">
     <use xlink:href="#C0_0_2a1ca656a6" x="400.189091" y="423.440527" style="fill: #33b07e; stroke: #ffffff; stroke-width: 0.72"/>
    </g>
    <g clip-path="url(#p266eefe13f)">
     <use xlink:href="#C0_0_2a1ca656a6" x="465.484184" y="378.684683" style="fill: #34b080; stroke: #ffffff; stroke-width: 0.72"/>
    </g>
    <g clip-path="url(#p266eefe13f)">
     <use xlink:href="#C0_0_2a1ca656a6" x="650.442171" y="357.534895" style="fill: #34b083; stroke: #ffffff; stroke-width: 0.72"/>
    </g>
    <g clip-path="url(#p266eefe13f)">
     <use xlink:href="#C0_0_2a1ca656a6" x="138.436364" y="414.213909" style="fill: #34af85; stroke: #ffffff; stroke-width: 0.72"/>
    </g>
    <g clip-path="url(#p266eefe13f)">
     <use xlink:href="#C0_0_2a1ca656a6" x="698.464804" y="401.842467" style="fill: #34af87; stroke: #ffffff; stroke-width: 0.72"/>
    </g>
    <g clip-path="url(#p266eefe13f)">
     <use xlink:href="#C0_0_2a1ca656a6" x="687.066076" y="367.359428" style="fill: #34af8a; stroke: #ffffff; stroke-width: 0.72"/>
    </g>
    <g clip-path="url(#p266eefe13f)">
     <use xlink:href="#C0_0_2a1ca656a6" x="567.488218" y="380.324393" style="fill: #34af8c; stroke: #ffffff; stroke-width: 0.72"/>
    </g>
    <g clip-path="url(#p266eefe13f)">
     <use xlink:href="#C0_0_2a1ca656a6" x="138.436364" y="410.490505" style="fill: #34af8e; stroke: #ffffff; stroke-width: 0.72"/>
    </g>
    <g clip-path="url(#p266eefe13f)">
     <use xlink:href="#C0_0_2a1ca656a6" x="687.626819" y="355.341037" style="fill: #34af8f; stroke: #ffffff; stroke-width: 0.72"/>
    </g>
    <g clip-path="url(#p266eefe13f)">
     <use xlink:href="#C0_0_2a1ca656a6" x="138.436364" y="438.015207" style="fill: #35ae91; stroke: #ffffff; stroke-width: 0.72"/>
    </g>
    <g clip-path="url(#p266eefe13f)">
     <use xlink:href="#C0_0_2a1ca656a6" x="661.592387" y="379.293479" style="fill: #35ae93; stroke: #ffffff; stroke-width: 0.72"/>
    </g>
    <g clip-path="url(#p266eefe13f)">
     <use xlink:href="#C0_0_2a1ca656a6" x="318.010909" y="393.930936" style="fill: #35ae95; stroke: #ffffff; stroke-width: 0.72"/>
    </g>
    <g clip-path="url(#p266eefe13f)">
     <use xlink:href="#C0_0_2a1ca656a6" x="369.752727" y="459.930683" style="fill: #35ae96; stroke: #ffffff; stroke-width: 0.72"/>
    </g>
    <g clip-path="url(#p266eefe13f)">
     <use xlink:href="#C0_0_2a1ca656a6" x="741.720889" y="351.182361" style="fill: #35ae98; stroke: #ffffff; stroke-width: 0.72"/>
    </g>
    <g clip-path="url(#p266eefe13f)">
     <use xlink:href="#C0_0_2a1ca656a6" x="138.436364" y="378.261961" style="fill: #35ae9a; stroke: #ffffff; stroke-width: 0.72"/>
    </g>
    <g clip-path="url(#p266eefe13f)">
     <use xlink:href="#C0_0_2a1ca656a6" x="344.186177" y="449.716686" style="fill: #35ae9b; stroke: #ffffff; stroke-width: 0.72"/>
    </g>
    <g clip-path="url(#p266eefe13f)">
     <use xlink:href="#C0_0_2a1ca656a6" x="586.980616" y="405.295293" style="fill: #35ad9d; stroke: #ffffff; stroke-width: 0.72"/>
    </g>
    <g clip-path="url(#p266eefe13f)">
     <use xlink:href="#C0_0_2a1ca656a6" x="679.594918" y="399.184055" style="fill: #35ad9e; stroke: #ffffff; stroke-width: 0.72"/>
    </g>
    <g clip-path="url(#p266eefe13f)">
     <use xlink:href="#C0_0_2a1ca656a6" x="650.375991" y="443.473853" style="fill: #35ada0; stroke: #ffffff; stroke-width: 0.72"/>
    </g>
    <g clip-path="url(#p266eefe13f)">
     <use xlink:href="#C0_0_2a1ca656a6" x="400.189091" y="433.71771" style="fill: #35ada1; stroke: #ffffff; stroke-width: 0.72"/>
    </g>
    <g clip-path="url(#p266eefe13f)">
     <use xlink:href="#C0_0_2a1ca656a6" x="294.270548" y="472.541832" style="fill: #36ada3; stroke: #ffffff; stroke-width: 0.72"/>
    </g>
    <g clip-path="url(#p266eefe13f)">
     <use xlink:href="#C0_0_2a1ca656a6" x="138.436364" y="463.051361" style="fill: #36ada4; stroke: #ffffff; stroke-width: 0.72"/>
    </g>
    <g clip-path="url(#p266eefe13f)">
     <use xlink:href="#C0_0_2a1ca656a6" x="138.436364" y="380.416959" style="fill: #36ada5; stroke: #ffffff; stroke-width: 0.72"/>
    </g>
    <g clip-path="url(#p266eefe13f)">
     <use xlink:href="#C0_0_2a1ca656a6" x="644.018146" y="373.986793" style="fill: #36aca7; stroke: #ffffff; stroke-width: 0.72"/>
    </g>
    <g clip-path="url(#p266eefe13f)">
     <use xlink:href="#C0_0_2a1ca656a6" x="468.200264" y="404.378318" style="fill: #36aca8; stroke: #ffffff; stroke-width: 0.72"/>
    </g>
    <g clip-path="url(#p266eefe13f)">
     <use xlink:href="#C0_0_2a1ca656a6" x="263.927521" y="448.256922" style="fill: #36acaa; stroke: #ffffff; stroke-width: 0.72"/>
    </g>
    <g clip-path="url(#p266eefe13f)">
     <use xlink:href="#C0_0_2a1ca656a6" x="411.61327" y="407.491778" style="fill: #36acab; stroke: #ffffff; stroke-width: 0.72"/>
    </g>
    <g clip-path="url(#p266eefe13f)">
     <use xlink:href="#C0_0_2a1ca656a6" x="739.995421" y="366.95585" style="fill: #36acac; stroke: #ffffff; stroke-width: 0.72"/>
    </g>
    <g clip-path="url(#p266eefe13f)">
     <use xlink:href="#C0_0_2a1ca656a6" x="674.725082" y="89.28" style="fill: #36acae; stroke: #ffffff; stroke-width: 0.72"/>
    </g>
    <g clip-path="url(#p266eefe13f)">
     <use xlink:href="#C0_0_2a1ca656a6" x="138.436364" y="448.796411" style="fill: #36acaf; stroke: #ffffff; stroke-width: 0.72"/>
    </g>
    <g clip-path="url(#p266eefe13f)">
     <use xlink:href="#C0_0_2a1ca656a6" x="138.436364" y="453.626492" style="fill: #37abb1; stroke: #ffffff; stroke-width: 0.72"/>
    </g>
    <g clip-path="url(#p266eefe13f)">
     <use xlink:href="#C0_0_2a1ca656a6" x="683.582167" y="373.789256" style="fill: #37abb2; stroke: #ffffff; stroke-width: 0.72"/>
    </g>
    <g clip-path="url(#p266eefe13f)">
     <use xlink:href="#C0_0_2a1ca656a6" x="521.508438" y="376.022607" style="fill: #37abb3; stroke: #ffffff; stroke-width: 0.72"/>
    </g>
    <g clip-path="url(#p266eefe13f)">
     <use xlink:href="#C0_0_2a1ca656a6" x="305.227634" y="383.510401" style="fill: #37abb5; stroke: #ffffff; stroke-width: 0.72"/>
    </g>
    <g clip-path="url(#p266eefe13f)">
     <use xlink:href="#C0_0_2a1ca656a6" x="667.169353" y="365.787859" style="fill: #37abb6; stroke: #ffffff; stroke-width: 0.72"/>
    </g>
    <g clip-path="url(#p266eefe13f)">
     <use xlink:href="#C0_0_2a1ca656a6" x="138.436364" y="477.991469" style="fill: #37abb8; stroke: #ffffff; stroke-width: 0.72"/>
    </g>
    <g clip-path="url(#p266eefe13f)">
     <use xlink:href="#C0_0_2a1ca656a6" x="386.797086" y="401.760384" style="fill: #37aab9; stroke: #ffffff; stroke-width: 0.72"/>
    </g>
    <g clip-path="url(#p266eefe13f)">
     <use xlink:href="#C0_0_2a1ca656a6" x="533.408464" y="359.014678" style="fill: #37aabb; stroke: #ffffff; stroke-width: 0.72"/>
    </g>
    <g clip-path="url(#p266eefe13f)">
     <use xlink:href="#C0_0_2a1ca656a6" x="576.526382" y="412.140949" style="fill: #37aabc; stroke: #ffffff; stroke-width: 0.72"/>
    </g>
    <g clip-path="url(#p266eefe13f)">
     <use xlink:href="#C0_0_2a1ca656a6" x="138.436364" y="485.614272" style="fill: #37aabe; stroke: #ffffff; stroke-width: 0.72"/>
    </g>
    <g clip-path="url(#p266eefe13f)">
     <use xlink:href="#C0_0_2a1ca656a6" x="612.223022" y="397.163492" style="fill: #38aac0; stroke: #ffffff; stroke-width: 0.72"/>
    </g>
    <g clip-path="url(#p266eefe13f)">
     <use xlink:href="#C0_0_2a1ca656a6" x="486.706414" y="399.415383" style="fill: #38a9c1; stroke: #ffffff; stroke-width: 0.72"/>
    </g>
    <g clip-path="url(#p266eefe13f)">
     <use xlink:href="#C0_0_2a1ca656a6" x="138.436364" y="422.295174" style="fill: #38a9c3; stroke: #ffffff; stroke-width: 0.72"/>
    </g>
    <g clip-path="url(#p266eefe13f)">
     <use xlink:href="#C0_0_2a1ca656a6" x="138.436364" y="416.859953" style="fill: #38a9c5; stroke: #ffffff; stroke-width: 0.72"/>
    </g>
    <g clip-path="url(#p266eefe13f)">
     <use xlink:href="#C0_0_2a1ca656a6" x="518.891072" y="375.694188" style="fill: #38a9c7; stroke: #ffffff; stroke-width: 0.72"/>
    </g>
    <g clip-path="url(#p266eefe13f)">
     <use xlink:href="#C0_0_2a1ca656a6" x="610.862266" y="338.226254" style="fill: #38a8c9; stroke: #ffffff; stroke-width: 0.72"/>
    </g>
    <g clip-path="url(#p266eefe13f)">
     <use xlink:href="#C0_0_2a1ca656a6" x="650.499945" y="374.943681" style="fill: #38a8cb; stroke: #ffffff; stroke-width: 0.72"/>
    </g>
    <g clip-path="url(#p266eefe13f)">
     <use xlink:href="#C0_0_2a1ca656a6" x="238.876364" y="456.350448" style="fill: #39a8cd; stroke: #ffffff; stroke-width: 0.72"/>
    </g>
    <g clip-path="url(#p266eefe13f)">
     <use xlink:href="#C0_0_2a1ca656a6" x="352.099627" y="364.847128" style="fill: #39a8cf; stroke: #ffffff; stroke-width: 0.72"/>
    </g>
    <g clip-path="url(#p266eefe13f)">
     <use xlink:href="#C0_0_2a1ca656a6" x="388.014545" y="394.07086" style="fill: #39a7d1; stroke: #ffffff; stroke-width: 0.72"/>
    </g>
    <g clip-path="url(#p266eefe13f)">
     <use xlink:href="#C0_0_2a1ca656a6" x="138.436364" y="414.968742" style="fill: #39a7d3; stroke: #ffffff; stroke-width: 0.72"/>
    </g>
    <g clip-path="url(#p266eefe13f)">
     <use xlink:href="#C0_0_2a1ca656a6" x="367.92655" y="377.589468" style="fill: #39a7d6; stroke: #ffffff; stroke-width: 0.72"/>
    </g>
    <g clip-path="url(#p266eefe13f)">
     <use xlink:href="#C0_0_2a1ca656a6" x="694.407288" y="383.540396" style="fill: #3aa6d8; stroke: #ffffff; stroke-width: 0.72"/>
    </g>
    <g clip-path="url(#p266eefe13f)">
     <use xlink:href="#C0_0_2a1ca656a6" x="138.436364" y="416.240033" style="fill: #3aa6db; stroke: #ffffff; stroke-width: 0.72"/>
    </g>
    <g clip-path="url(#p266eefe13f)">
     <use xlink:href="#C0_0_2a1ca656a6" x="695.421818" y="381.116372" style="fill: #3aa5de; stroke: #ffffff; stroke-width: 0.72"/>
    </g>
    <g clip-path="url(#p266eefe13f)">
     <use xlink:href="#C0_0_2a1ca656a6" x="413.581096" y="417.061485" style="fill: #3aa5e1; stroke: #ffffff; stroke-width: 0.72"/>
    </g>
    <g clip-path="url(#p266eefe13f)">
     <use xlink:href="#C0_0_2a1ca656a6" x="138.436364" y="447.335201" style="fill: #3ba4e5; stroke: #ffffff; stroke-width: 0.72"/>
    </g>
    <g clip-path="url(#p266eefe13f)">
     <use xlink:href="#C0_0_2a1ca656a6" x="354.534545" y="408.521692" style="fill: #3ba4e8; stroke: #ffffff; stroke-width: 0.72"/>
    </g>
    <g clip-path="url(#p266eefe13f)">
     <use xlink:href="#C0_0_2a1ca656a6" x="695.551392" y="403.680192" style="fill: #3ba3ec; stroke: #ffffff; stroke-width: 0.72"/>
    </g>
    <g clip-path="url(#p266eefe13f)">
     <use xlink:href="#C0_0_2a1ca656a6" x="138.436364" y="481.614037" style="fill: #3ca2f0; stroke: #ffffff; stroke-width: 0.72"/>
    </g>
    <g clip-path="url(#p266eefe13f)">
     <use xlink:href="#C0_0_2a1ca656a6" x="633.97409" y="417.867833" style="fill: #3ea1f4; stroke: #ffffff; stroke-width: 0.72"/>
    </g>
    <g clip-path="url(#p266eefe13f)">
     <use xlink:href="#C0_0_2a1ca656a6" x="728.901818" y="400.435527" style="fill: #4aa0f4; stroke: #ffffff; stroke-width: 0.72"/>
    </g>
    <g clip-path="url(#p266eefe13f)">
     <use xlink:href="#C0_0_2a1ca656a6" x="718.127366" y="374.989044" style="fill: #549ff4; stroke: #ffffff; stroke-width: 0.72"/>
    </g>
    <g clip-path="url(#p266eefe13f)">
     <use xlink:href="#C0_0_2a1ca656a6" x="290.618182" y="427.389476" style="fill: #5d9ef4; stroke: #ffffff; stroke-width: 0.72"/>
    </g>
    <g clip-path="url(#p266eefe13f)">
     <use xlink:href="#C0_0_2a1ca656a6" x="138.436364" y="376.152282" style="fill: #659cf4; stroke: #ffffff; stroke-width: 0.72"/>
    </g>
    <g clip-path="url(#p266eefe13f)">
     <use xlink:href="#C0_0_2a1ca656a6" x="592.5469" y="423.265863" style="fill: #6c9bf4; stroke: #ffffff; stroke-width: 0.72"/>
    </g>
    <g clip-path="url(#p266eefe13f)">
     <use xlink:href="#C0_0_2a1ca656a6" x="529.543636" y="373.86059" style="fill: #729af4; stroke: #ffffff; stroke-width: 0.72"/>
    </g>
    <g clip-path="url(#p266eefe13f)">
     <use xlink:href="#C0_0_2a1ca656a6" x="138.436364" y="452.13009" style="fill: #7899f4; stroke: #ffffff; stroke-width: 0.72"/>
    </g>
    <g clip-path="url(#p266eefe13f)">
     <use xlink:href="#C0_0_2a1ca656a6" x="588.635909" y="397.724379" style="fill: #7e97f4; stroke: #ffffff; stroke-width: 0.72"/>
    </g>
    <g clip-path="url(#p266eefe13f)">
     <use xlink:href="#C0_0_2a1ca656a6" x="535.630909" y="375.374569" style="fill: #8396f4; stroke: #ffffff; stroke-width: 0.72"/>
    </g>
    <g clip-path="url(#p266eefe13f)">
     <use xlink:href="#C0_0_2a1ca656a6" x="441.582541" y="372.429614" style="fill: #8895f4; stroke: #ffffff; stroke-width: 0.72"/>
    </g>
    <g clip-path="url(#p266eefe13f)">
     <use xlink:href="#C0_0_2a1ca656a6" x="644.80548" y="378.316153" style="fill: #8d94f4; stroke: #ffffff; stroke-width: 0.72"/>
    </g>
    <g clip-path="url(#p266eefe13f)">
     <use xlink:href="#C0_0_2a1ca656a6" x="614.836418" y="391.94532" style="fill: #9192f4; stroke: #ffffff; stroke-width: 0.72"/>
    </g>
    <g clip-path="url(#p266eefe13f)">
     <use xlink:href="#C0_0_2a1ca656a6" x="138.436364" y="386.63795" style="fill: #9691f4; stroke: #ffffff; stroke-width: 0.72"/>
    </g>
    <g clip-path="url(#p266eefe13f)">
     <use xlink:href="#C0_0_2a1ca656a6" x="745.050423" y="376.919888" style="fill: #9a90f4; stroke: #ffffff; stroke-width: 0.72"/>
    </g>
    <g clip-path="url(#p266eefe13f)">
     <use xlink:href="#C0_0_2a1ca656a6" x="616.014982" y="390.814055" style="fill: #9e8ef4; stroke: #ffffff; stroke-width: 0.72"/>
    </g>
    <g clip-path="url(#p266eefe13f)">
     <use xlink:href="#C0_0_2a1ca656a6" x="655.822082" y="346.308358" style="fill: #a28df4; stroke: #ffffff; stroke-width: 0.72"/>
    </g>
    <g clip-path="url(#p266eefe13f)">
     <use xlink:href="#C0_0_2a1ca656a6" x="299.749091" y="425.032968" style="fill: #a68bf4; stroke: #ffffff; stroke-width: 0.72"/>
    </g>
    <g clip-path="url(#p266eefe13f)">
     <use xlink:href="#C0_0_2a1ca656a6" x="138.436364" y="362.672633" style="fill: #aa8af4; stroke: #ffffff; stroke-width: 0.72"/>
    </g>
    <g clip-path="url(#p266eefe13f)">
     <use xlink:href="#C0_0_2a1ca656a6" x="462.887995" y="397.454192" style="fill: #ad89f4; stroke: #ffffff; stroke-width: 0.72"/>
    </g>
    <g clip-path="url(#p266eefe13f)">
     <use xlink:href="#C0_0_2a1ca656a6" x="138.436364" y="419.693308" style="fill: #b187f4; stroke: #ffffff; stroke-width: 0.72"/>
    </g>
    <g clip-path="url(#p266eefe13f)">
     <use xlink:href="#C0_0_2a1ca656a6" x="138.436364" y="470.523731" style="fill: #b585f4; stroke: #ffffff; stroke-width: 0.72"/>
    </g>
    <g clip-path="url(#p266eefe13f)">
     <use xlink:href="#C0_0_2a1ca656a6" x="138.436364" y="393.221915" style="fill: #b884f4; stroke: #ffffff; stroke-width: 0.72"/>
    </g>
    <g clip-path="url(#p266eefe13f)">
     <use xlink:href="#C0_0_2a1ca656a6" x="339.316364" y="427.408501" style="fill: #bc82f4; stroke: #ffffff; stroke-width: 0.72"/>
    </g>
    <g clip-path="url(#p266eefe13f)">
     <use xlink:href="#C0_0_2a1ca656a6" x="734.136876" y="384.356418" style="fill: #bf80f4; stroke: #ffffff; stroke-width: 0.72"/>
    </g>
    <g clip-path="url(#p266eefe13f)">
     <use xlink:href="#C0_0_2a1ca656a6" x="397.754173" y="394.180105" style="fill: #c37ff4; stroke: #ffffff; stroke-width: 0.72"/>
    </g>
    <g clip-path="url(#p266eefe13f)">
     <use xlink:href="#C0_0_2a1ca656a6" x="615.484008" y="388.132594" style="fill: #c67df4; stroke: #ffffff; stroke-width: 0.72"/>
    </g>
    <g clip-path="url(#p266eefe13f)">
     <use xlink:href="#C0_0_2a1ca656a6" x="619.330909" y="324.136264" style="fill: #ca7bf4; stroke: #ffffff; stroke-width: 0.72"/>
    </g>
    <g clip-path="url(#p266eefe13f)">
     <use xlink:href="#C0_0_2a1ca656a6" x="248.007273" y="420.837955" style="fill: #ce79f4; stroke: #ffffff; stroke-width: 0.72"/>
    </g>
    <g clip-path="url(#p266eefe13f)">
     <use xlink:href="#C0_0_2a1ca656a6" x="698.491927" y="364.863696" style="fill: #d177f4; stroke: #ffffff; stroke-width: 0.72"/>
    </g>
    <g clip-path="url(#p266eefe13f)">
     <use xlink:href="#C0_0_2a1ca656a6" x="685.809443" y="375.304456" style="fill: #d574f4; stroke: #ffffff; stroke-width: 0.72"/>
    </g>
    <g clip-path="url(#p266eefe13f)">
     <use xlink:href="#C0_0_2a1ca656a6" x="665.602114" y="385.736328" style="fill: #d872f4; stroke: #ffffff; stroke-width: 0.72"/>
    </g>
    <g clip-path="url(#p266eefe13f)">
     <use xlink:href="#C0_0_2a1ca656a6" x="138.436364" y="437.514162" style="fill: #dc6ff4; stroke: #ffffff; stroke-width: 0.72"/>
    </g>
    <g clip-path="url(#p266eefe13f)">
     <use xlink:href="#C0_0_2a1ca656a6" x="138.436364" y="450.398148" style="fill: #e06df4; stroke: #ffffff; stroke-width: 0.72"/>
    </g>
    <g clip-path="url(#p266eefe13f)">
     <use xlink:href="#C0_0_2a1ca656a6" x="564.545455" y="348.037118" style="fill: #e46af4; stroke: #ffffff; stroke-width: 0.72"/>
    </g>
    <g clip-path="url(#p266eefe13f)">
     <use xlink:href="#C0_0_2a1ca656a6" x="373.176052" y="421.064964" style="fill: #e866f4; stroke: #ffffff; stroke-width: 0.72"/>
    </g>
    <g clip-path="url(#p266eefe13f)">
     <use xlink:href="#C0_0_2a1ca656a6" x="725.888973" y="371.431512" style="fill: #ec63f4; stroke: #ffffff; stroke-width: 0.72"/>
    </g>
    <g clip-path="url(#p266eefe13f)">
     <use xlink:href="#C0_0_2a1ca656a6" x="178.003636" y="492.48" style="fill: #f05ff4; stroke: #ffffff; stroke-width: 0.72"/>
    </g>
    <g clip-path="url(#p266eefe13f)">
     <use xlink:href="#C0_0_2a1ca656a6" x="705.804577" y="389.286378" style="fill: #f45bf4; stroke: #ffffff; stroke-width: 0.72"/>
    </g>
    <g clip-path="url(#p266eefe13f)">
     <use xlink:href="#C0_0_2a1ca656a6" x="351.490909" y="370.172839" style="fill: #f45cf0; stroke: #ffffff; stroke-width: 0.72"/>
    </g>
    <g clip-path="url(#p266eefe13f)">
     <use xlink:href="#C0_0_2a1ca656a6" x="321.313983" y="423.936635" style="fill: #f45dec; stroke: #ffffff; stroke-width: 0.72"/>
    </g>
    <g clip-path="url(#p266eefe13f)">
     <use xlink:href="#C0_0_2a1ca656a6" x="311.314907" y="426.659193" style="fill: #f55ee9; stroke: #ffffff; stroke-width: 0.72"/>
    </g>
    <g clip-path="url(#p266eefe13f)">
     <use xlink:href="#C0_0_2a1ca656a6" x="564.910676" y="356.225119" style="fill: #f55fe5; stroke: #ffffff; stroke-width: 0.72"/>
    </g>
    <g clip-path="url(#p266eefe13f)">
     <use xlink:href="#C0_0_2a1ca656a6" x="713.92365" y="381.918386" style="fill: #f560e2; stroke: #ffffff; stroke-width: 0.72"/>
    </g>
    <g clip-path="url(#p266eefe13f)">
     <use xlink:href="#C0_0_2a1ca656a6" x="711.857436" y="381.29584" style="fill: #f561de; stroke: #ffffff; stroke-width: 0.72"/>
    </g>
    <g clip-path="url(#p266eefe13f)">
     <use xlink:href="#C0_0_2a1ca656a6" x="356.238974" y="412.258493" style="fill: #f562db; stroke: #ffffff; stroke-width: 0.72"/>
    </g>
    <g clip-path="url(#p266eefe13f)">
     <use xlink:href="#C0_0_2a1ca656a6" x="138.436364" y="386.93811" style="fill: #f563d8; stroke: #ffffff; stroke-width: 0.72"/>
    </g>
    <g clip-path="url(#p266eefe13f)">
     <use xlink:href="#C0_0_2a1ca656a6" x="272.356364" y="421.372107" style="fill: #f563d5; stroke: #ffffff; stroke-width: 0.72"/>
    </g>
    <g clip-path="url(#p266eefe13f)">
     <use xlink:href="#C0_0_2a1ca656a6" x="612.292454" y="343.395171" style="fill: #f564d2; stroke: #ffffff; stroke-width: 0.72"/>
    </g>
    <g clip-path="url(#p266eefe13f)">
     <use xlink:href="#C0_0_2a1ca656a6" x="315.576002" y="403.278174" style="fill: #f565cf; stroke: #ffffff; stroke-width: 0.72"/>
    </g>
    <g clip-path="url(#p266eefe13f)">
     <use xlink:href="#C0_0_2a1ca656a6" x="284.530909" y="428.153999" style="fill: #f566cc; stroke: #ffffff; stroke-width: 0.72"/>
    </g>
    <g clip-path="url(#p266eefe13f)">
     <use xlink:href="#C0_0_2a1ca656a6" x="138.436364" y="447.492712" style="fill: #f566c9; stroke: #ffffff; stroke-width: 0.72"/>
    </g>
    <g clip-path="url(#p266eefe13f)">
     <use xlink:href="#C0_0_2a1ca656a6" x="138.436364" y="367.077212" style="fill: #f667c6; stroke: #ffffff; stroke-width: 0.72"/>
    </g>
    <g clip-path="url(#p266eefe13f)">
     <use xlink:href="#C0_0_2a1ca656a6" x="576.111282" y="382.87086" style="fill: #f667c3; stroke: #ffffff; stroke-width: 0.72"/>
    </g>
    <g clip-path="url(#p266eefe13f)">
     <use xlink:href="#C0_0_2a1ca656a6" x="611.234825" y="410.155715" style="fill: #f668c0; stroke: #ffffff; stroke-width: 0.72"/>
    </g>
    <g clip-path="url(#p266eefe13f)">
     <use xlink:href="#C0_0_2a1ca656a6" x="138.436364" y="354.133171" style="fill: #f668bd; stroke: #ffffff; stroke-width: 0.72"/>
    </g>
    <g clip-path="url(#p266eefe13f)">
     <use xlink:href="#C0_0_2a1ca656a6" x="138.436364" y="430.459662" style="fill: #f669bb; stroke: #ffffff; stroke-width: 0.72"/>
    </g>
    <g clip-path="url(#p266eefe13f)">
     <use xlink:href="#C0_0_2a1ca656a6" x="259.573089" y="445.684716" style="fill: #f66ab8; stroke: #ffffff; stroke-width: 0.72"/>
    </g>
    <g clip-path="url(#p266eefe13f)">
     <use xlink:href="#C0_0_2a1ca656a6" x="595.212589" y="379.333987" style="fill: #f66ab5; stroke: #ffffff; stroke-width: 0.72"/>
    </g>
    <g clip-path="url(#p266eefe13f)">
     <use xlink:href="#C0_0_2a1ca656a6" x="747.163636" y="324.910388" style="fill: #f66bb2; stroke: #ffffff; stroke-width: 0.72"/>
    </g>
    <g clip-path="url(#p266eefe13f)">
     <use xlink:href="#C0_0_2a1ca656a6" x="715.620601" y="391.830697" style="fill: #f66bb0; stroke: #ffffff; stroke-width: 0.72"/>
    </g>
    <g clip-path="url(#p266eefe13f)">
     <use xlink:href="#C0_0_2a1ca656a6" x="691.769464" y="401.663029" style="fill: #f66bad; stroke: #ffffff; stroke-width: 0.72"/>
    </g>
    <g clip-path="url(#p266eefe13f)">
     <use xlink:href="#C0_0_2a1ca656a6" x="138.436364" y="430.182831" style="fill: #f66caa; stroke: #ffffff; stroke-width: 0.72"/>
    </g>
    <g clip-path="url(#p266eefe13f)">
     <use xlink:href="#C0_0_2a1ca656a6" x="585.119305" y="388.892003" style="fill: #f66ca7; stroke: #ffffff; stroke-width: 0.72"/>
    </g>
    <g clip-path="url(#p266eefe13f)">
     <use xlink:href="#C0_0_2a1ca656a6" x="662.550536" y="377.715229" style="fill: #f66da4; stroke: #ffffff; stroke-width: 0.72"/>
    </g>
    <g clip-path="url(#p266eefe13f)">
     <use xlink:href="#C0_0_2a1ca656a6" x="571.241445" y="407.864619" style="fill: #f66da1; stroke: #ffffff; stroke-width: 0.72"/>
    </g>
    <g clip-path="url(#p266eefe13f)">
     <use xlink:href="#C0_0_2a1ca656a6" x="138.436364" y="426.751848" style="fill: #f66e9e; stroke: #ffffff; stroke-width: 0.72"/>
    </g>
    <g clip-path="url(#p266eefe13f)">
     <use xlink:href="#C0_0_2a1ca656a6" x="138.436364" y="447.955713" style="fill: #f66e9b; stroke: #ffffff; stroke-width: 0.72"/>
    </g>
    <g clip-path="url(#p266eefe13f)">
     <use xlink:href="#C0_0_2a1ca656a6" x="566.371655" y="366.419845" style="fill: #f76f98; stroke: #ffffff; stroke-width: 0.72"/>
    </g>
    <g clip-path="url(#p266eefe13f)">
     <use xlink:href="#C0_0_2a1ca656a6" x="138.436364" y="454.986123" style="fill: #f76f95; stroke: #ffffff; stroke-width: 0.72"/>
    </g>
    <g clip-path="url(#p266eefe13f)">
     <use xlink:href="#C0_0_2a1ca656a6" x="258.964359" y="403.849802" style="fill: #f77090; stroke: #ffffff; stroke-width: 0.72"/>
    </g>
    <g clip-path="url(#p266eefe13f)">
     <use xlink:href="#C0_0_2a1ca656a6" x="316.79345" y="418.470596" style="fill: #f7708c; stroke: #ffffff; stroke-width: 0.72"/>
    </g>
   </g>
   <g id="PolyCollection_1">
    <path d="M 138.436364 423.055744 
L 138.436364 423.055744 
L 138.436364 423.055744 
L 138.436364 423.055744 
z
" clip-path="url(#p266eefe13f)" style="fill: #4c72b0; fill-opacity: 0.2; stroke: #4c72b0; stroke-opacity: 0.2; stroke-width: 1.5"/>
    <path d="M 201.743998 417.997893 
L 201.743998 417.997893 
L 201.743998 417.997893 
L 201.743998 417.997893 
z
" clip-path="url(#p266eefe13f)" style="fill: #4c72b0; fill-opacity: 0.2; stroke: #4c72b0; stroke-opacity: 0.2; stroke-width: 1.5"/>
    <path d="M 272.356364 412.356443 
L 272.356364 412.356443 
L 272.356364 412.356443 
L 272.356364 412.356443 
z
" clip-path="url(#p266eefe13f)" style="fill: #4c72b0; fill-opacity: 0.2; stroke: #4c72b0; stroke-opacity: 0.2; stroke-width: 1.5"/>
    <path d="M 284.530909 411.383779 
L 284.530909 411.383779 
L 284.530909 411.383779 
L 284.530909 411.383779 
z
" clip-path="url(#p266eefe13f)" style="fill: #4c72b0; fill-opacity: 0.2; stroke: #4c72b0; stroke-opacity: 0.2; stroke-width: 1.5"/>
    <path d="M 400.189091 402.143474 
L 400.189091 402.143474 
L 400.189091 402.143474 
L 400.189091 402.143474 
z
" clip-path="url(#p266eefe13f)" style="fill: #4c72b0; fill-opacity: 0.2; stroke: #4c72b0; stroke-opacity: 0.2; stroke-width: 1.5"/>
   </g>
   <g id="line2d_12">
    <path d="M 138.436364 423.055744 
L 747.163636 374.422558 
L 747.163636 374.422558 
" clip-path="url(#p266eefe13f)" style="fill: none; stroke: #4c72b0; stroke-width: 2.25; stroke-linecap: round"/>
   </g>
   <g id="patch_3">
    <path d="M 108 512.64 
L 108 69.12 
" style="fill: none; stroke: #ffffff; stroke-width: 1.875; stroke-linejoin: miter; stroke-linecap: square"/>
   </g>
   <g id="patch_4">
    <path d="M 777.6 512.64 
L 777.6 69.12 
" style="fill: none; stroke: #ffffff; stroke-width: 1.875; stroke-linejoin: miter; stroke-linecap: square"/>
   </g>
   <g id="patch_5">
    <path d="M 108 512.64 
L 777.6 512.64 
" style="fill: none; stroke: #ffffff; stroke-width: 1.875; stroke-linejoin: miter; stroke-linecap: square"/>
   </g>
   <g id="patch_6">
    <path d="M 108 69.12 
L 777.6 69.12 
" style="fill: none; stroke: #ffffff; stroke-width: 1.875; stroke-linejoin: miter; stroke-linecap: square"/>
   </g>
   <g id="text_14">
    <!-- 2020年个国家地区互联网用户占比和移动互联网订阅量散点图 -->
    <g style="fill: #262626" transform="translate(247.2165 63.12) scale(0.144 -0.144)">
     <defs>
      <path id="SIL-Hei-Med-Jian-5e74" d="M 216 659 
Q 228 828 228 925 
Q 228 1013 209 1206 
Q 281 1206 441 1197 
Q 628 1181 669 1181 
L 1456 1181 
L 1456 2372 
Q 1456 2528 1434 2831 
L 1738 2822 
L 2069 2813 
L 3253 2813 
L 3253 3750 
L 1906 3750 
Q 1747 3516 1694 3431 
L 1400 2963 
Q 1322 2838 1034 2466 
Q 759 2681 422 2784 
Q 1600 3881 1919 5209 
Q 2275 5028 2716 4975 
Q 2472 4800 2141 4234 
L 5150 4234 
Q 5200 4234 5431 4247 
Q 5631 4259 5725 4259 
Q 5697 4081 5697 4000 
Q 5697 3903 5722 3725 
Q 5656 3725 5453 3738 
Q 5244 3750 5184 3750 
L 3803 3750 
L 3803 2809 
L 4828 2809 
Q 4919 2809 5159 2822 
Q 5409 2831 5441 2831 
Q 5419 2659 5419 2563 
Q 5419 2481 5444 2300 
Q 5406 2300 5163 2313 
Q 4928 2325 4844 2325 
L 3800 2325 
L 3800 1181 
L 5475 1181 
Q 5522 1181 5766 1197 
Q 5975 1206 6113 1206 
Q 6100 1006 6100 922 
L 6106 653 
Q 5663 688 5475 688 
L 3800 688 
L 3800 -350 
Q 3800 -600 3819 -934 
L 3503 -928 
L 3219 -934 
Q 3250 -606 3250 -363 
L 3250 684 
L 778 684 
Q 688 684 447 672 
Q 369 669 216 659 
z
M 2000 1184 
L 3250 1184 
L 3250 2325 
L 2000 2325 
L 2000 1184 
z
" transform="scale(0.015625)"/>
      <path id="SIL-Hei-Med-Jian-4e2a" d="M 159 2391 
Q 1178 2803 1897 3536 
Q 2616 4269 2891 5172 
Q 3213 4966 3603 4916 
Q 3428 4841 3347 4709 
Q 4319 3047 6175 2709 
Q 5841 2453 5634 2100 
Q 4588 2625 4088 3072 
Q 3588 3519 3097 4372 
Q 2375 3069 709 1919 
Q 497 2194 159 2391 
z
M 2797 -925 
Q 2831 -584 2831 -469 
L 2831 2616 
Q 2831 2928 2772 3119 
Q 3053 3056 3353 3041 
L 3578 3028 
Q 3419 2891 3419 2681 
L 3419 -453 
Q 3419 -556 3434 -744 
L 3450 -925 
Q 3234 -897 3125 -897 
Q 3016 -897 2797 -925 
z
" transform="scale(0.015625)"/>
      <path id="SIL-Hei-Med-Jian-56fd" d="M 1706 3841 
Q 2006 3816 2197 3816 
L 4256 3816 
Q 4506 3816 4766 3841 
Q 4753 3669 4753 3581 
Q 4753 3497 4766 3325 
Q 4434 3347 4269 3347 
L 3409 3347 
L 3409 2572 
L 4188 2572 
Q 4425 2572 4644 2606 
Q 4622 2422 4622 2334 
Q 4622 2241 4641 2066 
Q 4363 2088 4181 2088 
L 3409 2088 
L 3409 1041 
L 4441 1041 
Q 4600 1041 4884 1063 
Q 4863 888 4863 800 
Q 4863 713 4884 541 
Q 4566 563 4413 563 
L 1938 563 
Q 1763 563 1516 541 
Q 1528 716 1528 803 
Q 1528 891 1516 1063 
Q 1756 1041 1972 1041 
L 2909 1041 
L 2909 2088 
L 2306 2088 
Q 2056 2088 1816 2066 
Q 1825 2225 1825 2313 
Q 1825 2403 1809 2600 
Q 1928 2591 1988 2588 
Q 2159 2572 2231 2572 
L 2909 2572 
L 2909 3347 
L 2184 3347 
Q 2028 3347 1706 3325 
Q 1719 3497 1719 3581 
Q 1719 3669 1706 3841 
z
M 4088 1950 
Q 4238 1728 4506 1419 
Q 4259 1350 4028 1234 
Q 3891 1506 3666 1766 
Q 3894 1841 4088 1950 
z
M 684 4941 
Q 978 4916 1244 4916 
L 5128 4916 
Q 5422 4916 5756 4941 
Q 5734 4688 5734 4403 
L 5734 -428 
Q 5734 -709 5756 -938 
Q 5559 -913 5475 -913 
Q 5359 -913 5156 -938 
Q 5178 -750 5178 -653 
L 5178 -466 
L 1234 -466 
L 1234 -653 
Q 1234 -750 1259 -931 
Q 1056 -916 959 -916 
Q 863 -916 684 -928 
Q 709 -653 709 -450 
L 709 4403 
Q 709 4625 684 4941 
z
M 1238 4397 
L 1238 9 
L 5184 9 
L 5184 4397 
L 1238 4397 
z
" transform="scale(0.015625)"/>
      <path id="SIL-Hei-Med-Jian-5bb6" d="M 181 -75 
Q 941 6 1777 447 
Q 2613 888 3194 1516 
L 3019 1794 
L 2956 1744 
Q 1903 900 656 453 
Q 544 797 263 963 
Q 863 1025 1630 1369 
Q 2397 1713 2747 2078 
L 2522 2284 
Q 1950 1884 641 1469 
Q 478 1763 206 1978 
L 319 1975 
Q 769 1975 1537 2294 
Q 2306 2613 2778 2994 
L 2225 2994 
Q 1694 2994 1313 2944 
Q 1331 3144 1331 3244 
Q 1331 3347 1313 3547 
Q 1788 3506 2472 3506 
L 4325 3506 
Q 4619 3506 5069 3566 
Q 5056 3359 5056 3253 
Q 5056 3156 5069 2956 
Q 4722 2994 4341 2994 
L 3478 2994 
L 2947 2584 
L 2881 2531 
L 2944 2481 
Q 3334 2150 3603 1738 
Q 4150 1984 4850 2709 
Q 5106 2353 5425 2222 
Q 5281 2194 5138 2113 
L 4891 1972 
L 4631 1825 
Q 4603 1806 4541 1766 
Q 4841 488 6138 156 
Q 5706 -47 5503 -444 
Q 5459 -406 5438 -391 
Q 4772 159 4509 545 
Q 4247 931 4113 1556 
L 3772 1328 
Q 3878 866 3878 438 
Q 3878 -225 3618 -481 
Q 3359 -738 2531 -894 
Q 2509 -897 2466 -906 
Q 2466 -497 2213 -219 
Q 2419 -247 2619 -247 
Q 3088 -247 3239 -114 
Q 3391 19 3391 431 
Q 3391 644 3344 1050 
Q 2716 316 1631 -181 
L 784 -566 
Q 772 -572 672 -622 
Q 497 -247 181 -75 
z
M 484 3253 
Q 506 3738 506 3950 
L 494 4566 
Q 1022 4506 1694 4506 
L 3019 4506 
Q 2888 4844 2725 5091 
Q 3066 5091 3447 5178 
L 3606 4516 
L 4819 4516 
Q 5328 4516 5894 4553 
Q 5872 4122 5872 3875 
Q 5872 3681 5897 3244 
Q 5672 3259 5569 3259 
Q 5459 3259 5256 3247 
Q 5256 3338 5263 3425 
Q 5275 3575 5275 3591 
L 5275 3997 
L 1094 3997 
L 1094 3647 
Q 1094 3534 1106 3256 
Q 906 3278 803 3278 
Q 697 3278 484 3253 
z
" transform="scale(0.015625)"/>
      <path id="SIL-Hei-Med-Jian-5730" d="M 416 -375 
Q 344 -100 175 209 
Q 597 259 1053 441 
L 1053 2816 
L 781 2816 
Q 716 2816 534 2803 
Q 438 2797 247 2784 
Q 256 2956 256 3041 
Q 256 3128 247 3300 
Q 319 3300 534 3288 
Q 750 3275 806 3275 
L 1041 3275 
L 1041 4253 
L 1034 4650 
L 1028 4944 
Q 1372 4856 1725 4838 
Q 1519 4641 1519 4328 
L 1519 3275 
L 1778 3275 
Q 2000 3275 2219 3300 
Q 2206 3131 2206 3044 
Q 2206 2959 2219 2791 
L 2047 2803 
Q 1866 2816 1756 2816 
L 1522 2816 
L 1522 572 
Q 2019 781 2322 978 
Q 2297 778 2297 669 
Q 2297 581 2319 391 
Q 1353 78 416 -375 
z
M 2078 2656 
Q 2281 2694 2541 2769 
Q 2606 2788 2738 2825 
L 2738 3700 
L 2731 3972 
L 2719 4281 
Q 3059 4194 3391 4175 
Q 3219 4019 3219 3609 
L 3219 2966 
L 3906 3194 
L 3906 4569 
Q 3906 4853 3872 5203 
Q 4181 5131 4481 5103 
Q 4381 4881 4381 4531 
L 4381 3341 
L 5238 3622 
Q 5453 3694 5731 3853 
Q 5719 3625 5709 3509 
Q 5694 3294 5691 3253 
L 5613 1641 
Q 5588 1088 5441 927 
Q 5294 766 4747 684 
Q 4700 1153 4531 1416 
L 4663 1388 
Q 4775 1363 4841 1363 
Q 5009 1363 5062 1477 
Q 5116 1591 5116 1969 
L 5150 3116 
L 4381 2888 
L 4381 938 
Q 4381 906 4400 563 
Q 4413 388 4413 288 
Q 4234 306 4144 306 
Q 4056 306 3878 288 
Q 3878 338 3888 575 
Q 3903 863 3903 944 
L 3903 2747 
L 3219 2497 
L 3219 109 
Q 3219 -175 3298 -237 
Q 3378 -300 3738 -300 
L 4891 -300 
Q 5275 -300 5406 -147 
Q 5538 6 5600 528 
Q 5891 225 6203 122 
Q 6009 -456 5784 -612 
Q 5559 -769 4922 -769 
L 3600 -769 
Q 3044 -769 2889 -644 
Q 2734 -519 2734 -69 
L 2734 2322 
Q 2478 2209 2206 2063 
Q 2184 2363 2078 2656 
z
" transform="scale(0.015625)"/>
      <path id="SIL-Hei-Med-Jian-533a" d="M 538 -681 
Q 547 -516 553 -434 
Q 569 -194 569 -91 
L 569 4253 
Q 569 4559 531 4850 
Q 866 4813 1200 4813 
L 5034 4813 
Q 5169 4813 5663 4859 
Q 5631 4666 5631 4566 
Q 5631 4453 5681 4222 
L 5353 4247 
Q 5122 4263 5019 4263 
L 1119 4263 
L 1119 -116 
L 5178 -116 
Q 5669 -116 5925 -72 
Q 5897 -281 5897 -391 
Q 5897 -488 5928 -697 
Q 5488 -650 5169 -650 
L 1125 -650 
Q 863 -650 538 -681 
z
M 1559 744 
Q 2231 1072 3222 2128 
Q 2128 3034 1622 3306 
Q 1897 3475 2072 3725 
Q 2344 3453 3366 2606 
Q 3413 2569 3509 2488 
L 3606 2625 
Q 4138 3375 4344 3919 
Q 4613 3684 4944 3516 
Q 4681 3309 4409 2906 
Q 4328 2784 4078 2447 
Q 4016 2359 3891 2188 
Q 4647 1538 4963 1259 
L 5347 922 
Q 5031 725 4822 444 
Q 4409 1078 3584 1822 
Q 3269 1459 3159 1350 
L 2406 609 
Q 2363 566 2150 309 
Q 1916 575 1559 744 
z
" transform="scale(0.015625)"/>
      <path id="SIL-Hei-Med-Jian-548c" d="M 166 813 
Q 1128 1419 1666 2844 
L 1047 2844 
Q 719 2844 409 2791 
Q 428 2963 428 3047 
Q 428 3134 409 3309 
Q 734 3275 1028 3275 
L 1813 3275 
L 1813 4397 
Q 1191 4294 741 4228 
Q 706 4603 475 4759 
Q 700 4744 778 4744 
Q 1944 4744 3013 5150 
Q 3097 4778 3397 4603 
L 3206 4578 
Q 2925 4544 2303 4469 
L 2303 3272 
L 2797 3272 
Q 3141 3272 3416 3322 
Q 3403 3147 3403 3056 
Q 3403 2975 3416 2800 
Q 3134 2844 2778 2844 
L 2303 2844 
L 2303 1991 
Q 2541 2063 2709 2184 
Q 3075 1709 3484 1241 
Q 3216 1113 2950 959 
Q 2619 1584 2303 1894 
L 2303 72 
Q 2303 -294 2344 -913 
Q 2156 -900 2069 -900 
Q 1966 -900 1775 -913 
Q 1809 -241 1809 16 
L 1809 2184 
Q 1591 1488 719 363 
L 663 291 
Q 609 369 584 406 
Q 384 700 166 813 
z
M 3722 -209 
L 3738 363 
L 3753 947 
L 3753 3503 
Q 3753 3978 3709 4341 
L 4900 4316 
L 6147 4344 
Q 6094 4034 6094 3481 
L 6094 775 
Q 6094 678 6119 194 
Q 6131 -56 6131 -109 
Q 5944 -97 5850 -97 
Q 5750 -97 5559 -109 
Q 5581 116 5581 313 
L 5581 553 
L 4263 553 
L 4263 359 
L 4278 -219 
Q 4072 -197 3972 -197 
Q 3888 -197 3722 -209 
z
M 4269 978 
L 5581 978 
L 5581 3841 
L 4269 3841 
L 4269 978 
z
" transform="scale(0.015625)"/>
      <path id="SIL-Hei-Med-Jian-6563" d="M 169 2550 
Q 184 2728 184 2806 
Q 184 2906 172 3072 
L 381 3059 
Q 556 3050 638 3050 
L 1031 3050 
L 1031 3772 
L 663 3772 
Q 578 3772 359 3753 
Q 369 3928 369 4006 
Q 369 4106 359 4284 
Q 450 4278 494 4275 
Q 597 4263 628 4263 
L 1028 4263 
L 1028 4844 
Q 1028 4866 1013 4988 
Q 1006 5038 1003 5144 
Q 1294 5081 1584 5069 
Q 1472 4944 1472 4775 
L 1472 4263 
L 2222 4263 
L 2222 4797 
L 2216 5009 
L 2209 5147 
Q 2500 5072 2772 5053 
Q 2675 4925 2675 4775 
L 2675 4263 
L 2913 4263 
Q 2981 4263 3141 4275 
L 3309 4284 
Q 3300 4106 3300 4016 
Q 3300 3931 3309 3753 
Q 3197 3759 3141 3763 
Q 2997 3775 2947 3775 
L 2675 3775 
L 2675 3050 
L 2931 3050 
Q 3131 3050 3334 3063 
Q 3322 2888 3322 2772 
Q 3322 2709 3334 2550 
Q 3272 2550 3116 2559 
Q 2969 2572 2931 2572 
L 725 2572 
Q 644 2572 431 2559 
Q 344 2556 169 2550 
z
M 1472 3775 
L 1472 3050 
L 2228 3050 
L 2228 3775 
L 1472 3775 
z
M 688 -863 
Q 688 -781 697 -591 
Q 709 -347 709 -297 
L 709 1928 
Q 709 2016 700 2184 
L 688 2363 
Q 809 2356 869 2353 
Q 1006 2341 1041 2341 
L 2497 2341 
Q 2531 2341 2747 2353 
Q 2891 2359 2969 2359 
Q 2963 2259 2956 2209 
Q 2941 2038 2941 1991 
L 2941 -459 
Q 3672 -319 4244 353 
Q 3872 1038 3778 1569 
Q 3697 2047 3659 2122 
L 3409 1697 
Q 3269 1947 3044 2081 
Q 3450 2544 3697 3281 
Q 3944 4019 4078 5169 
Q 4431 5028 4778 4950 
Q 4500 4644 4259 3716 
L 5691 3716 
Q 5803 3716 6119 3738 
Q 6106 3572 6106 3463 
Q 6106 3384 6128 3188 
L 5981 3197 
Q 5841 3209 5778 3209 
L 5463 3209 
Q 5394 2031 5256 1456 
Q 5119 881 4784 366 
Q 5356 -91 6150 -347 
Q 5909 -522 5728 -866 
Q 5219 -572 4538 -6 
Q 4066 -519 3366 -909 
Q 3203 -688 2916 -553 
Q 2794 -756 2641 -822 
Q 2488 -888 2088 -916 
Q 2050 -581 1866 -341 
Q 1956 -359 2000 -369 
Q 2141 -397 2206 -397 
Q 2466 -397 2466 -169 
L 2466 78 
L 1156 78 
L 1156 -378 
Q 1156 -400 1169 -638 
Q 1175 -763 1175 -859 
Q 1019 -847 922 -847 
Q 853 -847 688 -863 
z
M 1156 516 
L 2466 516 
L 2466 963 
L 1156 963 
L 1156 516 
z
M 1153 1381 
L 2466 1381 
L 2466 1875 
L 1153 1875 
L 1153 1381 
z
M 3853 2444 
L 4078 2491 
Q 4200 1481 4528 709 
Q 4913 1631 4991 3213 
L 4153 3213 
L 3853 2444 
z
" transform="scale(0.015625)"/>
      <path id="SIL-Hei-Med-Jian-70b9" d="M 284 -678 
Q 713 -181 1034 663 
Q 1363 500 1666 428 
Q 1206 -206 853 -906 
Q 603 -731 284 -678 
z
M 1238 925 
Q 1263 1238 1263 1425 
L 1263 2553 
Q 1263 2713 1238 3059 
Q 1603 3041 1809 3041 
L 2769 3041 
L 2769 4906 
Q 2769 5088 2738 5228 
Q 3059 5163 3422 5147 
Q 3309 5041 3309 4878 
L 3309 4250 
L 5266 4250 
Q 5491 4250 5744 4281 
Q 5731 4103 5731 4013 
Q 5731 3925 5744 3747 
Q 5463 3778 5309 3778 
L 3309 3778 
L 3309 3041 
L 4556 3041 
Q 4772 3041 5153 3059 
Q 5131 2806 5131 2606 
L 5131 1419 
Q 5131 1272 5153 925 
Q 4763 947 4547 947 
L 1772 947 
Q 1506 947 1238 925 
z
M 1791 1447 
L 4578 1447 
L 4578 2547 
L 1791 2547 
L 1791 1447 
z
M 2094 400 
L 2294 397 
Q 2494 397 2675 463 
Q 2794 59 2956 -716 
Q 2825 -709 2756 -709 
Q 2553 -709 2316 -778 
Q 2316 -188 2094 400 
z
M 3372 431 
Q 3688 456 3969 541 
Q 4013 416 4028 372 
L 4181 -16 
L 4325 -447 
Q 4347 -516 4400 -663 
L 4309 -663 
L 4197 -663 
Q 3997 -663 3741 -728 
Q 3641 -122 3372 431 
z
M 4681 497 
Q 5041 581 5250 688 
Q 5469 397 5666 97 
L 5972 -375 
Q 5991 -403 6100 -563 
Q 5784 -628 5463 -806 
Q 5144 -6 4681 497 
z
" transform="scale(0.015625)"/>
      <path id="SIL-Hei-Med-Jian-56fe" d="M 1288 2019 
Q 2131 2078 2963 2469 
Q 2631 2747 2400 3072 
Q 2197 2816 1956 2572 
Q 1738 2738 1444 2847 
Q 1897 3103 2136 3401 
Q 2375 3700 2694 4406 
Q 2988 4278 3356 4194 
Q 3163 4088 3025 3878 
L 4363 3878 
Q 4409 3878 4569 3891 
Q 4634 3897 4766 3903 
Q 4347 3097 3650 2469 
Q 4441 2159 5144 2084 
Q 4944 1769 4828 1434 
Q 3897 1800 3294 2191 
Q 2547 1741 1628 1447 
Q 1522 1769 1288 2019 
z
M 2731 3400 
L 2681 3338 
Q 2944 3022 3294 2744 
Q 3641 3050 3897 3400 
L 2731 3400 
z
M 2591 1463 
Q 2753 1609 2834 1825 
Q 3475 1606 4153 1434 
Q 3966 1225 3859 959 
Q 3247 1275 2591 1463 
z
M 672 -900 
Q 681 -756 684 -688 
Q 697 -497 697 -422 
L 697 4581 
Q 697 4616 684 4797 
Q 675 4941 675 5022 
Q 759 5022 944 5013 
Q 1166 5000 1213 5000 
L 5244 5000 
Q 5309 5000 5513 5013 
Q 5725 5025 5772 5025 
Q 5772 4956 5759 4797 
Q 5747 4634 5747 4594 
L 5747 -434 
Q 5747 -497 5759 -688 
Q 5766 -756 5772 -900 
Q 5575 -875 5472 -875 
Q 5378 -875 5181 -900 
Q 5194 -769 5194 -725 
L 5194 -622 
L 5194 -509 
L 1225 -509 
L 1225 -622 
L 1225 -738 
Q 1225 -778 1238 -900 
Q 1047 -888 938 -888 
Q 856 -888 672 -900 
z
M 1225 19 
L 3822 19 
Q 3222 378 2113 716 
Q 2297 906 2388 1141 
Q 3291 803 4213 497 
Q 4009 269 3872 19 
L 5194 19 
L 5194 4469 
L 1225 4469 
L 1225 19 
z
" transform="scale(0.015625)"/>
     </defs>
     <use xlink:href="#SIL-Hei-Med-Jian-32"/>
     <use xlink:href="#SIL-Hei-Med-Jian-30" x="54.101562"/>
     <use xlink:href="#SIL-Hei-Med-Jian-32" x="108.203125"/>
     <use xlink:href="#SIL-Hei-Med-Jian-30" x="162.304688"/>
     <use xlink:href="#SIL-Hei-Med-Jian-5e74" x="216.40625"/>
     <use xlink:href="#SIL-Hei-Med-Jian-4e2a" x="316.40625"/>
     <use xlink:href="#SIL-Hei-Med-Jian-56fd" x="416.40625"/>
     <use xlink:href="#SIL-Hei-Med-Jian-5bb6" x="516.40625"/>
     <use xlink:href="#SIL-Hei-Med-Jian-5730" x="616.40625"/>
     <use xlink:href="#SIL-Hei-Med-Jian-533a" x="716.40625"/>
     <use xlink:href="#SIL-Hei-Med-Jian-4e92" x="816.40625"/>
     <use xlink:href="#SIL-Hei-Med-Jian-8054" x="916.40625"/>
     <use xlink:href="#SIL-Hei-Med-Jian-7f51" x="1016.40625"/>
     <use xlink:href="#SIL-Hei-Med-Jian-7528" x="1116.40625"/>
     <use xlink:href="#SIL-Hei-Med-Jian-6237" x="1216.40625"/>
     <use xlink:href="#SIL-Hei-Med-Jian-5360" x="1316.40625"/>
     <use xlink:href="#SIL-Hei-Med-Jian-6bd4" x="1416.40625"/>
     <use xlink:href="#SIL-Hei-Med-Jian-548c" x="1516.40625"/>
     <use xlink:href="#SIL-Hei-Med-Jian-79fb" x="1616.40625"/>
     <use xlink:href="#SIL-Hei-Med-Jian-52a8" x="1716.40625"/>
     <use xlink:href="#SIL-Hei-Med-Jian-4e92" x="1816.40625"/>
     <use xlink:href="#SIL-Hei-Med-Jian-8054" x="1916.40625"/>
     <use xlink:href="#SIL-Hei-Med-Jian-7f51" x="2016.40625"/>
     <use xlink:href="#SIL-Hei-Med-Jian-8ba2" x="2116.40625"/>
     <use xlink:href="#SIL-Hei-Med-Jian-9605" x="2216.40625"/>
     <use xlink:href="#SIL-Hei-Med-Jian-91cf" x="2316.40625"/>
     <use xlink:href="#SIL-Hei-Med-Jian-6563" x="2416.40625"/>
     <use xlink:href="#SIL-Hei-Med-Jian-70b9" x="2516.40625"/>
     <use xlink:href="#SIL-Hei-Med-Jian-56fe" x="2616.40625"/>
    </g>
   </g>
  </g>
 </g>
 <defs>
  <clipPath id="p266eefe13f">
   <rect x="108" y="69.12" width="669.6" height="443.52"/>
  </clipPath>
 </defs>
</svg>
