<?xml version="1.0" encoding="utf-8" standalone="no"?>
<!DOCTYPE svg PUBLIC "-//W3C//DTD SVG 1.1//EN"
  "http://www.w3.org/Graphics/SVG/1.1/DTD/svg11.dtd">
<svg xmlns:xlink="http://www.w3.org/1999/xlink" width="864pt" height="576pt" viewBox="0 0 864 576" xmlns="http://www.w3.org/2000/svg" version="1.1">
 <metadata>
  <rdf:RDF xmlns:dc="http://purl.org/dc/elements/1.1/" xmlns:cc="http://creativecommons.org/ns#" xmlns:rdf="http://www.w3.org/1999/02/22-rdf-syntax-ns#">
   <cc:Work>
    <dc:type rdf:resource="http://purl.org/dc/dcmitype/StillImage"/>
    <dc:date>2024-05-20T13:41:11.696040</dc:date>
    <dc:format>image/svg+xml</dc:format>
    <dc:creator>
     <cc:Agent>
      <dc:title>Matplotlib v3.9.0, https://matplotlib.org/</dc:title>
     </cc:Agent>
    </dc:creator>
   </cc:Work>
  </rdf:RDF>
 </metadata>
 <defs>
  <style type="text/css">*{stroke-linejoin: round; stroke-linecap: butt}</style>
 </defs>
 <g id="figure_1">
  <g id="patch_1">
   <path d="M 0 576 
L 864 576 
L 864 0 
L 0 0 
z
" style="fill: #ffffff"/>
  </g>
  <g id="axes_1">
   <g id="patch_2">
    <path d="M 108 512.64 
L 777.6 512.64 
L 777.6 69.12 
L 108 69.12 
z
" style="fill: #eaeaf2"/>
   </g>
   <g id="matplotlib.axis_1">
    <g id="xtick_1">
     <g id="line2d_1">
      <path d="M 138.436364 512.64 
L 138.436364 69.12 
" clip-path="url(#p2b5fa3b10b)" style="fill: none; stroke: #ffffff; stroke-width: 1.5; stroke-linecap: round"/>
     </g>
     <g id="text_1">
      <!-- 1980 -->
      <g style="fill: #262626" transform="translate(124.151489 534.60275) scale(0.132 -0.132)">
       <defs>
        <path id="SIL-Hei-Med-Jian-31" d="M 2469 4250 
L 2469 0 
L 1931 0 
L 1931 3678 
Q 1641 3372 800 2941 
L 800 3575 
Q 1384 3888 1878 4250 
L 2469 4250 
z
" transform="scale(0.015625)"/>
        <path id="SIL-Hei-Med-Jian-39" d="M 978 809 
Q 1125 319 1659 319 
Q 2484 319 2484 1778 
L 2488 1922 
Q 2447 1881 2431 1863 
L 2347 1775 
Q 2075 1484 1603 1484 
Q 1050 1484 722 1845 
Q 394 2206 394 2809 
Q 394 3519 745 3912 
Q 1097 4306 1731 4306 
Q 3078 4306 3078 2225 
Q 3078 -116 1638 -116 
Q 603 -116 409 753 
L 397 809 
L 978 809 
z
M 2484 2819 
Q 2484 3828 1734 3828 
Q 947 3828 947 2866 
Q 947 1919 1694 1919 
Q 2484 1919 2484 2819 
z
" transform="scale(0.015625)"/>
        <path id="SIL-Hei-Med-Jian-38" d="M 2234 2272 
L 2300 2247 
Q 3103 1963 3103 1128 
Q 3103 553 2737 212 
Q 2372 -128 1750 -128 
Q 1119 -128 739 206 
Q 359 541 359 1094 
Q 359 2025 1166 2259 
L 1234 2278 
L 1169 2300 
Q 522 2519 522 3216 
Q 522 3722 858 4022 
Q 1194 4322 1756 4322 
Q 2316 4322 2636 4042 
Q 2956 3763 2956 3275 
Q 2956 2525 2300 2294 
L 2234 2272 
z
M 2403 3206 
Q 2403 3888 1738 3888 
Q 1075 3888 1075 3188 
Q 1075 2869 1259 2669 
Q 1444 2469 1741 2469 
Q 2403 2469 2403 3206 
z
M 2497 1141 
Q 2497 2000 1738 2000 
Q 966 2000 966 1113 
Q 966 306 1725 306 
Q 2497 306 2497 1141 
z
" transform="scale(0.015625)"/>
        <path id="SIL-Hei-Med-Jian-30" d="M 3169 2113 
Q 3169 -116 1713 -116 
Q 294 -116 294 2094 
Q 294 4309 1728 4309 
Q 3169 4309 3169 2113 
z
M 2563 2144 
Q 2563 3078 2380 3454 
Q 2197 3831 1741 3831 
Q 1275 3831 1087 3412 
Q 900 2994 900 1959 
Q 900 1106 1092 734 
Q 1284 363 1725 363 
Q 2178 363 2370 773 
Q 2563 1184 2563 2144 
z
" transform="scale(0.015625)"/>
       </defs>
       <use xlink:href="#SIL-Hei-Med-Jian-31"/>
       <use xlink:href="#SIL-Hei-Med-Jian-39" x="54.101562"/>
       <use xlink:href="#SIL-Hei-Med-Jian-38" x="108.203125"/>
       <use xlink:href="#SIL-Hei-Med-Jian-30" x="162.304688"/>
      </g>
     </g>
    </g>
    <g id="xtick_2">
     <g id="line2d_2">
      <path d="M 214.527273 512.64 
L 214.527273 69.12 
" clip-path="url(#p2b5fa3b10b)" style="fill: none; stroke: #ffffff; stroke-width: 1.5; stroke-linecap: round"/>
     </g>
     <g id="text_2">
      <!-- 1985 -->
      <g style="fill: #262626" transform="translate(200.242398 534.60275) scale(0.132 -0.132)">
       <defs>
        <path id="SIL-Hei-Med-Jian-35" d="M 2891 4228 
L 2891 3713 
L 1222 3713 
L 1059 2384 
Q 1491 2744 1931 2744 
Q 2469 2744 2772 2384 
Q 3075 2025 3075 1388 
Q 3075 -119 1641 -119 
Q 591 -119 406 750 
L 397 797 
L 994 797 
L 1009 759 
Q 1163 319 1675 319 
Q 2472 319 2472 1297 
Q 2472 2266 1703 2266 
Q 1303 2266 1131 2013 
L 1106 1978 
L 531 1975 
L 778 4228 
L 2891 4228 
z
" transform="scale(0.015625)"/>
       </defs>
       <use xlink:href="#SIL-Hei-Med-Jian-31"/>
       <use xlink:href="#SIL-Hei-Med-Jian-39" x="54.101562"/>
       <use xlink:href="#SIL-Hei-Med-Jian-38" x="108.203125"/>
       <use xlink:href="#SIL-Hei-Med-Jian-35" x="162.304688"/>
      </g>
     </g>
    </g>
    <g id="xtick_3">
     <g id="line2d_3">
      <path d="M 290.618182 512.64 
L 290.618182 69.12 
" clip-path="url(#p2b5fa3b10b)" style="fill: none; stroke: #ffffff; stroke-width: 1.5; stroke-linecap: round"/>
     </g>
     <g id="text_3">
      <!-- 1990 -->
      <g style="fill: #262626" transform="translate(276.333307 534.60275) scale(0.132 -0.132)">
       <use xlink:href="#SIL-Hei-Med-Jian-31"/>
       <use xlink:href="#SIL-Hei-Med-Jian-39" x="54.101562"/>
       <use xlink:href="#SIL-Hei-Med-Jian-39" x="108.203125"/>
       <use xlink:href="#SIL-Hei-Med-Jian-30" x="162.304688"/>
      </g>
     </g>
    </g>
    <g id="xtick_4">
     <g id="line2d_4">
      <path d="M 366.709091 512.64 
L 366.709091 69.12 
" clip-path="url(#p2b5fa3b10b)" style="fill: none; stroke: #ffffff; stroke-width: 1.5; stroke-linecap: round"/>
     </g>
     <g id="text_4">
      <!-- 1995 -->
      <g style="fill: #262626" transform="translate(352.424216 534.60275) scale(0.132 -0.132)">
       <use xlink:href="#SIL-Hei-Med-Jian-31"/>
       <use xlink:href="#SIL-Hei-Med-Jian-39" x="54.101562"/>
       <use xlink:href="#SIL-Hei-Med-Jian-39" x="108.203125"/>
       <use xlink:href="#SIL-Hei-Med-Jian-35" x="162.304688"/>
      </g>
     </g>
    </g>
    <g id="xtick_5">
     <g id="line2d_5">
      <path d="M 442.8 512.64 
L 442.8 69.12 
" clip-path="url(#p2b5fa3b10b)" style="fill: none; stroke: #ffffff; stroke-width: 1.5; stroke-linecap: round"/>
     </g>
     <g id="text_5">
      <!-- 2000 -->
      <g style="fill: #262626" transform="translate(428.515125 534.60275) scale(0.132 -0.132)">
       <defs>
        <path id="SIL-Hei-Med-Jian-32" d="M 3075 516 
L 3075 0 
L 378 0 
L 378 591 
L 513 694 
Q 2456 2175 2456 3116 
Q 2456 3434 2256 3632 
Q 2056 3831 1738 3831 
Q 1181 3831 1016 3338 
L 431 3338 
L 456 3428 
Q 684 4309 1769 4309 
Q 2369 4309 2716 4003 
Q 3063 3697 3063 3169 
Q 3063 2569 2570 1853 
Q 2078 1138 1356 691 
L 1078 516 
L 3075 516 
z
" transform="scale(0.015625)"/>
       </defs>
       <use xlink:href="#SIL-Hei-Med-Jian-32"/>
       <use xlink:href="#SIL-Hei-Med-Jian-30" x="54.101562"/>
       <use xlink:href="#SIL-Hei-Med-Jian-30" x="108.203125"/>
       <use xlink:href="#SIL-Hei-Med-Jian-30" x="162.304688"/>
      </g>
     </g>
    </g>
    <g id="xtick_6">
     <g id="line2d_6">
      <path d="M 518.890909 512.64 
L 518.890909 69.12 
" clip-path="url(#p2b5fa3b10b)" style="fill: none; stroke: #ffffff; stroke-width: 1.5; stroke-linecap: round"/>
     </g>
     <g id="text_6">
      <!-- 2005 -->
      <g style="fill: #262626" transform="translate(504.606034 534.60275) scale(0.132 -0.132)">
       <use xlink:href="#SIL-Hei-Med-Jian-32"/>
       <use xlink:href="#SIL-Hei-Med-Jian-30" x="54.101562"/>
       <use xlink:href="#SIL-Hei-Med-Jian-30" x="108.203125"/>
       <use xlink:href="#SIL-Hei-Med-Jian-35" x="162.304688"/>
      </g>
     </g>
    </g>
    <g id="xtick_7">
     <g id="line2d_7">
      <path d="M 594.981818 512.64 
L 594.981818 69.12 
" clip-path="url(#p2b5fa3b10b)" style="fill: none; stroke: #ffffff; stroke-width: 1.5; stroke-linecap: round"/>
     </g>
     <g id="text_7">
      <!-- 2010 -->
      <g style="fill: #262626" transform="translate(580.696943 534.60275) scale(0.132 -0.132)">
       <use xlink:href="#SIL-Hei-Med-Jian-32"/>
       <use xlink:href="#SIL-Hei-Med-Jian-30" x="54.101562"/>
       <use xlink:href="#SIL-Hei-Med-Jian-31" x="108.203125"/>
       <use xlink:href="#SIL-Hei-Med-Jian-30" x="162.304688"/>
      </g>
     </g>
    </g>
    <g id="xtick_8">
     <g id="line2d_8">
      <path d="M 671.072727 512.64 
L 671.072727 69.12 
" clip-path="url(#p2b5fa3b10b)" style="fill: none; stroke: #ffffff; stroke-width: 1.5; stroke-linecap: round"/>
     </g>
     <g id="text_8">
      <!-- 2015 -->
      <g style="fill: #262626" transform="translate(656.787852 534.60275) scale(0.132 -0.132)">
       <use xlink:href="#SIL-Hei-Med-Jian-32"/>
       <use xlink:href="#SIL-Hei-Med-Jian-30" x="54.101562"/>
       <use xlink:href="#SIL-Hei-Med-Jian-31" x="108.203125"/>
       <use xlink:href="#SIL-Hei-Med-Jian-35" x="162.304688"/>
      </g>
     </g>
    </g>
    <g id="xtick_9">
     <g id="line2d_9">
      <path d="M 747.163636 512.64 
L 747.163636 69.12 
" clip-path="url(#p2b5fa3b10b)" style="fill: none; stroke: #ffffff; stroke-width: 1.5; stroke-linecap: round"/>
     </g>
     <g id="text_9">
      <!-- 2020 -->
      <g style="fill: #262626" transform="translate(732.878761 534.60275) scale(0.132 -0.132)">
       <use xlink:href="#SIL-Hei-Med-Jian-32"/>
       <use xlink:href="#SIL-Hei-Med-Jian-30" x="54.101562"/>
       <use xlink:href="#SIL-Hei-Med-Jian-32" x="108.203125"/>
       <use xlink:href="#SIL-Hei-Med-Jian-30" x="162.304688"/>
      </g>
     </g>
    </g>
    <g id="text_10">
     <!-- 年份 -->
     <g style="fill: #262626" transform="translate(428.4 552.297563) scale(0.144 -0.144)">
      <defs>
       <path id="SIL-Hei-Med-Jian-5e74" d="M 216 659 
Q 228 828 228 925 
Q 228 1013 209 1206 
Q 281 1206 441 1197 
Q 628 1181 669 1181 
L 1456 1181 
L 1456 2372 
Q 1456 2528 1434 2831 
L 1738 2822 
L 2069 2813 
L 3253 2813 
L 3253 3750 
L 1906 3750 
Q 1747 3516 1694 3431 
L 1400 2963 
Q 1322 2838 1034 2466 
Q 759 2681 422 2784 
Q 1600 3881 1919 5209 
Q 2275 5028 2716 4975 
Q 2472 4800 2141 4234 
L 5150 4234 
Q 5200 4234 5431 4247 
Q 5631 4259 5725 4259 
Q 5697 4081 5697 4000 
Q 5697 3903 5722 3725 
Q 5656 3725 5453 3738 
Q 5244 3750 5184 3750 
L 3803 3750 
L 3803 2809 
L 4828 2809 
Q 4919 2809 5159 2822 
Q 5409 2831 5441 2831 
Q 5419 2659 5419 2563 
Q 5419 2481 5444 2300 
Q 5406 2300 5163 2313 
Q 4928 2325 4844 2325 
L 3800 2325 
L 3800 1181 
L 5475 1181 
Q 5522 1181 5766 1197 
Q 5975 1206 6113 1206 
Q 6100 1006 6100 922 
L 6106 653 
Q 5663 688 5475 688 
L 3800 688 
L 3800 -350 
Q 3800 -600 3819 -934 
L 3503 -928 
L 3219 -934 
Q 3250 -606 3250 -363 
L 3250 684 
L 778 684 
Q 688 684 447 672 
Q 369 669 216 659 
z
M 2000 1184 
L 3250 1184 
L 3250 2325 
L 2000 2325 
L 2000 1184 
z
" transform="scale(0.015625)"/>
       <path id="SIL-Hei-Med-Jian-4efd" d="M 169 2444 
Q 1200 3688 1547 5238 
Q 1872 5044 2209 4922 
Q 1919 4644 1609 3878 
L 1609 88 
L 1619 -500 
L 1631 -903 
Q 1469 -891 1397 -891 
Q 1300 -891 1128 -903 
L 1150 75 
L 1150 3078 
Q 847 2550 544 2000 
Q 366 2244 169 2444 
z
M 1744 2316 
Q 2334 2928 2626 3490 
Q 2919 4053 3131 4981 
Q 3456 4834 3794 4741 
Q 3650 4609 3578 4425 
Q 3350 3841 3016 3216 
Q 2950 3088 2816 2834 
L 3259 2828 
L 3697 2822 
L 4256 2822 
Q 4522 2822 5006 2872 
Q 4625 3441 4465 3814 
Q 4306 4188 4053 5122 
L 4200 5119 
Q 4356 5119 4688 5181 
Q 4675 5081 4666 5031 
Q 4650 4922 4650 4884 
Q 4650 4353 5163 3575 
Q 5578 2947 6241 2544 
Q 5947 2328 5728 2006 
Q 5441 2284 5194 2613 
Q 5078 2413 5069 2172 
L 4972 53 
Q 4953 -341 4742 -520 
Q 4531 -700 3994 -781 
Q 3994 -428 3750 -103 
Q 3841 -113 3884 -119 
Q 4072 -141 4172 -141 
Q 4503 -141 4522 272 
L 4619 2381 
L 3697 2381 
Q 3619 1047 3358 354 
Q 3097 -338 2456 -919 
Q 2250 -688 1963 -506 
Q 2606 -141 2862 439 
Q 3119 1019 3234 2369 
Q 2972 2347 2725 2319 
Q 2738 2466 2738 2541 
Q 2738 2600 2728 2722 
Q 2431 2259 2100 1850 
Q 1953 2113 1744 2316 
z
" transform="scale(0.015625)"/>
      </defs>
      <use xlink:href="#SIL-Hei-Med-Jian-5e74"/>
      <use xlink:href="#SIL-Hei-Med-Jian-4efd" x="100"/>
     </g>
    </g>
   </g>
   <g id="matplotlib.axis_2">
    <g id="ytick_1">
     <g id="line2d_10">
      <path d="M 108 492.48 
L 777.6 492.48 
" clip-path="url(#p2b5fa3b10b)" style="fill: none; stroke: #ffffff; stroke-width: 1.5; stroke-linecap: round"/>
     </g>
     <g id="text_11">
      <!-- 0 -->
      <g style="fill: #262626" transform="translate(88.357563 497.211375) scale(0.132 -0.132)">
       <use xlink:href="#SIL-Hei-Med-Jian-30"/>
      </g>
     </g>
    </g>
    <g id="ytick_2">
     <g id="line2d_11">
      <path d="M 108 426.268912 
L 777.6 426.268912 
" clip-path="url(#p2b5fa3b10b)" style="fill: none; stroke: #ffffff; stroke-width: 1.5; stroke-linecap: round"/>
     </g>
     <g id="text_12">
      <!-- 20 -->
      <g style="fill: #262626" transform="translate(81.215125 431.000287) scale(0.132 -0.132)">
       <use xlink:href="#SIL-Hei-Med-Jian-32"/>
       <use xlink:href="#SIL-Hei-Med-Jian-30" x="54.101562"/>
      </g>
     </g>
    </g>
    <g id="ytick_3">
     <g id="line2d_12">
      <path d="M 108 360.057824 
L 777.6 360.057824 
" clip-path="url(#p2b5fa3b10b)" style="fill: none; stroke: #ffffff; stroke-width: 1.5; stroke-linecap: round"/>
     </g>
     <g id="text_13">
      <!-- 40 -->
      <g style="fill: #262626" transform="translate(81.215125 364.789199) scale(0.132 -0.132)">
       <defs>
        <path id="SIL-Hei-Med-Jian-34" d="M 2728 4250 
L 2728 1306 
L 3159 1306 
L 3159 809 
L 2728 809 
L 2728 0 
L 2266 0 
L 2266 809 
L 284 809 
L 284 1341 
L 2119 4250 
L 2728 4250 
z
M 2266 1328 
L 2266 3744 
L 784 1328 
L 2266 1328 
z
" transform="scale(0.015625)"/>
       </defs>
       <use xlink:href="#SIL-Hei-Med-Jian-34"/>
       <use xlink:href="#SIL-Hei-Med-Jian-30" x="54.101562"/>
      </g>
     </g>
    </g>
    <g id="ytick_4">
     <g id="line2d_13">
      <path d="M 108 293.846736 
L 777.6 293.846736 
" clip-path="url(#p2b5fa3b10b)" style="fill: none; stroke: #ffffff; stroke-width: 1.5; stroke-linecap: round"/>
     </g>
     <g id="text_14">
      <!-- 60 -->
      <g style="fill: #262626" transform="translate(81.215125 298.578111) scale(0.132 -0.132)">
       <defs>
        <path id="SIL-Hei-Med-Jian-36" d="M 3063 3384 
L 2481 3384 
L 2463 3438 
Q 2322 3869 1803 3869 
Q 978 3869 978 2425 
L 975 2284 
Q 1013 2319 1031 2334 
Q 1444 2700 1859 2700 
Q 2419 2700 2741 2348 
Q 3063 1997 3063 1378 
Q 3063 -116 1738 -116 
Q 1025 -116 703 384 
Q 381 884 381 1994 
Q 381 4306 1831 4306 
Q 2838 4306 3063 3384 
z
M 2506 1303 
Q 2506 2266 1763 2266 
Q 969 2266 969 1344 
Q 969 363 1738 363 
Q 2506 363 2506 1303 
z
" transform="scale(0.015625)"/>
       </defs>
       <use xlink:href="#SIL-Hei-Med-Jian-36"/>
       <use xlink:href="#SIL-Hei-Med-Jian-30" x="54.101562"/>
      </g>
     </g>
    </g>
    <g id="ytick_5">
     <g id="line2d_14">
      <path d="M 108 227.635648 
L 777.6 227.635648 
" clip-path="url(#p2b5fa3b10b)" style="fill: none; stroke: #ffffff; stroke-width: 1.5; stroke-linecap: round"/>
     </g>
     <g id="text_15">
      <!-- 80 -->
      <g style="fill: #262626" transform="translate(81.215125 232.367023) scale(0.132 -0.132)">
       <use xlink:href="#SIL-Hei-Med-Jian-38"/>
       <use xlink:href="#SIL-Hei-Med-Jian-30" x="54.101562"/>
      </g>
     </g>
    </g>
    <g id="ytick_6">
     <g id="line2d_15">
      <path d="M 108 161.42456 
L 777.6 161.42456 
" clip-path="url(#p2b5fa3b10b)" style="fill: none; stroke: #ffffff; stroke-width: 1.5; stroke-linecap: round"/>
     </g>
     <g id="text_16">
      <!-- 100 -->
      <g style="fill: #262626" transform="translate(74.072688 166.155935) scale(0.132 -0.132)">
       <use xlink:href="#SIL-Hei-Med-Jian-31"/>
       <use xlink:href="#SIL-Hei-Med-Jian-30" x="54.101562"/>
       <use xlink:href="#SIL-Hei-Med-Jian-30" x="108.203125"/>
      </g>
     </g>
    </g>
    <g id="ytick_7">
     <g id="line2d_16">
      <path d="M 108 95.213473 
L 777.6 95.213473 
" clip-path="url(#p2b5fa3b10b)" style="fill: none; stroke: #ffffff; stroke-width: 1.5; stroke-linecap: round"/>
     </g>
     <g id="text_17">
      <!-- 120 -->
      <g style="fill: #262626" transform="translate(74.072688 99.944848) scale(0.132 -0.132)">
       <use xlink:href="#SIL-Hei-Med-Jian-31"/>
       <use xlink:href="#SIL-Hei-Med-Jian-32" x="54.101562"/>
       <use xlink:href="#SIL-Hei-Med-Jian-30" x="108.203125"/>
      </g>
     </g>
    </g>
    <g id="text_18">
     <!-- 数值 -->
     <g style="fill: #262626" transform="translate(67.766437 305.28) rotate(-90) scale(0.144 -0.144)">
      <defs>
       <path id="SIL-Hei-Med-Jian-6570" d="M 188 -228 
Q 1269 -228 1897 172 
Q 1328 309 850 416 
Q 1047 788 1231 1200 
L 756 1200 
Q 716 1200 566 1188 
Q 503 1181 375 1175 
Q 400 1353 400 1450 
Q 400 1528 375 1703 
Q 484 1697 541 1691 
Q 672 1678 709 1678 
L 1409 1678 
Q 1506 1969 1594 2256 
Q 1869 2084 2184 2047 
Q 1988 1891 1900 1678 
L 3219 1678 
Q 3272 1678 3422 1691 
Q 3484 1697 3609 1703 
Q 3588 1534 3588 1444 
Q 3588 1356 3613 1175 
Q 3484 1181 3422 1188 
Q 3272 1200 3231 1200 
L 2947 1200 
Q 2834 797 2638 378 
Q 2953 275 3291 159 
Q 3091 -34 2934 -266 
Q 2675 -81 2375 0 
Q 1978 -338 1678 -481 
Q 1378 -625 634 -828 
Q 541 -456 188 -228 
z
M 1484 716 
Q 1850 613 2216 516 
Q 2388 844 2494 1200 
L 1744 1200 
Q 1609 972 1484 716 
z
M 222 2359 
Q 916 2672 1325 3244 
L 838 3244 
Q 778 3244 588 3231 
Q 525 3228 400 3222 
Q 422 3400 422 3497 
Q 422 3578 397 3759 
Q 550 3750 625 3747 
Q 822 3734 897 3734 
L 1719 3734 
L 1719 4775 
Q 1719 4847 1706 5019 
Q 1703 5081 1694 5203 
Q 2028 5156 2334 5156 
Q 2206 5000 2206 4763 
L 2206 3734 
L 3016 3734 
Q 3084 3734 3253 3747 
Q 3316 3750 3444 3759 
Q 3419 3578 3419 3491 
Q 3419 3400 3444 3219 
Q 3300 3228 3228 3231 
Q 3059 3244 3003 3244 
L 2206 3244 
L 2206 2594 
Q 2206 2553 2219 2425 
Q 2222 2372 2228 2266 
Q 2053 2288 1969 2288 
Q 1875 2288 1694 2266 
Q 1703 2347 1706 2388 
Q 1719 2488 1719 2522 
L 1719 3219 
Q 1297 2519 638 1966 
Q 463 2194 222 2359 
z
M 638 4766 
Q 869 4766 1147 4875 
Q 1281 4463 1447 4041 
Q 1197 4003 969 3931 
Q 847 4356 638 4766 
z
M 2303 2816 
Q 2484 2953 2634 3134 
Q 2938 2831 3284 2528 
Q 3063 2394 2888 2194 
Q 2625 2528 2303 2816 
z
M 2456 3981 
Q 2669 4409 2803 4863 
Q 3034 4756 3316 4688 
Q 3044 4322 2875 3869 
Q 2675 3953 2456 3981 
z
M 2719 -419 
Q 3672 -219 4338 450 
Q 4013 1216 3875 2409 
L 3756 2178 
L 3659 1994 
Q 3463 2178 3197 2291 
Q 3794 3122 3997 4716 
L 4044 5094 
Q 4406 4941 4797 4913 
Q 4513 4550 4363 3909 
L 5516 3909 
Q 5578 3909 5753 3922 
Q 5828 3925 5981 3934 
Q 5969 3750 5969 3638 
Q 5969 3563 5981 3388 
Q 5878 3397 5825 3403 
Q 5719 3416 5672 3416 
L 5516 3416 
Q 5403 2031 5295 1500 
Q 5188 969 4909 416 
Q 5366 -78 6119 -281 
Q 5863 -500 5681 -859 
Q 5019 -409 4634 22 
Q 4000 -525 3184 -922 
Q 3006 -634 2719 -419 
z
M 3944 2584 
L 4113 2581 
Q 4222 2581 4422 2619 
Q 4347 2384 4341 2281 
Q 4331 2063 4420 1611 
Q 4509 1159 4625 856 
Q 4900 1788 4981 3416 
L 4244 3416 
Q 4109 3003 3944 2584 
z
" transform="scale(0.015625)"/>
       <path id="SIL-Hei-Med-Jian-503c" d="M 153 2641 
Q 981 3491 1450 5169 
Q 1800 4988 2169 4913 
Q 1881 4675 1553 3903 
L 1553 -422 
Q 1553 -588 1578 -906 
Q 1397 -884 1313 -884 
Q 1209 -884 1022 -906 
Q 1047 -625 1047 -513 
L 1047 3009 
Q 800 2563 606 2234 
Q 572 2275 553 2297 
Q 409 2475 250 2578 
Q 216 2597 153 2641 
z
M 1750 -56 
Q 1997 -97 2166 -97 
L 2416 -97 
L 2416 3125 
Q 2416 3294 2384 3491 
Q 2525 3478 2597 3469 
Q 2700 3459 2747 3459 
L 3556 3459 
L 3556 4013 
L 2463 4013 
Q 2278 4013 1988 3984 
Q 2028 4163 2028 4256 
Q 2028 4353 1975 4556 
Q 2284 4522 2484 4522 
L 3553 4522 
L 3553 4872 
Q 3553 5022 3494 5166 
Q 3838 5088 4200 5066 
Q 4081 4950 4081 4800 
L 4081 4522 
L 5591 4522 
Q 5738 4522 5959 4572 
Q 5938 4378 5938 4281 
Q 5938 4178 5966 3972 
Q 5709 4013 5459 4013 
L 4081 4013 
L 4081 3459 
L 4853 3459 
Q 5103 3459 5400 3494 
Q 5366 3259 5366 3138 
L 5366 -97 
L 5600 -97 
Q 5856 -97 6084 -66 
Q 6056 -269 6056 -372 
Q 6056 -472 6084 -672 
Q 5909 -641 5591 -641 
L 2163 -641 
Q 1988 -641 1750 -672 
Q 1772 -466 1772 -356 
Q 1772 -259 1750 -56 
z
M 4841 2144 
L 2900 2144 
L 2900 1647 
L 4841 1647 
L 4841 2144 
z
M 2900 434 
L 2900 -97 
L 4841 -97 
L 4841 434 
L 2900 434 
z
M 2900 794 
L 4841 794 
L 4841 1288 
L 2900 1288 
L 2900 794 
z
M 2900 2481 
L 4841 2481 
L 4841 3009 
L 2900 3009 
L 2900 2481 
z
" transform="scale(0.015625)"/>
      </defs>
      <use xlink:href="#SIL-Hei-Med-Jian-6570"/>
      <use xlink:href="#SIL-Hei-Med-Jian-503c" x="100"/>
     </g>
    </g>
   </g>
   <g id="PolyCollection_1"/>
   <g id="PolyCollection_2"/>
   <g id="PolyCollection_3"/>
   <g id="PolyCollection_4"/>
   <g id="line2d_17">
    <path d="M 138.436364 492.48 
L 153.654545 492.48 
L 168.872727 492.48 
L 184.090909 492.48 
L 199.309091 492.48 
L 214.527273 492.48 
L 229.745455 492.48 
L 244.963636 492.48 
L 260.181818 492.48 
L 275.4 492.48 
L 290.618182 492.48 
L 305.836364 492.48 
L 321.054545 492.48 
L 336.272727 492.479332 
L 351.490909 492.475331 
L 366.709091 492.460019 
L 381.927273 492.426805 
L 397.145455 492.347252 
L 412.363636 491.784313 
L 427.581818 489.536643 
L 442.8 485.048036 
L 458.018182 481.357904 
L 473.236364 472.991568 
L 488.454545 466.025312 
L 503.672727 461.139767 
L 518.890909 455.660371 
L 534.109091 446.735387 
L 549.327273 422.480938 
L 564.545455 392.958847 
L 579.763636 364.359127 
L 594.981818 339.390157 
L 610.2 320.40813 
L 625.418182 301.111149 
L 640.636364 283.831001 
L 655.854545 272.822778 
L 671.072727 260.397271 
L 686.290909 245.577095 
L 701.509091 238.964418 
L 716.727273 214.755897 
L 731.945455 190.704831 
L 747.163636 160.359009 
" clip-path="url(#p2b5fa3b10b)" style="fill: none; stroke: #4c72b0; stroke-width: 3; stroke-linecap: round"/>
   </g>
   <g id="line2d_18">
    <path d="M 138.436364 492.48 
L 153.654545 492.48 
L 168.872727 492.48 
L 184.090909 492.48 
L 199.309091 492.48 
L 214.527273 492.48 
L 229.745455 492.48 
L 244.963636 492.48 
L 260.181818 492.48 
L 275.4 492.48 
L 290.618182 492.48 
L 305.836364 492.48 
L 321.054545 492.48 
L 336.272727 492.479442 
L 351.490909 492.476133 
L 366.709091 492.463597 
L 381.927273 492.436692 
L 397.145455 492.372755 
L 412.363636 491.922038 
L 427.581818 490.135505 
L 442.8 486.600743 
L 458.018182 483.741295 
L 473.236364 477.26567 
L 488.454545 471.954563 
L 503.672727 468.312952 
L 518.890909 464.263293 
L 534.109091 457.642532 
L 549.327273 439.51113 
L 564.545455 417.661469 
L 579.763636 396.804979 
L 594.981818 378.927987 
L 610.2 365.685769 
L 625.418182 352.44316 
L 640.636364 340.856611 
L 655.854545 333.904439 
L 671.072727 325.959116 
L 686.290909 316.358504 
L 701.509091 312.716899 
L 716.727273 296.495177 
L 731.945455 280.240886 
L 747.163636 259.401154 
" clip-path="url(#p2b5fa3b10b)" style="fill: none; stroke: #dd8452; stroke-width: 3; stroke-linecap: round"/>
   </g>
   <g id="line2d_19">
    <path d="M 138.436364 492.48 
L 153.654545 492.48 
L 168.872727 492.48 
L 184.090909 492.48 
L 199.309091 492.48 
L 214.527273 492.48 
L 229.745455 492.48 
L 244.963636 492.479792 
L 260.181818 492.479061 
L 275.4 492.477198 
L 290.618182 492.474847 
L 305.836364 492.466805 
L 321.054545 492.431457 
L 336.272727 492.306706 
L 351.490909 492.057978 
L 366.709091 491.511848 
L 381.927273 490.667394 
L 397.145455 489.008629 
L 412.363636 486.269241 
L 427.581818 481.295286 
L 442.8 470.608883 
L 458.018182 455.575721 
L 473.236364 440.314199 
L 488.454545 424.534156 
L 503.672727 408.702057 
L 518.890909 394.612923 
L 534.109091 378.437284 
L 549.327273 357.866734 
L 564.545455 335.644569 
L 579.763636 310.747102 
L 594.981818 284.724728 
L 610.2 255.280591 
L 625.418182 226.490068 
L 640.636364 200.139018 
L 655.854545 188.241284 
L 671.072727 188.453952 
L 686.290909 172.923377 
L 701.509091 150.041473 
L 716.727273 110.025521 
L 731.945455 89.28 
L 747.163636 97.232382 
" clip-path="url(#p2b5fa3b10b)" style="fill: none; stroke: #55a868; stroke-width: 3; stroke-linecap: round"/>
   </g>
   <g id="line2d_20">
    <path d="M 138.436364 492.48 
L 153.654545 492.48 
L 168.872727 492.48 
L 184.090909 492.48 
L 199.309091 492.48 
L 214.527273 492.48 
L 229.745455 492.48 
L 244.963636 492.48 
L 260.181818 492.48 
L 275.4 492.48 
L 290.618182 492.48 
L 305.836364 492.48 
L 321.054545 492.48 
L 336.272727 492.48 
L 351.490909 492.48 
L 366.709091 492.48 
L 381.927273 492.48 
L 397.145455 492.48 
L 412.363636 492.48 
L 427.581818 492.48 
L 442.8 492.474187 
L 458.018182 492.394306 
L 473.236364 491.644737 
L 488.454545 489.65623 
L 503.672727 486.239734 
L 518.890909 483.188491 
L 534.109091 479.901508 
L 549.327273 476.145069 
L 564.545455 472.209491 
L 579.763636 467.191097 
L 594.981818 461.924604 
L 610.2 454.843995 
L 625.418182 450.582141 
L 640.636364 447.548538 
L 655.854545 445.053654 
L 671.072727 427.286323 
L 686.290909 416.954 
L 701.509091 400.645556 
L 716.727273 398.012706 
L 731.945455 388.743112 
L 747.163636 381.259926 
" clip-path="url(#p2b5fa3b10b)" style="fill: none; stroke: #c44e52; stroke-width: 3; stroke-linecap: round"/>
   </g>
   <g id="patch_3">
    <path d="M 108 512.64 
L 108 69.12 
" style="fill: none; stroke: #ffffff; stroke-width: 1.875; stroke-linejoin: miter; stroke-linecap: square"/>
   </g>
   <g id="patch_4">
    <path d="M 777.6 512.64 
L 777.6 69.12 
" style="fill: none; stroke: #ffffff; stroke-width: 1.875; stroke-linejoin: miter; stroke-linecap: square"/>
   </g>
   <g id="patch_5">
    <path d="M 108 512.64 
L 777.6 512.64 
" style="fill: none; stroke: #ffffff; stroke-width: 1.875; stroke-linejoin: miter; stroke-linecap: square"/>
   </g>
   <g id="patch_6">
    <path d="M 108 69.12 
L 777.6 69.12 
" style="fill: none; stroke: #ffffff; stroke-width: 1.875; stroke-linejoin: miter; stroke-linecap: square"/>
   </g>
   <g id="text_19">
    <!-- 中国互联网用户的数量（单位：千万人）、占人口的比例、移动互联网订阅每一百人比例、宽带每一百人订阅比例 -->
    <g style="fill: #262626" transform="translate(82.8 63.12) scale(0.144 -0.144)">
     <defs>
      <path id="SIL-Hei-Med-Jian-4e2d" d="M 538 903 
Q 547 1006 550 1056 
Q 563 1194 563 1247 
L 563 3553 
Q 563 3763 538 3972 
Q 941 3941 1128 3941 
L 2844 3941 
L 2844 4859 
Q 2844 5041 2791 5216 
Q 3169 5131 3550 5131 
Q 3409 4978 3409 4813 
L 3409 3941 
L 5134 3941 
Q 5397 3941 5713 3972 
Q 5688 3759 5688 3541 
L 5688 1281 
Q 5688 1206 5725 953 
Q 5525 975 5431 975 
Q 5306 975 5069 944 
Q 5094 1191 5094 1303 
L 5094 1431 
L 3406 1431 
L 3406 -544 
Q 3406 -734 3447 -928 
Q 3256 -909 3156 -909 
Q 3044 -909 2816 -934 
Q 2847 -691 2847 -522 
L 2847 1434 
L 1138 1434 
L 1138 1244 
Q 1138 1094 1169 894 
Q 938 925 822 925 
Q 728 925 538 903 
z
M 1138 3431 
L 1138 1909 
L 2844 1909 
L 2844 3431 
L 1138 3431 
z
M 3409 1913 
L 5091 1913 
L 5091 3434 
L 3409 3434 
L 3409 1913 
z
" transform="scale(0.015625)"/>
      <path id="SIL-Hei-Med-Jian-56fd" d="M 1706 3841 
Q 2006 3816 2197 3816 
L 4256 3816 
Q 4506 3816 4766 3841 
Q 4753 3669 4753 3581 
Q 4753 3497 4766 3325 
Q 4434 3347 4269 3347 
L 3409 3347 
L 3409 2572 
L 4188 2572 
Q 4425 2572 4644 2606 
Q 4622 2422 4622 2334 
Q 4622 2241 4641 2066 
Q 4363 2088 4181 2088 
L 3409 2088 
L 3409 1041 
L 4441 1041 
Q 4600 1041 4884 1063 
Q 4863 888 4863 800 
Q 4863 713 4884 541 
Q 4566 563 4413 563 
L 1938 563 
Q 1763 563 1516 541 
Q 1528 716 1528 803 
Q 1528 891 1516 1063 
Q 1756 1041 1972 1041 
L 2909 1041 
L 2909 2088 
L 2306 2088 
Q 2056 2088 1816 2066 
Q 1825 2225 1825 2313 
Q 1825 2403 1809 2600 
Q 1928 2591 1988 2588 
Q 2159 2572 2231 2572 
L 2909 2572 
L 2909 3347 
L 2184 3347 
Q 2028 3347 1706 3325 
Q 1719 3497 1719 3581 
Q 1719 3669 1706 3841 
z
M 4088 1950 
Q 4238 1728 4506 1419 
Q 4259 1350 4028 1234 
Q 3891 1506 3666 1766 
Q 3894 1841 4088 1950 
z
M 684 4941 
Q 978 4916 1244 4916 
L 5128 4916 
Q 5422 4916 5756 4941 
Q 5734 4688 5734 4403 
L 5734 -428 
Q 5734 -709 5756 -938 
Q 5559 -913 5475 -913 
Q 5359 -913 5156 -938 
Q 5178 -750 5178 -653 
L 5178 -466 
L 1234 -466 
L 1234 -653 
Q 1234 -750 1259 -931 
Q 1056 -916 959 -916 
Q 863 -916 684 -928 
Q 709 -653 709 -450 
L 709 4403 
Q 709 4625 684 4941 
z
M 1238 4397 
L 1238 9 
L 5184 9 
L 5184 4397 
L 1238 4397 
z
" transform="scale(0.015625)"/>
      <path id="SIL-Hei-Med-Jian-4e92" d="M 356 -541 
Q 381 -328 381 -216 
Q 381 -119 356 88 
L 1181 66 
L 4019 66 
L 4178 1059 
L 2225 1059 
L 1847 1047 
L 1581 1038 
L 1644 1353 
Q 1875 2525 2019 3619 
L 2091 4172 
L 1316 4172 
Q 988 4172 659 4138 
Q 672 4303 672 4400 
Q 672 4500 647 4722 
L 1097 4713 
L 1644 4700 
L 4931 4700 
L 5294 4700 
L 5791 4713 
Q 5769 4519 5769 4431 
Q 5769 4328 5788 4141 
Q 5191 4172 4869 4172 
L 2684 4172 
L 2516 3222 
L 4225 3222 
L 4688 3234 
L 5075 3244 
Q 4966 2559 4797 1219 
L 4650 56 
L 5450 56 
Q 5694 56 6059 75 
Q 6047 -106 6047 -216 
Q 6047 -316 6069 -547 
Q 5625 -519 5344 -519 
L 1169 -519 
L 647 -531 
L 356 -541 
z
M 2238 1556 
L 4250 1556 
L 4409 2716 
L 2431 2716 
L 2238 1556 
z
" transform="scale(0.015625)"/>
      <path id="SIL-Hei-Med-Jian-8054" d="M 209 397 
L 384 394 
Q 503 394 763 419 
L 763 4263 
L 547 4263 
Q 428 4263 291 4247 
Q 316 4450 316 4544 
Q 316 4628 303 4775 
Q 631 4750 738 4750 
L 2581 4750 
Q 2759 4750 2988 4781 
Q 2963 4603 2963 4519 
Q 2963 4425 2988 4244 
Q 2791 4259 2719 4259 
L 2538 4259 
L 2538 706 
L 3119 816 
Q 3034 700 3019 450 
L 3009 341 
Q 2772 303 2538 253 
L 2538 -384 
Q 3069 -259 3503 370 
Q 3938 1000 3938 1647 
L 3409 1647 
Q 3059 1647 2734 1625 
Q 2750 1806 2750 1894 
Q 2750 1997 2731 2194 
Q 3059 2159 3331 2159 
L 3978 2159 
L 3978 3288 
L 3559 3288 
Q 3194 3288 2850 3244 
Q 2894 3459 2894 3569 
Q 2894 3663 2859 3856 
Q 3306 3813 3509 3813 
L 4403 3813 
Q 4700 4513 4828 5184 
Q 5159 4994 5553 4909 
Q 5247 4669 4953 4050 
Q 4916 3972 4838 3813 
L 5250 3813 
Q 5516 3813 5841 3859 
Q 5819 3681 5819 3584 
Q 5819 3475 5859 3244 
Q 5441 3288 5206 3288 
L 4500 3288 
L 4500 2159 
L 5259 2159 
Q 5584 2159 6006 2203 
Q 5997 2013 5997 1900 
Q 5997 1813 6009 1606 
Q 5519 1647 5244 1647 
L 4553 1647 
Q 4681 281 6178 -222 
Q 5822 -425 5644 -822 
L 5547 -741 
Q 4984 -263 4718 109 
Q 4453 481 4278 1038 
Q 4163 484 3825 -53 
Q 3488 -591 3072 -881 
Q 2906 -503 2541 -431 
L 2541 -631 
Q 2541 -716 2559 -906 
Q 2384 -888 2303 -888 
Q 2203 -888 2019 -906 
Q 2028 -781 2034 -719 
Q 2053 -531 2053 -472 
L 2053 163 
Q 1594 63 1359 19 
Q 722 -106 406 -253 
Q 325 197 209 397 
z
M 1234 503 
L 2053 609 
L 2053 1506 
L 1234 1506 
L 1234 503 
z
M 1238 1938 
L 2056 1938 
L 2056 2900 
L 1238 2900 
L 1238 1938 
z
M 1234 3325 
L 2056 3325 
L 2056 4259 
L 1234 4259 
L 1234 3325 
z
M 3181 4963 
Q 3488 5028 3766 5131 
Q 3809 4759 4113 4188 
Q 3847 4144 3566 4053 
Q 3441 4625 3181 4963 
z
" transform="scale(0.015625)"/>
      <path id="SIL-Hei-Med-Jian-7f51" d="M 616 -822 
Q 647 -600 647 -347 
L 647 4600 
Q 647 4706 622 5019 
Q 859 4994 1100 4994 
L 5278 4994 
Q 5525 4994 5781 5019 
Q 5756 4803 5756 4613 
L 5756 -128 
Q 5756 -578 5539 -726 
Q 5322 -875 4603 -916 
Q 4584 -547 4297 -184 
Q 4675 -231 4891 -231 
Q 5081 -231 5134 -168 
Q 5188 -106 5188 119 
L 5188 4450 
L 1184 4450 
L 1184 534 
Q 1663 1094 2141 2141 
Q 1834 2847 1369 3572 
Q 1631 3653 1847 3769 
Q 2094 3256 2375 2716 
Q 2547 3259 2684 4028 
Q 2988 3863 3328 3794 
Q 3159 3638 3000 3206 
L 2766 2581 
Q 2731 2484 2638 2175 
Q 2856 1666 3256 988 
Q 3519 1347 3831 2028 
Q 3597 2594 3269 3131 
L 3134 3353 
Q 3384 3434 3597 3575 
Q 3819 3100 4066 2628 
Q 4206 3075 4341 3944 
Q 4663 3822 5034 3769 
Q 4831 3553 4691 3069 
Q 4681 3044 4494 2481 
Q 4441 2328 4344 2009 
Q 4600 1456 4691 1256 
L 4969 641 
Q 4684 572 4419 425 
Q 4263 1003 4066 1516 
Q 3700 834 3309 216 
Q 3003 375 2675 434 
Q 2984 656 3219 950 
Q 2950 878 2706 744 
Q 2544 1213 2375 1625 
Q 2044 913 1663 238 
Q 1422 372 1188 450 
L 1188 -356 
Q 1188 -544 1219 -822 
Q 1019 -788 913 -788 
Q 816 -788 616 -822 
z
" transform="scale(0.015625)"/>
      <path id="SIL-Hei-Med-Jian-7528" d="M 275 -616 
Q 853 -209 1058 292 
Q 1263 794 1263 1809 
L 1263 4613 
Q 1263 4647 1244 4797 
Q 1238 4856 1231 4969 
Q 1569 4931 1706 4931 
L 5319 4931 
Q 5725 4931 5925 4963 
Q 5888 4775 5888 4566 
L 5888 -316 
Q 5888 -647 5639 -784 
Q 5391 -922 4797 -922 
Q 4797 -534 4538 -256 
L 4691 -272 
Q 4931 -297 5069 -297 
Q 5316 -297 5316 3 
L 5316 1478 
L 3763 1478 
L 3763 -156 
Q 3763 -291 3794 -519 
Q 3606 -488 3509 -488 
Q 3403 -488 3184 -531 
Q 3234 -300 3234 -31 
L 3234 1478 
L 1816 1478 
Q 1763 616 1597 159 
Q 1431 -297 941 -928 
Q 763 -734 275 -616 
z
M 1831 4391 
L 1831 3397 
L 3234 3397 
L 3234 4391 
L 1831 4391 
z
M 1822 1959 
L 3234 1959 
L 3234 2944 
L 1822 2944 
L 1822 1959 
z
M 3763 4384 
L 3763 3397 
L 5316 3397 
L 5316 4384 
L 3763 4384 
z
M 3759 2944 
L 3759 1959 
L 5316 1959 
L 5316 2944 
L 3759 2944 
z
" transform="scale(0.015625)"/>
      <path id="SIL-Hei-Med-Jian-6237" d="M 428 -547 
Q 1094 9 1328 593 
Q 1563 1178 1563 2288 
Q 1563 3547 1525 4178 
L 1859 4169 
L 2219 4159 
L 5125 4159 
L 5559 4159 
L 5884 4169 
Q 5875 4050 5872 3988 
Q 5859 3841 5859 3794 
L 5859 1428 
L 5859 1178 
Q 5859 1144 5872 1003 
Q 5641 1019 5531 1019 
L 5259 1013 
Q 5281 1284 5281 1538 
L 5281 1703 
L 2109 1703 
Q 2013 769 1792 251 
Q 1572 -266 1003 -894 
Q 750 -663 428 -547 
z
M 2109 2197 
L 5281 2197 
L 5281 3634 
L 2109 3634 
L 2109 2197 
z
M 3169 5038 
Q 3450 5084 3738 5225 
Q 3919 4822 4138 4466 
Q 3809 4419 3538 4275 
Q 3406 4681 3169 5038 
z
" transform="scale(0.015625)"/>
      <path id="SIL-Hei-Med-Jian-7684" d="M 516 -750 
L 522 -534 
L 534 -216 
L 534 3394 
Q 534 3750 513 4016 
Q 663 4006 734 4003 
Q 925 3988 972 3988 
L 1216 3988 
Q 1275 4191 1297 4547 
L 1319 4822 
Q 1322 4894 1334 5122 
Q 1681 5063 2069 5028 
Q 1872 4772 1709 4116 
L 1678 3988 
L 2181 3988 
Q 2328 3988 2609 4003 
L 2856 4016 
L 2856 2709 
Q 3634 3613 3972 5200 
Q 4231 5081 4691 4972 
Q 4534 4831 4381 4519 
L 4225 4200 
Q 4203 4153 4141 4016 
L 5316 4016 
Q 5559 4016 5978 4038 
Q 5956 3897 5950 3850 
L 5938 3619 
L 5747 134 
Q 5713 -450 5455 -634 
Q 5197 -819 4294 -906 
Q 4197 -469 3988 -213 
Q 4372 -278 4644 -278 
Q 4978 -278 5092 -161 
Q 5206 -44 5228 319 
L 5406 3531 
L 3947 3531 
L 3872 3372 
Q 3591 2778 3400 2416 
Q 3172 2556 2856 2628 
L 2856 -156 
Q 2856 -225 2869 -450 
Q 2881 -666 2881 -709 
Q 2694 -675 2603 -675 
Q 2503 -675 2313 -709 
Q 2334 -384 2334 -13 
L 1044 -13 
L 1044 -225 
Q 1044 -316 1056 -522 
L 1066 -744 
Q 891 -722 803 -722 
Q 706 -722 516 -750 
z
M 2338 3506 
L 1041 3506 
L 1041 2181 
L 2338 2181 
L 2338 3506 
z
M 1041 431 
L 2341 431 
L 2341 1731 
L 1041 1731 
L 1041 431 
z
M 3519 2147 
Q 3791 2219 3975 2378 
Q 4063 2228 4084 2188 
L 4294 1788 
Q 4400 1584 4669 1197 
Q 4416 1122 4119 950 
Q 3947 1575 3519 2147 
z
" transform="scale(0.015625)"/>
      <path id="SIL-Hei-Med-Jian-91cf" d="M 375 -728 
Q 403 -559 403 -484 
Q 403 -403 381 -253 
Q 766 -297 1159 -297 
L 2916 -297 
L 2916 53 
L 1669 53 
L 1250 41 
L 944 31 
Q 963 172 963 241 
Q 963 309 947 444 
Q 1319 425 1681 425 
L 2916 425 
L 2916 697 
L 1669 697 
Q 1506 697 1238 681 
L 1038 672 
Q 1063 897 1063 1078 
L 1063 1900 
Q 1063 2153 1038 2431 
Q 1347 2413 1863 2413 
L 4316 2413 
Q 4750 2413 5328 2441 
Q 5309 2128 5309 1934 
L 5309 1084 
L 5309 850 
Q 5309 816 5328 681 
L 4956 688 
L 4450 697 
L 3394 697 
L 3394 422 
L 4753 422 
Q 5150 422 5388 456 
Q 5378 316 5378 234 
Q 5378 166 5391 13 
Q 5056 53 4669 53 
L 3394 53 
L 3394 -297 
L 5209 -297 
Q 5497 -297 5959 -250 
Q 5953 -378 5953 -456 
Q 5953 -541 5969 -728 
Q 5597 -703 5200 -703 
L 1169 -703 
Q 822 -703 375 -728 
z
M 1556 1050 
L 2919 1050 
L 2919 1400 
L 1556 1400 
L 1556 1050 
z
M 1556 2053 
L 1556 1669 
L 2919 1669 
L 2919 2053 
L 1556 2053 
z
M 3397 1050 
L 4841 1050 
L 4841 1400 
L 3397 1400 
L 3397 1050 
z
M 3397 1669 
L 4841 1669 
L 4841 2053 
L 3397 2053 
L 3397 1669 
z
M 372 2622 
Q 391 2784 391 2866 
Q 391 2947 372 3116 
Q 1053 3072 1747 3072 
L 4541 3072 
Q 5278 3072 6028 3131 
Q 6016 2953 6016 2866 
Q 6016 2778 6028 2600 
Q 5400 2659 4588 2659 
L 1713 2659 
Q 963 2659 372 2622 
z
M 1153 3328 
Q 1153 3350 1159 3497 
Q 1169 3669 1169 3725 
L 1169 4500 
Q 1169 4747 1144 5050 
Q 1788 5009 2022 5009 
L 4259 5009 
L 4822 5006 
L 5278 5034 
Q 5269 4863 5263 4778 
Q 5247 4578 5247 4513 
L 5247 3700 
Q 5247 3563 5269 3319 
Q 4863 3350 4344 3350 
L 1950 3350 
Q 1528 3350 1153 3328 
z
M 1638 4625 
L 1638 4288 
L 4741 4288 
L 4741 4625 
L 1638 4625 
z
M 1638 4013 
L 1638 3678 
L 4741 3678 
L 4741 4013 
L 1638 4013 
z
" transform="scale(0.015625)"/>
      <path id="SIL-Hei-Med-Jian-ff08" d="M 4400 4866 
Q 3719 3628 3719 2144 
Q 3719 775 4363 -534 
L 4394 -600 
L 3947 -600 
Q 3881 -494 3778 -272 
L 3622 63 
Q 3200 975 3200 2153 
Q 3200 3597 3953 4866 
L 4400 4866 
z
" transform="scale(0.015625)"/>
      <path id="SIL-Hei-Med-Jian-5355" d="M 384 894 
Q 703 866 869 866 
L 2938 866 
L 2938 1422 
L 1509 1422 
Q 1303 1422 1063 1375 
Q 1100 1619 1100 1822 
L 1100 3722 
Q 1100 3834 1078 4153 
Q 1413 4128 1516 4128 
L 2356 4128 
Q 2088 4575 1728 4950 
Q 1941 5000 2191 5163 
Q 2259 5084 2291 5050 
L 2513 4800 
L 2788 4466 
Q 2803 4447 2863 4381 
Q 2641 4288 2447 4125 
L 3600 4125 
Q 3894 4631 4078 5175 
Q 4353 5047 4834 4947 
Q 4447 4759 4044 4128 
L 4769 4128 
Q 5025 4128 5300 4169 
Q 5288 4013 5278 3938 
Q 5263 3784 5263 3713 
L 5263 1806 
Q 5263 1631 5294 1391 
Q 4947 1422 4778 1422 
L 3413 1422 
L 3413 863 
L 5456 863 
Q 5781 863 6000 913 
Q 5963 709 5963 613 
Q 5963 516 5994 328 
Q 5594 369 5447 369 
L 3416 369 
L 3416 -625 
Q 3416 -744 3444 -931 
Q 3269 -906 3181 -906 
Q 3088 -906 2909 -931 
Q 2931 -688 2931 -588 
L 2931 369 
L 878 369 
Q 669 369 384 341 
Q 416 525 416 622 
Q 416 709 384 894 
z
M 1575 1847 
L 2938 1847 
L 2938 2578 
L 1575 2578 
L 1575 1847 
z
M 1575 2947 
L 2941 2947 
L 2941 3703 
L 1575 3703 
L 1575 2947 
z
M 3413 1847 
L 4753 1847 
L 4753 2578 
L 3413 2578 
L 3413 1847 
z
M 3413 2953 
L 4756 2953 
L 4756 3703 
L 3413 3703 
L 3413 2953 
z
" transform="scale(0.015625)"/>
      <path id="SIL-Hei-Med-Jian-4f4d" d="M 213 2397 
Q 672 2934 1073 3764 
Q 1475 4594 1588 5234 
Q 1963 5031 2341 4919 
Q 2134 4791 1750 4019 
L 1647 3809 
L 1647 -203 
Q 1647 -503 1681 -919 
Q 1469 -869 1375 -869 
Q 1272 -869 1091 -900 
Q 1138 -459 1138 -144 
L 1138 2834 
Q 766 2134 594 1853 
L 550 1784 
Q 453 2131 213 2397 
z
M 1928 -531 
Q 1963 -322 1963 -222 
Q 1963 -97 1922 141 
Q 2281 94 2363 94 
L 3116 94 
L 3984 94 
Q 4150 659 4365 1751 
Q 4581 2844 4581 3131 
Q 4981 2953 5369 2897 
Q 5081 2634 4878 1681 
Q 4800 1325 4528 169 
L 4509 94 
L 5422 94 
Q 5728 94 6138 147 
Q 6125 -81 6125 -200 
Q 6125 -306 6138 -525 
Q 5838 -491 5472 -491 
L 3109 -491 
Q 2491 -491 1928 -531 
z
M 2181 3359 
Q 2200 3572 2200 3681 
Q 2200 3800 2175 4044 
Q 2503 4006 2594 4006 
L 3025 4006 
L 5100 4006 
Q 5650 4006 5956 4053 
Q 5925 3819 5925 3697 
Q 5925 3588 5956 3359 
Q 5575 3381 5125 3381 
L 3084 3381 
Q 2628 3381 2181 3359 
z
M 2503 2850 
Q 2813 2888 3097 2984 
Q 3234 2141 3688 728 
Q 3394 728 3031 597 
Q 2772 2256 2503 2850 
z
M 3403 5013 
Q 3706 5084 3972 5222 
Q 4066 4900 4416 4331 
Q 4116 4253 3831 4138 
Q 3697 4534 3403 5013 
z
" transform="scale(0.015625)"/>
      <path id="SIL-Hei-Med-Jian-ff1a" d="M 1013 3022 
L 1013 2238 
L 428 2238 
L 428 3022 
L 1013 3022 
z
M 1013 784 
L 1013 0 
L 428 0 
L 428 784 
L 1013 784 
z
" transform="scale(0.015625)"/>
      <path id="SIL-Hei-Med-Jian-5343" d="M 350 2038 
Q 363 2238 363 2331 
Q 363 2428 353 2603 
Q 809 2556 1213 2556 
L 2888 2556 
L 2888 4203 
Q 2472 4144 2319 4128 
L 1206 4006 
Q 1175 4000 941 3963 
Q 806 4319 522 4594 
Q 881 4566 1138 4566 
Q 2106 4566 3276 4744 
Q 4447 4922 4906 5138 
Q 5063 4822 5397 4444 
Q 5119 4484 4991 4484 
Q 4559 4484 3409 4284 
L 3409 2553 
L 5088 2553 
Q 5575 2553 6056 2591 
Q 6022 2397 6022 2306 
Q 6022 2209 6047 2038 
Q 5678 2069 4938 2069 
L 3409 2069 
L 3409 -341 
Q 3409 -422 3425 -666 
Q 3428 -750 3438 -919 
Q 3244 -894 3150 -894 
Q 3050 -894 2853 -919 
Q 2863 -741 2872 -650 
Q 2888 -431 2888 -363 
L 2888 2069 
L 1281 2069 
Q 769 2069 350 2038 
z
" transform="scale(0.015625)"/>
      <path id="SIL-Hei-Med-Jian-4e07" d="M 328 -384 
Q 1578 128 1992 993 
Q 2406 1859 2406 3972 
L 1119 3972 
Q 903 3972 625 3944 
Q 644 4147 644 4256 
Q 644 4359 622 4584 
Q 906 4559 1119 4559 
L 5756 4559 
Q 5919 4559 6169 4584 
Q 6144 4372 6144 4263 
Q 6144 4159 6169 3947 
Q 5906 3972 5706 3972 
L 3000 3972 
L 2975 3441 
L 2950 2944 
L 4966 2944 
Q 5138 2944 5403 2969 
L 5366 2719 
Q 5338 2528 5331 2447 
L 5113 31 
Q 5072 -397 4869 -564 
Q 4666 -731 4069 -828 
Q 3956 -847 3731 -884 
Q 3706 -472 3425 -131 
Q 3581 -147 3659 -153 
Q 3991 -188 4163 -188 
Q 4494 -188 4528 222 
L 4709 2366 
L 2916 2366 
Q 2744 1028 2425 509 
Q 2106 -9 888 -922 
Q 656 -606 328 -384 
z
" transform="scale(0.015625)"/>
      <path id="SIL-Hei-Med-Jian-4eba" d="M 213 -441 
Q 1572 128 2165 1200 
Q 2759 2272 2759 4156 
Q 2759 4606 2713 5003 
Q 3116 4897 3550 4897 
Q 3359 4600 3359 3963 
Q 3359 2650 3894 1634 
Q 4253 956 4728 586 
Q 5203 216 6166 -138 
Q 5775 -381 5544 -747 
Q 4431 -138 3898 582 
Q 3366 1303 3109 2547 
Q 2900 1378 2384 597 
Q 1869 -184 822 -913 
Q 572 -622 213 -441 
z
" transform="scale(0.015625)"/>
      <path id="SIL-Hei-Med-Jian-ff09" d="M 2000 4866 
L 2447 4866 
Q 3200 3584 3200 2116 
Q 3200 919 2759 9 
L 2606 -313 
Q 2513 -506 2453 -600 
L 2006 -600 
L 2031 -547 
Q 2681 750 2681 2128 
Q 2681 3594 2000 4866 
z
" transform="scale(0.015625)"/>
      <path id="SIL-Hei-Med-Jian-3001" d="M 753 413 
L 1031 700 
Q 1794 263 2056 -303 
L 1569 -700 
Q 1206 116 753 413 
z
" transform="scale(0.015625)"/>
      <path id="SIL-Hei-Med-Jian-5360" d="M 922 -916 
Q 956 -447 956 -166 
L 956 1584 
Q 956 1959 909 2316 
Q 1325 2263 1625 2263 
L 2603 2263 
L 2603 4631 
Q 2603 4994 2566 5266 
Q 2850 5188 3313 5188 
Q 3197 4975 3197 4750 
L 3197 3978 
L 5219 3978 
Q 5634 3978 5956 4038 
Q 5916 3822 5916 3725 
Q 5916 3613 5947 3416 
Q 5681 3463 5228 3463 
L 3200 3463 
L 3200 2263 
L 4434 2263 
Q 4825 2263 5250 2306 
Q 5213 2028 5213 1741 
L 5213 -116 
Q 5213 -522 5269 -891 
Q 5053 -869 4938 -869 
Q 4819 -869 4572 -897 
Q 4581 -763 4588 -694 
Q 4606 -519 4606 -472 
L 4606 -259 
L 1516 -259 
L 1516 -453 
Q 1516 -678 1550 -931 
Q 1325 -881 1219 -881 
Q 1116 -881 922 -916 
z
M 1513 228 
L 4606 228 
L 4606 1800 
L 1513 1800 
L 1513 228 
z
" transform="scale(0.015625)"/>
      <path id="SIL-Hei-Med-Jian-53e3" d="M 738 -616 
Q 763 -141 763 131 
L 763 3738 
Q 763 4050 738 4547 
L 2063 4522 
L 4319 4522 
L 5650 4547 
L 5631 3738 
L 5631 513 
Q 5631 -84 5656 -603 
Q 5450 -591 5350 -591 
Q 5225 -591 4991 -606 
L 5003 -388 
Q 5013 -247 5013 -184 
L 5013 16 
L 1363 16 
L 1363 -231 
Q 1363 -347 1397 -616 
Q 1181 -603 1088 -603 
Q 963 -603 738 -616 
z
M 1359 531 
L 5019 531 
L 5019 3963 
L 1359 3963 
L 1359 531 
z
" transform="scale(0.015625)"/>
      <path id="SIL-Hei-Med-Jian-6bd4" d="M 509 -328 
Q 734 -113 734 188 
L 734 4275 
Q 734 4394 709 4756 
Q 706 4822 700 4947 
Q 947 4863 1263 4863 
L 1441 4863 
Q 1300 4606 1300 4250 
L 1300 3047 
L 2113 3047 
Q 2184 3047 2494 3066 
Q 2713 3078 2772 3078 
Q 2759 2897 2759 2806 
Q 2759 2716 2772 2531 
Q 2675 2531 2478 2547 
Q 2172 2566 2122 2566 
L 1297 2566 
L 1297 44 
L 2684 1000 
Q 2684 653 2816 350 
Q 1734 -247 909 -894 
Q 763 -603 509 -328 
z
M 3200 5184 
Q 3484 5113 3741 5113 
L 3981 5116 
Q 3891 4931 3869 4716 
L 3841 4431 
Q 3819 4225 3819 4203 
L 3819 2559 
Q 4581 2988 5247 3638 
Q 5466 3278 5791 3038 
Q 5394 2888 4013 2159 
L 3803 2050 
L 3803 466 
Q 3803 -84 3843 -154 
Q 3884 -225 4203 -225 
L 4603 -225 
Q 4959 -225 5079 -47 
Q 5200 131 5294 800 
Q 5594 469 5972 350 
Q 5791 -316 5562 -536 
Q 5334 -756 4825 -756 
L 4038 -756 
Q 3519 -756 3376 -618 
Q 3234 -481 3234 22 
L 3234 4406 
Q 3234 4797 3200 5184 
z
" transform="scale(0.015625)"/>
      <path id="SIL-Hei-Med-Jian-4f8b" d="M 109 2550 
Q 1069 3413 1322 5116 
Q 1653 4922 2003 4841 
Q 1781 4628 1509 3947 
Q 1469 3847 1388 3644 
L 1388 -441 
Q 1388 -544 1413 -794 
Q 1238 -769 1147 -769 
Q 1059 -769 884 -794 
Q 884 -688 894 -594 
Q 903 -472 903 -453 
L 903 2741 
Q 700 2397 409 1994 
Q 331 2288 109 2550 
z
M 1513 1553 
Q 2428 2481 2609 4097 
L 2378 4097 
Q 2200 4097 1991 4072 
Q 2003 4259 2003 4347 
Q 2003 4450 1991 4641 
L 2197 4631 
Q 2400 4619 2522 4619 
L 3603 4619 
Q 3647 4619 3813 4631 
Q 3984 4641 4056 4641 
Q 4044 4453 4044 4356 
Q 4044 4263 4056 4072 
Q 3856 4103 3531 4103 
L 3081 4103 
Q 3056 3966 3047 3913 
L 3006 3650 
Q 2981 3497 2894 3172 
L 3563 3172 
Q 3784 3172 4013 3197 
Q 3975 2966 3969 2916 
L 3884 2269 
Q 3747 1225 3356 545 
Q 2966 -134 2138 -766 
Q 1913 -509 1547 -391 
Q 2100 -169 2434 148 
Q 2769 466 3059 1044 
Q 2834 1344 2369 1600 
Q 2609 1719 2769 1928 
Q 2869 1834 2919 1788 
Q 3100 1619 3247 1503 
Q 3353 1878 3425 2494 
L 3450 2706 
L 2788 2706 
Q 2497 2006 2078 1328 
Q 1828 1519 1513 1553 
z
M 4341 578 
Q 4359 881 4359 1003 
L 4359 3597 
Q 4359 3772 4334 4000 
Q 4725 3944 4959 3944 
Q 4859 3775 4859 3475 
L 4859 1122 
Q 4859 859 4881 578 
Q 4700 594 4609 594 
Q 4522 594 4341 578 
z
M 4650 -306 
Q 4906 -359 5084 -359 
Q 5266 -359 5316 -304 
Q 5366 -250 5366 -47 
L 5366 4447 
Q 5366 4619 5341 4947 
Q 5469 4931 5531 4922 
Q 5844 4881 6047 4881 
Q 5919 4731 5919 4391 
L 5919 -228 
Q 5919 -594 5753 -712 
Q 5588 -831 4931 -925 
Q 4891 -613 4650 -306 
z
" transform="scale(0.015625)"/>
      <path id="SIL-Hei-Med-Jian-79fb" d="M 194 875 
Q 922 1591 1372 2863 
L 831 2863 
Q 766 2863 588 2850 
Q 525 2844 403 2838 
Q 428 3013 428 3103 
Q 428 3188 403 3359 
Q 541 3350 609 3347 
Q 778 3334 844 3334 
L 1469 3334 
L 1469 4200 
Q 1119 4128 725 4041 
Q 647 4369 438 4597 
Q 2050 4675 2603 5053 
Q 2747 4725 2963 4431 
L 2806 4431 
Q 2509 4431 1956 4316 
L 1956 3334 
L 2316 3334 
Q 2363 3334 2475 3344 
Q 2541 3350 2675 3363 
Q 2647 3178 2647 3094 
Q 2647 3003 2669 2838 
Q 2563 2844 2509 2850 
Q 2378 2863 2338 2863 
L 1959 2863 
L 1959 2022 
Q 2150 2125 2313 2259 
L 2634 1856 
L 2922 1500 
Q 2669 1372 2463 1194 
Q 2272 1550 2069 1806 
Q 2031 1850 1959 1944 
L 1959 -347 
Q 1959 -606 2006 -853 
Q 1806 -806 1703 -806 
Q 1616 -806 1438 -844 
Q 1469 -591 1469 -334 
L 1469 1956 
Q 1078 1053 609 369 
Q 444 669 194 875 
z
M 2313 -328 
Q 3475 -328 4250 97 
Q 4022 447 3725 747 
Q 3978 881 4169 1072 
L 4447 709 
L 4681 403 
Q 5141 950 5366 1475 
L 4119 1475 
Q 3619 956 3081 475 
Q 2866 722 2559 888 
Q 3122 1159 3442 1451 
Q 3763 1744 4241 2428 
Q 3828 2194 3272 1972 
Q 3166 1931 2953 1844 
Q 2816 2113 2594 2369 
Q 3244 2453 4006 2788 
Q 3763 3088 3491 3347 
Q 3753 3459 3919 3666 
Q 4138 3369 4381 3094 
Q 4728 3403 5122 4034 
L 3809 4034 
Q 3641 3816 3591 3753 
L 3356 3475 
Q 3266 3363 3066 3116 
Q 2875 3325 2622 3450 
Q 3450 4159 3838 5256 
Q 4188 5075 4594 5003 
Q 4313 4838 4094 4519 
L 5503 4519 
Q 5672 4519 5959 4556 
Q 5538 3663 5267 3306 
Q 4997 2950 4409 2519 
Q 4681 2378 5000 2338 
Q 4725 2209 4522 1959 
L 5697 1959 
Q 5872 1959 6134 2000 
L 5991 1641 
Q 5484 363 4817 -160 
Q 4150 -684 2716 -922 
Q 2600 -581 2313 -328 
z
" transform="scale(0.015625)"/>
      <path id="SIL-Hei-Med-Jian-52a8" d="M 500 2472 
Q 528 2672 528 2778 
Q 528 2888 491 3113 
Q 972 3056 1172 3056 
L 2544 3056 
L 2809 3056 
Q 2850 3056 3016 3078 
Q 3066 3278 3066 3381 
Q 3066 3475 3019 3666 
Q 3400 3631 3622 3631 
L 4119 3631 
L 4122 4016 
Q 4122 4631 4059 5213 
Q 4513 5078 4891 5078 
Q 4666 4800 4666 4141 
Q 4666 4116 4641 3631 
L 5456 3631 
Q 5616 3631 6150 3675 
Q 6097 3441 6075 3147 
L 5844 203 
Q 5806 -275 5576 -444 
Q 5347 -613 4653 -672 
L 4653 -619 
L 4647 -500 
Q 4628 -303 4413 -22 
Q 4669 -41 4794 -53 
Q 4875 -63 4944 -63 
Q 5150 -63 5239 90 
Q 5328 244 5359 653 
L 5541 3125 
L 4641 3125 
Q 4481 1184 4145 489 
Q 3809 -206 2700 -906 
Q 2553 -634 2125 -428 
Q 2903 -188 3434 369 
Q 3141 291 2881 147 
Q 2831 344 2772 516 
Q 1753 272 794 -63 
Q 706 225 544 491 
Q 897 672 1086 1022 
Q 1275 1372 1631 2491 
L 1084 2491 
L 722 2478 
L 500 2472 
z
M 1341 584 
L 2641 931 
Q 2469 1253 2306 1531 
Q 2547 1609 2775 1750 
Q 2994 1244 3100 1047 
L 3344 597 
Q 3363 559 3444 391 
Q 3769 906 3881 1367 
Q 3994 1828 4109 3125 
L 3647 3125 
Q 3556 3125 3403 3113 
L 3216 3100 
Q 3172 2881 3172 2781 
Q 3172 2666 3209 2456 
Q 2841 2491 2591 2491 
L 2238 2491 
L 2131 2213 
L 1850 1509 
Q 1631 953 1341 584 
z
M 794 3944 
Q 819 4175 819 4284 
Q 819 4394 803 4594 
Q 1219 4544 1341 4544 
L 2469 4544 
Q 2775 4544 3138 4588 
Q 3088 4309 3088 4184 
Q 3088 4091 3097 3947 
Q 2894 3966 2847 3966 
L 2469 3966 
L 1328 3966 
L 1025 3966 
Q 978 3966 794 3944 
z
" transform="scale(0.015625)"/>
      <path id="SIL-Hei-Med-Jian-8ba2" d="M 159 2722 
Q 194 2931 194 3038 
Q 194 3138 159 3344 
Q 481 3306 609 3306 
L 1272 3306 
Q 1506 3306 1791 3353 
Q 1766 3009 1766 2806 
L 1766 375 
Q 1934 528 2022 606 
Q 2384 925 2613 1178 
Q 2659 822 2834 541 
Q 2178 81 1241 -794 
Q 1150 -466 878 -269 
Q 1034 -172 1184 -31 
L 1184 2766 
L 606 2766 
Q 372 2766 159 2722 
z
M 834 4991 
Q 1163 5075 1428 5272 
Q 1722 4656 2169 4009 
Q 1853 3900 1553 3719 
L 1441 3978 
Q 1219 4469 834 4991 
z
M 2572 4081 
Q 2597 4316 2597 4431 
Q 2597 4547 2575 4769 
Q 2866 4709 3094 4709 
L 5750 4709 
Q 6038 4709 6263 4750 
Q 6244 4547 6244 4441 
Q 6244 4328 6269 4091 
Q 5994 4131 5750 4131 
L 5106 4131 
L 5106 -138 
Q 5106 -528 4853 -701 
Q 4600 -875 3975 -906 
Q 3919 -538 3719 -209 
Q 3978 -244 4203 -244 
Q 4400 -244 4454 -167 
Q 4509 -91 4509 181 
L 4509 4131 
L 3138 4131 
Q 2803 4131 2572 4081 
z
" transform="scale(0.015625)"/>
      <path id="SIL-Hei-Med-Jian-9605" d="M 613 -850 
Q 631 -738 631 -691 
L 628 -569 
L 628 3800 
L 631 3969 
Q 631 4000 613 4103 
Q 934 3991 1325 3966 
Q 1175 3772 1175 3569 
L 1175 -459 
L 1175 -678 
Q 1175 -713 1188 -850 
Q 991 -822 878 -822 
Q 800 -822 613 -850 
z
M 1122 4944 
Q 1400 5056 1644 5222 
Q 1925 4775 2231 4303 
Q 1938 4169 1663 4019 
Q 1431 4503 1122 4944 
z
M 2050 3906 
Q 2319 3966 2541 4138 
Q 2731 3828 2975 3506 
Q 2706 3406 2453 3281 
Q 2266 3619 2050 3906 
z
M 2628 4353 
Q 2653 4550 2653 4650 
Q 2653 4744 2628 4938 
Q 2734 4928 2788 4925 
Q 2941 4913 3000 4913 
L 5313 4913 
Q 5369 4913 5538 4925 
Q 5600 4928 5722 4938 
Q 5716 4819 5709 4759 
Q 5697 4594 5697 4544 
L 5697 -241 
Q 5697 -572 5573 -681 
Q 5450 -791 5019 -841 
Q 4891 -856 4641 -897 
Q 4575 -509 4391 -206 
Q 4616 -259 4803 -259 
Q 5153 -259 5153 78 
L 5153 4378 
L 3009 4378 
Q 2969 4378 2825 4366 
Q 2759 4363 2628 4353 
z
M 3656 4184 
Q 3972 4028 4300 3900 
Q 4019 3713 3669 3234 
L 4163 3234 
Q 4209 3234 4350 3247 
Q 4403 3253 4509 3259 
Q 4503 3156 4497 3103 
Q 4484 2991 4484 2959 
L 4484 1925 
Q 4484 1891 4497 1759 
Q 4503 1703 4509 1591 
Q 4403 1600 4350 1603 
Q 4197 1616 4138 1616 
L 3753 1616 
L 3753 519 
L 3750 447 
Q 3750 359 3831 353 
L 3894 353 
L 4069 353 
Q 4306 353 4306 713 
L 4303 872 
Q 4544 672 4834 638 
Q 4731 147 4614 17 
Q 4497 -113 4153 -113 
L 3628 -113 
Q 3391 -113 3330 -63 
Q 3269 -13 3269 181 
L 3269 1616 
L 2850 1616 
Q 2816 844 2603 469 
Q 2391 94 1725 -372 
Q 1556 -125 1303 59 
Q 1891 281 2091 572 
Q 2291 863 2369 1616 
L 2072 1616 
Q 2028 1616 1900 1603 
Q 1850 1600 1750 1591 
Q 1759 1725 1763 1794 
Q 1775 1963 1775 2019 
L 1775 2950 
Q 1775 2984 1763 3103 
Q 1756 3156 1750 3259 
Q 1850 3250 1900 3247 
Q 2034 3234 2084 3234 
L 3147 3234 
Q 3478 3691 3656 4184 
z
M 2281 2794 
L 2281 2091 
L 3978 2091 
L 3978 2794 
L 2281 2794 
z
" transform="scale(0.015625)"/>
      <path id="SIL-Hei-Med-Jian-6bcf" d="M 2566 1150 
Q 2797 1294 2978 1450 
Q 3344 1097 3650 866 
Q 3400 747 3166 550 
L 3072 653 
Q 2766 988 2566 1150 
z
M 200 3125 
Q 1316 3938 1772 5238 
Q 2084 5056 2481 4994 
Q 2231 4825 2028 4534 
L 4716 4534 
Q 5275 4534 5781 4584 
Q 5769 4400 5769 4294 
Q 5769 4197 5791 3975 
Q 5228 4019 4591 4019 
L 1781 4019 
L 1419 3556 
L 4075 3556 
Q 4691 3556 5291 3616 
L 5253 3281 
Q 5231 3056 5231 3000 
L 5194 2044 
L 5500 2044 
Q 5641 2044 5881 2056 
L 6125 2069 
Q 6113 1900 6113 1809 
Q 6113 1734 6125 1572 
Q 5781 1597 5634 1597 
L 5156 1597 
L 5119 491 
L 5425 491 
Q 5472 491 5622 503 
Q 5678 506 5794 516 
Q 5781 338 5781 244 
Q 5781 166 5794 -6 
Q 5528 16 5353 16 
L 5091 16 
L 5091 -359 
Q 5091 -691 4877 -802 
Q 4663 -913 3947 -950 
Q 3922 -581 3697 -338 
Q 3816 -369 3844 -372 
L 4138 -409 
Q 4334 -434 4356 -434 
Q 4516 -434 4534 -250 
L 4563 19 
L 2091 19 
Q 1756 19 1159 -19 
Q 1184 216 1197 338 
L 1244 878 
L 1331 1584 
L 753 1584 
Q 566 1584 288 1559 
Q 300 1725 300 1803 
Q 300 1897 288 2069 
L 472 2056 
Q 650 2044 741 2044 
L 1331 2044 
L 1419 3544 
Q 1059 3109 753 2788 
Q 541 3003 200 3125 
z
M 1734 491 
L 4581 491 
L 4631 1597 
L 1816 1597 
L 1734 491 
z
M 1853 2044 
L 3278 2044 
Q 3069 2356 2709 2700 
Q 2969 2819 3144 3013 
Q 3403 2606 3775 2356 
Q 3519 2228 3316 2044 
L 4641 2044 
L 4641 3106 
L 1906 3106 
L 1853 2044 
z
" transform="scale(0.015625)"/>
      <path id="SIL-Hei-Med-Jian-4e00" d="M 422 2684 
Q 709 2653 878 2653 
L 5469 2653 
Q 5709 2653 5956 2675 
Q 5931 2475 5931 2378 
Q 5931 2272 5956 2066 
Q 5916 2066 5719 2078 
Q 5509 2088 5444 2088 
L 891 2088 
Q 825 2088 631 2078 
Q 444 2066 416 2066 
Q 441 2284 441 2384 
Q 441 2494 422 2684 
z
" transform="scale(0.015625)"/>
      <path id="SIL-Hei-Med-Jian-767e" d="M 363 4919 
Q 1081 4888 1516 4888 
L 4934 4888 
L 5547 4884 
L 6041 4919 
Q 6016 4713 6016 4609 
Q 6016 4503 6041 4294 
Q 5631 4344 4944 4344 
L 3400 4344 
L 3128 3422 
L 3672 3422 
Q 4488 3422 5097 3456 
Q 5063 2778 5063 2481 
L 5063 122 
L 5075 -478 
L 5091 -931 
Q 4894 -913 4797 -913 
Q 4684 -913 4459 -938 
Q 4475 -791 4475 -763 
L 4475 -431 
L 4475 -166 
L 1834 -166 
L 1834 -631 
L 1834 -791 
Q 1834 -822 1856 -925 
Q 1656 -913 1559 -913 
Q 1456 -913 1256 -925 
L 1269 -419 
L 1281 159 
L 1281 2409 
L 1269 2975 
L 1256 3456 
Q 1684 3422 2009 3422 
L 2647 3422 
L 2822 4344 
L 1516 4344 
Q 1072 4344 350 4294 
Q 375 4534 375 4650 
Q 375 4744 363 4919 
z
M 1834 306 
L 4472 306 
L 4472 1381 
L 1834 1381 
L 1834 306 
z
M 1834 1819 
L 4472 1819 
L 4472 2925 
L 1834 2925 
L 1834 1819 
z
" transform="scale(0.015625)"/>
      <path id="SIL-Hei-Med-Jian-5bbd" d="M 291 -303 
Q 559 -319 694 -319 
Q 1794 -319 2297 151 
Q 2800 622 2800 1647 
Q 3128 1553 3500 1528 
Q 3375 1359 3316 1113 
Q 3163 469 2988 167 
Q 2813 -134 2469 -356 
Q 1744 -825 653 -916 
Q 534 -591 291 -303 
z
M 503 3559 
L 516 4025 
Q 516 4200 497 4563 
Q 828 4541 1053 4541 
L 3078 4541 
Q 2969 4891 2831 5113 
Q 3141 5113 3503 5209 
Q 3572 4863 3678 4538 
L 5381 4538 
Q 5650 4538 5963 4563 
Q 5938 4206 5938 4028 
Q 5938 3850 5963 3494 
Q 5788 3503 5700 3503 
Q 5569 3503 5309 3481 
Q 5331 3719 5331 3831 
L 5331 4125 
L 1075 4125 
L 1075 3878 
Q 1075 3856 1084 3734 
Q 1091 3634 1091 3553 
Q 884 3578 788 3578 
Q 688 3578 503 3559 
z
M 888 2875 
Q 900 3034 900 3113 
Q 900 3197 888 3359 
L 1128 3344 
Q 1253 3334 1316 3334 
L 2275 3334 
L 2275 3644 
L 2275 3784 
Q 2272 3822 2234 3922 
Q 2588 3809 2856 3809 
Q 2756 3675 2756 3522 
L 2756 3338 
L 3691 3338 
L 3691 3553 
Q 3691 3744 3650 3897 
Q 3988 3784 4284 3784 
Q 4200 3591 4188 3334 
L 5113 3334 
Q 5347 3334 5559 3375 
Q 5547 3238 5547 3153 
Q 5547 3066 5578 2872 
Q 5331 2897 5097 2897 
L 4188 2897 
L 4188 2244 
L 4613 2244 
Q 4650 2244 4806 2256 
Q 4966 2266 5088 2266 
L 5063 1338 
L 5088 413 
Q 4894 425 4800 425 
Q 4684 425 4463 406 
Q 4494 644 4494 856 
L 4494 1831 
L 1809 1831 
L 1809 863 
Q 1809 684 1834 406 
Q 1650 441 1563 441 
Q 1466 441 1288 413 
L 1306 1372 
L 1288 2266 
Q 1341 2266 1591 2256 
Q 1841 2244 1919 2244 
L 2275 2244 
L 2275 2897 
L 1347 2897 
Q 1163 2897 888 2875 
z
M 2756 2244 
L 3691 2244 
L 3691 2897 
L 2756 2897 
L 2756 2244 
z
M 3325 869 
Q 3653 822 3963 800 
Q 3863 597 3863 484 
L 3863 -197 
Q 3863 -400 4106 -400 
L 4913 -400 
Q 5366 -400 5366 503 
Q 5606 184 5959 91 
Q 5797 -475 5606 -676 
Q 5416 -878 5041 -878 
L 4034 -878 
Q 3594 -878 3472 -811 
Q 3350 -744 3350 -497 
L 3350 472 
Q 3350 669 3325 869 
z
" transform="scale(0.015625)"/>
      <path id="SIL-Hei-Med-Jian-5e26" d="M 381 3934 
Q 406 4100 406 4172 
Q 406 4272 381 4444 
Q 484 4434 534 4428 
Q 681 4413 741 4413 
L 1538 4413 
L 1538 4916 
Q 1538 5075 1497 5231 
Q 1772 5169 2016 5169 
L 2125 5172 
Q 2044 5050 2044 4900 
L 2044 4413 
L 2844 4413 
L 2844 4922 
Q 2844 5100 2816 5231 
Q 3131 5163 3288 5163 
Q 3363 5163 3503 5175 
Q 3397 5072 3397 4903 
L 3397 4413 
L 4250 4413 
L 4250 4872 
Q 4250 5066 4200 5188 
Q 4609 5119 4872 5119 
Q 4775 5025 4775 4906 
L 4775 4413 
L 5519 4413 
Q 5734 4413 5897 4459 
Q 5881 4284 5881 4188 
Q 5881 4106 5897 3934 
Q 5703 3975 5534 3975 
L 4772 3975 
L 4772 3591 
Q 4772 3506 4803 3241 
Q 4613 3269 4528 3269 
Q 4419 3269 4225 3241 
Q 4231 3341 4238 3388 
Q 4250 3538 4250 3597 
L 4250 3975 
L 3397 3975 
L 3397 3613 
Q 3397 3522 3431 3238 
Q 3225 3253 3125 3253 
Q 3019 3253 2809 3238 
Q 2844 3416 2844 3584 
L 2844 3975 
L 2044 3975 
L 2044 3631 
Q 2044 3431 2081 3238 
Q 1878 3269 1778 3269 
Q 1684 3269 1506 3244 
Q 1516 3366 1522 3425 
Q 1538 3594 1538 3647 
L 1538 3975 
L 753 3975 
Q 544 3975 381 3934 
z
M 416 1819 
Q 450 2009 450 2181 
L 450 2641 
Q 450 2838 419 3047 
Q 722 3000 991 3000 
L 5284 3000 
Q 5456 3000 5859 3053 
Q 5831 2869 5831 2647 
L 5831 2172 
Q 5831 2050 5875 1809 
Q 5672 1831 5572 1831 
Q 5466 1831 5256 1809 
Q 5291 2063 5291 2188 
L 5291 2556 
L 981 2556 
L 981 2231 
Q 981 2053 1013 1800 
Q 781 1838 675 1838 
Q 581 1838 416 1819 
z
M 1006 -428 
Q 1050 -203 1050 3 
L 1050 1247 
Q 1050 1472 1019 1659 
Q 1319 1606 1528 1606 
L 2844 1606 
L 2844 2141 
Q 2844 2247 2794 2431 
Q 3122 2359 3434 2359 
Q 3353 2247 3353 2141 
L 3353 1606 
L 4653 1606 
Q 4944 1606 5231 1666 
Q 5188 1353 5188 1013 
L 5188 106 
Q 5188 -216 4997 -344 
Q 4806 -472 4231 -534 
L 4147 -547 
Q 4113 -175 3919 134 
Q 4128 84 4328 84 
Q 4616 84 4616 353 
L 4616 1172 
L 3356 1172 
L 3356 -506 
Q 3356 -731 3388 -922 
Q 3188 -894 3088 -894 
Q 2997 -894 2813 -919 
Q 2847 -734 2847 -528 
L 2847 1172 
L 1597 1172 
L 1597 -13 
Q 1597 -256 1634 -444 
Q 1394 -409 1278 -409 
Q 1181 -409 1006 -428 
z
" transform="scale(0.015625)"/>
     </defs>
     <use xlink:href="#SIL-Hei-Med-Jian-4e2d"/>
     <use xlink:href="#SIL-Hei-Med-Jian-56fd" x="100"/>
     <use xlink:href="#SIL-Hei-Med-Jian-4e92" x="200"/>
     <use xlink:href="#SIL-Hei-Med-Jian-8054" x="300"/>
     <use xlink:href="#SIL-Hei-Med-Jian-7f51" x="400"/>
     <use xlink:href="#SIL-Hei-Med-Jian-7528" x="500"/>
     <use xlink:href="#SIL-Hei-Med-Jian-6237" x="600"/>
     <use xlink:href="#SIL-Hei-Med-Jian-7684" x="700"/>
     <use xlink:href="#SIL-Hei-Med-Jian-6570" x="800"/>
     <use xlink:href="#SIL-Hei-Med-Jian-91cf" x="900"/>
     <use xlink:href="#SIL-Hei-Med-Jian-ff08" x="1000"/>
     <use xlink:href="#SIL-Hei-Med-Jian-5355" x="1100"/>
     <use xlink:href="#SIL-Hei-Med-Jian-4f4d" x="1200"/>
     <use xlink:href="#SIL-Hei-Med-Jian-ff1a" x="1300"/>
     <use xlink:href="#SIL-Hei-Med-Jian-5343" x="1400"/>
     <use xlink:href="#SIL-Hei-Med-Jian-4e07" x="1500"/>
     <use xlink:href="#SIL-Hei-Med-Jian-4eba" x="1600"/>
     <use xlink:href="#SIL-Hei-Med-Jian-ff09" x="1700"/>
     <use xlink:href="#SIL-Hei-Med-Jian-3001" x="1800"/>
     <use xlink:href="#SIL-Hei-Med-Jian-5360" x="1900"/>
     <use xlink:href="#SIL-Hei-Med-Jian-4eba" x="2000"/>
     <use xlink:href="#SIL-Hei-Med-Jian-53e3" x="2100"/>
     <use xlink:href="#SIL-Hei-Med-Jian-7684" x="2200"/>
     <use xlink:href="#SIL-Hei-Med-Jian-6bd4" x="2300"/>
     <use xlink:href="#SIL-Hei-Med-Jian-4f8b" x="2400"/>
     <use xlink:href="#SIL-Hei-Med-Jian-3001" x="2500"/>
     <use xlink:href="#SIL-Hei-Med-Jian-79fb" x="2600"/>
     <use xlink:href="#SIL-Hei-Med-Jian-52a8" x="2700"/>
     <use xlink:href="#SIL-Hei-Med-Jian-4e92" x="2800"/>
     <use xlink:href="#SIL-Hei-Med-Jian-8054" x="2900"/>
     <use xlink:href="#SIL-Hei-Med-Jian-7f51" x="3000"/>
     <use xlink:href="#SIL-Hei-Med-Jian-8ba2" x="3100"/>
     <use xlink:href="#SIL-Hei-Med-Jian-9605" x="3200"/>
     <use xlink:href="#SIL-Hei-Med-Jian-6bcf" x="3300"/>
     <use xlink:href="#SIL-Hei-Med-Jian-4e00" x="3400"/>
     <use xlink:href="#SIL-Hei-Med-Jian-767e" x="3500"/>
     <use xlink:href="#SIL-Hei-Med-Jian-4eba" x="3600"/>
     <use xlink:href="#SIL-Hei-Med-Jian-6bd4" x="3700"/>
     <use xlink:href="#SIL-Hei-Med-Jian-4f8b" x="3800"/>
     <use xlink:href="#SIL-Hei-Med-Jian-3001" x="3900"/>
     <use xlink:href="#SIL-Hei-Med-Jian-5bbd" x="4000"/>
     <use xlink:href="#SIL-Hei-Med-Jian-5e26" x="4100"/>
     <use xlink:href="#SIL-Hei-Med-Jian-6bcf" x="4200"/>
     <use xlink:href="#SIL-Hei-Med-Jian-4e00" x="4300"/>
     <use xlink:href="#SIL-Hei-Med-Jian-767e" x="4400"/>
     <use xlink:href="#SIL-Hei-Med-Jian-4eba" x="4500"/>
     <use xlink:href="#SIL-Hei-Med-Jian-8ba2" x="4600"/>
     <use xlink:href="#SIL-Hei-Med-Jian-9605" x="4700"/>
     <use xlink:href="#SIL-Hei-Med-Jian-6bd4" x="4800"/>
     <use xlink:href="#SIL-Hei-Med-Jian-4f8b" x="4900"/>
    </g>
   </g>
   <g id="legend_1">
    <g id="patch_7">
     <path d="M 117.24 157.242375 
L 331.08 157.242375 
Q 333.72 157.242375 333.72 154.602375 
L 333.72 78.36 
Q 333.72 75.72 331.08 75.72 
L 117.24 75.72 
Q 114.6 75.72 114.6 78.36 
L 114.6 154.602375 
Q 114.6 157.242375 117.24 157.242375 
z
" style="fill: #eaeaf2; opacity: 0.8; stroke: #cccccc; stroke-width: 1.5; stroke-linejoin: miter"/>
    </g>
    <g id="line2d_21">
     <path d="M 119.88 86.98125 
L 133.08 86.98125 
L 146.28 86.98125 
" style="fill: none; stroke: #4c72b0; stroke-width: 3; stroke-linecap: round"/>
    </g>
    <g id="text_20">
     <!-- 数量（单位：千万人） -->
     <g style="fill: #262626" transform="translate(156.84 91.60125) scale(0.132 -0.132)">
      <use xlink:href="#SIL-Hei-Med-Jian-6570"/>
      <use xlink:href="#SIL-Hei-Med-Jian-91cf" x="100"/>
      <use xlink:href="#SIL-Hei-Med-Jian-ff08" x="200"/>
      <use xlink:href="#SIL-Hei-Med-Jian-5355" x="300"/>
      <use xlink:href="#SIL-Hei-Med-Jian-4f4d" x="400"/>
      <use xlink:href="#SIL-Hei-Med-Jian-ff1a" x="500"/>
      <use xlink:href="#SIL-Hei-Med-Jian-5343" x="600"/>
      <use xlink:href="#SIL-Hei-Med-Jian-4e07" x="700"/>
      <use xlink:href="#SIL-Hei-Med-Jian-4eba" x="800"/>
      <use xlink:href="#SIL-Hei-Med-Jian-ff09" x="900"/>
     </g>
    </g>
    <g id="line2d_22">
     <path d="M 119.88 106.362563 
L 133.08 106.362563 
L 146.28 106.362563 
" style="fill: none; stroke: #dd8452; stroke-width: 3; stroke-linecap: round"/>
    </g>
    <g id="text_21">
     <!-- 占人口的比例 -->
     <g style="fill: #262626" transform="translate(156.84 110.982563) scale(0.132 -0.132)">
      <use xlink:href="#SIL-Hei-Med-Jian-5360"/>
      <use xlink:href="#SIL-Hei-Med-Jian-4eba" x="100"/>
      <use xlink:href="#SIL-Hei-Med-Jian-53e3" x="200"/>
      <use xlink:href="#SIL-Hei-Med-Jian-7684" x="300"/>
      <use xlink:href="#SIL-Hei-Med-Jian-6bd4" x="400"/>
      <use xlink:href="#SIL-Hei-Med-Jian-4f8b" x="500"/>
     </g>
    </g>
    <g id="line2d_23">
     <path d="M 119.88 125.795438 
L 133.08 125.795438 
L 146.28 125.795438 
" style="fill: none; stroke: #55a868; stroke-width: 3; stroke-linecap: round"/>
    </g>
    <g id="text_22">
     <!-- 移动互联网订阅每一百人比例 -->
     <g style="fill: #262626" transform="translate(156.84 130.415438) scale(0.132 -0.132)">
      <use xlink:href="#SIL-Hei-Med-Jian-79fb"/>
      <use xlink:href="#SIL-Hei-Med-Jian-52a8" x="100"/>
      <use xlink:href="#SIL-Hei-Med-Jian-4e92" x="200"/>
      <use xlink:href="#SIL-Hei-Med-Jian-8054" x="300"/>
      <use xlink:href="#SIL-Hei-Med-Jian-7f51" x="400"/>
      <use xlink:href="#SIL-Hei-Med-Jian-8ba2" x="500"/>
      <use xlink:href="#SIL-Hei-Med-Jian-9605" x="600"/>
      <use xlink:href="#SIL-Hei-Med-Jian-6bcf" x="700"/>
      <use xlink:href="#SIL-Hei-Med-Jian-4e00" x="800"/>
      <use xlink:href="#SIL-Hei-Med-Jian-767e" x="900"/>
      <use xlink:href="#SIL-Hei-Med-Jian-4eba" x="1000"/>
      <use xlink:href="#SIL-Hei-Med-Jian-6bd4" x="1100"/>
      <use xlink:href="#SIL-Hei-Med-Jian-4f8b" x="1200"/>
     </g>
    </g>
    <g id="line2d_24">
     <path d="M 119.88 145.228313 
L 133.08 145.228313 
L 146.28 145.228313 
" style="fill: none; stroke: #c44e52; stroke-width: 3; stroke-linecap: round"/>
    </g>
    <g id="text_23">
     <!-- 宽带每一百人订阅比例 -->
     <g style="fill: #262626" transform="translate(156.84 149.848313) scale(0.132 -0.132)">
      <use xlink:href="#SIL-Hei-Med-Jian-5bbd"/>
      <use xlink:href="#SIL-Hei-Med-Jian-5e26" x="100"/>
      <use xlink:href="#SIL-Hei-Med-Jian-6bcf" x="200"/>
      <use xlink:href="#SIL-Hei-Med-Jian-4e00" x="300"/>
      <use xlink:href="#SIL-Hei-Med-Jian-767e" x="400"/>
      <use xlink:href="#SIL-Hei-Med-Jian-4eba" x="500"/>
      <use xlink:href="#SIL-Hei-Med-Jian-8ba2" x="600"/>
      <use xlink:href="#SIL-Hei-Med-Jian-9605" x="700"/>
      <use xlink:href="#SIL-Hei-Med-Jian-6bd4" x="800"/>
      <use xlink:href="#SIL-Hei-Med-Jian-4f8b" x="900"/>
     </g>
    </g>
   </g>
  </g>
 </g>
 <defs>
  <clipPath id="p2b5fa3b10b">
   <rect x="108" y="69.12" width="669.6" height="443.52"/>
  </clipPath>
 </defs>
</svg>
