<?xml version="1.0" encoding="utf-8" standalone="no"?>
<!DOCTYPE svg PUBLIC "-//W3C//DTD SVG 1.1//EN"
  "http://www.w3.org/Graphics/SVG/1.1/DTD/svg11.dtd">
<svg xmlns:xlink="http://www.w3.org/1999/xlink" width="864pt" height="576pt" viewBox="0 0 864 576" xmlns="http://www.w3.org/2000/svg" version="1.1">
 <metadata>
  <rdf:RDF xmlns:dc="http://purl.org/dc/elements/1.1/" xmlns:cc="http://creativecommons.org/ns#" xmlns:rdf="http://www.w3.org/1999/02/22-rdf-syntax-ns#">
   <cc:Work>
    <dc:type rdf:resource="http://purl.org/dc/dcmitype/StillImage"/>
    <dc:date>2024-05-20T13:41:15.679659</dc:date>
    <dc:format>image/svg+xml</dc:format>
    <dc:creator>
     <cc:Agent>
      <dc:title>Matplotlib v3.9.0, https://matplotlib.org/</dc:title>
     </cc:Agent>
    </dc:creator>
   </cc:Work>
  </rdf:RDF>
 </metadata>
 <defs>
  <style type="text/css">*{stroke-linejoin: round; stroke-linecap: butt}</style>
 </defs>
 <g id="figure_1">
  <g id="patch_1">
   <path d="M 0 576 
L 864 576 
L 864 0 
L 0 0 
z
" style="fill: #ffffff"/>
  </g>
  <g id="axes_1">
   <g id="patch_2">
    <path d="M 108 512.64 
L 777.6 512.64 
L 777.6 69.12 
L 108 69.12 
z
" style="fill: #eaeaf2"/>
   </g>
   <g id="matplotlib.axis_1">
    <g id="xtick_1">
     <g id="line2d_1">
      <path d="M 138.436364 512.64 
L 138.436364 69.12 
" clip-path="url(#pc6298c0628)" style="fill: none; stroke: #ffffff; stroke-width: 1.5; stroke-linecap: round"/>
     </g>
     <g id="text_1">
      <!-- 1980 -->
      <g style="fill: #262626" transform="translate(124.151489 534.60275) scale(0.132 -0.132)">
       <defs>
        <path id="SIL-Hei-Med-Jian-31" d="M 2469 4250 
L 2469 0 
L 1931 0 
L 1931 3678 
Q 1641 3372 800 2941 
L 800 3575 
Q 1384 3888 1878 4250 
L 2469 4250 
z
" transform="scale(0.015625)"/>
        <path id="SIL-Hei-Med-Jian-39" d="M 978 809 
Q 1125 319 1659 319 
Q 2484 319 2484 1778 
L 2488 1922 
Q 2447 1881 2431 1863 
L 2347 1775 
Q 2075 1484 1603 1484 
Q 1050 1484 722 1845 
Q 394 2206 394 2809 
Q 394 3519 745 3912 
Q 1097 4306 1731 4306 
Q 3078 4306 3078 2225 
Q 3078 -116 1638 -116 
Q 603 -116 409 753 
L 397 809 
L 978 809 
z
M 2484 2819 
Q 2484 3828 1734 3828 
Q 947 3828 947 2866 
Q 947 1919 1694 1919 
Q 2484 1919 2484 2819 
z
" transform="scale(0.015625)"/>
        <path id="SIL-Hei-Med-Jian-38" d="M 2234 2272 
L 2300 2247 
Q 3103 1963 3103 1128 
Q 3103 553 2737 212 
Q 2372 -128 1750 -128 
Q 1119 -128 739 206 
Q 359 541 359 1094 
Q 359 2025 1166 2259 
L 1234 2278 
L 1169 2300 
Q 522 2519 522 3216 
Q 522 3722 858 4022 
Q 1194 4322 1756 4322 
Q 2316 4322 2636 4042 
Q 2956 3763 2956 3275 
Q 2956 2525 2300 2294 
L 2234 2272 
z
M 2403 3206 
Q 2403 3888 1738 3888 
Q 1075 3888 1075 3188 
Q 1075 2869 1259 2669 
Q 1444 2469 1741 2469 
Q 2403 2469 2403 3206 
z
M 2497 1141 
Q 2497 2000 1738 2000 
Q 966 2000 966 1113 
Q 966 306 1725 306 
Q 2497 306 2497 1141 
z
" transform="scale(0.015625)"/>
        <path id="SIL-Hei-Med-Jian-30" d="M 3169 2113 
Q 3169 -116 1713 -116 
Q 294 -116 294 2094 
Q 294 4309 1728 4309 
Q 3169 4309 3169 2113 
z
M 2563 2144 
Q 2563 3078 2380 3454 
Q 2197 3831 1741 3831 
Q 1275 3831 1087 3412 
Q 900 2994 900 1959 
Q 900 1106 1092 734 
Q 1284 363 1725 363 
Q 2178 363 2370 773 
Q 2563 1184 2563 2144 
z
" transform="scale(0.015625)"/>
       </defs>
       <use xlink:href="#SIL-Hei-Med-Jian-31"/>
       <use xlink:href="#SIL-Hei-Med-Jian-39" x="54.101562"/>
       <use xlink:href="#SIL-Hei-Med-Jian-38" x="108.203125"/>
       <use xlink:href="#SIL-Hei-Med-Jian-30" x="162.304688"/>
      </g>
     </g>
    </g>
    <g id="xtick_2">
     <g id="line2d_2">
      <path d="M 260.181818 512.64 
L 260.181818 69.12 
" clip-path="url(#pc6298c0628)" style="fill: none; stroke: #ffffff; stroke-width: 1.5; stroke-linecap: round"/>
     </g>
     <g id="text_2">
      <!-- 1990 -->
      <g style="fill: #262626" transform="translate(245.896943 534.60275) scale(0.132 -0.132)">
       <use xlink:href="#SIL-Hei-Med-Jian-31"/>
       <use xlink:href="#SIL-Hei-Med-Jian-39" x="54.101562"/>
       <use xlink:href="#SIL-Hei-Med-Jian-39" x="108.203125"/>
       <use xlink:href="#SIL-Hei-Med-Jian-30" x="162.304688"/>
      </g>
     </g>
    </g>
    <g id="xtick_3">
     <g id="line2d_3">
      <path d="M 381.927273 512.64 
L 381.927273 69.12 
" clip-path="url(#pc6298c0628)" style="fill: none; stroke: #ffffff; stroke-width: 1.5; stroke-linecap: round"/>
     </g>
     <g id="text_3">
      <!-- 2000 -->
      <g style="fill: #262626" transform="translate(367.642398 534.60275) scale(0.132 -0.132)">
       <defs>
        <path id="SIL-Hei-Med-Jian-32" d="M 3075 516 
L 3075 0 
L 378 0 
L 378 591 
L 513 694 
Q 2456 2175 2456 3116 
Q 2456 3434 2256 3632 
Q 2056 3831 1738 3831 
Q 1181 3831 1016 3338 
L 431 3338 
L 456 3428 
Q 684 4309 1769 4309 
Q 2369 4309 2716 4003 
Q 3063 3697 3063 3169 
Q 3063 2569 2570 1853 
Q 2078 1138 1356 691 
L 1078 516 
L 3075 516 
z
" transform="scale(0.015625)"/>
       </defs>
       <use xlink:href="#SIL-Hei-Med-Jian-32"/>
       <use xlink:href="#SIL-Hei-Med-Jian-30" x="54.101562"/>
       <use xlink:href="#SIL-Hei-Med-Jian-30" x="108.203125"/>
       <use xlink:href="#SIL-Hei-Med-Jian-30" x="162.304688"/>
      </g>
     </g>
    </g>
    <g id="xtick_4">
     <g id="line2d_4">
      <path d="M 503.672727 512.64 
L 503.672727 69.12 
" clip-path="url(#pc6298c0628)" style="fill: none; stroke: #ffffff; stroke-width: 1.5; stroke-linecap: round"/>
     </g>
     <g id="text_4">
      <!-- 2010 -->
      <g style="fill: #262626" transform="translate(489.387852 534.60275) scale(0.132 -0.132)">
       <use xlink:href="#SIL-Hei-Med-Jian-32"/>
       <use xlink:href="#SIL-Hei-Med-Jian-30" x="54.101562"/>
       <use xlink:href="#SIL-Hei-Med-Jian-31" x="108.203125"/>
       <use xlink:href="#SIL-Hei-Med-Jian-30" x="162.304688"/>
      </g>
     </g>
    </g>
    <g id="xtick_5">
     <g id="line2d_5">
      <path d="M 625.418182 512.64 
L 625.418182 69.12 
" clip-path="url(#pc6298c0628)" style="fill: none; stroke: #ffffff; stroke-width: 1.5; stroke-linecap: round"/>
     </g>
     <g id="text_5">
      <!-- 2020 -->
      <g style="fill: #262626" transform="translate(611.133307 534.60275) scale(0.132 -0.132)">
       <use xlink:href="#SIL-Hei-Med-Jian-32"/>
       <use xlink:href="#SIL-Hei-Med-Jian-30" x="54.101562"/>
       <use xlink:href="#SIL-Hei-Med-Jian-32" x="108.203125"/>
       <use xlink:href="#SIL-Hei-Med-Jian-30" x="162.304688"/>
      </g>
     </g>
    </g>
    <g id="xtick_6">
     <g id="line2d_6">
      <path d="M 747.163636 512.64 
L 747.163636 69.12 
" clip-path="url(#pc6298c0628)" style="fill: none; stroke: #ffffff; stroke-width: 1.5; stroke-linecap: round"/>
     </g>
     <g id="text_6">
      <!-- 2030 -->
      <g style="fill: #262626" transform="translate(732.878761 534.60275) scale(0.132 -0.132)">
       <defs>
        <path id="SIL-Hei-Med-Jian-33" d="M 1050 3372 
L 453 3372 
L 463 3422 
Q 531 3825 873 4064 
Q 1216 4303 1725 4303 
Q 2966 4303 2966 3259 
Q 2966 2559 2259 2278 
L 2194 2253 
L 2269 2231 
Q 3072 2025 3072 1172 
Q 3072 569 2694 226 
Q 2316 -116 1653 -116 
Q 647 -116 375 794 
L 975 794 
L 991 744 
Q 1131 325 1688 325 
Q 2463 325 2463 1138 
Q 2463 1938 1503 1938 
L 1456 1938 
L 1456 2441 
L 1516 2444 
Q 2356 2513 2356 3225 
Q 2356 3866 1706 3866 
Q 1172 3866 1050 3372 
z
" transform="scale(0.015625)"/>
       </defs>
       <use xlink:href="#SIL-Hei-Med-Jian-32"/>
       <use xlink:href="#SIL-Hei-Med-Jian-30" x="54.101562"/>
       <use xlink:href="#SIL-Hei-Med-Jian-33" x="108.203125"/>
       <use xlink:href="#SIL-Hei-Med-Jian-30" x="162.304688"/>
      </g>
     </g>
    </g>
    <g id="text_7">
     <!-- 年份 -->
     <g style="fill: #262626" transform="translate(428.4 552.297563) scale(0.144 -0.144)">
      <defs>
       <path id="SIL-Hei-Med-Jian-5e74" d="M 216 659 
Q 228 828 228 925 
Q 228 1013 209 1206 
Q 281 1206 441 1197 
Q 628 1181 669 1181 
L 1456 1181 
L 1456 2372 
Q 1456 2528 1434 2831 
L 1738 2822 
L 2069 2813 
L 3253 2813 
L 3253 3750 
L 1906 3750 
Q 1747 3516 1694 3431 
L 1400 2963 
Q 1322 2838 1034 2466 
Q 759 2681 422 2784 
Q 1600 3881 1919 5209 
Q 2275 5028 2716 4975 
Q 2472 4800 2141 4234 
L 5150 4234 
Q 5200 4234 5431 4247 
Q 5631 4259 5725 4259 
Q 5697 4081 5697 4000 
Q 5697 3903 5722 3725 
Q 5656 3725 5453 3738 
Q 5244 3750 5184 3750 
L 3803 3750 
L 3803 2809 
L 4828 2809 
Q 4919 2809 5159 2822 
Q 5409 2831 5441 2831 
Q 5419 2659 5419 2563 
Q 5419 2481 5444 2300 
Q 5406 2300 5163 2313 
Q 4928 2325 4844 2325 
L 3800 2325 
L 3800 1181 
L 5475 1181 
Q 5522 1181 5766 1197 
Q 5975 1206 6113 1206 
Q 6100 1006 6100 922 
L 6106 653 
Q 5663 688 5475 688 
L 3800 688 
L 3800 -350 
Q 3800 -600 3819 -934 
L 3503 -928 
L 3219 -934 
Q 3250 -606 3250 -363 
L 3250 684 
L 778 684 
Q 688 684 447 672 
Q 369 669 216 659 
z
M 2000 1184 
L 3250 1184 
L 3250 2325 
L 2000 2325 
L 2000 1184 
z
" transform="scale(0.015625)"/>
       <path id="SIL-Hei-Med-Jian-4efd" d="M 169 2444 
Q 1200 3688 1547 5238 
Q 1872 5044 2209 4922 
Q 1919 4644 1609 3878 
L 1609 88 
L 1619 -500 
L 1631 -903 
Q 1469 -891 1397 -891 
Q 1300 -891 1128 -903 
L 1150 75 
L 1150 3078 
Q 847 2550 544 2000 
Q 366 2244 169 2444 
z
M 1744 2316 
Q 2334 2928 2626 3490 
Q 2919 4053 3131 4981 
Q 3456 4834 3794 4741 
Q 3650 4609 3578 4425 
Q 3350 3841 3016 3216 
Q 2950 3088 2816 2834 
L 3259 2828 
L 3697 2822 
L 4256 2822 
Q 4522 2822 5006 2872 
Q 4625 3441 4465 3814 
Q 4306 4188 4053 5122 
L 4200 5119 
Q 4356 5119 4688 5181 
Q 4675 5081 4666 5031 
Q 4650 4922 4650 4884 
Q 4650 4353 5163 3575 
Q 5578 2947 6241 2544 
Q 5947 2328 5728 2006 
Q 5441 2284 5194 2613 
Q 5078 2413 5069 2172 
L 4972 53 
Q 4953 -341 4742 -520 
Q 4531 -700 3994 -781 
Q 3994 -428 3750 -103 
Q 3841 -113 3884 -119 
Q 4072 -141 4172 -141 
Q 4503 -141 4522 272 
L 4619 2381 
L 3697 2381 
Q 3619 1047 3358 354 
Q 3097 -338 2456 -919 
Q 2250 -688 1963 -506 
Q 2606 -141 2862 439 
Q 3119 1019 3234 2369 
Q 2972 2347 2725 2319 
Q 2738 2466 2738 2541 
Q 2738 2600 2728 2722 
Q 2431 2259 2100 1850 
Q 1953 2113 1744 2316 
z
" transform="scale(0.015625)"/>
      </defs>
      <use xlink:href="#SIL-Hei-Med-Jian-5e74"/>
      <use xlink:href="#SIL-Hei-Med-Jian-4efd" x="100"/>
     </g>
    </g>
   </g>
   <g id="matplotlib.axis_2">
    <g id="ytick_1">
     <g id="line2d_7">
      <path d="M 108 486.652605 
L 777.6 486.652605 
" clip-path="url(#pc6298c0628)" style="fill: none; stroke: #ffffff; stroke-width: 1.5; stroke-linecap: round"/>
     </g>
     <g id="text_8">
      <!-- 0 -->
      <g style="fill: #262626" transform="translate(88.357563 491.38398) scale(0.132 -0.132)">
       <use xlink:href="#SIL-Hei-Med-Jian-30"/>
      </g>
     </g>
    </g>
    <g id="ytick_2">
     <g id="line2d_8">
      <path d="M 108 392.521846 
L 777.6 392.521846 
" clip-path="url(#pc6298c0628)" style="fill: none; stroke: #ffffff; stroke-width: 1.5; stroke-linecap: round"/>
     </g>
     <g id="text_9">
      <!-- 50 -->
      <g style="fill: #262626" transform="translate(81.215125 397.253221) scale(0.132 -0.132)">
       <defs>
        <path id="SIL-Hei-Med-Jian-35" d="M 2891 4228 
L 2891 3713 
L 1222 3713 
L 1059 2384 
Q 1491 2744 1931 2744 
Q 2469 2744 2772 2384 
Q 3075 2025 3075 1388 
Q 3075 -119 1641 -119 
Q 591 -119 406 750 
L 397 797 
L 994 797 
L 1009 759 
Q 1163 319 1675 319 
Q 2472 319 2472 1297 
Q 2472 2266 1703 2266 
Q 1303 2266 1131 2013 
L 1106 1978 
L 531 1975 
L 778 4228 
L 2891 4228 
z
" transform="scale(0.015625)"/>
       </defs>
       <use xlink:href="#SIL-Hei-Med-Jian-35"/>
       <use xlink:href="#SIL-Hei-Med-Jian-30" x="54.101562"/>
      </g>
     </g>
    </g>
    <g id="ytick_3">
     <g id="line2d_9">
      <path d="M 108 298.391086 
L 777.6 298.391086 
" clip-path="url(#pc6298c0628)" style="fill: none; stroke: #ffffff; stroke-width: 1.5; stroke-linecap: round"/>
     </g>
     <g id="text_10">
      <!-- 100 -->
      <g style="fill: #262626" transform="translate(74.072688 303.122461) scale(0.132 -0.132)">
       <use xlink:href="#SIL-Hei-Med-Jian-31"/>
       <use xlink:href="#SIL-Hei-Med-Jian-30" x="54.101562"/>
       <use xlink:href="#SIL-Hei-Med-Jian-30" x="108.203125"/>
      </g>
     </g>
    </g>
    <g id="ytick_4">
     <g id="line2d_10">
      <path d="M 108 204.260327 
L 777.6 204.260327 
" clip-path="url(#pc6298c0628)" style="fill: none; stroke: #ffffff; stroke-width: 1.5; stroke-linecap: round"/>
     </g>
     <g id="text_11">
      <!-- 150 -->
      <g style="fill: #262626" transform="translate(74.072688 208.991702) scale(0.132 -0.132)">
       <use xlink:href="#SIL-Hei-Med-Jian-31"/>
       <use xlink:href="#SIL-Hei-Med-Jian-35" x="54.101562"/>
       <use xlink:href="#SIL-Hei-Med-Jian-30" x="108.203125"/>
      </g>
     </g>
    </g>
    <g id="ytick_5">
     <g id="line2d_11">
      <path d="M 108 110.129567 
L 777.6 110.129567 
" clip-path="url(#pc6298c0628)" style="fill: none; stroke: #ffffff; stroke-width: 1.5; stroke-linecap: round"/>
     </g>
     <g id="text_12">
      <!-- 200 -->
      <g style="fill: #262626" transform="translate(74.072688 114.860942) scale(0.132 -0.132)">
       <use xlink:href="#SIL-Hei-Med-Jian-32"/>
       <use xlink:href="#SIL-Hei-Med-Jian-30" x="54.101562"/>
       <use xlink:href="#SIL-Hei-Med-Jian-30" x="108.203125"/>
      </g>
     </g>
    </g>
    <g id="text_13">
     <!-- 人数（单位：千万人） -->
     <g style="fill: #262626" transform="translate(67.766437 362.88) rotate(-90) scale(0.144 -0.144)">
      <defs>
       <path id="SIL-Hei-Med-Jian-4eba" d="M 213 -441 
Q 1572 128 2165 1200 
Q 2759 2272 2759 4156 
Q 2759 4606 2713 5003 
Q 3116 4897 3550 4897 
Q 3359 4600 3359 3963 
Q 3359 2650 3894 1634 
Q 4253 956 4728 586 
Q 5203 216 6166 -138 
Q 5775 -381 5544 -747 
Q 4431 -138 3898 582 
Q 3366 1303 3109 2547 
Q 2900 1378 2384 597 
Q 1869 -184 822 -913 
Q 572 -622 213 -441 
z
" transform="scale(0.015625)"/>
       <path id="SIL-Hei-Med-Jian-6570" d="M 188 -228 
Q 1269 -228 1897 172 
Q 1328 309 850 416 
Q 1047 788 1231 1200 
L 756 1200 
Q 716 1200 566 1188 
Q 503 1181 375 1175 
Q 400 1353 400 1450 
Q 400 1528 375 1703 
Q 484 1697 541 1691 
Q 672 1678 709 1678 
L 1409 1678 
Q 1506 1969 1594 2256 
Q 1869 2084 2184 2047 
Q 1988 1891 1900 1678 
L 3219 1678 
Q 3272 1678 3422 1691 
Q 3484 1697 3609 1703 
Q 3588 1534 3588 1444 
Q 3588 1356 3613 1175 
Q 3484 1181 3422 1188 
Q 3272 1200 3231 1200 
L 2947 1200 
Q 2834 797 2638 378 
Q 2953 275 3291 159 
Q 3091 -34 2934 -266 
Q 2675 -81 2375 0 
Q 1978 -338 1678 -481 
Q 1378 -625 634 -828 
Q 541 -456 188 -228 
z
M 1484 716 
Q 1850 613 2216 516 
Q 2388 844 2494 1200 
L 1744 1200 
Q 1609 972 1484 716 
z
M 222 2359 
Q 916 2672 1325 3244 
L 838 3244 
Q 778 3244 588 3231 
Q 525 3228 400 3222 
Q 422 3400 422 3497 
Q 422 3578 397 3759 
Q 550 3750 625 3747 
Q 822 3734 897 3734 
L 1719 3734 
L 1719 4775 
Q 1719 4847 1706 5019 
Q 1703 5081 1694 5203 
Q 2028 5156 2334 5156 
Q 2206 5000 2206 4763 
L 2206 3734 
L 3016 3734 
Q 3084 3734 3253 3747 
Q 3316 3750 3444 3759 
Q 3419 3578 3419 3491 
Q 3419 3400 3444 3219 
Q 3300 3228 3228 3231 
Q 3059 3244 3003 3244 
L 2206 3244 
L 2206 2594 
Q 2206 2553 2219 2425 
Q 2222 2372 2228 2266 
Q 2053 2288 1969 2288 
Q 1875 2288 1694 2266 
Q 1703 2347 1706 2388 
Q 1719 2488 1719 2522 
L 1719 3219 
Q 1297 2519 638 1966 
Q 463 2194 222 2359 
z
M 638 4766 
Q 869 4766 1147 4875 
Q 1281 4463 1447 4041 
Q 1197 4003 969 3931 
Q 847 4356 638 4766 
z
M 2303 2816 
Q 2484 2953 2634 3134 
Q 2938 2831 3284 2528 
Q 3063 2394 2888 2194 
Q 2625 2528 2303 2816 
z
M 2456 3981 
Q 2669 4409 2803 4863 
Q 3034 4756 3316 4688 
Q 3044 4322 2875 3869 
Q 2675 3953 2456 3981 
z
M 2719 -419 
Q 3672 -219 4338 450 
Q 4013 1216 3875 2409 
L 3756 2178 
L 3659 1994 
Q 3463 2178 3197 2291 
Q 3794 3122 3997 4716 
L 4044 5094 
Q 4406 4941 4797 4913 
Q 4513 4550 4363 3909 
L 5516 3909 
Q 5578 3909 5753 3922 
Q 5828 3925 5981 3934 
Q 5969 3750 5969 3638 
Q 5969 3563 5981 3388 
Q 5878 3397 5825 3403 
Q 5719 3416 5672 3416 
L 5516 3416 
Q 5403 2031 5295 1500 
Q 5188 969 4909 416 
Q 5366 -78 6119 -281 
Q 5863 -500 5681 -859 
Q 5019 -409 4634 22 
Q 4000 -525 3184 -922 
Q 3006 -634 2719 -419 
z
M 3944 2584 
L 4113 2581 
Q 4222 2581 4422 2619 
Q 4347 2384 4341 2281 
Q 4331 2063 4420 1611 
Q 4509 1159 4625 856 
Q 4900 1788 4981 3416 
L 4244 3416 
Q 4109 3003 3944 2584 
z
" transform="scale(0.015625)"/>
       <path id="SIL-Hei-Med-Jian-ff08" d="M 4400 4866 
Q 3719 3628 3719 2144 
Q 3719 775 4363 -534 
L 4394 -600 
L 3947 -600 
Q 3881 -494 3778 -272 
L 3622 63 
Q 3200 975 3200 2153 
Q 3200 3597 3953 4866 
L 4400 4866 
z
" transform="scale(0.015625)"/>
       <path id="SIL-Hei-Med-Jian-5355" d="M 384 894 
Q 703 866 869 866 
L 2938 866 
L 2938 1422 
L 1509 1422 
Q 1303 1422 1063 1375 
Q 1100 1619 1100 1822 
L 1100 3722 
Q 1100 3834 1078 4153 
Q 1413 4128 1516 4128 
L 2356 4128 
Q 2088 4575 1728 4950 
Q 1941 5000 2191 5163 
Q 2259 5084 2291 5050 
L 2513 4800 
L 2788 4466 
Q 2803 4447 2863 4381 
Q 2641 4288 2447 4125 
L 3600 4125 
Q 3894 4631 4078 5175 
Q 4353 5047 4834 4947 
Q 4447 4759 4044 4128 
L 4769 4128 
Q 5025 4128 5300 4169 
Q 5288 4013 5278 3938 
Q 5263 3784 5263 3713 
L 5263 1806 
Q 5263 1631 5294 1391 
Q 4947 1422 4778 1422 
L 3413 1422 
L 3413 863 
L 5456 863 
Q 5781 863 6000 913 
Q 5963 709 5963 613 
Q 5963 516 5994 328 
Q 5594 369 5447 369 
L 3416 369 
L 3416 -625 
Q 3416 -744 3444 -931 
Q 3269 -906 3181 -906 
Q 3088 -906 2909 -931 
Q 2931 -688 2931 -588 
L 2931 369 
L 878 369 
Q 669 369 384 341 
Q 416 525 416 622 
Q 416 709 384 894 
z
M 1575 1847 
L 2938 1847 
L 2938 2578 
L 1575 2578 
L 1575 1847 
z
M 1575 2947 
L 2941 2947 
L 2941 3703 
L 1575 3703 
L 1575 2947 
z
M 3413 1847 
L 4753 1847 
L 4753 2578 
L 3413 2578 
L 3413 1847 
z
M 3413 2953 
L 4756 2953 
L 4756 3703 
L 3413 3703 
L 3413 2953 
z
" transform="scale(0.015625)"/>
       <path id="SIL-Hei-Med-Jian-4f4d" d="M 213 2397 
Q 672 2934 1073 3764 
Q 1475 4594 1588 5234 
Q 1963 5031 2341 4919 
Q 2134 4791 1750 4019 
L 1647 3809 
L 1647 -203 
Q 1647 -503 1681 -919 
Q 1469 -869 1375 -869 
Q 1272 -869 1091 -900 
Q 1138 -459 1138 -144 
L 1138 2834 
Q 766 2134 594 1853 
L 550 1784 
Q 453 2131 213 2397 
z
M 1928 -531 
Q 1963 -322 1963 -222 
Q 1963 -97 1922 141 
Q 2281 94 2363 94 
L 3116 94 
L 3984 94 
Q 4150 659 4365 1751 
Q 4581 2844 4581 3131 
Q 4981 2953 5369 2897 
Q 5081 2634 4878 1681 
Q 4800 1325 4528 169 
L 4509 94 
L 5422 94 
Q 5728 94 6138 147 
Q 6125 -81 6125 -200 
Q 6125 -306 6138 -525 
Q 5838 -491 5472 -491 
L 3109 -491 
Q 2491 -491 1928 -531 
z
M 2181 3359 
Q 2200 3572 2200 3681 
Q 2200 3800 2175 4044 
Q 2503 4006 2594 4006 
L 3025 4006 
L 5100 4006 
Q 5650 4006 5956 4053 
Q 5925 3819 5925 3697 
Q 5925 3588 5956 3359 
Q 5575 3381 5125 3381 
L 3084 3381 
Q 2628 3381 2181 3359 
z
M 2503 2850 
Q 2813 2888 3097 2984 
Q 3234 2141 3688 728 
Q 3394 728 3031 597 
Q 2772 2256 2503 2850 
z
M 3403 5013 
Q 3706 5084 3972 5222 
Q 4066 4900 4416 4331 
Q 4116 4253 3831 4138 
Q 3697 4534 3403 5013 
z
" transform="scale(0.015625)"/>
       <path id="SIL-Hei-Med-Jian-ff1a" d="M 1013 3022 
L 1013 2238 
L 428 2238 
L 428 3022 
L 1013 3022 
z
M 1013 784 
L 1013 0 
L 428 0 
L 428 784 
L 1013 784 
z
" transform="scale(0.015625)"/>
       <path id="SIL-Hei-Med-Jian-5343" d="M 350 2038 
Q 363 2238 363 2331 
Q 363 2428 353 2603 
Q 809 2556 1213 2556 
L 2888 2556 
L 2888 4203 
Q 2472 4144 2319 4128 
L 1206 4006 
Q 1175 4000 941 3963 
Q 806 4319 522 4594 
Q 881 4566 1138 4566 
Q 2106 4566 3276 4744 
Q 4447 4922 4906 5138 
Q 5063 4822 5397 4444 
Q 5119 4484 4991 4484 
Q 4559 4484 3409 4284 
L 3409 2553 
L 5088 2553 
Q 5575 2553 6056 2591 
Q 6022 2397 6022 2306 
Q 6022 2209 6047 2038 
Q 5678 2069 4938 2069 
L 3409 2069 
L 3409 -341 
Q 3409 -422 3425 -666 
Q 3428 -750 3438 -919 
Q 3244 -894 3150 -894 
Q 3050 -894 2853 -919 
Q 2863 -741 2872 -650 
Q 2888 -431 2888 -363 
L 2888 2069 
L 1281 2069 
Q 769 2069 350 2038 
z
" transform="scale(0.015625)"/>
       <path id="SIL-Hei-Med-Jian-4e07" d="M 328 -384 
Q 1578 128 1992 993 
Q 2406 1859 2406 3972 
L 1119 3972 
Q 903 3972 625 3944 
Q 644 4147 644 4256 
Q 644 4359 622 4584 
Q 906 4559 1119 4559 
L 5756 4559 
Q 5919 4559 6169 4584 
Q 6144 4372 6144 4263 
Q 6144 4159 6169 3947 
Q 5906 3972 5706 3972 
L 3000 3972 
L 2975 3441 
L 2950 2944 
L 4966 2944 
Q 5138 2944 5403 2969 
L 5366 2719 
Q 5338 2528 5331 2447 
L 5113 31 
Q 5072 -397 4869 -564 
Q 4666 -731 4069 -828 
Q 3956 -847 3731 -884 
Q 3706 -472 3425 -131 
Q 3581 -147 3659 -153 
Q 3991 -188 4163 -188 
Q 4494 -188 4528 222 
L 4709 2366 
L 2916 2366 
Q 2744 1028 2425 509 
Q 2106 -9 888 -922 
Q 656 -606 328 -384 
z
" transform="scale(0.015625)"/>
       <path id="SIL-Hei-Med-Jian-ff09" d="M 2000 4866 
L 2447 4866 
Q 3200 3584 3200 2116 
Q 3200 919 2759 9 
L 2606 -313 
Q 2513 -506 2453 -600 
L 2006 -600 
L 2031 -547 
Q 2681 750 2681 2128 
Q 2681 3594 2000 4866 
z
" transform="scale(0.015625)"/>
      </defs>
      <use xlink:href="#SIL-Hei-Med-Jian-4eba"/>
      <use xlink:href="#SIL-Hei-Med-Jian-6570" x="100"/>
      <use xlink:href="#SIL-Hei-Med-Jian-ff08" x="200"/>
      <use xlink:href="#SIL-Hei-Med-Jian-5355" x="300"/>
      <use xlink:href="#SIL-Hei-Med-Jian-4f4d" x="400"/>
      <use xlink:href="#SIL-Hei-Med-Jian-ff1a" x="500"/>
      <use xlink:href="#SIL-Hei-Med-Jian-5343" x="600"/>
      <use xlink:href="#SIL-Hei-Med-Jian-4e07" x="700"/>
      <use xlink:href="#SIL-Hei-Med-Jian-4eba" x="800"/>
      <use xlink:href="#SIL-Hei-Med-Jian-ff09" x="900"/>
     </g>
    </g>
   </g>
   <g id="line2d_12">
    <path d="M 138.436364 479.672629 
L 150.610909 481.818386 
L 162.785455 483.814726 
L 174.96 485.645594 
L 187.134545 487.294937 
L 199.309091 488.746703 
L 211.483636 489.984837 
L 223.658182 490.993287 
L 235.832727 491.756 
L 248.007273 492.256922 
L 260.181818 492.48 
L 272.356364 492.409181 
L 284.530909 492.028411 
L 296.705455 491.321638 
L 308.88 490.272808 
L 321.054545 488.865867 
L 333.229091 487.084764 
L 345.403636 484.913444 
L 357.578182 482.335853 
L 369.752727 479.33594 
L 381.927273 475.897651 
L 394.101818 472.004932 
L 406.276364 467.641731 
L 418.450909 462.791993 
L 430.625455 457.439667 
L 442.8 451.568698 
L 454.974545 445.163033 
L 467.149091 438.20662 
L 479.323636 430.683404 
L 491.498182 422.577333 
L 503.672727 413.872354 
L 515.847273 404.552413 
L 528.021818 394.601456 
L 540.196364 384.003432 
L 552.370909 372.742286 
L 564.545455 360.801965 
L 576.72 348.166417 
L 588.894545 334.819587 
L 601.069091 320.745423 
L 613.243636 305.927872 
L 625.418182 290.350879 
L 637.592727 273.998393 
L 649.767273 256.854359 
L 661.941818 238.902725 
L 674.116364 220.127437 
L 686.290909 200.512442 
L 698.465455 180.041687 
L 710.64 158.699118 
L 722.814545 136.468683 
L 734.989091 113.334328 
L 747.163636 89.28 
" clip-path="url(#pc6298c0628)" style="fill: none; stroke: #4c72b0; stroke-width: 2.25; stroke-linecap: round"/>
   </g>
   <g id="patch_3">
    <path d="M 108 512.64 
L 108 69.12 
" style="fill: none; stroke: #ffffff; stroke-width: 1.875; stroke-linejoin: miter; stroke-linecap: square"/>
   </g>
   <g id="patch_4">
    <path d="M 777.6 512.64 
L 777.6 69.12 
" style="fill: none; stroke: #ffffff; stroke-width: 1.875; stroke-linejoin: miter; stroke-linecap: square"/>
   </g>
   <g id="patch_5">
    <path d="M 108 512.64 
L 777.6 512.64 
" style="fill: none; stroke: #ffffff; stroke-width: 1.875; stroke-linejoin: miter; stroke-linecap: square"/>
   </g>
   <g id="patch_6">
    <path d="M 108 69.12 
L 777.6 69.12 
" style="fill: none; stroke: #ffffff; stroke-width: 1.875; stroke-linejoin: miter; stroke-linecap: square"/>
   </g>
   <g id="text_14">
    <!-- 到2030年中国互联网总用户数的预测 -->
    <g style="fill: #262626" transform="translate(326.4165 63.12) scale(0.144 -0.144)">
     <defs>
      <path id="SIL-Hei-Med-Jian-5230" d="M 359 -56 
Q 647 -38 1259 44 
Q 1428 66 1766 100 
L 1766 1069 
L 1234 1069 
Q 1166 1069 941 1059 
Q 678 1047 600 1047 
Q 613 1222 613 1309 
Q 613 1397 600 1575 
Q 709 1575 963 1563 
Q 1209 1550 1272 1550 
L 1766 1550 
L 1766 2472 
L 1444 2434 
Q 1009 2388 634 2322 
Q 566 2681 447 2916 
Q 1159 3053 1644 4259 
L 1178 4259 
L 753 4244 
L 541 4238 
Q 550 4428 550 4519 
Q 550 4616 541 4803 
L 2081 4781 
L 3647 4803 
Q 3628 4613 3628 4519 
Q 3628 4422 3647 4234 
Q 3203 4259 2922 4259 
L 1806 4259 
Q 2144 4053 2369 3975 
Q 2163 3859 1991 3688 
L 1675 3372 
Q 1534 3231 1263 2988 
L 1097 2844 
L 2966 3016 
Q 2772 3419 2516 3678 
Q 2828 3759 2959 3884 
Q 3288 3453 3872 2509 
Q 3638 2425 3313 2213 
L 3275 2328 
Q 3219 2506 3131 2638 
L 2941 2613 
L 2506 2556 
L 2269 2528 
L 2269 1550 
L 2778 1550 
Q 2850 1550 3100 1563 
Q 3359 1575 3453 1575 
Q 3441 1397 3441 1306 
Q 3441 1222 3453 1047 
Q 3338 1047 3094 1059 
Q 2884 1069 2825 1069 
L 2269 1069 
L 2269 191 
Q 2547 234 2684 256 
Q 3397 363 3684 416 
Q 3606 84 3606 -169 
Q 3197 -169 2067 -351 
Q 938 -534 481 -675 
Q 469 -413 359 -56 
z
M 4075 538 
Q 4075 644 4081 763 
L 4097 1103 
L 4097 3719 
Q 4097 3844 4084 4050 
L 4069 4322 
Q 4441 4228 4750 4228 
Q 4606 3994 4606 3688 
L 4606 1081 
Q 4606 903 4628 538 
Q 4447 550 4350 550 
Q 4263 550 4075 538 
z
M 4347 -247 
Q 4703 -288 4859 -288 
Q 5066 -288 5130 -213 
Q 5194 -138 5194 100 
L 5194 4344 
Q 5194 4603 5163 5172 
Q 5569 5091 5869 5091 
Q 5750 4813 5750 4331 
L 5750 41 
Q 5750 -419 5708 -533 
Q 5666 -647 5469 -738 
Q 5184 -866 4609 -916 
Q 4578 -544 4347 -247 
z
" transform="scale(0.015625)"/>
      <path id="SIL-Hei-Med-Jian-4e2d" d="M 538 903 
Q 547 1006 550 1056 
Q 563 1194 563 1247 
L 563 3553 
Q 563 3763 538 3972 
Q 941 3941 1128 3941 
L 2844 3941 
L 2844 4859 
Q 2844 5041 2791 5216 
Q 3169 5131 3550 5131 
Q 3409 4978 3409 4813 
L 3409 3941 
L 5134 3941 
Q 5397 3941 5713 3972 
Q 5688 3759 5688 3541 
L 5688 1281 
Q 5688 1206 5725 953 
Q 5525 975 5431 975 
Q 5306 975 5069 944 
Q 5094 1191 5094 1303 
L 5094 1431 
L 3406 1431 
L 3406 -544 
Q 3406 -734 3447 -928 
Q 3256 -909 3156 -909 
Q 3044 -909 2816 -934 
Q 2847 -691 2847 -522 
L 2847 1434 
L 1138 1434 
L 1138 1244 
Q 1138 1094 1169 894 
Q 938 925 822 925 
Q 728 925 538 903 
z
M 1138 3431 
L 1138 1909 
L 2844 1909 
L 2844 3431 
L 1138 3431 
z
M 3409 1913 
L 5091 1913 
L 5091 3434 
L 3409 3434 
L 3409 1913 
z
" transform="scale(0.015625)"/>
      <path id="SIL-Hei-Med-Jian-56fd" d="M 1706 3841 
Q 2006 3816 2197 3816 
L 4256 3816 
Q 4506 3816 4766 3841 
Q 4753 3669 4753 3581 
Q 4753 3497 4766 3325 
Q 4434 3347 4269 3347 
L 3409 3347 
L 3409 2572 
L 4188 2572 
Q 4425 2572 4644 2606 
Q 4622 2422 4622 2334 
Q 4622 2241 4641 2066 
Q 4363 2088 4181 2088 
L 3409 2088 
L 3409 1041 
L 4441 1041 
Q 4600 1041 4884 1063 
Q 4863 888 4863 800 
Q 4863 713 4884 541 
Q 4566 563 4413 563 
L 1938 563 
Q 1763 563 1516 541 
Q 1528 716 1528 803 
Q 1528 891 1516 1063 
Q 1756 1041 1972 1041 
L 2909 1041 
L 2909 2088 
L 2306 2088 
Q 2056 2088 1816 2066 
Q 1825 2225 1825 2313 
Q 1825 2403 1809 2600 
Q 1928 2591 1988 2588 
Q 2159 2572 2231 2572 
L 2909 2572 
L 2909 3347 
L 2184 3347 
Q 2028 3347 1706 3325 
Q 1719 3497 1719 3581 
Q 1719 3669 1706 3841 
z
M 4088 1950 
Q 4238 1728 4506 1419 
Q 4259 1350 4028 1234 
Q 3891 1506 3666 1766 
Q 3894 1841 4088 1950 
z
M 684 4941 
Q 978 4916 1244 4916 
L 5128 4916 
Q 5422 4916 5756 4941 
Q 5734 4688 5734 4403 
L 5734 -428 
Q 5734 -709 5756 -938 
Q 5559 -913 5475 -913 
Q 5359 -913 5156 -938 
Q 5178 -750 5178 -653 
L 5178 -466 
L 1234 -466 
L 1234 -653 
Q 1234 -750 1259 -931 
Q 1056 -916 959 -916 
Q 863 -916 684 -928 
Q 709 -653 709 -450 
L 709 4403 
Q 709 4625 684 4941 
z
M 1238 4397 
L 1238 9 
L 5184 9 
L 5184 4397 
L 1238 4397 
z
" transform="scale(0.015625)"/>
      <path id="SIL-Hei-Med-Jian-4e92" d="M 356 -541 
Q 381 -328 381 -216 
Q 381 -119 356 88 
L 1181 66 
L 4019 66 
L 4178 1059 
L 2225 1059 
L 1847 1047 
L 1581 1038 
L 1644 1353 
Q 1875 2525 2019 3619 
L 2091 4172 
L 1316 4172 
Q 988 4172 659 4138 
Q 672 4303 672 4400 
Q 672 4500 647 4722 
L 1097 4713 
L 1644 4700 
L 4931 4700 
L 5294 4700 
L 5791 4713 
Q 5769 4519 5769 4431 
Q 5769 4328 5788 4141 
Q 5191 4172 4869 4172 
L 2684 4172 
L 2516 3222 
L 4225 3222 
L 4688 3234 
L 5075 3244 
Q 4966 2559 4797 1219 
L 4650 56 
L 5450 56 
Q 5694 56 6059 75 
Q 6047 -106 6047 -216 
Q 6047 -316 6069 -547 
Q 5625 -519 5344 -519 
L 1169 -519 
L 647 -531 
L 356 -541 
z
M 2238 1556 
L 4250 1556 
L 4409 2716 
L 2431 2716 
L 2238 1556 
z
" transform="scale(0.015625)"/>
      <path id="SIL-Hei-Med-Jian-8054" d="M 209 397 
L 384 394 
Q 503 394 763 419 
L 763 4263 
L 547 4263 
Q 428 4263 291 4247 
Q 316 4450 316 4544 
Q 316 4628 303 4775 
Q 631 4750 738 4750 
L 2581 4750 
Q 2759 4750 2988 4781 
Q 2963 4603 2963 4519 
Q 2963 4425 2988 4244 
Q 2791 4259 2719 4259 
L 2538 4259 
L 2538 706 
L 3119 816 
Q 3034 700 3019 450 
L 3009 341 
Q 2772 303 2538 253 
L 2538 -384 
Q 3069 -259 3503 370 
Q 3938 1000 3938 1647 
L 3409 1647 
Q 3059 1647 2734 1625 
Q 2750 1806 2750 1894 
Q 2750 1997 2731 2194 
Q 3059 2159 3331 2159 
L 3978 2159 
L 3978 3288 
L 3559 3288 
Q 3194 3288 2850 3244 
Q 2894 3459 2894 3569 
Q 2894 3663 2859 3856 
Q 3306 3813 3509 3813 
L 4403 3813 
Q 4700 4513 4828 5184 
Q 5159 4994 5553 4909 
Q 5247 4669 4953 4050 
Q 4916 3972 4838 3813 
L 5250 3813 
Q 5516 3813 5841 3859 
Q 5819 3681 5819 3584 
Q 5819 3475 5859 3244 
Q 5441 3288 5206 3288 
L 4500 3288 
L 4500 2159 
L 5259 2159 
Q 5584 2159 6006 2203 
Q 5997 2013 5997 1900 
Q 5997 1813 6009 1606 
Q 5519 1647 5244 1647 
L 4553 1647 
Q 4681 281 6178 -222 
Q 5822 -425 5644 -822 
L 5547 -741 
Q 4984 -263 4718 109 
Q 4453 481 4278 1038 
Q 4163 484 3825 -53 
Q 3488 -591 3072 -881 
Q 2906 -503 2541 -431 
L 2541 -631 
Q 2541 -716 2559 -906 
Q 2384 -888 2303 -888 
Q 2203 -888 2019 -906 
Q 2028 -781 2034 -719 
Q 2053 -531 2053 -472 
L 2053 163 
Q 1594 63 1359 19 
Q 722 -106 406 -253 
Q 325 197 209 397 
z
M 1234 503 
L 2053 609 
L 2053 1506 
L 1234 1506 
L 1234 503 
z
M 1238 1938 
L 2056 1938 
L 2056 2900 
L 1238 2900 
L 1238 1938 
z
M 1234 3325 
L 2056 3325 
L 2056 4259 
L 1234 4259 
L 1234 3325 
z
M 3181 4963 
Q 3488 5028 3766 5131 
Q 3809 4759 4113 4188 
Q 3847 4144 3566 4053 
Q 3441 4625 3181 4963 
z
" transform="scale(0.015625)"/>
      <path id="SIL-Hei-Med-Jian-7f51" d="M 616 -822 
Q 647 -600 647 -347 
L 647 4600 
Q 647 4706 622 5019 
Q 859 4994 1100 4994 
L 5278 4994 
Q 5525 4994 5781 5019 
Q 5756 4803 5756 4613 
L 5756 -128 
Q 5756 -578 5539 -726 
Q 5322 -875 4603 -916 
Q 4584 -547 4297 -184 
Q 4675 -231 4891 -231 
Q 5081 -231 5134 -168 
Q 5188 -106 5188 119 
L 5188 4450 
L 1184 4450 
L 1184 534 
Q 1663 1094 2141 2141 
Q 1834 2847 1369 3572 
Q 1631 3653 1847 3769 
Q 2094 3256 2375 2716 
Q 2547 3259 2684 4028 
Q 2988 3863 3328 3794 
Q 3159 3638 3000 3206 
L 2766 2581 
Q 2731 2484 2638 2175 
Q 2856 1666 3256 988 
Q 3519 1347 3831 2028 
Q 3597 2594 3269 3131 
L 3134 3353 
Q 3384 3434 3597 3575 
Q 3819 3100 4066 2628 
Q 4206 3075 4341 3944 
Q 4663 3822 5034 3769 
Q 4831 3553 4691 3069 
Q 4681 3044 4494 2481 
Q 4441 2328 4344 2009 
Q 4600 1456 4691 1256 
L 4969 641 
Q 4684 572 4419 425 
Q 4263 1003 4066 1516 
Q 3700 834 3309 216 
Q 3003 375 2675 434 
Q 2984 656 3219 950 
Q 2950 878 2706 744 
Q 2544 1213 2375 1625 
Q 2044 913 1663 238 
Q 1422 372 1188 450 
L 1188 -356 
Q 1188 -544 1219 -822 
Q 1019 -788 913 -788 
Q 816 -788 616 -822 
z
" transform="scale(0.015625)"/>
      <path id="SIL-Hei-Med-Jian-603b" d="M 281 -409 
Q 747 369 747 1234 
Q 1088 1125 1394 1125 
Q 1266 909 1175 591 
L 1041 119 
L 941 -275 
Q 919 -366 875 -538 
Q 588 -409 281 -409 
z
M 1041 1694 
L 1047 1897 
L 1053 2263 
L 1053 3319 
Q 1053 3453 1038 3763 
L 1025 3978 
Q 1122 3978 1250 3969 
Q 1488 3947 1509 3947 
L 3331 3947 
Q 3775 4544 4044 5200 
Q 4434 4984 4866 4875 
Q 4363 4553 3944 3947 
L 4597 3947 
L 4863 3963 
Q 4956 3969 5084 3969 
Q 5063 3744 5063 3525 
L 5063 2116 
L 5069 1856 
L 5075 1694 
Q 4697 1713 4553 1713 
L 1716 1713 
L 1394 1706 
L 1041 1694 
z
M 1553 2294 
L 4522 2294 
L 4522 3400 
L 1553 3400 
L 1553 2294 
z
M 1366 4888 
Q 1709 4969 1950 5172 
Q 2091 5028 2125 4991 
L 2359 4731 
Q 2600 4463 2744 4272 
Q 2403 4169 2109 3994 
Q 1919 4450 1366 4888 
z
M 2444 1053 
Q 2363 825 2363 669 
L 2363 94 
Q 2363 -166 2425 -231 
Q 2488 -297 2728 -297 
L 3541 -297 
Q 3963 -297 4088 -161 
Q 4213 -25 4291 513 
Q 4563 253 4909 184 
Q 4738 -409 4513 -615 
Q 4288 -822 3819 -822 
L 2741 -822 
Q 1859 -822 1859 -272 
L 1859 681 
Q 1859 850 1841 1103 
Q 2103 1050 2331 1050 
L 2444 1053 
z
M 2741 1322 
Q 3041 1372 3266 1519 
Q 3366 1378 3397 1328 
L 3581 1038 
L 3775 734 
Q 3809 681 3897 519 
Q 3559 475 3272 303 
Q 3097 922 2741 1322 
z
M 4597 1081 
Q 4938 1141 5159 1359 
Q 5309 1169 5363 1100 
L 5653 709 
L 5916 369 
Q 5978 291 6109 113 
Q 5763 0 5475 -209 
Q 5209 522 4597 1081 
z
" transform="scale(0.015625)"/>
      <path id="SIL-Hei-Med-Jian-7528" d="M 275 -616 
Q 853 -209 1058 292 
Q 1263 794 1263 1809 
L 1263 4613 
Q 1263 4647 1244 4797 
Q 1238 4856 1231 4969 
Q 1569 4931 1706 4931 
L 5319 4931 
Q 5725 4931 5925 4963 
Q 5888 4775 5888 4566 
L 5888 -316 
Q 5888 -647 5639 -784 
Q 5391 -922 4797 -922 
Q 4797 -534 4538 -256 
L 4691 -272 
Q 4931 -297 5069 -297 
Q 5316 -297 5316 3 
L 5316 1478 
L 3763 1478 
L 3763 -156 
Q 3763 -291 3794 -519 
Q 3606 -488 3509 -488 
Q 3403 -488 3184 -531 
Q 3234 -300 3234 -31 
L 3234 1478 
L 1816 1478 
Q 1763 616 1597 159 
Q 1431 -297 941 -928 
Q 763 -734 275 -616 
z
M 1831 4391 
L 1831 3397 
L 3234 3397 
L 3234 4391 
L 1831 4391 
z
M 1822 1959 
L 3234 1959 
L 3234 2944 
L 1822 2944 
L 1822 1959 
z
M 3763 4384 
L 3763 3397 
L 5316 3397 
L 5316 4384 
L 3763 4384 
z
M 3759 2944 
L 3759 1959 
L 5316 1959 
L 5316 2944 
L 3759 2944 
z
" transform="scale(0.015625)"/>
      <path id="SIL-Hei-Med-Jian-6237" d="M 428 -547 
Q 1094 9 1328 593 
Q 1563 1178 1563 2288 
Q 1563 3547 1525 4178 
L 1859 4169 
L 2219 4159 
L 5125 4159 
L 5559 4159 
L 5884 4169 
Q 5875 4050 5872 3988 
Q 5859 3841 5859 3794 
L 5859 1428 
L 5859 1178 
Q 5859 1144 5872 1003 
Q 5641 1019 5531 1019 
L 5259 1013 
Q 5281 1284 5281 1538 
L 5281 1703 
L 2109 1703 
Q 2013 769 1792 251 
Q 1572 -266 1003 -894 
Q 750 -663 428 -547 
z
M 2109 2197 
L 5281 2197 
L 5281 3634 
L 2109 3634 
L 2109 2197 
z
M 3169 5038 
Q 3450 5084 3738 5225 
Q 3919 4822 4138 4466 
Q 3809 4419 3538 4275 
Q 3406 4681 3169 5038 
z
" transform="scale(0.015625)"/>
      <path id="SIL-Hei-Med-Jian-7684" d="M 516 -750 
L 522 -534 
L 534 -216 
L 534 3394 
Q 534 3750 513 4016 
Q 663 4006 734 4003 
Q 925 3988 972 3988 
L 1216 3988 
Q 1275 4191 1297 4547 
L 1319 4822 
Q 1322 4894 1334 5122 
Q 1681 5063 2069 5028 
Q 1872 4772 1709 4116 
L 1678 3988 
L 2181 3988 
Q 2328 3988 2609 4003 
L 2856 4016 
L 2856 2709 
Q 3634 3613 3972 5200 
Q 4231 5081 4691 4972 
Q 4534 4831 4381 4519 
L 4225 4200 
Q 4203 4153 4141 4016 
L 5316 4016 
Q 5559 4016 5978 4038 
Q 5956 3897 5950 3850 
L 5938 3619 
L 5747 134 
Q 5713 -450 5455 -634 
Q 5197 -819 4294 -906 
Q 4197 -469 3988 -213 
Q 4372 -278 4644 -278 
Q 4978 -278 5092 -161 
Q 5206 -44 5228 319 
L 5406 3531 
L 3947 3531 
L 3872 3372 
Q 3591 2778 3400 2416 
Q 3172 2556 2856 2628 
L 2856 -156 
Q 2856 -225 2869 -450 
Q 2881 -666 2881 -709 
Q 2694 -675 2603 -675 
Q 2503 -675 2313 -709 
Q 2334 -384 2334 -13 
L 1044 -13 
L 1044 -225 
Q 1044 -316 1056 -522 
L 1066 -744 
Q 891 -722 803 -722 
Q 706 -722 516 -750 
z
M 2338 3506 
L 1041 3506 
L 1041 2181 
L 2338 2181 
L 2338 3506 
z
M 1041 431 
L 2341 431 
L 2341 1731 
L 1041 1731 
L 1041 431 
z
M 3519 2147 
Q 3791 2219 3975 2378 
Q 4063 2228 4084 2188 
L 4294 1788 
Q 4400 1584 4669 1197 
Q 4416 1122 4119 950 
Q 3947 1575 3519 2147 
z
" transform="scale(0.015625)"/>
      <path id="SIL-Hei-Med-Jian-9884" d="M 303 2531 
Q 328 2719 328 2825 
Q 328 2903 303 3078 
Q 406 3072 456 3069 
Q 600 3056 653 3056 
L 1484 3056 
Q 1100 3513 713 3781 
Q 988 3859 1181 4022 
Q 1372 3822 1553 3641 
Q 1813 4019 2019 4394 
L 913 4394 
Q 859 4394 700 4381 
Q 644 4378 525 4372 
Q 550 4550 550 4644 
Q 550 4734 525 4919 
Q 634 4909 688 4906 
Q 828 4894 875 4894 
L 2391 4894 
Q 2441 4894 2591 4906 
Q 2650 4909 2766 4919 
Q 2541 4272 1856 3316 
L 2056 3056 
L 2581 3056 
Q 2613 3056 2756 3069 
Q 2806 3072 2906 3078 
L 2719 2322 
L 2578 1750 
Q 2363 1800 2247 1800 
L 2113 1797 
Q 2241 2184 2334 2556 
L 1775 2556 
L 1775 -116 
Q 1775 -388 1639 -495 
Q 1503 -603 1063 -675 
Q 997 -688 866 -709 
Q 831 -397 691 -138 
Q 919 -175 997 -175 
Q 1178 -175 1231 -106 
Q 1284 -38 1284 200 
L 1284 2556 
L 584 2556 
Q 559 2556 456 2544 
Q 406 2538 303 2531 
z
M 2141 -475 
Q 3338 -75 3659 431 
Q 3981 938 3981 2425 
L 3978 2684 
Q 4222 2625 4472 2625 
L 4606 2625 
Q 4484 2422 4469 2088 
Q 4400 653 4120 206 
Q 3841 -241 2597 -916 
Q 2428 -641 2141 -475 
z
M 2950 528 
Q 2956 663 2963 728 
Q 2975 875 2975 913 
L 2975 3213 
Q 2975 3253 2963 3388 
Q 2956 3456 2950 3600 
Q 3238 3572 3338 3572 
L 3825 3572 
L 3991 4388 
L 3363 4388 
Q 3313 4388 3150 4375 
Q 3081 4372 2941 4363 
Q 2963 4563 2963 4669 
Q 2963 4744 2947 4909 
Q 3069 4903 3131 4900 
Q 3303 4888 3378 4888 
L 5522 4888 
Q 5572 4888 5719 4900 
Q 5781 4903 5906 4909 
Q 5875 4725 5875 4644 
Q 5875 4541 5900 4363 
Q 5791 4372 5738 4375 
Q 5578 4391 5541 4391 
L 4506 4391 
L 4269 3572 
L 5247 3572 
Q 5284 3572 5413 3584 
Q 5469 3588 5588 3597 
Q 5578 3472 5575 3409 
Q 5563 3266 5563 3222 
L 5563 844 
Q 5563 816 5575 669 
Q 5581 616 5588 506 
Q 5409 528 5319 528 
Q 5234 528 5063 506 
Q 5075 628 5075 681 
L 5072 844 
L 5072 3081 
L 3469 3081 
L 3469 938 
Q 3469 706 3484 528 
Q 3309 553 3231 553 
Q 3131 553 2950 528 
z
M 4338 213 
Q 4569 375 4728 581 
Q 5319 56 6009 -481 
Q 5753 -659 5566 -922 
Q 5006 -225 4338 213 
z
" transform="scale(0.015625)"/>
      <path id="SIL-Hei-Med-Jian-6d4b" d="M 294 2916 
Q 509 3122 625 3391 
Q 997 3106 1700 2828 
Q 1484 2619 1341 2325 
Q 875 2688 294 2916 
z
M 431 -406 
Q 831 294 994 2006 
Q 1228 1731 1509 1631 
Q 1466 1369 1450 1291 
L 1269 356 
L 1134 -444 
Q 1119 -547 1050 -866 
Q 772 -578 431 -406 
z
M 509 4591 
Q 725 4800 884 5047 
Q 1278 4713 1828 4434 
Q 1600 4247 1466 3981 
Q 1097 4372 509 4591 
z
M 1313 -513 
Q 1975 -166 2347 350 
Q 2584 675 2654 1083 
Q 2725 1491 2725 2531 
L 2700 3841 
Q 3047 3775 3294 3775 
Q 3197 3488 3197 3178 
Q 3197 1144 3001 567 
Q 2806 -9 1819 -903 
Q 1722 -731 1413 -566 
Q 1378 -547 1313 -513 
z
M 1838 869 
Q 1847 978 1853 1031 
Q 1872 1222 1872 1278 
L 1872 4300 
Q 1872 4541 1853 4800 
Q 2272 4763 2413 4763 
L 3528 4763 
L 3856 4763 
Q 3900 4763 4081 4781 
Q 4050 4469 4050 4059 
L 4050 1534 
Q 4050 1319 4106 928 
Q 3909 950 3809 950 
Q 3716 950 3519 928 
Q 3566 1350 3566 1534 
L 3566 4291 
L 2347 4291 
L 2347 1294 
Q 2347 1084 2375 869 
Q 2197 891 2106 891 
Q 2016 891 1838 869 
z
M 3441 731 
Q 3597 591 3647 538 
L 3891 297 
Q 3928 259 4194 28 
Q 4288 -50 4469 -216 
Q 4178 -375 3963 -631 
Q 3813 -197 3041 406 
Q 3244 547 3441 731 
z
M 4472 650 
L 4484 853 
Q 4497 1053 4497 1147 
L 4497 4047 
Q 4497 4234 4447 4544 
Q 4694 4491 4900 4491 
L 5019 4491 
Q 4959 4238 4959 4034 
L 4959 1181 
Q 4959 838 4994 653 
Q 4825 672 4738 672 
Q 4653 672 4472 650 
z
M 4694 -238 
Q 5019 -275 5150 -275 
Q 5334 -275 5382 -220 
Q 5431 -166 5431 41 
L 5431 4634 
Q 5431 4775 5381 5159 
Q 5734 5103 6041 5103 
Q 5953 4922 5953 4663 
L 5953 -263 
Q 5953 -600 5814 -720 
Q 5675 -841 5234 -881 
Q 5138 -891 4947 -913 
Q 4888 -494 4694 -238 
z
" transform="scale(0.015625)"/>
     </defs>
     <use xlink:href="#SIL-Hei-Med-Jian-5230"/>
     <use xlink:href="#SIL-Hei-Med-Jian-32" x="100"/>
     <use xlink:href="#SIL-Hei-Med-Jian-30" x="154.101562"/>
     <use xlink:href="#SIL-Hei-Med-Jian-33" x="208.203125"/>
     <use xlink:href="#SIL-Hei-Med-Jian-30" x="262.304688"/>
     <use xlink:href="#SIL-Hei-Med-Jian-5e74" x="316.40625"/>
     <use xlink:href="#SIL-Hei-Med-Jian-4e2d" x="416.40625"/>
     <use xlink:href="#SIL-Hei-Med-Jian-56fd" x="516.40625"/>
     <use xlink:href="#SIL-Hei-Med-Jian-4e92" x="616.40625"/>
     <use xlink:href="#SIL-Hei-Med-Jian-8054" x="716.40625"/>
     <use xlink:href="#SIL-Hei-Med-Jian-7f51" x="816.40625"/>
     <use xlink:href="#SIL-Hei-Med-Jian-603b" x="916.40625"/>
     <use xlink:href="#SIL-Hei-Med-Jian-7528" x="1016.40625"/>
     <use xlink:href="#SIL-Hei-Med-Jian-6237" x="1116.40625"/>
     <use xlink:href="#SIL-Hei-Med-Jian-6570" x="1216.40625"/>
     <use xlink:href="#SIL-Hei-Med-Jian-7684" x="1316.40625"/>
     <use xlink:href="#SIL-Hei-Med-Jian-9884" x="1416.40625"/>
     <use xlink:href="#SIL-Hei-Med-Jian-6d4b" x="1516.40625"/>
    </g>
   </g>
  </g>
 </g>
 <defs>
  <clipPath id="pc6298c0628">
   <rect x="108" y="69.12" width="669.6" height="443.52"/>
  </clipPath>
 </defs>
</svg>
