<?xml version="1.0" encoding="utf-8" standalone="no"?>
<!DOCTYPE svg PUBLIC "-//W3C//DTD SVG 1.1//EN"
  "http://www.w3.org/Graphics/SVG/1.1/DTD/svg11.dtd">
<svg xmlns:xlink="http://www.w3.org/1999/xlink" width="864pt" height="576pt" viewBox="0 0 864 576" xmlns="http://www.w3.org/2000/svg" version="1.1">
 <metadata>
  <rdf:RDF xmlns:dc="http://purl.org/dc/elements/1.1/" xmlns:cc="http://creativecommons.org/ns#" xmlns:rdf="http://www.w3.org/1999/02/22-rdf-syntax-ns#">
   <cc:Work>
    <dc:type rdf:resource="http://purl.org/dc/dcmitype/StillImage"/>
    <dc:date>2024-05-20T14:19:35.752246</dc:date>
    <dc:format>image/svg+xml</dc:format>
    <dc:creator>
     <cc:Agent>
      <dc:title>Matplotlib v3.9.0, https://matplotlib.org/</dc:title>
     </cc:Agent>
    </dc:creator>
   </cc:Work>
  </rdf:RDF>
 </metadata>
 <defs>
  <style type="text/css">*{stroke-linejoin: round; stroke-linecap: butt}</style>
 </defs>
 <g id="figure_1">
  <g id="patch_1">
   <path d="M 0 576 
L 864 576 
L 864 0 
L 0 0 
z
" style="fill: #ffffff"/>
  </g>
  <g id="axes_1">
   <g id="matplotlib.axis_1"/>
   <g id="matplotlib.axis_2"/>
   <g id="patch_2">
    <path d="M 626.634693 287.030665 
C 626.634693 248.978117 614.391758 211.916778 591.724594 181.352158 
C 569.057429 150.787538 537.14692 128.311956 500.733417 117.26419 
L 449.226693 287.030665 
z
" style="fill: #172235; opacity: 0.5; stroke: #172235; stroke-linejoin: miter"/>
   </g>
   <g id="patch_3">
    <path d="M 490.758564 124.661685 
C 469.080512 118.084619 446.341975 115.72023 423.774525 117.696581 
C 401.207075 119.672931 379.225639 125.953683 359.020781 136.198657 
L 439.25184 294.42816 
z
" style="fill: #422819; opacity: 0.5; stroke: #422819; stroke-linejoin: miter"/>
   </g>
   <g id="patch_4">
    <path d="M 359.020781 136.198657 
C 342.875042 144.385434 328.077073 154.99546 315.141616 167.659667 
C 302.206159 180.323875 291.284957 194.893702 282.757901 210.862344 
L 439.25184 294.42816 
z
" style="fill: #1a321f; opacity: 0.5; stroke: #1a321f; stroke-linejoin: miter"/>
   </g>
   <g id="patch_5">
    <path d="M 282.757901 210.862344 
C 277.343152 221.002561 272.926769 231.645099 269.571077 242.639772 
C 266.215385 253.634445 263.936242 264.929291 262.765813 276.36492 
L 439.25184 294.42816 
z
" style="fill: #3b1719; opacity: 0.5; stroke: #3b1719; stroke-linejoin: miter"/>
   </g>
   <g id="patch_6">
    <path d="M 262.765813 276.36492 
C 262.101482 282.855734 261.795736 289.378258 261.849968 295.902756 
C 261.904201 302.427253 262.31833 308.943793 263.090468 315.422667 
L 439.25184 294.42816 
z
" style="fill: #272236; opacity: 0.5; stroke: #272236; stroke-linejoin: miter"/>
   </g>
   <g id="patch_7">
    <path d="M 263.090468 315.422667 
C 263.740739 320.878988 264.644162 326.302153 265.797812 331.674618 
C 266.951462 337.047083 268.354096 342.36305 270.001174 347.605323 
L 439.25184 294.42816 
z
" style="fill: #2c241d; opacity: 0.5; stroke: #2c241d; stroke-linejoin: miter"/>
   </g>
   <g id="patch_8">
    <path d="M 270.001174 347.605323 
C 271.396792 352.047253 272.966735 356.432521 274.707356 360.75094 
C 276.447976 365.069358 278.357925 369.31758 280.432767 373.485736 
L 439.25184 294.42816 
z
" style="fill: #412a3b; opacity: 0.5; stroke: #412a3b; stroke-linejoin: miter"/>
   </g>
   <g id="patch_9">
    <path d="M 280.432767 373.485736 
C 282.326987 377.291044 284.357359 381.027044 286.51995 384.686502 
C 288.682542 388.345961 290.975955 391.926514 293.395751 395.421228 
L 439.25184 294.42816 
z
" style="fill: #2a2a2a; opacity: 0.5; stroke: #2a2a2a; stroke-linejoin: miter"/>
   </g>
   <g id="patch_10">
    <path d="M 293.395751 395.421228 
C 295.337564 398.225631 297.359855 400.973448 299.460101 403.661251 
C 301.560347 406.349054 303.737674 408.975725 305.989368 411.537989 
L 439.25184 294.42816 
z
" style="fill: #3d3823; opacity: 0.5; stroke: #3d3823; stroke-linejoin: miter"/>
   </g>
   <g id="patch_11">
    <path d="M 305.989368 411.537989 
C 307.908381 413.721686 309.880779 415.857886 311.904775 417.944651 
C 313.928771 420.031416 316.003753 422.068117 318.127841 424.052908 
L 439.25184 294.42816 
z
" style="fill: #1e363e; opacity: 0.5; stroke: #1e363e; stroke-linejoin: miter"/>
   </g>
   <g id="patch_12">
    <path d="M 318.127841 424.052908 
C 343.38834 447.656832 375.006014 463.369896 409.074388 469.250698 
C 443.142763 475.1315 478.198484 470.927439 509.910294 457.15794 
C 541.622104 443.388441 568.627871 420.644954 587.590938 391.737514 
C 606.554006 362.830074 616.659843 329.000358 616.65984 294.428143 
L 439.25184 294.42816 
z
" style="fill: #172235; opacity: 0.5; stroke: #172235; stroke-linejoin: miter"/>
   </g>
   <g id="patch_13">
    <path d="M 630.182853 283.482505 
C 630.182853 245.429957 617.939918 208.368618 595.272754 177.803998 
C 572.605589 147.239378 540.69508 124.763796 504.281577 113.71603 
L 452.774853 283.482505 
z
" style="fill: #4c72b0; stroke: #ffffff; stroke-linejoin: miter"/>
   </g>
   <g id="patch_14">
    <path d="M 494.306724 121.113525 
C 472.628672 114.536459 449.890135 112.17207 427.322685 114.148421 
C 404.755235 116.124771 382.773799 122.405523 362.568941 132.650497 
L 442.8 290.88 
z
" style="fill: #dd8452; stroke: #ffffff; stroke-linejoin: miter"/>
   </g>
   <g id="patch_15">
    <path d="M 362.568941 132.650497 
C 346.423202 140.837274 331.625233 151.4473 318.689776 164.111507 
C 305.754319 176.775715 294.833117 191.345542 286.306061 207.314184 
L 442.8 290.88 
z
" style="fill: #55a868; stroke: #ffffff; stroke-linejoin: miter"/>
   </g>
   <g id="patch_16">
    <path d="M 286.306061 207.314184 
C 280.891312 217.454401 276.474929 228.096939 273.119237 239.091612 
C 269.763545 250.086285 267.484402 261.381131 266.313973 272.81676 
L 442.8 290.88 
z
" style="fill: #c44e52; stroke: #ffffff; stroke-linejoin: miter"/>
   </g>
   <g id="patch_17">
    <path d="M 266.313973 272.81676 
C 265.649642 279.307574 265.343896 285.830098 265.398128 292.354596 
C 265.452361 298.879093 265.86649 305.395633 266.638628 311.874507 
L 442.8 290.88 
z
" style="fill: #8172b3; stroke: #ffffff; stroke-linejoin: miter"/>
   </g>
   <g id="patch_18">
    <path d="M 266.638628 311.874507 
C 267.288899 317.330828 268.192322 322.753993 269.345972 328.126458 
C 270.499622 333.498923 271.902256 338.81489 273.549334 344.057163 
L 442.8 290.88 
z
" style="fill: #937860; stroke: #ffffff; stroke-linejoin: miter"/>
   </g>
   <g id="patch_19">
    <path d="M 273.549334 344.057163 
C 274.944952 348.499093 276.514895 352.884361 278.255516 357.20278 
C 279.996136 361.521198 281.906085 365.76942 283.980927 369.937576 
L 442.8 290.88 
z
" style="fill: #da8bc3; stroke: #ffffff; stroke-linejoin: miter"/>
   </g>
   <g id="patch_20">
    <path d="M 283.980927 369.937576 
C 285.875147 373.742884 287.905519 377.478884 290.06811 381.138342 
C 292.230702 384.797801 294.524115 388.378354 296.943911 391.873068 
L 442.8 290.88 
z
" style="fill: #8c8c8c; stroke: #ffffff; stroke-linejoin: miter"/>
   </g>
   <g id="patch_21">
    <path d="M 296.943911 391.873068 
C 298.885724 394.677471 300.908015 397.425288 303.008261 400.113091 
C 305.108507 402.800894 307.285834 405.427565 309.537528 407.989829 
L 442.8 290.88 
z
" style="fill: #ccb974; stroke: #ffffff; stroke-linejoin: miter"/>
   </g>
   <g id="patch_22">
    <path d="M 309.537528 407.989829 
C 311.456541 410.173526 313.428939 412.309726 315.452935 414.396491 
C 317.476931 416.483256 319.551913 418.519957 321.676001 420.504748 
L 442.8 290.88 
z
" style="fill: #64b5cd; stroke: #ffffff; stroke-linejoin: miter"/>
   </g>
   <g id="patch_23">
    <path d="M 321.676001 420.504748 
C 346.9365 444.108672 378.554174 459.821736 412.622548 465.702538 
C 446.690923 471.58334 481.746644 467.379279 513.458454 453.60978 
C 545.170264 439.840281 572.176031 417.096794 591.139098 388.189354 
C 610.102166 359.281914 620.208003 325.452198 620.208 290.879983 
L 442.8 290.88 
z
" style="fill: #4c72b0; stroke: #ffffff; stroke-linejoin: miter"/>
   </g>
   <g id="text_1">
    <!-- China -->
    <g style="fill: #262626" transform="translate(609.522544 169.659584) scale(0.088 -0.088)">
     <defs>
      <path id="MicrosoftYaHei-43" d="M 3938 200 
Q 3403 -81 2597 -81 
Q 1556 -81 934 580 
Q 313 1241 313 2328 
Q 313 3497 1013 4209 
Q 1713 4922 2791 4922 
Q 3484 4922 3938 4725 
L 3938 4072 
Q 3419 4359 2797 4359 
Q 1988 4359 1478 3820 
Q 969 3281 969 2366 
Q 969 1497 1444 986 
Q 1919 475 2688 475 
Q 3406 475 3938 800 
L 3938 200 
z
" transform="scale(0.015625)"/>
      <path id="MicrosoftYaHei-68" d="M 3466 0 
L 2856 0 
L 2856 1988 
Q 2856 3031 2081 3031 
Q 1684 3031 1421 2726 
Q 1159 2422 1159 1959 
L 1159 0 
L 547 0 
L 547 5116 
L 1159 5116 
L 1159 2888 
L 1172 2888 
Q 1569 3538 2300 3538 
Q 3466 3538 3466 2128 
L 3466 0 
z
" transform="scale(0.015625)"/>
      <path id="MicrosoftYaHei-69" d="M 472 4675 
Q 472 4838 583 4948 
Q 694 5059 856 5059 
Q 1022 5059 1136 4950 
Q 1250 4841 1250 4675 
Q 1250 4513 1136 4405 
Q 1022 4297 856 4297 
Q 691 4297 581 4405 
Q 472 4513 472 4675 
z
M 544 0 
L 544 3456 
L 1156 3456 
L 1156 0 
L 544 0 
z
" transform="scale(0.015625)"/>
      <path id="MicrosoftYaHei-6e" d="M 3469 0 
L 2859 0 
L 2859 1966 
Q 2859 3031 2081 3031 
Q 1678 3031 1418 2731 
Q 1159 2431 1159 1972 
L 1159 0 
L 547 0 
L 547 3456 
L 1159 3456 
L 1159 2884 
L 1172 2884 
Q 1563 3538 2306 3538 
Q 2875 3538 3172 3173 
Q 3469 2809 3469 2113 
L 3469 0 
z
" transform="scale(0.015625)"/>
      <path id="MicrosoftYaHei-61" d="M 628 3216 
Q 1144 3538 1819 3538 
Q 3069 3538 3069 2225 
L 3069 0 
L 2463 0 
L 2463 534 
L 2447 534 
Q 2088 -81 1388 -81 
Q 884 -81 587 191 
Q 291 463 291 925 
Q 291 1894 1438 2053 
L 2463 2197 
Q 2463 3044 1763 3044 
Q 1141 3044 628 2625 
L 628 3216 
z
M 1653 1625 
Q 1228 1569 1067 1412 
Q 906 1256 906 975 
Q 906 728 1081 572 
Q 1256 416 1544 416 
Q 1944 416 2203 697 
Q 2463 978 2463 1403 
L 2463 1734 
L 1653 1625 
z
" transform="scale(0.015625)"/>
     </defs>
     <use xlink:href="#MicrosoftYaHei-43"/>
     <use xlink:href="#MicrosoftYaHei-68" x="66.894531"/>
     <use xlink:href="#MicrosoftYaHei-69" x="128.466797"/>
     <use xlink:href="#MicrosoftYaHei-6e" x="155.078125"/>
     <use xlink:href="#MicrosoftYaHei-61" x="216.699219"/>
    </g>
   </g>
   <g id="text_2">
    <!-- 20.3% -->
    <g style="fill: #262626" transform="translate(567.152464 191.015598) scale(0.096 -0.096)">
     <defs>
      <path id="MicrosoftYaHei-32" d="M 2666 3572 
Q 2666 3963 2419 4186 
Q 2172 4409 1747 4409 
Q 1447 4409 1140 4256 
Q 834 4103 569 3819 
L 569 4413 
Q 806 4659 1107 4790 
Q 1409 4922 1816 4922 
Q 2472 4922 2872 4570 
Q 3272 4219 3272 3619 
Q 3272 3084 3026 2693 
Q 2781 2303 2188 1894 
Q 1581 1475 1376 1294 
Q 1172 1113 1090 947 
Q 1009 781 1009 544 
L 3416 544 
L 3416 0 
L 372 0 
L 372 241 
Q 372 659 486 951 
Q 600 1244 862 1520 
Q 1125 1797 1681 2184 
Q 2250 2584 2458 2886 
Q 2666 3188 2666 3572 
z
" transform="scale(0.015625)"/>
      <path id="MicrosoftYaHei-30" d="M 284 2325 
Q 284 3606 709 4264 
Q 1134 4922 1941 4922 
Q 3478 4922 3478 2441 
Q 3478 1216 3045 567 
Q 2613 -81 1831 -81 
Q 1094 -81 689 534 
Q 284 1150 284 2325 
z
M 909 2353 
Q 909 425 1888 425 
Q 2850 425 2850 2384 
Q 2850 4413 1906 4413 
Q 909 4413 909 2353 
z
" transform="scale(0.015625)"/>
      <path id="MicrosoftYaHei-2e" d="M 372 322 
Q 372 491 487 606 
Q 603 722 775 722 
Q 950 722 1065 605 
Q 1181 488 1181 322 
Q 1181 159 1065 42 
Q 950 -75 772 -75 
Q 600 -75 486 42 
Q 372 159 372 322 
z
" transform="scale(0.015625)"/>
      <path id="MicrosoftYaHei-33" d="M 447 809 
Q 944 425 1569 425 
Q 2069 425 2361 670 
Q 2653 916 2653 1328 
Q 2653 2247 1338 2247 
L 934 2247 
L 934 2753 
L 1319 2753 
Q 2484 2753 2484 3616 
Q 2484 4413 1594 4413 
Q 1084 4413 634 4069 
L 634 4647 
Q 1109 4922 1744 4922 
Q 2363 4922 2738 4598 
Q 3113 4275 3113 3759 
Q 3113 2809 2144 2538 
L 2144 2525 
Q 2669 2469 2973 2155 
Q 3278 1841 3278 1372 
Q 3278 719 2808 319 
Q 2338 -81 1556 -81 
Q 869 -81 447 175 
L 447 809 
z
" transform="scale(0.015625)"/>
      <path id="MicrosoftYaHei-25" d="M 272 3619 
Q 272 4213 589 4563 
Q 906 4913 1444 4913 
Q 1959 4913 2248 4591 
Q 2538 4269 2538 3694 
Q 2538 3122 2219 2765 
Q 1900 2409 1372 2409 
Q 872 2409 572 2740 
Q 272 3072 272 3619 
z
M 753 3650 
Q 753 3247 928 3028 
Q 1103 2809 1406 2809 
Q 1719 2809 1889 3036 
Q 2059 3263 2059 3675 
Q 2059 4078 1892 4298 
Q 1725 4519 1422 4519 
Q 1113 4519 933 4289 
Q 753 4059 753 3650 
z
M 4647 4841 
L 1538 -31 
L 1016 -31 
L 4125 4841 
L 4647 4841 
z
M 3172 1134 
Q 3172 1728 3489 2083 
Q 3806 2438 4341 2438 
Q 4853 2438 5143 2114 
Q 5434 1791 5434 1203 
Q 5434 634 5112 279 
Q 4791 -75 4272 -75 
Q 3769 -75 3470 261 
Q 3172 597 3172 1134 
z
M 3650 1163 
Q 3650 769 3825 548 
Q 4000 328 4303 328 
Q 4616 328 4786 556 
Q 4956 784 4956 1194 
Q 4956 1600 4786 1815 
Q 4616 2031 4319 2031 
Q 4000 2031 3825 1801 
Q 3650 1572 3650 1163 
z
" transform="scale(0.015625)"/>
     </defs>
     <use xlink:href="#MicrosoftYaHei-32"/>
     <use xlink:href="#MicrosoftYaHei-30" x="58.642578"/>
     <use xlink:href="#MicrosoftYaHei-2e" x="117.285156"/>
     <use xlink:href="#MicrosoftYaHei-33" x="141.357422"/>
     <use xlink:href="#MicrosoftYaHei-25" x="200"/>
    </g>
   </g>
   <g id="text_3">
    <!-- India -->
    <g style="fill: #262626" transform="translate(404.929953 98.8987) scale(0.088 -0.088)">
     <defs>
      <path id="MicrosoftYaHei-49" d="M 1250 4841 
L 1250 0 
L 625 0 
L 625 4841 
L 1250 4841 
z
" transform="scale(0.015625)"/>
      <path id="MicrosoftYaHei-64" d="M 3547 0 
L 2934 0 
L 2934 575 
L 2922 575 
Q 2544 -81 1747 -81 
Q 1091 -81 703 386 
Q 316 853 316 1647 
Q 316 2503 753 3020 
Q 1191 3538 1897 3538 
Q 2603 3538 2922 2988 
L 2934 2988 
L 2934 5116 
L 3547 5116 
L 3547 0 
z
M 2938 2056 
Q 2938 2472 2664 2751 
Q 2391 3031 1991 3031 
Q 1503 3031 1222 2667 
Q 941 2303 941 1675 
Q 941 1097 1211 761 
Q 1481 425 1931 425 
Q 2375 425 2656 754 
Q 2938 1084 2938 1575 
L 2938 2056 
z
" transform="scale(0.015625)"/>
     </defs>
     <use xlink:href="#MicrosoftYaHei-49"/>
     <use xlink:href="#MicrosoftYaHei-6e" x="29.394531"/>
     <use xlink:href="#MicrosoftYaHei-64" x="91.015625"/>
     <use xlink:href="#MicrosoftYaHei-69" x="154.980469"/>
     <use xlink:href="#MicrosoftYaHei-61" x="181.591797"/>
    </g>
   </g>
   <g id="text_4">
    <!-- 12.2% -->
    <g style="fill: #262626" transform="translate(414.999916 134.465328) scale(0.096 -0.096)">
     <defs>
      <path id="MicrosoftYaHei-31" d="M 1781 0 
L 1781 4141 
Q 1638 3997 1295 3819 
Q 953 3641 663 3569 
L 663 4169 
Q 1047 4275 1484 4508 
Q 1922 4741 2156 4947 
L 2388 4947 
L 2388 0 
L 1781 0 
z
" transform="scale(0.015625)"/>
     </defs>
     <use xlink:href="#MicrosoftYaHei-31"/>
     <use xlink:href="#MicrosoftYaHei-32" x="58.642578"/>
     <use xlink:href="#MicrosoftYaHei-2e" x="117.285156"/>
     <use xlink:href="#MicrosoftYaHei-32" x="141.357422"/>
     <use xlink:href="#MicrosoftYaHei-25" x="200"/>
    </g>
   </g>
   <g id="text_5">
    <!-- North America -->
    <g style="fill: #262626" transform="translate(244.183754 153.858095) scale(0.088 -0.088)">
     <defs>
      <path id="MicrosoftYaHei-4e" d="M 4578 0 
L 3838 0 
L 1403 3766 
Q 1300 3925 1238 4081 
L 1219 4081 
Q 1244 3919 1244 3403 
L 1244 0 
L 625 0 
L 625 4841 
L 1409 4841 
L 3778 1141 
Q 3947 878 3978 806 
L 3991 806 
Q 3959 1013 3959 1513 
L 3959 4841 
L 4578 4841 
L 4578 0 
z
" transform="scale(0.015625)"/>
      <path id="MicrosoftYaHei-6f" d="M 316 1691 
Q 316 2547 794 3042 
Q 1272 3538 2091 3538 
Q 2869 3538 3311 3061 
Q 3753 2584 3753 1744 
Q 3753 925 3281 422 
Q 2809 -81 2016 -81 
Q 1241 -81 778 406 
Q 316 894 316 1691 
z
M 941 1709 
Q 941 1113 1242 769 
Q 1544 425 2053 425 
Q 2578 425 2853 761 
Q 3128 1097 3128 1725 
Q 3128 2356 2853 2693 
Q 2578 3031 2053 3031 
Q 1538 3031 1239 2678 
Q 941 2325 941 1709 
z
" transform="scale(0.015625)"/>
      <path id="MicrosoftYaHei-72" d="M 2400 2850 
Q 2247 2959 1978 2959 
Q 1622 2959 1390 2626 
Q 1159 2294 1159 1750 
L 1159 0 
L 547 0 
L 547 3456 
L 1159 3456 
L 1159 2753 
L 1172 2753 
Q 1434 3516 2078 3516 
Q 2288 3516 2400 3469 
L 2400 2850 
z
" transform="scale(0.015625)"/>
      <path id="MicrosoftYaHei-74" d="M 2206 34 
Q 2006 -75 1666 -75 
Q 738 -75 738 953 
L 738 2950 
L 144 2950 
L 144 3456 
L 738 3456 
L 738 4288 
L 1347 4481 
L 1347 3456 
L 2206 3456 
L 2206 2950 
L 1347 2950 
L 1347 1063 
Q 1347 722 1462 575 
Q 1578 428 1847 428 
Q 2053 428 2206 544 
L 2206 34 
z
" transform="scale(0.015625)"/>
      <path id="MicrosoftYaHei-20" transform="scale(0.015625)"/>
      <path id="MicrosoftYaHei-41" d="M 4428 0 
L 3738 0 
L 3244 1325 
L 1228 1325 
L 763 0 
L 72 0 
L 1916 4841 
L 2584 4841 
L 4428 0 
z
M 3050 1872 
L 2319 3884 
Q 2284 3981 2244 4222 
L 2228 4222 
Q 2194 4003 2150 3884 
L 1425 1872 
L 3050 1872 
z
" transform="scale(0.015625)"/>
      <path id="MicrosoftYaHei-6d" d="M 5522 0 
L 4909 0 
L 4909 1984 
Q 4909 2547 4734 2789 
Q 4559 3031 4159 3031 
Q 3822 3031 3581 2715 
Q 3341 2400 3341 1969 
L 3341 0 
L 2728 0 
L 2728 2047 
Q 2728 3031 1969 3031 
Q 1619 3031 1389 2731 
Q 1159 2431 1159 1966 
L 1159 0 
L 547 0 
L 547 3456 
L 1159 3456 
L 1159 2909 
L 1172 2909 
Q 1541 3538 2250 3538 
Q 2597 3538 2862 3347 
Q 3128 3156 3231 2831 
Q 3616 3538 4381 3538 
Q 5522 3538 5522 2131 
L 5522 0 
z
" transform="scale(0.015625)"/>
      <path id="MicrosoftYaHei-65" d="M 3363 1572 
L 944 1572 
Q 959 1019 1246 717 
Q 1534 416 2050 416 
Q 2631 416 3116 788 
L 3116 241 
Q 2659 -81 1906 -81 
Q 1156 -81 736 394 
Q 316 869 316 1713 
Q 316 2506 777 3022 
Q 1238 3538 1922 3538 
Q 2600 3538 2981 3102 
Q 3363 2666 3363 1881 
L 3363 1572 
z
M 2750 2063 
Q 2747 2531 2528 2787 
Q 2309 3044 1913 3044 
Q 1547 3044 1280 2772 
Q 1013 2500 944 2063 
L 2750 2063 
z
" transform="scale(0.015625)"/>
      <path id="MicrosoftYaHei-63" d="M 2934 156 
Q 2538 -81 1978 -81 
Q 1228 -81 772 400 
Q 316 881 316 1647 
Q 316 2497 808 3017 
Q 1300 3538 2125 3538 
Q 2600 3538 2938 3369 
L 2938 2763 
Q 2572 3031 2125 3031 
Q 1600 3031 1270 2667 
Q 941 2303 941 1697 
Q 941 1100 1252 762 
Q 1563 425 2091 425 
Q 2538 425 2934 719 
L 2934 156 
z
" transform="scale(0.015625)"/>
     </defs>
     <use xlink:href="#MicrosoftYaHei-4e"/>
     <use xlink:href="#MicrosoftYaHei-6f" x="81.298828"/>
     <use xlink:href="#MicrosoftYaHei-72" x="144.873047"/>
     <use xlink:href="#MicrosoftYaHei-74" x="186.181641"/>
     <use xlink:href="#MicrosoftYaHei-68" x="223.4375"/>
     <use xlink:href="#MicrosoftYaHei-20" x="285.009766"/>
     <use xlink:href="#MicrosoftYaHei-41" x="314.599609"/>
     <use xlink:href="#MicrosoftYaHei-6d" x="384.960938"/>
     <use xlink:href="#MicrosoftYaHei-65" x="478.662109"/>
     <use xlink:href="#MicrosoftYaHei-72" x="535.400391"/>
     <use xlink:href="#MicrosoftYaHei-69" x="573.583984"/>
     <use xlink:href="#MicrosoftYaHei-63" x="600.195312"/>
     <use xlink:href="#MicrosoftYaHei-61" x="650.341797"/>
    </g>
   </g>
   <g id="text_6">
    <!-- 9.7% -->
    <g style="fill: #262626" transform="translate(320.045048 179.432106) scale(0.096 -0.096)">
     <defs>
      <path id="MicrosoftYaHei-39" d="M 578 656 
Q 978 425 1441 425 
Q 2091 425 2448 937 
Q 2806 1450 2806 2394 
Q 2800 2388 2794 2394 
Q 2475 1788 1722 1788 
Q 1113 1788 713 2206 
Q 313 2625 313 3294 
Q 313 4006 750 4464 
Q 1188 4922 1884 4922 
Q 2606 4922 3012 4355 
Q 3419 3788 3419 2703 
Q 3419 1363 2894 641 
Q 2369 -81 1441 -81 
Q 931 -81 578 84 
L 578 656 
z
M 931 3372 
Q 931 2884 1181 2598 
Q 1431 2313 1872 2313 
Q 2253 2313 2512 2573 
Q 2772 2834 2772 3206 
Q 2772 3728 2514 4070 
Q 2256 4413 1834 4413 
Q 1444 4413 1187 4116 
Q 931 3819 931 3372 
z
" transform="scale(0.015625)"/>
      <path id="MicrosoftYaHei-37" d="M 3422 4463 
Q 2659 3131 2223 1998 
Q 1788 866 1684 0 
L 1047 0 
Q 1163 853 1594 1947 
Q 2025 3041 2747 4300 
L 347 4300 
L 347 4841 
L 3422 4841 
L 3422 4463 
z
" transform="scale(0.015625)"/>
     </defs>
     <use xlink:href="#MicrosoftYaHei-39"/>
     <use xlink:href="#MicrosoftYaHei-2e" x="58.642578"/>
     <use xlink:href="#MicrosoftYaHei-37" x="82.714844"/>
     <use xlink:href="#MicrosoftYaHei-25" x="141.357422"/>
    </g>
   </g>
   <g id="text_7">
    <!-- United States -->
    <g style="fill: #262626" transform="translate(200.207911 236.336211) scale(0.088 -0.088)">
     <defs>
      <path id="MicrosoftYaHei-55" d="M 4213 1972 
Q 4213 -81 2350 -81 
Q 566 -81 566 1900 
L 566 4841 
L 1191 4841 
L 1191 1928 
Q 1191 475 2409 475 
Q 3588 475 3588 1881 
L 3588 4841 
L 4213 4841 
L 4213 1972 
z
" transform="scale(0.015625)"/>
      <path id="MicrosoftYaHei-53" d="M 400 909 
Q 622 716 994 591 
Q 1366 466 1700 466 
Q 2719 466 2719 1191 
Q 2719 1394 2609 1556 
Q 2500 1719 2309 1844 
Q 2119 1969 1594 2228 
Q 866 2591 634 2902 
Q 403 3213 403 3613 
Q 403 4216 887 4569 
Q 1372 4922 2109 4922 
Q 2831 4922 3169 4747 
L 3169 4066 
Q 2731 4369 2063 4369 
Q 1619 4369 1339 4183 
Q 1059 3997 1059 3666 
Q 1059 3372 1253 3187 
Q 1447 3003 2094 2684 
Q 2806 2344 3090 2003 
Q 3375 1663 3375 1238 
Q 3375 600 2912 259 
Q 2450 -81 1628 -81 
Q 1341 -81 958 -1 
Q 575 78 400 197 
L 400 909 
z
" transform="scale(0.015625)"/>
      <path id="MicrosoftYaHei-73" d="M 353 747 
Q 816 413 1350 413 
Q 2066 413 2066 881 
Q 2066 1081 1909 1211 
Q 1753 1341 1275 1519 
Q 700 1750 528 1976 
Q 356 2203 356 2525 
Q 356 2984 745 3261 
Q 1134 3538 1703 3538 
Q 2144 3538 2522 3384 
L 2522 2794 
Q 2134 3044 1644 3044 
Q 1350 3044 1165 2916 
Q 981 2788 981 2578 
Q 981 2372 1114 2256 
Q 1247 2141 1703 1959 
Q 2281 1744 2484 1512 
Q 2688 1281 2688 941 
Q 2688 466 2298 192 
Q 1909 -81 1291 -81 
Q 753 -81 353 122 
L 353 747 
z
" transform="scale(0.015625)"/>
     </defs>
     <use xlink:href="#MicrosoftYaHei-55"/>
     <use xlink:href="#MicrosoftYaHei-6e" x="74.658203"/>
     <use xlink:href="#MicrosoftYaHei-69" x="136.279297"/>
     <use xlink:href="#MicrosoftYaHei-74" x="162.890625"/>
     <use xlink:href="#MicrosoftYaHei-65" x="199.271484"/>
     <use xlink:href="#MicrosoftYaHei-64" x="256.009766"/>
     <use xlink:href="#MicrosoftYaHei-20" x="319.974609"/>
     <use xlink:href="#MicrosoftYaHei-53" x="349.564453"/>
     <use xlink:href="#MicrosoftYaHei-74" x="403.779297"/>
     <use xlink:href="#MicrosoftYaHei-61" x="441.035156"/>
     <use xlink:href="#MicrosoftYaHei-74" x="496.308594"/>
     <use xlink:href="#MicrosoftYaHei-65" x="532.689453"/>
     <use xlink:href="#MicrosoftYaHei-73" x="589.427734"/>
    </g>
   </g>
   <g id="text_8">
    <!-- 6.2% -->
    <g style="fill: #262626" transform="translate(279.031563 246.914201) scale(0.096 -0.096)">
     <defs>
      <path id="MicrosoftYaHei-36" d="M 3181 4219 
Q 2803 4413 2391 4413 
Q 1763 4413 1381 3866 
Q 1000 3319 994 2372 
L 1009 2372 
Q 1353 3038 2106 3038 
Q 2734 3038 3109 2628 
Q 3484 2219 3484 1541 
Q 3484 831 3051 375 
Q 2619 -81 1947 -81 
Q 1209 -81 789 495 
Q 369 1072 369 2131 
Q 369 3413 920 4167 
Q 1472 4922 2372 4922 
Q 2888 4922 3181 4781 
L 3181 4219 
z
M 1031 1584 
Q 1031 1106 1286 765 
Q 1541 425 1963 425 
Q 2363 425 2613 719 
Q 2863 1013 2863 1475 
Q 2863 1975 2627 2253 
Q 2391 2531 1956 2531 
Q 1544 2531 1287 2250 
Q 1031 1969 1031 1584 
z
" transform="scale(0.015625)"/>
     </defs>
     <use xlink:href="#MicrosoftYaHei-36"/>
     <use xlink:href="#MicrosoftYaHei-2e" x="58.642578"/>
     <use xlink:href="#MicrosoftYaHei-32" x="82.714844"/>
     <use xlink:href="#MicrosoftYaHei-25" x="141.357422"/>
    </g>
   </g>
   <g id="text_9">
    <!-- Brazil -->
    <g style="fill: #262626" transform="translate(224.900316 294.925493) scale(0.088 -0.088)">
     <defs>
      <path id="MicrosoftYaHei-42" d="M 625 0 
L 625 4841 
L 2047 4841 
Q 2684 4841 3065 4536 
Q 3447 4231 3447 3728 
Q 3447 3328 3220 3022 
Q 2994 2716 2597 2588 
L 2597 2575 
Q 3091 2519 3386 2201 
Q 3681 1884 3681 1397 
Q 3681 772 3232 386 
Q 2784 0 2084 0 
L 625 0 
z
M 1250 4294 
L 1250 2778 
L 1819 2778 
Q 2272 2778 2530 2998 
Q 2788 3219 2788 3609 
Q 2788 4294 1875 4294 
L 1250 4294 
z
M 1250 2234 
L 1250 547 
L 2000 547 
Q 2491 547 2758 773 
Q 3025 1000 3025 1403 
Q 3025 2234 1897 2234 
L 1250 2234 
z
" transform="scale(0.015625)"/>
      <path id="MicrosoftYaHei-7a" d="M 2978 0 
L 109 0 
L 109 203 
L 2119 2950 
L 297 2950 
L 297 3456 
L 2991 3456 
L 2991 3256 
L 994 506 
L 2978 506 
L 2978 0 
z
" transform="scale(0.015625)"/>
      <path id="MicrosoftYaHei-6c" d="M 544 0 
L 544 5116 
L 1156 5116 
L 1156 0 
L 544 0 
z
" transform="scale(0.015625)"/>
     </defs>
     <use xlink:href="#MicrosoftYaHei-42"/>
     <use xlink:href="#MicrosoftYaHei-72" x="62.744141"/>
     <use xlink:href="#MicrosoftYaHei-61" x="100.927734"/>
     <use xlink:href="#MicrosoftYaHei-7a" x="156.201172"/>
     <use xlink:href="#MicrosoftYaHei-69" x="205.371094"/>
     <use xlink:href="#MicrosoftYaHei-6c" x="231.982422"/>
    </g>
   </g>
   <g id="text_10">
    <!-- 3.5% -->
    <g style="fill: #262626" transform="translate(272.082566 294.850886) scale(0.096 -0.096)">
     <defs>
      <path id="MicrosoftYaHei-35" d="M 3294 1494 
Q 3294 784 2823 350 
Q 2353 -84 1559 -84 
Q 878 -84 544 119 
L 544 744 
Q 1034 425 1544 425 
Q 2050 425 2361 704 
Q 2672 984 2672 1447 
Q 2672 1909 2348 2167 
Q 2025 2425 1434 2425 
Q 978 2425 613 2384 
L 791 4841 
L 3053 4841 
L 3053 4303 
L 1306 4303 
L 1206 2931 
L 1647 2950 
Q 2416 2950 2855 2567 
Q 3294 2184 3294 1494 
z
" transform="scale(0.015625)"/>
     </defs>
     <use xlink:href="#MicrosoftYaHei-33"/>
     <use xlink:href="#MicrosoftYaHei-2e" x="58.642578"/>
     <use xlink:href="#MicrosoftYaHei-35" x="82.714844"/>
     <use xlink:href="#MicrosoftYaHei-25" x="141.357422"/>
    </g>
   </g>
   <g id="text_11">
    <!-- Indonesia -->
    <g style="fill: #262626" transform="translate(211.070944 334.274541) scale(0.088 -0.088)">
     <use xlink:href="#MicrosoftYaHei-49"/>
     <use xlink:href="#MicrosoftYaHei-6e" x="29.394531"/>
     <use xlink:href="#MicrosoftYaHei-64" x="91.015625"/>
     <use xlink:href="#MicrosoftYaHei-6f" x="154.980469"/>
     <use xlink:href="#MicrosoftYaHei-6e" x="218.554688"/>
     <use xlink:href="#MicrosoftYaHei-65" x="280.175781"/>
     <use xlink:href="#MicrosoftYaHei-73" x="336.914062"/>
     <use xlink:href="#MicrosoftYaHei-69" x="383.203125"/>
     <use xlink:href="#MicrosoftYaHei-61" x="409.814453"/>
    </g>
   </g>
   <g id="text_12">
    <!-- 3.0% -->
    <g style="fill: #262626" transform="translate(275.635625 327.045562) scale(0.096 -0.096)">
     <use xlink:href="#MicrosoftYaHei-33"/>
     <use xlink:href="#MicrosoftYaHei-2e" x="58.642578"/>
     <use xlink:href="#MicrosoftYaHei-30" x="82.714844"/>
     <use xlink:href="#MicrosoftYaHei-25" x="141.357422"/>
    </g>
   </g>
   <g id="text_13">
    <!-- Russia -->
    <g style="fill: #262626" transform="translate(235.278692 366.258495) scale(0.088 -0.088)">
     <defs>
      <path id="MicrosoftYaHei-52" d="M 4159 0 
L 3422 0 
L 2619 1344 
Q 2378 1747 2178 1892 
Q 1978 2038 1700 2038 
L 1250 2038 
L 1250 0 
L 625 0 
L 625 4841 
L 2100 4841 
Q 2806 4841 3206 4500 
Q 3606 4159 3606 3547 
Q 3606 2541 2531 2241 
L 2531 2225 
Q 2731 2141 2876 1984 
Q 3022 1828 3253 1450 
L 4159 0 
z
M 1250 4294 
L 1250 2584 
L 1988 2584 
Q 2416 2584 2683 2834 
Q 2950 3084 2950 3491 
Q 2950 3869 2706 4081 
Q 2463 4294 1997 4294 
L 1250 4294 
z
" transform="scale(0.015625)"/>
      <path id="MicrosoftYaHei-75" d="M 3400 0 
L 2784 0 
L 2784 544 
L 2772 544 
Q 2425 -81 1706 -81 
Q 478 -81 478 1388 
L 478 3456 
L 1084 3456 
L 1084 1478 
Q 1084 425 1891 425 
Q 2291 425 2537 720 
Q 2784 1016 2784 1466 
L 2784 3456 
L 3400 3456 
L 3400 0 
z
" transform="scale(0.015625)"/>
     </defs>
     <use xlink:href="#MicrosoftYaHei-52"/>
     <use xlink:href="#MicrosoftYaHei-75" x="65.283203"/>
     <use xlink:href="#MicrosoftYaHei-73" x="126.904297"/>
     <use xlink:href="#MicrosoftYaHei-73" x="173.193359"/>
     <use xlink:href="#MicrosoftYaHei-69" x="219.482422"/>
     <use xlink:href="#MicrosoftYaHei-61" x="246.09375"/>
    </g>
   </g>
   <g id="text_14">
    <!-- 2.5% -->
    <g style="fill: #262626" transform="translate(283.654214 353.214252) scale(0.096 -0.096)">
     <use xlink:href="#MicrosoftYaHei-32"/>
     <use xlink:href="#MicrosoftYaHei-2e" x="58.642578"/>
     <use xlink:href="#MicrosoftYaHei-35" x="82.714844"/>
     <use xlink:href="#MicrosoftYaHei-25" x="141.357422"/>
    </g>
   </g>
   <g id="text_15">
    <!-- Japan -->
    <g style="fill: #262626" transform="translate(250.779171 392.587614) scale(0.088 -0.088)">
     <defs>
      <path id="MicrosoftYaHei-4a" d="M 1950 1756 
Q 1950 878 1578 398 
Q 1206 -81 566 -81 
Q 269 -81 75 6 
L 75 616 
Q 269 475 563 475 
Q 1325 475 1325 1756 
L 1325 4841 
L 1950 4841 
L 1950 1756 
z
" transform="scale(0.015625)"/>
      <path id="MicrosoftYaHei-70" d="M 1159 488 
L 1159 -1591 
L 547 -1591 
L 547 3456 
L 1159 3456 
L 1159 2859 
L 1172 2859 
Q 1578 3538 2359 3538 
Q 3022 3538 3398 3073 
Q 3775 2609 3775 1828 
Q 3775 966 3348 442 
Q 2922 -81 2200 -81 
Q 1534 -81 1172 488 
L 1159 488 
z
M 1156 1425 
Q 1156 1003 1428 714 
Q 1700 425 2109 425 
Q 2597 425 2872 800 
Q 3147 1175 3147 1838 
Q 3147 2397 2890 2714 
Q 2634 3031 2191 3031 
Q 1738 3031 1447 2709 
Q 1156 2388 1156 1884 
L 1156 1425 
z
" transform="scale(0.015625)"/>
     </defs>
     <use xlink:href="#MicrosoftYaHei-4a"/>
     <use xlink:href="#MicrosoftYaHei-61" x="38.224609"/>
     <use xlink:href="#MicrosoftYaHei-70" x="93.498047"/>
     <use xlink:href="#MicrosoftYaHei-61" x="155.990234"/>
     <use xlink:href="#MicrosoftYaHei-6e" x="211.263672"/>
    </g>
   </g>
   <g id="text_16">
    <!-- 2.3% -->
    <g style="fill: #262626" transform="translate(294.285549 374.756258) scale(0.096 -0.096)">
     <use xlink:href="#MicrosoftYaHei-32"/>
     <use xlink:href="#MicrosoftYaHei-2e" x="58.642578"/>
     <use xlink:href="#MicrosoftYaHei-33" x="82.714844"/>
     <use xlink:href="#MicrosoftYaHei-25" x="141.357422"/>
    </g>
   </g>
   <g id="text_17">
    <!-- Mexico -->
    <g style="fill: #262626" transform="translate(258.629212 413.459838) scale(0.088 -0.088)">
     <defs>
      <path id="MicrosoftYaHei-4d" d="M 5003 0 
L 5003 3206 
Q 5003 3603 5050 4159 
L 5034 4159 
Q 4953 3809 4891 3672 
L 3294 0 
L 2947 0 
L 1353 3644 
Q 1297 3769 1209 4159 
L 1191 4159 
Q 1222 3822 1222 3178 
L 1222 0 
L 625 0 
L 625 4841 
L 1472 4841 
L 2900 1522 
Q 3063 1141 3116 928 
L 3138 928 
Q 3300 1375 3366 1534 
L 4819 4841 
L 5625 4841 
L 5625 0 
L 5003 0 
z
" transform="scale(0.015625)"/>
      <path id="MicrosoftYaHei-78" d="M 3163 3456 
L 2006 1716 
L 3147 0 
L 2434 0 
L 1775 1100 
Q 1722 1188 1625 1369 
L 1613 1369 
Q 1609 1350 1456 1100 
L 784 0 
L 81 0 
L 1256 1697 
L 134 3456 
L 847 3456 
L 1494 2300 
Q 1553 2194 1638 2025 
L 1650 2025 
L 2491 3456 
L 3163 3456 
z
" transform="scale(0.015625)"/>
     </defs>
     <use xlink:href="#MicrosoftYaHei-4d"/>
     <use xlink:href="#MicrosoftYaHei-65" x="97.705078"/>
     <use xlink:href="#MicrosoftYaHei-78" x="154.443359"/>
     <use xlink:href="#MicrosoftYaHei-69" x="205.126953"/>
     <use xlink:href="#MicrosoftYaHei-63" x="231.738281"/>
     <use xlink:href="#MicrosoftYaHei-6f" x="281.884766"/>
    </g>
   </g>
   <g id="text_18">
    <!-- 1.8% -->
    <g style="fill: #262626" transform="translate(305.931685 391.833532) scale(0.096 -0.096)">
     <defs>
      <path id="MicrosoftYaHei-38" d="M 306 1350 
Q 306 1769 556 2122 
Q 806 2475 1200 2625 
Q 884 2803 700 3081 
Q 516 3359 516 3684 
Q 516 4028 692 4312 
Q 869 4597 1183 4759 
Q 1497 4922 1875 4922 
Q 2256 4922 2572 4761 
Q 2888 4600 3063 4315 
Q 3238 4031 3238 3684 
Q 3238 3366 3058 3086 
Q 2878 2806 2559 2625 
Q 2953 2472 3200 2119 
Q 3447 1766 3447 1350 
Q 3447 938 3250 611 
Q 3053 284 2690 103 
Q 2328 -78 1875 -78 
Q 1425 -78 1065 103 
Q 706 284 506 612 
Q 306 941 306 1350 
z
M 906 1378 
Q 906 947 1172 687 
Q 1438 428 1878 428 
Q 2309 428 2582 692 
Q 2856 956 2856 1378 
Q 2856 1778 2579 2051 
Q 2303 2325 1878 2325 
Q 1456 2325 1181 2058 
Q 906 1791 906 1378 
z
M 1081 3634 
Q 1081 3309 1312 3076 
Q 1544 2844 1878 2844 
Q 2206 2844 2445 3078 
Q 2684 3313 2684 3634 
Q 2684 3963 2454 4191 
Q 2225 4419 1878 4419 
Q 1534 4419 1307 4195 
Q 1081 3972 1081 3634 
z
" transform="scale(0.015625)"/>
     </defs>
     <use xlink:href="#MicrosoftYaHei-31"/>
     <use xlink:href="#MicrosoftYaHei-2e" x="58.642578"/>
     <use xlink:href="#MicrosoftYaHei-38" x="82.714844"/>
     <use xlink:href="#MicrosoftYaHei-25" x="141.357422"/>
    </g>
   </g>
   <g id="text_19">
    <!-- Egypt -->
    <g style="fill: #262626" transform="translate(278.692854 429.120703) scale(0.088 -0.088)">
     <defs>
      <path id="MicrosoftYaHei-45" d="M 3228 0 
L 625 0 
L 625 4841 
L 3119 4841 
L 3119 4284 
L 1250 4284 
L 1250 2734 
L 2981 2734 
L 2981 2181 
L 1250 2181 
L 1250 553 
L 3228 553 
L 3228 0 
z
" transform="scale(0.015625)"/>
      <path id="MicrosoftYaHei-67" d="M 3547 291 
Q 3547 -1628 1684 -1628 
Q 1041 -1628 566 -1388 
L 566 -797 
Q 1144 -1119 1675 -1119 
Q 2934 -1119 2934 206 
L 2934 572 
L 2922 572 
Q 2528 -81 1747 -81 
Q 1097 -81 706 384 
Q 316 850 316 1619 
Q 316 2503 747 3020 
Q 1178 3538 1897 3538 
Q 2588 3538 2922 2988 
L 2934 2988 
L 2934 3456 
L 3547 3456 
L 3547 291 
z
M 2934 2056 
Q 2938 2456 2666 2743 
Q 2394 3031 1997 3031 
Q 1497 3031 1219 2664 
Q 941 2297 941 1656 
Q 941 1106 1209 765 
Q 1478 425 1922 425 
Q 2369 425 2653 750 
Q 2938 1075 2934 1575 
L 2934 2056 
z
" transform="scale(0.015625)"/>
      <path id="MicrosoftYaHei-79" d="M 3359 3456 
L 1791 -522 
Q 1353 -1628 556 -1628 
Q 328 -1628 166 -1578 
L 166 -1041 
Q 344 -1109 509 -1109 
Q 925 -1109 1131 -622 
L 1397 6 
L 41 3456 
L 719 3456 
L 1622 859 
L 1697 575 
L 1713 575 
Q 1731 672 1788 853 
L 2731 3456 
L 3359 3456 
z
" transform="scale(0.015625)"/>
     </defs>
     <use xlink:href="#MicrosoftYaHei-45"/>
     <use xlink:href="#MicrosoftYaHei-67" x="54.980469"/>
     <use xlink:href="#MicrosoftYaHei-79" x="118.945312"/>
     <use xlink:href="#MicrosoftYaHei-70" x="171.875"/>
     <use xlink:href="#MicrosoftYaHei-74" x="235.742188"/>
    </g>
   </g>
   <g id="text_20">
    <!-- 1.6% -->
    <g style="fill: #262626" transform="translate(317.131892 404.688592) scale(0.096 -0.096)">
     <use xlink:href="#MicrosoftYaHei-31"/>
     <use xlink:href="#MicrosoftYaHei-2e" x="58.642578"/>
     <use xlink:href="#MicrosoftYaHei-36" x="82.714844"/>
     <use xlink:href="#MicrosoftYaHei-25" x="141.357422"/>
    </g>
   </g>
   <g id="text_21">
    <!-- Other -->
    <g style="fill: #262626" transform="translate(520.524299 472.306196) scale(0.088 -0.088)">
     <defs>
      <path id="MicrosoftYaHei-4f" d="M 313 2363 
Q 313 3534 947 4228 
Q 1581 4922 2666 4922 
Q 3675 4922 4290 4244 
Q 4906 3566 4906 2478 
Q 4906 1300 4275 609 
Q 3644 -81 2588 -81 
Q 1556 -81 934 597 
Q 313 1275 313 2363 
z
M 969 2413 
Q 969 1534 1417 1004 
Q 1866 475 2588 475 
Q 3363 475 3805 983 
Q 4247 1491 4247 2403 
Q 4247 3341 3814 3850 
Q 3381 4359 2628 4359 
Q 1888 4359 1428 3821 
Q 969 3284 969 2413 
z
" transform="scale(0.015625)"/>
     </defs>
     <use xlink:href="#MicrosoftYaHei-4f"/>
     <use xlink:href="#MicrosoftYaHei-74" x="81.494141"/>
     <use xlink:href="#MicrosoftYaHei-68" x="118.75"/>
     <use xlink:href="#MicrosoftYaHei-65" x="180.322266"/>
     <use xlink:href="#MicrosoftYaHei-72" x="237.060547"/>
    </g>
   </g>
   <g id="text_22">
    <!-- 37.0% -->
    <g style="fill: #262626" transform="translate(492.522109 439.980552) scale(0.096 -0.096)">
     <use xlink:href="#MicrosoftYaHei-33"/>
     <use xlink:href="#MicrosoftYaHei-37" x="58.642578"/>
     <use xlink:href="#MicrosoftYaHei-2e" x="117.285156"/>
     <use xlink:href="#MicrosoftYaHei-30" x="141.357422"/>
     <use xlink:href="#MicrosoftYaHei-25" x="200"/>
    </g>
   </g>
   <g id="text_23">
    <!-- 2020年各个国家地区的互联网用户占比 -->
    <g style="fill: #262626" transform="translate(359.541 63.12) scale(0.096 -0.096)">
     <defs>
      <path id="MicrosoftYaHei-5e74" d="M 119 1278 
L 1125 1278 
L 1125 3066 
L 3338 3066 
L 3338 4178 
L 1500 4178 
Q 1078 3419 556 2778 
Q 394 2953 169 3128 
Q 1056 4128 1500 5372 
L 2013 5228 
Q 1881 4919 1738 4628 
L 6038 4628 
L 6038 4178 
L 3844 4178 
L 3844 3066 
L 5931 3066 
L 5931 2628 
L 3844 2628 
L 3844 1278 
L 6319 1278 
L 6319 828 
L 3844 828 
L 3844 -859 
L 3338 -859 
L 3338 828 
L 119 828 
L 119 1278 
z
M 1619 1278 
L 3338 1278 
L 3338 2628 
L 1619 2628 
L 1619 1278 
z
" transform="scale(0.015625)"/>
      <path id="MicrosoftYaHei-5404" d="M 1838 5366 
L 2325 5191 
Q 2191 4934 2038 4691 
L 5463 4691 
L 5463 4234 
Q 4819 3428 3806 2831 
Q 4881 2366 6375 2266 
Q 6169 1953 6025 1703 
Q 4388 1947 3272 2544 
Q 2022 1925 300 1578 
Q 169 1828 31 2059 
Q 1591 2303 2775 2844 
Q 2041 3347 1588 4038 
Q 1138 3444 569 2916 
Q 400 3122 225 3278 
Q 1288 4191 1838 5366 
z
M 1100 1666 
L 5363 1666 
L 5363 -803 
L 4875 -803 
L 4875 -441 
L 1588 -441 
L 1588 -803 
L 1100 -803 
L 1100 1666 
z
M 4875 1216 
L 1588 1216 
L 1588 -3 
L 4875 -3 
L 4875 1216 
z
M 4794 4241 
L 1988 4241 
Q 2494 3547 3275 3094 
Q 4153 3575 4794 4241 
z
" transform="scale(0.015625)"/>
      <path id="MicrosoftYaHei-4e2a" d="M 2913 3028 
L 3481 3028 
L 3481 -841 
L 2913 -841 
L 2913 3028 
z
M 3600 5178 
L 3506 5034 
Q 4519 3366 6319 2647 
Q 6125 2341 5988 2084 
Q 4150 3047 3206 4566 
Q 2281 3122 400 1997 
Q 263 2222 81 2491 
Q 2031 3572 2981 5178 
L 3600 5178 
z
" transform="scale(0.015625)"/>
      <path id="MicrosoftYaHei-56fd" d="M 469 4997 
L 5938 4997 
L 5938 -834 
L 5456 -834 
L 5456 -522 
L 950 -522 
L 950 -841 
L 469 -841 
L 469 4997 
z
M 5456 4553 
L 950 4553 
L 950 -78 
L 5456 -78 
L 5456 4553 
z
M 1238 1009 
L 2963 1009 
L 2963 2247 
L 1456 2247 
L 1456 2672 
L 2963 2672 
L 2963 3509 
L 1338 3509 
L 1338 3934 
L 5063 3934 
L 5063 3509 
L 3425 3509 
L 3425 2672 
L 4938 2672 
L 4938 2247 
L 3425 2247 
L 3425 1009 
L 5163 1009 
L 5163 584 
L 1238 584 
L 1238 1009 
z
M 3750 1847 
L 4100 2109 
Q 4444 1753 4688 1441 
L 4319 1159 
Q 4019 1566 3750 1847 
z
" transform="scale(0.015625)"/>
      <path id="MicrosoftYaHei-5bb6" d="M 194 -209 
Q 2081 331 3200 1556 
Q 3113 1738 2997 1903 
Q 2066 941 425 422 
Q 331 634 200 847 
Q 1809 1291 2703 2256 
Q 2600 2359 2478 2459 
Q 1650 1872 444 1497 
Q 325 1703 163 1941 
Q 1653 2272 2550 3053 
L 975 3053 
L 975 3503 
L 5438 3503 
L 5438 3053 
L 3169 3053 
Q 3009 2884 2825 2728 
Q 3316 2331 3588 1841 
Q 4566 2319 5325 2822 
L 5619 2422 
Q 5109 2116 4534 1816 
Q 5088 616 6331 141 
Q 6125 -97 5944 -347 
Q 4722 278 4131 1609 
Q 3953 1522 3769 1431 
Q 4125 103 3656 -503 
Q 3431 -772 2794 -772 
Q 2544 -772 2006 -753 
Q 1969 -509 1913 -234 
Q 2400 -291 2781 -291 
Q 3456 -328 3438 522 
Q 3428 803 3369 1063 
Q 2263 -28 419 -641 
Q 325 -434 194 -209 
z
M 331 4528 
L 3156 4528 
Q 2972 4806 2725 5122 
L 3163 5403 
Q 3444 5059 3675 4722 
L 3356 4528 
L 6063 4528 
L 6063 3459 
L 5563 3459 
L 5563 4066 
L 831 4066 
L 831 3459 
L 331 3459 
L 331 4528 
z
" transform="scale(0.015625)"/>
      <path id="MicrosoftYaHei-5730" d="M 3975 5303 
L 4463 5303 
L 4463 3688 
L 5981 4147 
Q 5944 2916 5906 2134 
Q 5869 1291 5231 1284 
Q 4944 1278 4669 1284 
Q 4631 1516 4575 1803 
Q 4875 1766 5094 1766 
Q 5419 1759 5431 2241 
Q 5469 2809 5475 3534 
L 4463 3219 
L 4463 509 
L 3975 509 
L 3975 3069 
L 3031 2775 
L 3031 353 
Q 3031 -134 3563 -134 
L 5094 -134 
Q 5669 -134 5731 328 
Q 5806 728 5856 1259 
Q 6106 1159 6375 1078 
Q 6288 478 6206 103 
Q 6056 -609 5225 -609 
L 3444 -609 
Q 2544 -609 2544 272 
L 2544 2622 
L 2075 2478 
L 1994 2941 
L 2544 3106 
L 2544 4566 
L 3031 4566 
L 3031 3253 
L 3975 3538 
L 3975 5303 
z
M 44 303 
Q 491 447 944 597 
L 944 3091 
L 138 3091 
L 138 3528 
L 944 3528 
L 944 5272 
L 1406 5272 
L 1406 3528 
L 2131 3528 
L 2131 3091 
L 1406 3091 
L 1406 753 
Q 1803 891 2206 1034 
Q 2219 772 2250 572 
Q 1225 203 219 -178 
L 44 303 
z
" transform="scale(0.015625)"/>
      <path id="MicrosoftYaHei-533a" d="M 600 4872 
L 5975 4872 
L 5975 4384 
L 1131 4384 
L 1131 22 
L 6075 22 
L 6075 -453 
L 600 -453 
L 600 4872 
z
M 1613 3697 
L 1963 4028 
Q 2744 3384 3597 2616 
Q 4250 3322 4850 4153 
L 5306 3847 
Q 4650 2997 3975 2272 
Q 4753 1563 5588 753 
L 5156 316 
Q 4400 1106 3600 1878 
Q 2697 963 1763 266 
Q 1613 459 1363 672 
Q 2344 1341 3228 2231 
Q 2444 2972 1613 3697 
z
" transform="scale(0.015625)"/>
      <path id="MicrosoftYaHei-7684" d="M 356 4284 
L 988 4284 
Q 1219 4853 1369 5322 
L 1894 5172 
Q 1697 4694 1513 4284 
L 2763 4284 
L 2763 -691 
L 2263 -691 
L 2263 -203 
L 856 -203 
L 856 -734 
L 356 -734 
L 356 4284 
z
M 2856 3003 
Q 3444 3934 3850 5322 
L 4375 5191 
Q 4216 4719 4050 4303 
L 6063 4303 
Q 5988 1091 5938 259 
Q 5894 -722 4906 -722 
Q 4338 -722 3750 -684 
Q 3713 -372 3650 -128 
L 3669 -128 
Q 4294 -216 4813 -216 
Q 5381 -216 5425 384 
Q 5494 1316 5525 3834 
L 3850 3834 
Q 3578 3231 3288 2772 
Q 3119 2891 2856 3003 
z
M 856 266 
L 2263 266 
L 2263 1847 
L 856 1847 
L 856 266 
z
M 2263 3816 
L 856 3816 
L 856 2297 
L 2263 2297 
L 2263 3816 
z
M 3406 2578 
L 3788 2859 
Q 4481 2041 4894 1441 
L 4431 1116 
Q 3988 1841 3406 2578 
z
" transform="scale(0.015625)"/>
      <path id="MicrosoftYaHei-4e92" d="M 238 72 
L 4472 72 
L 4550 1147 
L 1025 1147 
L 1025 1591 
L 1419 4341 
L 463 4341 
L 463 4791 
L 5950 4791 
L 5950 4341 
L 1944 4341 
L 1809 3422 
L 5238 3422 
L 4997 72 
L 6188 72 
L 6188 -366 
L 238 -366 
L 238 72 
z
M 4681 2972 
L 1747 2972 
L 1550 1597 
L 4581 1597 
L 4681 2972 
z
" transform="scale(0.015625)"/>
      <path id="MicrosoftYaHei-8054" d="M 81 553 
Q 319 591 556 631 
L 556 4428 
L 150 4428 
L 150 4866 
L 2850 4866 
L 2850 4428 
L 2381 4428 
L 2381 953 
Q 2666 1006 2950 1059 
Q 2963 803 2994 622 
Q 2697 563 2381 500 
L 2381 -822 
L 1925 -822 
L 1925 406 
Q 1122 244 200 53 
L 81 553 
z
M 2600 2397 
L 4044 2397 
Q 4069 2853 4066 3528 
L 2775 3528 
L 2775 3991 
L 4463 3991 
Q 4744 4441 5200 5309 
L 5688 5078 
Q 5300 4475 4966 3991 
L 6013 3991 
L 6013 3528 
L 4550 3528 
Q 4550 2850 4528 2397 
L 6225 2397 
L 6225 1934 
L 4591 1934 
Q 5069 441 6313 -284 
Q 6088 -509 5913 -753 
Q 4803 88 4350 1353 
Q 4006 13 2831 -816 
Q 2638 -572 2481 -409 
Q 3784 413 4006 1934 
L 2600 1934 
L 2600 2397 
z
M 1925 869 
L 1925 1753 
L 1013 1753 
L 1013 709 
Q 1472 788 1925 869 
z
M 1013 2178 
L 1925 2178 
L 1925 3091 
L 1013 3091 
L 1013 2178 
z
M 1013 3516 
L 1925 3516 
L 1925 4428 
L 1013 4428 
L 1013 3516 
z
M 3013 5053 
L 3375 5309 
Q 3750 4884 4081 4378 
L 3675 4097 
Q 3413 4528 3013 5053 
z
" transform="scale(0.015625)"/>
      <path id="MicrosoftYaHei-7f51" d="M 1075 3641 
L 1444 3834 
Q 1816 3244 2184 2628 
Q 2488 3281 2706 3928 
L 3131 3772 
Q 2822 2931 2450 2175 
Q 2809 1563 3163 922 
L 2738 697 
Q 2478 1191 2203 1691 
Q 1819 969 1375 328 
L 1000 544 
L 1000 -759 
L 531 -759 
L 531 4953 
L 5856 4953 
L 5856 -59 
Q 5856 -728 5138 -728 
Q 4738 -728 4181 -716 
Q 4150 -516 4094 -228 
Q 4619 -272 4988 -272 
Q 5388 -272 5388 72 
L 5388 4503 
L 1000 4503 
L 1000 572 
Q 1538 1363 1947 2150 
Q 1531 2891 1075 3641 
z
M 3156 3341 
L 3519 3553 
Q 3831 3047 4166 2481 
Q 4525 3197 4775 3891 
L 5200 3728 
Q 4847 2838 4428 2028 
Q 4822 1353 5244 597 
L 4825 359 
Q 4513 953 4175 1559 
Q 3788 866 3350 241 
L 2969 484 
Q 3506 1263 3919 2016 
Q 3553 2672 3156 3341 
z
" transform="scale(0.015625)"/>
      <path id="MicrosoftYaHei-7528" d="M 3088 -734 
L 3088 1253 
L 1269 1253 
Q 1163 -47 513 -903 
Q 350 -697 144 -472 
Q 550 103 694 803 
Q 831 1478 831 2716 
L 831 4947 
L 5925 4947 
L 5925 -22 
Q 5925 -766 5219 -766 
Q 4788 -766 4250 -747 
Q 4219 -541 4156 -228 
Q 4700 -266 5038 -266 
Q 5425 -266 5425 103 
L 5425 1253 
L 3588 1253 
L 3588 -734 
L 3088 -734 
z
M 3588 1703 
L 5425 1703 
L 5425 2872 
L 3588 2872 
L 3588 1703 
z
M 5425 4484 
L 3588 4484 
L 3588 3322 
L 5425 3322 
L 5425 4484 
z
M 1303 1703 
L 3088 1703 
L 3088 2872 
L 1331 2872 
Q 1350 2266 1303 1703 
z
M 1331 4484 
L 1331 3322 
L 3088 3322 
L 3088 4484 
L 1331 4484 
z
" transform="scale(0.015625)"/>
      <path id="MicrosoftYaHei-6237" d="M 2725 5116 
L 3175 5384 
Q 3475 5028 3769 4609 
L 3463 4416 
L 5794 4416 
L 5794 1647 
L 5294 1647 
L 5294 1972 
L 1347 1972 
Q 1263 172 419 -903 
Q 250 -697 56 -491 
Q 856 484 856 2434 
L 856 4416 
L 3241 4416 
Q 3013 4766 2725 5116 
z
M 1356 3966 
L 1356 2422 
L 5294 2422 
L 5294 3966 
L 1356 3966 
z
" transform="scale(0.015625)"/>
      <path id="MicrosoftYaHei-5360" d="M 863 2434 
L 2775 2434 
L 2775 5259 
L 3288 5259 
L 3288 4209 
L 6150 4209 
L 6150 3747 
L 3288 3747 
L 3288 2434 
L 5525 2434 
L 5525 -841 
L 5025 -841 
L 5025 -453 
L 1363 -453 
L 1363 -853 
L 863 -853 
L 863 2434 
z
M 5025 1984 
L 1363 1984 
L 1363 -9 
L 5025 -9 
L 5025 1984 
z
" transform="scale(0.015625)"/>
      <path id="MicrosoftYaHei-6bd4" d="M 3225 5316 
L 3744 5316 
L 3744 2672 
Q 4959 3550 5744 4509 
L 6188 4178 
Q 5175 3063 3744 2056 
L 3744 247 
Q 3744 -166 4106 -166 
L 5175 -166 
Q 5588 -166 5650 203 
Q 5725 678 5763 1247 
Q 6025 1147 6300 1066 
Q 6244 484 6150 22 
Q 6019 -622 5319 -622 
L 3944 -622 
Q 3225 -622 3225 159 
L 3225 5316 
z
M 1063 5153 
L 1063 3278 
L 2825 3278 
L 2825 2809 
L 1063 2809 
L 1063 153 
Q 1713 428 2763 928 
Q 2763 634 2788 366 
Q 1869 -3 1231 -328 
Q 956 -472 725 -672 
L 344 -184 
Q 544 -34 544 272 
L 544 5153 
L 1063 5153 
z
" transform="scale(0.015625)"/>
     </defs>
     <use xlink:href="#MicrosoftYaHei-32"/>
     <use xlink:href="#MicrosoftYaHei-30" x="58.642578"/>
     <use xlink:href="#MicrosoftYaHei-32" x="117.285156"/>
     <use xlink:href="#MicrosoftYaHei-30" x="175.927734"/>
     <use xlink:href="#MicrosoftYaHei-5e74" x="234.570312"/>
     <use xlink:href="#MicrosoftYaHei-5404" x="334.570312"/>
     <use xlink:href="#MicrosoftYaHei-4e2a" x="434.570312"/>
     <use xlink:href="#MicrosoftYaHei-56fd" x="534.570312"/>
     <use xlink:href="#MicrosoftYaHei-5bb6" x="634.570312"/>
     <use xlink:href="#MicrosoftYaHei-5730" x="734.570312"/>
     <use xlink:href="#MicrosoftYaHei-533a" x="834.570312"/>
     <use xlink:href="#MicrosoftYaHei-7684" x="934.570312"/>
     <use xlink:href="#MicrosoftYaHei-4e92" x="1034.570312"/>
     <use xlink:href="#MicrosoftYaHei-8054" x="1134.570312"/>
     <use xlink:href="#MicrosoftYaHei-7f51" x="1234.570312"/>
     <use xlink:href="#MicrosoftYaHei-7528" x="1334.570312"/>
     <use xlink:href="#MicrosoftYaHei-6237" x="1434.570312"/>
     <use xlink:href="#MicrosoftYaHei-5360" x="1534.570312"/>
     <use xlink:href="#MicrosoftYaHei-6bd4" x="1634.570312"/>
    </g>
   </g>
   <g id="legend_1">
    <g id="patch_24">
     <path d="M 695.089125 508.24 
L 857.984 508.24 
Q 859.744 508.24 859.744 506.48 
L 859.744 425.62725 
Q 859.744 423.86725 857.984 423.86725 
L 695.089125 423.86725 
Q 693.329125 423.86725 693.329125 425.62725 
L 693.329125 506.48 
Q 693.329125 508.24 695.089125 508.24 
z
" style="fill: #eaeaf2; opacity: 0.8; stroke: #cccccc; stroke-linejoin: miter"/>
    </g>
    <g id="patch_25">
     <path d="M 696.849125 434.42175 
L 714.449125 434.42175 
L 714.449125 428.26175 
L 696.849125 428.26175 
z
" style="fill: #4c72b0; stroke: #ffffff; stroke-linejoin: miter"/>
    </g>
    <g id="text_24">
     <!-- China -->
     <g style="fill: #262626" transform="translate(721.489125 434.42175) scale(0.088 -0.088)">
      <use xlink:href="#MicrosoftYaHei-43"/>
      <use xlink:href="#MicrosoftYaHei-68" x="66.894531"/>
      <use xlink:href="#MicrosoftYaHei-69" x="128.466797"/>
      <use xlink:href="#MicrosoftYaHei-6e" x="155.078125"/>
      <use xlink:href="#MicrosoftYaHei-61" x="216.699219"/>
     </g>
    </g>
    <g id="patch_26">
     <path d="M 696.849125 448.043875 
L 714.449125 448.043875 
L 714.449125 441.883875 
L 696.849125 441.883875 
z
" style="fill: #dd8452; stroke: #ffffff; stroke-linejoin: miter"/>
    </g>
    <g id="text_25">
     <!-- India -->
     <g style="fill: #262626" transform="translate(721.489125 448.043875) scale(0.088 -0.088)">
      <use xlink:href="#MicrosoftYaHei-49"/>
      <use xlink:href="#MicrosoftYaHei-6e" x="29.394531"/>
      <use xlink:href="#MicrosoftYaHei-64" x="91.015625"/>
      <use xlink:href="#MicrosoftYaHei-69" x="154.980469"/>
      <use xlink:href="#MicrosoftYaHei-61" x="181.591797"/>
     </g>
    </g>
    <g id="patch_27">
     <path d="M 696.849125 461.666 
L 714.449125 461.666 
L 714.449125 455.506 
L 696.849125 455.506 
z
" style="fill: #55a868; stroke: #ffffff; stroke-linejoin: miter"/>
    </g>
    <g id="text_26">
     <!-- North America -->
     <g style="fill: #262626" transform="translate(721.489125 461.666) scale(0.088 -0.088)">
      <use xlink:href="#MicrosoftYaHei-4e"/>
      <use xlink:href="#MicrosoftYaHei-6f" x="81.298828"/>
      <use xlink:href="#MicrosoftYaHei-72" x="144.873047"/>
      <use xlink:href="#MicrosoftYaHei-74" x="186.181641"/>
      <use xlink:href="#MicrosoftYaHei-68" x="223.4375"/>
      <use xlink:href="#MicrosoftYaHei-20" x="285.009766"/>
      <use xlink:href="#MicrosoftYaHei-41" x="314.599609"/>
      <use xlink:href="#MicrosoftYaHei-6d" x="384.960938"/>
      <use xlink:href="#MicrosoftYaHei-65" x="478.662109"/>
      <use xlink:href="#MicrosoftYaHei-72" x="535.400391"/>
      <use xlink:href="#MicrosoftYaHei-69" x="573.583984"/>
      <use xlink:href="#MicrosoftYaHei-63" x="600.195312"/>
      <use xlink:href="#MicrosoftYaHei-61" x="650.341797"/>
     </g>
    </g>
    <g id="patch_28">
     <path d="M 696.849125 475.288125 
L 714.449125 475.288125 
L 714.449125 469.128125 
L 696.849125 469.128125 
z
" style="fill: #c44e52; stroke: #ffffff; stroke-linejoin: miter"/>
    </g>
    <g id="text_27">
     <!-- United States -->
     <g style="fill: #262626" transform="translate(721.489125 475.288125) scale(0.088 -0.088)">
      <use xlink:href="#MicrosoftYaHei-55"/>
      <use xlink:href="#MicrosoftYaHei-6e" x="74.658203"/>
      <use xlink:href="#MicrosoftYaHei-69" x="136.279297"/>
      <use xlink:href="#MicrosoftYaHei-74" x="162.890625"/>
      <use xlink:href="#MicrosoftYaHei-65" x="199.271484"/>
      <use xlink:href="#MicrosoftYaHei-64" x="256.009766"/>
      <use xlink:href="#MicrosoftYaHei-20" x="319.974609"/>
      <use xlink:href="#MicrosoftYaHei-53" x="349.564453"/>
      <use xlink:href="#MicrosoftYaHei-74" x="403.779297"/>
      <use xlink:href="#MicrosoftYaHei-61" x="441.035156"/>
      <use xlink:href="#MicrosoftYaHei-74" x="496.308594"/>
      <use xlink:href="#MicrosoftYaHei-65" x="532.689453"/>
      <use xlink:href="#MicrosoftYaHei-73" x="589.427734"/>
     </g>
    </g>
    <g id="patch_29">
     <path d="M 696.849125 488.91025 
L 714.449125 488.91025 
L 714.449125 482.75025 
L 696.849125 482.75025 
z
" style="fill: #8172b3; stroke: #ffffff; stroke-linejoin: miter"/>
    </g>
    <g id="text_28">
     <!-- Brazil -->
     <g style="fill: #262626" transform="translate(721.489125 488.91025) scale(0.088 -0.088)">
      <use xlink:href="#MicrosoftYaHei-42"/>
      <use xlink:href="#MicrosoftYaHei-72" x="62.744141"/>
      <use xlink:href="#MicrosoftYaHei-61" x="100.927734"/>
      <use xlink:href="#MicrosoftYaHei-7a" x="156.201172"/>
      <use xlink:href="#MicrosoftYaHei-69" x="205.371094"/>
      <use xlink:href="#MicrosoftYaHei-6c" x="231.982422"/>
     </g>
    </g>
    <g id="patch_30">
     <path d="M 696.849125 502.532375 
L 714.449125 502.532375 
L 714.449125 496.372375 
L 696.849125 496.372375 
z
" style="fill: #937860; stroke: #ffffff; stroke-linejoin: miter"/>
    </g>
    <g id="text_29">
     <!-- Indonesia -->
     <g style="fill: #262626" transform="translate(721.489125 502.532375) scale(0.088 -0.088)">
      <use xlink:href="#MicrosoftYaHei-49"/>
      <use xlink:href="#MicrosoftYaHei-6e" x="29.394531"/>
      <use xlink:href="#MicrosoftYaHei-64" x="91.015625"/>
      <use xlink:href="#MicrosoftYaHei-6f" x="154.980469"/>
      <use xlink:href="#MicrosoftYaHei-6e" x="218.554688"/>
      <use xlink:href="#MicrosoftYaHei-65" x="280.175781"/>
      <use xlink:href="#MicrosoftYaHei-73" x="336.914062"/>
      <use xlink:href="#MicrosoftYaHei-69" x="383.203125"/>
      <use xlink:href="#MicrosoftYaHei-61" x="409.814453"/>
     </g>
    </g>
    <g id="patch_31">
     <path d="M 801.184125 434.42175 
L 818.784125 434.42175 
L 818.784125 428.26175 
L 801.184125 428.26175 
z
" style="fill: #da8bc3; stroke: #ffffff; stroke-linejoin: miter"/>
    </g>
    <g id="text_30">
     <!-- Russia -->
     <g style="fill: #262626" transform="translate(825.824125 434.42175) scale(0.088 -0.088)">
      <use xlink:href="#MicrosoftYaHei-52"/>
      <use xlink:href="#MicrosoftYaHei-75" x="65.283203"/>
      <use xlink:href="#MicrosoftYaHei-73" x="126.904297"/>
      <use xlink:href="#MicrosoftYaHei-73" x="173.193359"/>
      <use xlink:href="#MicrosoftYaHei-69" x="219.482422"/>
      <use xlink:href="#MicrosoftYaHei-61" x="246.09375"/>
     </g>
    </g>
    <g id="patch_32">
     <path d="M 801.184125 448.043875 
L 818.784125 448.043875 
L 818.784125 441.883875 
L 801.184125 441.883875 
z
" style="fill: #8c8c8c; stroke: #ffffff; stroke-linejoin: miter"/>
    </g>
    <g id="text_31">
     <!-- Japan -->
     <g style="fill: #262626" transform="translate(825.824125 448.043875) scale(0.088 -0.088)">
      <use xlink:href="#MicrosoftYaHei-4a"/>
      <use xlink:href="#MicrosoftYaHei-61" x="38.224609"/>
      <use xlink:href="#MicrosoftYaHei-70" x="93.498047"/>
      <use xlink:href="#MicrosoftYaHei-61" x="155.990234"/>
      <use xlink:href="#MicrosoftYaHei-6e" x="211.263672"/>
     </g>
    </g>
    <g id="patch_33">
     <path d="M 801.184125 461.666 
L 818.784125 461.666 
L 818.784125 455.506 
L 801.184125 455.506 
z
" style="fill: #ccb974; stroke: #ffffff; stroke-linejoin: miter"/>
    </g>
    <g id="text_32">
     <!-- Mexico -->
     <g style="fill: #262626" transform="translate(825.824125 461.666) scale(0.088 -0.088)">
      <use xlink:href="#MicrosoftYaHei-4d"/>
      <use xlink:href="#MicrosoftYaHei-65" x="97.705078"/>
      <use xlink:href="#MicrosoftYaHei-78" x="154.443359"/>
      <use xlink:href="#MicrosoftYaHei-69" x="205.126953"/>
      <use xlink:href="#MicrosoftYaHei-63" x="231.738281"/>
      <use xlink:href="#MicrosoftYaHei-6f" x="281.884766"/>
     </g>
    </g>
    <g id="patch_34">
     <path d="M 801.184125 475.288125 
L 818.784125 475.288125 
L 818.784125 469.128125 
L 801.184125 469.128125 
z
" style="fill: #64b5cd; stroke: #ffffff; stroke-linejoin: miter"/>
    </g>
    <g id="text_33">
     <!-- Egypt -->
     <g style="fill: #262626" transform="translate(825.824125 475.288125) scale(0.088 -0.088)">
      <use xlink:href="#MicrosoftYaHei-45"/>
      <use xlink:href="#MicrosoftYaHei-67" x="54.980469"/>
      <use xlink:href="#MicrosoftYaHei-79" x="118.945312"/>
      <use xlink:href="#MicrosoftYaHei-70" x="171.875"/>
      <use xlink:href="#MicrosoftYaHei-74" x="235.742188"/>
     </g>
    </g>
    <g id="patch_35">
     <path d="M 801.184125 488.961125 
L 818.784125 488.961125 
L 818.784125 482.801125 
L 801.184125 482.801125 
z
" style="fill: #4c72b0; stroke: #ffffff; stroke-linejoin: miter"/>
    </g>
    <g id="text_34">
     <!-- Other -->
     <g style="fill: #262626" transform="translate(825.824125 488.961125) scale(0.088 -0.088)">
      <use xlink:href="#MicrosoftYaHei-4f"/>
      <use xlink:href="#MicrosoftYaHei-74" x="81.494141"/>
      <use xlink:href="#MicrosoftYaHei-68" x="118.75"/>
      <use xlink:href="#MicrosoftYaHei-65" x="180.322266"/>
      <use xlink:href="#MicrosoftYaHei-72" x="237.060547"/>
     </g>
    </g>
   </g>
  </g>
 </g>
</svg>
