<?xml version="1.0" encoding="utf-8" standalone="no"?>
<!DOCTYPE svg PUBLIC "-//W3C//DTD SVG 1.1//EN"
  "http://www.w3.org/Graphics/SVG/1.1/DTD/svg11.dtd">
<svg xmlns:xlink="http://www.w3.org/1999/xlink" width="864pt" height="576pt" viewBox="0 0 864 576" xmlns="http://www.w3.org/2000/svg" version="1.1">
 <metadata>
  <rdf:RDF xmlns:dc="http://purl.org/dc/elements/1.1/" xmlns:cc="http://creativecommons.org/ns#" xmlns:rdf="http://www.w3.org/1999/02/22-rdf-syntax-ns#">
   <cc:Work>
    <dc:type rdf:resource="http://purl.org/dc/dcmitype/StillImage"/>
    <dc:date>2024-05-20T14:19:40.849535</dc:date>
    <dc:format>image/svg+xml</dc:format>
    <dc:creator>
     <cc:Agent>
      <dc:title>Matplotlib v3.9.0, https://matplotlib.org/</dc:title>
     </cc:Agent>
    </dc:creator>
   </cc:Work>
  </rdf:RDF>
 </metadata>
 <defs>
  <style type="text/css">*{stroke-linejoin: round; stroke-linecap: butt}</style>
 </defs>
 <g id="figure_1">
  <g id="patch_1">
   <path d="M 0 576 
L 864 576 
L 864 0 
L 0 0 
z
" style="fill: #ffffff"/>
  </g>
  <g id="axes_1">
   <g id="patch_2">
    <path d="M 108 512.64 
L 777.6 512.64 
L 777.6 69.12 
L 108 69.12 
z
" style="fill: #eaeaf2"/>
   </g>
   <g id="matplotlib.axis_1">
    <g id="xtick_1">
     <g id="line2d_1">
      <path d="M 138.436364 512.64 
L 138.436364 69.12 
" clip-path="url(#p162f95ea87)" style="fill: none; stroke: #ffffff; stroke-width: 1.5; stroke-linecap: round"/>
     </g>
     <g id="text_1">
      <!-- 1980 -->
      <g style="fill: #262626" transform="translate(122.955239 535.69175) scale(0.132 -0.132)">
       <defs>
        <path id="MicrosoftYaHei-31" d="M 1781 0 
L 1781 4141 
Q 1638 3997 1295 3819 
Q 953 3641 663 3569 
L 663 4169 
Q 1047 4275 1484 4508 
Q 1922 4741 2156 4947 
L 2388 4947 
L 2388 0 
L 1781 0 
z
" transform="scale(0.015625)"/>
        <path id="MicrosoftYaHei-39" d="M 578 656 
Q 978 425 1441 425 
Q 2091 425 2448 937 
Q 2806 1450 2806 2394 
Q 2800 2388 2794 2394 
Q 2475 1788 1722 1788 
Q 1113 1788 713 2206 
Q 313 2625 313 3294 
Q 313 4006 750 4464 
Q 1188 4922 1884 4922 
Q 2606 4922 3012 4355 
Q 3419 3788 3419 2703 
Q 3419 1363 2894 641 
Q 2369 -81 1441 -81 
Q 931 -81 578 84 
L 578 656 
z
M 931 3372 
Q 931 2884 1181 2598 
Q 1431 2313 1872 2313 
Q 2253 2313 2512 2573 
Q 2772 2834 2772 3206 
Q 2772 3728 2514 4070 
Q 2256 4413 1834 4413 
Q 1444 4413 1187 4116 
Q 931 3819 931 3372 
z
" transform="scale(0.015625)"/>
        <path id="MicrosoftYaHei-38" d="M 306 1350 
Q 306 1769 556 2122 
Q 806 2475 1200 2625 
Q 884 2803 700 3081 
Q 516 3359 516 3684 
Q 516 4028 692 4312 
Q 869 4597 1183 4759 
Q 1497 4922 1875 4922 
Q 2256 4922 2572 4761 
Q 2888 4600 3063 4315 
Q 3238 4031 3238 3684 
Q 3238 3366 3058 3086 
Q 2878 2806 2559 2625 
Q 2953 2472 3200 2119 
Q 3447 1766 3447 1350 
Q 3447 938 3250 611 
Q 3053 284 2690 103 
Q 2328 -78 1875 -78 
Q 1425 -78 1065 103 
Q 706 284 506 612 
Q 306 941 306 1350 
z
M 906 1378 
Q 906 947 1172 687 
Q 1438 428 1878 428 
Q 2309 428 2582 692 
Q 2856 956 2856 1378 
Q 2856 1778 2579 2051 
Q 2303 2325 1878 2325 
Q 1456 2325 1181 2058 
Q 906 1791 906 1378 
z
M 1081 3634 
Q 1081 3309 1312 3076 
Q 1544 2844 1878 2844 
Q 2206 2844 2445 3078 
Q 2684 3313 2684 3634 
Q 2684 3963 2454 4191 
Q 2225 4419 1878 4419 
Q 1534 4419 1307 4195 
Q 1081 3972 1081 3634 
z
" transform="scale(0.015625)"/>
        <path id="MicrosoftYaHei-30" d="M 284 2325 
Q 284 3606 709 4264 
Q 1134 4922 1941 4922 
Q 3478 4922 3478 2441 
Q 3478 1216 3045 567 
Q 2613 -81 1831 -81 
Q 1094 -81 689 534 
Q 284 1150 284 2325 
z
M 909 2353 
Q 909 425 1888 425 
Q 2850 425 2850 2384 
Q 2850 4413 1906 4413 
Q 909 4413 909 2353 
z
" transform="scale(0.015625)"/>
       </defs>
       <use xlink:href="#MicrosoftYaHei-31"/>
       <use xlink:href="#MicrosoftYaHei-39" x="58.642578"/>
       <use xlink:href="#MicrosoftYaHei-38" x="117.285156"/>
       <use xlink:href="#MicrosoftYaHei-30" x="175.927734"/>
      </g>
     </g>
    </g>
    <g id="xtick_2">
     <g id="line2d_2">
      <path d="M 214.527273 512.64 
L 214.527273 69.12 
" clip-path="url(#p162f95ea87)" style="fill: none; stroke: #ffffff; stroke-width: 1.5; stroke-linecap: round"/>
     </g>
     <g id="text_2">
      <!-- 1985 -->
      <g style="fill: #262626" transform="translate(199.046148 535.69175) scale(0.132 -0.132)">
       <defs>
        <path id="MicrosoftYaHei-35" d="M 3294 1494 
Q 3294 784 2823 350 
Q 2353 -84 1559 -84 
Q 878 -84 544 119 
L 544 744 
Q 1034 425 1544 425 
Q 2050 425 2361 704 
Q 2672 984 2672 1447 
Q 2672 1909 2348 2167 
Q 2025 2425 1434 2425 
Q 978 2425 613 2384 
L 791 4841 
L 3053 4841 
L 3053 4303 
L 1306 4303 
L 1206 2931 
L 1647 2950 
Q 2416 2950 2855 2567 
Q 3294 2184 3294 1494 
z
" transform="scale(0.015625)"/>
       </defs>
       <use xlink:href="#MicrosoftYaHei-31"/>
       <use xlink:href="#MicrosoftYaHei-39" x="58.642578"/>
       <use xlink:href="#MicrosoftYaHei-38" x="117.285156"/>
       <use xlink:href="#MicrosoftYaHei-35" x="175.927734"/>
      </g>
     </g>
    </g>
    <g id="xtick_3">
     <g id="line2d_3">
      <path d="M 290.618182 512.64 
L 290.618182 69.12 
" clip-path="url(#p162f95ea87)" style="fill: none; stroke: #ffffff; stroke-width: 1.5; stroke-linecap: round"/>
     </g>
     <g id="text_3">
      <!-- 1990 -->
      <g style="fill: #262626" transform="translate(275.137057 535.69175) scale(0.132 -0.132)">
       <use xlink:href="#MicrosoftYaHei-31"/>
       <use xlink:href="#MicrosoftYaHei-39" x="58.642578"/>
       <use xlink:href="#MicrosoftYaHei-39" x="117.285156"/>
       <use xlink:href="#MicrosoftYaHei-30" x="175.927734"/>
      </g>
     </g>
    </g>
    <g id="xtick_4">
     <g id="line2d_4">
      <path d="M 366.709091 512.64 
L 366.709091 69.12 
" clip-path="url(#p162f95ea87)" style="fill: none; stroke: #ffffff; stroke-width: 1.5; stroke-linecap: round"/>
     </g>
     <g id="text_4">
      <!-- 1995 -->
      <g style="fill: #262626" transform="translate(351.227966 535.69175) scale(0.132 -0.132)">
       <use xlink:href="#MicrosoftYaHei-31"/>
       <use xlink:href="#MicrosoftYaHei-39" x="58.642578"/>
       <use xlink:href="#MicrosoftYaHei-39" x="117.285156"/>
       <use xlink:href="#MicrosoftYaHei-35" x="175.927734"/>
      </g>
     </g>
    </g>
    <g id="xtick_5">
     <g id="line2d_5">
      <path d="M 442.8 512.64 
L 442.8 69.12 
" clip-path="url(#p162f95ea87)" style="fill: none; stroke: #ffffff; stroke-width: 1.5; stroke-linecap: round"/>
     </g>
     <g id="text_5">
      <!-- 2000 -->
      <g style="fill: #262626" transform="translate(427.318875 535.69175) scale(0.132 -0.132)">
       <defs>
        <path id="MicrosoftYaHei-32" d="M 2666 3572 
Q 2666 3963 2419 4186 
Q 2172 4409 1747 4409 
Q 1447 4409 1140 4256 
Q 834 4103 569 3819 
L 569 4413 
Q 806 4659 1107 4790 
Q 1409 4922 1816 4922 
Q 2472 4922 2872 4570 
Q 3272 4219 3272 3619 
Q 3272 3084 3026 2693 
Q 2781 2303 2188 1894 
Q 1581 1475 1376 1294 
Q 1172 1113 1090 947 
Q 1009 781 1009 544 
L 3416 544 
L 3416 0 
L 372 0 
L 372 241 
Q 372 659 486 951 
Q 600 1244 862 1520 
Q 1125 1797 1681 2184 
Q 2250 2584 2458 2886 
Q 2666 3188 2666 3572 
z
" transform="scale(0.015625)"/>
       </defs>
       <use xlink:href="#MicrosoftYaHei-32"/>
       <use xlink:href="#MicrosoftYaHei-30" x="58.642578"/>
       <use xlink:href="#MicrosoftYaHei-30" x="117.285156"/>
       <use xlink:href="#MicrosoftYaHei-30" x="175.927734"/>
      </g>
     </g>
    </g>
    <g id="xtick_6">
     <g id="line2d_6">
      <path d="M 518.890909 512.64 
L 518.890909 69.12 
" clip-path="url(#p162f95ea87)" style="fill: none; stroke: #ffffff; stroke-width: 1.5; stroke-linecap: round"/>
     </g>
     <g id="text_6">
      <!-- 2005 -->
      <g style="fill: #262626" transform="translate(503.409784 535.69175) scale(0.132 -0.132)">
       <use xlink:href="#MicrosoftYaHei-32"/>
       <use xlink:href="#MicrosoftYaHei-30" x="58.642578"/>
       <use xlink:href="#MicrosoftYaHei-30" x="117.285156"/>
       <use xlink:href="#MicrosoftYaHei-35" x="175.927734"/>
      </g>
     </g>
    </g>
    <g id="xtick_7">
     <g id="line2d_7">
      <path d="M 594.981818 512.64 
L 594.981818 69.12 
" clip-path="url(#p162f95ea87)" style="fill: none; stroke: #ffffff; stroke-width: 1.5; stroke-linecap: round"/>
     </g>
     <g id="text_7">
      <!-- 2010 -->
      <g style="fill: #262626" transform="translate(579.500693 535.69175) scale(0.132 -0.132)">
       <use xlink:href="#MicrosoftYaHei-32"/>
       <use xlink:href="#MicrosoftYaHei-30" x="58.642578"/>
       <use xlink:href="#MicrosoftYaHei-31" x="117.285156"/>
       <use xlink:href="#MicrosoftYaHei-30" x="175.927734"/>
      </g>
     </g>
    </g>
    <g id="xtick_8">
     <g id="line2d_8">
      <path d="M 671.072727 512.64 
L 671.072727 69.12 
" clip-path="url(#p162f95ea87)" style="fill: none; stroke: #ffffff; stroke-width: 1.5; stroke-linecap: round"/>
     </g>
     <g id="text_8">
      <!-- 2015 -->
      <g style="fill: #262626" transform="translate(655.591602 535.69175) scale(0.132 -0.132)">
       <use xlink:href="#MicrosoftYaHei-32"/>
       <use xlink:href="#MicrosoftYaHei-30" x="58.642578"/>
       <use xlink:href="#MicrosoftYaHei-31" x="117.285156"/>
       <use xlink:href="#MicrosoftYaHei-35" x="175.927734"/>
      </g>
     </g>
    </g>
    <g id="xtick_9">
     <g id="line2d_9">
      <path d="M 747.163636 512.64 
L 747.163636 69.12 
" clip-path="url(#p162f95ea87)" style="fill: none; stroke: #ffffff; stroke-width: 1.5; stroke-linecap: round"/>
     </g>
     <g id="text_9">
      <!-- 2020 -->
      <g style="fill: #262626" transform="translate(731.682511 535.69175) scale(0.132 -0.132)">
       <use xlink:href="#MicrosoftYaHei-32"/>
       <use xlink:href="#MicrosoftYaHei-30" x="58.642578"/>
       <use xlink:href="#MicrosoftYaHei-32" x="117.285156"/>
       <use xlink:href="#MicrosoftYaHei-30" x="175.927734"/>
      </g>
     </g>
    </g>
    <g id="text_10">
     <!-- 年份 -->
     <g style="fill: #262626" transform="translate(428.4 554.484187) scale(0.144 -0.144)">
      <defs>
       <path id="MicrosoftYaHei-5e74" d="M 119 1278 
L 1125 1278 
L 1125 3066 
L 3338 3066 
L 3338 4178 
L 1500 4178 
Q 1078 3419 556 2778 
Q 394 2953 169 3128 
Q 1056 4128 1500 5372 
L 2013 5228 
Q 1881 4919 1738 4628 
L 6038 4628 
L 6038 4178 
L 3844 4178 
L 3844 3066 
L 5931 3066 
L 5931 2628 
L 3844 2628 
L 3844 1278 
L 6319 1278 
L 6319 828 
L 3844 828 
L 3844 -859 
L 3338 -859 
L 3338 828 
L 119 828 
L 119 1278 
z
M 1619 1278 
L 3338 1278 
L 3338 2628 
L 1619 2628 
L 1619 1278 
z
" transform="scale(0.015625)"/>
       <path id="MicrosoftYaHei-4efd" d="M 2269 2653 
L 5394 2653 
Q 5388 2566 5300 366 
Q 5275 -709 4319 -722 
Q 3806 -722 3425 -703 
Q 3394 -416 3331 -184 
Q 3763 -241 4200 -253 
Q 4806 -297 4813 422 
Q 4863 1259 4888 2216 
L 3481 2216 
Q 3463 1222 3181 572 
Q 2844 -172 2019 -822 
Q 1856 -622 1656 -416 
Q 2450 203 2713 772 
Q 2969 1275 2997 2216 
L 2269 2216 
L 2269 2653 
z
M 75 2353 
Q 969 3534 1525 5284 
L 2013 5116 
Q 1709 4284 1350 3559 
L 1350 -809 
L 875 -809 
L 875 2691 
Q 588 2216 275 1797 
Q 181 2066 75 2353 
z
M 4006 5116 
L 4419 5291 
Q 5038 3703 6325 2972 
Q 6088 2697 5969 2516 
Q 4575 3472 4006 5116 
z
M 1588 2741 
Q 2563 3597 3163 5034 
L 3606 4866 
Q 3025 3409 1963 2397 
Q 1738 2628 1588 2741 
z
" transform="scale(0.015625)"/>
      </defs>
      <use xlink:href="#MicrosoftYaHei-5e74"/>
      <use xlink:href="#MicrosoftYaHei-4efd" x="100"/>
     </g>
    </g>
   </g>
   <g id="matplotlib.axis_2">
    <g id="ytick_1">
     <g id="line2d_10">
      <path d="M 108 491.902148 
L 777.6 491.902148 
" clip-path="url(#p162f95ea87)" style="fill: none; stroke: #ffffff; stroke-width: 1.5; stroke-linecap: round"/>
     </g>
     <g id="text_11">
      <!-- 0 -->
      <g style="fill: #262626" transform="translate(87.759438 497.178023) scale(0.132 -0.132)">
       <use xlink:href="#MicrosoftYaHei-30"/>
      </g>
     </g>
    </g>
    <g id="ytick_2">
     <g id="line2d_11">
      <path d="M 108 433.305903 
L 777.6 433.305903 
" clip-path="url(#p162f95ea87)" style="fill: none; stroke: #ffffff; stroke-width: 1.5; stroke-linecap: round"/>
     </g>
     <g id="text_12">
      <!-- 2 -->
      <g style="fill: #262626" transform="translate(87.759438 438.581778) scale(0.132 -0.132)">
       <use xlink:href="#MicrosoftYaHei-32"/>
      </g>
     </g>
    </g>
    <g id="ytick_3">
     <g id="line2d_12">
      <path d="M 108 374.709658 
L 777.6 374.709658 
" clip-path="url(#p162f95ea87)" style="fill: none; stroke: #ffffff; stroke-width: 1.5; stroke-linecap: round"/>
     </g>
     <g id="text_13">
      <!-- 4 -->
      <g style="fill: #262626" transform="translate(87.759438 379.985533) scale(0.132 -0.132)">
       <defs>
        <path id="MicrosoftYaHei-34" d="M 2906 4841 
L 2906 1644 
L 3631 1644 
L 3631 1138 
L 2906 1138 
L 2906 0 
L 2313 0 
L 2313 1138 
L 53 1138 
L 53 1616 
Q 656 2294 1265 3178 
Q 1875 4063 2272 4841 
L 2906 4841 
z
M 741 1644 
L 2313 1644 
L 2313 3950 
Q 1988 3366 1616 2817 
Q 1244 2269 741 1644 
z
" transform="scale(0.015625)"/>
       </defs>
       <use xlink:href="#MicrosoftYaHei-34"/>
      </g>
     </g>
    </g>
    <g id="ytick_4">
     <g id="line2d_13">
      <path d="M 108 316.113414 
L 777.6 316.113414 
" clip-path="url(#p162f95ea87)" style="fill: none; stroke: #ffffff; stroke-width: 1.5; stroke-linecap: round"/>
     </g>
     <g id="text_14">
      <!-- 6 -->
      <g style="fill: #262626" transform="translate(87.759438 321.389289) scale(0.132 -0.132)">
       <defs>
        <path id="MicrosoftYaHei-36" d="M 3181 4219 
Q 2803 4413 2391 4413 
Q 1763 4413 1381 3866 
Q 1000 3319 994 2372 
L 1009 2372 
Q 1353 3038 2106 3038 
Q 2734 3038 3109 2628 
Q 3484 2219 3484 1541 
Q 3484 831 3051 375 
Q 2619 -81 1947 -81 
Q 1209 -81 789 495 
Q 369 1072 369 2131 
Q 369 3413 920 4167 
Q 1472 4922 2372 4922 
Q 2888 4922 3181 4781 
L 3181 4219 
z
M 1031 1584 
Q 1031 1106 1286 765 
Q 1541 425 1963 425 
Q 2363 425 2613 719 
Q 2863 1013 2863 1475 
Q 2863 1975 2627 2253 
Q 2391 2531 1956 2531 
Q 1544 2531 1287 2250 
Q 1031 1969 1031 1584 
z
" transform="scale(0.015625)"/>
       </defs>
       <use xlink:href="#MicrosoftYaHei-36"/>
      </g>
     </g>
    </g>
    <g id="ytick_5">
     <g id="line2d_14">
      <path d="M 108 257.517169 
L 777.6 257.517169 
" clip-path="url(#p162f95ea87)" style="fill: none; stroke: #ffffff; stroke-width: 1.5; stroke-linecap: round"/>
     </g>
     <g id="text_15">
      <!-- 8 -->
      <g style="fill: #262626" transform="translate(87.759438 262.793044) scale(0.132 -0.132)">
       <use xlink:href="#MicrosoftYaHei-38"/>
      </g>
     </g>
    </g>
    <g id="ytick_6">
     <g id="line2d_15">
      <path d="M 108 198.920924 
L 777.6 198.920924 
" clip-path="url(#p162f95ea87)" style="fill: none; stroke: #ffffff; stroke-width: 1.5; stroke-linecap: round"/>
     </g>
     <g id="text_16">
      <!-- 10 -->
      <g style="fill: #262626" transform="translate(80.018875 204.196799) scale(0.132 -0.132)">
       <use xlink:href="#MicrosoftYaHei-31"/>
       <use xlink:href="#MicrosoftYaHei-30" x="58.642578"/>
      </g>
     </g>
    </g>
    <g id="ytick_7">
     <g id="line2d_16">
      <path d="M 108 140.324679 
L 777.6 140.324679 
" clip-path="url(#p162f95ea87)" style="fill: none; stroke: #ffffff; stroke-width: 1.5; stroke-linecap: round"/>
     </g>
     <g id="text_17">
      <!-- 12 -->
      <g style="fill: #262626" transform="translate(80.018875 145.600554) scale(0.132 -0.132)">
       <use xlink:href="#MicrosoftYaHei-31"/>
       <use xlink:href="#MicrosoftYaHei-32" x="58.642578"/>
      </g>
     </g>
    </g>
    <g id="ytick_8">
     <g id="line2d_17">
      <path d="M 108 81.728434 
L 777.6 81.728434 
" clip-path="url(#p162f95ea87)" style="fill: none; stroke: #ffffff; stroke-width: 1.5; stroke-linecap: round"/>
     </g>
     <g id="text_18">
      <!-- 14 -->
      <g style="fill: #262626" transform="translate(80.018875 87.004309) scale(0.132 -0.132)">
       <use xlink:href="#MicrosoftYaHei-31"/>
       <use xlink:href="#MicrosoftYaHei-34" x="58.642578"/>
      </g>
     </g>
    </g>
    <g id="text_19">
     <!-- 数值 -->
     <g style="fill: #262626" transform="translate(72.439125 305.28) rotate(-90) scale(0.144 -0.144)">
      <defs>
       <path id="MicrosoftYaHei-6570" d="M 4175 5303 
L 4675 5228 
Q 4544 4622 4369 4097 
L 6281 4097 
L 6281 3672 
L 5888 3672 
Q 5731 1834 5088 753 
Q 5594 66 6375 -372 
Q 6175 -647 6038 -866 
Q 5275 -372 4769 309 
Q 4194 -403 3400 -928 
Q 3263 -747 3044 -534 
Q 3919 41 4463 772 
Q 3956 1647 3794 2791 
Q 3663 2559 3519 2359 
Q 3394 2541 3206 2759 
Q 3931 3803 4175 5303 
z
M 150 1697 
L 1100 1697 
Q 1238 1934 1369 2184 
L 1819 2041 
Q 1719 1866 1619 1697 
L 3150 1697 
L 3150 1291 
Q 2913 678 2431 216 
Q 2775 53 3131 -109 
L 2856 -541 
Q 2469 -322 2050 -103 
Q 1344 -609 269 -903 
Q 169 -703 56 -466 
Q 969 -259 1600 128 
Q 1063 403 475 691 
Q 675 978 863 1284 
L 150 1284 
L 150 1697 
z
M 219 3847 
L 1656 3847 
L 1656 5247 
L 2119 5247 
L 2119 3847 
L 3319 3847 
L 3319 3434 
L 2119 3434 
L 2119 3053 
L 2306 3266 
Q 2888 2841 3281 2516 
L 2981 2166 
Q 2638 2491 2119 2897 
L 2119 2184 
L 1656 2184 
L 1656 3059 
Q 1088 2466 331 2016 
Q 213 2197 63 2397 
Q 850 2822 1506 3434 
L 219 3434 
L 219 3847 
z
M 5388 3672 
L 4219 3672 
Q 4188 3591 4150 3516 
Q 4263 2191 4775 1247 
Q 5275 2159 5388 3672 
z
M 1088 834 
Q 1531 634 2000 416 
Q 2431 784 2675 1284 
L 1375 1284 
Q 1231 1053 1088 834 
z
M 3038 5091 
L 3425 4834 
Q 3081 4384 2738 4003 
Q 2594 4128 2400 4266 
Q 2725 4647 3038 5091 
z
M 381 4816 
L 738 5059 
Q 1019 4716 1319 4322 
L 931 4047 
Q 656 4453 381 4816 
z
" transform="scale(0.015625)"/>
       <path id="MicrosoftYaHei-503c" d="M 1619 -216 
L 2250 -216 
L 2250 3653 
L 3725 3653 
L 3725 4222 
L 1913 4222 
L 1913 4647 
L 3725 4647 
L 3725 5309 
L 4200 5309 
L 4200 4647 
L 6169 4647 
L 6169 4222 
L 4200 4222 
L 4200 3653 
L 5713 3653 
L 5713 -216 
L 6306 -216 
L 6306 -641 
L 1619 -641 
L 1619 -216 
z
M 69 2247 
Q 906 3497 1369 5278 
L 1831 5141 
Q 1581 4334 1288 3628 
L 1288 -816 
L 831 -816 
L 831 2666 
Q 563 2166 263 1734 
Q 175 1997 69 2247 
z
M 2713 -216 
L 5250 -216 
L 5250 353 
L 2713 353 
L 2713 -216 
z
M 5250 3241 
L 2713 3241 
L 2713 2678 
L 5250 2678 
L 5250 3241 
z
M 2713 1716 
L 5250 1716 
L 5250 2278 
L 2713 2278 
L 2713 1716 
z
M 2713 753 
L 5250 753 
L 5250 1316 
L 2713 1316 
L 2713 753 
z
" transform="scale(0.015625)"/>
      </defs>
      <use xlink:href="#MicrosoftYaHei-6570"/>
      <use xlink:href="#MicrosoftYaHei-503c" x="100"/>
     </g>
    </g>
   </g>
   <g id="PolyCollection_1"/>
   <g id="PolyCollection_2"/>
   <g id="PolyCollection_3"/>
   <g id="PolyCollection_4"/>
   <g id="line2d_18">
    <path d="M 138.436364 491.902148 
L 153.654545 491.902148 
L 168.872727 491.902148 
L 184.090909 491.902148 
L 199.309091 491.902148 
L 214.527273 491.902148 
L 229.745455 491.902148 
L 244.963636 491.902148 
L 260.181818 491.902148 
L 275.4 491.902148 
L 290.618182 491.902148 
L 305.836364 491.902148 
L 321.054545 491.902148 
L 336.272727 491.902148 
L 351.490909 316.360349 
L 366.709091 395.80547 
L 381.927273 443.201714 
L 397.145455 448.086429 
L 412.363636 367.658758 
L 427.581818 397.243892 
L 442.8 447.222627 
L 458.018182 477.354991 
L 473.236364 469.863323 
L 488.454545 481.429359 
L 503.672727 486.49149 
L 518.890909 486.779786 
L 534.109091 484.800359 
L 549.327273 476.367863 
L 564.545455 479.545671 
L 579.763636 483.482651 
L 594.981818 486.192353 
L 610.2 488.269394 
L 625.418182 488.616513 
L 640.636364 489.256598 
L 655.854545 490.356393 
L 671.072727 490.24482 
L 686.290909 490.031249 
L 701.509091 491.117471 
L 716.727273 489.104434 
L 731.945455 489.364914 
L 747.163636 488.955996 
" clip-path="url(#p162f95ea87)" style="fill: none; stroke: #4c72b0; stroke-width: 4; stroke-linecap: round"/>
   </g>
   <g id="line2d_19">
    <path d="M 138.436364 491.902148 
L 153.654545 491.902148 
L 168.872727 491.902148 
L 184.090909 491.902148 
L 199.309091 491.902148 
L 214.527273 491.902148 
L 229.745455 491.902148 
L 244.963636 491.902148 
L 260.181818 491.902148 
L 275.4 491.902148 
L 290.618182 491.902148 
L 305.836364 491.902148 
L 321.054545 491.902148 
L 336.272727 491.902148 
L 351.490909 318.309731 
L 366.709091 396.928516 
L 381.927273 443.845791 
L 397.145455 448.647838 
L 412.363636 368.771326 
L 427.581818 398.092758 
L 442.8 447.729768 
L 458.018182 477.652652 
L 473.236364 470.191421 
L 488.454545 481.674589 
L 503.672727 486.704092 
L 518.890909 486.992678 
L 534.109091 485.027644 
L 549.327273 476.653737 
L 564.545455 479.816672 
L 579.763636 483.734974 
L 594.981818 486.427759 
L 610.2 488.485457 
L 625.418182 488.842201 
L 640.636364 489.478042 
L 655.854545 490.558783 
L 671.072727 490.434185 
L 686.290909 490.212991 
L 701.509091 491.296361 
L 716.727273 489.258302 
L 731.945455 489.472265 
L 747.163636 489.025369 
" clip-path="url(#p162f95ea87)" style="fill: none; stroke: #dd8452; stroke-width: 4; stroke-linecap: round"/>
   </g>
   <g id="line2d_20">
    <path d="M 138.436364 491.902148 
L 153.654545 491.902148 
L 168.872727 491.902148 
L 184.090909 491.902148 
L 199.309091 491.902148 
L 214.527273 491.902148 
L 229.745455 491.902148 
L 244.963636 491.902148 
L 260.181818 388.664349 
L 275.4 433.765668 
L 290.618182 467.323322 
L 305.836364 446.182473 
L 321.054545 413.410586 
L 336.272727 416.609849 
L 351.490909 449.850675 
L 366.709091 453.987946 
L 381.927273 466.347395 
L 397.145455 465.090631 
L 412.363636 468.781908 
L 427.581818 468.438427 
L 442.8 463.909339 
L 458.018182 471.764016 
L 473.236364 479.786102 
L 488.454545 483.039529 
L 503.672727 485.075376 
L 518.890909 486.975014 
L 534.109091 487.059704 
L 549.327273 486.617475 
L 564.545455 487.065569 
L 579.763636 487.251101 
L 594.981818 487.706943 
L 610.2 487.749869 
L 625.418182 488.346034 
L 640.636364 488.999646 
L 655.854545 490.709769 
L 671.072727 491.922628 
L 686.290909 490.405511 
L 701.509091 489.804251 
L 716.727273 488.478491 
L 731.945455 490.312927 
L 747.163636 492.48 
" clip-path="url(#p162f95ea87)" style="fill: none; stroke: #55a868; stroke-width: 4; stroke-linecap: round"/>
   </g>
   <g id="line2d_21">
    <path d="M 138.436364 491.902148 
L 153.654545 491.902148 
L 168.872727 491.902148 
L 184.090909 491.902148 
L 199.309091 491.902148 
L 214.527273 491.902148 
L 229.745455 491.902148 
L 244.963636 491.902148 
L 260.181818 491.902148 
L 275.4 491.902148 
L 290.618182 491.902148 
L 305.836364 491.902148 
L 321.054545 491.902148 
L 336.272727 491.902148 
L 351.490909 491.902148 
L 366.709091 491.902148 
L 381.927273 491.902148 
L 397.145455 491.902148 
L 412.363636 491.902148 
L 427.581818 491.902148 
L 442.8 491.902148 
L 458.018182 89.28 
L 473.236364 235.629418 
L 488.454545 422.152261 
L 503.672727 456.454169 
L 518.890909 477.576527 
L 534.109091 481.537586 
L 549.327273 483.152561 
L 564.545455 484.843345 
L 579.763636 484.648777 
L 594.981818 485.800723 
L 610.2 485.112887 
L 625.418182 488.584466 
L 640.636364 489.780826 
L 655.854545 490.275327 
L 671.072727 480.926193 
L 686.290909 487.258789 
L 701.509091 485.57576 
L 716.727273 491.062185 
L 731.945455 489.027273 
L 747.163636 489.788693 
" clip-path="url(#p162f95ea87)" style="fill: none; stroke: #c44e52; stroke-width: 4; stroke-linecap: round"/>
   </g>
   <g id="patch_3">
    <path d="M 108 512.64 
L 108 69.12 
" style="fill: none; stroke: #ffffff; stroke-width: 1.875; stroke-linejoin: miter; stroke-linecap: square"/>
   </g>
   <g id="patch_4">
    <path d="M 777.6 512.64 
L 777.6 69.12 
" style="fill: none; stroke: #ffffff; stroke-width: 1.875; stroke-linejoin: miter; stroke-linecap: square"/>
   </g>
   <g id="patch_5">
    <path d="M 108 512.64 
L 777.6 512.64 
" style="fill: none; stroke: #ffffff; stroke-width: 1.875; stroke-linejoin: miter; stroke-linecap: square"/>
   </g>
   <g id="patch_6">
    <path d="M 108 69.12 
L 777.6 69.12 
" style="fill: none; stroke: #ffffff; stroke-width: 1.875; stroke-linejoin: miter; stroke-linecap: square"/>
   </g>
   <g id="text_20">
    <!-- 中国互联网用户的数量（单位：千万人）、占人口的比例、移动互联网订阅每一百人比例、宽带每一百人订阅比例的增长率 -->
    <g style="fill: #262626" transform="translate(54 63.12) scale(0.144 -0.144)">
     <defs>
      <path id="MicrosoftYaHei-4e2d" d="M 525 3972 
L 2931 3972 
L 2931 5334 
L 3469 5334 
L 3469 3972 
L 5900 3972 
L 5900 1122 
L 5388 1122 
L 5388 1459 
L 3469 1459 
L 3469 -866 
L 2931 -866 
L 2931 1459 
L 1038 1459 
L 1038 1122 
L 525 1122 
L 525 3972 
z
M 5388 3509 
L 3469 3509 
L 3469 1922 
L 5388 1922 
L 5388 3509 
z
M 1038 1922 
L 2931 1922 
L 2931 3509 
L 1038 3509 
L 1038 1922 
z
" transform="scale(0.015625)"/>
      <path id="MicrosoftYaHei-56fd" d="M 469 4997 
L 5938 4997 
L 5938 -834 
L 5456 -834 
L 5456 -522 
L 950 -522 
L 950 -841 
L 469 -841 
L 469 4997 
z
M 5456 4553 
L 950 4553 
L 950 -78 
L 5456 -78 
L 5456 4553 
z
M 1238 1009 
L 2963 1009 
L 2963 2247 
L 1456 2247 
L 1456 2672 
L 2963 2672 
L 2963 3509 
L 1338 3509 
L 1338 3934 
L 5063 3934 
L 5063 3509 
L 3425 3509 
L 3425 2672 
L 4938 2672 
L 4938 2247 
L 3425 2247 
L 3425 1009 
L 5163 1009 
L 5163 584 
L 1238 584 
L 1238 1009 
z
M 3750 1847 
L 4100 2109 
Q 4444 1753 4688 1441 
L 4319 1159 
Q 4019 1566 3750 1847 
z
" transform="scale(0.015625)"/>
      <path id="MicrosoftYaHei-4e92" d="M 238 72 
L 4472 72 
L 4550 1147 
L 1025 1147 
L 1025 1591 
L 1419 4341 
L 463 4341 
L 463 4791 
L 5950 4791 
L 5950 4341 
L 1944 4341 
L 1809 3422 
L 5238 3422 
L 4997 72 
L 6188 72 
L 6188 -366 
L 238 -366 
L 238 72 
z
M 4681 2972 
L 1747 2972 
L 1550 1597 
L 4581 1597 
L 4681 2972 
z
" transform="scale(0.015625)"/>
      <path id="MicrosoftYaHei-8054" d="M 81 553 
Q 319 591 556 631 
L 556 4428 
L 150 4428 
L 150 4866 
L 2850 4866 
L 2850 4428 
L 2381 4428 
L 2381 953 
Q 2666 1006 2950 1059 
Q 2963 803 2994 622 
Q 2697 563 2381 500 
L 2381 -822 
L 1925 -822 
L 1925 406 
Q 1122 244 200 53 
L 81 553 
z
M 2600 2397 
L 4044 2397 
Q 4069 2853 4066 3528 
L 2775 3528 
L 2775 3991 
L 4463 3991 
Q 4744 4441 5200 5309 
L 5688 5078 
Q 5300 4475 4966 3991 
L 6013 3991 
L 6013 3528 
L 4550 3528 
Q 4550 2850 4528 2397 
L 6225 2397 
L 6225 1934 
L 4591 1934 
Q 5069 441 6313 -284 
Q 6088 -509 5913 -753 
Q 4803 88 4350 1353 
Q 4006 13 2831 -816 
Q 2638 -572 2481 -409 
Q 3784 413 4006 1934 
L 2600 1934 
L 2600 2397 
z
M 1925 869 
L 1925 1753 
L 1013 1753 
L 1013 709 
Q 1472 788 1925 869 
z
M 1013 2178 
L 1925 2178 
L 1925 3091 
L 1013 3091 
L 1013 2178 
z
M 1013 3516 
L 1925 3516 
L 1925 4428 
L 1013 4428 
L 1013 3516 
z
M 3013 5053 
L 3375 5309 
Q 3750 4884 4081 4378 
L 3675 4097 
Q 3413 4528 3013 5053 
z
" transform="scale(0.015625)"/>
      <path id="MicrosoftYaHei-7f51" d="M 1075 3641 
L 1444 3834 
Q 1816 3244 2184 2628 
Q 2488 3281 2706 3928 
L 3131 3772 
Q 2822 2931 2450 2175 
Q 2809 1563 3163 922 
L 2738 697 
Q 2478 1191 2203 1691 
Q 1819 969 1375 328 
L 1000 544 
L 1000 -759 
L 531 -759 
L 531 4953 
L 5856 4953 
L 5856 -59 
Q 5856 -728 5138 -728 
Q 4738 -728 4181 -716 
Q 4150 -516 4094 -228 
Q 4619 -272 4988 -272 
Q 5388 -272 5388 72 
L 5388 4503 
L 1000 4503 
L 1000 572 
Q 1538 1363 1947 2150 
Q 1531 2891 1075 3641 
z
M 3156 3341 
L 3519 3553 
Q 3831 3047 4166 2481 
Q 4525 3197 4775 3891 
L 5200 3728 
Q 4847 2838 4428 2028 
Q 4822 1353 5244 597 
L 4825 359 
Q 4513 953 4175 1559 
Q 3788 866 3350 241 
L 2969 484 
Q 3506 1263 3919 2016 
Q 3553 2672 3156 3341 
z
" transform="scale(0.015625)"/>
      <path id="MicrosoftYaHei-7528" d="M 3088 -734 
L 3088 1253 
L 1269 1253 
Q 1163 -47 513 -903 
Q 350 -697 144 -472 
Q 550 103 694 803 
Q 831 1478 831 2716 
L 831 4947 
L 5925 4947 
L 5925 -22 
Q 5925 -766 5219 -766 
Q 4788 -766 4250 -747 
Q 4219 -541 4156 -228 
Q 4700 -266 5038 -266 
Q 5425 -266 5425 103 
L 5425 1253 
L 3588 1253 
L 3588 -734 
L 3088 -734 
z
M 3588 1703 
L 5425 1703 
L 5425 2872 
L 3588 2872 
L 3588 1703 
z
M 5425 4484 
L 3588 4484 
L 3588 3322 
L 5425 3322 
L 5425 4484 
z
M 1303 1703 
L 3088 1703 
L 3088 2872 
L 1331 2872 
Q 1350 2266 1303 1703 
z
M 1331 4484 
L 1331 3322 
L 3088 3322 
L 3088 4484 
L 1331 4484 
z
" transform="scale(0.015625)"/>
      <path id="MicrosoftYaHei-6237" d="M 2725 5116 
L 3175 5384 
Q 3475 5028 3769 4609 
L 3463 4416 
L 5794 4416 
L 5794 1647 
L 5294 1647 
L 5294 1972 
L 1347 1972 
Q 1263 172 419 -903 
Q 250 -697 56 -491 
Q 856 484 856 2434 
L 856 4416 
L 3241 4416 
Q 3013 4766 2725 5116 
z
M 1356 3966 
L 1356 2422 
L 5294 2422 
L 5294 3966 
L 1356 3966 
z
" transform="scale(0.015625)"/>
      <path id="MicrosoftYaHei-7684" d="M 356 4284 
L 988 4284 
Q 1219 4853 1369 5322 
L 1894 5172 
Q 1697 4694 1513 4284 
L 2763 4284 
L 2763 -691 
L 2263 -691 
L 2263 -203 
L 856 -203 
L 856 -734 
L 356 -734 
L 356 4284 
z
M 2856 3003 
Q 3444 3934 3850 5322 
L 4375 5191 
Q 4216 4719 4050 4303 
L 6063 4303 
Q 5988 1091 5938 259 
Q 5894 -722 4906 -722 
Q 4338 -722 3750 -684 
Q 3713 -372 3650 -128 
L 3669 -128 
Q 4294 -216 4813 -216 
Q 5381 -216 5425 384 
Q 5494 1316 5525 3834 
L 3850 3834 
Q 3578 3231 3288 2772 
Q 3119 2891 2856 3003 
z
M 856 266 
L 2263 266 
L 2263 1847 
L 856 1847 
L 856 266 
z
M 2263 3816 
L 856 3816 
L 856 2297 
L 2263 2297 
L 2263 3816 
z
M 3406 2578 
L 3788 2859 
Q 4481 2041 4894 1441 
L 4431 1116 
Q 3988 1841 3406 2578 
z
" transform="scale(0.015625)"/>
      <path id="MicrosoftYaHei-91cf" d="M 113 -278 
L 2981 -278 
L 2981 78 
L 475 78 
L 475 403 
L 2981 403 
L 2981 759 
L 1494 759 
L 1494 597 
L 1069 597 
L 1069 2516 
L 5350 2516 
L 5350 597 
L 4925 597 
L 4925 759 
L 3419 759 
L 3419 403 
L 5931 403 
L 5931 78 
L 3419 78 
L 3419 -278 
L 6288 -278 
L 6288 -616 
L 113 -616 
L 113 -278 
z
M 1119 5072 
L 5306 5072 
L 5306 3284 
L 4881 3284 
L 4881 3453 
L 1544 3453 
L 1544 3284 
L 1119 3284 
L 1119 5072 
z
M 163 3153 
L 6263 3153 
L 6263 2816 
L 163 2816 
L 163 3153 
z
M 1544 3778 
L 4881 3778 
L 4881 4116 
L 1544 4116 
L 1544 3778 
z
M 4881 4747 
L 1544 4747 
L 1544 4416 
L 4881 4416 
L 4881 4747 
z
M 3419 1084 
L 4925 1084 
L 4925 1491 
L 3419 1491 
L 3419 1084 
z
M 1494 1084 
L 2981 1084 
L 2981 1491 
L 1494 1491 
L 1494 1084 
z
M 4925 2191 
L 3419 2191 
L 3419 1791 
L 4925 1791 
L 4925 2191 
z
M 1494 1791 
L 2981 1791 
L 2981 2191 
L 1494 2191 
L 1494 1791 
z
" transform="scale(0.015625)"/>
      <path id="MicrosoftYaHei-ff08" d="M 5288 -1100 
Q 4172 119 4172 1850 
Q 4172 3603 5288 4838 
L 5825 4838 
Q 4716 3572 4716 1856 
Q 4716 166 5819 -1100 
L 5288 -1100 
z
" transform="scale(0.015625)"/>
      <path id="MicrosoftYaHei-5355" d="M 125 909 
L 2956 909 
L 2956 1616 
L 1225 1616 
L 1225 1322 
L 750 1322 
L 750 4353 
L 2047 4353 
Q 1747 4703 1400 5072 
L 1756 5366 
Q 2219 4922 2569 4547 
L 2338 4353 
L 3803 4353 
Q 4147 4809 4500 5347 
L 5000 5078 
Q 4678 4688 4378 4353 
L 5656 4353 
L 5656 1322 
L 5181 1322 
L 5181 1616 
L 3444 1616 
L 3444 909 
L 6275 909 
L 6275 459 
L 3444 459 
L 3444 -859 
L 2956 -859 
L 2956 459 
L 125 459 
L 125 909 
z
M 3444 2053 
L 5181 2053 
L 5181 2778 
L 3444 2778 
L 3444 2053 
z
M 1225 2053 
L 2956 2053 
L 2956 2778 
L 1225 2778 
L 1225 2053 
z
M 5181 3916 
L 3444 3916 
L 3444 3203 
L 5181 3203 
L 5181 3916 
z
M 1225 3203 
L 2956 3203 
L 2956 3916 
L 1225 3916 
L 1225 3203 
z
" transform="scale(0.015625)"/>
      <path id="MicrosoftYaHei-4f4d" d="M 1788 -59 
L 4228 -59 
Q 4678 1144 5269 3372 
L 5831 3203 
Q 5453 2044 4756 -59 
L 6319 -59 
L 6319 -522 
L 1788 -522 
L 1788 -59 
z
M 81 2291 
Q 975 3641 1431 5322 
L 1963 5191 
Q 1703 4397 1406 3709 
L 1406 -853 
L 938 -853 
L 938 2731 
Q 644 2181 319 1716 
Q 231 1953 81 2291 
z
M 1919 4191 
L 4122 4191 
Q 3844 4659 3506 5059 
L 3931 5353 
Q 4206 5034 4613 4497 
L 4150 4191 
L 6206 4191 
L 6206 3728 
L 1919 3728 
L 1919 4191 
z
M 2769 3309 
Q 3181 2184 3669 584 
L 3150 434 
Q 2725 1966 2294 3147 
L 2769 3309 
z
" transform="scale(0.015625)"/>
      <path id="MicrosoftYaHei-ff1a" d="M 1606 3531 
Q 1772 3531 1890 3415 
Q 2009 3300 2009 3138 
Q 2009 2975 1893 2858 
Q 1778 2741 1606 2741 
Q 1434 2741 1318 2858 
Q 1203 2975 1203 3138 
Q 1203 3300 1322 3415 
Q 1441 3531 1606 3531 
z
M 1606 716 
Q 1772 716 1890 600 
Q 2009 484 2009 319 
Q 2009 150 1890 36 
Q 1772 -78 1606 -78 
Q 1441 -78 1322 36 
Q 1203 150 1203 319 
Q 1203 484 1322 600 
Q 1441 716 1606 716 
z
" transform="scale(0.015625)"/>
      <path id="MicrosoftYaHei-5343" d="M 238 2584 
L 2931 2584 
L 2931 4284 
Q 1869 4225 656 4172 
Q 619 4391 556 4691 
Q 3506 4784 5713 5003 
L 5788 4484 
Q 4750 4394 3481 4316 
L 3481 2584 
L 6163 2584 
L 6163 2097 
L 3481 2097 
L 3481 -797 
L 2931 -797 
L 2931 2097 
L 238 2097 
L 238 2584 
z
" transform="scale(0.015625)"/>
      <path id="MicrosoftYaHei-4e07" d="M 188 4803 
L 6213 4803 
L 6213 4322 
L 2634 4322 
Q 2609 3625 2569 3016 
L 5469 3016 
Q 5406 1741 5325 597 
Q 5269 -97 5006 -403 
Q 4756 -684 4100 -691 
Q 3756 -703 2938 -641 
Q 2906 -403 2844 -66 
Q 3638 -172 4056 -172 
Q 4725 -222 4794 672 
Q 4869 1547 4906 2541 
L 2531 2541 
Q 2297 253 481 -859 
Q 338 -666 113 -416 
Q 1869 653 1994 2772 
Q 2053 3456 2072 4322 
L 188 4322 
L 188 4803 
z
" transform="scale(0.015625)"/>
      <path id="MicrosoftYaHei-4eba" d="M 100 -303 
Q 2825 1272 2981 5222 
L 3531 5222 
Q 3497 4553 3400 3947 
Q 4175 822 6313 -166 
Q 6050 -453 5850 -709 
Q 3994 341 3203 3006 
Q 2519 431 494 -778 
Q 325 -547 100 -303 
z
" transform="scale(0.015625)"/>
      <path id="MicrosoftYaHei-ff09" d="M 1113 -1100 
L 575 -1100 
Q 1684 163 1684 1888 
Q 1684 3581 581 4838 
L 1113 4838 
Q 2222 3628 2222 1888 
Q 2222 128 1113 -1100 
z
" transform="scale(0.015625)"/>
      <path id="MicrosoftYaHei-3001" d="M 1931 -413 
L 1556 -791 
Q 1028 -216 397 306 
L 728 650 
Q 1506 22 1931 -413 
z
" transform="scale(0.015625)"/>
      <path id="MicrosoftYaHei-5360" d="M 863 2434 
L 2775 2434 
L 2775 5259 
L 3288 5259 
L 3288 4209 
L 6150 4209 
L 6150 3747 
L 3288 3747 
L 3288 2434 
L 5525 2434 
L 5525 -841 
L 5025 -841 
L 5025 -453 
L 1363 -453 
L 1363 -853 
L 863 -853 
L 863 2434 
z
M 5025 1984 
L 1363 1984 
L 1363 -9 
L 5025 -9 
L 5025 1984 
z
" transform="scale(0.015625)"/>
      <path id="MicrosoftYaHei-53e3" d="M 713 4684 
L 5675 4684 
L 5675 -578 
L 5138 -578 
L 5138 28 
L 1250 28 
L 1250 -578 
L 713 -578 
L 713 4684 
z
M 5138 497 
L 5138 4216 
L 1250 4216 
L 1250 497 
L 5138 497 
z
" transform="scale(0.015625)"/>
      <path id="MicrosoftYaHei-6bd4" d="M 3225 5316 
L 3744 5316 
L 3744 2672 
Q 4959 3550 5744 4509 
L 6188 4178 
Q 5175 3063 3744 2056 
L 3744 247 
Q 3744 -166 4106 -166 
L 5175 -166 
Q 5588 -166 5650 203 
Q 5725 678 5763 1247 
Q 6025 1147 6300 1066 
Q 6244 484 6150 22 
Q 6019 -622 5319 -622 
L 3944 -622 
Q 3225 -622 3225 159 
L 3225 5316 
z
M 1063 5153 
L 1063 3278 
L 2825 3278 
L 2825 2809 
L 1063 2809 
L 1063 153 
Q 1713 428 2763 928 
Q 2763 634 2788 366 
Q 1869 -3 1231 -328 
Q 956 -472 725 -672 
L 344 -184 
Q 544 -34 544 272 
L 544 5153 
L 1063 5153 
z
" transform="scale(0.015625)"/>
      <path id="MicrosoftYaHei-4f8b" d="M 2381 1841 
L 2631 2191 
Q 2916 1997 3247 1738 
Q 3488 2378 3581 3128 
L 2703 3128 
Q 2350 1984 1831 1291 
Q 1700 1491 1531 1678 
Q 2238 2694 2578 4522 
L 1900 4522 
L 1900 4959 
L 4319 4959 
L 4319 4522 
L 3044 4522 
Q 2947 4009 2828 3559 
L 4044 3559 
L 4044 3128 
Q 3788 666 2038 -822 
Q 1900 -634 1694 -416 
Q 2578 297 3063 1303 
Q 2753 1556 2381 1841 
z
M 88 2291 
Q 894 3659 1281 5322 
L 1744 5234 
Q 1578 4534 1325 3853 
L 1325 -809 
L 900 -809 
L 900 2847 
Q 625 2275 288 1716 
Q 213 1966 88 2291 
z
M 5575 5303 
L 6031 5303 
L 6031 84 
Q 6031 -391 5881 -566 
Q 5750 -728 5356 -734 
Q 5088 -741 4488 -722 
Q 4463 -466 4400 -203 
Q 4881 -253 5188 -253 
Q 5431 -259 5500 -166 
Q 5575 -84 5575 234 
L 5575 5303 
z
M 4913 653 
L 4469 653 
L 4469 4322 
L 4913 4322 
L 4913 653 
z
" transform="scale(0.015625)"/>
      <path id="MicrosoftYaHei-79fb" d="M 2244 703 
Q 3244 1434 3875 2441 
Q 3300 2159 2594 1928 
Q 2494 2122 2363 2347 
Q 3288 2616 4013 3022 
Q 3744 3284 3306 3641 
L 3594 3953 
Q 4050 3597 4400 3284 
Q 4981 3653 5488 4341 
L 3619 4341 
Q 3256 3834 2638 3303 
Q 2506 3472 2331 3653 
Q 3231 4384 3713 5353 
L 4156 5184 
Q 4050 4978 3925 4784 
L 6013 4784 
L 6013 4334 
Q 5475 3291 4113 2559 
L 4444 2447 
Q 4344 2284 4238 2128 
L 6219 2128 
L 6219 1672 
Q 5388 -234 2431 -922 
Q 2319 -684 2206 -509 
Q 3200 -297 4094 153 
Q 3825 447 3450 797 
L 3750 1097 
Q 4156 734 4494 397 
Q 5288 959 5706 1684 
L 3913 1684 
Q 3338 941 2531 309 
Q 2413 484 2244 703 
z
M 50 859 
Q 681 1759 1056 2947 
L 131 2947 
L 131 3391 
L 1119 3391 
L 1119 4372 
Q 719 4341 263 4309 
Q 231 4522 169 4766 
Q 1444 4834 2394 4972 
L 2506 4497 
Q 2119 4453 1581 4409 
L 1581 3391 
L 2450 3391 
L 2450 2947 
L 1581 2947 
L 1581 2147 
L 1788 2378 
Q 2200 2053 2606 1697 
L 2275 1328 
Q 1956 1628 1581 1972 
L 1581 -859 
L 1119 -859 
L 1119 1897 
Q 781 1009 269 322 
Q 169 591 50 859 
z
" transform="scale(0.015625)"/>
      <path id="MicrosoftYaHei-52a8" d="M 2975 4022 
L 3906 4022 
Q 3916 4650 3913 5309 
L 4425 5309 
Q 4422 4656 4409 4022 
L 6094 4022 
Q 6050 1659 5969 216 
Q 5900 -666 5150 -678 
Q 4763 -678 4306 -659 
Q 4263 -397 4206 -109 
Q 4638 -166 4994 -172 
Q 5456 -172 5475 347 
Q 5569 1897 5588 3547 
L 4400 3547 
Q 4394 3278 4388 3016 
Q 4356 553 2900 -872 
Q 2725 -659 2525 -447 
Q 3831 716 3888 3028 
Q 3894 3284 3900 3547 
L 2975 3547 
L 2975 4022 
z
M 2338 1866 
Q 2731 1016 3063 178 
Q 2788 59 2594 -28 
Q 2550 91 2506 209 
Q 1316 97 338 -16 
L 119 491 
Q 394 647 563 997 
Q 869 1613 1200 2559 
L 144 2559 
L 144 3022 
L 3163 3022 
L 3163 2559 
L 1725 2559 
Q 1191 1228 800 491 
Q 1519 544 2347 631 
Q 2138 1163 1906 1672 
L 2338 1866 
z
M 406 4778 
L 2913 4778 
L 2913 4316 
L 406 4316 
L 406 4778 
z
" transform="scale(0.015625)"/>
      <path id="MicrosoftYaHei-8ba2" d="M 2325 4803 
L 6319 4803 
L 6319 4334 
L 4906 4334 
L 4906 159 
Q 4906 -691 4069 -697 
Q 3613 -697 2925 -697 
Q 2888 -466 2825 -122 
Q 3450 -178 3906 -178 
Q 4375 -178 4375 297 
L 4375 4334 
L 2325 4334 
L 2325 4803 
z
M 2625 1291 
Q 2688 972 2750 741 
Q 2125 328 1494 -153 
Q 1325 -291 1131 -497 
L 738 -116 
Q 981 116 981 534 
L 981 2697 
L 81 2697 
L 81 3172 
L 1488 3172 
L 1488 466 
Q 1956 784 2625 1291 
z
M 844 5216 
Q 1469 4666 1963 4166 
L 1550 3778 
Q 1094 4303 488 4872 
L 844 5216 
z
" transform="scale(0.015625)"/>
      <path id="MicrosoftYaHei-9605" d="M 1675 3284 
L 2538 3284 
Q 2281 3634 1950 4022 
L 2288 4284 
Q 2713 3841 2969 3497 
L 2669 3284 
L 3381 3284 
Q 3731 3772 4019 4278 
L 4450 4028 
Q 4175 3641 3888 3284 
L 4738 3284 
L 4738 1522 
L 3863 1522 
L 3863 672 
Q 3863 403 4113 403 
L 4413 403 
Q 4731 403 4763 709 
Q 4788 941 4788 1266 
Q 4931 1216 5225 1103 
Q 5200 684 5163 503 
Q 5088 -3 4494 -3 
L 3969 -3 
Q 3425 -3 3425 578 
L 3425 1522 
L 2938 1522 
Q 2894 822 2588 434 
Q 2288 22 1419 -309 
Q 1300 -97 1144 91 
Q 1894 334 2231 709 
Q 2456 991 2494 1522 
L 2125 1522 
L 2125 1347 
L 1675 1347 
L 1675 3284 
z
M 2350 4472 
L 2350 4922 
L 6006 4922 
L 6006 -9 
Q 6006 -816 5106 -816 
Q 4631 -816 4169 -803 
Q 4131 -584 4069 -322 
Q 4588 -359 5025 -359 
Q 5525 -359 5525 72 
L 5525 4472 
L 2350 4472 
z
M 419 4084 
L 900 4084 
L 900 -816 
L 419 -816 
L 419 4084 
z
M 4288 2872 
L 2125 2872 
L 2125 1934 
L 4288 1934 
L 4288 2872 
z
M 744 5016 
L 1088 5322 
Q 1644 4816 1931 4478 
L 1544 4134 
Q 1225 4516 744 5016 
z
" transform="scale(0.015625)"/>
      <path id="MicrosoftYaHei-6bcf" d="M 125 2203 
L 1044 2203 
L 1325 3766 
L 5456 3766 
Q 5422 2928 5391 2203 
L 6300 2203 
L 6300 1753 
L 5372 1753 
Q 5344 1141 5319 616 
L 6075 616 
L 6075 178 
L 5284 178 
Q 5222 -278 5031 -484 
Q 4788 -753 4181 -753 
Q 3831 -753 3288 -728 
Q 3256 -516 3194 -222 
Q 3838 -278 4119 -278 
Q 4513 -278 4638 -128 
Q 4722 -41 4766 178 
L 763 178 
L 763 647 
L 963 1753 
L 125 1753 
L 125 2203 
z
M 4866 1753 
L 1472 1753 
L 1275 616 
L 4813 616 
Q 4844 1172 4866 1753 
z
M 4925 3328 
L 1750 3328 
L 1553 2203 
L 4888 2203 
Q 4906 2753 4925 3328 
z
M 100 3522 
Q 1025 4309 1550 5359 
L 2113 5359 
Q 1966 5069 1803 4803 
L 6156 4803 
L 6156 4353 
L 1509 4353 
Q 1022 3659 413 3134 
Q 281 3316 100 3522 
z
M 2619 2978 
L 2913 3303 
Q 3388 2934 3750 2622 
L 3413 2247 
Q 3025 2628 2619 2978 
z
M 2569 1391 
L 2863 1716 
Q 3338 1347 3700 1034 
L 3369 666 
Q 2888 1116 2569 1391 
z
" transform="scale(0.015625)"/>
      <path id="MicrosoftYaHei-4e00" d="M 100 2703 
L 6313 2703 
L 6313 2153 
L 100 2153 
L 100 2703 
z
" transform="scale(0.015625)"/>
      <path id="MicrosoftYaHei-767e" d="M 813 3653 
L 2734 3653 
L 2906 4503 
L 163 4503 
L 163 4966 
L 6244 4966 
L 6244 4503 
L 3416 4503 
L 3216 3653 
L 5600 3653 
L 5600 -784 
L 5100 -784 
L 5100 -322 
L 1313 -322 
L 1313 -784 
L 813 -784 
L 813 3653 
z
M 1313 128 
L 5100 128 
L 5100 1453 
L 1313 1453 
L 1313 128 
z
M 5100 3203 
L 1313 3203 
L 1313 1903 
L 5100 1903 
L 5100 3203 
z
" transform="scale(0.015625)"/>
      <path id="MicrosoftYaHei-5bbd" d="M 3356 1797 
Q 3344 1394 3269 1066 
L 3694 1066 
L 3694 134 
Q 3694 -291 4138 -291 
L 5150 -291 
Q 5619 -291 5713 -3 
Q 5781 228 5825 741 
Q 6050 641 6313 559 
Q 6238 97 6163 -172 
Q 6013 -722 5331 -722 
L 4000 -722 
Q 3213 -722 3213 72 
L 3213 850 
Q 2913 -409 406 -853 
Q 288 -609 144 -391 
Q 1656 -128 2288 353 
Q 2856 797 2869 1797 
L 3356 1797 
z
M 225 3528 
L 1925 3528 
L 1925 4022 
L 2413 4022 
L 2413 3528 
L 3988 3528 
L 3988 4022 
L 4475 4022 
L 4475 3528 
L 6200 3528 
L 6200 3091 
L 4475 3091 
L 4475 2622 
L 3988 2622 
L 3988 3091 
L 2413 3091 
L 2413 2622 
L 1925 2622 
L 1925 3091 
L 225 3091 
L 225 3528 
z
M 875 2434 
L 5338 2434 
L 5338 397 
L 4850 397 
L 4850 2003 
L 1363 2003 
L 1363 347 
L 875 347 
L 875 2434 
z
M 363 4666 
L 3003 4666 
Q 2869 4909 2719 5134 
L 3194 5347 
Q 3428 4991 3603 4666 
L 6031 4666 
L 6031 3672 
L 5531 3672 
L 5531 4228 
L 863 4228 
L 863 3672 
L 363 3672 
L 363 4666 
z
" transform="scale(0.015625)"/>
      <path id="MicrosoftYaHei-5e26" d="M 1500 -303 
L 1013 -303 
L 1013 1959 
L 2956 1959 
L 2956 2541 
L 3456 2541 
L 3456 1959 
L 5406 1959 
L 5406 341 
Q 5406 -234 4775 -234 
Q 4550 -234 3956 -228 
Q 3925 -28 3863 241 
Q 4431 203 4625 203 
Q 4919 203 4919 466 
L 4919 1522 
L 3456 1522 
L 3456 -841 
L 2956 -841 
L 2956 1522 
L 1500 1522 
L 1500 -303 
z
M 125 4534 
L 1413 4534 
L 1413 5297 
L 1881 5297 
L 1881 4534 
L 2956 4534 
L 2956 5297 
L 3425 5297 
L 3425 4534 
L 4506 4534 
L 4506 5297 
L 4975 5297 
L 4975 4534 
L 6263 4534 
L 6263 4097 
L 4975 4097 
L 4975 3409 
L 4506 3409 
L 4506 4097 
L 3425 4097 
L 3425 3409 
L 2956 3409 
L 2956 4097 
L 1881 4097 
L 1881 3409 
L 1413 3409 
L 1413 4097 
L 125 4097 
L 125 4534 
z
M 338 3159 
L 6069 3159 
L 6069 2022 
L 5581 2022 
L 5581 2722 
L 825 2722 
L 825 2022 
L 338 2022 
L 338 3159 
z
" transform="scale(0.015625)"/>
      <path id="MicrosoftYaHei-589e" d="M 2188 4459 
L 3259 4459 
Q 3041 4781 2775 5116 
L 3131 5366 
Q 3456 4991 3694 4666 
L 3403 4459 
L 4453 4459 
Q 4759 4888 5050 5372 
L 5500 5116 
Q 5234 4772 4978 4459 
L 6038 4459 
L 6038 2122 
L 5600 2122 
L 5600 2309 
L 2625 2309 
L 2625 2122 
L 2188 2122 
L 2188 4459 
z
M 2438 1797 
L 5788 1797 
L 5788 -847 
L 5338 -847 
L 5338 -547 
L 2888 -547 
L 2888 -847 
L 2438 -847 
L 2438 1797 
z
M 81 428 
Q 466 538 894 672 
L 894 3253 
L 144 3253 
L 144 3697 
L 894 3697 
L 894 5259 
L 1356 5259 
L 1356 3697 
L 2000 3697 
L 2000 3253 
L 1356 3253 
L 1356 819 
Q 1709 931 2094 1059 
Q 2106 759 2125 553 
Q 1306 316 250 -53 
L 81 428 
z
M 5600 4084 
L 4325 4084 
L 4325 2684 
L 5600 2684 
L 5600 4084 
z
M 2625 2684 
L 3894 2684 
L 3894 4084 
L 2625 4084 
L 2625 2684 
z
M 5338 1409 
L 2888 1409 
L 2888 809 
L 5338 809 
L 5338 1409 
z
M 2888 -159 
L 5338 -159 
L 5338 434 
L 2888 434 
L 2888 -159 
z
M 5350 3609 
Q 5006 3066 4856 2884 
L 4519 3084 
Q 4744 3391 4981 3828 
L 5350 3609 
z
M 2863 3597 
L 3181 3803 
Q 3463 3441 3669 3122 
L 3319 2897 
Q 3119 3228 2863 3597 
z
" transform="scale(0.015625)"/>
      <path id="MicrosoftYaHei-957f" d="M 169 2766 
L 1269 2766 
L 1269 5316 
L 1781 5316 
L 1781 2766 
L 6194 2766 
L 6194 2278 
L 3456 2278 
Q 4238 566 6325 -78 
Q 6113 -359 5944 -591 
Q 3697 266 2925 2278 
L 1781 2278 
L 1781 16 
Q 2494 303 3294 678 
Q 3294 384 3319 116 
Q 2575 -191 1894 -528 
Q 1644 -666 1431 -834 
L 1056 -353 
Q 1269 -184 1269 103 
L 1269 2278 
L 169 2278 
L 169 2766 
z
M 2156 3528 
Q 3706 4047 5138 5109 
L 5463 4703 
Q 4000 3634 2400 3066 
Q 2300 3278 2156 3528 
z
" transform="scale(0.015625)"/>
      <path id="MicrosoftYaHei-7387" d="M 2525 2009 
Q 2622 2016 3928 2081 
Q 3772 2300 3625 2491 
L 3963 2703 
Q 4413 2203 4794 1653 
L 4394 1403 
Q 4284 1569 4178 1725 
Q 2991 1659 2213 1597 
Q 2075 1584 1881 1541 
L 1725 1966 
Q 1913 2028 2006 2084 
Q 2534 2441 3050 2913 
Q 2597 2894 2275 2866 
Q 2144 2847 1988 2809 
L 1800 3191 
Q 1956 3247 2088 3366 
Q 2509 3722 2875 4228 
L 231 4228 
L 231 4666 
L 3031 4666 
Q 2878 4944 2744 5153 
L 3194 5372 
Q 3438 5000 3616 4666 
L 6175 4666 
L 6175 4228 
L 3053 4228 
L 3350 4072 
Q 2844 3553 2494 3247 
Q 2850 3256 3425 3269 
Q 3675 3519 3925 3797 
L 4356 3547 
Q 3363 2603 2525 2009 
z
M 144 991 
L 2994 991 
L 2994 1541 
L 3488 1541 
L 3488 991 
L 6275 991 
L 6275 553 
L 3488 553 
L 3488 -853 
L 2994 -853 
L 2994 553 
L 144 553 
L 144 991 
z
M 1719 2672 
L 1944 2303 
Q 1200 1866 425 1409 
L 163 1828 
Q 813 2134 1719 2672 
z
M 4856 2678 
Q 5750 2172 6250 1816 
L 5975 1409 
Q 5331 1909 4600 2341 
L 4856 2678 
z
M 5994 3591 
Q 5519 3178 4963 2809 
L 4644 3141 
Q 5244 3534 5638 3928 
L 5994 3591 
z
M 363 3634 
L 681 3941 
Q 1200 3528 1588 3159 
L 1238 2816 
Q 875 3197 363 3634 
z
" transform="scale(0.015625)"/>
     </defs>
     <use xlink:href="#MicrosoftYaHei-4e2d"/>
     <use xlink:href="#MicrosoftYaHei-56fd" x="100"/>
     <use xlink:href="#MicrosoftYaHei-4e92" x="200"/>
     <use xlink:href="#MicrosoftYaHei-8054" x="300"/>
     <use xlink:href="#MicrosoftYaHei-7f51" x="400"/>
     <use xlink:href="#MicrosoftYaHei-7528" x="500"/>
     <use xlink:href="#MicrosoftYaHei-6237" x="600"/>
     <use xlink:href="#MicrosoftYaHei-7684" x="700"/>
     <use xlink:href="#MicrosoftYaHei-6570" x="800"/>
     <use xlink:href="#MicrosoftYaHei-91cf" x="900"/>
     <use xlink:href="#MicrosoftYaHei-ff08" x="1000"/>
     <use xlink:href="#MicrosoftYaHei-5355" x="1100"/>
     <use xlink:href="#MicrosoftYaHei-4f4d" x="1200"/>
     <use xlink:href="#MicrosoftYaHei-ff1a" x="1300"/>
     <use xlink:href="#MicrosoftYaHei-5343" x="1400"/>
     <use xlink:href="#MicrosoftYaHei-4e07" x="1500"/>
     <use xlink:href="#MicrosoftYaHei-4eba" x="1600"/>
     <use xlink:href="#MicrosoftYaHei-ff09" x="1700"/>
     <use xlink:href="#MicrosoftYaHei-3001" x="1800"/>
     <use xlink:href="#MicrosoftYaHei-5360" x="1900"/>
     <use xlink:href="#MicrosoftYaHei-4eba" x="2000"/>
     <use xlink:href="#MicrosoftYaHei-53e3" x="2100"/>
     <use xlink:href="#MicrosoftYaHei-7684" x="2200"/>
     <use xlink:href="#MicrosoftYaHei-6bd4" x="2300"/>
     <use xlink:href="#MicrosoftYaHei-4f8b" x="2400"/>
     <use xlink:href="#MicrosoftYaHei-3001" x="2500"/>
     <use xlink:href="#MicrosoftYaHei-79fb" x="2600"/>
     <use xlink:href="#MicrosoftYaHei-52a8" x="2700"/>
     <use xlink:href="#MicrosoftYaHei-4e92" x="2800"/>
     <use xlink:href="#MicrosoftYaHei-8054" x="2900"/>
     <use xlink:href="#MicrosoftYaHei-7f51" x="3000"/>
     <use xlink:href="#MicrosoftYaHei-8ba2" x="3100"/>
     <use xlink:href="#MicrosoftYaHei-9605" x="3200"/>
     <use xlink:href="#MicrosoftYaHei-6bcf" x="3300"/>
     <use xlink:href="#MicrosoftYaHei-4e00" x="3400"/>
     <use xlink:href="#MicrosoftYaHei-767e" x="3500"/>
     <use xlink:href="#MicrosoftYaHei-4eba" x="3600"/>
     <use xlink:href="#MicrosoftYaHei-6bd4" x="3700"/>
     <use xlink:href="#MicrosoftYaHei-4f8b" x="3800"/>
     <use xlink:href="#MicrosoftYaHei-3001" x="3900"/>
     <use xlink:href="#MicrosoftYaHei-5bbd" x="4000"/>
     <use xlink:href="#MicrosoftYaHei-5e26" x="4100"/>
     <use xlink:href="#MicrosoftYaHei-6bcf" x="4200"/>
     <use xlink:href="#MicrosoftYaHei-4e00" x="4300"/>
     <use xlink:href="#MicrosoftYaHei-767e" x="4400"/>
     <use xlink:href="#MicrosoftYaHei-4eba" x="4500"/>
     <use xlink:href="#MicrosoftYaHei-8ba2" x="4600"/>
     <use xlink:href="#MicrosoftYaHei-9605" x="4700"/>
     <use xlink:href="#MicrosoftYaHei-6bd4" x="4800"/>
     <use xlink:href="#MicrosoftYaHei-4f8b" x="4900"/>
     <use xlink:href="#MicrosoftYaHei-7684" x="5000"/>
     <use xlink:href="#MicrosoftYaHei-589e" x="5100"/>
     <use xlink:href="#MicrosoftYaHei-957f" x="5200"/>
     <use xlink:href="#MicrosoftYaHei-7387" x="5300"/>
    </g>
   </g>
   <g id="legend_1">
    <g id="patch_7">
     <path d="M 117.24 161.41275 
L 370.68 161.41275 
Q 373.32 161.41275 373.32 158.77275 
L 373.32 78.36 
Q 373.32 75.72 370.68 75.72 
L 117.24 75.72 
Q 114.6 75.72 114.6 78.36 
L 114.6 158.77275 
Q 114.6 161.41275 117.24 161.41275 
z
" style="fill: #eaeaf2; opacity: 0.8; stroke: #cccccc; stroke-width: 1.5; stroke-linejoin: miter"/>
    </g>
    <g id="line2d_22">
     <path d="M 119.88 86.93175 
L 133.08 86.93175 
L 146.28 86.93175 
" style="fill: none; stroke: #4c72b0; stroke-width: 4; stroke-linecap: round"/>
    </g>
    <g id="text_21">
     <!-- 数量（单位：千万人）增长率 -->
     <g style="fill: #262626" transform="translate(156.84 91.55175) scale(0.132 -0.132)">
      <use xlink:href="#MicrosoftYaHei-6570"/>
      <use xlink:href="#MicrosoftYaHei-91cf" x="100"/>
      <use xlink:href="#MicrosoftYaHei-ff08" x="200"/>
      <use xlink:href="#MicrosoftYaHei-5355" x="300"/>
      <use xlink:href="#MicrosoftYaHei-4f4d" x="400"/>
      <use xlink:href="#MicrosoftYaHei-ff1a" x="500"/>
      <use xlink:href="#MicrosoftYaHei-5343" x="600"/>
      <use xlink:href="#MicrosoftYaHei-4e07" x="700"/>
      <use xlink:href="#MicrosoftYaHei-4eba" x="800"/>
      <use xlink:href="#MicrosoftYaHei-ff09" x="900"/>
      <use xlink:href="#MicrosoftYaHei-589e" x="1000"/>
      <use xlink:href="#MicrosoftYaHei-957f" x="1100"/>
      <use xlink:href="#MicrosoftYaHei-7387" x="1200"/>
     </g>
    </g>
    <g id="line2d_23">
     <path d="M 119.88 107.364937 
L 133.08 107.364937 
L 146.28 107.364937 
" style="fill: none; stroke: #dd8452; stroke-width: 4; stroke-linecap: round"/>
    </g>
    <g id="text_22">
     <!-- 占人口的比例 -->
     <g style="fill: #262626" transform="translate(156.84 111.984938) scale(0.132 -0.132)">
      <use xlink:href="#MicrosoftYaHei-5360"/>
      <use xlink:href="#MicrosoftYaHei-4eba" x="100"/>
      <use xlink:href="#MicrosoftYaHei-53e3" x="200"/>
      <use xlink:href="#MicrosoftYaHei-7684" x="300"/>
      <use xlink:href="#MicrosoftYaHei-6bd4" x="400"/>
      <use xlink:href="#MicrosoftYaHei-4f8b" x="500"/>
     </g>
    </g>
    <g id="line2d_24">
     <path d="M 119.88 127.798125 
L 133.08 127.798125 
L 146.28 127.798125 
" style="fill: none; stroke: #55a868; stroke-width: 4; stroke-linecap: round"/>
    </g>
    <g id="text_23">
     <!-- 移动互联网订阅每一百人比例增长率 -->
     <g style="fill: #262626" transform="translate(156.84 132.418125) scale(0.132 -0.132)">
      <use xlink:href="#MicrosoftYaHei-79fb"/>
      <use xlink:href="#MicrosoftYaHei-52a8" x="100"/>
      <use xlink:href="#MicrosoftYaHei-4e92" x="200"/>
      <use xlink:href="#MicrosoftYaHei-8054" x="300"/>
      <use xlink:href="#MicrosoftYaHei-7f51" x="400"/>
      <use xlink:href="#MicrosoftYaHei-8ba2" x="500"/>
      <use xlink:href="#MicrosoftYaHei-9605" x="600"/>
      <use xlink:href="#MicrosoftYaHei-6bcf" x="700"/>
      <use xlink:href="#MicrosoftYaHei-4e00" x="800"/>
      <use xlink:href="#MicrosoftYaHei-767e" x="900"/>
      <use xlink:href="#MicrosoftYaHei-4eba" x="1000"/>
      <use xlink:href="#MicrosoftYaHei-6bd4" x="1100"/>
      <use xlink:href="#MicrosoftYaHei-4f8b" x="1200"/>
      <use xlink:href="#MicrosoftYaHei-589e" x="1300"/>
      <use xlink:href="#MicrosoftYaHei-957f" x="1400"/>
      <use xlink:href="#MicrosoftYaHei-7387" x="1500"/>
     </g>
    </g>
    <g id="line2d_25">
     <path d="M 119.88 148.231312 
L 133.08 148.231312 
L 146.28 148.231312 
" style="fill: none; stroke: #c44e52; stroke-width: 4; stroke-linecap: round"/>
    </g>
    <g id="text_24">
     <!-- 宽带每一百人订阅比例增长率 -->
     <g style="fill: #262626" transform="translate(156.84 152.851312) scale(0.132 -0.132)">
      <use xlink:href="#MicrosoftYaHei-5bbd"/>
      <use xlink:href="#MicrosoftYaHei-5e26" x="100"/>
      <use xlink:href="#MicrosoftYaHei-6bcf" x="200"/>
      <use xlink:href="#MicrosoftYaHei-4e00" x="300"/>
      <use xlink:href="#MicrosoftYaHei-767e" x="400"/>
      <use xlink:href="#MicrosoftYaHei-4eba" x="500"/>
      <use xlink:href="#MicrosoftYaHei-8ba2" x="600"/>
      <use xlink:href="#MicrosoftYaHei-9605" x="700"/>
      <use xlink:href="#MicrosoftYaHei-6bd4" x="800"/>
      <use xlink:href="#MicrosoftYaHei-4f8b" x="900"/>
      <use xlink:href="#MicrosoftYaHei-589e" x="1000"/>
      <use xlink:href="#MicrosoftYaHei-957f" x="1100"/>
      <use xlink:href="#MicrosoftYaHei-7387" x="1200"/>
     </g>
    </g>
   </g>
  </g>
 </g>
 <defs>
  <clipPath id="p162f95ea87">
   <rect x="108" y="69.12" width="669.6" height="443.52"/>
  </clipPath>
 </defs>
</svg>
