<?xml version="1.0" encoding="utf-8" standalone="no"?>
<!DOCTYPE svg PUBLIC "-//W3C//DTD SVG 1.1//EN"
  "http://www.w3.org/Graphics/SVG/1.1/DTD/svg11.dtd">
<svg xmlns:xlink="http://www.w3.org/1999/xlink" width="864pt" height="576pt" viewBox="0 0 864 576" xmlns="http://www.w3.org/2000/svg" version="1.1">
 <metadata>
  <rdf:RDF xmlns:dc="http://purl.org/dc/elements/1.1/" xmlns:cc="http://creativecommons.org/ns#" xmlns:rdf="http://www.w3.org/1999/02/22-rdf-syntax-ns#">
   <cc:Work>
    <dc:type rdf:resource="http://purl.org/dc/dcmitype/StillImage"/>
    <dc:date>2024-05-20T13:45:27.248547</dc:date>
    <dc:format>image/svg+xml</dc:format>
    <dc:creator>
     <cc:Agent>
      <dc:title>Matplotlib v3.6.3, https://matplotlib.org/</dc:title>
     </cc:Agent>
    </dc:creator>
   </cc:Work>
  </rdf:RDF>
 </metadata>
 <defs>
  <style type="text/css">*{stroke-linejoin: round; stroke-linecap: butt}</style>
 </defs>
 <g id="figure_1">
  <g id="patch_1">
   <path d="M 0 576 
L 864 576 
L 864 0 
L 0 0 
z
" style="fill: #ffffff"/>
  </g>
  <g id="axes_1">
   <g id="patch_2">
    <path d="M 108 512.64 
L 777.6 512.64 
L 777.6 69.12 
L 108 69.12 
z
" style="fill: #eaeaf2"/>
   </g>
   <g id="matplotlib.axis_1">
    <g id="xtick_1">
     <g id="line2d_1">
      <path d="M 138.436364 512.64 
L 138.436364 69.12 
" clip-path="url(#p8cf247390f)" style="fill: none; stroke: #ffffff; stroke-width: 1.5; stroke-linecap: round"/>
     </g>
     <g id="text_1">
      <!-- 0 -->
      <g style="fill: #262626" transform="translate(134.773364 535.646375) scale(0.132 -0.132)">
       <defs>
        <path id="NotoSansCJKjp-Regular-30" d="M 1779 -83 
C 2669 -83 3238 723 3238 2362 
C 3238 3987 2669 4774 1779 4774 
C 883 4774 320 3987 320 2362 
C 320 723 883 -83 1779 -83 
z
M 1779 390 
C 1248 390 883 986 883 2362 
C 883 3731 1248 4314 1779 4314 
C 2310 4314 2675 3731 2675 2362 
C 2675 986 2310 390 1779 390 
z
" transform="scale(0.015625)"/>
       </defs>
       <use xlink:href="#NotoSansCJKjp-Regular-30"/>
      </g>
     </g>
    </g>
    <g id="xtick_2">
     <g id="line2d_2">
      <path d="M 260.181818 512.64 
L 260.181818 69.12 
" clip-path="url(#p8cf247390f)" style="fill: none; stroke: #ffffff; stroke-width: 1.5; stroke-linecap: round"/>
     </g>
     <g id="text_2">
      <!-- 20 -->
      <g style="fill: #262626" transform="translate(252.855818 535.646375) scale(0.132 -0.132)">
       <defs>
        <path id="NotoSansCJKjp-Regular-32" d="M 282 0 
L 3232 0 
L 3232 506 
L 1933 506 
C 1696 506 1408 480 1165 461 
C 2266 1504 3008 2458 3008 3398 
C 3008 4230 2477 4774 1638 4774 
C 1043 4774 634 4506 256 4090 
L 595 3757 
C 858 4070 1184 4301 1568 4301 
C 2150 4301 2432 3910 2432 3373 
C 2432 2566 1754 1632 282 346 
L 282 0 
z
" transform="scale(0.015625)"/>
       </defs>
       <use xlink:href="#NotoSansCJKjp-Regular-32"/>
       <use xlink:href="#NotoSansCJKjp-Regular-30" x="55.499985"/>
      </g>
     </g>
    </g>
    <g id="xtick_3">
     <g id="line2d_3">
      <path d="M 381.927273 512.64 
L 381.927273 69.12 
" clip-path="url(#p8cf247390f)" style="fill: none; stroke: #ffffff; stroke-width: 1.5; stroke-linecap: round"/>
     </g>
     <g id="text_3">
      <!-- 40 -->
      <g style="fill: #262626" transform="translate(374.601273 535.646375) scale(0.132 -0.132)">
       <defs>
        <path id="NotoSansCJKjp-Regular-34" d="M 2176 0 
L 2726 0 
L 2726 1293 
L 3354 1293 
L 3354 1760 
L 2726 1760 
L 2726 4691 
L 2080 4691 
L 128 1677 
L 128 1293 
L 2176 1293 
L 2176 0 
z
M 2176 1760 
L 736 1760 
L 1805 3360 
C 1939 3590 2067 3827 2182 4051 
L 2208 4051 
C 2195 3814 2176 3430 2176 3200 
L 2176 1760 
z
" transform="scale(0.015625)"/>
       </defs>
       <use xlink:href="#NotoSansCJKjp-Regular-34"/>
       <use xlink:href="#NotoSansCJKjp-Regular-30" x="55.499985"/>
      </g>
     </g>
    </g>
    <g id="xtick_4">
     <g id="line2d_4">
      <path d="M 503.672727 512.64 
L 503.672727 69.12 
" clip-path="url(#p8cf247390f)" style="fill: none; stroke: #ffffff; stroke-width: 1.5; stroke-linecap: round"/>
     </g>
     <g id="text_4">
      <!-- 60 -->
      <g style="fill: #262626" transform="translate(496.346727 535.646375) scale(0.132 -0.132)">
       <defs>
        <path id="NotoSansCJKjp-Regular-36" d="M 1926 -83 
C 2656 -83 3277 531 3277 1440 
C 3277 2426 2765 2912 1971 2912 
C 1606 2912 1197 2701 909 2349 
C 934 3802 1466 4294 2118 4294 
C 2400 4294 2682 4154 2861 3936 
L 3194 4294 
C 2931 4576 2579 4774 2093 4774 
C 1184 4774 358 4077 358 2240 
C 358 691 1030 -83 1926 -83 
z
M 922 1882 
C 1229 2317 1587 2477 1875 2477 
C 2445 2477 2720 2074 2720 1440 
C 2720 800 2374 378 1926 378 
C 1338 378 986 909 922 1882 
z
" transform="scale(0.015625)"/>
       </defs>
       <use xlink:href="#NotoSansCJKjp-Regular-36"/>
       <use xlink:href="#NotoSansCJKjp-Regular-30" x="55.499985"/>
      </g>
     </g>
    </g>
    <g id="xtick_5">
     <g id="line2d_5">
      <path d="M 625.418182 512.64 
L 625.418182 69.12 
" clip-path="url(#p8cf247390f)" style="fill: none; stroke: #ffffff; stroke-width: 1.5; stroke-linecap: round"/>
     </g>
     <g id="text_5">
      <!-- 80 -->
      <g style="fill: #262626" transform="translate(618.092182 535.646375) scale(0.132 -0.132)">
       <defs>
        <path id="NotoSansCJKjp-Regular-38" d="M 1792 -83 
C 2669 -83 3258 448 3258 1126 
C 3258 1773 2880 2125 2470 2362 
L 2470 2394 
C 2746 2611 3091 3034 3091 3526 
C 3091 4250 2605 4762 1805 4762 
C 1075 4762 518 4282 518 3571 
C 518 3078 813 2726 1152 2490 
L 1152 2464 
C 723 2234 294 1792 294 1165 
C 294 442 922 -83 1792 -83 
z
M 2112 2547 
C 1555 2765 1050 3014 1050 3571 
C 1050 4026 1363 4326 1798 4326 
C 2298 4326 2592 3962 2592 3494 
C 2592 3149 2426 2829 2112 2547 
z
M 1798 352 
C 1235 352 813 717 813 1216 
C 813 1664 1082 2035 1459 2278 
C 2125 2010 2701 1779 2701 1146 
C 2701 678 2342 352 1798 352 
z
" transform="scale(0.015625)"/>
       </defs>
       <use xlink:href="#NotoSansCJKjp-Regular-38"/>
       <use xlink:href="#NotoSansCJKjp-Regular-30" x="55.499985"/>
      </g>
     </g>
    </g>
    <g id="xtick_6">
     <g id="line2d_6">
      <path d="M 747.163636 512.64 
L 747.163636 69.12 
" clip-path="url(#p8cf247390f)" style="fill: none; stroke: #ffffff; stroke-width: 1.5; stroke-linecap: round"/>
     </g>
     <g id="text_6">
      <!-- 100 -->
      <g style="fill: #262626" transform="translate(736.174636 535.646375) scale(0.132 -0.132)">
       <defs>
        <path id="NotoSansCJKjp-Regular-31" d="M 563 0 
L 3136 0 
L 3136 486 
L 2195 486 
L 2195 4691 
L 1747 4691 
C 1491 4544 1190 4435 774 4358 
L 774 3987 
L 1613 3987 
L 1613 486 
L 563 486 
L 563 0 
z
" transform="scale(0.015625)"/>
       </defs>
       <use xlink:href="#NotoSansCJKjp-Regular-31"/>
       <use xlink:href="#NotoSansCJKjp-Regular-30" x="55.499985"/>
       <use xlink:href="#NotoSansCJKjp-Regular-30" x="110.999969"/>
      </g>
     </g>
    </g>
    <g id="text_7">
     <!-- 互联网用户占比占比 -->
     <g style="fill: #262626" transform="translate(378 554.1315) scale(0.144 -0.144)">
      <defs>
       <path id="NotoSansCJKjp-Regular-4e92" d="M 333 224 
L 333 -224 
L 6086 -224 
L 6086 224 
L 4493 224 
C 4634 1114 4800 2515 4909 3578 
L 2304 3578 
L 2490 4512 
L 5894 4512 
L 5894 4966 
L 544 4966 
L 544 4512 
L 1971 4512 
C 1779 3392 1459 1914 1216 1024 
L 1728 979 
L 1811 1312 
L 4141 1312 
C 4090 915 4032 538 3981 224 
L 333 224 
z
M 2214 3142 
L 4365 3142 
C 4320 2701 4262 2214 4198 1747 
L 1914 1747 
C 2010 2176 2118 2656 2214 3142 
z
" transform="scale(0.015625)"/>
       <path id="NotoSansCJKjp-Regular-8054" d="M 3104 5082 
C 3360 4781 3622 4358 3738 4083 
L 4147 4301 
C 4032 4582 3757 4979 3494 5274 
L 3104 5082 
z
M 5184 5274 
C 5030 4902 4736 4384 4499 4045 
L 2899 4045 
L 2899 3603 
L 4070 3603 
L 4070 2829 
L 4064 2438 
L 2739 2438 
L 2739 1990 
L 4013 1990 
C 3904 1267 3552 435 2509 -230 
C 2630 -307 2797 -461 2874 -563 
C 3693 -6 4115 640 4333 1274 
C 4666 480 5178 -154 5862 -506 
C 5933 -384 6080 -205 6182 -109 
C 5376 250 4806 1037 4525 1990 
L 6118 1990 
L 6118 2438 
L 4544 2438 
L 4550 2822 
L 4550 3603 
L 5875 3603 
L 5875 4045 
L 4998 4045 
C 5222 4358 5466 4762 5677 5126 
L 5184 5274 
z
M 243 864 
L 339 403 
L 2003 691 
L 2003 -512 
L 2426 -512 
L 2426 768 
L 2957 858 
L 2931 1274 
L 2426 1197 
L 2426 4666 
L 2707 4666 
L 2707 5101 
L 301 5101 
L 301 4666 
L 646 4666 
L 646 922 
L 243 864 
z
M 1082 4666 
L 2003 4666 
L 2003 3757 
L 1082 3757 
L 1082 4666 
z
M 1082 3354 
L 2003 3354 
L 2003 2438 
L 1082 2438 
L 1082 3354 
z
M 1082 2029 
L 2003 2029 
L 2003 1126 
L 1082 986 
L 1082 2029 
z
" transform="scale(0.015625)"/>
       <path id="NotoSansCJKjp-Regular-7f51" d="M 563 4992 
L 563 -499 
L 1030 -499 
L 1030 4531 
L 2304 4531 
C 2278 3955 2246 3411 2182 2912 
C 1971 3142 1747 3360 1536 3558 
L 1274 3270 
C 1549 3008 1837 2701 2099 2387 
C 1952 1568 1696 883 1254 378 
C 1357 314 1555 166 1626 90 
C 2029 595 2285 1222 2451 1965 
C 2656 1709 2829 1459 2950 1254 
L 3238 1594 
C 3078 1850 2835 2170 2554 2502 
C 2650 3110 2707 3789 2746 4531 
L 4006 4531 
C 3987 3994 3962 3488 3910 3021 
C 3706 3232 3494 3443 3290 3629 
L 3021 3341 
C 3290 3085 3571 2790 3834 2483 
C 3693 1606 3430 890 2950 365 
C 3059 301 3258 154 3328 77 
C 3763 602 4026 1261 4192 2054 
C 4435 1747 4646 1459 4794 1216 
L 5088 1562 
C 4902 1856 4614 2221 4288 2598 
C 4371 3181 4416 3827 4448 4531 
L 5402 4531 
L 5402 109 
C 5402 0 5357 -32 5248 -38 
C 5139 -38 4768 -45 4384 -32 
C 4448 -160 4525 -371 4550 -493 
C 5088 -499 5408 -486 5606 -410 
C 5798 -333 5869 -179 5869 109 
L 5869 4992 
L 563 4992 
z
" transform="scale(0.015625)"/>
       <path id="NotoSansCJKjp-Regular-7528" d="M 979 4928 
L 979 2605 
C 979 1702 915 570 205 -230 
C 314 -288 506 -448 576 -544 
C 1069 0 1286 736 1382 1453 
L 2989 1453 
L 2989 -454 
L 3475 -454 
L 3475 1453 
L 5203 1453 
L 5203 141 
C 5203 26 5158 -13 5030 -19 
C 4909 -26 4474 -32 4026 -13 
C 4090 -141 4166 -352 4192 -474 
C 4794 -480 5165 -474 5382 -397 
C 5600 -320 5677 -173 5677 141 
L 5677 4928 
L 979 4928 
z
M 1453 4467 
L 2989 4467 
L 2989 3437 
L 1453 3437 
L 1453 4467 
z
M 5203 4467 
L 5203 3437 
L 3475 3437 
L 3475 4467 
L 5203 4467 
z
M 1453 2982 
L 2989 2982 
L 2989 1907 
L 1427 1907 
C 1446 2150 1453 2387 1453 2605 
L 1453 2982 
z
M 5203 2982 
L 5203 1907 
L 3475 1907 
L 3475 2982 
L 5203 2982 
z
" transform="scale(0.015625)"/>
       <path id="NotoSansCJKjp-Regular-6237" d="M 1581 3936 
L 4922 3936 
L 4922 2650 
L 1574 2650 
L 1581 2989 
L 1581 3936 
z
M 2822 5286 
C 2950 5005 3091 4646 3168 4384 
L 1082 4384 
L 1082 2989 
C 1082 2022 998 691 218 -262 
C 333 -314 544 -461 634 -550 
C 1261 218 1485 1280 1555 2202 
L 4922 2202 
L 4922 1779 
L 5408 1779 
L 5408 4384 
L 3379 4384 
L 3674 4474 
C 3597 4723 3437 5114 3283 5408 
L 2822 5286 
z
" transform="scale(0.015625)"/>
       <path id="NotoSansCJKjp-Regular-5360" d="M 992 2445 
L 992 -506 
L 1459 -506 
L 1459 -102 
L 4915 -102 
L 4915 -474 
L 5402 -474 
L 5402 2445 
L 3341 2445 
L 3341 3725 
L 5926 3725 
L 5926 4173 
L 3341 4173 
L 3341 5376 
L 2854 5376 
L 2854 2445 
L 992 2445 
z
M 1459 352 
L 1459 1990 
L 4915 1990 
L 4915 352 
L 1459 352 
z
" transform="scale(0.015625)"/>
       <path id="NotoSansCJKjp-Regular-6bd4" d="M 250 128 
L 397 -371 
C 1197 -179 2278 77 3290 326 
L 3245 787 
C 2694 659 2125 525 1600 410 
L 1600 2925 
L 3046 2925 
L 3046 3398 
L 1600 3398 
L 1600 5344 
L 1107 5344 
L 1107 301 
L 250 128 
z
M 3520 5344 
L 3520 512 
C 3520 -186 3693 -371 4320 -371 
C 4448 -371 5261 -371 5395 -371 
C 6003 -371 6138 -13 6202 1037 
C 6061 1069 5869 1152 5747 1248 
C 5709 320 5670 83 5370 83 
C 5190 83 4506 83 4371 83 
C 4064 83 4013 147 4013 499 
L 4013 2586 
C 4691 2874 5414 3219 5952 3571 
L 5594 3974 
C 5216 3674 4608 3328 4013 3046 
L 4013 5344 
L 3520 5344 
z
" transform="scale(0.015625)"/>
      </defs>
      <use xlink:href="#NotoSansCJKjp-Regular-4e92"/>
      <use xlink:href="#NotoSansCJKjp-Regular-8054" x="99.999985"/>
      <use xlink:href="#NotoSansCJKjp-Regular-7f51" x="199.999969"/>
      <use xlink:href="#NotoSansCJKjp-Regular-7528" x="299.999954"/>
      <use xlink:href="#NotoSansCJKjp-Regular-6237" x="399.999939"/>
      <use xlink:href="#NotoSansCJKjp-Regular-5360" x="499.999924"/>
      <use xlink:href="#NotoSansCJKjp-Regular-6bd4" x="599.999908"/>
      <use xlink:href="#NotoSansCJKjp-Regular-5360" x="699.999893"/>
      <use xlink:href="#NotoSansCJKjp-Regular-6bd4" x="799.999878"/>
     </g>
    </g>
   </g>
   <g id="matplotlib.axis_2">
    <g id="ytick_1">
     <g id="line2d_7">
      <path d="M 108 512.64 
L 777.6 512.64 
" clip-path="url(#p8cf247390f)" style="fill: none; stroke: #ffffff; stroke-width: 1.5; stroke-linecap: round"/>
     </g>
     <g id="text_8">
      <!-- 0 -->
      <g style="fill: #262626" transform="translate(88.174 517.893188) scale(0.132 -0.132)">
       <use xlink:href="#NotoSansCJKjp-Regular-30"/>
      </g>
     </g>
    </g>
    <g id="ytick_2">
     <g id="line2d_8">
      <path d="M 108 443.394098 
L 777.6 443.394098 
" clip-path="url(#p8cf247390f)" style="fill: none; stroke: #ffffff; stroke-width: 1.5; stroke-linecap: round"/>
     </g>
     <g id="text_9">
      <!-- 10 -->
      <g style="fill: #262626" transform="translate(80.848 448.647286) scale(0.132 -0.132)">
       <use xlink:href="#NotoSansCJKjp-Regular-31"/>
       <use xlink:href="#NotoSansCJKjp-Regular-30" x="55.499985"/>
      </g>
     </g>
    </g>
    <g id="ytick_3">
     <g id="line2d_9">
      <path d="M 108 374.148197 
L 777.6 374.148197 
" clip-path="url(#p8cf247390f)" style="fill: none; stroke: #ffffff; stroke-width: 1.5; stroke-linecap: round"/>
     </g>
     <g id="text_10">
      <!-- 20 -->
      <g style="fill: #262626" transform="translate(80.848 379.401384) scale(0.132 -0.132)">
       <use xlink:href="#NotoSansCJKjp-Regular-32"/>
       <use xlink:href="#NotoSansCJKjp-Regular-30" x="55.499985"/>
      </g>
     </g>
    </g>
    <g id="ytick_4">
     <g id="line2d_10">
      <path d="M 108 304.902295 
L 777.6 304.902295 
" clip-path="url(#p8cf247390f)" style="fill: none; stroke: #ffffff; stroke-width: 1.5; stroke-linecap: round"/>
     </g>
     <g id="text_11">
      <!-- 30 -->
      <g style="fill: #262626" transform="translate(80.848 310.155483) scale(0.132 -0.132)">
       <defs>
        <path id="NotoSansCJKjp-Regular-33" d="M 1683 -83 
C 2522 -83 3194 416 3194 1254 
C 3194 1901 2752 2310 2202 2445 
L 2202 2477 
C 2701 2650 3034 3034 3034 3603 
C 3034 4346 2458 4774 1664 4774 
C 1126 4774 710 4538 358 4218 
L 672 3846 
C 941 4115 1267 4301 1645 4301 
C 2138 4301 2438 4006 2438 3558 
C 2438 3053 2112 2662 1139 2662 
L 1139 2214 
C 2227 2214 2598 1843 2598 1274 
C 2598 736 2208 403 1645 403 
C 1114 403 762 659 486 941 
L 186 563 
C 493 224 954 -83 1683 -83 
z
" transform="scale(0.015625)"/>
       </defs>
       <use xlink:href="#NotoSansCJKjp-Regular-33"/>
       <use xlink:href="#NotoSansCJKjp-Regular-30" x="55.499985"/>
      </g>
     </g>
    </g>
    <g id="ytick_5">
     <g id="line2d_11">
      <path d="M 108 235.656393 
L 777.6 235.656393 
" clip-path="url(#p8cf247390f)" style="fill: none; stroke: #ffffff; stroke-width: 1.5; stroke-linecap: round"/>
     </g>
     <g id="text_12">
      <!-- 40 -->
      <g style="fill: #262626" transform="translate(80.848 240.909581) scale(0.132 -0.132)">
       <use xlink:href="#NotoSansCJKjp-Regular-34"/>
       <use xlink:href="#NotoSansCJKjp-Regular-30" x="55.499985"/>
      </g>
     </g>
    </g>
    <g id="ytick_6">
     <g id="line2d_12">
      <path d="M 108 166.410492 
L 777.6 166.410492 
" clip-path="url(#p8cf247390f)" style="fill: none; stroke: #ffffff; stroke-width: 1.5; stroke-linecap: round"/>
     </g>
     <g id="text_13">
      <!-- 50 -->
      <g style="fill: #262626" transform="translate(80.848 171.663679) scale(0.132 -0.132)">
       <defs>
        <path id="NotoSansCJKjp-Regular-35" d="M 1677 -83 
C 2464 -83 3213 499 3213 1523 
C 3213 2560 2573 3021 1798 3021 
C 1517 3021 1306 2950 1094 2835 
L 1216 4192 
L 2982 4192 
L 2982 4691 
L 704 4691 
L 550 2502 
L 864 2304 
C 1133 2483 1331 2579 1645 2579 
C 2234 2579 2618 2182 2618 1510 
C 2618 826 2176 403 1619 403 
C 1075 403 730 653 467 922 
L 173 538 
C 493 224 941 -83 1677 -83 
z
" transform="scale(0.015625)"/>
       </defs>
       <use xlink:href="#NotoSansCJKjp-Regular-35"/>
       <use xlink:href="#NotoSansCJKjp-Regular-30" x="55.499985"/>
      </g>
     </g>
    </g>
    <g id="ytick_7">
     <g id="line2d_13">
      <path d="M 108 97.16459 
L 777.6 97.16459 
" clip-path="url(#p8cf247390f)" style="fill: none; stroke: #ffffff; stroke-width: 1.5; stroke-linecap: round"/>
     </g>
     <g id="text_14">
      <!-- 60 -->
      <g style="fill: #262626" transform="translate(80.848 102.417778) scale(0.132 -0.132)">
       <use xlink:href="#NotoSansCJKjp-Regular-36"/>
       <use xlink:href="#NotoSansCJKjp-Regular-30" x="55.499985"/>
      </g>
     </g>
    </g>
    <g id="text_15">
     <!-- 国家地区数量 -->
     <g style="fill: #262626" transform="translate(73.5495 334.08) rotate(-90) scale(0.144 -0.144)">
      <defs>
       <path id="NotoSansCJKjp-Regular-56fd" d="M 3789 2048 
C 4026 1830 4294 1523 4422 1318 
L 4755 1517 
C 4621 1715 4346 2016 4102 2221 
L 3789 2048 
z
M 1459 1254 
L 1459 845 
L 4973 845 
L 4973 1254 
L 3392 1254 
L 3392 2336 
L 4685 2336 
L 4685 2752 
L 3392 2752 
L 3392 3667 
L 4838 3667 
L 4838 4096 
L 1549 4096 
L 1549 3667 
L 2938 3667 
L 2938 2752 
L 1728 2752 
L 1728 2336 
L 2938 2336 
L 2938 1254 
L 1459 1254 
z
M 550 5088 
L 550 -512 
L 1037 -512 
L 1037 -192 
L 5344 -192 
L 5344 -512 
L 5850 -512 
L 5850 5088 
L 550 5088 
z
M 1037 256 
L 1037 4640 
L 5344 4640 
L 5344 256 
L 1037 256 
z
" transform="scale(0.015625)"/>
       <path id="NotoSansCJKjp-Regular-5bb6" d="M 557 4800 
L 557 3533 
L 1030 3533 
L 1030 4365 
L 5395 4365 
L 5395 3533 
L 5882 3533 
L 5882 4800 
L 3437 4800 
L 3437 5376 
L 2950 5376 
L 2950 4800 
L 557 4800 
z
M 5427 3085 
C 5133 2822 4672 2477 4269 2227 
C 4102 2560 3962 2918 3859 3302 
L 4986 3302 
L 4986 3718 
L 1376 3718 
L 1376 3302 
L 2758 3302 
C 2144 2912 1299 2598 518 2413 
C 595 2323 730 2125 774 2029 
C 1299 2182 1862 2387 2368 2643 
C 2477 2554 2573 2451 2662 2355 
C 2163 1971 1248 1555 563 1357 
C 653 1261 762 1094 813 986 
C 1478 1222 2336 1658 2886 2061 
C 2976 1926 3046 1792 3110 1658 
C 2470 1056 1299 448 333 186 
C 429 83 531 -96 589 -211 
C 1478 77 2547 653 3245 1235 
C 3373 685 3270 211 3027 45 
C 2899 -64 2765 -83 2592 -83 
C 2445 -83 2227 -70 1990 -51 
C 2074 -186 2118 -378 2125 -512 
C 2330 -525 2528 -531 2682 -525 
C 2976 -525 3155 -480 3373 -314 
C 4000 128 3994 1786 2752 2848 
C 2995 2989 3213 3142 3405 3302 
L 3430 3302 
C 3827 1773 4576 550 5792 -6 
C 5862 122 6016 307 6125 403 
C 5427 678 4877 1197 4474 1862 
C 4896 2106 5414 2445 5798 2765 
L 5427 3085 
z
" transform="scale(0.015625)"/>
       <path id="NotoSansCJKjp-Regular-5730" d="M 2746 4781 
L 2746 3027 
L 2054 2739 
L 2234 2310 
L 2746 2528 
L 2746 506 
C 2746 -192 2957 -365 3693 -365 
C 3859 -365 5094 -365 5274 -365 
C 5939 -365 6099 -83 6170 800 
C 6042 819 5850 896 5741 979 
C 5696 243 5632 70 5254 70 
C 4998 70 3923 70 3712 70 
C 3283 70 3206 141 3206 493 
L 3206 2726 
L 4064 3091 
L 4064 915 
L 4518 915 
L 4518 3283 
L 5414 3667 
C 5414 2637 5402 1926 5370 1773 
C 5338 1626 5280 1600 5178 1600 
C 5114 1600 4902 1600 4749 1613 
C 4806 1504 4845 1318 4864 1190 
C 5043 1190 5299 1190 5466 1242 
C 5658 1286 5779 1402 5818 1664 
C 5862 1914 5875 2874 5875 4077 
L 5901 4166 
L 5562 4294 
L 5472 4224 
L 5376 4134 
L 4518 3776 
L 4518 5376 
L 4064 5376 
L 4064 3584 
L 3206 3226 
L 3206 4781 
L 2746 4781 
z
M 211 986 
L 403 506 
C 966 755 1696 1082 2381 1402 
L 2272 1830 
L 1542 1523 
L 1542 3379 
L 2298 3379 
L 2298 3834 
L 1542 3834 
L 1542 5299 
L 1088 5299 
L 1088 3834 
L 269 3834 
L 269 3379 
L 1088 3379 
L 1088 1331 
C 755 1197 454 1075 211 986 
z
" transform="scale(0.015625)"/>
       <path id="NotoSansCJKjp-Regular-533a" d="M 1734 3520 
C 2227 3206 2752 2829 3238 2438 
C 2707 1850 2106 1344 1472 960 
C 1581 877 1773 691 1856 589 
C 2470 1005 3072 1530 3610 2138 
C 4147 1677 4614 1216 4915 832 
L 5299 1197 
C 4979 1587 4480 2048 3917 2502 
C 4326 3008 4698 3558 5005 4141 
L 4538 4301 
C 4269 3770 3930 3264 3546 2797 
C 3066 3168 2547 3526 2074 3821 
L 1734 3520 
z
M 602 4986 
L 602 -525 
L 1082 -525 
L 1082 -154 
L 6093 -154 
L 6093 307 
L 1082 307 
L 1082 4518 
L 5946 4518 
L 5946 4986 
L 602 4986 
z
" transform="scale(0.015625)"/>
       <path id="NotoSansCJKjp-Regular-6570" d="M 2803 5254 
C 2688 4998 2483 4627 2317 4403 
L 2643 4243 
C 2816 4454 3027 4781 3219 5075 
L 2803 5254 
z
M 531 5075 
C 704 4806 870 4454 928 4230 
L 1312 4397 
C 1248 4627 1075 4973 890 5222 
L 531 5075 
z
M 4026 5382 
C 3846 4243 3507 3162 2970 2490 
C 3078 2413 3283 2246 3360 2163 
C 3533 2394 3693 2669 3827 2970 
C 3974 2310 4160 1709 4410 1184 
C 4090 698 3667 314 3110 19 
C 2912 166 2656 326 2374 480 
C 2598 774 2746 1126 2829 1562 
L 3398 1562 
L 3398 1958 
L 1677 1958 
L 1894 2413 
L 1779 2438 
L 2061 2438 
L 2061 3398 
C 2374 3168 2771 2854 2938 2701 
L 3206 3046 
C 3034 3174 2336 3616 2061 3776 
L 2061 3802 
L 3373 3802 
L 3373 4198 
L 2061 4198 
L 2061 5382 
L 1613 5382 
L 1613 4198 
L 288 4198 
L 288 3802 
L 1485 3802 
C 1171 3379 678 2982 218 2784 
C 314 2694 422 2528 480 2419 
C 870 2637 1293 2989 1613 3373 
L 1613 2477 
L 1440 2515 
L 1178 1958 
L 250 1958 
L 250 1562 
L 979 1562 
C 806 1222 627 896 486 653 
L 909 506 
L 1005 678 
C 1222 589 1434 493 1638 384 
C 1306 147 858 -13 269 -109 
C 352 -211 448 -384 480 -512 
C 1171 -365 1683 -154 2061 160 
C 2355 -13 2611 -186 2810 -352 
L 2963 -192 
C 3046 -301 3136 -448 3174 -531 
C 3802 -205 4288 205 4666 710 
C 4979 192 5370 -224 5862 -512 
C 5939 -378 6093 -192 6208 -96 
C 5690 173 5280 614 4960 1165 
C 5350 1856 5594 2707 5754 3750 
L 6144 3750 
L 6144 4198 
L 4262 4198 
C 4358 4557 4442 4928 4506 5312 
L 4026 5382 
z
M 1478 1562 
L 2368 1562 
C 2285 1216 2157 928 1965 698 
C 1715 819 1459 934 1197 1030 
L 1478 1562 
z
M 4134 3750 
L 5254 3750 
C 5139 2950 4966 2266 4698 1696 
C 4435 2298 4250 3002 4134 3750 
z
" transform="scale(0.015625)"/>
       <path id="NotoSansCJKjp-Regular-91cf" d="M 1600 4256 
L 4781 4256 
L 4781 3904 
L 1600 3904 
L 1600 4256 
z
M 1600 4883 
L 4781 4883 
L 4781 4538 
L 1600 4538 
L 1600 4883 
z
M 1133 5171 
L 1133 3616 
L 5261 3616 
L 5261 5171 
L 1133 5171 
z
M 333 3341 
L 333 2976 
L 6074 2976 
L 6074 3341 
L 333 3341 
z
M 1472 1747 
L 2957 1747 
L 2957 1376 
L 1472 1376 
L 1472 1747 
z
M 3424 1747 
L 4973 1747 
L 4973 1376 
L 3424 1376 
L 3424 1747 
z
M 1472 2387 
L 2957 2387 
L 2957 2029 
L 1472 2029 
L 1472 2387 
z
M 3424 2387 
L 4973 2387 
L 4973 2029 
L 3424 2029 
L 3424 2387 
z
M 301 19 
L 301 -352 
L 6112 -352 
L 6112 19 
L 3424 19 
L 3424 390 
L 5587 390 
L 5587 730 
L 3424 730 
L 3424 1082 
L 5446 1082 
L 5446 2688 
L 1018 2688 
L 1018 1082 
L 2957 1082 
L 2957 730 
L 838 730 
L 838 390 
L 2957 390 
L 2957 19 
L 301 19 
z
" transform="scale(0.015625)"/>
      </defs>
      <use xlink:href="#NotoSansCJKjp-Regular-56fd"/>
      <use xlink:href="#NotoSansCJKjp-Regular-5bb6" x="99.999985"/>
      <use xlink:href="#NotoSansCJKjp-Regular-5730" x="199.999969"/>
      <use xlink:href="#NotoSansCJKjp-Regular-533a" x="299.999954"/>
      <use xlink:href="#NotoSansCJKjp-Regular-6570" x="399.999939"/>
      <use xlink:href="#NotoSansCJKjp-Regular-91cf" x="499.999924"/>
     </g>
    </g>
   </g>
   <g id="patch_3">
    <path d="M 138.436364 512.64 
L 206.072727 512.64 
L 206.072727 90.24 
L 138.436364 90.24 
z
" clip-path="url(#p8cf247390f)" style="fill: #4c72b0; fill-opacity: 0.75; stroke: #ffffff; stroke-width: 1.5; stroke-linejoin: miter"/>
   </g>
   <g id="patch_4">
    <path d="M 206.072727 512.64 
L 273.709091 512.64 
L 273.709091 450.318689 
L 206.072727 450.318689 
z
" clip-path="url(#p8cf247390f)" style="fill: #4c72b0; fill-opacity: 0.75; stroke: #ffffff; stroke-width: 1.5; stroke-linejoin: miter"/>
   </g>
   <g id="patch_5">
    <path d="M 273.709091 512.64 
L 341.345455 512.64 
L 341.345455 401.846557 
L 273.709091 401.846557 
z
" clip-path="url(#p8cf247390f)" style="fill: #4c72b0; fill-opacity: 0.75; stroke: #ffffff; stroke-width: 1.5; stroke-linejoin: miter"/>
   </g>
   <g id="patch_6">
    <path d="M 341.345455 512.64 
L 408.981818 512.64 
L 408.981818 387.997377 
L 341.345455 387.997377 
z
" clip-path="url(#p8cf247390f)" style="fill: #4c72b0; fill-opacity: 0.75; stroke: #ffffff; stroke-width: 1.5; stroke-linejoin: miter"/>
   </g>
   <g id="patch_7">
    <path d="M 408.981818 512.64 
L 476.618182 512.64 
L 476.618182 450.318689 
L 408.981818 450.318689 
z
" clip-path="url(#p8cf247390f)" style="fill: #4c72b0; fill-opacity: 0.75; stroke: #ffffff; stroke-width: 1.5; stroke-linejoin: miter"/>
   </g>
   <g id="patch_8">
    <path d="M 476.618182 512.64 
L 544.254545 512.64 
L 544.254545 408.771148 
L 476.618182 408.771148 
z
" clip-path="url(#p8cf247390f)" style="fill: #4c72b0; fill-opacity: 0.75; stroke: #ffffff; stroke-width: 1.5; stroke-linejoin: miter"/>
   </g>
   <g id="patch_9">
    <path d="M 544.254545 512.64 
L 611.890909 512.64 
L 611.890909 339.525246 
L 544.254545 339.525246 
z
" clip-path="url(#p8cf247390f)" style="fill: #4c72b0; fill-opacity: 0.75; stroke: #ffffff; stroke-width: 1.5; stroke-linejoin: miter"/>
   </g>
   <g id="patch_10">
    <path d="M 611.890909 512.64 
L 679.527273 512.64 
L 679.527273 284.128525 
L 611.890909 284.128525 
z
" clip-path="url(#p8cf247390f)" style="fill: #4c72b0; fill-opacity: 0.75; stroke: #ffffff; stroke-width: 1.5; stroke-linejoin: miter"/>
   </g>
   <g id="patch_11">
    <path d="M 679.527273 512.64 
L 747.163636 512.64 
L 747.163636 263.354754 
L 679.527273 263.354754 
z
" clip-path="url(#p8cf247390f)" style="fill: #4c72b0; fill-opacity: 0.75; stroke: #ffffff; stroke-width: 1.5; stroke-linejoin: miter"/>
   </g>
   <g id="patch_12">
    <path d="M 108 512.64 
L 108 69.12 
" style="fill: none; stroke: #ffffff; stroke-width: 1.875; stroke-linejoin: miter; stroke-linecap: square"/>
   </g>
   <g id="patch_13">
    <path d="M 777.6 512.64 
L 777.6 69.12 
" style="fill: none; stroke: #ffffff; stroke-width: 1.875; stroke-linejoin: miter; stroke-linecap: square"/>
   </g>
   <g id="patch_14">
    <path d="M 108 512.64 
L 777.6 512.64 
" style="fill: none; stroke: #ffffff; stroke-width: 1.875; stroke-linejoin: miter; stroke-linecap: square"/>
   </g>
   <g id="patch_15">
    <path d="M 108 69.12 
L 777.6 69.12 
" style="fill: none; stroke: #ffffff; stroke-width: 1.875; stroke-linejoin: miter; stroke-linecap: square"/>
   </g>
   <g id="text_16">
    <!-- 2020年各国家地区互联网用户占比分布直方图 -->
    <g style="fill: #262626" transform="translate(297.216 63.12) scale(0.144 -0.144)">
     <defs>
      <path id="NotoSansCJKjp-Regular-5e74" d="M 307 1427 
L 307 966 
L 3277 966 
L 3277 -512 
L 3770 -512 
L 3770 966 
L 6106 966 
L 6106 1427 
L 3770 1427 
L 3770 2701 
L 5658 2701 
L 5658 3155 
L 3770 3155 
L 3770 4141 
L 5805 4141 
L 5805 4602 
L 1965 4602 
C 2074 4819 2170 5043 2259 5274 
L 1773 5402 
C 1466 4531 934 3699 320 3174 
C 442 3104 646 2944 736 2867 
C 1082 3200 1421 3642 1715 4141 
L 3277 4141 
L 3277 3155 
L 1363 3155 
L 1363 1427 
L 307 1427 
z
M 1843 1427 
L 1843 2701 
L 3277 2701 
L 3277 1427 
L 1843 1427 
z
" transform="scale(0.015625)"/>
      <path id="NotoSansCJKjp-Regular-5404" d="M 1299 1779 
L 1299 -538 
L 1779 -538 
L 1779 -237 
L 4589 -237 
L 4589 -518 
L 5094 -518 
L 5094 1779 
L 1299 1779 
z
M 1779 192 
L 1779 1338 
L 4589 1338 
L 4589 192 
L 1779 192 
z
M 2394 5427 
C 1939 4640 1165 3923 358 3475 
C 467 3398 646 3213 723 3123 
C 1069 3341 1421 3610 1747 3923 
C 2048 3578 2406 3264 2797 2982 
C 1978 2541 1037 2214 186 2042 
C 269 1939 378 1741 422 1613 
C 1350 1824 2355 2189 3238 2694 
C 4032 2208 4947 1850 5888 1638 
C 5958 1766 6093 1971 6202 2074 
C 5312 2246 4435 2560 3680 2970 
C 4326 3398 4877 3917 5254 4512 
L 4922 4730 
L 4838 4704 
L 2464 4704 
C 2605 4883 2739 5075 2854 5267 
L 2394 5427 
z
M 2054 4224 
L 2106 4282 
L 4480 4282 
C 4160 3891 3725 3546 3232 3238 
C 2771 3533 2368 3866 2054 4224 
z
" transform="scale(0.015625)"/>
      <path id="NotoSansCJKjp-Regular-5206" d="M 2074 5248 
C 1677 4256 966 3373 147 2829 
C 262 2739 474 2554 563 2451 
C 1363 3059 2118 4019 2586 5101 
L 2074 5248 
z
M 4307 5261 
L 3846 5075 
C 4326 4122 5139 3085 5850 2509 
C 5939 2643 6118 2829 6253 2931 
C 5549 3424 4723 4397 4307 5261 
z
M 1197 2957 
L 1197 2490 
L 2509 2490 
C 2368 1402 2010 378 486 -122 
C 595 -224 736 -416 800 -544 
C 2445 51 2854 1216 3027 2490 
L 4685 2490 
C 4608 864 4512 224 4346 58 
C 4282 -6 4205 -26 4077 -26 
C 3923 -26 3533 -19 3110 19 
C 3200 -115 3258 -320 3270 -461 
C 3674 -486 4070 -493 4288 -474 
C 4506 -454 4653 -410 4781 -243 
C 5005 0 5094 736 5190 2726 
C 5197 2790 5197 2957 5197 2957 
L 1197 2957 
z
" transform="scale(0.015625)"/>
      <path id="NotoSansCJKjp-Regular-5e03" d="M 2554 5382 
C 2464 5056 2349 4723 2214 4397 
L 390 4397 
L 390 3930 
L 2003 3930 
C 1574 3078 979 2291 198 1760 
C 288 1658 416 1472 486 1350 
C 832 1594 1146 1882 1421 2195 
L 1421 83 
L 1901 83 
L 1901 2304 
L 3258 2304 
L 3258 -518 
L 3744 -518 
L 3744 2304 
L 5190 2304 
L 5190 698 
C 5190 608 5158 582 5050 576 
C 4947 576 4576 570 4166 582 
C 4230 461 4307 282 4326 147 
C 4877 147 5216 147 5414 224 
C 5613 301 5670 435 5670 691 
L 5670 2758 
L 5190 2758 
L 3744 2758 
L 3744 3622 
L 3258 3622 
L 3258 2758 
L 1862 2758 
C 2118 3130 2342 3520 2534 3930 
L 6022 3930 
L 6022 4397 
L 2739 4397 
C 2854 4685 2957 4979 3046 5267 
L 2554 5382 
z
" transform="scale(0.015625)"/>
      <path id="NotoSansCJKjp-Regular-76f4" d="M 2374 2586 
L 4832 2586 
L 4832 2061 
L 2374 2061 
L 2374 2586 
z
M 2374 1715 
L 4832 1715 
L 4832 1178 
L 2374 1178 
L 2374 1715 
z
M 2374 3456 
L 4832 3456 
L 4832 2931 
L 2374 2931 
L 2374 3456 
z
M 736 3635 
L 736 -518 
L 1203 -518 
L 1203 -179 
L 6080 -179 
L 6080 269 
L 1203 269 
L 1203 3635 
L 736 3635 
z
M 3053 5395 
L 3008 4787 
L 397 4787 
L 397 4339 
L 2963 4339 
L 2899 3814 
L 1914 3814 
L 1914 813 
L 5306 813 
L 5306 3814 
L 3379 3814 
L 3469 4339 
L 6029 4339 
L 6029 4787 
L 3533 4787 
L 3603 5363 
L 3053 5395 
z
" transform="scale(0.015625)"/>
      <path id="NotoSansCJKjp-Regular-65b9" d="M 2931 5395 
L 2931 4269 
L 339 4269 
L 339 3808 
L 2310 3808 
C 2240 2330 2054 666 269 -147 
C 397 -243 544 -416 621 -538 
C 1926 90 2438 1152 2669 2298 
L 4787 2298 
C 4685 819 4557 186 4371 19 
C 4294 -51 4211 -58 4064 -58 
C 3898 -58 3443 -51 2982 -13 
C 3078 -147 3142 -346 3155 -480 
C 3584 -506 4013 -512 4230 -499 
C 4480 -486 4634 -435 4781 -282 
C 5030 -26 5165 685 5293 2522 
C 5306 2598 5312 2758 5312 2758 
L 2746 2758 
C 2790 3110 2822 3462 2842 3808 
L 6067 3808 
L 6067 4269 
L 3424 4269 
L 3424 5395 
L 2931 5395 
z
" transform="scale(0.015625)"/>
      <path id="NotoSansCJKjp-Regular-56fe" d="M 2400 1786 
C 2912 1677 3565 1453 3923 1274 
L 4122 1600 
C 3763 1766 3117 1978 2605 2080 
L 2400 1786 
z
M 1760 973 
C 2643 864 3750 608 4365 390 
L 4576 749 
C 3955 954 2848 1203 1984 1299 
L 1760 973 
z
M 538 5094 
L 538 -512 
L 998 -512 
L 998 -243 
L 5389 -243 
L 5389 -512 
L 5869 -512 
L 5869 5094 
L 538 5094 
z
M 998 186 
L 998 4659 
L 5389 4659 
L 5389 186 
L 998 186 
z
M 2650 4531 
C 2330 4006 1779 3507 1229 3181 
C 1331 3117 1498 2970 1568 2893 
C 1760 3021 1958 3174 2157 3347 
C 2349 3142 2586 2950 2842 2778 
C 2298 2522 1683 2330 1114 2214 
C 1197 2125 1299 1939 1344 1824 
C 1971 1971 2643 2208 3251 2534 
C 3782 2246 4390 2029 4998 1894 
C 5056 2010 5178 2176 5267 2259 
C 4704 2362 4141 2534 3642 2765 
C 4122 3078 4525 3443 4794 3878 
L 4518 4038 
L 4448 4019 
L 2790 4019 
C 2886 4141 2976 4262 3053 4390 
L 2650 4531 
z
M 2419 3603 
L 2464 3648 
L 4122 3648 
C 3891 3398 3584 3174 3238 2976 
C 2912 3162 2630 3373 2419 3603 
z
" transform="scale(0.015625)"/>
     </defs>
     <use xlink:href="#NotoSansCJKjp-Regular-32"/>
     <use xlink:href="#NotoSansCJKjp-Regular-30" x="55.499985"/>
     <use xlink:href="#NotoSansCJKjp-Regular-32" x="110.999969"/>
     <use xlink:href="#NotoSansCJKjp-Regular-30" x="166.499954"/>
     <use xlink:href="#NotoSansCJKjp-Regular-5e74" x="221.999939"/>
     <use xlink:href="#NotoSansCJKjp-Regular-5404" x="321.999924"/>
     <use xlink:href="#NotoSansCJKjp-Regular-56fd" x="421.999908"/>
     <use xlink:href="#NotoSansCJKjp-Regular-5bb6" x="521.999893"/>
     <use xlink:href="#NotoSansCJKjp-Regular-5730" x="621.999878"/>
     <use xlink:href="#NotoSansCJKjp-Regular-533a" x="721.999863"/>
     <use xlink:href="#NotoSansCJKjp-Regular-4e92" x="821.999847"/>
     <use xlink:href="#NotoSansCJKjp-Regular-8054" x="921.999832"/>
     <use xlink:href="#NotoSansCJKjp-Regular-7f51" x="1021.999817"/>
     <use xlink:href="#NotoSansCJKjp-Regular-7528" x="1121.999802"/>
     <use xlink:href="#NotoSansCJKjp-Regular-6237" x="1221.999786"/>
     <use xlink:href="#NotoSansCJKjp-Regular-5360" x="1321.999771"/>
     <use xlink:href="#NotoSansCJKjp-Regular-6bd4" x="1421.999756"/>
     <use xlink:href="#NotoSansCJKjp-Regular-5206" x="1521.999741"/>
     <use xlink:href="#NotoSansCJKjp-Regular-5e03" x="1621.999725"/>
     <use xlink:href="#NotoSansCJKjp-Regular-76f4" x="1721.99971"/>
     <use xlink:href="#NotoSansCJKjp-Regular-65b9" x="1821.999695"/>
     <use xlink:href="#NotoSansCJKjp-Regular-56fe" x="1921.99968"/>
    </g>
   </g>
  </g>
 </g>
 <defs>
  <clipPath id="p8cf247390f">
   <rect x="108" y="69.12" width="669.6" height="443.52"/>
  </clipPath>
 </defs>
</svg>
