<?xml version="1.0" encoding="utf-8" standalone="no"?>
<!DOCTYPE svg PUBLIC "-//W3C//DTD SVG 1.1//EN"
  "http://www.w3.org/Graphics/SVG/1.1/DTD/svg11.dtd">
<svg xmlns:xlink="http://www.w3.org/1999/xlink" width="864pt" height="576pt" viewBox="0 0 864 576" xmlns="http://www.w3.org/2000/svg" version="1.1">
 <metadata>
  <rdf:RDF xmlns:dc="http://purl.org/dc/elements/1.1/" xmlns:cc="http://creativecommons.org/ns#" xmlns:rdf="http://www.w3.org/1999/02/22-rdf-syntax-ns#">
   <cc:Work>
    <dc:type rdf:resource="http://purl.org/dc/dcmitype/StillImage"/>
    <dc:date>2024-05-20T13:45:29.605038</dc:date>
    <dc:format>image/svg+xml</dc:format>
    <dc:creator>
     <cc:Agent>
      <dc:title>Matplotlib v3.6.3, https://matplotlib.org/</dc:title>
     </cc:Agent>
    </dc:creator>
   </cc:Work>
  </rdf:RDF>
 </metadata>
 <defs>
  <style type="text/css">*{stroke-linejoin: round; stroke-linecap: butt}</style>
 </defs>
 <g id="figure_1">
  <g id="patch_1">
   <path d="M 0 576 
L 864 576 
L 864 0 
L 0 0 
z
" style="fill: #ffffff"/>
  </g>
  <g id="axes_1">
   <g id="patch_2">
    <path d="M 108 512.64 
L 777.6 512.64 
L 777.6 69.12 
L 108 69.12 
z
" style="fill: #eaeaf2"/>
   </g>
   <g id="matplotlib.axis_1">
    <g id="xtick_1">
     <g id="line2d_1">
      <path d="M 138.436364 512.64 
L 138.436364 69.12 
" clip-path="url(#pd5389e2f45)" style="fill: none; stroke: #ffffff; stroke-width: 1.5; stroke-linecap: round"/>
     </g>
     <g id="text_1">
      <!-- 1980 -->
      <g style="fill: #262626" transform="translate(123.784364 535.646375) scale(0.132 -0.132)">
       <defs>
        <path id="NotoSansCJKjp-Regular-31" d="M 563 0 
L 3136 0 
L 3136 486 
L 2195 486 
L 2195 4691 
L 1747 4691 
C 1491 4544 1190 4435 774 4358 
L 774 3987 
L 1613 3987 
L 1613 486 
L 563 486 
L 563 0 
z
" transform="scale(0.015625)"/>
        <path id="NotoSansCJKjp-Regular-39" d="M 1504 -83 
C 2381 -83 3206 646 3206 2547 
C 3206 4038 2528 4774 1626 4774 
C 896 4774 282 4166 282 3251 
C 282 2285 794 1779 1574 1779 
C 1965 1779 2368 2003 2656 2349 
C 2611 896 2086 403 1485 403 
C 1178 403 896 538 691 762 
L 371 397 
C 634 122 992 -83 1504 -83 
z
M 2650 2842 
C 2336 2394 1984 2214 1670 2214 
C 1114 2214 832 2624 832 3251 
C 832 3898 1178 4320 1632 4320 
C 2227 4320 2586 3808 2650 2842 
z
" transform="scale(0.015625)"/>
        <path id="NotoSansCJKjp-Regular-38" d="M 1792 -83 
C 2669 -83 3258 448 3258 1126 
C 3258 1773 2880 2125 2470 2362 
L 2470 2394 
C 2746 2611 3091 3034 3091 3526 
C 3091 4250 2605 4762 1805 4762 
C 1075 4762 518 4282 518 3571 
C 518 3078 813 2726 1152 2490 
L 1152 2464 
C 723 2234 294 1792 294 1165 
C 294 442 922 -83 1792 -83 
z
M 2112 2547 
C 1555 2765 1050 3014 1050 3571 
C 1050 4026 1363 4326 1798 4326 
C 2298 4326 2592 3962 2592 3494 
C 2592 3149 2426 2829 2112 2547 
z
M 1798 352 
C 1235 352 813 717 813 1216 
C 813 1664 1082 2035 1459 2278 
C 2125 2010 2701 1779 2701 1146 
C 2701 678 2342 352 1798 352 
z
" transform="scale(0.015625)"/>
        <path id="NotoSansCJKjp-Regular-30" d="M 1779 -83 
C 2669 -83 3238 723 3238 2362 
C 3238 3987 2669 4774 1779 4774 
C 883 4774 320 3987 320 2362 
C 320 723 883 -83 1779 -83 
z
M 1779 390 
C 1248 390 883 986 883 2362 
C 883 3731 1248 4314 1779 4314 
C 2310 4314 2675 3731 2675 2362 
C 2675 986 2310 390 1779 390 
z
" transform="scale(0.015625)"/>
       </defs>
       <use xlink:href="#NotoSansCJKjp-Regular-31"/>
       <use xlink:href="#NotoSansCJKjp-Regular-39" x="55.499985"/>
       <use xlink:href="#NotoSansCJKjp-Regular-38" x="110.999969"/>
       <use xlink:href="#NotoSansCJKjp-Regular-30" x="166.499954"/>
      </g>
     </g>
    </g>
    <g id="xtick_2">
     <g id="line2d_2">
      <path d="M 214.527273 512.64 
L 214.527273 69.12 
" clip-path="url(#pd5389e2f45)" style="fill: none; stroke: #ffffff; stroke-width: 1.5; stroke-linecap: round"/>
     </g>
     <g id="text_2">
      <!-- 1985 -->
      <g style="fill: #262626" transform="translate(199.875273 535.646375) scale(0.132 -0.132)">
       <defs>
        <path id="NotoSansCJKjp-Regular-35" d="M 1677 -83 
C 2464 -83 3213 499 3213 1523 
C 3213 2560 2573 3021 1798 3021 
C 1517 3021 1306 2950 1094 2835 
L 1216 4192 
L 2982 4192 
L 2982 4691 
L 704 4691 
L 550 2502 
L 864 2304 
C 1133 2483 1331 2579 1645 2579 
C 2234 2579 2618 2182 2618 1510 
C 2618 826 2176 403 1619 403 
C 1075 403 730 653 467 922 
L 173 538 
C 493 224 941 -83 1677 -83 
z
" transform="scale(0.015625)"/>
       </defs>
       <use xlink:href="#NotoSansCJKjp-Regular-31"/>
       <use xlink:href="#NotoSansCJKjp-Regular-39" x="55.499985"/>
       <use xlink:href="#NotoSansCJKjp-Regular-38" x="110.999969"/>
       <use xlink:href="#NotoSansCJKjp-Regular-35" x="166.499954"/>
      </g>
     </g>
    </g>
    <g id="xtick_3">
     <g id="line2d_3">
      <path d="M 290.618182 512.64 
L 290.618182 69.12 
" clip-path="url(#pd5389e2f45)" style="fill: none; stroke: #ffffff; stroke-width: 1.5; stroke-linecap: round"/>
     </g>
     <g id="text_3">
      <!-- 1990 -->
      <g style="fill: #262626" transform="translate(275.966182 535.646375) scale(0.132 -0.132)">
       <use xlink:href="#NotoSansCJKjp-Regular-31"/>
       <use xlink:href="#NotoSansCJKjp-Regular-39" x="55.499985"/>
       <use xlink:href="#NotoSansCJKjp-Regular-39" x="110.999969"/>
       <use xlink:href="#NotoSansCJKjp-Regular-30" x="166.499954"/>
      </g>
     </g>
    </g>
    <g id="xtick_4">
     <g id="line2d_4">
      <path d="M 366.709091 512.64 
L 366.709091 69.12 
" clip-path="url(#pd5389e2f45)" style="fill: none; stroke: #ffffff; stroke-width: 1.5; stroke-linecap: round"/>
     </g>
     <g id="text_4">
      <!-- 1995 -->
      <g style="fill: #262626" transform="translate(352.057091 535.646375) scale(0.132 -0.132)">
       <use xlink:href="#NotoSansCJKjp-Regular-31"/>
       <use xlink:href="#NotoSansCJKjp-Regular-39" x="55.499985"/>
       <use xlink:href="#NotoSansCJKjp-Regular-39" x="110.999969"/>
       <use xlink:href="#NotoSansCJKjp-Regular-35" x="166.499954"/>
      </g>
     </g>
    </g>
    <g id="xtick_5">
     <g id="line2d_5">
      <path d="M 442.8 512.64 
L 442.8 69.12 
" clip-path="url(#pd5389e2f45)" style="fill: none; stroke: #ffffff; stroke-width: 1.5; stroke-linecap: round"/>
     </g>
     <g id="text_5">
      <!-- 2000 -->
      <g style="fill: #262626" transform="translate(428.148 535.646375) scale(0.132 -0.132)">
       <defs>
        <path id="NotoSansCJKjp-Regular-32" d="M 282 0 
L 3232 0 
L 3232 506 
L 1933 506 
C 1696 506 1408 480 1165 461 
C 2266 1504 3008 2458 3008 3398 
C 3008 4230 2477 4774 1638 4774 
C 1043 4774 634 4506 256 4090 
L 595 3757 
C 858 4070 1184 4301 1568 4301 
C 2150 4301 2432 3910 2432 3373 
C 2432 2566 1754 1632 282 346 
L 282 0 
z
" transform="scale(0.015625)"/>
       </defs>
       <use xlink:href="#NotoSansCJKjp-Regular-32"/>
       <use xlink:href="#NotoSansCJKjp-Regular-30" x="55.499985"/>
       <use xlink:href="#NotoSansCJKjp-Regular-30" x="110.999969"/>
       <use xlink:href="#NotoSansCJKjp-Regular-30" x="166.499954"/>
      </g>
     </g>
    </g>
    <g id="xtick_6">
     <g id="line2d_6">
      <path d="M 518.890909 512.64 
L 518.890909 69.12 
" clip-path="url(#pd5389e2f45)" style="fill: none; stroke: #ffffff; stroke-width: 1.5; stroke-linecap: round"/>
     </g>
     <g id="text_6">
      <!-- 2005 -->
      <g style="fill: #262626" transform="translate(504.238909 535.646375) scale(0.132 -0.132)">
       <use xlink:href="#NotoSansCJKjp-Regular-32"/>
       <use xlink:href="#NotoSansCJKjp-Regular-30" x="55.499985"/>
       <use xlink:href="#NotoSansCJKjp-Regular-30" x="110.999969"/>
       <use xlink:href="#NotoSansCJKjp-Regular-35" x="166.499954"/>
      </g>
     </g>
    </g>
    <g id="xtick_7">
     <g id="line2d_7">
      <path d="M 594.981818 512.64 
L 594.981818 69.12 
" clip-path="url(#pd5389e2f45)" style="fill: none; stroke: #ffffff; stroke-width: 1.5; stroke-linecap: round"/>
     </g>
     <g id="text_7">
      <!-- 2010 -->
      <g style="fill: #262626" transform="translate(580.329818 535.646375) scale(0.132 -0.132)">
       <use xlink:href="#NotoSansCJKjp-Regular-32"/>
       <use xlink:href="#NotoSansCJKjp-Regular-30" x="55.499985"/>
       <use xlink:href="#NotoSansCJKjp-Regular-31" x="110.999969"/>
       <use xlink:href="#NotoSansCJKjp-Regular-30" x="166.499954"/>
      </g>
     </g>
    </g>
    <g id="xtick_8">
     <g id="line2d_8">
      <path d="M 671.072727 512.64 
L 671.072727 69.12 
" clip-path="url(#pd5389e2f45)" style="fill: none; stroke: #ffffff; stroke-width: 1.5; stroke-linecap: round"/>
     </g>
     <g id="text_8">
      <!-- 2015 -->
      <g style="fill: #262626" transform="translate(656.420727 535.646375) scale(0.132 -0.132)">
       <use xlink:href="#NotoSansCJKjp-Regular-32"/>
       <use xlink:href="#NotoSansCJKjp-Regular-30" x="55.499985"/>
       <use xlink:href="#NotoSansCJKjp-Regular-31" x="110.999969"/>
       <use xlink:href="#NotoSansCJKjp-Regular-35" x="166.499954"/>
      </g>
     </g>
    </g>
    <g id="xtick_9">
     <g id="line2d_9">
      <path d="M 747.163636 512.64 
L 747.163636 69.12 
" clip-path="url(#pd5389e2f45)" style="fill: none; stroke: #ffffff; stroke-width: 1.5; stroke-linecap: round"/>
     </g>
     <g id="text_9">
      <!-- 2020 -->
      <g style="fill: #262626" transform="translate(732.511636 535.646375) scale(0.132 -0.132)">
       <use xlink:href="#NotoSansCJKjp-Regular-32"/>
       <use xlink:href="#NotoSansCJKjp-Regular-30" x="55.499985"/>
       <use xlink:href="#NotoSansCJKjp-Regular-32" x="110.999969"/>
       <use xlink:href="#NotoSansCJKjp-Regular-30" x="166.499954"/>
      </g>
     </g>
    </g>
    <g id="text_10">
     <!-- 年份 -->
     <g style="fill: #262626" transform="translate(428.4 554.1315) scale(0.144 -0.144)">
      <defs>
       <path id="NotoSansCJKjp-Regular-5e74" d="M 307 1427 
L 307 966 
L 3277 966 
L 3277 -512 
L 3770 -512 
L 3770 966 
L 6106 966 
L 6106 1427 
L 3770 1427 
L 3770 2701 
L 5658 2701 
L 5658 3155 
L 3770 3155 
L 3770 4141 
L 5805 4141 
L 5805 4602 
L 1965 4602 
C 2074 4819 2170 5043 2259 5274 
L 1773 5402 
C 1466 4531 934 3699 320 3174 
C 442 3104 646 2944 736 2867 
C 1082 3200 1421 3642 1715 4141 
L 3277 4141 
L 3277 3155 
L 1363 3155 
L 1363 1427 
L 307 1427 
z
M 1843 1427 
L 1843 2701 
L 3277 2701 
L 3277 1427 
L 1843 1427 
z
" transform="scale(0.015625)"/>
       <path id="NotoSansCJKjp-Regular-4efd" d="M 2835 4666 
C 2630 4013 2202 3226 1683 2739 
C 1773 2656 1926 2515 1997 2419 
C 2566 2957 3027 3808 3296 4550 
L 2835 4666 
z
M 2451 2816 
L 2451 2381 
L 3341 2381 
C 3245 1363 2982 390 1965 -154 
C 2067 -237 2195 -403 2253 -512 
C 3354 122 3699 1203 3814 2381 
L 4941 2381 
C 4896 800 4838 224 4730 83 
C 4678 19 4621 6 4518 6 
C 4422 6 4160 6 3878 38 
C 3955 -96 4006 -301 4013 -442 
C 4301 -461 4589 -461 4749 -442 
C 4928 -422 5043 -371 5152 -230 
C 5318 -13 5376 659 5427 2592 
C 5434 2662 5434 2816 5434 2816 
L 2451 2816 
z
M 3226 5197 
L 3226 4768 
L 4602 4768 
C 4826 3846 5286 3008 5888 2528 
C 5971 2643 6131 2829 6246 2918 
C 5626 3354 5158 4230 4979 5197 
L 3226 5197 
z
M 1690 5350 
C 1331 4378 736 3418 102 2797 
C 192 2688 326 2438 371 2323 
C 595 2554 813 2822 1024 3117 
L 1024 -499 
L 1485 -499 
L 1485 3840 
C 1734 4282 1965 4749 2144 5216 
L 1690 5350 
z
" transform="scale(0.015625)"/>
      </defs>
      <use xlink:href="#NotoSansCJKjp-Regular-5e74"/>
      <use xlink:href="#NotoSansCJKjp-Regular-4efd" x="99.999985"/>
     </g>
    </g>
   </g>
   <g id="matplotlib.axis_2">
    <g id="ytick_1">
     <g id="line2d_10">
      <path d="M 108 491.902148 
L 777.6 491.902148 
" clip-path="url(#pd5389e2f45)" style="fill: none; stroke: #ffffff; stroke-width: 1.5; stroke-linecap: round"/>
     </g>
     <g id="text_11">
      <!-- 0 -->
      <g style="fill: #262626" transform="translate(88.174 497.155336) scale(0.132 -0.132)">
       <use xlink:href="#NotoSansCJKjp-Regular-30"/>
      </g>
     </g>
    </g>
    <g id="ytick_2">
     <g id="line2d_11">
      <path d="M 108 433.305903 
L 777.6 433.305903 
" clip-path="url(#pd5389e2f45)" style="fill: none; stroke: #ffffff; stroke-width: 1.5; stroke-linecap: round"/>
     </g>
     <g id="text_12">
      <!-- 2 -->
      <g style="fill: #262626" transform="translate(88.174 438.559091) scale(0.132 -0.132)">
       <use xlink:href="#NotoSansCJKjp-Regular-32"/>
      </g>
     </g>
    </g>
    <g id="ytick_3">
     <g id="line2d_12">
      <path d="M 108 374.709658 
L 777.6 374.709658 
" clip-path="url(#pd5389e2f45)" style="fill: none; stroke: #ffffff; stroke-width: 1.5; stroke-linecap: round"/>
     </g>
     <g id="text_13">
      <!-- 4 -->
      <g style="fill: #262626" transform="translate(88.174 379.962846) scale(0.132 -0.132)">
       <defs>
        <path id="NotoSansCJKjp-Regular-34" d="M 2176 0 
L 2726 0 
L 2726 1293 
L 3354 1293 
L 3354 1760 
L 2726 1760 
L 2726 4691 
L 2080 4691 
L 128 1677 
L 128 1293 
L 2176 1293 
L 2176 0 
z
M 2176 1760 
L 736 1760 
L 1805 3360 
C 1939 3590 2067 3827 2182 4051 
L 2208 4051 
C 2195 3814 2176 3430 2176 3200 
L 2176 1760 
z
" transform="scale(0.015625)"/>
       </defs>
       <use xlink:href="#NotoSansCJKjp-Regular-34"/>
      </g>
     </g>
    </g>
    <g id="ytick_4">
     <g id="line2d_13">
      <path d="M 108 316.113414 
L 777.6 316.113414 
" clip-path="url(#pd5389e2f45)" style="fill: none; stroke: #ffffff; stroke-width: 1.5; stroke-linecap: round"/>
     </g>
     <g id="text_14">
      <!-- 6 -->
      <g style="fill: #262626" transform="translate(88.174 321.366601) scale(0.132 -0.132)">
       <defs>
        <path id="NotoSansCJKjp-Regular-36" d="M 1926 -83 
C 2656 -83 3277 531 3277 1440 
C 3277 2426 2765 2912 1971 2912 
C 1606 2912 1197 2701 909 2349 
C 934 3802 1466 4294 2118 4294 
C 2400 4294 2682 4154 2861 3936 
L 3194 4294 
C 2931 4576 2579 4774 2093 4774 
C 1184 4774 358 4077 358 2240 
C 358 691 1030 -83 1926 -83 
z
M 922 1882 
C 1229 2317 1587 2477 1875 2477 
C 2445 2477 2720 2074 2720 1440 
C 2720 800 2374 378 1926 378 
C 1338 378 986 909 922 1882 
z
" transform="scale(0.015625)"/>
       </defs>
       <use xlink:href="#NotoSansCJKjp-Regular-36"/>
      </g>
     </g>
    </g>
    <g id="ytick_5">
     <g id="line2d_14">
      <path d="M 108 257.517169 
L 777.6 257.517169 
" clip-path="url(#pd5389e2f45)" style="fill: none; stroke: #ffffff; stroke-width: 1.5; stroke-linecap: round"/>
     </g>
     <g id="text_15">
      <!-- 8 -->
      <g style="fill: #262626" transform="translate(88.174 262.770356) scale(0.132 -0.132)">
       <use xlink:href="#NotoSansCJKjp-Regular-38"/>
      </g>
     </g>
    </g>
    <g id="ytick_6">
     <g id="line2d_15">
      <path d="M 108 198.920924 
L 777.6 198.920924 
" clip-path="url(#pd5389e2f45)" style="fill: none; stroke: #ffffff; stroke-width: 1.5; stroke-linecap: round"/>
     </g>
     <g id="text_16">
      <!-- 10 -->
      <g style="fill: #262626" transform="translate(80.848 204.174111) scale(0.132 -0.132)">
       <use xlink:href="#NotoSansCJKjp-Regular-31"/>
       <use xlink:href="#NotoSansCJKjp-Regular-30" x="55.499985"/>
      </g>
     </g>
    </g>
    <g id="ytick_7">
     <g id="line2d_16">
      <path d="M 108 140.324679 
L 777.6 140.324679 
" clip-path="url(#pd5389e2f45)" style="fill: none; stroke: #ffffff; stroke-width: 1.5; stroke-linecap: round"/>
     </g>
     <g id="text_17">
      <!-- 12 -->
      <g style="fill: #262626" transform="translate(80.848 145.577866) scale(0.132 -0.132)">
       <use xlink:href="#NotoSansCJKjp-Regular-31"/>
       <use xlink:href="#NotoSansCJKjp-Regular-32" x="55.499985"/>
      </g>
     </g>
    </g>
    <g id="ytick_8">
     <g id="line2d_17">
      <path d="M 108 81.728434 
L 777.6 81.728434 
" clip-path="url(#pd5389e2f45)" style="fill: none; stroke: #ffffff; stroke-width: 1.5; stroke-linecap: round"/>
     </g>
     <g id="text_18">
      <!-- 14 -->
      <g style="fill: #262626" transform="translate(80.848 86.981622) scale(0.132 -0.132)">
       <use xlink:href="#NotoSansCJKjp-Regular-31"/>
       <use xlink:href="#NotoSansCJKjp-Regular-34" x="55.499985"/>
      </g>
     </g>
    </g>
    <g id="text_19">
     <!-- 数值 -->
     <g style="fill: #262626" transform="translate(73.5495 305.28) rotate(-90) scale(0.144 -0.144)">
      <defs>
       <path id="NotoSansCJKjp-Regular-6570" d="M 2803 5254 
C 2688 4998 2483 4627 2317 4403 
L 2643 4243 
C 2816 4454 3027 4781 3219 5075 
L 2803 5254 
z
M 531 5075 
C 704 4806 870 4454 928 4230 
L 1312 4397 
C 1248 4627 1075 4973 890 5222 
L 531 5075 
z
M 4026 5382 
C 3846 4243 3507 3162 2970 2490 
C 3078 2413 3283 2246 3360 2163 
C 3533 2394 3693 2669 3827 2970 
C 3974 2310 4160 1709 4410 1184 
C 4090 698 3667 314 3110 19 
C 2912 166 2656 326 2374 480 
C 2598 774 2746 1126 2829 1562 
L 3398 1562 
L 3398 1958 
L 1677 1958 
L 1894 2413 
L 1779 2438 
L 2061 2438 
L 2061 3398 
C 2374 3168 2771 2854 2938 2701 
L 3206 3046 
C 3034 3174 2336 3616 2061 3776 
L 2061 3802 
L 3373 3802 
L 3373 4198 
L 2061 4198 
L 2061 5382 
L 1613 5382 
L 1613 4198 
L 288 4198 
L 288 3802 
L 1485 3802 
C 1171 3379 678 2982 218 2784 
C 314 2694 422 2528 480 2419 
C 870 2637 1293 2989 1613 3373 
L 1613 2477 
L 1440 2515 
L 1178 1958 
L 250 1958 
L 250 1562 
L 979 1562 
C 806 1222 627 896 486 653 
L 909 506 
L 1005 678 
C 1222 589 1434 493 1638 384 
C 1306 147 858 -13 269 -109 
C 352 -211 448 -384 480 -512 
C 1171 -365 1683 -154 2061 160 
C 2355 -13 2611 -186 2810 -352 
L 2963 -192 
C 3046 -301 3136 -448 3174 -531 
C 3802 -205 4288 205 4666 710 
C 4979 192 5370 -224 5862 -512 
C 5939 -378 6093 -192 6208 -96 
C 5690 173 5280 614 4960 1165 
C 5350 1856 5594 2707 5754 3750 
L 6144 3750 
L 6144 4198 
L 4262 4198 
C 4358 4557 4442 4928 4506 5312 
L 4026 5382 
z
M 1478 1562 
L 2368 1562 
C 2285 1216 2157 928 1965 698 
C 1715 819 1459 934 1197 1030 
L 1478 1562 
z
M 4134 3750 
L 5254 3750 
C 5139 2950 4966 2266 4698 1696 
C 4435 2298 4250 3002 4134 3750 
z
" transform="scale(0.015625)"/>
       <path id="NotoSansCJKjp-Regular-503c" d="M 3834 5376 
C 3814 5184 3782 4954 3750 4723 
L 2106 4723 
L 2106 4294 
L 3674 4294 
C 3635 4077 3597 3872 3552 3699 
L 2445 3699 
L 2445 90 
L 1830 90 
L 1830 -326 
L 6131 -326 
L 6131 90 
L 5562 90 
L 5562 3699 
L 3987 3699 
C 4038 3872 4090 4077 4134 4294 
L 5939 4294 
L 5939 4723 
L 4230 4723 
L 4346 5344 
L 3834 5376 
z
M 2880 90 
L 2880 621 
L 5114 621 
L 5114 90 
L 2880 90 
z
M 2880 2426 
L 5114 2426 
L 5114 1875 
L 2880 1875 
L 2880 2426 
z
M 2880 2784 
L 2880 3322 
L 5114 3322 
L 5114 2784 
L 2880 2784 
z
M 2880 1530 
L 5114 1530 
L 5114 973 
L 2880 973 
L 2880 1530 
z
M 1690 5370 
C 1350 4397 794 3443 205 2816 
C 288 2701 422 2451 474 2342 
C 659 2547 845 2784 1018 3040 
L 1018 -512 
L 1466 -512 
L 1466 3770 
C 1722 4230 1946 4730 2131 5229 
L 1690 5370 
z
" transform="scale(0.015625)"/>
      </defs>
      <use xlink:href="#NotoSansCJKjp-Regular-6570"/>
      <use xlink:href="#NotoSansCJKjp-Regular-503c" x="99.999985"/>
     </g>
    </g>
   </g>
   <g id="PolyCollection_1"/>
   <g id="PolyCollection_2"/>
   <g id="PolyCollection_3"/>
   <g id="PolyCollection_4"/>
   <g id="line2d_18">
    <path d="M 138.436364 491.902148 
L 153.654545 491.902148 
L 168.872727 491.902148 
L 184.090909 491.902148 
L 199.309091 491.902148 
L 214.527273 491.902148 
L 229.745455 491.902148 
L 244.963636 491.902148 
L 260.181818 491.902148 
L 275.4 491.902148 
L 290.618182 491.902148 
L 305.836364 491.902148 
L 321.054545 491.902148 
L 336.272727 491.902148 
L 351.490909 316.360349 
L 366.709091 395.80547 
L 381.927273 443.201714 
L 397.145455 448.086429 
L 412.363636 367.658758 
L 427.581818 397.243892 
L 442.8 447.222627 
L 458.018182 477.354991 
L 473.236364 469.863323 
L 488.454545 481.429359 
L 503.672727 486.49149 
L 518.890909 486.779786 
L 534.109091 484.800359 
L 549.327273 476.367863 
L 564.545455 479.545671 
L 579.763636 483.482651 
L 594.981818 486.192353 
L 610.2 488.269394 
L 625.418182 488.616513 
L 640.636364 489.256598 
L 655.854545 490.356393 
L 671.072727 490.24482 
L 686.290909 490.031249 
L 701.509091 491.117471 
L 716.727273 489.104434 
L 731.945455 489.364914 
L 747.163636 488.955996 
" clip-path="url(#pd5389e2f45)" style="fill: none; stroke: #4c72b0; stroke-width: 4; stroke-linecap: round"/>
   </g>
   <g id="line2d_19">
    <path d="M 138.436364 491.902148 
L 153.654545 491.902148 
L 168.872727 491.902148 
L 184.090909 491.902148 
L 199.309091 491.902148 
L 214.527273 491.902148 
L 229.745455 491.902148 
L 244.963636 491.902148 
L 260.181818 491.902148 
L 275.4 491.902148 
L 290.618182 491.902148 
L 305.836364 491.902148 
L 321.054545 491.902148 
L 336.272727 491.902148 
L 351.490909 318.309731 
L 366.709091 396.928516 
L 381.927273 443.845791 
L 397.145455 448.647838 
L 412.363636 368.771326 
L 427.581818 398.092758 
L 442.8 447.729768 
L 458.018182 477.652652 
L 473.236364 470.191421 
L 488.454545 481.674589 
L 503.672727 486.704092 
L 518.890909 486.992678 
L 534.109091 485.027644 
L 549.327273 476.653737 
L 564.545455 479.816672 
L 579.763636 483.734974 
L 594.981818 486.427759 
L 610.2 488.485457 
L 625.418182 488.842201 
L 640.636364 489.478042 
L 655.854545 490.558783 
L 671.072727 490.434185 
L 686.290909 490.212991 
L 701.509091 491.296361 
L 716.727273 489.258302 
L 731.945455 489.472265 
L 747.163636 489.025369 
" clip-path="url(#pd5389e2f45)" style="fill: none; stroke: #dd8452; stroke-width: 4; stroke-linecap: round"/>
   </g>
   <g id="line2d_20">
    <path d="M 138.436364 491.902148 
L 153.654545 491.902148 
L 168.872727 491.902148 
L 184.090909 491.902148 
L 199.309091 491.902148 
L 214.527273 491.902148 
L 229.745455 491.902148 
L 244.963636 491.902148 
L 260.181818 388.664349 
L 275.4 433.765668 
L 290.618182 467.323322 
L 305.836364 446.182473 
L 321.054545 413.410586 
L 336.272727 416.609849 
L 351.490909 449.850675 
L 366.709091 453.987946 
L 381.927273 466.347395 
L 397.145455 465.090631 
L 412.363636 468.781908 
L 427.581818 468.438427 
L 442.8 463.909339 
L 458.018182 471.764016 
L 473.236364 479.786102 
L 488.454545 483.039529 
L 503.672727 485.075376 
L 518.890909 486.975014 
L 534.109091 487.059704 
L 549.327273 486.617475 
L 564.545455 487.065569 
L 579.763636 487.251101 
L 594.981818 487.706943 
L 610.2 487.749869 
L 625.418182 488.346034 
L 640.636364 488.999646 
L 655.854545 490.709769 
L 671.072727 491.922628 
L 686.290909 490.405511 
L 701.509091 489.804251 
L 716.727273 488.478491 
L 731.945455 490.312927 
L 747.163636 492.48 
" clip-path="url(#pd5389e2f45)" style="fill: none; stroke: #55a868; stroke-width: 4; stroke-linecap: round"/>
   </g>
   <g id="line2d_21">
    <path d="M 138.436364 491.902148 
L 153.654545 491.902148 
L 168.872727 491.902148 
L 184.090909 491.902148 
L 199.309091 491.902148 
L 214.527273 491.902148 
L 229.745455 491.902148 
L 244.963636 491.902148 
L 260.181818 491.902148 
L 275.4 491.902148 
L 290.618182 491.902148 
L 305.836364 491.902148 
L 321.054545 491.902148 
L 336.272727 491.902148 
L 351.490909 491.902148 
L 366.709091 491.902148 
L 381.927273 491.902148 
L 397.145455 491.902148 
L 412.363636 491.902148 
L 427.581818 491.902148 
L 442.8 491.902148 
L 458.018182 89.28 
L 473.236364 235.629418 
L 488.454545 422.152261 
L 503.672727 456.454169 
L 518.890909 477.576527 
L 534.109091 481.537586 
L 549.327273 483.152561 
L 564.545455 484.843345 
L 579.763636 484.648777 
L 594.981818 485.800723 
L 610.2 485.112887 
L 625.418182 488.584466 
L 640.636364 489.780826 
L 655.854545 490.275327 
L 671.072727 480.926193 
L 686.290909 487.258789 
L 701.509091 485.57576 
L 716.727273 491.062185 
L 731.945455 489.027273 
L 747.163636 489.788693 
" clip-path="url(#pd5389e2f45)" style="fill: none; stroke: #c44e52; stroke-width: 4; stroke-linecap: round"/>
   </g>
   <g id="patch_3">
    <path d="M 108 512.64 
L 108 69.12 
" style="fill: none; stroke: #ffffff; stroke-width: 1.875; stroke-linejoin: miter; stroke-linecap: square"/>
   </g>
   <g id="patch_4">
    <path d="M 777.6 512.64 
L 777.6 69.12 
" style="fill: none; stroke: #ffffff; stroke-width: 1.875; stroke-linejoin: miter; stroke-linecap: square"/>
   </g>
   <g id="patch_5">
    <path d="M 108 512.64 
L 777.6 512.64 
" style="fill: none; stroke: #ffffff; stroke-width: 1.875; stroke-linejoin: miter; stroke-linecap: square"/>
   </g>
   <g id="patch_6">
    <path d="M 108 69.12 
L 777.6 69.12 
" style="fill: none; stroke: #ffffff; stroke-width: 1.875; stroke-linejoin: miter; stroke-linecap: square"/>
   </g>
   <g id="text_20">
    <!-- 中国互联网用户的数量（单位：千万人）、占人口的比例、移动互联网订阅每一百人比例、宽带每一百人订阅比例的增长率 -->
    <g style="fill: #262626" transform="translate(54 63.12) scale(0.144 -0.144)">
     <defs>
      <path id="NotoSansCJKjp-Regular-4e2d" d="M 2931 5376 
L 2931 4230 
L 614 4230 
L 614 1190 
L 1094 1190 
L 1094 1587 
L 2931 1587 
L 2931 -506 
L 3437 -506 
L 3437 1587 
L 5280 1587 
L 5280 1222 
L 5773 1222 
L 5773 4230 
L 3437 4230 
L 3437 5376 
L 2931 5376 
z
M 1094 2061 
L 1094 3763 
L 2931 3763 
L 2931 2061 
L 1094 2061 
z
M 5280 2061 
L 3437 2061 
L 3437 3763 
L 5280 3763 
L 5280 2061 
z
" transform="scale(0.015625)"/>
      <path id="NotoSansCJKjp-Regular-56fd" d="M 3789 2048 
C 4026 1830 4294 1523 4422 1318 
L 4755 1517 
C 4621 1715 4346 2016 4102 2221 
L 3789 2048 
z
M 1459 1254 
L 1459 845 
L 4973 845 
L 4973 1254 
L 3392 1254 
L 3392 2336 
L 4685 2336 
L 4685 2752 
L 3392 2752 
L 3392 3667 
L 4838 3667 
L 4838 4096 
L 1549 4096 
L 1549 3667 
L 2938 3667 
L 2938 2752 
L 1728 2752 
L 1728 2336 
L 2938 2336 
L 2938 1254 
L 1459 1254 
z
M 550 5088 
L 550 -512 
L 1037 -512 
L 1037 -192 
L 5344 -192 
L 5344 -512 
L 5850 -512 
L 5850 5088 
L 550 5088 
z
M 1037 256 
L 1037 4640 
L 5344 4640 
L 5344 256 
L 1037 256 
z
" transform="scale(0.015625)"/>
      <path id="NotoSansCJKjp-Regular-4e92" d="M 333 224 
L 333 -224 
L 6086 -224 
L 6086 224 
L 4493 224 
C 4634 1114 4800 2515 4909 3578 
L 2304 3578 
L 2490 4512 
L 5894 4512 
L 5894 4966 
L 544 4966 
L 544 4512 
L 1971 4512 
C 1779 3392 1459 1914 1216 1024 
L 1728 979 
L 1811 1312 
L 4141 1312 
C 4090 915 4032 538 3981 224 
L 333 224 
z
M 2214 3142 
L 4365 3142 
C 4320 2701 4262 2214 4198 1747 
L 1914 1747 
C 2010 2176 2118 2656 2214 3142 
z
" transform="scale(0.015625)"/>
      <path id="NotoSansCJKjp-Regular-8054" d="M 3104 5082 
C 3360 4781 3622 4358 3738 4083 
L 4147 4301 
C 4032 4582 3757 4979 3494 5274 
L 3104 5082 
z
M 5184 5274 
C 5030 4902 4736 4384 4499 4045 
L 2899 4045 
L 2899 3603 
L 4070 3603 
L 4070 2829 
L 4064 2438 
L 2739 2438 
L 2739 1990 
L 4013 1990 
C 3904 1267 3552 435 2509 -230 
C 2630 -307 2797 -461 2874 -563 
C 3693 -6 4115 640 4333 1274 
C 4666 480 5178 -154 5862 -506 
C 5933 -384 6080 -205 6182 -109 
C 5376 250 4806 1037 4525 1990 
L 6118 1990 
L 6118 2438 
L 4544 2438 
L 4550 2822 
L 4550 3603 
L 5875 3603 
L 5875 4045 
L 4998 4045 
C 5222 4358 5466 4762 5677 5126 
L 5184 5274 
z
M 243 864 
L 339 403 
L 2003 691 
L 2003 -512 
L 2426 -512 
L 2426 768 
L 2957 858 
L 2931 1274 
L 2426 1197 
L 2426 4666 
L 2707 4666 
L 2707 5101 
L 301 5101 
L 301 4666 
L 646 4666 
L 646 922 
L 243 864 
z
M 1082 4666 
L 2003 4666 
L 2003 3757 
L 1082 3757 
L 1082 4666 
z
M 1082 3354 
L 2003 3354 
L 2003 2438 
L 1082 2438 
L 1082 3354 
z
M 1082 2029 
L 2003 2029 
L 2003 1126 
L 1082 986 
L 1082 2029 
z
" transform="scale(0.015625)"/>
      <path id="NotoSansCJKjp-Regular-7f51" d="M 563 4992 
L 563 -499 
L 1030 -499 
L 1030 4531 
L 2304 4531 
C 2278 3955 2246 3411 2182 2912 
C 1971 3142 1747 3360 1536 3558 
L 1274 3270 
C 1549 3008 1837 2701 2099 2387 
C 1952 1568 1696 883 1254 378 
C 1357 314 1555 166 1626 90 
C 2029 595 2285 1222 2451 1965 
C 2656 1709 2829 1459 2950 1254 
L 3238 1594 
C 3078 1850 2835 2170 2554 2502 
C 2650 3110 2707 3789 2746 4531 
L 4006 4531 
C 3987 3994 3962 3488 3910 3021 
C 3706 3232 3494 3443 3290 3629 
L 3021 3341 
C 3290 3085 3571 2790 3834 2483 
C 3693 1606 3430 890 2950 365 
C 3059 301 3258 154 3328 77 
C 3763 602 4026 1261 4192 2054 
C 4435 1747 4646 1459 4794 1216 
L 5088 1562 
C 4902 1856 4614 2221 4288 2598 
C 4371 3181 4416 3827 4448 4531 
L 5402 4531 
L 5402 109 
C 5402 0 5357 -32 5248 -38 
C 5139 -38 4768 -45 4384 -32 
C 4448 -160 4525 -371 4550 -493 
C 5088 -499 5408 -486 5606 -410 
C 5798 -333 5869 -179 5869 109 
L 5869 4992 
L 563 4992 
z
" transform="scale(0.015625)"/>
      <path id="NotoSansCJKjp-Regular-7528" d="M 979 4928 
L 979 2605 
C 979 1702 915 570 205 -230 
C 314 -288 506 -448 576 -544 
C 1069 0 1286 736 1382 1453 
L 2989 1453 
L 2989 -454 
L 3475 -454 
L 3475 1453 
L 5203 1453 
L 5203 141 
C 5203 26 5158 -13 5030 -19 
C 4909 -26 4474 -32 4026 -13 
C 4090 -141 4166 -352 4192 -474 
C 4794 -480 5165 -474 5382 -397 
C 5600 -320 5677 -173 5677 141 
L 5677 4928 
L 979 4928 
z
M 1453 4467 
L 2989 4467 
L 2989 3437 
L 1453 3437 
L 1453 4467 
z
M 5203 4467 
L 5203 3437 
L 3475 3437 
L 3475 4467 
L 5203 4467 
z
M 1453 2982 
L 2989 2982 
L 2989 1907 
L 1427 1907 
C 1446 2150 1453 2387 1453 2605 
L 1453 2982 
z
M 5203 2982 
L 5203 1907 
L 3475 1907 
L 3475 2982 
L 5203 2982 
z
" transform="scale(0.015625)"/>
      <path id="NotoSansCJKjp-Regular-6237" d="M 1581 3936 
L 4922 3936 
L 4922 2650 
L 1574 2650 
L 1581 2989 
L 1581 3936 
z
M 2822 5286 
C 2950 5005 3091 4646 3168 4384 
L 1082 4384 
L 1082 2989 
C 1082 2022 998 691 218 -262 
C 333 -314 544 -461 634 -550 
C 1261 218 1485 1280 1555 2202 
L 4922 2202 
L 4922 1779 
L 5408 1779 
L 5408 4384 
L 3379 4384 
L 3674 4474 
C 3597 4723 3437 5114 3283 5408 
L 2822 5286 
z
" transform="scale(0.015625)"/>
      <path id="NotoSansCJKjp-Regular-7684" d="M 3533 2707 
C 3885 2240 4320 1600 4512 1210 
L 4922 1466 
C 4710 1843 4269 2464 3904 2918 
L 3533 2707 
z
M 1536 5389 
C 1485 5082 1376 4659 1274 4346 
L 557 4346 
L 557 -346 
L 998 -346 
L 998 160 
L 2784 160 
L 2784 4346 
L 1715 4346 
C 1824 4621 1946 4979 2054 5299 
L 1536 5389 
z
M 998 3917 
L 2342 3917 
L 2342 2566 
L 998 2566 
L 998 3917 
z
M 998 595 
L 998 2144 
L 2342 2144 
L 2342 595 
L 998 595 
z
M 3827 5402 
C 3622 4518 3277 3635 2835 3066 
C 2950 3002 3149 2867 3238 2790 
C 3456 3098 3661 3488 3840 3923 
L 5478 3923 
C 5402 1357 5299 371 5094 154 
C 5018 64 4947 45 4819 45 
C 4672 45 4288 51 3866 83 
C 3955 -38 4013 -243 4026 -378 
C 4384 -397 4762 -410 4979 -390 
C 5210 -365 5350 -314 5498 -122 
C 5754 192 5843 1184 5939 4122 
C 5946 4186 5946 4365 5946 4365 
L 4013 4365 
C 4115 4666 4211 4986 4288 5299 
L 3827 5402 
z
" transform="scale(0.015625)"/>
      <path id="NotoSansCJKjp-Regular-91cf" d="M 1600 4256 
L 4781 4256 
L 4781 3904 
L 1600 3904 
L 1600 4256 
z
M 1600 4883 
L 4781 4883 
L 4781 4538 
L 1600 4538 
L 1600 4883 
z
M 1133 5171 
L 1133 3616 
L 5261 3616 
L 5261 5171 
L 1133 5171 
z
M 333 3341 
L 333 2976 
L 6074 2976 
L 6074 3341 
L 333 3341 
z
M 1472 1747 
L 2957 1747 
L 2957 1376 
L 1472 1376 
L 1472 1747 
z
M 3424 1747 
L 4973 1747 
L 4973 1376 
L 3424 1376 
L 3424 1747 
z
M 1472 2387 
L 2957 2387 
L 2957 2029 
L 1472 2029 
L 1472 2387 
z
M 3424 2387 
L 4973 2387 
L 4973 2029 
L 3424 2029 
L 3424 2387 
z
M 301 19 
L 301 -352 
L 6112 -352 
L 6112 19 
L 3424 19 
L 3424 390 
L 5587 390 
L 5587 730 
L 3424 730 
L 3424 1082 
L 5446 1082 
L 5446 2688 
L 1018 2688 
L 1018 1082 
L 2957 1082 
L 2957 730 
L 838 730 
L 838 390 
L 2957 390 
L 2957 19 
L 301 19 
z
" transform="scale(0.015625)"/>
      <path id="NotoSansCJKjp-Regular-ff08" d="M 4448 2432 
C 4448 1184 4954 166 5722 -614 
L 6106 -416 
C 5370 346 4915 1293 4915 2432 
C 4915 3571 5370 4518 6106 5280 
L 5722 5478 
C 4954 4698 4448 3680 4448 2432 
z
" transform="scale(0.015625)"/>
      <path id="NotoSansCJKjp-Regular-5355" d="M 1414 2797 
L 2938 2797 
L 2938 2106 
L 1414 2106 
L 1414 2797 
z
M 3430 2797 
L 5024 2797 
L 5024 2106 
L 3430 2106 
L 3430 2797 
z
M 1414 3859 
L 2938 3859 
L 2938 3181 
L 1414 3181 
L 1414 3859 
z
M 3430 3859 
L 5024 3859 
L 5024 3181 
L 3430 3181 
L 3430 3859 
z
M 4538 5350 
C 4390 5024 4128 4576 3898 4269 
L 2342 4269 
L 2605 4397 
C 2477 4666 2176 5062 1914 5350 
L 1510 5158 
C 1741 4890 1990 4525 2131 4269 
L 947 4269 
L 947 1696 
L 2938 1696 
L 2938 1088 
L 346 1088 
L 346 640 
L 2938 640 
L 2938 -506 
L 3430 -506 
L 3430 640 
L 6074 640 
L 6074 1088 
L 3430 1088 
L 3430 1696 
L 5510 1696 
L 5510 4269 
L 4435 4269 
C 4640 4538 4864 4870 5056 5178 
L 4538 5350 
z
" transform="scale(0.015625)"/>
      <path id="NotoSansCJKjp-Regular-4f4d" d="M 2630 3155 
C 2867 2304 3066 1190 3110 544 
L 3578 646 
C 3526 1280 3302 2381 3059 3232 
L 2630 3155 
z
M 2106 4115 
L 2106 3661 
L 6016 3661 
L 6016 4115 
L 4250 4115 
L 4250 5299 
L 3770 5299 
L 3770 4115 
L 2106 4115 
z
M 1946 243 
L 1946 -211 
L 6176 -211 
L 6176 243 
L 4634 243 
C 4928 1043 5261 2246 5485 3194 
L 4966 3283 
C 4800 2362 4461 1056 4166 243 
L 1946 243 
z
M 1773 5357 
C 1395 4390 774 3443 128 2835 
C 211 2720 352 2470 397 2355 
C 640 2598 877 2880 1107 3194 
L 1107 -493 
L 1568 -493 
L 1568 3891 
C 1818 4314 2048 4762 2227 5216 
L 1773 5357 
z
" transform="scale(0.015625)"/>
      <path id="NotoSansCJKjp-Regular-ff1a" d="M 3200 3482 
C 3456 3482 3686 3667 3686 3962 
C 3686 4256 3456 4442 3200 4442 
C 2944 4442 2714 4256 2714 3962 
C 2714 3667 2944 3482 3200 3482 
z
M 3200 346 
C 3456 346 3686 538 3686 826 
C 3686 1120 3456 1312 3200 1312 
C 2944 1312 2714 1120 2714 826 
C 2714 538 2944 346 3200 346 
z
" transform="scale(0.015625)"/>
      <path id="NotoSansCJKjp-Regular-5343" d="M 5075 5293 
C 4064 4973 2234 4717 678 4570 
C 730 4461 800 4269 813 4147 
C 1491 4205 2221 4288 2931 4384 
L 2931 2848 
L 333 2848 
L 333 2381 
L 2931 2381 
L 2931 -512 
L 3437 -512 
L 3437 2381 
L 6074 2381 
L 6074 2848 
L 3437 2848 
L 3437 4461 
C 4186 4582 4890 4723 5446 4890 
L 5075 5293 
z
" transform="scale(0.015625)"/>
      <path id="NotoSansCJKjp-Regular-4e07" d="M 397 4896 
L 397 4422 
L 2131 4422 
C 2086 2778 1997 787 218 -154 
C 339 -243 493 -397 570 -525 
C 1837 179 2310 1389 2496 2650 
L 4909 2650 
C 4813 941 4704 237 4512 58 
C 4435 -13 4358 -26 4205 -19 
C 4038 -19 3571 -19 3091 26 
C 3187 -109 3251 -307 3258 -448 
C 3699 -474 4147 -480 4390 -461 
C 4634 -448 4794 -397 4941 -230 
C 5190 32 5306 806 5414 2880 
C 5421 2944 5421 3117 5421 3117 
L 2554 3117 
C 2598 3558 2618 4000 2630 4422 
L 6010 4422 
L 6010 4896 
L 397 4896 
z
" transform="scale(0.015625)"/>
      <path id="NotoSansCJKjp-Regular-4eba" d="M 2867 5178 
C 2829 4333 2829 1254 211 -83 
C 365 -186 518 -333 602 -454 
C 2234 429 2893 1978 3174 3270 
C 3488 1978 4205 339 5856 -454 
C 5933 -326 6080 -160 6227 -51 
C 3782 1062 3443 4064 3386 4890 
L 3405 5178 
L 2867 5178 
z
" transform="scale(0.015625)"/>
      <path id="NotoSansCJKjp-Regular-ff09" d="M 1952 2432 
C 1952 3680 1446 4698 678 5478 
L 294 5280 
C 1030 4518 1485 3571 1485 2432 
C 1485 1293 1030 346 294 -416 
L 678 -614 
C 1446 166 1952 1184 1952 2432 
z
" transform="scale(0.015625)"/>
      <path id="NotoSansCJKjp-Regular-3001" d="M 1747 -358 
L 2182 13 
C 1786 480 1210 1062 749 1434 
L 333 1069 
C 787 698 1338 147 1747 -358 
z
" transform="scale(0.015625)"/>
      <path id="NotoSansCJKjp-Regular-5360" d="M 992 2445 
L 992 -506 
L 1459 -506 
L 1459 -102 
L 4915 -102 
L 4915 -474 
L 5402 -474 
L 5402 2445 
L 3341 2445 
L 3341 3725 
L 5926 3725 
L 5926 4173 
L 3341 4173 
L 3341 5376 
L 2854 5376 
L 2854 2445 
L 992 2445 
z
M 1459 352 
L 1459 1990 
L 4915 1990 
L 4915 352 
L 1459 352 
z
" transform="scale(0.015625)"/>
      <path id="NotoSansCJKjp-Regular-53e3" d="M 813 4704 
L 813 -352 
L 1312 -352 
L 1312 192 
L 5094 192 
L 5094 -326 
L 5606 -326 
L 5606 4704 
L 813 4704 
z
M 1312 685 
L 1312 4224 
L 5094 4224 
L 5094 685 
L 1312 685 
z
" transform="scale(0.015625)"/>
      <path id="NotoSansCJKjp-Regular-6bd4" d="M 250 128 
L 397 -371 
C 1197 -179 2278 77 3290 326 
L 3245 787 
C 2694 659 2125 525 1600 410 
L 1600 2925 
L 3046 2925 
L 3046 3398 
L 1600 3398 
L 1600 5344 
L 1107 5344 
L 1107 301 
L 250 128 
z
M 3520 5344 
L 3520 512 
C 3520 -186 3693 -371 4320 -371 
C 4448 -371 5261 -371 5395 -371 
C 6003 -371 6138 -13 6202 1037 
C 6061 1069 5869 1152 5747 1248 
C 5709 320 5670 83 5370 83 
C 5190 83 4506 83 4371 83 
C 4064 83 4013 147 4013 499 
L 4013 2586 
C 4691 2874 5414 3219 5952 3571 
L 5594 3974 
C 5216 3674 4608 3328 4013 3046 
L 4013 5344 
L 3520 5344 
z
" transform="scale(0.015625)"/>
      <path id="NotoSansCJKjp-Regular-4f8b" d="M 4320 4653 
L 4320 954 
L 4755 954 
L 4755 4653 
L 4320 4653 
z
M 5491 5274 
L 5491 90 
C 5491 -19 5453 -45 5350 -51 
C 5242 -58 4902 -58 4512 -45 
C 4582 -179 4646 -390 4672 -518 
C 5178 -518 5491 -506 5683 -422 
C 5869 -346 5939 -211 5939 96 
L 5939 5274 
L 5491 5274 
z
M 1958 5050 
L 1958 4621 
L 2547 4621 
C 2413 3680 2131 2573 1562 1894 
C 1651 1818 1792 1658 1856 1568 
C 2016 1754 2157 1971 2285 2208 
C 2579 1997 2906 1722 3110 1510 
C 2790 762 2349 205 1818 -160 
C 1920 -237 2067 -416 2138 -525 
C 3117 179 3827 1549 4077 3635 
L 3795 3731 
L 3718 3712 
L 2822 3712 
C 2899 4019 2963 4326 3014 4621 
L 4288 4621 
L 4288 5050 
L 1958 5050 
z
M 2707 3283 
L 3584 3283 
C 3514 2797 3411 2355 3277 1958 
C 3072 2157 2752 2406 2464 2592 
C 2554 2810 2637 3046 2707 3283 
z
M 1491 5350 
C 1184 4365 672 3392 115 2752 
C 198 2630 320 2374 371 2266 
C 582 2509 781 2797 973 3110 
L 973 -512 
L 1421 -512 
L 1421 3942 
C 1619 4358 1792 4794 1933 5222 
L 1491 5350 
z
" transform="scale(0.015625)"/>
      <path id="NotoSansCJKjp-Regular-79fb" d="M 3910 4416 
L 5197 4416 
C 5024 4083 4774 3795 4486 3546 
C 4275 3750 3949 3994 3654 4179 
L 3910 4416 
z
M 4109 5376 
C 3827 4883 3277 4307 2477 3910 
C 2573 3834 2720 3680 2784 3578 
C 2982 3686 3168 3808 3341 3930 
C 3629 3750 3949 3494 4154 3290 
C 3686 2970 3136 2739 2586 2605 
C 2675 2515 2790 2336 2835 2221 
C 4122 2586 5325 3347 5824 4691 
L 5523 4838 
L 5434 4819 
L 4269 4819 
C 4390 4973 4499 5126 4589 5286 
L 4109 5376 
z
M 4211 1952 
L 5536 1952 
C 5350 1555 5088 1222 4768 941 
C 4531 1165 4166 1427 3840 1626 
C 3974 1728 4096 1837 4211 1952 
z
M 4454 2963 
C 4141 2400 3501 1760 2560 1325 
C 2656 1254 2797 1094 2861 992 
C 3085 1107 3296 1229 3488 1363 
C 3821 1165 4173 890 4410 659 
C 3846 282 3168 32 2451 -102 
C 2541 -205 2650 -397 2694 -512 
C 4243 -166 5613 621 6157 2246 
L 5850 2381 
L 5760 2362 
L 4576 2362 
C 4717 2534 4832 2707 4934 2880 
L 4454 2963 
z
M 2310 5286 
C 1837 5069 992 4883 275 4762 
C 333 4659 397 4499 416 4397 
C 717 4435 1037 4493 1357 4557 
L 1357 3571 
L 314 3571 
L 314 3123 
L 1293 3123 
C 1037 2387 595 1555 179 1101 
C 262 986 378 794 429 659 
C 755 1056 1094 1690 1357 2336 
L 1357 -499 
L 1830 -499 
L 1830 2259 
C 2048 1990 2304 1645 2413 1466 
L 2701 1843 
C 2573 1990 2016 2566 1830 2726 
L 1830 3123 
L 2630 3123 
L 2630 3571 
L 1830 3571 
L 1830 4666 
C 2131 4736 2413 4819 2643 4915 
L 2310 5286 
z
" transform="scale(0.015625)"/>
      <path id="NotoSansCJKjp-Regular-52a8" d="M 570 4851 
L 570 4422 
L 3046 4422 
L 3046 4851 
L 570 4851 
z
M 4179 5267 
C 4179 4813 4179 4352 4160 3898 
L 3245 3898 
L 3245 3437 
L 4141 3437 
C 4064 1978 3808 640 2931 -160 
C 3059 -230 3226 -390 3309 -506 
C 4250 390 4525 1850 4614 3437 
L 5568 3437 
C 5498 1165 5414 314 5242 122 
C 5178 45 5107 26 4992 26 
C 4858 26 4518 26 4160 64 
C 4243 -77 4294 -275 4307 -410 
C 4646 -435 4998 -435 5197 -416 
C 5402 -397 5530 -339 5658 -173 
C 5882 109 5958 1018 6048 3654 
C 6048 3725 6048 3898 6048 3898 
L 4634 3898 
C 4646 4352 4653 4813 4653 5267 
L 4179 5267 
z
M 570 282 
L 576 288 
L 576 275 
C 723 365 954 435 2733 838 
L 2854 410 
L 3277 550 
C 3155 998 2867 1760 2624 2336 
L 2227 2227 
C 2355 1926 2483 1574 2598 1242 
L 1075 922 
C 1325 1498 1568 2214 1728 2886 
L 3162 2886 
L 3162 3328 
L 346 3328 
L 346 2886 
L 1235 2886 
C 1069 2138 800 1382 710 1171 
C 602 928 518 755 416 723 
C 474 608 544 378 570 282 
z
" transform="scale(0.015625)"/>
      <path id="NotoSansCJKjp-Regular-8ba2" d="M 730 4941 
C 1069 4614 1498 4160 1702 3872 
L 2042 4211 
C 1837 4493 1395 4928 1056 5248 
L 730 4941 
z
M 1312 -352 
C 1414 -224 1606 -90 2950 845 
C 2899 941 2835 1139 2810 1274 
L 1875 659 
L 1875 3366 
L 320 3366 
L 320 2906 
L 1408 2906 
L 1408 614 
C 1408 333 1190 134 1069 51 
C 1152 -38 1274 -237 1312 -352 
z
M 2534 4838 
L 2534 4358 
L 4499 4358 
L 4499 198 
C 4499 77 4454 38 4333 32 
C 4192 32 3731 26 3251 45 
C 3334 -96 3424 -333 3456 -480 
C 4058 -480 4461 -467 4691 -384 
C 4928 -294 5005 -134 5005 192 
L 5005 4358 
L 6144 4358 
L 6144 4838 
L 2534 4838 
z
" transform="scale(0.015625)"/>
      <path id="NotoSansCJKjp-Regular-9605" d="M 2214 2848 
L 4141 2848 
L 4141 2086 
L 2214 2086 
L 2214 2848 
z
M 582 3936 
L 582 -512 
L 1050 -512 
L 1050 3936 
L 582 3936 
z
M 678 5062 
C 960 4794 1274 4422 1421 4173 
L 1811 4442 
C 1658 4685 1325 5043 1043 5299 
L 678 5062 
z
M 2022 4090 
C 2234 3834 2445 3482 2534 3238 
L 1779 3238 
L 1779 1690 
L 2496 1690 
C 2400 1024 2163 550 1382 275 
C 1478 198 1606 26 1651 -83 
C 2534 275 2816 858 2925 1690 
L 3405 1690 
L 3405 627 
C 3405 205 3507 90 3942 90 
C 4026 90 4442 90 4525 90 
C 4864 90 4979 243 5018 864 
C 4902 896 4730 960 4646 1030 
C 4627 544 4608 474 4474 474 
C 4390 474 4064 474 4000 474 
C 3853 474 3834 499 3834 627 
L 3834 1690 
L 4589 1690 
L 4589 3238 
L 3846 3238 
C 4032 3507 4230 3853 4410 4166 
L 3942 4282 
C 3802 3974 3558 3533 3354 3238 
L 2579 3238 
L 2931 3411 
C 2848 3661 2618 4006 2400 4269 
L 2022 4090 
z
M 2253 5018 
L 2253 4589 
L 5357 4589 
L 5357 83 
C 5357 -6 5331 -26 5242 -32 
C 5158 -38 4883 -38 4602 -26 
C 4666 -147 4730 -346 4749 -474 
C 5152 -474 5427 -461 5600 -390 
C 5766 -307 5818 -179 5818 83 
L 5818 5018 
L 2253 5018 
z
" transform="scale(0.015625)"/>
      <path id="NotoSansCJKjp-Regular-6bcf" d="M 2502 2931 
C 2906 2746 3386 2445 3635 2208 
L 1722 2208 
L 1856 3219 
L 4800 3219 
L 4762 2208 
L 3674 2208 
L 3942 2490 
C 3693 2726 3187 3021 2778 3200 
L 2502 2931 
z
M 275 2221 
L 275 1786 
L 1190 1786 
C 1094 1158 992 550 902 109 
L 1389 77 
L 1434 320 
L 4608 320 
C 4570 128 4525 13 4480 -45 
C 4422 -122 4365 -141 4250 -141 
C 4122 -141 3827 -134 3507 -109 
C 3571 -218 3616 -384 3622 -493 
C 3936 -512 4262 -518 4448 -506 
C 4646 -486 4781 -435 4902 -269 
C 4979 -173 5037 6 5088 320 
L 5914 320 
L 5914 749 
L 5139 749 
C 5171 1024 5190 1363 5216 1786 
L 6138 1786 
L 6138 2221 
L 5235 2221 
L 5280 3411 
C 5280 3475 5286 3648 5286 3648 
L 1427 3648 
C 1382 3219 1318 2720 1254 2221 
L 275 2221 
z
M 4666 749 
L 3603 749 
L 3834 998 
C 3571 1254 3059 1581 2618 1792 
L 4742 1792 
C 4717 1357 4698 1018 4666 749 
z
M 2336 1523 
C 2746 1318 3226 1005 3494 749 
L 1504 749 
L 1664 1792 
L 2598 1792 
L 2336 1523 
z
M 1734 5414 
C 1402 4602 845 3776 262 3264 
C 384 3194 608 3046 710 2963 
C 1030 3290 1363 3718 1658 4192 
L 5901 4192 
L 5901 4634 
L 1920 4634 
C 2029 4845 2138 5056 2234 5274 
L 1734 5414 
z
" transform="scale(0.015625)"/>
      <path id="NotoSansCJKjp-Regular-4e00" d="M 282 2758 
L 282 2234 
L 6144 2234 
L 6144 2758 
L 282 2758 
z
" transform="scale(0.015625)"/>
      <path id="NotoSansCJKjp-Regular-767e" d="M 1133 3603 
L 1133 -518 
L 1619 -518 
L 1619 -102 
L 4858 -102 
L 4858 -518 
L 5357 -518 
L 5357 3603 
L 3181 3603 
C 3264 3891 3354 4237 3430 4563 
L 5997 4563 
L 5997 5030 
L 410 5030 
L 410 4563 
L 2874 4563 
C 2829 4243 2758 3885 2688 3603 
L 1133 3603 
z
M 1619 1542 
L 4858 1542 
L 4858 346 
L 1619 346 
L 1619 1542 
z
M 1619 1984 
L 1619 3155 
L 4858 3155 
L 4858 1984 
L 1619 1984 
z
" transform="scale(0.015625)"/>
      <path id="NotoSansCJKjp-Regular-5bbd" d="M 3347 1216 
L 3347 186 
C 3347 -301 3520 -435 4173 -435 
C 4314 -435 5210 -435 5357 -435 
C 5946 -435 6093 -205 6150 768 
C 6022 800 5824 870 5715 954 
C 5683 109 5638 -6 5325 -6 
C 5120 -6 4365 -6 4211 -6 
C 3885 -6 3827 19 3827 192 
L 3827 1216 
L 3347 1216 
z
M 2822 2022 
L 2822 1517 
C 2822 998 2643 288 269 -205 
C 384 -307 531 -493 589 -608 
C 3053 -32 3334 832 3334 1504 
L 3334 2022 
L 2822 2022 
z
M 1286 2669 
L 1286 646 
L 1766 646 
L 1766 2253 
L 4602 2253 
L 4602 685 
L 5101 685 
L 5101 2669 
L 1286 2669 
z
M 2765 5299 
C 2848 5146 2931 4966 3008 4806 
L 486 4806 
L 486 3635 
L 934 3635 
L 934 4390 
L 5459 4390 
L 5459 3635 
L 5926 3635 
L 5926 4806 
L 3590 4806 
C 3514 4998 3379 5254 3264 5440 
L 2765 5299 
z
M 3821 4160 
L 3821 3744 
L 2586 3744 
L 2586 4166 
L 2093 4166 
L 2093 3744 
L 1114 3744 
L 1114 3354 
L 2093 3354 
L 2093 2893 
L 2586 2893 
L 2586 3354 
L 3821 3354 
L 3821 2886 
L 4301 2886 
L 4301 3354 
L 5299 3354 
L 5299 3744 
L 4301 3744 
L 4301 4160 
L 3821 4160 
z
" transform="scale(0.015625)"/>
      <path id="NotoSansCJKjp-Regular-5e26" d="M 499 3226 
L 499 1926 
L 966 1926 
L 966 2810 
L 2931 2810 
L 2931 2086 
L 1197 2086 
L 1197 64 
L 1677 64 
L 1677 1658 
L 2931 1658 
L 2931 -512 
L 3424 -512 
L 3424 1658 
L 4826 1658 
L 4826 582 
C 4826 506 4800 486 4717 480 
C 4627 480 4346 474 4006 486 
C 4077 365 4141 192 4166 64 
C 4602 64 4896 64 5075 141 
C 5261 205 5312 333 5312 576 
L 5312 2086 
L 3424 2086 
L 3424 2810 
L 5421 2810 
L 5421 1926 
L 5914 1926 
L 5914 3226 
L 499 3226 
z
M 4582 5344 
L 4582 4614 
L 3424 4614 
L 3424 5344 
L 2944 5344 
L 2944 4614 
L 1850 4614 
L 1850 5344 
L 1370 5344 
L 1370 4614 
L 326 4614 
L 326 4192 
L 1370 4192 
L 1370 3539 
L 1850 3539 
L 1850 4192 
L 2944 4192 
L 2944 3552 
L 3424 3552 
L 3424 4192 
L 4582 4192 
L 4582 3520 
L 5056 3520 
L 5056 4192 
L 6086 4192 
L 6086 4614 
L 5056 4614 
L 5056 5344 
L 4582 5344 
z
" transform="scale(0.015625)"/>
      <path id="NotoSansCJKjp-Regular-589e" d="M 2995 3405 
C 3110 3174 3219 2861 3264 2662 
L 3571 2765 
C 3533 2957 3411 3264 3290 3488 
L 2995 3405 
z
M 4768 3494 
C 4710 3290 4582 2970 4486 2758 
L 4742 2662 
C 4858 2854 4986 3123 5107 3386 
L 4768 3494 
z
M 3002 5030 
C 2765 4576 2374 4128 1978 3808 
L 1427 3808 
L 1427 5286 
L 960 5286 
L 960 3808 
L 282 3808 
L 282 3354 
L 960 3354 
L 960 1293 
L 179 986 
L 352 512 
C 896 742 1581 1050 2240 1338 
L 2125 1773 
L 1427 1485 
L 1427 3354 
L 1997 3354 
L 1997 3616 
C 2074 3539 2157 3450 2202 3392 
L 2368 3533 
L 2368 2182 
L 5805 2182 
L 5805 3571 
L 5952 3462 
C 6029 3578 6170 3744 6266 3834 
C 5786 4122 5235 4672 4934 5210 
L 3539 5210 
L 3539 4787 
L 4685 4787 
C 4864 4512 5088 4243 5331 4000 
L 2816 4000 
C 3053 4282 3270 4589 3430 4902 
L 3002 5030 
z
M 2675 1824 
L 2675 -512 
L 3130 -512 
L 3130 -269 
L 5030 -269 
L 5030 -493 
L 5504 -493 
L 5504 1824 
L 2675 1824 
z
M 3130 102 
L 3130 614 
L 5030 614 
L 5030 102 
L 3130 102 
z
M 3130 954 
L 3130 1453 
L 5030 1453 
L 5030 954 
L 3130 954 
z
M 2752 3635 
L 3872 3635 
L 3872 2554 
L 2752 2554 
L 2752 3635 
z
M 4237 3635 
L 5395 3635 
L 5395 2554 
L 4237 2554 
L 4237 3635 
z
" transform="scale(0.015625)"/>
      <path id="NotoSansCJKjp-Regular-957f" d="M 4922 5235 
C 4365 4570 3430 3962 2528 3590 
C 2650 3501 2842 3309 2931 3200 
C 3795 3629 4768 4294 5402 5030 
L 4922 5235 
z
M 358 2874 
L 358 2394 
L 1587 2394 
L 1587 352 
C 1587 96 1440 0 1325 -45 
C 1402 -147 1491 -358 1523 -474 
C 1677 -378 1920 -301 3674 173 
C 3648 275 3629 480 3629 621 
L 2086 243 
L 2086 2394 
L 3091 2394 
C 3610 1069 4518 122 5850 -326 
C 5920 -179 6074 19 6189 128 
C 4960 480 4064 1293 3590 2394 
L 6042 2394 
L 6042 2874 
L 2086 2874 
L 2086 5344 
L 1587 5344 
L 1587 2874 
L 358 2874 
z
" transform="scale(0.015625)"/>
      <path id="NotoSansCJKjp-Regular-7387" d="M 5376 4038 
C 5139 3782 4704 3437 4384 3226 
L 4736 3014 
C 5056 3226 5472 3520 5798 3821 
L 5376 4038 
z
M 320 1997 
L 557 1613 
C 986 1798 1517 2048 2022 2291 
L 1933 2656 
C 1338 2406 730 2150 320 1997 
z
M 544 3680 
C 902 3482 1344 3174 1555 2957 
L 1888 3258 
C 1670 3469 1222 3757 864 3949 
L 544 3680 
z
M 4262 2458 
C 4768 2202 5408 1811 5715 1542 
L 6067 1850 
C 5734 2112 5094 2490 4595 2733 
L 4262 2458 
z
M 3526 2707 
C 3654 2566 3782 2400 3904 2227 
L 2810 2176 
C 3264 2618 3763 3168 4147 3642 
L 3770 3827 
C 3590 3571 3347 3270 3091 2976 
C 2957 3098 2784 3226 2598 3347 
C 2810 3578 3046 3878 3251 4154 
L 3110 4211 
L 5882 4211 
L 5882 4659 
L 3424 4659 
L 3424 5376 
L 2938 5376 
L 2938 4659 
L 538 4659 
L 538 4211 
L 2771 4211 
C 2643 4000 2470 3750 2310 3546 
L 2131 3654 
L 1894 3373 
C 2202 3174 2579 2906 2822 2682 
C 2650 2490 2470 2310 2304 2150 
L 1811 2131 
L 1882 1715 
L 4128 1882 
C 4211 1747 4275 1626 4320 1517 
L 4691 1709 
C 4550 2035 4192 2515 3872 2874 
L 3526 2707 
z
M 346 1222 
L 346 774 
L 2938 774 
L 2938 -531 
L 3424 -531 
L 3424 774 
L 6061 774 
L 6061 1222 
L 3424 1222 
L 3424 1722 
L 2938 1722 
L 2938 1222 
L 346 1222 
z
" transform="scale(0.015625)"/>
     </defs>
     <use xlink:href="#NotoSansCJKjp-Regular-4e2d"/>
     <use xlink:href="#NotoSansCJKjp-Regular-56fd" x="99.999985"/>
     <use xlink:href="#NotoSansCJKjp-Regular-4e92" x="199.999969"/>
     <use xlink:href="#NotoSansCJKjp-Regular-8054" x="299.999954"/>
     <use xlink:href="#NotoSansCJKjp-Regular-7f51" x="399.999939"/>
     <use xlink:href="#NotoSansCJKjp-Regular-7528" x="499.999924"/>
     <use xlink:href="#NotoSansCJKjp-Regular-6237" x="599.999908"/>
     <use xlink:href="#NotoSansCJKjp-Regular-7684" x="699.999893"/>
     <use xlink:href="#NotoSansCJKjp-Regular-6570" x="799.999878"/>
     <use xlink:href="#NotoSansCJKjp-Regular-91cf" x="899.999863"/>
     <use xlink:href="#NotoSansCJKjp-Regular-ff08" x="999.999847"/>
     <use xlink:href="#NotoSansCJKjp-Regular-5355" x="1099.999832"/>
     <use xlink:href="#NotoSansCJKjp-Regular-4f4d" x="1199.999817"/>
     <use xlink:href="#NotoSansCJKjp-Regular-ff1a" x="1299.999802"/>
     <use xlink:href="#NotoSansCJKjp-Regular-5343" x="1399.999786"/>
     <use xlink:href="#NotoSansCJKjp-Regular-4e07" x="1499.999771"/>
     <use xlink:href="#NotoSansCJKjp-Regular-4eba" x="1599.999756"/>
     <use xlink:href="#NotoSansCJKjp-Regular-ff09" x="1699.999741"/>
     <use xlink:href="#NotoSansCJKjp-Regular-3001" x="1799.999725"/>
     <use xlink:href="#NotoSansCJKjp-Regular-5360" x="1899.99971"/>
     <use xlink:href="#NotoSansCJKjp-Regular-4eba" x="1999.999695"/>
     <use xlink:href="#NotoSansCJKjp-Regular-53e3" x="2099.99968"/>
     <use xlink:href="#NotoSansCJKjp-Regular-7684" x="2199.999664"/>
     <use xlink:href="#NotoSansCJKjp-Regular-6bd4" x="2299.999649"/>
     <use xlink:href="#NotoSansCJKjp-Regular-4f8b" x="2399.999634"/>
     <use xlink:href="#NotoSansCJKjp-Regular-3001" x="2499.999619"/>
     <use xlink:href="#NotoSansCJKjp-Regular-79fb" x="2599.999603"/>
     <use xlink:href="#NotoSansCJKjp-Regular-52a8" x="2699.999588"/>
     <use xlink:href="#NotoSansCJKjp-Regular-4e92" x="2799.999573"/>
     <use xlink:href="#NotoSansCJKjp-Regular-8054" x="2899.999557"/>
     <use xlink:href="#NotoSansCJKjp-Regular-7f51" x="2999.999542"/>
     <use xlink:href="#NotoSansCJKjp-Regular-8ba2" x="3099.999527"/>
     <use xlink:href="#NotoSansCJKjp-Regular-9605" x="3199.999512"/>
     <use xlink:href="#NotoSansCJKjp-Regular-6bcf" x="3299.999496"/>
     <use xlink:href="#NotoSansCJKjp-Regular-4e00" x="3399.999481"/>
     <use xlink:href="#NotoSansCJKjp-Regular-767e" x="3499.999466"/>
     <use xlink:href="#NotoSansCJKjp-Regular-4eba" x="3599.999451"/>
     <use xlink:href="#NotoSansCJKjp-Regular-6bd4" x="3699.999435"/>
     <use xlink:href="#NotoSansCJKjp-Regular-4f8b" x="3799.99942"/>
     <use xlink:href="#NotoSansCJKjp-Regular-3001" x="3899.999405"/>
     <use xlink:href="#NotoSansCJKjp-Regular-5bbd" x="3999.99939"/>
     <use xlink:href="#NotoSansCJKjp-Regular-5e26" x="4099.999374"/>
     <use xlink:href="#NotoSansCJKjp-Regular-6bcf" x="4199.999359"/>
     <use xlink:href="#NotoSansCJKjp-Regular-4e00" x="4299.999344"/>
     <use xlink:href="#NotoSansCJKjp-Regular-767e" x="4399.999329"/>
     <use xlink:href="#NotoSansCJKjp-Regular-4eba" x="4499.999313"/>
     <use xlink:href="#NotoSansCJKjp-Regular-8ba2" x="4599.999298"/>
     <use xlink:href="#NotoSansCJKjp-Regular-9605" x="4699.999283"/>
     <use xlink:href="#NotoSansCJKjp-Regular-6bd4" x="4799.999268"/>
     <use xlink:href="#NotoSansCJKjp-Regular-4f8b" x="4899.999252"/>
     <use xlink:href="#NotoSansCJKjp-Regular-7684" x="4999.999237"/>
     <use xlink:href="#NotoSansCJKjp-Regular-589e" x="5099.999222"/>
     <use xlink:href="#NotoSansCJKjp-Regular-957f" x="5199.999207"/>
     <use xlink:href="#NotoSansCJKjp-Regular-7387" x="5299.999191"/>
    </g>
   </g>
   <g id="legend_1">
    <g id="patch_7">
     <path d="M 117.24 160.2 
L 370.68 160.2 
Q 373.32 160.2 373.32 157.56 
L 373.32 78.36 
Q 373.32 75.72 370.68 75.72 
L 117.24 75.72 
Q 114.6 75.72 114.6 78.36 
L 114.6 157.56 
Q 114.6 160.2 117.24 160.2 
z
" style="fill: #eaeaf2; opacity: 0.8; stroke: #cccccc; stroke-width: 1.5; stroke-linejoin: miter"/>
    </g>
    <g id="line2d_22">
     <path d="M 119.88 86.886375 
L 133.08 86.886375 
L 146.28 86.886375 
" style="fill: none; stroke: #4c72b0; stroke-width: 4; stroke-linecap: round"/>
    </g>
    <g id="text_21">
     <!-- 数量（单位：千万人）增长率 -->
     <g style="fill: #262626" transform="translate(156.84 91.506375) scale(0.132 -0.132)">
      <use xlink:href="#NotoSansCJKjp-Regular-6570"/>
      <use xlink:href="#NotoSansCJKjp-Regular-91cf" x="99.999985"/>
      <use xlink:href="#NotoSansCJKjp-Regular-ff08" x="199.999969"/>
      <use xlink:href="#NotoSansCJKjp-Regular-5355" x="299.999954"/>
      <use xlink:href="#NotoSansCJKjp-Regular-4f4d" x="399.999939"/>
      <use xlink:href="#NotoSansCJKjp-Regular-ff1a" x="499.999924"/>
      <use xlink:href="#NotoSansCJKjp-Regular-5343" x="599.999908"/>
      <use xlink:href="#NotoSansCJKjp-Regular-4e07" x="699.999893"/>
      <use xlink:href="#NotoSansCJKjp-Regular-4eba" x="799.999878"/>
      <use xlink:href="#NotoSansCJKjp-Regular-ff09" x="899.999863"/>
      <use xlink:href="#NotoSansCJKjp-Regular-589e" x="999.999847"/>
      <use xlink:href="#NotoSansCJKjp-Regular-957f" x="1099.999832"/>
      <use xlink:href="#NotoSansCJKjp-Regular-7387" x="1199.999817"/>
     </g>
    </g>
    <g id="line2d_23">
     <path d="M 119.88 107.016375 
L 133.08 107.016375 
L 146.28 107.016375 
" style="fill: none; stroke: #dd8452; stroke-width: 4; stroke-linecap: round"/>
    </g>
    <g id="text_22">
     <!-- 占人口的比例 -->
     <g style="fill: #262626" transform="translate(156.84 111.636375) scale(0.132 -0.132)">
      <use xlink:href="#NotoSansCJKjp-Regular-5360"/>
      <use xlink:href="#NotoSansCJKjp-Regular-4eba" x="99.999985"/>
      <use xlink:href="#NotoSansCJKjp-Regular-53e3" x="199.999969"/>
      <use xlink:href="#NotoSansCJKjp-Regular-7684" x="299.999954"/>
      <use xlink:href="#NotoSansCJKjp-Regular-6bd4" x="399.999939"/>
      <use xlink:href="#NotoSansCJKjp-Regular-4f8b" x="499.999924"/>
     </g>
    </g>
    <g id="line2d_24">
     <path d="M 119.88 127.146375 
L 133.08 127.146375 
L 146.28 127.146375 
" style="fill: none; stroke: #55a868; stroke-width: 4; stroke-linecap: round"/>
    </g>
    <g id="text_23">
     <!-- 移动互联网订阅每一百人比例增长率 -->
     <g style="fill: #262626" transform="translate(156.84 131.766375) scale(0.132 -0.132)">
      <use xlink:href="#NotoSansCJKjp-Regular-79fb"/>
      <use xlink:href="#NotoSansCJKjp-Regular-52a8" x="99.999985"/>
      <use xlink:href="#NotoSansCJKjp-Regular-4e92" x="199.999969"/>
      <use xlink:href="#NotoSansCJKjp-Regular-8054" x="299.999954"/>
      <use xlink:href="#NotoSansCJKjp-Regular-7f51" x="399.999939"/>
      <use xlink:href="#NotoSansCJKjp-Regular-8ba2" x="499.999924"/>
      <use xlink:href="#NotoSansCJKjp-Regular-9605" x="599.999908"/>
      <use xlink:href="#NotoSansCJKjp-Regular-6bcf" x="699.999893"/>
      <use xlink:href="#NotoSansCJKjp-Regular-4e00" x="799.999878"/>
      <use xlink:href="#NotoSansCJKjp-Regular-767e" x="899.999863"/>
      <use xlink:href="#NotoSansCJKjp-Regular-4eba" x="999.999847"/>
      <use xlink:href="#NotoSansCJKjp-Regular-6bd4" x="1099.999832"/>
      <use xlink:href="#NotoSansCJKjp-Regular-4f8b" x="1199.999817"/>
      <use xlink:href="#NotoSansCJKjp-Regular-589e" x="1299.999802"/>
      <use xlink:href="#NotoSansCJKjp-Regular-957f" x="1399.999786"/>
      <use xlink:href="#NotoSansCJKjp-Regular-7387" x="1499.999771"/>
     </g>
    </g>
    <g id="line2d_25">
     <path d="M 119.88 147.276375 
L 133.08 147.276375 
L 146.28 147.276375 
" style="fill: none; stroke: #c44e52; stroke-width: 4; stroke-linecap: round"/>
    </g>
    <g id="text_24">
     <!-- 宽带每一百人订阅比例增长率 -->
     <g style="fill: #262626" transform="translate(156.84 151.896375) scale(0.132 -0.132)">
      <use xlink:href="#NotoSansCJKjp-Regular-5bbd"/>
      <use xlink:href="#NotoSansCJKjp-Regular-5e26" x="99.999985"/>
      <use xlink:href="#NotoSansCJKjp-Regular-6bcf" x="199.999969"/>
      <use xlink:href="#NotoSansCJKjp-Regular-4e00" x="299.999954"/>
      <use xlink:href="#NotoSansCJKjp-Regular-767e" x="399.999939"/>
      <use xlink:href="#NotoSansCJKjp-Regular-4eba" x="499.999924"/>
      <use xlink:href="#NotoSansCJKjp-Regular-8ba2" x="599.999908"/>
      <use xlink:href="#NotoSansCJKjp-Regular-9605" x="699.999893"/>
      <use xlink:href="#NotoSansCJKjp-Regular-6bd4" x="799.999878"/>
      <use xlink:href="#NotoSansCJKjp-Regular-4f8b" x="899.999863"/>
      <use xlink:href="#NotoSansCJKjp-Regular-589e" x="999.999847"/>
      <use xlink:href="#NotoSansCJKjp-Regular-957f" x="1099.999832"/>
      <use xlink:href="#NotoSansCJKjp-Regular-7387" x="1199.999817"/>
     </g>
    </g>
   </g>
  </g>
 </g>
 <defs>
  <clipPath id="pd5389e2f45">
   <rect x="108" y="69.12" width="669.6" height="443.52"/>
  </clipPath>
 </defs>
</svg>
