<?xml version="1.0" encoding="utf-8"?>
<!-- Generator: Adobe Illustrator 28.0.0, SVG Export Plug-In . SVG Version: 6.00 Build 0)  -->
<svg version="1.1" id="图层_1" xmlns="http://www.w3.org/2000/svg" xmlns:xlink="http://www.w3.org/1999/xlink" x="0px" y="0px"
	 viewBox="0 0 1200 600" style="enable-background:new 0 0 1200 600;" xml:space="preserve">
<style type="text/css">
	.st0{fill:#FFFFFF;}
	.st1{enable-background:new    ;}
	.st2{fill:#33628D;}
	.st3{fill:#297A8E;}
	.st4{fill:#433D84;}
	.st5{fill:#60CA60;}
	.st6{fill:#4EC36B;}
	.st7{fill:#5AC864;}
	.st8{fill:#58C765;}
	.st9{fill:#1F998A;}
	.st10{fill:#FDE725;}
	.st11{fill:#C5E021;}
	.st12{fill:#44BF70;}
	.st13{fill:#38588C;}
	.st14{fill:#23898E;}
	.st15{fill:#73D056;}
	.st16{fill:#34618D;}
	.st17{fill:#472C7A;}
	.st18{fill:#4CC26C;}
	.st19{fill:#2C738E;}
	.st20{fill:#2B748E;}
	.st21{fill:#3C4F8A;}
	.st22{fill:#481A6C;}
	.st23{fill:#21908D;}
	.st24{fill:#38B977;}
	.st25{fill:#460A5D;}
</style>
<g>
	<rect class="st0" width="1200" height="600"/>
</g>
<g class="st1">
	<path class="st2" d="M243.8,546v-25.4h33.1V407.2h-33.1v-25.4h94.5v25.4h-33.1v113.4h33.1V546H243.8z"/>
	<path class="st2" d="M428,548.2c-10.7,0-19.9-2-27.8-6s-14-9.6-18.3-16.9c-4.4-7.3-6.5-15.9-6.5-25.8v-31.1
		c0-9.9,2.2-18.5,6.5-25.8c4.3-7.3,10.5-12.9,18.3-16.9c7.9-4,17.1-6,27.8-6c15.4,0,27.9,4,37.2,12c9.4,8,14.3,18.9,14.7,32.7h-27.7
		c-0.5-6.4-2.9-11.4-7.3-15c-4.4-3.5-10.1-5.3-17-5.3c-7.6,0-13.7,2.1-18,6.2c-4.4,4.1-6.5,10-6.5,17.7v31.3
		c0,7.6,2.2,13.6,6.5,17.8c4.3,4.2,10.4,6.3,18,6.3c7,0,12.7-1.8,17.1-5.3c4.3-3.5,6.8-8.5,7.2-15H480c-0.5,13.8-5.4,24.7-14.7,32.7
		C455.9,544.2,443.5,548.2,428,548.2z"/>
	<path class="st2" d="M561.2,548.2c-10.5,0-19.7-2-27.5-6.1c-7.8-4-13.8-9.8-18.1-17.2c-4.3-7.4-6.4-16.2-6.4-26.2v-29.2
		c0-10,2.1-18.8,6.4-26.2c4.3-7.4,10.3-13.2,18.1-17.2c7.8-4,16.9-6.1,27.5-6.1c10.4,0,19.4,2,27.1,6.1c7.7,4,13.7,9.7,18,17
		c4.3,7.3,6.4,15.8,6.4,25.5v22.5h-76.5v8.6c0,8.4,2.2,14.7,6.5,19c4.3,4.3,10.5,6.4,18.5,6.4c5.9,0,10.8-1,15-3
		c4.1-2,6.6-5,7.3-8.9h27.9c-2,10.7-7.5,19.2-16.7,25.5C585.6,545.1,574.4,548.2,561.2,548.2z M536.2,468.6v4.3l49.5-0.2v-4.3
		c0-8.5-2.1-15.1-6.3-19.8c-4.2-4.6-10.3-7-18.2-7c-8.3,0-14.5,2.4-18.7,7.1C538.3,453.4,536.2,460,536.2,468.6z"/>
	<path class="st2" d="M716,546c-12.3,0-22.2-3.7-29.6-11c-7.4-7.3-11.1-17-11.1-29v-98.8h-40.7v-25.4h68.8v123.5
		c0,4.7,1.3,8.4,3.9,11.1c2.6,2.8,6.2,4.2,10.7,4.2h36.2V546H716z"/>
	<path class="st2" d="M817.3,548.2c-12.6,0-22.5-3.6-29.8-10.7c-7.3-7.1-10.9-16.5-10.9-28c0-12,4.1-21.6,12.4-28.7
		c8.2-7.1,19.6-10.7,34-10.7H853v-8.8c0-12.4-7.3-18.7-21.8-18.7c-6.6,0-11.9,1.3-15.8,3.8c-3.9,2.6-6.1,6.2-6.5,10.8h-27
		c0.6-11.1,5.3-20.1,14.1-27c8.8-6.9,20.6-10.3,35.4-10.3c15.8,0,28,3.7,36.7,11c8.7,7.4,13,17.7,13,31V546h-27.4v-23.2
		c-1.1,8-4.8,14.2-11.2,18.7C836,546,827.6,548.2,817.3,548.2z M826.3,525.3c8.2,0,14.8-2,19.6-6.1c4.8-4,7.2-9.4,7.2-16.2v-14.6
		h-28.8c-6.2,0-11,1.7-14.6,5.2c-3.6,3.5-5.4,7.9-5.4,13.3c0,5.6,1.9,10,5.7,13.4S819.2,525.3,826.3,525.3z"/>
	<path class="st2" d="M915.8,546V422.2h27.5v23.2c1.5-7.8,5.2-14,11-18.6c5.9-4.6,13.3-6.9,22.3-6.9c12.2,0,21.9,4,29.1,12.2
		c7.3,8.1,10.9,19,10.9,32.6V546h-28.1v-77.8c0-7.7-2-13.5-6-17.7c-4-4.1-9.3-6.2-16.1-6.2c-7.1,0-12.6,2.1-16.5,6.3
		c-4,4.2-6,10.2-6,18V546H915.8z"/>
	<path class="st2" d="M1089.7,548.2c-12,0-21.7-4.3-29.1-12.8c-7.4-8.5-11.1-20-11.1-34.4v-33.5c0-14.5,3.7-26.1,11-34.6
		c7.3-8.5,17.1-12.8,29.2-12.8c8.5,0,15.8,2.2,21.7,6.5c5.9,4.4,10.1,10.4,12.5,18.2l-0.9-28.3v-34.7h28.1V546h-27.4v-22.5
		c-2.2,7.8-6.3,13.9-12.2,18.2C1105.7,546.1,1098.4,548.2,1089.7,548.2z M1100.3,524c7.2,0,12.8-2.2,16.8-6.5c4-4.3,6-10.5,6-18.5
		v-29.7c0-7.9-2-14.1-6-18.5c-4-4.3-9.6-6.5-16.8-6.5c-7.2,0-12.8,2-16.8,5.9c-4,3.9-6,9.9-6,18v31.9c0,8.1,2,14.1,6,18
		C1087.5,522,1093.1,524,1100.3,524z"/>
</g>
<g class="st1">
	<path class="st3" d="M101.7,305V156.1h31.2l41.4,120.4c-0.4-4.4-0.8-9.5-1.2-15.4c-0.4-5.9-0.8-11.9-1.1-18.1
		c-0.3-6.1-0.5-11.6-0.5-16.3v-70.6h23.3V305h-31.2l-41-120.4c0.3,3.9,0.6,8.7,1,14.3c0.4,5.6,0.7,11.3,1,17.1
		c0.3,5.8,0.4,11.2,0.4,16.1V305H101.7z"/>
	<path class="st3" d="M270.6,306.8c-14.4,0-25.8-4-34.3-12.1c-8.4-8.1-12.6-19-12.6-32.7v-26.1c0-13.9,4.2-24.8,12.6-32.8
		c8.4-8,19.9-12,34.3-12c14.4,0,25.8,4,34.3,12c8.4,8,12.6,19,12.6,32.8V262c0,13.7-4.2,24.7-12.6,32.7
		C296.4,302.8,285,306.8,270.6,306.8z M270.6,284.6c6.8,0,12.1-1.9,15.8-5.6c3.7-3.7,5.6-9.1,5.6-16.2V235c0-7.1-1.9-12.5-5.6-16.2
		c-3.7-3.7-9-5.6-15.8-5.6c-6.8,0-12.1,1.9-15.8,5.6c-3.7,3.7-5.6,9.1-5.6,16.2v27.7c0,7.1,1.9,12.5,5.6,16.2
		C258.5,282.7,263.8,284.6,270.6,284.6z"/>
	<path class="st3" d="M351.6,305V192.8h24.9v21.8c1.4-7.3,4.7-13.2,10.1-17.4c5.4-4.3,12.3-6.4,20.9-6.4c11.4,0,20.3,3.7,26.7,11
		c6.4,7.3,9.6,17.6,9.6,30.8v10.6h-25.5v-9.4c0-6.8-1.8-12-5.3-15.6c-3.5-3.6-8.6-5.4-15.1-5.4c-6.8,0-12,2-15.5,6.1
		c-3.5,4.1-5.3,9.9-5.3,17.3V305H351.6z"/>
	<path class="st3" d="M475,305l-17.5-112.2h20.2l10,68.7c0.5,4.2,1,8.8,1.4,13.7c0.4,4.9,0.7,9,1,12.2c0.1-3.3,0.4-7.3,0.8-12.2
		c0.4-4.9,1-9.5,1.8-13.7l12.2-68.7h21.2l11.8,68.7c0.8,4.2,1.5,8.8,1.9,13.8c0.5,5,0.8,9.1,1.1,12.3c0.3-3.3,0.6-7.4,0.9-12.3
		c0.3-5,0.8-9.6,1.5-13.8l10.2-68.7h19.6l-18,112.2h-26.3l-10.6-69.2c-0.7-3.8-1.3-8.2-1.8-13.2c-0.5-5-1-9-1.2-12.1
		c-0.1,3.1-0.5,7.2-1.2,12.1c-0.7,5-1.3,9.4-1.8,13.2l-11,69.2H475z"/>
	<path class="st3" d="M625.3,307c-11.4,0-20.4-3.2-27-9.7c-6.6-6.5-9.9-14.9-9.9-25.4c0-10.9,3.7-19.5,11.2-26
		c7.5-6.5,17.7-9.7,30.8-9.7h27.3v-8c0-11.3-6.6-16.9-19.8-16.9c-6,0-10.7,1.2-14.3,3.5c-3.5,2.3-5.5,5.6-5.9,9.8h-24.5
		c0.5-10.1,4.8-18.2,12.7-24.5c8-6.3,18.7-9.4,32.1-9.4c14.3,0,25.4,3.3,33.3,10c7.9,6.7,11.8,16,11.8,28.2V305h-24.9v-21
		c-1,7.2-4.4,12.9-10.2,16.9C642.3,305,634.7,307,625.3,307z M633.5,286.2c7.5,0,13.4-1.8,17.7-5.5c4.4-3.7,6.5-8.6,6.5-14.7v-13.3
		h-26.1c-5.6,0-10,1.6-13.3,4.7c-3.3,3.1-4.9,7.1-4.9,12c0,5,1.7,9.1,5.2,12.1C622.2,284.7,627.1,286.2,633.5,286.2z"/>
	<path class="st3" d="M732.7,341.7l15.9-42.8l-42.2-106.1h26.9l21.6,57.3c1.2,3.4,2.4,7.1,3.7,11.1c1.2,4,2.1,7.7,2.7,11.1
		c0.4-3.4,1.2-7.1,2.3-11.1c1.2-4,2.3-7.7,3.6-11.1l20-57.3H814l-54.7,148.9H732.7z"/>
</g>
<g class="st1">
	<path class="st4" d="M88.9,138.7c-8.4,0-15.7-1.5-22-4.4s-11.1-7.1-14.6-12.6c-3.4-5.5-5.2-12-5.2-19.6H68c0,5.5,1.9,9.9,5.7,13.2
		c3.8,3.3,8.8,4.9,15.2,4.9c6.1,0,10.9-1.6,14.5-4.8s5.3-7.5,5.3-13c0-4.1-1.2-7.7-3.5-10.8c-2.3-3.1-5.6-5.2-9.9-6.4l-16.6-4.2
		c-8.9-2.3-16-6.5-21.2-12.7c-5.2-6.2-7.8-13.6-7.8-22.2c0-10.5,3.4-18.9,10.3-25.2c6.9-6.3,16.1-9.4,27.6-9.4
		c7.8,0,14.6,1.4,20.4,4.2c5.8,2.8,10.3,6.8,13.5,11.9c3.2,5.1,4.7,11.2,4.7,18.1h-20.7c0-4.7-1.6-8.6-4.9-11.5
		c-3.3-2.9-7.6-4.4-13.1-4.4c-5.3,0-9.5,1.4-12.6,4.3c-3.1,2.9-4.7,6.6-4.7,11.3c0,3.8,1.1,7,3.3,9.5c2.2,2.5,5.3,4.3,9.2,5.4
		l17.1,4.2c9.2,2.3,16.4,6.8,21.6,13.6s7.9,14.9,7.9,24.2c0,7.3-1.7,13.7-5,19.2c-3.3,5.4-8.1,9.6-14.2,12.6
		C104.3,137.2,97.1,138.7,88.9,138.7z"/>
	<path class="st4" d="M156.5,137l-14.6-93.2h16.8l8.3,57.1c0.5,3.5,0.8,7.3,1.2,11.4c0.3,4.1,0.6,7.5,0.8,10.2
		c0.1-2.7,0.3-6.1,0.7-10.2c0.3-4.1,0.8-7.9,1.5-11.4l10.2-57.1H199l9.8,57.1c0.7,3.5,1.2,7.3,1.6,11.4c0.4,4.1,0.7,7.5,0.9,10.3
		c0.2-2.7,0.5-6.1,0.8-10.3c0.3-4.1,0.7-7.9,1.3-11.4l8.5-57.1h16.3L223.3,137h-21.9l-8.8-57.5c-0.6-3.2-1.1-6.8-1.5-10.9
		c-0.5-4.1-0.8-7.5-1-10.1c-0.1,2.6-0.5,6-1,10.1c-0.6,4.1-1.1,7.8-1.5,10.9l-9.2,57.5H156.5z"/>
	<path class="st4" d="M291.9,138.7c-7.9,0-14.8-1.5-20.7-4.6c-5.9-3.1-10.4-7.4-13.6-13c-3.2-5.6-4.8-12.2-4.8-19.7v-22
		c0-7.6,1.6-14.2,4.8-19.7c3.2-5.6,7.8-9.9,13.6-13c5.9-3.1,12.8-4.6,20.7-4.6c7.8,0,14.6,1.5,20.4,4.6c5.8,3.1,10.3,7.3,13.6,12.8
		c3.2,5.5,4.8,11.9,4.8,19.2v16.9h-57.6v6.4c0,6.3,1.6,11.1,4.9,14.3c3.3,3.2,7.9,4.8,13.9,4.8c4.4,0,8.2-0.8,11.3-2.3
		c3.1-1.5,4.9-3.8,5.5-6.7h21c-1.5,8-5.7,14.4-12.5,19.2C310.3,136.3,301.9,138.7,291.9,138.7z M273.1,78.7v3.2l37.3-0.2v-3.2
		c0-6.4-1.6-11.4-4.7-14.9c-3.2-3.5-7.7-5.3-13.7-5.3c-6.2,0-10.9,1.8-14.1,5.3C274.7,67.3,273.1,72.3,273.1,78.7z"/>
	<path class="st4" d="M385,138.7c-9,0-16.4-3.2-22-9.7c-5.6-6.4-8.4-15.1-8.4-25.9V77.8c0-11,2.8-19.7,8.3-26.1
		c5.5-6.4,12.9-9.7,22-9.7c6.4,0,11.9,1.6,16.4,4.9c4.5,3.3,7.6,7.9,9.4,13.7l-0.7-21.4V13.3h21.2V137h-20.7v-17
		c-1.7,5.9-4.7,10.5-9.2,13.7C397,137.1,391.5,138.7,385,138.7z M392.9,120.4c5.4,0,9.6-1.6,12.6-4.9c3-3.3,4.5-7.9,4.5-13.9V79.2
		c0-6-1.5-10.6-4.5-13.9c-3-3.3-7.2-4.9-12.6-4.9c-5.4,0-9.6,1.5-12.6,4.4c-3,2.9-4.5,7.5-4.5,13.6v24.1c0,6.1,1.5,10.6,4.5,13.6
		C383.3,118.9,387.5,120.4,392.9,120.4z"/>
	<path class="st4" d="M495.3,138.7c-7.9,0-14.8-1.5-20.7-4.6c-5.9-3.1-10.4-7.4-13.6-13c-3.2-5.6-4.8-12.2-4.8-19.7v-22
		c0-7.6,1.6-14.2,4.8-19.7c3.2-5.6,7.8-9.9,13.6-13c5.9-3.1,12.8-4.6,20.7-4.6c7.8,0,14.6,1.5,20.4,4.6c5.8,3.1,10.3,7.3,13.6,12.8
		c3.2,5.5,4.8,11.9,4.8,19.2v16.9h-57.6v6.4c0,6.3,1.6,11.1,4.9,14.3c3.3,3.2,7.9,4.8,13.9,4.8c4.4,0,8.2-0.8,11.3-2.3
		c3.1-1.5,4.9-3.8,5.5-6.7h21c-1.5,8-5.7,14.4-12.5,19.2C513.7,136.3,505.3,138.7,495.3,138.7z M476.5,78.7v3.2l37.3-0.2v-3.2
		c0-6.4-1.6-11.4-4.7-14.9c-3.2-3.5-7.7-5.3-13.7-5.3c-6.2,0-10.9,1.8-14.1,5.3C478.1,67.3,476.5,72.3,476.5,78.7z"/>
	<path class="st4" d="M559,137V43.8h20.7v17.5c1.1-5.9,3.9-10.5,8.3-14c4.4-3.4,10-5.2,16.8-5.2c9.2,0,16.5,3.1,22,9.2
		c5.5,6.1,8.2,14.3,8.2,24.6V137h-21.2V78.4c0-5.8-1.5-10.2-4.5-13.3c-3-3.1-7-4.7-12.1-4.7c-5.3,0-9.5,1.6-12.5,4.7
		c-3,3.2-4.5,7.7-4.5,13.6V137H559z"/>
</g>
<g class="st1">
	<path class="st5" d="M9.2,357v-7L26.8,320H9.7v-6.8h25.4v7l-17.6,30.1h18.3v6.8H9.2z"/>
	<path class="st5" d="M45.1,357v-6.8h11.3v-19.4H46.3V324h17.6v26.2H74v6.8H45.1z M59.6,318.5c-1.5,0-2.7-0.4-3.6-1.2
		c-0.9-0.8-1.3-1.8-1.3-3.1s0.4-2.4,1.3-3.2c0.9-0.8,2.1-1.2,3.6-1.2c1.5,0,2.7,0.4,3.6,1.2c0.9,0.8,1.3,1.8,1.3,3.2
		s-0.4,2.4-1.3,3.1C62.3,318.1,61.1,318.5,59.6,318.5z"/>
	<path class="st5" d="M79.3,357v-33h6.2v4.8h0.2c0.1-1.6,0.7-2.9,1.7-3.9c1-1,2.3-1.5,3.8-1.5c1.5,0,2.7,0.5,3.8,1.4
		c1,0.9,1.7,2.2,2.1,3.8c0.2-1.6,0.8-2.9,1.8-3.8c1-0.9,2.3-1.4,3.9-1.4c2,0,3.7,0.8,5,2.4c1.3,1.6,2,3.6,2,6.1V357h-6.6v-24.6
		c0-1.1-0.3-1.9-0.8-2.6c-0.5-0.6-1.2-0.9-2.1-0.9c-1.8,0-2.7,1.2-2.7,3.5V357h-6v-24.6c0-1.1-0.2-1.9-0.7-2.6
		c-0.5-0.6-1.1-0.9-2-0.9c-1.9,0-2.9,1.2-2.9,3.5V357H79.3z"/>
	<path class="st5" d="M133.5,357.6c-2.3,0-4.3-0.6-5.8-1.7c-1.6-1.2-2.6-2.8-3.2-4.9v6h-7.3v-43.8h7.5v9.2l-0.2,7.6
		c0.6-2.1,1.7-3.7,3.3-4.9c1.6-1.2,3.5-1.7,5.8-1.7c3.2,0,5.8,1.1,7.8,3.4c2,2.3,2.9,5.4,2.9,9.2v8.9c0,3.8-1,6.9-3,9.2
		C139.3,356.5,136.7,357.6,133.5,357.6z M130.7,351.1c1.9,0,3.4-0.5,4.5-1.6c1.1-1,1.6-2.6,1.6-4.8v-8.5c0-2.2-0.5-3.8-1.6-4.8
		c-1.1-1-2.5-1.6-4.5-1.6c-1.9,0-3.4,0.6-4.5,1.7c-1.1,1.2-1.6,2.8-1.6,4.9v7.9c0,2.1,0.5,3.8,1.6,4.9
		C127.3,350.5,128.8,351.1,130.7,351.1z"/>
	<path class="st5" d="M162.8,357.6c-3.4,0-6-0.9-7.9-2.8c-1.9-1.9-2.9-4.4-2.9-7.5c0-3.2,1.1-5.8,3.3-7.7c2.2-1.9,5.2-2.8,9.1-2.8h8
		v-2.3c0-3.3-1.9-5-5.8-5c-1.8,0-3.2,0.3-4.2,1c-1,0.7-1.6,1.6-1.7,2.9h-7.2c0.2-3,1.4-5.4,3.8-7.2s5.5-2.8,9.5-2.8
		c4.2,0,7.5,1,9.8,2.9c2.3,2,3.5,4.7,3.5,8.3V357h-7.3v-6.2c-0.3,2.1-1.3,3.8-3,5C167.8,357,165.6,357.6,162.8,357.6z M165.2,351.5
		c2.2,0,3.9-0.5,5.2-1.6c1.3-1.1,1.9-2.5,1.9-4.3v-3.9h-7.7c-1.6,0-2.9,0.5-3.9,1.4c-1,0.9-1.4,2.1-1.4,3.5c0,1.5,0.5,2.7,1.5,3.6
		C161.9,351,163.4,351.5,165.2,351.5z"/>
	<path class="st5" d="M205.5,357.6c-2.3,0-4.3-0.6-5.8-1.7c-1.6-1.2-2.6-2.8-3.2-4.9v6h-7.3v-43.8h7.5v9.2l-0.2,7.6
		c0.6-2.1,1.7-3.7,3.3-4.9c1.6-1.2,3.5-1.7,5.8-1.7c3.2,0,5.8,1.1,7.8,3.4c2,2.3,2.9,5.4,2.9,9.2v8.9c0,3.8-1,6.9-3,9.2
		C211.3,356.5,208.7,357.6,205.5,357.6z M202.7,351.1c1.9,0,3.4-0.5,4.5-1.6c1.1-1,1.6-2.6,1.6-4.8v-8.5c0-2.2-0.5-3.8-1.6-4.8
		c-1.1-1-2.5-1.6-4.5-1.6c-1.9,0-3.4,0.6-4.5,1.7c-1.1,1.2-1.6,2.8-1.6,4.9v7.9c0,2.1,0.5,3.8,1.6,4.9
		C199.3,350.5,200.8,351.1,202.7,351.1z"/>
	<path class="st5" d="M226.6,357l-5.2-33h5.9l2.9,20.2c0.2,1.2,0.3,2.6,0.4,4c0.1,1.4,0.2,2.6,0.3,3.6c0-1,0.1-2.2,0.2-3.6
		c0.1-1.4,0.3-2.8,0.5-4l3.6-20.2h6.2l3.5,20.2c0.2,1.2,0.4,2.6,0.6,4c0.1,1.5,0.2,2.7,0.3,3.6c0.1-1,0.2-2.2,0.3-3.6
		c0.1-1.5,0.2-2.8,0.4-4l3-20.2h5.8l-5.3,33h-7.7l-3.1-20.3c-0.2-1.1-0.4-2.4-0.5-3.9c-0.2-1.5-0.3-2.6-0.4-3.6
		c0,0.9-0.2,2.1-0.4,3.6c-0.2,1.5-0.4,2.8-0.5,3.9l-3.2,20.3H226.6z"/>
	<path class="st5" d="M274.6,357.6c-2.8,0-5.2-0.5-7.3-1.6c-2.1-1.1-3.7-2.6-4.8-4.6c-1.1-2-1.7-4.3-1.7-7v-7.8c0-2.7,0.6-5,1.7-7
		c1.1-2,2.7-3.5,4.8-4.6c2.1-1.1,4.5-1.6,7.3-1.6c2.8,0,5.2,0.5,7.2,1.6c2.1,1.1,3.7,2.6,4.8,4.5c1.1,1.9,1.7,4.2,1.7,6.8v6h-20.4
		v2.3c0,2.2,0.6,3.9,1.7,5.1c1.2,1.1,2.8,1.7,4.9,1.7c1.6,0,2.9-0.3,4-0.8c1.1-0.5,1.7-1.3,2-2.4h7.4c-0.5,2.8-2,5.1-4.4,6.8
		C281.1,356.8,278.1,357.6,274.6,357.6z M267.9,336.4v1.1l13.2-0.1v-1.1c0-2.3-0.6-4-1.7-5.3c-1.1-1.2-2.7-1.9-4.9-1.9
		c-2.2,0-3.9,0.6-5,1.9C268.5,332.3,267.9,334.1,267.9,336.4z"/>
	<path class="st5" d="M330.6,357l11-43.8h9.7l11.1,43.8h-7.7l-2.4-10.6h-11.6l-2.4,10.6H330.6z M342.1,340.3h8.9l-2.6-11.8
		c-0.4-2-0.8-3.7-1.1-5.3c-0.3-1.6-0.5-2.7-0.7-3.5c-0.1,0.7-0.3,1.9-0.7,3.5c-0.3,1.6-0.7,3.3-1.1,5.2L342.1,340.3z"/>
	<path class="st5" d="M376.5,357v-21.7h-9.1v-6.8h9.1v-5.8c0-2.9,1-5.2,2.9-6.9s4.5-2.6,7.6-2.6h9.7v6.6h-9.5c-1,0-1.7,0.3-2.3,0.8
		c-0.6,0.5-0.9,1.3-0.9,2.2v5.7h12.7v6.8H384V357H376.5z"/>
	<path class="st5" d="M409.6,367.8v-6.2h9.3c1.8,0,3.1-0.5,4.1-1.4c1-0.9,1.4-2.2,1.4-3.8v-2l0.1-5.2c-0.7,1.8-1.8,3.3-3.3,4.3
		c-1.5,1-3.3,1.5-5.5,1.5c-3.4,0-6-1.1-8-3.4c-2-2.3-3-5.3-3-9.2V336c0-3.8,1-6.9,3-9.2c2-2.3,4.6-3.4,8-3.4c2.2,0,4,0.5,5.5,1.5
		c1.5,1,2.6,2.5,3.3,4.4V324h7.3v32.5c0,3.5-1.2,6.2-3.4,8.2c-2.3,2-5.4,3-9.4,3H409.6z M418.3,348.6c1.9,0,3.4-0.6,4.5-1.7
		c1.1-1.1,1.6-2.7,1.6-4.8v-5.8c0-2-0.5-3.6-1.6-4.8c-1.1-1.1-2.5-1.7-4.5-1.7c-1.9,0-3.4,0.6-4.4,1.7c-1,1.1-1.6,2.6-1.6,4.6v6.2
		c0,2,0.5,3.5,1.6,4.6C414.9,348.1,416.4,348.6,418.3,348.6z"/>
	<path class="st5" d="M441.1,357v-43.8h7.5V324l-0.2,6.1c0.4-2.1,1.4-3.7,2.9-4.9s3.5-1.8,5.9-1.8c3.2,0,5.8,1.1,7.8,3.2
		c1.9,2.2,2.9,5.1,2.9,8.7V357h-7.5v-20.8c0-2-0.5-3.6-1.6-4.7c-1.1-1.1-2.5-1.7-4.3-1.7c-1.9,0-3.4,0.6-4.4,1.7
		c-1.1,1.1-1.6,2.7-1.6,4.8V357H441.1z"/>
	<path class="st5" d="M486.8,357.6c-3.4,0-6-0.9-7.9-2.8c-1.9-1.9-2.9-4.4-2.9-7.5c0-3.2,1.1-5.8,3.3-7.7c2.2-1.9,5.2-2.8,9.1-2.8h8
		v-2.3c0-3.3-1.9-5-5.8-5c-1.8,0-3.2,0.3-4.2,1c-1,0.7-1.6,1.6-1.7,2.9h-7.2c0.2-3,1.4-5.4,3.8-7.2s5.5-2.8,9.5-2.8
		c4.2,0,7.5,1,9.8,2.9c2.3,2,3.5,4.7,3.5,8.3V357h-7.3v-6.2c-0.3,2.1-1.3,3.8-3,5C491.8,357,489.6,357.6,486.8,357.6z M489.2,351.5
		c2.2,0,3.9-0.5,5.2-1.6c1.3-1.1,1.9-2.5,1.9-4.3v-3.9h-7.7c-1.6,0-2.9,0.5-3.9,1.4c-1,0.9-1.4,2.1-1.4,3.5c0,1.5,0.5,2.7,1.5,3.6
		C485.9,351,487.4,351.5,489.2,351.5z"/>
	<path class="st5" d="M513.1,357v-33h7.3v6.2c0.4-2.1,1.4-3.7,2.9-4.9s3.5-1.8,5.9-1.8c3.2,0,5.8,1.1,7.8,3.2
		c1.9,2.2,2.9,5.1,2.9,8.7V357h-7.5v-20.8c0-2-0.5-3.6-1.6-4.7c-1.1-1.1-2.5-1.7-4.3-1.7c-1.9,0-3.4,0.6-4.4,1.7
		c-1.1,1.1-1.6,2.7-1.6,4.8V357H513.1z"/>
	<path class="st5" d="M549.1,357v-6.8h11.3v-19.4h-10.1V324h17.6v26.2H578v6.8H549.1z M563.6,318.5c-1.5,0-2.7-0.4-3.6-1.2
		c-0.9-0.8-1.3-1.8-1.3-3.1s0.4-2.4,1.3-3.2c0.9-0.8,2.1-1.2,3.6-1.2c1.5,0,2.7,0.4,3.6,1.2c0.9,0.8,1.3,1.8,1.3,3.2
		s-0.4,2.4-1.3,3.1C566.3,318.1,565.1,318.5,563.6,318.5z"/>
	<path class="st5" d="M597.1,357.5c-3.9,0-7-0.9-9.3-2.7c-2.3-1.8-3.4-4.2-3.4-7.2h7.4c0,1.3,0.5,2.3,1.4,2.9c0.9,0.7,2.2,1,3.9,1
		h2.6c1.8,0,3.2-0.3,4.2-1c1-0.7,1.5-1.7,1.5-2.9c0-1.2-0.3-2.1-1-2.7c-0.7-0.6-1.7-1-3.1-1.2l-8.2-1.1c-2.6-0.4-4.7-1.4-6.1-3.1
		c-1.4-1.7-2.1-3.9-2.1-6.5c0-3.1,1-5.5,3.1-7.2c2.1-1.7,5.1-2.5,9-2.5h2.8c3.7,0,6.6,0.8,8.9,2.5c2.2,1.7,3.4,3.9,3.5,6.7h-7.4
		c0-1-0.5-1.9-1.4-2.5c-0.9-0.6-2.1-0.9-3.5-0.9h-2.8c-1.6,0-2.8,0.3-3.7,1c-0.8,0.7-1.3,1.6-1.3,2.7c0,1,0.3,1.7,0.9,2.2
		c0.6,0.5,1.5,0.8,2.7,0.9l7.7,1.1c3,0.4,5.3,1.4,6.9,3.2c1.5,1.8,2.3,4.2,2.3,7.2c0,3.2-1.1,5.7-3.3,7.4c-2.2,1.7-5.4,2.6-9.6,2.6
		H597.1z"/>
	<path class="st5" d="M637.8,357c-3.1,0-5.5-0.9-7.3-2.7c-1.8-1.8-2.7-4.2-2.7-7.2v-16.3h-9.1V324h9.1v-9.3h7.6v9.3h13.1v6.8h-13.1
		v16.1c0,1,0.3,1.8,0.8,2.4c0.5,0.6,1.3,0.9,2.2,0.9h9.8v6.8H637.8z"/>
	<path class="st5" d="M666.8,357.6c-3.4,0-6-0.9-7.9-2.8c-1.9-1.9-2.9-4.4-2.9-7.5c0-3.2,1.1-5.8,3.3-7.7c2.2-1.9,5.2-2.8,9.1-2.8h8
		v-2.3c0-3.3-1.9-5-5.8-5c-1.8,0-3.2,0.3-4.2,1c-1,0.7-1.6,1.6-1.7,2.9h-7.2c0.2-3,1.4-5.4,3.8-7.2s5.5-2.8,9.5-2.8
		c4.2,0,7.5,1,9.8,2.9c2.3,2,3.5,4.7,3.5,8.3V357h-7.3v-6.2c-0.3,2.1-1.3,3.8-3,5C671.8,357,669.6,357.6,666.8,357.6z M669.2,351.5
		c2.2,0,3.9-0.5,5.2-1.6s1.9-2.5,1.9-4.3v-3.9h-7.7c-1.6,0-2.9,0.5-3.9,1.4c-1,0.9-1.4,2.1-1.4,3.5c0,1.5,0.5,2.7,1.5,3.6
		C665.9,351,667.3,351.5,669.2,351.5z"/>
	<path class="st5" d="M693.1,357v-33h7.3v6.2c0.4-2.1,1.4-3.7,2.9-4.9c1.6-1.2,3.5-1.8,5.9-1.8c3.2,0,5.8,1.1,7.8,3.2
		c1.9,2.2,2.9,5.1,2.9,8.7V357h-7.5v-20.8c0-2-0.5-3.6-1.6-4.7c-1.1-1.1-2.5-1.7-4.3-1.7c-1.9,0-3.3,0.6-4.4,1.7
		c-1.1,1.1-1.6,2.7-1.6,4.8V357H693.1z"/>
</g>
<g class="st1">
	<path class="st6" d="M887.7,242v-38.3h23.8v6.1h-17.4V220h16v6.1h-15.9V242H887.7z"/>
	<path class="st6" d="M919,242v-5.9h9.9v-17H920v-5.9h15.4v22.9h8.9v5.9H919z M931.7,208.3c-1.3,0-2.4-0.3-3.1-1
		c-0.8-0.7-1.2-1.6-1.2-2.8c0-1.2,0.4-2.1,1.2-2.8c0.8-0.7,1.8-1,3.1-1c1.3,0,2.4,0.3,3.2,1c0.8,0.7,1.2,1.6,1.2,2.8
		c0,1.2-0.4,2.1-1.2,2.8C934.1,208,933,208.3,931.7,208.3z"/>
	<path class="st6" d="M950.5,242v-28.9h6.4v5.4c0.3-1.8,1.2-3.3,2.6-4.3c1.4-1.1,3.1-1.6,5.2-1.6c2.8,0,5.1,0.9,6.8,2.8
		c1.7,1.9,2.5,4.4,2.5,7.6v19h-6.6v-18.2c0-1.8-0.5-3.2-1.4-4.1c-0.9-1-2.2-1.4-3.8-1.4c-1.6,0-2.9,0.5-3.9,1.5
		c-0.9,1-1.4,2.4-1.4,4.2V242H950.5z"/>
	<path class="st6" d="M998.4,242c-2.9,0-5.2-0.9-6.9-2.6s-2.6-4-2.6-6.8v-23h-9.5v-5.9h16.1v28.8c0,1.1,0.3,2,0.9,2.6
		c0.6,0.6,1.4,1,2.5,1h8.5v5.9H998.4z"/>
	<path class="st6" d="M1022,242.5c-2.9,0-5.3-0.8-7-2.5c-1.7-1.7-2.5-3.8-2.5-6.5c0-2.8,1-5,2.9-6.7c1.9-1.7,4.6-2.5,7.9-2.5h7v-2
		c0-2.9-1.7-4.4-5.1-4.4c-1.5,0-2.8,0.3-3.7,0.9c-0.9,0.6-1.4,1.4-1.5,2.5h-6.3c0.1-2.6,1.2-4.7,3.3-6.3c2-1.6,4.8-2.4,8.3-2.4
		c3.7,0,6.5,0.9,8.6,2.6s3,4.1,3,7.2V242h-6.4v-5.4c-0.2,1.9-1.1,3.3-2.6,4.4C1026.4,242,1024.5,242.5,1022,242.5z M1024.1,237.2
		c1.9,0,3.4-0.5,4.6-1.4c1.1-0.9,1.7-2.2,1.7-3.8v-3.4h-6.7c-1.4,0-2.6,0.4-3.4,1.2c-0.8,0.8-1.3,1.8-1.3,3.1c0,1.3,0.4,2.3,1.3,3.1
		C1021.2,236.8,1022.5,237.2,1024.1,237.2z"/>
	<path class="st6" d="M1045,242v-28.9h6.4v5.4c0.3-1.8,1.2-3.3,2.6-4.3c1.4-1.1,3.1-1.6,5.2-1.6c2.8,0,5.1,0.9,6.8,2.8
		c1.7,1.9,2.5,4.4,2.5,7.6v19h-6.6v-18.2c0-1.8-0.5-3.2-1.4-4.1c-0.9-1-2.2-1.4-3.8-1.4c-1.6,0-2.9,0.5-3.9,1.5
		c-0.9,1-1.4,2.4-1.4,4.2V242H1045z"/>
	<path class="st6" d="M1085.6,242.5c-2.8,0-5.1-1-6.8-3s-2.6-4.7-2.6-8v-7.8c0-3.4,0.9-6.1,2.6-8.1s4-3,6.8-3c2,0,3.7,0.5,5.1,1.5
		c1.4,1,2.4,2.4,2.9,4.3l-0.2-6.6v-8.1h6.6V242h-6.4v-5.2c-0.5,1.8-1.5,3.2-2.8,4.3C1089.3,242,1087.7,242.5,1085.6,242.5z
		 M1088.1,236.9c1.7,0,3-0.5,3.9-1.5c0.9-1,1.4-2.4,1.4-4.3v-6.9c0-1.9-0.5-3.3-1.4-4.3c-0.9-1-2.2-1.5-3.9-1.5s-3,0.5-3.9,1.4
		c-0.9,0.9-1.4,2.3-1.4,4.2v7.5c0,1.9,0.5,3.3,1.4,4.2S1086.4,236.9,1088.1,236.9z"/>
</g>
<g class="st1">
	<path class="st7" d="M934,372.5v-38.3h11.8c3.7,0,6.6,0.9,8.8,2.7s3.3,4.2,3.3,7.2c0,2.1-0.6,3.9-1.8,5.4c-1.2,1.5-2.8,2.4-4.7,2.7
		v0.1c1.4,0.2,2.7,0.7,3.8,1.5c1.1,0.9,2,2,2.6,3.3c0.6,1.3,0.9,2.8,0.9,4.4c0,2.2-0.5,4.1-1.5,5.8c-1,1.6-2.5,2.9-4.3,3.8
		c-1.9,0.9-4,1.3-6.6,1.3H934z M940.4,350h5.2c1.7,0,3.1-0.5,4.1-1.4c1-0.9,1.5-2.2,1.5-3.8c0-1.6-0.5-2.8-1.5-3.8
		c-1-0.9-2.4-1.4-4.1-1.4h-5.2V350z M940.4,367h5.6c1.9,0,3.4-0.5,4.5-1.5c1.1-1,1.7-2.4,1.7-4.2c0-1.8-0.6-3.2-1.7-4.3
		s-2.6-1.7-4.5-1.7h-5.6V367z"/>
	<path class="st7" d="M977.3,373c-2.5,0-4.6-0.5-6.4-1.4s-3.2-2.3-4.2-4c-1-1.7-1.5-3.8-1.5-6.1v-6.8c0-2.3,0.5-4.4,1.5-6.1
		c1-1.7,2.4-3.1,4.2-4s4-1.4,6.4-1.4c2.4,0,4.5,0.5,6.3,1.4c1.8,0.9,3.2,2.3,4.2,4c1,1.7,1.5,3.7,1.5,6v5.2h-17.8v2
		c0,2,0.5,3.4,1.5,4.4c1,1,2.4,1.5,4.3,1.5c1.4,0,2.5-0.2,3.5-0.7c1-0.5,1.5-1.2,1.7-2.1h6.5c-0.5,2.5-1.8,4.5-3.9,6
		C983,372.3,980.4,373,977.3,373z M971.5,354.4v1l11.5-0.1v-1c0-2-0.5-3.5-1.5-4.6c-1-1.1-2.4-1.6-4.3-1.6c-1.9,0-3.4,0.6-4.4,1.7
		S971.5,352.4,971.5,354.4z"/>
	<path class="st7" d="M998.1,372.5v-28.9h6.4v5.6c0.3-1.9,1.2-3.4,2.6-4.5c1.4-1.1,3.2-1.7,5.4-1.7c2.9,0,5.2,0.9,6.9,2.8
		c1.6,1.9,2.5,4.5,2.5,7.9v2.7h-6.6v-2.4c0-1.8-0.5-3.1-1.4-4c-0.9-0.9-2.2-1.4-3.9-1.4c-1.8,0-3.1,0.5-4,1.6
		c-0.9,1-1.4,2.5-1.4,4.5v17.7H998.1z"/>
	<path class="st7" d="M1027,372.5v-28.9h5.5v4.2h0.2c0.1-1.4,0.6-2.5,1.5-3.4c0.9-0.9,2-1.3,3.3-1.3c1.3,0,2.4,0.4,3.3,1.2
		s1.5,1.9,1.8,3.3c0.1-1.4,0.7-2.5,1.5-3.3s2-1.2,3.4-1.2c1.8,0,3.2,0.7,4.4,2.1c1.2,1.4,1.7,3.2,1.7,5.3v22h-5.8V351
		c0-0.9-0.2-1.7-0.7-2.2s-1.1-0.8-1.9-0.8c-1.6,0-2.4,1-2.4,3v21.5h-5.2V351c0-0.9-0.2-1.7-0.6-2.2s-1-0.8-1.8-0.8
		c-1.7,0-2.5,1-2.5,3v21.5H1027z"/>
	<path class="st7" d="M1071.7,373c-3.7,0-6.6-1-8.7-3.1c-2.1-2-3.2-4.8-3.2-8.4v-18h6.6v17.9c0,1.8,0.5,3.2,1.4,4.3
		c0.9,1,2.2,1.5,3.9,1.5c1.6,0,2.9-0.5,3.9-1.5c0.9-1,1.4-2.4,1.4-4.3v-17.9h6.6v18c0,3.5-1.1,6.3-3.2,8.4
		C1078.2,372,1075.4,373,1071.7,373z"/>
	<path class="st7" d="M1100.6,373c-2.8,0-5.1-1-6.8-3s-2.6-4.7-2.6-8v-7.8c0-3.4,0.9-6.1,2.6-8.1s4-3,6.8-3c2,0,3.7,0.5,5.1,1.5
		c1.4,1,2.4,2.4,2.9,4.3l-0.2-6.6v-8.1h6.6v38.3h-6.4v-5.2c-0.5,1.8-1.5,3.2-2.8,4.3C1104.3,372.5,1102.7,373,1100.6,373z
		 M1103.1,367.4c1.7,0,3-0.5,3.9-1.5c0.9-1,1.4-2.4,1.4-4.3v-6.9c0-1.9-0.5-3.3-1.4-4.3c-0.9-1-2.2-1.5-3.9-1.5s-3,0.5-3.9,1.4
		c-0.9,0.9-1.4,2.3-1.4,4.2v7.5c0,1.9,0.5,3.3,1.4,4.2C1100.1,366.9,1101.4,367.4,1103.1,367.4z"/>
	<path class="st7" d="M1131.5,373c-2.9,0-5.3-0.8-7-2.5c-1.7-1.7-2.5-3.8-2.5-6.5c0-2.8,1-5,2.9-6.7c1.9-1.7,4.6-2.5,7.9-2.5h7v-2
		c0-2.9-1.7-4.4-5.1-4.4c-1.5,0-2.8,0.3-3.7,0.9c-0.9,0.6-1.4,1.4-1.5,2.5h-6.3c0.1-2.6,1.2-4.7,3.3-6.3c2-1.6,4.8-2.4,8.3-2.4
		c3.7,0,6.5,0.9,8.6,2.6c2,1.7,3,4.1,3,7.2v19.6h-6.4v-5.4c-0.2,1.9-1.1,3.3-2.6,4.4S1134,373,1131.5,373z M1133.6,367.7
		c1.9,0,3.4-0.5,4.6-1.4c1.1-0.9,1.7-2.2,1.7-3.8v-3.4h-6.7c-1.4,0-2.6,0.4-3.4,1.2c-0.8,0.8-1.3,1.8-1.3,3.1c0,1.3,0.4,2.3,1.3,3.1
		C1130.7,367.3,1132,367.7,1133.6,367.7z"/>
</g>
<g class="st1">
	<path class="st8" d="M640.7,175.5l8.8-35h7.7l8.9,35H660l-1.9-8.5h-9.3l-1.9,8.5H640.7z M649.8,162.1h7.1l-2.1-9.4
		c-0.4-1.6-0.7-3-0.9-4.2c-0.3-1.3-0.4-2.2-0.5-2.8c-0.1,0.6-0.3,1.5-0.5,2.8c-0.3,1.3-0.6,2.7-0.9,4.2L649.8,162.1z"/>
	<path class="st8" d="M677.4,175.5v-17.4h-7.2v-5.4h7.2V148c0-2.3,0.8-4.1,2.3-5.5c1.5-1.4,3.6-2.1,6.1-2.1h7.7v5.3h-7.6
		c-0.8,0-1.4,0.2-1.8,0.6c-0.5,0.4-0.7,1-0.7,1.8v4.6h10.1v5.4h-10.1v17.4H677.4z"/>
	<path class="st8" d="M703.9,184.1v-5h7.4c1.4,0,2.5-0.4,3.3-1.1c0.8-0.8,1.2-1.8,1.2-3v-1.6l0.1-4.1c-0.5,1.5-1.4,2.6-2.6,3.4
		c-1.2,0.8-2.7,1.2-4.4,1.2c-2.7,0-4.8-0.9-6.4-2.7c-1.6-1.8-2.4-4.3-2.4-7.4v-5.1c0-3.1,0.8-5.5,2.4-7.3c1.6-1.8,3.7-2.7,6.4-2.7
		c1.7,0,3.2,0.4,4.4,1.2c1.2,0.8,2.1,2,2.6,3.5v-4.2h5.9v26c0,2.8-0.9,5-2.8,6.6c-1.8,1.6-4.3,2.4-7.5,2.4H703.9z M710.9,168.8
		c1.5,0,2.7-0.5,3.6-1.4c0.8-0.9,1.3-2.2,1.3-3.8V159c0-1.6-0.4-2.9-1.3-3.8c-0.8-0.9-2-1.4-3.6-1.4c-1.5,0-2.7,0.4-3.6,1.3
		c-0.8,0.9-1.2,2.1-1.2,3.7v5c0,1.6,0.4,2.8,1.2,3.7C708.1,168.3,709.3,168.8,710.9,168.8z"/>
	<path class="st8" d="M729.1,175.5v-35h6v8.6L735,154c0.3-1.7,1.1-3,2.4-3.9s2.8-1.4,4.8-1.4c2.6,0,4.7,0.9,6.2,2.6
		c1.6,1.7,2.3,4,2.3,7v17.3h-6v-16.6c0-1.6-0.4-2.9-1.3-3.8c-0.8-0.9-2-1.3-3.4-1.3c-1.5,0-2.7,0.4-3.5,1.3
		c-0.8,0.9-1.3,2.2-1.3,3.8v16.5H729.1z"/>
	<path class="st8" d="M765.7,176c-2.7,0-4.8-0.8-6.4-2.3c-1.6-1.5-2.3-3.5-2.3-6c0-2.6,0.9-4.6,2.6-6.1c1.8-1.5,4.2-2.3,7.2-2.3h6.4
		v-1.9c0-2.7-1.6-4-4.7-4c-1.4,0-2.5,0.3-3.4,0.8c-0.8,0.5-1.3,1.3-1.4,2.3h-5.8c0.1-2.4,1.1-4.3,3-5.8c1.9-1.5,4.4-2.2,7.6-2.2
		c3.4,0,6,0.8,7.8,2.4c1.9,1.6,2.8,3.8,2.8,6.6v17.9h-5.9v-4.9c-0.2,1.7-1,3-2.4,4C769.7,175.5,767.9,176,765.7,176z M767.6,171.1
		c1.8,0,3.2-0.4,4.2-1.3c1-0.9,1.5-2,1.5-3.5v-3.1h-6.1c-1.3,0-2.4,0.4-3.1,1.1s-1.2,1.7-1.2,2.8c0,1.2,0.4,2.1,1.2,2.9
		S766.1,171.1,767.6,171.1z"/>
	<path class="st8" d="M786.7,175.5v-26.4h5.9v4.9c0.3-1.7,1.1-3,2.4-4c1.2-1,2.8-1.5,4.8-1.5c2.6,0,4.7,0.9,6.2,2.6
		c1.6,1.7,2.3,4,2.3,7v17.3h-6v-16.6c0-1.6-0.4-2.9-1.3-3.8c-0.8-0.9-2-1.3-3.4-1.3c-1.5,0-2.7,0.4-3.5,1.3
		c-0.8,0.9-1.3,2.2-1.3,3.8v16.5H786.7z"/>
	<path class="st8" d="M815.4,175.5v-5.4h9v-15.6h-8.1v-5.4h14.1v21h8.1v5.4H815.4z M827.1,144.7c-1.2,0-2.2-0.3-2.9-0.9
		c-0.7-0.6-1.1-1.5-1.1-2.5c0-1.1,0.4-1.9,1.1-2.5c0.7-0.6,1.7-0.9,2.9-0.9c1.2,0,2.2,0.3,2.9,0.9c0.7,0.6,1.1,1.5,1.1,2.5
		c0,1.1-0.4,1.9-1.1,2.5C829.2,144.4,828.3,144.7,827.1,144.7z"/>
	<path class="st8" d="M853.9,175.9c-3.1,0-5.6-0.7-7.4-2.1c-1.8-1.4-2.7-3.4-2.7-5.8h5.9c0,1,0.4,1.8,1.1,2.4s1.8,0.8,3.1,0.8h2.1
		c1.4,0,2.6-0.3,3.3-0.8s1.2-1.3,1.2-2.4c0-1-0.3-1.7-0.8-2.1c-0.5-0.5-1.4-0.8-2.5-0.9l-6.6-0.9c-2.1-0.3-3.7-1.1-4.9-2.4
		s-1.7-3.1-1.7-5.2c0-2.5,0.8-4.4,2.5-5.7s4.1-2,7.2-2h2.2c2.9,0,5.3,0.7,7.1,2c1.8,1.3,2.7,3.1,2.8,5.4h-6c0-0.8-0.4-1.5-1.1-2
		c-0.7-0.5-1.6-0.7-2.8-0.7h-2.2c-1.3,0-2.3,0.3-2.9,0.8c-0.7,0.5-1,1.2-1,2.1c0,0.8,0.2,1.4,0.7,1.8c0.5,0.4,1.2,0.6,2.2,0.7
		l6.2,0.9c2.4,0.3,4.3,1.1,5.5,2.6c1.2,1.4,1.8,3.3,1.8,5.7c0,2.6-0.9,4.5-2.6,5.9c-1.7,1.4-4.3,2.1-7.7,2.1H853.9z"/>
	<path class="st8" d="M886.4,175.5c-2.5,0-4.4-0.7-5.9-2.1c-1.5-1.4-2.2-3.4-2.2-5.8v-13.1h-7.3v-5.4h7.3v-7.4h6v7.4h10.5v5.4h-10.5
		v12.9c0,0.8,0.2,1.4,0.6,1.9s1,0.7,1.8,0.7h7.8v5.4H886.4z"/>
	<path class="st8" d="M909.7,176c-2.7,0-4.8-0.8-6.4-2.3c-1.6-1.5-2.3-3.5-2.3-6c0-2.6,0.9-4.6,2.6-6.1c1.8-1.5,4.2-2.3,7.2-2.3h6.4
		v-1.9c0-2.7-1.6-4-4.7-4c-1.4,0-2.5,0.3-3.4,0.8c-0.8,0.5-1.3,1.3-1.4,2.3h-5.8c0.1-2.4,1.1-4.3,3-5.8c1.9-1.5,4.4-2.2,7.6-2.2
		c3.4,0,6,0.8,7.8,2.4c1.9,1.6,2.8,3.8,2.8,6.6v17.9h-5.9v-4.9c-0.2,1.7-1,3-2.4,4C913.7,175.5,911.9,176,909.7,176z M911.6,171.1
		c1.8,0,3.2-0.4,4.2-1.3c1-0.9,1.5-2,1.5-3.5v-3.1h-6.1c-1.3,0-2.4,0.4-3.1,1.1s-1.2,1.7-1.2,2.8c0,1.2,0.4,2.1,1.2,2.9
		S910.1,171.1,911.6,171.1z"/>
	<path class="st8" d="M930.7,175.5v-26.4h5.9v4.9c0.3-1.7,1.1-3,2.4-4c1.2-1,2.8-1.5,4.8-1.5c2.6,0,4.7,0.9,6.2,2.6
		c1.6,1.7,2.3,4,2.3,7v17.3h-6v-16.6c0-1.6-0.4-2.9-1.3-3.8c-0.8-0.9-2-1.3-3.4-1.3c-1.5,0-2.7,0.4-3.5,1.3s-1.3,2.2-1.3,3.8v16.5
		H930.7z"/>
	<path class="st8" d="M986.3,175.5l8.8-35h7.7l8.9,35h-6.1l-1.9-8.5h-9.3l-1.9,8.5H986.3z M995.4,162.1h7.1l-2.1-9.4
		c-0.4-1.6-0.7-3-0.9-4.2c-0.3-1.3-0.4-2.2-0.5-2.8c-0.1,0.6-0.3,1.5-0.5,2.8c-0.3,1.3-0.6,2.7-0.9,4.2L995.4,162.1z"/>
	<path class="st8" d="M1032.1,175.5c-2.6,0-4.7-0.8-6.3-2.4c-1.6-1.6-2.4-3.6-2.4-6.2v-21.1h-8.7v-5.4h14.7v26.4
		c0,1,0.3,1.8,0.8,2.4c0.6,0.6,1.3,0.9,2.3,0.9h7.7v5.4H1032.1z"/>
	<path class="st8" d="M1059,176c-1.9,0-3.4-0.5-4.7-1.4s-2.1-2.2-2.6-3.9v4.8h-5.9v-35h6v7.4l-0.2,6c0.5-1.7,1.4-3,2.7-3.9
		c1.3-0.9,2.8-1.4,4.6-1.4c2.6,0,4.7,0.9,6.2,2.7c1.6,1.8,2.4,4.3,2.4,7.4v7.2c0,3.1-0.8,5.5-2.4,7.3S1061.6,176,1059,176z
		 M1056.7,170.8c1.5,0,2.7-0.4,3.6-1.2c0.8-0.8,1.3-2.1,1.3-3.8v-6.8c0-1.7-0.4-3-1.3-3.8c-0.8-0.8-2-1.2-3.6-1.2
		c-1.5,0-2.7,0.5-3.6,1.4c-0.8,0.9-1.3,2.2-1.3,3.9v6.3c0,1.7,0.4,3,1.3,3.9C1054,170.3,1055.2,170.8,1056.7,170.8z"/>
	<path class="st8" d="M1082.5,176c-2.7,0-4.8-0.8-6.4-2.3c-1.6-1.5-2.3-3.5-2.3-6c0-2.6,0.9-4.6,2.6-6.1c1.8-1.5,4.2-2.3,7.2-2.3
		h6.4v-1.9c0-2.7-1.6-4-4.7-4c-1.4,0-2.5,0.3-3.4,0.8c-0.8,0.5-1.3,1.3-1.4,2.3h-5.8c0.1-2.4,1.1-4.3,3-5.8c1.9-1.5,4.4-2.2,7.6-2.2
		c3.4,0,6,0.8,7.8,2.4c1.9,1.6,2.8,3.8,2.8,6.6v17.9h-5.9v-4.9c-0.2,1.7-1,3-2.4,4C1086.5,175.5,1084.7,176,1082.5,176z
		 M1084.4,171.1c1.8,0,3.2-0.4,4.2-1.3c1-0.9,1.5-2,1.5-3.5v-3.1h-6.1c-1.3,0-2.4,0.4-3.1,1.1s-1.2,1.7-1.2,2.8
		c0,1.2,0.4,2.1,1.2,2.9S1082.9,171.1,1084.4,171.1z"/>
	<path class="st8" d="M1103.5,175.5v-26.4h5.9v4.9c0.3-1.7,1.1-3,2.4-4c1.2-1,2.8-1.5,4.8-1.5c2.6,0,4.7,0.9,6.2,2.6
		c1.6,1.7,2.3,4,2.3,7v17.3h-6v-16.6c0-1.6-0.4-2.9-1.3-3.8c-0.8-0.9-2-1.3-3.4-1.3c-1.5,0-2.7,0.4-3.5,1.3
		c-0.8,0.9-1.3,2.2-1.3,3.8v16.5H1103.5z"/>
	<path class="st8" d="M1132.2,175.5v-5.4h9v-15.6h-8.1v-5.4h14.1v21h8.1v5.4H1132.2z M1143.9,144.7c-1.2,0-2.2-0.3-2.9-0.9
		c-0.7-0.6-1.1-1.5-1.1-2.5c0-1.1,0.4-1.9,1.1-2.5c0.7-0.6,1.7-0.9,2.9-0.9c1.2,0,2.2,0.3,2.9,0.9c0.7,0.6,1.1,1.5,1.1,2.5
		c0,1.1-0.4,1.9-1.1,2.5C1146,144.4,1145.1,144.7,1143.9,144.7z"/>
	<path class="st8" d="M1168.9,176c-2.7,0-4.8-0.8-6.4-2.3c-1.6-1.5-2.3-3.5-2.3-6c0-2.6,0.9-4.6,2.6-6.1c1.8-1.5,4.2-2.3,7.2-2.3
		h6.4v-1.9c0-2.7-1.6-4-4.7-4c-1.4,0-2.5,0.3-3.4,0.8c-0.8,0.5-1.3,1.3-1.4,2.3h-5.8c0.1-2.4,1.1-4.3,3-5.8s4.4-2.2,7.6-2.2
		c3.4,0,6,0.8,7.8,2.4c1.9,1.6,2.8,3.8,2.8,6.6v17.9h-5.9v-4.9c-0.2,1.7-1,3-2.4,4C1172.9,175.5,1171.1,176,1168.9,176z
		 M1170.8,171.1c1.8,0,3.2-0.4,4.2-1.3s1.5-2,1.5-3.5v-3.1h-6.1c-1.3,0-2.4,0.4-3.1,1.1c-0.8,0.7-1.2,1.7-1.2,2.8
		c0,1.2,0.4,2.1,1.2,2.9C1168.1,170.7,1169.3,171.1,1170.8,171.1z"/>
</g>
<g class="st1">
	<path class="st9" d="M681.2,43.5l8.8-35h7.7l8.9,35h-6.1l-1.9-8.5h-9.3l-1.9,8.5H681.2z M690.3,30.1h7.1l-2.1-9.4
		c-0.4-1.6-0.7-3-0.9-4.2c-0.3-1.3-0.4-2.2-0.5-2.8c-0.1,0.6-0.3,1.5-0.5,2.8c-0.3,1.3-0.6,2.7-0.9,4.2L690.3,30.1z"/>
	<path class="st9" d="M727,43.5c-2.6,0-4.7-0.8-6.3-2.4c-1.6-1.6-2.4-3.6-2.4-6.2V13.9h-8.7V8.5h14.7v26.4c0,1,0.3,1.8,0.8,2.4
		c0.6,0.6,1.3,0.9,2.3,0.9h7.7v5.4H727z"/>
	<path class="st9" d="M753.9,44c-1.9,0-3.4-0.5-4.7-1.4s-2.1-2.2-2.6-3.9v4.8h-5.9v-35h6v7.4l-0.2,6c0.5-1.7,1.4-3,2.7-3.9
		c1.3-0.9,2.8-1.4,4.6-1.4c2.6,0,4.7,0.9,6.2,2.7c1.6,1.8,2.4,4.3,2.4,7.4v7.2c0,3.1-0.8,5.5-2.4,7.3S756.5,44,753.9,44z
		 M751.6,38.8c1.5,0,2.7-0.4,3.6-1.2c0.8-0.8,1.3-2.1,1.3-3.8v-6.8c0-1.7-0.4-3-1.3-3.8c-0.8-0.8-2-1.2-3.6-1.2
		c-1.5,0-2.7,0.5-3.6,1.4s-1.3,2.2-1.3,3.9v6.3c0,1.7,0.4,3,1.3,3.9S750.1,38.8,751.6,38.8z"/>
	<path class="st9" d="M777.4,44c-2.7,0-4.8-0.8-6.4-2.3c-1.6-1.5-2.3-3.5-2.3-6c0-2.6,0.9-4.6,2.6-6.1c1.8-1.5,4.2-2.3,7.2-2.3h6.4
		v-1.9c0-2.7-1.6-4-4.7-4c-1.4,0-2.5,0.3-3.4,0.8s-1.3,1.3-1.4,2.3h-5.8c0.1-2.4,1.1-4.3,3-5.8c1.9-1.5,4.4-2.2,7.6-2.2
		c3.4,0,6,0.8,7.8,2.4c1.9,1.6,2.8,3.8,2.8,6.6v17.9h-5.9v-4.9c-0.2,1.7-1,3-2.4,4S779.6,44,777.4,44z M779.3,39.1
		c1.8,0,3.2-0.4,4.2-1.3c1-0.9,1.5-2,1.5-3.5v-3.1h-6.1c-1.3,0-2.4,0.4-3.1,1.1s-1.2,1.7-1.2,2.8c0,1.2,0.4,2.1,1.2,2.9
		S777.8,39.1,779.3,39.1z"/>
	<path class="st9" d="M798.4,43.5V17.1h5.9V22c0.3-1.7,1.1-3,2.4-4c1.2-1,2.8-1.5,4.8-1.5c2.6,0,4.7,0.9,6.2,2.6
		c1.6,1.7,2.3,4,2.3,7v17.3h-6V26.9c0-1.6-0.4-2.9-1.3-3.8c-0.8-0.9-2-1.3-3.4-1.3c-1.5,0-2.7,0.4-3.5,1.3s-1.3,2.2-1.3,3.8v16.5
		H798.4z"/>
	<path class="st9" d="M827.1,43.5v-5.4h9V22.5h-8.1v-5.4h14.1v21h8.1v5.4H827.1z M838.8,12.7c-1.2,0-2.2-0.3-2.9-0.9
		s-1.1-1.5-1.1-2.5c0-1.1,0.4-1.9,1.1-2.5s1.7-0.9,2.9-0.9s2.2,0.3,2.9,0.9c0.7,0.6,1.1,1.5,1.1,2.5c0,1.1-0.4,1.9-1.1,2.5
		C840.9,12.4,840,12.7,838.8,12.7z"/>
	<path class="st9" d="M863.8,44c-2.7,0-4.8-0.8-6.4-2.3c-1.6-1.5-2.3-3.5-2.3-6c0-2.6,0.9-4.6,2.6-6.1c1.8-1.5,4.2-2.3,7.2-2.3h6.4
		v-1.9c0-2.7-1.6-4-4.7-4c-1.4,0-2.5,0.3-3.4,0.8s-1.3,1.3-1.4,2.3h-5.8c0.1-2.4,1.1-4.3,3-5.8s4.4-2.2,7.6-2.2c3.4,0,6,0.8,7.8,2.4
		c1.9,1.6,2.8,3.8,2.8,6.6v17.9h-5.9v-4.9c-0.2,1.7-1,3-2.4,4S866,44,863.8,44z M865.7,39.1c1.8,0,3.2-0.4,4.2-1.3
		c1-0.9,1.5-2,1.5-3.5v-3.1h-6.1c-1.3,0-2.4,0.4-3.1,1.1c-0.8,0.7-1.2,1.7-1.2,2.8c0,1.2,0.4,2.1,1.2,2.9
		C863,38.7,864.2,39.1,865.7,39.1z"/>
	<path class="st9" d="M913.7,43.5v-5.6l14.1-24H914V8.5h20.4V14l-14.1,24h14.6v5.4H913.7z"/>
	<path class="st9" d="M942.3,43.5v-5.4h9V22.5h-8.1v-5.4h14.1v21h8.1v5.4H942.3z M954,12.7c-1.2,0-2.2-0.3-2.9-0.9
		c-0.7-0.6-1.1-1.5-1.1-2.5c0-1.1,0.4-1.9,1.1-2.5c0.7-0.6,1.7-0.9,2.9-0.9c1.2,0,2.2,0.3,2.9,0.9c0.7,0.6,1.1,1.5,1.1,2.5
		c0,1.1-0.4,1.9-1.1,2.5C956.1,12.4,955.2,12.7,954,12.7z"/>
	<path class="st9" d="M969.8,43.5V17.1h5v3.8h0.1c0.1-1.3,0.5-2.3,1.3-3.1s1.8-1.2,3-1.2c1.2,0,2.2,0.4,3,1.1s1.4,1.8,1.7,3
		c0.1-1.3,0.6-2.3,1.4-3c0.8-0.8,1.8-1.1,3.1-1.1c1.6,0,2.9,0.6,4,1.9c1.1,1.3,1.6,2.9,1.6,4.9v20.1h-5.3V23.8c0-0.9-0.2-1.5-0.6-2
		c-0.4-0.5-1-0.7-1.7-0.7c-1.4,0-2.2,0.9-2.2,2.8v19.7h-4.8V23.8c0-0.9-0.2-1.5-0.6-2c-0.4-0.5-0.9-0.7-1.6-0.7
		c-1.5,0-2.3,0.9-2.3,2.8v19.7H969.8z"/>
	<path class="st9" d="M1013.1,44c-1.9,0-3.4-0.5-4.7-1.4s-2.1-2.2-2.6-3.9v4.8h-5.9v-35h6v7.4l-0.2,6c0.5-1.7,1.4-3,2.7-3.9
		c1.3-0.9,2.8-1.4,4.6-1.4c2.6,0,4.7,0.9,6.2,2.7c1.6,1.8,2.4,4.3,2.4,7.4v7.2c0,3.1-0.8,5.5-2.4,7.3S1015.7,44,1013.1,44z
		 M1010.8,38.8c1.5,0,2.7-0.4,3.6-1.2c0.8-0.8,1.3-2.1,1.3-3.8v-6.8c0-1.7-0.4-3-1.3-3.8c-0.8-0.8-2-1.2-3.6-1.2s-2.7,0.5-3.6,1.4
		c-0.8,0.9-1.3,2.2-1.3,3.9v6.3c0,1.7,0.4,3,1.3,3.9C1008.1,38.3,1009.3,38.8,1010.8,38.8z"/>
	<path class="st9" d="M1036.6,44c-2.7,0-4.8-0.8-6.4-2.3c-1.6-1.5-2.3-3.5-2.3-6c0-2.6,0.9-4.6,2.6-6.1c1.8-1.5,4.2-2.3,7.2-2.3h6.4
		v-1.9c0-2.7-1.6-4-4.7-4c-1.4,0-2.5,0.3-3.4,0.8c-0.8,0.5-1.3,1.3-1.4,2.3h-5.8c0.1-2.4,1.1-4.3,3-5.8c1.9-1.5,4.4-2.2,7.6-2.2
		c3.4,0,6,0.8,7.8,2.4c1.9,1.6,2.8,3.8,2.8,6.6v17.9h-5.9v-4.9c-0.2,1.7-1,3-2.4,4C1040.6,43.5,1038.8,44,1036.6,44z M1038.5,39.1
		c1.8,0,3.2-0.4,4.2-1.3c1-0.9,1.5-2,1.5-3.5v-3.1h-6.1c-1.3,0-2.4,0.4-3.1,1.1s-1.2,1.7-1.2,2.8c0,1.2,0.4,2.1,1.2,2.9
		S1037,39.1,1038.5,39.1z"/>
	<path class="st9" d="M1070.7,44c-1.9,0-3.4-0.5-4.7-1.4s-2.1-2.2-2.6-3.9v4.8h-5.9v-35h6v7.4l-0.2,6c0.5-1.7,1.4-3,2.7-3.9
		c1.3-0.9,2.8-1.4,4.6-1.4c2.6,0,4.7,0.9,6.2,2.7c1.6,1.8,2.4,4.3,2.4,7.4v7.2c0,3.1-0.8,5.5-2.4,7.3S1073.3,44,1070.7,44z
		 M1068.4,38.8c1.5,0,2.7-0.4,3.6-1.2c0.8-0.8,1.3-2.1,1.3-3.8v-6.8c0-1.7-0.4-3-1.3-3.8c-0.8-0.8-2-1.2-3.6-1.2s-2.7,0.5-3.6,1.4
		c-0.8,0.9-1.3,2.2-1.3,3.9v6.3c0,1.7,0.4,3,1.3,3.9C1065.7,38.3,1066.9,38.8,1068.4,38.8z"/>
	<path class="st9" d="M1087.6,43.5l-4.1-26.4h4.8l2.4,16.2c0.1,1,0.2,2.1,0.3,3.2c0.1,1.2,0.2,2.1,0.2,2.9c0-0.8,0.1-1.7,0.2-2.9
		c0.1-1.2,0.2-2.2,0.4-3.2l2.9-16.2h5l2.8,16.2c0.2,1,0.3,2.1,0.5,3.2c0.1,1.2,0.2,2.1,0.3,2.9c0.1-0.8,0.1-1.7,0.2-2.9
		c0.1-1.2,0.2-2.2,0.4-3.2l2.4-16.2h4.6l-4.2,26.4h-6.2l-2.5-16.3c-0.2-0.9-0.3-1.9-0.4-3.1c-0.1-1.2-0.2-2.1-0.3-2.9
		c0,0.7-0.1,1.7-0.3,2.9c-0.2,1.2-0.3,2.2-0.4,3.1l-2.6,16.3H1087.6z"/>
	<path class="st9" d="M1125.9,44c-2.2,0-4.2-0.4-5.9-1.3c-1.7-0.9-3-2.1-3.9-3.7s-1.4-3.4-1.4-5.6v-6.2c0-2.1,0.5-4,1.4-5.6
		s2.2-2.8,3.9-3.7c1.7-0.9,3.6-1.3,5.9-1.3c2.2,0,4.1,0.4,5.8,1.3s2.9,2.1,3.8,3.6c0.9,1.6,1.4,3.4,1.4,5.4v4.8h-16.3v1.8
		c0,1.8,0.5,3.1,1.4,4.1c0.9,0.9,2.2,1.4,3.9,1.4c1.2,0,2.3-0.2,3.2-0.6c0.9-0.4,1.4-1.1,1.6-1.9h6c-0.4,2.3-1.6,4.1-3.6,5.4
		C1131.1,43.3,1128.8,44,1125.9,44z M1120.6,27v0.9l10.6,0v-0.9c0-1.8-0.4-3.2-1.3-4.2c-0.9-1-2.2-1.5-3.9-1.5c-1.8,0-3.1,0.5-4,1.5
		C1121.1,23.7,1120.6,25.2,1120.6,27z"/>
</g>
<g class="st1">
	<path class="st10" d="M919.7,97.9c-2.9,0-5.2-0.8-6.8-2.4c-1.6-1.6-2.5-3.7-2.5-6.5V67.9h5.1V89c0,1.4,0.3,2.5,1.1,3.3
		c0.7,0.8,1.7,1.2,3.1,1.2c1.3,0,2.3-0.4,3.1-1.2c0.7-0.8,1.1-1.9,1.1-3.3V67.9h5.1v21.1c0,2.7-0.8,4.9-2.4,6.5
		C924.8,97.1,922.6,97.9,919.7,97.9z"/>
	<path class="st10" d="M938,104.8v-4.2h6.3c1.2,0,2.1-0.3,2.8-1s1-1.5,1-2.6v-1.3l0.1-3.5c-0.5,1.2-1.2,2.2-2.2,2.9s-2.2,1-3.7,1
		c-2.3,0-4.1-0.8-5.4-2.3c-1.3-1.5-2-3.6-2-6.2v-4.3c0-2.6,0.7-4.7,2-6.2s3.1-2.3,5.4-2.3c1.5,0,2.7,0.3,3.7,1s1.7,1.7,2.2,2.9v-3.6
		h4.9v22c0,2.3-0.8,4.2-2.3,5.6c-1.6,1.4-3.7,2-6.3,2H938z M943.8,91.8c1.3,0,2.3-0.4,3-1.2c0.7-0.8,1.1-1.8,1.1-3.2v-3.9
		c0-1.4-0.4-2.5-1.1-3.2c-0.7-0.8-1.7-1.2-3-1.2c-1.3,0-2.3,0.4-3,1.1c-0.7,0.7-1.1,1.8-1.1,3.1v4.2c0,1.3,0.4,2.4,1.1,3.1
		C941.5,91.5,942.5,91.8,943.8,91.8z"/>
	<path class="st10" d="M965.8,97.9c-2.3,0-4.1-0.6-5.4-1.9s-2-3-2-5c0-2.2,0.7-3.9,2.2-5.2c1.5-1.3,3.5-1.9,6.1-1.9h5.4v-1.6
		c0-2.2-1.3-3.4-3.9-3.4c-1.2,0-2.1,0.2-2.8,0.7c-0.7,0.5-1.1,1.1-1.2,1.9h-4.9c0.1-2,1-3.6,2.5-4.9c1.6-1.2,3.7-1.9,6.4-1.9
		c2.8,0,5,0.7,6.6,2c1.6,1.3,2.3,3.2,2.3,5.6v15.1h-4.9v-4.2c-0.2,1.4-0.9,2.6-2,3.4C969.2,97.5,967.6,97.9,965.8,97.9z M967.4,93.8
		c1.5,0,2.7-0.4,3.5-1.1c0.9-0.7,1.3-1.7,1.3-2.9v-2.6H967c-1.1,0-2,0.3-2.6,0.9c-0.6,0.6-1,1.4-1,2.4c0,1,0.3,1.8,1,2.4
		C965.2,93.5,966.1,93.8,967.4,93.8z"/>
	<path class="st10" d="M983.5,97.5V75.2h4.9v4.2c0.3-1.4,0.9-2.5,2-3.3s2.4-1.2,4-1.2c2.2,0,3.9,0.7,5.2,2.2c1.3,1.5,2,3.4,2,5.9
		v14.6h-5.1v-14c0-1.4-0.4-2.4-1.1-3.2c-0.7-0.7-1.7-1.1-2.9-1.1c-1.3,0-2.3,0.4-3,1.1c-0.7,0.8-1.1,1.8-1.1,3.2v13.9H983.5z"/>
	<path class="st10" d="M1014.8,97.9c-2.2,0-3.9-0.8-5.2-2.3c-1.3-1.5-2-3.6-2-6.2v-6c0-2.6,0.7-4.7,2-6.2c1.3-1.5,3.1-2.3,5.3-2.3
		c1.5,0,2.8,0.4,3.9,1.2c1.1,0.8,1.8,1.9,2.2,3.3l-0.2-5.1v-6.2h5.1v29.6h-4.9v-4c-0.4,1.4-1.1,2.5-2.2,3.3S1016.4,97.9,1014.8,97.9
		z M1016.7,93.5c1.3,0,2.3-0.4,3-1.2c0.7-0.8,1.1-1.9,1.1-3.3v-5.3c0-1.4-0.4-2.5-1.1-3.3c-0.7-0.8-1.7-1.2-3-1.2
		c-1.3,0-2.3,0.4-3,1.1c-0.7,0.7-1.1,1.8-1.1,3.2v5.8c0,1.5,0.4,2.5,1.1,3.2C1014.4,93.2,1015.4,93.5,1016.7,93.5z"/>
	<path class="st10" d="M1038.7,97.9c-2.3,0-4.1-0.6-5.4-1.9s-2-3-2-5c0-2.2,0.7-3.9,2.2-5.2s3.5-1.9,6.1-1.9h5.4v-1.6
		c0-2.2-1.3-3.4-3.9-3.4c-1.2,0-2.1,0.2-2.8,0.7c-0.7,0.5-1.1,1.1-1.2,1.9h-4.9c0.1-2,1-3.6,2.5-4.9c1.6-1.2,3.7-1.9,6.4-1.9
		c2.8,0,5,0.7,6.6,2s2.3,3.2,2.3,5.6v15.1h-4.9v-4.2c-0.2,1.4-0.9,2.6-2,3.4C1042.1,97.5,1040.5,97.9,1038.7,97.9z M1040.3,93.8
		c1.5,0,2.7-0.4,3.5-1.1c0.9-0.7,1.3-1.7,1.3-2.9v-2.6h-5.2c-1.1,0-2,0.3-2.6,0.9s-1,1.4-1,2.4c0,1,0.3,1.8,1,2.4
		C1038,93.5,1039,93.8,1040.3,93.8z"/>
</g>
<g class="st1">
	<path class="st11" d="M157.6,587.4c-2.9,0-5.2-0.8-6.8-2.4c-1.6-1.6-2.5-3.7-2.5-6.5v-21.1h5.1v21.1c0,1.4,0.4,2.5,1.1,3.3
		s1.7,1.2,3.1,1.2c1.3,0,2.3-0.4,3.1-1.2s1.1-1.9,1.1-3.3v-21.1h5.1v21.1c0,2.7-0.8,4.9-2.4,6.5
		C162.8,586.6,160.6,587.4,157.6,587.4z"/>
	<path class="st11" d="M172.9,587v-22.3h4.9v4.2c0.3-1.4,0.9-2.5,2-3.3c1.1-0.8,2.4-1.2,4-1.2c2.2,0,3.9,0.7,5.2,2.2
		c1.3,1.5,2,3.4,2,5.9V587H186v-14c0-1.4-0.4-2.4-1.1-3.2c-0.7-0.7-1.7-1.1-2.9-1.1c-1.3,0-2.3,0.4-3,1.1c-0.7,0.8-1.1,1.8-1.1,3.2
		V587H172.9z"/>
	<path class="st11" d="M197.2,587v-4.6h7.6v-13.1H198v-4.6h11.9v17.7h6.8v4.6H197.2z M207,561c-1,0-1.8-0.3-2.4-0.8
		c-0.6-0.5-0.9-1.2-0.9-2.1s0.3-1.6,0.9-2.1c0.6-0.5,1.4-0.8,2.4-0.8c1,0,1.8,0.3,2.4,0.8c0.6,0.5,0.9,1.2,0.9,2.1s-0.3,1.6-0.9,2.1
		C208.8,560.7,208,561,207,561z"/>
	<path class="st11" d="M232.8,587c-2.1,0-3.7-0.6-5-1.8c-1.2-1.2-1.8-2.8-1.8-4.9v-11h-6.2v-4.6h6.2v-6.3h5.1v6.3h8.9v4.6h-8.9v10.9
		c0,0.6,0.2,1.2,0.5,1.6c0.4,0.4,0.9,0.6,1.5,0.6h6.6v4.6H232.8z"/>
	<path class="st11" d="M254.9,587.4c-1.9,0-3.5-0.4-4.9-1.1c-1.4-0.7-2.5-1.8-3.3-3.1c-0.8-1.3-1.2-2.9-1.2-4.7v-5.3
		c0-1.8,0.4-3.4,1.2-4.7s1.9-2.4,3.3-3.1c1.4-0.7,3.1-1.1,4.9-1.1c1.9,0,3.5,0.4,4.9,1.1c1.4,0.7,2.5,1.7,3.2,3.1s1.2,2.8,1.2,4.6v4
		h-13.8v1.5c0,1.5,0.4,2.7,1.2,3.4c0.8,0.8,1.9,1.2,3.3,1.2c1.1,0,2-0.2,2.7-0.5c0.7-0.4,1.2-0.9,1.3-1.6h5c-0.4,1.9-1.4,3.4-3,4.6
		C259.3,586.8,257.3,587.4,254.9,587.4z M250.4,573.1v0.8l8.9,0V573c0-1.5-0.4-2.7-1.1-3.6c-0.8-0.8-1.9-1.3-3.3-1.3
		c-1.5,0-2.6,0.4-3.4,1.3C250.8,570.3,250.4,571.5,250.4,573.1z"/>
	<path class="st11" d="M277.1,587.4c-2.2,0-3.9-0.8-5.2-2.3s-2-3.6-2-6.2v-6c0-2.6,0.7-4.7,2-6.2c1.3-1.5,3.1-2.3,5.3-2.3
		c1.5,0,2.8,0.4,3.9,1.2c1.1,0.8,1.8,1.9,2.2,3.3l-0.2-5.1v-6.2h5.1V587h-4.9v-4c-0.4,1.4-1.1,2.5-2.2,3.3
		C280,587,278.7,587.4,277.1,587.4z M279,583c1.3,0,2.3-0.4,3-1.2c0.7-0.8,1.1-1.9,1.1-3.3v-5.3c0-1.4-0.4-2.5-1.1-3.3
		c-0.7-0.8-1.7-1.2-3-1.2c-1.3,0-2.3,0.4-3,1.1c-0.7,0.7-1.1,1.8-1.1,3.2v5.8c0,1.5,0.4,2.5,1.1,3.2C276.7,582.7,277.7,583,279,583z
		"/>
	<path class="st11" d="M293.7,592.6V588h19.4v4.6H293.7z"/>
	<path class="st11" d="M327.9,587.4c-2,0-3.7-0.4-5.2-1.1c-1.5-0.7-2.7-1.7-3.5-3c-0.8-1.3-1.2-2.9-1.2-4.7h5c0,1.3,0.5,2.4,1.4,3.2
		c0.9,0.8,2.1,1.2,3.6,1.2c1.5,0,2.6-0.4,3.5-1.2s1.3-1.8,1.3-3.1c0-1-0.3-1.8-0.8-2.6c-0.6-0.7-1.3-1.2-2.4-1.5l-4-1
		c-2.1-0.5-3.8-1.6-5.1-3c-1.2-1.5-1.9-3.3-1.9-5.3c0-2.5,0.8-4.5,2.5-6c1.6-1.5,3.8-2.2,6.6-2.2c1.9,0,3.5,0.3,4.9,1
		c1.4,0.7,2.5,1.6,3.2,2.9c0.8,1.2,1.1,2.7,1.1,4.3h-4.9c0-1.1-0.4-2.1-1.2-2.8c-0.8-0.7-1.8-1.1-3.1-1.1c-1.3,0-2.3,0.3-3,1
		c-0.7,0.7-1.1,1.6-1.1,2.7c0,0.9,0.3,1.7,0.8,2.3c0.5,0.6,1.3,1,2.2,1.3l4.1,1c2.2,0.5,3.9,1.6,5.2,3.2c1.3,1.6,1.9,3.6,1.9,5.8
		c0,1.8-0.4,3.3-1.2,4.6c-0.8,1.3-1.9,2.3-3.4,3C331.6,587,329.8,587.4,327.9,587.4z"/>
	<path class="st11" d="M354.3,587c-2.1,0-3.7-0.6-5-1.8c-1.2-1.2-1.8-2.8-1.8-4.9v-11h-6.2v-4.6h6.2v-6.3h5.1v6.3h8.9v4.6h-8.9v10.9
		c0,0.6,0.2,1.2,0.5,1.6c0.4,0.4,0.9,0.6,1.5,0.6h6.6v4.6H354.3z"/>
	<path class="st11" d="M373.9,587.4c-2.3,0-4.1-0.6-5.4-1.9c-1.3-1.3-2-3-2-5c0-2.2,0.7-3.9,2.2-5.2c1.5-1.3,3.5-1.9,6.1-1.9h5.4
		v-1.6c0-2.2-1.3-3.4-3.9-3.4c-1.2,0-2.1,0.2-2.8,0.7c-0.7,0.5-1.1,1.1-1.2,1.9h-4.9c0.1-2,1-3.6,2.5-4.9c1.6-1.2,3.7-1.9,6.4-1.9
		c2.8,0,5,0.7,6.6,2c1.6,1.3,2.3,3.2,2.3,5.6V587h-4.9v-4.2c-0.2,1.4-0.9,2.6-2,3.4C377.3,587,375.7,587.4,373.9,587.4z
		 M375.5,583.3c1.5,0,2.7-0.4,3.5-1.1c0.9-0.7,1.3-1.7,1.3-2.9v-2.6h-5.2c-1.1,0-2,0.3-2.6,0.9c-0.6,0.6-1,1.4-1,2.4
		c0,1,0.3,1.8,1,2.4C373.2,583,374.2,583.3,375.5,583.3z"/>
	<path class="st11" d="M402.9,587c-2.1,0-3.7-0.6-5-1.8c-1.2-1.2-1.8-2.8-1.8-4.9v-11h-6.2v-4.6h6.2v-6.3h5.1v6.3h8.9v4.6h-8.9v10.9
		c0,0.6,0.2,1.2,0.5,1.6c0.4,0.4,0.9,0.6,1.5,0.6h6.6v4.6H402.9z"/>
	<path class="st11" d="M425,587.4c-1.9,0-3.5-0.4-4.9-1.1c-1.4-0.7-2.5-1.8-3.3-3.1c-0.8-1.3-1.2-2.9-1.2-4.7v-5.3
		c0-1.8,0.4-3.4,1.2-4.7s1.9-2.4,3.3-3.1c1.4-0.7,3.1-1.1,4.9-1.1c1.9,0,3.5,0.4,4.9,1.1c1.4,0.7,2.5,1.7,3.2,3.1s1.2,2.8,1.2,4.6v4
		h-13.8v1.5c0,1.5,0.4,2.7,1.2,3.4c0.8,0.8,1.9,1.2,3.3,1.2c1.1,0,2-0.2,2.7-0.5c0.7-0.4,1.2-0.9,1.3-1.6h5c-0.4,1.9-1.4,3.4-3,4.6
		C429.4,586.8,427.4,587.4,425,587.4z M420.5,573.1v0.8l8.9,0V573c0-1.5-0.4-2.7-1.1-3.6c-0.8-0.8-1.9-1.3-3.3-1.3
		c-1.5,0-2.6,0.4-3.4,1.3C420.9,570.3,420.5,571.5,420.5,573.1z"/>
	<path class="st11" d="M448.3,587.4c-2.6,0-4.7-0.6-6.3-1.8s-2.3-2.8-2.3-4.9h5c0,0.9,0.3,1.5,1,2c0.6,0.5,1.5,0.7,2.7,0.7h1.8
		c1.2,0,2.2-0.2,2.8-0.7c0.7-0.5,1-1.1,1-2c0-0.8-0.2-1.4-0.7-1.8c-0.5-0.4-1.2-0.7-2.1-0.8l-5.5-0.7c-1.8-0.2-3.2-0.9-4.1-2.1
		c-1-1.1-1.4-2.6-1.4-4.4c0-2.1,0.7-3.7,2.1-4.8c1.4-1.1,3.4-1.7,6.1-1.7h1.9c2.5,0,4.5,0.6,6,1.7c1.5,1.1,2.3,2.6,2.3,4.5h-5
		c0-0.7-0.3-1.3-0.9-1.7c-0.6-0.4-1.4-0.6-2.4-0.6h-1.9c-1.1,0-1.9,0.2-2.5,0.7s-0.9,1-0.9,1.8c0,0.7,0.2,1.2,0.6,1.5
		c0.4,0.3,1,0.5,1.8,0.6l5.2,0.7c2.1,0.2,3.6,1,4.6,2.2c1,1.2,1.6,2.8,1.6,4.8c0,2.2-0.7,3.8-2.2,5c-1.5,1.2-3.6,1.8-6.5,1.8H448.3z
		"/>
</g>
<g class="st1">
	<path class="st12" d="M77.7,443v-26.3h7.8c1.8,0,3.3,0.3,4.6,1c1.3,0.7,2.3,1.6,3,2.9c0.7,1.2,1.1,2.7,1.1,4.3v9.8
		c0,1.7-0.4,3.1-1.1,4.3c-0.7,1.2-1.7,2.2-3,2.9c-1.3,0.7-2.9,1-4.6,1H77.7z M82.2,439h3.3c1.3,0,2.3-0.4,3.1-1.1s1.2-1.8,1.2-3.1
		v-9.8c0-1.3-0.4-2.3-1.2-3s-1.8-1.1-3.1-1.1h-3.3V439z"/>
	<path class="st12" d="M107.4,443.4c-1.7,0-3.1-0.3-4.4-1c-1.2-0.6-2.2-1.6-2.9-2.8c-0.7-1.2-1-2.6-1-4.2v-4.7c0-1.6,0.3-3,1-4.2
		c0.7-1.2,1.6-2.1,2.9-2.8c1.2-0.6,2.7-1,4.4-1c1.7,0,3.1,0.3,4.3,1c1.2,0.6,2.2,1.6,2.9,2.7c0.7,1.2,1,2.5,1,4.1v3.6h-12.2v1.4
		c0,1.3,0.3,2.4,1,3c0.7,0.7,1.7,1,3,1c0.9,0,1.7-0.2,2.4-0.5c0.7-0.3,1-0.8,1.2-1.4h4.5c-0.3,1.7-1.2,3.1-2.7,4.1
		C111.3,442.9,109.5,443.4,107.4,443.4z M103.4,430.6v0.7l7.9,0v-0.7c0-1.4-0.3-2.4-1-3.2c-0.7-0.7-1.6-1.1-2.9-1.1
		c-1.3,0-2.3,0.4-3,1.1C103.8,428.2,103.4,429.2,103.4,430.6z"/>
	<path class="st12" d="M121,443v-19.8h4.4v3.7c0.2-1.2,0.8-2.2,1.8-3c0.9-0.7,2.1-1.1,3.6-1.1c1.9,0,3.5,0.6,4.7,1.9s1.7,3,1.7,5.2
		v13h-4.5v-12.5c0-1.2-0.3-2.2-1-2.8c-0.6-0.7-1.5-1-2.6-1c-1.1,0-2,0.3-2.6,1c-0.6,0.7-1,1.6-1,2.9V443H121z"/>
	<path class="st12" d="M141.5,443v-19.8h3.7v2.9h0.1c0.1-1,0.4-1.7,1-2.3s1.4-0.9,2.3-0.9c0.9,0,1.6,0.3,2.3,0.8
		c0.6,0.6,1,1.3,1.3,2.3c0.1-1,0.4-1.7,1.1-2.3c0.6-0.6,1.4-0.8,2.3-0.8c1.2,0,2.2,0.5,3,1.4c0.8,0.9,1.2,2.2,1.2,3.7V443h-4v-14.8
		c0-0.6-0.2-1.2-0.5-1.5c-0.3-0.4-0.7-0.6-1.3-0.6c-1.1,0-1.6,0.7-1.6,2.1V443h-3.6v-14.8c0-0.6-0.1-1.2-0.4-1.5
		c-0.3-0.4-0.7-0.6-1.2-0.6c-1.2,0-1.7,0.7-1.7,2.1V443H141.5z"/>
	<path class="st12" d="M170,443.4c-2,0-3.6-0.6-4.8-1.7c-1.2-1.1-1.7-2.6-1.7-4.5c0-1.9,0.7-3.5,2-4.6s3.1-1.7,5.4-1.7h4.8v-1.4
		c0-2-1.2-3-3.5-3c-1.1,0-1.9,0.2-2.5,0.6c-0.6,0.4-1,1-1,1.7h-4.3c0.1-1.8,0.8-3.2,2.2-4.3c1.4-1.1,3.3-1.7,5.7-1.7
		c2.5,0,4.5,0.6,5.9,1.8c1.4,1.2,2.1,2.8,2.1,5V443h-4.4v-3.7c-0.2,1.3-0.8,2.3-1.8,3C173,443,171.7,443.4,170,443.4z M171.4,439.7
		c1.3,0,2.4-0.3,3.1-1c0.8-0.6,1.2-1.5,1.2-2.6v-2.3h-4.6c-1,0-1.8,0.3-2.3,0.8c-0.6,0.6-0.9,1.3-0.9,2.1c0,0.9,0.3,1.6,0.9,2.1
		C169.4,439.4,170.3,439.7,171.4,439.7z"/>
	<path class="st12" d="M186.5,443v-19.8h4.4v3.9c0.2-1.3,0.8-2.3,1.8-3.1c0.9-0.8,2.2-1.1,3.7-1.1c2,0,3.6,0.6,4.7,1.9
		s1.7,3.1,1.7,5.4v1.9h-4.5v-1.7c0-1.2-0.3-2.1-0.9-2.8c-0.6-0.6-1.5-1-2.7-1c-1.2,0-2.1,0.4-2.7,1.1c-0.6,0.7-0.9,1.7-0.9,3.1V443
		H186.5z"/>
	<path class="st12" d="M207.6,443v-26.3h4.5V431h3.2l4.7-7.8h5l-5.9,9.6l6.1,10.2H220l-4.8-8.2h-3.2v8.2H207.6z"/>
</g>
<g class="st1">
	<path class="st4" d="M911.7,296.5l-3.7-6.1c-0.1,0-0.1,0-0.2,0c-1.7,0-3.1-0.3-4.4-1c-1.2-0.6-2.2-1.6-2.9-2.7
		c-0.7-1.2-1-2.6-1-4.1v-11.3c0-1.6,0.3-3,1-4.1c0.7-1.2,1.7-2.1,2.9-2.7c1.3-0.6,2.7-1,4.4-1c1.7,0,3.1,0.3,4.4,1s2.2,1.6,2.9,2.7
		c0.7,1.2,1,2.6,1,4.1v11.3c0,1.6-0.3,3-1,4.2c-0.7,1.2-1.7,2.1-2.9,2.7l4.4,7.1H911.7z M907.8,286.4c1.2,0,2.2-0.3,2.9-1
		s1-1.6,1-2.9v-11.3c0-1.2-0.3-2.2-1-2.9s-1.6-1-2.8-1s-2.1,0.3-2.8,1c-0.7,0.7-1,1.7-1,2.9v11.3c0,1.2,0.3,2.2,1,2.9
		S906.6,286.4,907.8,286.4z"/>
	<path class="st4" d="M927.2,290.4c-2,0-3.6-0.6-4.8-1.7s-1.7-2.6-1.7-4.5c0-1.9,0.7-3.5,2-4.6c1.3-1.1,3.1-1.7,5.4-1.7h4.8v-1.4
		c0-2-1.2-3-3.5-3c-1.1,0-1.9,0.2-2.5,0.6c-0.6,0.4-1,1-1,1.7h-4.3c0.1-1.8,0.8-3.2,2.2-4.3c1.4-1.1,3.3-1.7,5.7-1.7
		c2.5,0,4.5,0.6,5.9,1.8c1.4,1.2,2.1,2.8,2.1,5V290H933v-3.7c-0.2,1.3-0.8,2.3-1.8,3C930.2,290,928.9,290.4,927.2,290.4z
		 M928.6,286.7c1.3,0,2.4-0.3,3.1-1c0.8-0.6,1.2-1.5,1.2-2.6v-2.3h-4.6c-1,0-1.8,0.3-2.3,0.8c-0.6,0.6-0.9,1.3-0.9,2.1
		c0,0.9,0.3,1.6,0.9,2.1C926.6,286.4,927.5,286.7,928.6,286.7z"/>
	<path class="st4" d="M953,290c-1.8,0-3.3-0.5-4.4-1.6c-1.1-1.1-1.6-2.5-1.6-4.3v-9.8h-5.5v-4.1h5.5v-5.6h4.5v5.6h7.9v4.1h-7.9v9.7
		c0,0.6,0.2,1,0.5,1.4s0.8,0.6,1.3,0.6h5.9v4.1H953z"/>
	<path class="st4" d="M970.4,290.4c-2,0-3.6-0.6-4.8-1.7s-1.7-2.6-1.7-4.5c0-1.9,0.7-3.5,2-4.6c1.3-1.1,3.1-1.7,5.4-1.7h4.8v-1.4
		c0-2-1.2-3-3.5-3c-1.1,0-1.9,0.2-2.5,0.6c-0.6,0.4-1,1-1,1.7h-4.3c0.1-1.8,0.8-3.2,2.2-4.3c1.4-1.1,3.3-1.7,5.7-1.7
		c2.5,0,4.5,0.6,5.9,1.8c1.4,1.2,2.1,2.8,2.1,5V290h-4.4v-3.7c-0.2,1.3-0.8,2.3-1.8,3C973.4,290,972.1,290.4,970.4,290.4z
		 M971.8,286.7c1.3,0,2.4-0.3,3.1-1c0.8-0.6,1.2-1.5,1.2-2.6v-2.3h-4.6c-1,0-1.8,0.3-2.3,0.8c-0.6,0.6-0.9,1.3-0.9,2.1
		c0,0.9,0.3,1.6,0.9,2.1C969.8,286.4,970.7,286.7,971.8,286.7z"/>
	<path class="st4" d="M986.9,290v-19.8h4.4v3.9c0.2-1.3,0.8-2.3,1.8-3.1c0.9-0.8,2.2-1.1,3.7-1.1c2,0,3.6,0.6,4.7,1.9
		c1.1,1.3,1.7,3.1,1.7,5.4v1.9h-4.5v-1.7c0-1.2-0.3-2.1-0.9-2.8c-0.6-0.6-1.5-1-2.7-1c-1.2,0-2.1,0.4-2.7,1.1
		c-0.6,0.7-0.9,1.7-0.9,3.1V290H986.9z"/>
</g>
<g class="st1">
	<path class="st13" d="M915,580.8c-2.1,0-3.8-0.6-5-1.8c-1.2-1.2-1.8-2.8-1.8-4.8v-15.7h3.8v15.6c0,1,0.3,1.8,0.8,2.4
		c0.5,0.6,1.3,0.9,2.3,0.9c1,0,1.7-0.3,2.3-0.9c0.5-0.6,0.8-1.4,0.8-2.4v-15.6h3.8v15.7c0,2-0.6,3.6-1.8,4.8S917.2,580.8,915,580.8z
		"/>
	<path class="st13" d="M926.5,580.5v-21.9h3.8v11.9h2.6l3.9-6.5h4.2l-4.9,8l5.1,8.5h-4.3l-4-6.8h-2.6v6.8H926.5z"/>
	<path class="st13" d="M944.9,580.5V564h3.7v3.2c0.2-1.1,0.7-1.9,1.5-2.6c0.8-0.6,1.8-0.9,3.1-0.9c1.7,0,3,0.5,3.9,1.6
		s1.4,2.6,1.4,4.5v1.6h-3.8V570c0-1-0.3-1.8-0.8-2.3s-1.3-0.8-2.2-0.8c-1,0-1.8,0.3-2.3,0.9c-0.5,0.6-0.8,1.5-0.8,2.5v10.1H944.9z"
		/>
	<path class="st13" d="M967.2,580.8c-1.7,0-3-0.5-4-1.4c-1-0.9-1.5-2.2-1.5-3.7c0-1.6,0.5-2.9,1.6-3.8s2.6-1.4,4.5-1.4h4v-1.2
		c0-1.7-1-2.5-2.9-2.5c-0.9,0-1.6,0.2-2.1,0.5c-0.5,0.3-0.8,0.8-0.9,1.4h-3.6c0.1-1.5,0.7-2.7,1.9-3.6s2.7-1.4,4.7-1.4
		c2.1,0,3.7,0.5,4.9,1.5c1.2,1,1.7,2.4,1.7,4.1v11.2H972v-3.1c-0.1,1.1-0.6,1.9-1.5,2.5C969.7,580.5,968.5,580.8,967.2,580.8z
		 M968.4,577.7c1.1,0,2-0.3,2.6-0.8c0.6-0.5,1-1.3,1-2.2v-1.9h-3.8c-0.8,0-1.5,0.2-2,0.7c-0.5,0.5-0.7,1-0.7,1.8
		c0,0.7,0.3,1.3,0.8,1.8C966.7,577.5,967.4,577.7,968.4,577.7z"/>
	<path class="st13" d="M980.3,580.5v-3.4h5.6v-9.7h-5V564h8.8v13.1h5.1v3.4H980.3z M987.5,561.2c-0.8,0-1.4-0.2-1.8-0.6
		c-0.4-0.4-0.7-0.9-0.7-1.6s0.2-1.2,0.7-1.6c0.4-0.4,1-0.6,1.8-0.6s1.4,0.2,1.8,0.6s0.7,0.9,0.7,1.6s-0.2,1.2-0.7,1.6
		C988.9,561,988.3,561.2,987.5,561.2z"/>
	<path class="st13" d="M998.3,580.5V564h3.7v3.1c0.2-1,0.7-1.9,1.5-2.5s1.8-0.9,3-0.9c1.6,0,2.9,0.5,3.9,1.6c1,1.1,1.5,2.5,1.5,4.3
		v10.8h-3.8v-10.4c0-1-0.3-1.8-0.8-2.4c-0.5-0.5-1.2-0.8-2.1-0.8c-0.9,0-1.7,0.3-2.2,0.8c-0.5,0.6-0.8,1.4-0.8,2.4v10.3H998.3z"/>
	<path class="st13" d="M1023,580.8c-1.4,0-2.6-0.3-3.7-0.8c-1-0.5-1.8-1.3-2.4-2.3c-0.6-1-0.9-2.2-0.9-3.5v-3.9
		c0-1.3,0.3-2.5,0.9-3.5c0.6-1,1.4-1.8,2.4-2.3c1-0.5,2.3-0.8,3.7-0.8c1.4,0,2.6,0.3,3.6,0.8s1.8,1.3,2.4,2.3c0.6,1,0.9,2.1,0.9,3.4
		v3h-10.2v1.1c0,1.1,0.3,2,0.9,2.5c0.6,0.6,1.4,0.9,2.5,0.9c0.8,0,1.4-0.1,2-0.4c0.5-0.3,0.9-0.7,1-1.2h3.7c-0.3,1.4-1,2.6-2.2,3.4
		C1026.3,580.4,1024.8,580.8,1023,580.8z M1019.7,570.2v0.6l6.6,0v-0.6c0-1.1-0.3-2-0.8-2.6c-0.6-0.6-1.4-0.9-2.4-0.9
		c-1.1,0-1.9,0.3-2.5,0.9C1020,568.2,1019.7,569,1019.7,570.2z"/>
</g>
<g class="st1">
	<path class="st14" d="M276,165.3c-2.1,0-3.8-0.6-5-1.8c-1.2-1.2-1.8-2.8-1.8-4.8v-15.7h3.8v15.6c0,1,0.3,1.8,0.8,2.4
		c0.5,0.6,1.3,0.9,2.3,0.9c1,0,1.7-0.3,2.3-0.9c0.5-0.6,0.8-1.4,0.8-2.4v-15.6h3.8v15.7c0,2-0.6,3.6-1.8,4.8S278.2,165.3,276,165.3z
		"/>
	<path class="st14" d="M287.3,165v-16.5h3.7v3.1c0.2-1,0.7-1.9,1.5-2.5c0.8-0.6,1.8-0.9,3-0.9c1.6,0,2.9,0.5,3.9,1.6
		c1,1.1,1.5,2.5,1.5,4.3V165H297v-10.4c0-1-0.3-1.8-0.8-2.4c-0.5-0.5-1.2-0.8-2.1-0.8c-0.9,0-1.7,0.3-2.2,0.8
		c-0.5,0.6-0.8,1.4-0.8,2.4V165H287.3z"/>
	<path class="st14" d="M305.3,165v-3.4h5.6v-9.7h-5v-3.4h8.8v13.1h5.1v3.4H305.3z M312.5,145.7c-0.8,0-1.4-0.2-1.8-0.6
		c-0.4-0.4-0.7-0.9-0.7-1.6s0.2-1.2,0.7-1.6c0.4-0.4,1-0.6,1.8-0.6c0.8,0,1.4,0.2,1.8,0.6s0.7,0.9,0.7,1.6s-0.2,1.2-0.7,1.6
		C313.9,145.5,313.3,145.7,312.5,145.7z"/>
	<path class="st14" d="M331.6,165c-1.5,0-2.8-0.4-3.7-1.3c-0.9-0.9-1.4-2.1-1.4-3.6v-8.2H322v-3.4h4.6v-4.7h3.8v4.7h6.6v3.4h-6.6
		v8.1c0,0.5,0.1,0.9,0.4,1.2c0.3,0.3,0.6,0.5,1.1,0.5h4.9v3.4H331.6z"/>
	<path class="st14" d="M348,165.3c-1.4,0-2.6-0.3-3.7-0.8c-1-0.5-1.8-1.3-2.4-2.3c-0.6-1-0.9-2.2-0.9-3.5v-3.9
		c0-1.3,0.3-2.5,0.9-3.5c0.6-1,1.4-1.8,2.4-2.3c1-0.5,2.3-0.8,3.7-0.8c1.4,0,2.6,0.3,3.6,0.8c1,0.5,1.8,1.3,2.4,2.3
		c0.6,1,0.9,2.1,0.9,3.4v3h-10.2v1.1c0,1.1,0.3,2,0.9,2.5c0.6,0.6,1.4,0.9,2.5,0.9c0.8,0,1.4-0.1,2-0.4c0.5-0.3,0.9-0.7,1-1.2h3.7
		c-0.3,1.4-1,2.6-2.2,3.4C351.3,164.9,349.8,165.3,348,165.3z M344.7,154.7v0.6l6.6,0v-0.6c0-1.1-0.3-2-0.8-2.6
		c-0.6-0.6-1.4-0.9-2.4-0.9c-1.1,0-1.9,0.3-2.5,0.9C345,152.7,344.7,153.5,344.7,154.7z"/>
	<path class="st14" d="M364.5,165.3c-1.6,0-2.9-0.6-3.9-1.7c-1-1.1-1.5-2.7-1.5-4.6v-4.5c0-1.9,0.5-3.5,1.5-4.6
		c1-1.1,2.3-1.7,3.9-1.7c1.1,0,2.1,0.3,2.9,0.9c0.8,0.6,1.3,1.4,1.7,2.4l-0.1-3.8v-4.6h3.8V165H369v-3c-0.3,1-0.8,1.9-1.6,2.4
		C366.6,165,365.7,165.3,364.5,165.3z M365.9,162.1c1,0,1.7-0.3,2.2-0.9c0.5-0.6,0.8-1.4,0.8-2.5v-4c0-1.1-0.3-1.9-0.8-2.5
		c-0.5-0.6-1.3-0.9-2.2-0.9s-1.7,0.3-2.2,0.8c-0.5,0.5-0.8,1.3-0.8,2.4v4.3c0,1.1,0.3,1.9,0.8,2.4S364.9,162.1,365.9,162.1z"/>
	<path class="st14" d="M376.8,169.1v-3.4h14.4v3.4H376.8z"/>
	<path class="st14" d="M394,165l5.5-21.9h4.8l5.6,21.9h-3.8l-1.2-5.3h-5.8l-1.2,5.3H394z M399.8,156.6h4.4l-1.3-5.9
		c-0.2-1-0.4-1.9-0.6-2.7c-0.2-0.8-0.3-1.4-0.3-1.7c-0.1,0.4-0.2,0.9-0.3,1.7c-0.2,0.8-0.4,1.7-0.6,2.6L399.8,156.6z"/>
	<path class="st14" d="M413.9,165v-16.5h3.7v3.2c0.2-1.1,0.7-1.9,1.5-2.6c0.8-0.6,1.8-0.9,3.1-0.9c1.7,0,3,0.5,3.9,1.6
		c0.9,1.1,1.4,2.6,1.4,4.5v1.6h-3.8v-1.4c0-1-0.3-1.8-0.8-2.3s-1.3-0.8-2.2-0.8c-1,0-1.8,0.3-2.3,0.9c-0.5,0.6-0.8,1.5-0.8,2.5V165
		H413.9z"/>
	<path class="st14" d="M436.2,165.3c-1.7,0-3-0.5-4-1.4c-1-0.9-1.5-2.2-1.5-3.7c0-1.6,0.5-2.9,1.6-3.8c1.1-1,2.6-1.4,4.5-1.4h4v-1.2
		c0-1.7-1-2.5-2.9-2.5c-0.9,0-1.6,0.2-2.1,0.5c-0.5,0.3-0.8,0.8-0.9,1.4h-3.6c0.1-1.5,0.7-2.7,1.9-3.6s2.7-1.4,4.7-1.4
		c2.1,0,3.7,0.5,4.9,1.5c1.2,1,1.7,2.4,1.7,4.1V165H441v-3.1c-0.1,1.1-0.6,1.9-1.5,2.5C438.7,165,437.5,165.3,436.2,165.3z
		 M437.4,162.2c1.1,0,2-0.3,2.6-0.8c0.6-0.5,1-1.3,1-2.2v-1.9h-3.8c-0.8,0-1.5,0.2-2,0.7c-0.5,0.5-0.7,1-0.7,1.8
		c0,0.7,0.3,1.3,0.8,1.8C435.7,162,436.4,162.2,437.4,162.2z"/>
	<path class="st14" d="M457.5,165.3c-1.2,0-2.1-0.3-2.9-0.9c-0.8-0.6-1.3-1.4-1.6-2.4v3h-3.7v-21.9h3.8v4.6l-0.1,3.8
		c0.3-1,0.9-1.8,1.7-2.4c0.8-0.6,1.8-0.9,2.9-0.9c1.6,0,2.9,0.6,3.9,1.7c1,1.1,1.5,2.7,1.5,4.6v4.5c0,1.9-0.5,3.5-1.5,4.6
		C460.4,164.7,459.1,165.3,457.5,165.3z M456.1,162.1c1,0,1.7-0.3,2.2-0.8c0.5-0.5,0.8-1.3,0.8-2.4v-4.3c0-1.1-0.3-1.9-0.8-2.4
		c-0.5-0.5-1.3-0.8-2.2-0.8s-1.7,0.3-2.2,0.9c-0.5,0.6-0.8,1.4-0.8,2.5v4c0,1.1,0.3,1.9,0.8,2.5
		C454.4,161.8,455.1,162.1,456.1,162.1z"/>
	<path class="st14" d="M466.8,169.1v-3.4h14.4v3.4H466.8z"/>
	<path class="st14" d="M485.6,165v-21.9h13.1v3.3h-9.4v5.7h8.4v3.2h-8.4v6.4h9.4v3.3H485.6z"/>
	<path class="st14" d="M502.4,165v-16.5h3.1v2.4h0.1c0.1-0.8,0.3-1.5,0.8-2c0.5-0.5,1.1-0.8,1.9-0.8c0.7,0,1.4,0.2,1.9,0.7
		c0.5,0.5,0.9,1.1,1,1.9c0.1-0.8,0.4-1.4,0.9-1.9c0.5-0.5,1.2-0.7,1.9-0.7c1,0,1.8,0.4,2.5,1.2c0.7,0.8,1,1.8,1,3V165h-3.3v-12.3
		c0-0.5-0.1-1-0.4-1.3c-0.3-0.3-0.6-0.5-1.1-0.5c-0.9,0-1.4,0.6-1.4,1.7V165h-3v-12.3c0-0.5-0.1-1-0.3-1.3c-0.2-0.3-0.6-0.5-1-0.5
		c-1,0-1.4,0.6-1.4,1.7V165H502.4z"/>
	<path class="st14" d="M521.3,165v-3.4h5.6v-9.7h-5v-3.4h8.8v13.1h5.1v3.4H521.3z M528.5,145.7c-0.8,0-1.4-0.2-1.8-0.6
		c-0.4-0.4-0.7-0.9-0.7-1.6s0.2-1.2,0.7-1.6c0.4-0.4,1-0.6,1.8-0.6c0.8,0,1.4,0.2,1.8,0.6s0.7,0.9,0.7,1.6s-0.2,1.2-0.7,1.6
		C529.9,145.5,529.3,145.7,528.5,145.7z"/>
	<path class="st14" d="M539.9,165v-16.5h3.7v3.2c0.2-1.1,0.7-1.9,1.5-2.6c0.8-0.6,1.8-0.9,3.1-0.9c1.7,0,3,0.5,3.9,1.6
		c0.9,1.1,1.4,2.6,1.4,4.5v1.6h-3.8v-1.4c0-1-0.3-1.8-0.8-2.3s-1.3-0.8-2.2-0.8c-1,0-1.8,0.3-2.3,0.9c-0.5,0.6-0.8,1.5-0.8,2.5V165
		H539.9z"/>
	<path class="st14" d="M562.2,165.3c-1.7,0-3-0.5-4-1.4c-1-0.9-1.5-2.2-1.5-3.7c0-1.6,0.5-2.9,1.6-3.8c1.1-1,2.6-1.4,4.5-1.4h4v-1.2
		c0-1.7-1-2.5-2.9-2.5c-0.9,0-1.6,0.2-2.1,0.5c-0.5,0.3-0.8,0.8-0.9,1.4h-3.6c0.1-1.5,0.7-2.7,1.9-3.6s2.7-1.4,4.7-1.4
		c2.1,0,3.7,0.5,4.9,1.5c1.2,1,1.7,2.4,1.7,4.1V165H567v-3.1c-0.1,1.1-0.6,1.9-1.5,2.5C564.7,165,563.5,165.3,562.2,165.3z
		 M563.4,162.2c1.1,0,2-0.3,2.6-0.8c0.6-0.5,1-1.3,1-2.2v-1.9h-3.8c-0.8,0-1.5,0.2-2,0.7c-0.5,0.5-0.7,1-0.7,1.8
		c0,0.7,0.3,1.3,0.8,1.8C561.7,162,562.4,162.2,563.4,162.2z"/>
	<path class="st14" d="M583.6,165c-1.5,0-2.8-0.4-3.7-1.3c-0.9-0.9-1.4-2.1-1.4-3.6v-8.2H574v-3.4h4.6v-4.7h3.8v4.7h6.6v3.4h-6.6
		v8.1c0,0.5,0.1,0.9,0.4,1.2c0.3,0.3,0.6,0.5,1.1,0.5h4.9v3.4H583.6z"/>
	<path class="st14" d="M600,165.3c-1.4,0-2.6-0.3-3.7-0.8c-1-0.5-1.8-1.3-2.4-2.3c-0.6-1-0.9-2.2-0.9-3.5v-3.9
		c0-1.3,0.3-2.5,0.9-3.5c0.6-1,1.4-1.8,2.4-2.3c1-0.5,2.3-0.8,3.7-0.8c1.4,0,2.6,0.3,3.6,0.8c1,0.5,1.8,1.3,2.4,2.3
		c0.6,1,0.9,2.1,0.9,3.4v3h-10.2v1.1c0,1.1,0.3,2,0.9,2.5c0.6,0.6,1.4,0.9,2.5,0.9c0.8,0,1.4-0.1,2-0.4c0.6-0.3,0.9-0.7,1-1.2h3.7
		c-0.3,1.4-1,2.6-2.2,3.4C603.3,164.9,601.8,165.3,600,165.3z M596.7,154.7v0.6l6.6,0v-0.6c0-1.1-0.3-2-0.8-2.6
		c-0.6-0.6-1.4-0.9-2.4-0.9c-1.1,0-1.9,0.3-2.5,0.9C597,152.7,596.7,153.5,596.7,154.7z"/>
	<path class="st14" d="M617.3,165.3c-2,0-3.5-0.4-4.7-1.3c-1.1-0.9-1.7-2.1-1.7-3.6h3.7c0,0.6,0.2,1.1,0.7,1.5
		c0.5,0.3,1.1,0.5,2,0.5h1.3c0.9,0,1.6-0.2,2.1-0.5s0.7-0.8,0.7-1.5c0-0.6-0.2-1-0.5-1.3c-0.3-0.3-0.9-0.5-1.6-0.6l-4.1-0.5
		c-1.3-0.2-2.3-0.7-3-1.5s-1.1-1.9-1.1-3.3c0-1.6,0.5-2.8,1.6-3.6c1-0.8,2.5-1.2,4.5-1.2h1.4c1.8,0,3.3,0.4,4.4,1.3
		c1.1,0.8,1.7,2,1.7,3.4h-3.7c0-0.5-0.2-0.9-0.7-1.2c-0.4-0.3-1-0.5-1.8-0.5h-1.4c-0.8,0-1.4,0.2-1.8,0.5s-0.6,0.8-0.6,1.3
		c0,0.5,0.2,0.9,0.5,1.1c0.3,0.2,0.8,0.4,1.4,0.5l3.9,0.5c1.5,0.2,2.7,0.7,3.4,1.6c0.8,0.9,1.2,2.1,1.2,3.6c0,1.6-0.5,2.8-1.6,3.7
		c-1.1,0.9-2.7,1.3-4.8,1.3H617.3z"/>
</g>
<g class="st1">
	<path class="st15" d="M490.6,30.3c-1.5,0-2.8-0.3-3.9-0.8c-1.1-0.5-2-1.3-2.6-2.2c-0.6-1-0.9-2.1-0.9-3.5h3.7c0,1,0.3,1.8,1,2.3
		s1.6,0.9,2.7,0.9c1.1,0,1.9-0.3,2.6-0.9c0.6-0.6,0.9-1.3,0.9-2.3c0-0.7-0.2-1.4-0.6-1.9c-0.4-0.5-1-0.9-1.8-1.1l-2.9-0.8
		c-1.6-0.4-2.8-1.1-3.8-2.2c-0.9-1.1-1.4-2.4-1.4-3.9c0-1.9,0.6-3.3,1.8-4.5c1.2-1.1,2.8-1.7,4.9-1.7c1.4,0,2.6,0.3,3.6,0.8
		c1,0.5,1.8,1.2,2.4,2.1c0.6,0.9,0.8,2,0.8,3.2h-3.7c0-0.8-0.3-1.5-0.9-2c-0.6-0.5-1.4-0.8-2.3-0.8c-0.9,0-1.7,0.3-2.2,0.8
		c-0.6,0.5-0.8,1.2-0.8,2c0,0.7,0.2,1.2,0.6,1.7c0.4,0.4,0.9,0.8,1.6,1l3,0.8c1.6,0.4,2.9,1.2,3.8,2.4s1.4,2.6,1.4,4.3
		c0,1.3-0.3,2.4-0.9,3.4c-0.6,1-1.4,1.7-2.5,2.2C493.3,30,492,30.3,490.6,30.3z"/>
	<path class="st15" d="M506.7,30.3c-1.7,0-3-0.5-4-1.4c-1-0.9-1.5-2.2-1.5-3.7c0-1.6,0.5-2.9,1.6-3.8c1.1-1,2.6-1.4,4.5-1.4h4v-1.2
		c0-1.7-1-2.5-2.9-2.5c-0.9,0-1.6,0.2-2.1,0.5c-0.5,0.3-0.8,0.8-0.9,1.4H502c0.1-1.5,0.7-2.7,1.9-3.6s2.7-1.4,4.7-1.4
		c2.1,0,3.7,0.5,4.9,1.5c1.2,1,1.7,2.4,1.7,4.1V30h-3.7v-3.1c-0.1,1.1-0.6,1.9-1.5,2.5C509.2,30,508,30.3,506.7,30.3z M507.9,27.2
		c1.1,0,2-0.3,2.6-0.8c0.6-0.5,1-1.3,1-2.2v-1.9h-3.8c-0.8,0-1.5,0.2-2,0.7c-0.5,0.5-0.7,1-0.7,1.8c0,0.7,0.3,1.3,0.8,1.8
		C506.2,27,506.9,27.2,507.9,27.2z"/>
	<path class="st15" d="M519.8,30V13.5h3.7v3.1c0.2-1,0.7-1.9,1.5-2.5c0.8-0.6,1.8-0.9,3-0.9c1.6,0,2.9,0.5,3.9,1.6
		c1,1.1,1.5,2.5,1.5,4.3V30h-3.8V19.6c0-1-0.3-1.8-0.8-2.4c-0.5-0.5-1.2-0.8-2.1-0.8c-0.9,0-1.7,0.3-2.2,0.8
		c-0.5,0.6-0.8,1.4-0.8,2.4V30H519.8z"/>
	<path class="st15" d="M537.3,34.1v-3.4h14.4v3.4H537.3z"/>
	<path class="st15" d="M555.1,30V8.1h4.9l2.5,9.4l2.5-9.4h4.9V30h-3.5v-9.2c0-1.3,0-2.6,0.1-3.9c0.1-1.3,0.2-2.7,0.3-3.9
		c0.1-1.3,0.2-2.4,0.3-3.5l-3.1,11h-3.1l-3-10.7c0.2,1.4,0.3,3,0.5,4.9c0.2,1.9,0.2,3.9,0.2,6.1V30H555.1z"/>
	<path class="st15" d="M578.7,30.3c-1.7,0-3-0.5-4-1.4c-1-0.9-1.5-2.2-1.5-3.7c0-1.6,0.5-2.9,1.6-3.8c1.1-1,2.6-1.4,4.5-1.4h4v-1.2
		c0-1.7-1-2.5-2.9-2.5c-0.9,0-1.6,0.2-2.1,0.5c-0.5,0.3-0.8,0.8-0.9,1.4H574c0.1-1.5,0.7-2.7,1.9-3.6s2.7-1.4,4.7-1.4
		c2.1,0,3.7,0.5,4.9,1.5c1.2,1,1.7,2.4,1.7,4.1V30h-3.7v-3.1c-0.1,1.1-0.6,1.9-1.5,2.5C581.2,30,580,30.3,578.7,30.3z M579.9,27.2
		c1.1,0,2-0.3,2.6-0.8c0.6-0.5,1-1.3,1-2.2v-1.9h-3.8c-0.8,0-1.5,0.2-2,0.7c-0.5,0.5-0.7,1-0.7,1.8c0,0.7,0.3,1.3,0.8,1.8
		C578.2,27,578.9,27.2,579.9,27.2z"/>
	<path class="st15" d="M592.4,30V13.5h3.7v3.2c0.2-1.1,0.7-1.9,1.5-2.6c0.8-0.6,1.8-0.9,3.1-0.9c1.7,0,3,0.5,3.9,1.6
		c0.9,1.1,1.4,2.6,1.4,4.5v1.6h-3.8v-1.4c0-1-0.3-1.8-0.8-2.3c-0.5-0.5-1.3-0.8-2.2-0.8c-1,0-1.8,0.3-2.3,0.9
		c-0.5,0.6-0.8,1.5-0.8,2.5V30H592.4z"/>
	<path class="st15" d="M609.8,30v-3.4h5.6v-9.7h-5v-3.4h8.8v13.1h5.1V30H609.8z M617,10.7c-0.8,0-1.4-0.2-1.8-0.6
		c-0.4-0.4-0.7-0.9-0.7-1.6s0.2-1.2,0.7-1.6c0.4-0.4,1-0.6,1.8-0.6c0.8,0,1.4,0.2,1.8,0.6s0.7,0.9,0.7,1.6s-0.2,1.2-0.7,1.6
		C618.4,10.5,617.8,10.7,617,10.7z"/>
	<path class="st15" d="M627.8,30V13.5h3.7v3.1c0.2-1,0.7-1.9,1.5-2.5c0.8-0.6,1.8-0.9,3-0.9c1.6,0,2.9,0.5,3.9,1.6
		c1,1.1,1.5,2.5,1.5,4.3V30h-3.8V19.6c0-1-0.3-1.8-0.8-2.4c-0.5-0.5-1.2-0.8-2.1-0.8c-0.9,0-1.7,0.3-2.2,0.8
		c-0.5,0.6-0.8,1.4-0.8,2.4V30H627.8z"/>
	<path class="st15" d="M652.5,30.3c-2.1,0-3.8-0.6-5-1.8c-1.2-1.2-1.9-2.8-1.9-4.8v-3.8c0-2,0.6-3.6,1.9-4.8c1.2-1.2,2.9-1.8,5-1.8
		c2.1,0,3.8,0.6,5,1.8c1.2,1.2,1.9,2.8,1.9,4.8v3.8c0,2-0.6,3.6-1.9,4.8C656.3,29.7,654.6,30.3,652.5,30.3z M652.5,27
		c1,0,1.8-0.3,2.3-0.8c0.6-0.5,0.8-1.3,0.8-2.4v-4.1c0-1-0.3-1.8-0.8-2.4c-0.5-0.5-1.3-0.8-2.3-0.8c-1,0-1.8,0.3-2.3,0.8
		c-0.5,0.5-0.8,1.3-0.8,2.4v4.1c0,1,0.3,1.8,0.8,2.4C650.7,26.7,651.5,27,652.5,27z"/>
</g>
<g class="st1">
	<path class="st16" d="M627.2,586.3c-1.4,0-2.7-0.3-3.7-0.8c-1-0.5-1.8-1.3-2.4-2.2c-0.6-1-0.9-2.1-0.9-3.4v-9.5
		c0-1.3,0.3-2.5,0.9-3.4c0.6-1,1.4-1.7,2.4-2.2c1-0.5,2.3-0.8,3.7-0.8c1.4,0,2.6,0.3,3.7,0.8c1,0.5,1.8,1.3,2.4,2.2
		c0.6,1,0.9,2.1,0.9,3.4h-3.8c0-1-0.3-1.8-0.8-2.4c-0.6-0.5-1.3-0.8-2.4-0.8s-1.8,0.3-2.4,0.8c-0.6,0.6-0.8,1.3-0.8,2.4v9.5
		c0,1,0.3,1.8,0.8,2.4c0.6,0.6,1.4,0.8,2.4,0.8s1.8-0.3,2.4-0.8c0.5-0.5,0.8-1.3,0.8-2.4h3.8c0,1.3-0.3,2.5-0.9,3.4
		c-0.6,1-1.4,1.7-2.4,2.2C629.9,586,628.6,586.3,627.2,586.3z"/>
	<path class="st16" d="M643.2,586.3c-1.7,0-3-0.5-4-1.4c-1-0.9-1.5-2.2-1.5-3.7c0-1.6,0.5-2.9,1.6-3.8c1.1-1,2.6-1.4,4.5-1.4h4v-1.2
		c0-1.7-1-2.5-2.9-2.5c-0.9,0-1.6,0.2-2.1,0.5c-0.5,0.3-0.8,0.8-0.9,1.4h-3.6c0.1-1.5,0.7-2.7,1.9-3.6s2.7-1.4,4.7-1.4
		c2.1,0,3.7,0.5,4.9,1.5c1.2,1,1.7,2.4,1.7,4.1V586H648v-3.1c-0.1,1.1-0.6,1.9-1.5,2.5C645.7,586,644.5,586.3,643.2,586.3z
		 M644.4,583.2c1.1,0,2-0.3,2.6-0.8s1-1.3,1-2.2v-1.9h-3.8c-0.8,0-1.5,0.2-2,0.7c-0.5,0.5-0.7,1-0.7,1.8c0,0.7,0.3,1.3,0.8,1.8
		C642.7,583,643.4,583.2,644.4,583.2z"/>
	<path class="st16" d="M656.3,586v-16.5h3.7v3.1c0.2-1,0.7-1.9,1.5-2.5c0.8-0.6,1.8-0.9,3-0.9c1.6,0,2.9,0.5,3.9,1.6
		c1,1.1,1.5,2.5,1.5,4.3V586H666v-10.4c0-1-0.3-1.8-0.8-2.4c-0.5-0.5-1.2-0.8-2.1-0.8c-0.9,0-1.7,0.3-2.2,0.8s-0.8,1.4-0.8,2.4V586
		H656.3z"/>
	<path class="st16" d="M679.2,586.3c-1.7,0-3-0.5-4-1.4c-1-0.9-1.5-2.2-1.5-3.7c0-1.6,0.5-2.9,1.6-3.8s2.6-1.4,4.5-1.4h4v-1.2
		c0-1.7-1-2.5-2.9-2.5c-0.9,0-1.6,0.2-2.1,0.5c-0.5,0.3-0.8,0.8-0.9,1.4h-3.6c0.1-1.5,0.7-2.7,1.9-3.6s2.7-1.4,4.7-1.4
		c2.1,0,3.7,0.5,4.9,1.5c1.2,1,1.7,2.4,1.7,4.1V586H684v-3.1c-0.1,1.1-0.6,1.9-1.5,2.5C681.7,586,680.5,586.3,679.2,586.3z
		 M680.4,583.2c1.1,0,2-0.3,2.6-0.8c0.6-0.5,1-1.3,1-2.2v-1.9h-3.8c-0.8,0-1.5,0.2-2,0.7c-0.5,0.5-0.7,1-0.7,1.8
		c0,0.7,0.3,1.3,0.8,1.8C678.7,583,679.4,583.2,680.4,583.2z"/>
	<path class="st16" d="M697.5,586.3c-1.6,0-2.9-0.6-3.9-1.7c-1-1.1-1.5-2.7-1.5-4.6v-4.5c0-1.9,0.5-3.5,1.5-4.6
		c1-1.1,2.3-1.7,3.9-1.7c1.1,0,2.1,0.3,2.9,0.9c0.8,0.6,1.3,1.4,1.7,2.4l-0.1-3.8v-4.6h3.8V586H702v-3c-0.3,1-0.8,1.9-1.6,2.4
		C699.6,586,698.7,586.3,697.5,586.3z M698.9,583.1c1,0,1.7-0.3,2.2-0.9c0.5-0.6,0.8-1.4,0.8-2.5v-4c0-1.1-0.3-1.9-0.8-2.5
		c-0.5-0.6-1.3-0.9-2.2-0.9s-1.7,0.3-2.2,0.8c-0.5,0.5-0.8,1.3-0.8,2.4v4.3c0,1.1,0.3,1.9,0.8,2.4S697.9,583.1,698.9,583.1z"/>
	<path class="st16" d="M715.2,586.3c-1.7,0-3-0.5-4-1.4c-1-0.9-1.5-2.2-1.5-3.7c0-1.6,0.6-2.9,1.7-3.8s2.6-1.4,4.5-1.4h4v-1.2
		c0-1.7-1-2.5-2.9-2.5c-0.9,0-1.6,0.2-2.1,0.5c-0.5,0.3-0.8,0.8-0.9,1.4h-3.6c0.1-1.5,0.7-2.7,1.9-3.6s2.7-1.4,4.7-1.4
		c2.1,0,3.7,0.5,4.9,1.5c1.2,1,1.7,2.4,1.7,4.1V586H720v-3.1c-0.1,1.1-0.6,1.9-1.5,2.5C717.7,586,716.5,586.3,715.2,586.3z
		 M716.4,583.2c1.1,0,2-0.3,2.6-0.8c0.6-0.5,1-1.3,1-2.2v-1.9h-3.8c-0.8,0-1.5,0.2-2,0.7c-0.5,0.5-0.7,1-0.7,1.8
		c0,0.7,0.3,1.3,0.8,1.8C714.7,583,715.4,583.2,716.4,583.2z"/>
</g>
<g class="st1">
	<path class="st17" d="M12.7,386.5v-21.9h4.6l6.1,17.7c-0.1-0.6-0.1-1.4-0.2-2.3s-0.1-1.8-0.2-2.7c-0.1-0.9-0.1-1.7-0.1-2.4v-10.4
		h3.4v21.9h-4.6l-6-17.7c0,0.6,0.1,1.3,0.1,2.1s0.1,1.7,0.1,2.5c0,0.9,0.1,1.7,0.1,2.4v10.7H12.7z"/>
	<path class="st17" d="M37.5,386.8c-1.4,0-2.6-0.3-3.7-0.8c-1-0.5-1.8-1.3-2.4-2.3c-0.6-1-0.9-2.2-0.9-3.5v-3.9
		c0-1.3,0.3-2.5,0.9-3.5c0.6-1,1.4-1.8,2.4-2.3c1-0.5,2.3-0.8,3.7-0.8c1.4,0,2.6,0.3,3.6,0.8c1,0.5,1.8,1.3,2.4,2.3
		c0.6,1,0.9,2.1,0.9,3.4v3H34.2v1.1c0,1.1,0.3,2,0.9,2.5c0.6,0.6,1.4,0.9,2.5,0.9c0.8,0,1.4-0.1,2-0.4c0.5-0.3,0.9-0.7,1-1.2h3.7
		c-0.3,1.4-1,2.6-2.2,3.4C40.8,386.4,39.3,386.8,37.5,386.8z M34.2,376.2v0.6l6.6,0v-0.6c0-1.1-0.3-2-0.8-2.6
		c-0.6-0.6-1.4-0.9-2.4-0.9c-1.1,0-1.9,0.3-2.5,0.9C34.5,374.2,34.2,375,34.2,376.2z"/>
	<path class="st17" d="M57.1,386.5c-1.5,0-2.8-0.4-3.7-1.3c-0.9-0.9-1.4-2.1-1.4-3.6v-8.2h-4.6V370h4.6v-4.7h3.8v4.7h6.6v3.4h-6.6
		v8.1c0,0.5,0.1,0.9,0.4,1.2c0.3,0.3,0.6,0.5,1.1,0.5h4.9v3.4H57.1z"/>
	<path class="st17" d="M66.8,386.5v-21.9h3.8v5.4l-0.1,3.1c0.2-1,0.7-1.9,1.5-2.5c0.8-0.6,1.8-0.9,3-0.9c1.6,0,2.9,0.5,3.9,1.6
		c1,1.1,1.5,2.5,1.5,4.3v10.8h-3.8v-10.4c0-1-0.3-1.8-0.8-2.4c-0.5-0.5-1.2-0.8-2.1-0.8c-0.9,0-1.7,0.3-2.2,0.8
		c-0.5,0.6-0.8,1.4-0.8,2.4v10.3H66.8z"/>
	<path class="st17" d="M91.5,386.8c-1.4,0-2.6-0.3-3.7-0.8c-1-0.5-1.8-1.3-2.4-2.3c-0.6-1-0.9-2.2-0.9-3.5v-3.9
		c0-1.3,0.3-2.5,0.9-3.5c0.6-1,1.4-1.8,2.4-2.3c1-0.5,2.3-0.8,3.7-0.8c1.4,0,2.6,0.3,3.6,0.8c1,0.5,1.8,1.3,2.4,2.3
		c0.6,1,0.9,2.1,0.9,3.4v3H88.2v1.1c0,1.1,0.3,2,0.9,2.5c0.6,0.6,1.4,0.9,2.5,0.9c0.8,0,1.4-0.1,2-0.4c0.5-0.3,0.9-0.7,1-1.2h3.7
		c-0.3,1.4-1,2.6-2.2,3.4C94.8,386.4,93.3,386.8,91.5,386.8z M88.2,376.2v0.6l6.6,0v-0.6c0-1.1-0.3-2-0.8-2.6
		c-0.6-0.6-1.4-0.9-2.4-0.9c-1.1,0-1.9,0.3-2.5,0.9C88.5,374.2,88.2,375,88.2,376.2z"/>
	<path class="st17" d="M103.4,386.5V370h3.7v3.2c0.2-1.1,0.7-1.9,1.5-2.6c0.8-0.6,1.8-0.9,3.1-0.9c1.7,0,3,0.5,3.9,1.6
		c0.9,1.1,1.4,2.6,1.4,4.5v1.6h-3.8V376c0-1-0.3-1.8-0.8-2.3s-1.3-0.8-2.2-0.8c-1,0-1.8,0.3-2.3,0.9c-0.5,0.6-0.8,1.5-0.8,2.5v10.1
		H103.4z"/>
	<path class="st17" d="M130.2,386.5c-1.6,0-3-0.5-3.9-1.5c-1-1-1.5-2.3-1.5-3.9V368h-5.4v-3.4h9.2v16.5c0,0.6,0.2,1.1,0.5,1.5
		c0.3,0.4,0.8,0.6,1.4,0.6h4.8v3.4H130.2z"/>
	<path class="st17" d="M143.7,386.8c-1.7,0-3-0.5-4-1.4c-1-0.9-1.5-2.2-1.5-3.7c0-1.6,0.5-2.9,1.6-3.8c1.1-1,2.6-1.4,4.5-1.4h4v-1.2
		c0-1.7-1-2.5-2.9-2.5c-0.9,0-1.6,0.2-2.1,0.5c-0.5,0.3-0.8,0.8-0.9,1.4H139c0.1-1.5,0.7-2.7,1.9-3.6s2.7-1.4,4.7-1.4
		c2.1,0,3.7,0.5,4.9,1.5c1.2,1,1.7,2.4,1.7,4.1v11.2h-3.7v-3.1c-0.1,1.1-0.6,1.9-1.5,2.5C146.2,386.5,145,386.8,143.7,386.8z
		 M144.9,383.7c1.1,0,2-0.3,2.6-0.8c0.6-0.5,1-1.3,1-2.2v-1.9h-3.8c-0.8,0-1.5,0.2-2,0.7c-0.5,0.5-0.7,1-0.7,1.8
		c0,0.7,0.3,1.3,0.8,1.8C143.2,383.5,143.9,383.7,144.9,383.7z"/>
	<path class="st17" d="M156.8,386.5V370h3.7v3.1c0.2-1,0.7-1.9,1.5-2.5c0.8-0.6,1.8-0.9,3-0.9c1.6,0,2.9,0.5,3.9,1.6
		c1,1.1,1.5,2.5,1.5,4.3v10.8h-3.8v-10.4c0-1-0.3-1.8-0.8-2.4c-0.5-0.5-1.2-0.8-2.1-0.8c-0.9,0-1.7,0.3-2.2,0.8
		c-0.5,0.6-0.8,1.4-0.8,2.4v10.3H156.8z"/>
	<path class="st17" d="M180,386.8c-1.6,0-2.9-0.6-3.9-1.7c-1-1.1-1.5-2.7-1.5-4.6V376c0-1.9,0.5-3.5,1.5-4.6c1-1.1,2.3-1.7,3.9-1.7
		c1.1,0,2.1,0.3,2.9,0.9c0.8,0.6,1.3,1.4,1.7,2.4l-0.1-3.8v-4.6h3.8v21.9h-3.7v-3c-0.3,1-0.8,1.9-1.6,2.4
		C182.1,386.5,181.2,386.8,180,386.8z M181.4,383.6c1,0,1.7-0.3,2.2-0.9c0.5-0.6,0.8-1.4,0.8-2.5v-4c0-1.1-0.3-1.9-0.8-2.5
		c-0.5-0.6-1.3-0.9-2.2-0.9s-1.7,0.3-2.2,0.8c-0.5,0.5-0.8,1.3-0.8,2.4v4.3c0,1.1,0.3,1.9,0.8,2.4S180.4,383.6,181.4,383.6z"/>
	<path class="st17" d="M198.8,386.8c-2,0-3.5-0.4-4.6-1.3c-1.1-0.9-1.7-2.1-1.7-3.6h3.7c0,0.6,0.2,1.1,0.7,1.5
		c0.5,0.3,1.1,0.5,2,0.5h1.3c0.9,0,1.6-0.2,2.1-0.5s0.7-0.8,0.7-1.5c0-0.6-0.2-1-0.5-1.3c-0.3-0.3-0.9-0.5-1.6-0.6l-4.1-0.5
		c-1.3-0.2-2.3-0.7-3-1.5c-0.7-0.8-1.1-1.9-1.1-3.3c0-1.6,0.5-2.8,1.6-3.6c1-0.8,2.5-1.2,4.5-1.2h1.4c1.8,0,3.3,0.4,4.4,1.3
		c1.1,0.8,1.7,2,1.7,3.4h-3.7c0-0.5-0.3-0.9-0.7-1.2c-0.4-0.3-1-0.5-1.8-0.5h-1.4c-0.8,0-1.4,0.2-1.8,0.5s-0.6,0.8-0.6,1.3
		c0,0.5,0.2,0.9,0.5,1.1c0.3,0.2,0.8,0.4,1.4,0.5l3.9,0.5c1.5,0.2,2.7,0.7,3.4,1.6c0.8,0.9,1.2,2.1,1.2,3.6c0,1.6-0.5,2.8-1.6,3.7
		c-1.1,0.9-2.7,1.3-4.8,1.3H198.8z"/>
</g>
<g class="st1">
	<path class="st18" d="M645.6,84V62.1h3.8v18.5h9.3V84H645.6z"/>
	<path class="st18" d="M662.3,84v-3.4h5.6v-9.7h-5v-3.4h8.8v13.1h5.1V84H662.3z M669.5,64.7c-0.8,0-1.4-0.2-1.8-0.6
		c-0.4-0.4-0.7-0.9-0.7-1.6s0.2-1.2,0.7-1.6c0.4-0.4,1-0.6,1.8-0.6s1.4,0.2,1.8,0.6c0.4,0.4,0.7,0.9,0.7,1.6s-0.2,1.2-0.7,1.6
		C670.9,64.5,670.3,64.7,669.5,64.7z"/>
	<path class="st18" d="M687,84.3c-1.4,0-2.6-0.3-3.7-0.8c-1-0.5-1.8-1.3-2.4-2.3c-0.6-1-0.9-2.2-0.9-3.5v-3.9c0-1.3,0.3-2.5,0.9-3.5
		c0.6-1,1.4-1.8,2.4-2.3c1-0.5,2.3-0.8,3.7-0.8c1.4,0,2.6,0.3,3.6,0.8c1,0.5,1.8,1.3,2.4,2.3c0.6,1,0.9,2.1,0.9,3.4v3h-10.2v1.1
		c0,1.1,0.3,2,0.9,2.5c0.6,0.6,1.4,0.9,2.5,0.9c0.8,0,1.4-0.1,2-0.4c0.5-0.3,0.9-0.7,1-1.2h3.7c-0.3,1.4-1,2.6-2.2,3.4
		C690.3,83.9,688.8,84.3,687,84.3z M683.7,73.7v0.6l6.6,0v-0.6c0-1.1-0.3-2-0.8-2.6c-0.6-0.6-1.4-0.9-2.4-0.9
		c-1.1,0-1.9,0.3-2.5,0.9C684,71.7,683.7,72.5,683.7,73.7z"/>
	<path class="st18" d="M705.3,84.3c-1.4,0-2.7-0.3-3.7-0.8c-1.1-0.5-1.9-1.3-2.4-2.2c-0.6-1-0.9-2.1-0.9-3.4v-4.1
		c0-1.3,0.3-2.5,0.9-3.4s1.4-1.7,2.4-2.2c1-0.5,2.3-0.8,3.7-0.8c2.1,0,3.7,0.5,5,1.6c1.2,1.1,1.9,2.5,2,4.4h-3.7
		c-0.1-0.9-0.4-1.5-1-2c-0.6-0.5-1.3-0.7-2.3-0.7c-1,0-1.8,0.3-2.4,0.8c-0.6,0.6-0.9,1.3-0.9,2.4v4.2c0,1,0.3,1.8,0.9,2.4
		c0.6,0.6,1.4,0.8,2.4,0.8c0.9,0,1.7-0.2,2.3-0.7s0.9-1.1,1-2h3.7c-0.1,1.8-0.7,3.3-2,4.4S707.3,84.3,705.3,84.3z"/>
	<path class="st18" d="M716.3,84V62.1h3.8v5.4l-0.1,3.1c0.2-1,0.7-1.9,1.5-2.5c0.8-0.6,1.8-0.9,3-0.9c1.6,0,2.9,0.5,3.9,1.6
		s1.5,2.5,1.5,4.3V84H726V73.6c0-1-0.3-1.8-0.8-2.4c-0.5-0.5-1.2-0.8-2.1-0.8c-0.9,0-1.7,0.3-2.2,0.8c-0.5,0.6-0.8,1.4-0.8,2.4V84
		H716.3z"/>
	<path class="st18" d="M742.6,84c-1.5,0-2.8-0.4-3.7-1.3c-0.9-0.9-1.4-2.1-1.4-3.6v-8.2H733v-3.4h4.6v-4.7h3.8v4.7h6.6v3.4h-6.6V79
		c0,0.5,0.1,0.9,0.4,1.2c0.3,0.3,0.6,0.5,1.1,0.5h4.9V84H742.6z"/>
	<path class="st18" d="M759,84.3c-1.4,0-2.6-0.3-3.7-0.8c-1-0.5-1.8-1.3-2.4-2.3c-0.6-1-0.9-2.2-0.9-3.5v-3.9c0-1.3,0.3-2.5,0.9-3.5
		c0.6-1,1.4-1.8,2.4-2.3c1-0.5,2.3-0.8,3.7-0.8c1.4,0,2.6,0.3,3.6,0.8s1.8,1.3,2.4,2.3c0.6,1,0.9,2.1,0.9,3.4v3h-10.2v1.1
		c0,1.1,0.3,2,0.9,2.5c0.6,0.6,1.4,0.9,2.5,0.9c0.8,0,1.4-0.1,2-0.4c0.5-0.3,0.9-0.7,1-1.2h3.7c-0.3,1.4-1,2.6-2.2,3.4
		C762.3,83.9,760.8,84.3,759,84.3z M755.7,73.7v0.6l6.6,0v-0.6c0-1.1-0.3-2-0.8-2.6c-0.6-0.6-1.4-0.9-2.4-0.9
		c-1.1,0-1.9,0.3-2.5,0.9C756,71.7,755.7,72.5,755.7,73.7z"/>
	<path class="st18" d="M770.3,84V67.5h3.7v3.1c0.2-1,0.7-1.9,1.5-2.5c0.8-0.6,1.8-0.9,3-0.9c1.6,0,2.9,0.5,3.9,1.6
		c1,1.1,1.5,2.5,1.5,4.3V84H780V73.6c0-1-0.3-1.8-0.8-2.4c-0.5-0.5-1.2-0.8-2.1-0.8c-0.9,0-1.7,0.3-2.2,0.8
		c-0.5,0.6-0.8,1.4-0.8,2.4V84H770.3z"/>
	<path class="st18" d="M794.3,84.3c-2,0-3.5-0.4-4.7-1.3c-1.1-0.9-1.7-2.1-1.7-3.6h3.7c0,0.6,0.2,1.1,0.7,1.5c0.5,0.3,1.1,0.5,2,0.5
		h1.3c0.9,0,1.6-0.2,2.1-0.5s0.7-0.8,0.7-1.5c0-0.6-0.2-1-0.5-1.3s-0.9-0.5-1.6-0.6l-4.1-0.5c-1.3-0.2-2.3-0.7-3-1.5
		s-1.1-1.9-1.1-3.3c0-1.6,0.5-2.8,1.6-3.6c1-0.8,2.5-1.2,4.5-1.2h1.4c1.8,0,3.3,0.4,4.4,1.3s1.7,2,1.7,3.4h-3.7
		c0-0.5-0.3-0.9-0.7-1.2c-0.4-0.3-1-0.5-1.8-0.5h-1.4c-0.8,0-1.4,0.2-1.8,0.5s-0.6,0.8-0.6,1.3c0,0.5,0.2,0.9,0.5,1.1
		s0.8,0.4,1.4,0.5l3.9,0.5c1.5,0.2,2.7,0.7,3.4,1.6c0.8,0.9,1.2,2.1,1.2,3.6c0,1.6-0.5,2.8-1.6,3.7c-1.1,0.9-2.7,1.3-4.8,1.3H794.3z
		"/>
	<path class="st18" d="M814.6,84c-1.5,0-2.8-0.4-3.7-1.3s-1.4-2.1-1.4-3.6v-8.2H805v-3.4h4.6v-4.7h3.8v4.7h6.6v3.4h-6.6V79
		c0,0.5,0.1,0.9,0.4,1.2c0.3,0.3,0.6,0.5,1.1,0.5h4.9V84H814.6z"/>
	<path class="st18" d="M831,84.3c-1.4,0-2.6-0.3-3.7-0.8c-1-0.5-1.8-1.3-2.4-2.3c-0.6-1-0.9-2.2-0.9-3.5v-3.9c0-1.3,0.3-2.5,0.9-3.5
		c0.6-1,1.4-1.8,2.4-2.3c1-0.5,2.3-0.8,3.7-0.8c1.4,0,2.6,0.3,3.6,0.8c1,0.5,1.8,1.3,2.4,2.3c0.6,1,0.9,2.1,0.9,3.4v3h-10.2v1.1
		c0,1.1,0.3,2,0.9,2.5c0.6,0.6,1.4,0.9,2.5,0.9c0.8,0,1.4-0.1,2-0.4c0.6-0.3,0.9-0.7,1-1.2h3.7c-0.3,1.4-1,2.6-2.2,3.4
		C834.3,83.9,832.8,84.3,831,84.3z M827.7,73.7v0.6l6.6,0v-0.6c0-1.1-0.3-2-0.8-2.6c-0.6-0.6-1.4-0.9-2.4-0.9
		c-1.1,0-1.9,0.3-2.5,0.9C828,71.7,827.7,72.5,827.7,73.7z"/>
	<path class="st18" d="M842.3,84v-3.4h5.6v-9.7h-5v-3.4h8.8v13.1h5.1V84H842.3z M849.5,64.7c-0.8,0-1.4-0.2-1.8-0.6
		c-0.4-0.4-0.7-0.9-0.7-1.6s0.2-1.2,0.7-1.6c0.4-0.4,1-0.6,1.8-0.6s1.4,0.2,1.8,0.6s0.7,0.9,0.7,1.6s-0.2,1.2-0.7,1.6
		C850.9,64.5,850.3,64.7,849.5,64.7z"/>
	<path class="st18" d="M860.3,84V67.5h3.7v3.1c0.2-1,0.7-1.9,1.5-2.5s1.8-0.9,3-0.9c1.6,0,2.9,0.5,3.9,1.6c1,1.1,1.5,2.5,1.5,4.3V84
		H870V73.6c0-1-0.3-1.8-0.8-2.4c-0.5-0.5-1.2-0.8-2.1-0.8c-0.9,0-1.7,0.3-2.2,0.8c-0.5,0.6-0.8,1.4-0.8,2.4V84H860.3z"/>
</g>
<g class="st1">
	<path class="st19" d="M1074.8,316.5v-21.9h3.8v8.9h2.6l4.2-8.9h4.1l-4.9,10.4l5.2,11.5h-4.2l-4.3-9.7h-2.6v9.7H1074.8z"/>
	<path class="st19" d="M1099.5,316.8c-2.1,0-3.8-0.6-5-1.8c-1.2-1.2-1.8-2.8-1.8-4.8V300h3.8v10.2c0,1,0.3,1.8,0.8,2.4
		s1.3,0.9,2.2,0.9c0.9,0,1.7-0.3,2.2-0.9c0.5-0.6,0.8-1.4,0.8-2.4V300h3.8v10.3c0,2-0.6,3.6-1.8,4.8
		C1103.2,316.2,1101.6,316.8,1099.5,316.8z"/>
	<path class="st19" d="M1111.6,316.5L1109,300h3l1.5,10.1c0.1,0.6,0.1,1.3,0.2,2c0.1,0.7,0.1,1.3,0.2,1.8c0-0.5,0.1-1.1,0.1-1.8
		s0.1-1.4,0.3-2l1.8-10.1h3.1l1.7,10.1c0.1,0.6,0.2,1.3,0.3,2c0.1,0.7,0.1,1.3,0.2,1.8c0-0.5,0.1-1.1,0.1-1.8c0.1-0.7,0.1-1.4,0.2-2
		l1.5-10.1h2.9l-2.6,16.5h-3.9l-1.6-10.2c-0.1-0.6-0.2-1.2-0.3-1.9c-0.1-0.7-0.1-1.3-0.2-1.8c0,0.5-0.1,1.1-0.2,1.8
		c-0.1,0.7-0.2,1.4-0.3,1.9l-1.6,10.2H1111.6z"/>
	<path class="st19" d="M1133.7,316.8c-1.7,0-3-0.5-4-1.4c-1-0.9-1.5-2.2-1.5-3.7c0-1.6,0.5-2.9,1.6-3.8s2.6-1.4,4.5-1.4h4v-1.2
		c0-1.7-1-2.5-2.9-2.5c-0.9,0-1.6,0.2-2.1,0.5c-0.5,0.3-0.8,0.8-0.9,1.4h-3.6c0.1-1.5,0.7-2.7,1.9-3.6s2.7-1.4,4.7-1.4
		c2.1,0,3.7,0.5,4.9,1.5c1.2,1,1.7,2.4,1.7,4.1v11.2h-3.7v-3.1c-0.1,1.1-0.6,1.9-1.5,2.5C1136.2,316.5,1135,316.8,1133.7,316.8z
		 M1134.9,313.7c1.1,0,2-0.3,2.6-0.8c0.6-0.5,1-1.3,1-2.2v-1.9h-3.8c-0.8,0-1.5,0.2-2,0.7c-0.5,0.5-0.7,1-0.7,1.8
		c0,0.7,0.3,1.3,0.8,1.8C1133.2,313.5,1133.9,313.7,1134.9,313.7z"/>
	<path class="st19" d="M1146.8,316.5v-3.4h5.6v-9.7h-5V300h8.8v13.1h5.1v3.4H1146.8z M1154,297.2c-0.8,0-1.4-0.2-1.8-0.6
		c-0.4-0.4-0.7-0.9-0.7-1.6s0.2-1.2,0.7-1.6c0.4-0.4,1-0.6,1.8-0.6s1.4,0.2,1.8,0.6s0.7,0.9,0.7,1.6s-0.2,1.2-0.7,1.6
		C1155.4,297,1154.8,297.2,1154,297.2z"/>
	<path class="st19" d="M1173.1,316.5c-1.5,0-2.8-0.4-3.7-1.3c-0.9-0.9-1.4-2.1-1.4-3.6v-8.2h-4.6V300h4.6v-4.7h3.8v4.7h6.6v3.4h-6.6
		v8.1c0,0.5,0.1,0.9,0.4,1.2c0.3,0.3,0.6,0.5,1.1,0.5h4.9v3.4H1173.1z"/>
</g>
<g class="st1">
	<path class="st11" d="M68.3,528v-21.9H75c2.1,0,3.8,0.5,5,1.5c1.2,1,1.9,2.4,1.9,4.1c0,1.2-0.3,2.2-1,3.1c-0.7,0.9-1.6,1.4-2.7,1.6
		v0.1c0.8,0.1,1.5,0.4,2.2,0.9s1.1,1.1,1.5,1.9c0.4,0.8,0.5,1.6,0.5,2.5c0,1.3-0.3,2.4-0.9,3.3c-0.6,0.9-1.4,1.7-2.5,2.2
		c-1.1,0.5-2.3,0.8-3.8,0.8H68.3z M72,515.1h3c1,0,1.8-0.3,2.3-0.8c0.6-0.5,0.9-1.3,0.9-2.2c0-0.9-0.3-1.6-0.9-2.1
		c-0.6-0.5-1.4-0.8-2.4-0.8h-3V515.1z M72,524.9h3.2c1.1,0,2-0.3,2.6-0.9s0.9-1.4,0.9-2.4c0-1-0.3-1.8-0.9-2.5
		c-0.6-0.6-1.5-0.9-2.6-0.9H72V524.9z"/>
	<path class="st11" d="M91.2,528.3c-1.7,0-3-0.5-4-1.4c-1-0.9-1.5-2.2-1.5-3.7c0-1.6,0.5-2.9,1.6-3.8c1.1-1,2.6-1.4,4.5-1.4h4v-1.2
		c0-1.7-1-2.5-2.9-2.5c-0.9,0-1.6,0.2-2.1,0.5c-0.5,0.3-0.8,0.8-0.9,1.4h-3.6c0.1-1.5,0.7-2.7,1.9-3.6s2.7-1.4,4.7-1.4
		c2.1,0,3.7,0.5,4.9,1.5c1.2,1,1.7,2.4,1.7,4.1V528H96v-3.1c-0.1,1.1-0.6,1.9-1.5,2.5C93.7,528,92.5,528.3,91.2,528.3z M92.4,525.2
		c1.1,0,2-0.3,2.6-0.8c0.6-0.5,1-1.3,1-2.2v-1.9h-3.8c-0.8,0-1.5,0.2-2,0.7c-0.5,0.5-0.7,1-0.7,1.8c0,0.7,0.3,1.3,0.8,1.8
		C90.7,525,91.4,525.2,92.4,525.2z"/>
	<path class="st11" d="M104.3,528v-21.9h3.8v5.4l-0.1,3.1c0.2-1,0.7-1.9,1.5-2.5c0.8-0.6,1.8-0.9,3-0.9c1.6,0,2.9,0.5,3.9,1.6
		c1,1.1,1.5,2.5,1.5,4.3V528H114v-10.4c0-1-0.3-1.8-0.8-2.4c-0.5-0.5-1.2-0.8-2.1-0.8c-0.9,0-1.7,0.3-2.2,0.8
		c-0.5,0.6-0.8,1.4-0.8,2.4V528H104.3z"/>
	<path class="st11" d="M122.9,528v-16.5h3.7v3.2c0.2-1.1,0.7-1.9,1.5-2.6c0.8-0.6,1.8-0.9,3.1-0.9c1.7,0,3,0.5,3.9,1.6
		c0.9,1.1,1.4,2.6,1.4,4.5v1.6h-3.8v-1.4c0-1-0.3-1.8-0.8-2.3s-1.3-0.8-2.2-0.8c-1,0-1.8,0.3-2.3,0.9c-0.5,0.6-0.8,1.5-0.8,2.5V528
		H122.9z"/>
	<path class="st11" d="M145.2,528.3c-1.7,0-3-0.5-4-1.4c-1-0.9-1.5-2.2-1.5-3.7c0-1.6,0.5-2.9,1.6-3.8c1.1-1,2.6-1.4,4.5-1.4h4v-1.2
		c0-1.7-1-2.5-2.9-2.5c-0.9,0-1.6,0.2-2.1,0.5c-0.5,0.3-0.8,0.8-0.9,1.4h-3.6c0.1-1.5,0.7-2.7,1.9-3.6s2.7-1.4,4.7-1.4
		c2.1,0,3.7,0.5,4.9,1.5c1.2,1,1.7,2.4,1.7,4.1V528H150v-3.1c-0.1,1.1-0.6,1.9-1.5,2.5C147.7,528,146.5,528.3,145.2,528.3z
		 M146.4,525.2c1.1,0,2-0.3,2.6-0.8c0.6-0.5,1-1.3,1-2.2v-1.9h-3.8c-0.8,0-1.5,0.2-2,0.7c-0.5,0.5-0.7,1-0.7,1.8
		c0,0.7,0.3,1.3,0.8,1.8C144.7,525,145.4,525.2,146.4,525.2z"/>
	<path class="st11" d="M158.3,528v-3.4h5.6v-9.7h-5v-3.4h8.8v13.1h5.1v3.4H158.3z M165.5,508.7c-0.8,0-1.4-0.2-1.8-0.6
		c-0.4-0.4-0.7-0.9-0.7-1.6s0.2-1.2,0.7-1.6c0.4-0.4,1-0.6,1.8-0.6c0.8,0,1.4,0.2,1.8,0.6s0.7,0.9,0.7,1.6s-0.2,1.2-0.7,1.6
		C166.9,508.5,166.3,508.7,165.5,508.7z"/>
	<path class="st11" d="M176.3,528v-16.5h3.7v3.1c0.2-1,0.7-1.9,1.5-2.5c0.8-0.6,1.8-0.9,3-0.9c1.6,0,2.9,0.5,3.9,1.6
		c1,1.1,1.5,2.5,1.5,4.3V528H186v-10.4c0-1-0.3-1.8-0.8-2.4c-0.5-0.5-1.2-0.8-2.1-0.8c-0.9,0-1.7,0.3-2.2,0.8
		c-0.5,0.6-0.8,1.4-0.8,2.4V528H176.3z"/>
</g>
<g class="st1">
	<path class="st20" d="M67.6,485v-16.4h3.4l4.6,13.3c0-0.5-0.1-1-0.1-1.7s-0.1-1.3-0.1-2s-0.1-1.3-0.1-1.8v-7.8h2.6V485h-3.4
		l-4.5-13.3c0,0.4,0.1,1,0.1,1.6c0,0.6,0.1,1.2,0.1,1.9c0,0.6,0,1.2,0,1.8v8H67.6z"/>
	<path class="st20" d="M86.2,485.2c-1.6,0-2.9-0.4-3.8-1.3c-0.9-0.9-1.4-2.1-1.4-3.6v-2.9c0-1.5,0.5-2.7,1.4-3.6
		c0.9-0.9,2.2-1.3,3.8-1.3c1.6,0,2.8,0.4,3.8,1.3s1.4,2.1,1.4,3.6v2.9c0,1.5-0.5,2.7-1.4,3.6C89.1,484.8,87.8,485.2,86.2,485.2z
		 M86.2,482.8c0.8,0,1.3-0.2,1.7-0.6c0.4-0.4,0.6-1,0.6-1.8v-3.1c0-0.8-0.2-1.4-0.6-1.8c-0.4-0.4-1-0.6-1.7-0.6s-1.3,0.2-1.7,0.6
		c-0.4,0.4-0.6,1-0.6,1.8v3.1c0,0.8,0.2,1.4,0.6,1.8C84.9,482.5,85.5,482.8,86.2,482.8z"/>
	<path class="st20" d="M95.2,485v-12.4h2.7v2.4c0.1-0.8,0.5-1.5,1.1-1.9c0.6-0.5,1.4-0.7,2.3-0.7c1.3,0,2.2,0.4,2.9,1.2
		c0.7,0.8,1.1,1.9,1.1,3.4v1.2h-2.8v-1c0-0.8-0.2-1.3-0.6-1.7c-0.4-0.4-0.9-0.6-1.7-0.6c-0.8,0-1.3,0.2-1.7,0.7
		c-0.4,0.5-0.6,1.1-0.6,1.9v7.6H95.2z"/>
	<path class="st20" d="M114.5,485c-1.2,0-2.1-0.3-2.8-1c-0.7-0.7-1-1.6-1-2.7v-6.1h-3.4v-2.5h3.4v-3.5h2.8v3.5h4.9v2.5h-4.9v6.1
		c0,0.4,0.1,0.7,0.3,0.9c0.2,0.2,0.5,0.3,0.8,0.3h3.7v2.5H114.5z"/>
	<path class="st20" d="M121.7,485v-16.4h2.8v4l-0.1,2.3c0.1-0.8,0.5-1.4,1.1-1.8s1.3-0.7,2.2-0.7c1.2,0,2.2,0.4,2.9,1.2
		c0.7,0.8,1.1,1.9,1.1,3.3v8.1H129v-7.8c0-0.8-0.2-1.4-0.6-1.8c-0.4-0.4-0.9-0.6-1.6-0.6c-0.7,0-1.3,0.2-1.7,0.6s-0.6,1-0.6,1.8v7.7
		H121.7z"/>
	<path class="st20" d="M134.8,488.1v-2.5h10.8v2.5H134.8z"/>
	<path class="st20" d="M147.8,485l4.1-16.4h3.6l4.2,16.4h-2.9l-0.9-4h-4.4l-0.9,4H147.8z M152.1,478.7h3.3l-1-4.4
		c-0.2-0.7-0.3-1.4-0.4-2c-0.1-0.6-0.2-1-0.2-1.3c0,0.3-0.1,0.7-0.2,1.3s-0.3,1.2-0.4,2L152.1,478.7z"/>
	<path class="st20" d="M161.6,485v-12.4h2.3v1.8h0.1c0-0.6,0.3-1.1,0.6-1.5c0.4-0.4,0.8-0.6,1.4-0.6c0.6,0,1,0.2,1.4,0.5
		c0.4,0.4,0.7,0.8,0.8,1.4c0.1-0.6,0.3-1.1,0.7-1.4c0.4-0.4,0.9-0.5,1.5-0.5c0.8,0,1.4,0.3,1.9,0.9c0.5,0.6,0.7,1.4,0.7,2.3v9.4
		h-2.5v-9.2c0-0.4-0.1-0.7-0.3-1c-0.2-0.2-0.5-0.3-0.8-0.3c-0.7,0-1,0.4-1,1.3v9.2h-2.2v-9.2c0-0.4-0.1-0.7-0.3-1
		c-0.2-0.2-0.4-0.3-0.8-0.3c-0.7,0-1.1,0.4-1.1,1.3v9.2H161.6z"/>
	<path class="st20" d="M180.8,485.2c-1.1,0-2-0.2-2.7-0.6c-0.8-0.4-1.4-1-1.8-1.7c-0.4-0.7-0.6-1.6-0.6-2.6v-2.9
		c0-1,0.2-1.9,0.6-2.6c0.4-0.7,1-1.3,1.8-1.7c0.8-0.4,1.7-0.6,2.7-0.6c1,0,1.9,0.2,2.7,0.6c0.8,0.4,1.4,1,1.8,1.7
		c0.4,0.7,0.6,1.6,0.6,2.6v2.2h-7.6v0.9c0,0.8,0.2,1.5,0.7,1.9c0.4,0.4,1,0.6,1.8,0.6c0.6,0,1.1-0.1,1.5-0.3
		c0.4-0.2,0.7-0.5,0.7-0.9h2.8c-0.2,1.1-0.8,1.9-1.7,2.6C183.2,484.9,182.1,485.2,180.8,485.2z M178.3,477.3v0.4l5,0v-0.4
		c0-0.9-0.2-1.5-0.6-2c-0.4-0.5-1-0.7-1.8-0.7c-0.8,0-1.4,0.2-1.9,0.7S178.3,476.4,178.3,477.3z"/>
	<path class="st20" d="M189.7,485v-12.4h2.7v2.4c0.1-0.8,0.5-1.5,1.1-1.9c0.6-0.5,1.4-0.7,2.3-0.7c1.3,0,2.2,0.4,2.9,1.2
		c0.7,0.8,1.1,1.9,1.1,3.4v1.2H197v-1c0-0.8-0.2-1.3-0.6-1.7c-0.4-0.4-0.9-0.6-1.7-0.6c-0.8,0-1.3,0.2-1.7,0.7
		c-0.4,0.5-0.6,1.1-0.6,1.9v7.6H189.7z"/>
	<path class="st20" d="M202.7,485v-2.5h4.2v-7.3h-3.8v-2.5h6.6v9.8h3.8v2.5H202.7z M208.2,470.6c-0.6,0-1-0.1-1.3-0.4
		c-0.3-0.3-0.5-0.7-0.5-1.2c0-0.5,0.2-0.9,0.5-1.2c0.3-0.3,0.8-0.4,1.3-0.4c0.6,0,1,0.1,1.4,0.4c0.3,0.3,0.5,0.7,0.5,1.2
		c0,0.5-0.2,0.9-0.5,1.2C209.2,470.4,208.7,470.6,208.2,470.6z"/>
	<path class="st20" d="M221.5,485.2c-1.1,0-2-0.2-2.8-0.6s-1.4-1-1.8-1.7s-0.7-1.6-0.7-2.6v-3.1c0-1,0.2-1.8,0.7-2.6s1-1.3,1.8-1.7
		s1.7-0.6,2.8-0.6c1.5,0,2.8,0.4,3.7,1.2c0.9,0.8,1.4,1.9,1.5,3.3h-2.8c0-0.6-0.3-1.1-0.7-1.5c-0.4-0.4-1-0.5-1.7-0.5
		c-0.8,0-1.4,0.2-1.8,0.6c-0.4,0.4-0.7,1-0.7,1.8v3.1c0,0.8,0.2,1.4,0.7,1.8s1,0.6,1.8,0.6c0.7,0,1.3-0.2,1.7-0.5
		c0.4-0.4,0.7-0.9,0.7-1.5h2.8c0,1.4-0.5,2.5-1.5,3.3C224.2,484.8,223,485.2,221.5,485.2z"/>
	<path class="st20" d="M233.4,485.2c-1.3,0-2.3-0.4-3-1.1c-0.7-0.7-1.1-1.6-1.1-2.8c0-1.2,0.4-2.2,1.2-2.9c0.8-0.7,2-1.1,3.4-1.1h3
		v-0.9c0-1.2-0.7-1.9-2.2-1.9c-0.7,0-1.2,0.1-1.6,0.4c-0.4,0.3-0.6,0.6-0.7,1.1h-2.7c0.1-1.1,0.5-2,1.4-2.7c0.9-0.7,2.1-1,3.5-1
		c1.6,0,2.8,0.4,3.7,1.1c0.9,0.7,1.3,1.8,1.3,3.1v8.4H237v-2.3c-0.1,0.8-0.5,1.4-1.1,1.9S234.4,485.2,233.4,485.2z M234.3,482.9
		c0.8,0,1.5-0.2,2-0.6c0.5-0.4,0.7-0.9,0.7-1.6v-1.5h-2.9c-0.6,0-1.1,0.2-1.5,0.5c-0.4,0.3-0.5,0.8-0.5,1.3c0,0.6,0.2,1,0.6,1.3
		C233,482.8,233.6,482.9,234.3,482.9z"/>
</g>
<g class="st1">
	<path class="st21" d="M902.3,128.2c-1.1,0-2.1-0.2-2.9-0.6c-0.8-0.4-1.5-0.9-1.9-1.7s-0.7-1.6-0.7-2.6h2.8c0,0.7,0.3,1.3,0.8,1.8
		c0.5,0.4,1.2,0.7,2,0.7c0.8,0,1.5-0.2,1.9-0.6c0.5-0.4,0.7-1,0.7-1.7c0-0.5-0.2-1-0.5-1.4c-0.3-0.4-0.7-0.7-1.3-0.8l-2.2-0.6
		c-1.2-0.3-2.1-0.9-2.8-1.7c-0.7-0.8-1-1.8-1-2.9c0-1.4,0.5-2.5,1.4-3.3c0.9-0.8,2.1-1.2,3.7-1.2c1,0,1.9,0.2,2.7,0.6
		c0.8,0.4,1.4,0.9,1.8,1.6s0.6,1.5,0.6,2.4h-2.7c0-0.6-0.2-1.1-0.7-1.5c-0.4-0.4-1-0.6-1.7-0.6c-0.7,0-1.3,0.2-1.7,0.6
		c-0.4,0.4-0.6,0.9-0.6,1.5c0,0.5,0.1,0.9,0.4,1.3s0.7,0.6,1.2,0.7l2.3,0.6c1.2,0.3,2.2,0.9,2.9,1.8c0.7,0.9,1,2,1,3.2
		c0,1-0.2,1.8-0.7,2.5c-0.4,0.7-1.1,1.3-1.9,1.7S903.4,128.2,902.3,128.2z"/>
	<path class="st21" d="M911.3,128l-1.9-12.4h2.2l1.1,7.6c0.1,0.5,0.1,1,0.2,1.5s0.1,1,0.1,1.4c0-0.4,0-0.8,0.1-1.4
		c0-0.5,0.1-1,0.2-1.5l1.4-7.6h2.3l1.3,7.6c0.1,0.5,0.2,1,0.2,1.5s0.1,1,0.1,1.4c0-0.4,0.1-0.8,0.1-1.4c0-0.5,0.1-1.1,0.2-1.5
		l1.1-7.6h2.2l-2,12.4h-2.9l-1.2-7.6c-0.1-0.4-0.1-0.9-0.2-1.5c-0.1-0.5-0.1-1-0.1-1.3c0,0.3-0.1,0.8-0.1,1.3
		c-0.1,0.5-0.1,1-0.2,1.5l-1.2,7.6H911.3z"/>
	<path class="st21" d="M924.2,128v-2.5h4.2v-7.3h-3.8v-2.5h6.6v9.8h3.8v2.5H924.2z M929.7,113.6c-0.6,0-1-0.1-1.3-0.4
		c-0.3-0.3-0.5-0.7-0.5-1.2c0-0.5,0.2-0.9,0.5-1.2c0.3-0.3,0.8-0.4,1.3-0.4s1,0.1,1.3,0.4c0.3,0.3,0.5,0.7,0.5,1.2
		c0,0.5-0.2,0.9-0.5,1.2C930.7,113.4,930.2,113.6,929.7,113.6z"/>
	<path class="st21" d="M944,128c-1.2,0-2.1-0.3-2.8-1c-0.7-0.7-1-1.6-1-2.7v-6.1h-3.4v-2.5h3.4v-3.5h2.8v3.5h4.9v2.5H943v6.1
		c0,0.4,0.1,0.7,0.3,0.9c0.2,0.2,0.5,0.3,0.8,0.3h3.7v2.5H944z"/>
	<path class="st21" d="M951.3,128v-2.5l6.5-7.4h-6.3v-2.5h9.5v2.5l-6.5,7.4h6.8v2.5H951.3z"/>
	<path class="st21" d="M969.8,128.2c-1.1,0-2-0.2-2.7-0.6c-0.8-0.4-1.4-1-1.8-1.7c-0.4-0.7-0.6-1.6-0.6-2.6v-2.9
		c0-1,0.2-1.9,0.6-2.6c0.4-0.7,1-1.3,1.8-1.7c0.8-0.4,1.7-0.6,2.7-0.6c1,0,1.9,0.2,2.7,0.6c0.8,0.4,1.4,1,1.8,1.7s0.6,1.6,0.6,2.6
		v2.2h-7.7v0.9c0,0.8,0.2,1.5,0.7,1.9c0.4,0.4,1,0.6,1.8,0.6c0.6,0,1.1-0.1,1.5-0.3c0.4-0.2,0.7-0.5,0.7-0.9h2.8
		c-0.2,1.1-0.8,1.9-1.7,2.6C972.2,127.9,971.1,128.2,969.8,128.2z M967.3,120.3v0.4l5,0v-0.4c0-0.9-0.2-1.5-0.6-2s-1-0.7-1.8-0.7
		c-0.8,0-1.4,0.2-1.9,0.7S967.3,119.4,967.3,120.3z"/>
	<path class="st21" d="M978.7,128v-12.4h2.7v2.4c0.2-0.8,0.5-1.5,1.1-1.9c0.6-0.5,1.4-0.7,2.3-0.7c1.3,0,2.2,0.4,2.9,1.2
		c0.7,0.8,1.1,1.9,1.1,3.4v1.2H986v-1c0-0.8-0.2-1.3-0.6-1.7c-0.4-0.4-0.9-0.6-1.7-0.6c-0.8,0-1.3,0.2-1.7,0.7
		c-0.4,0.5-0.6,1.1-0.6,1.9v7.6H978.7z"/>
	<path class="st21" d="M998.8,128c-1.2,0-2.2-0.4-3-1.1c-0.7-0.7-1.1-1.7-1.1-2.9v-9.9h-4.1v-2.5h6.9v12.4c0,0.5,0.1,0.8,0.4,1.1
		c0.3,0.3,0.6,0.4,1.1,0.4h3.6v2.5H998.8z"/>
	<path class="st21" d="M1008.9,128.2c-1.3,0-2.3-0.4-3-1.1c-0.7-0.7-1.1-1.6-1.1-2.8c0-1.2,0.4-2.2,1.2-2.9c0.8-0.7,2-1.1,3.4-1.1h3
		v-0.9c0-1.2-0.7-1.9-2.2-1.9c-0.7,0-1.2,0.1-1.6,0.4c-0.4,0.3-0.6,0.6-0.7,1.1h-2.7c0.1-1.1,0.5-2,1.4-2.7c0.9-0.7,2.1-1,3.5-1
		c1.6,0,2.8,0.4,3.7,1.1c0.9,0.7,1.3,1.8,1.3,3.1v8.4h-2.7v-2.3c-0.1,0.8-0.5,1.4-1.1,1.9S1009.9,128.2,1008.9,128.2z M1009.8,125.9
		c0.8,0,1.5-0.2,2-0.6c0.5-0.4,0.7-0.9,0.7-1.6v-1.5h-2.9c-0.6,0-1.1,0.2-1.5,0.5s-0.5,0.8-0.5,1.3c0,0.6,0.2,1,0.6,1.3
		S1009.1,125.9,1009.8,125.9z"/>
	<path class="st21" d="M1018.7,128v-12.4h2.7v2.3c0.1-0.8,0.5-1.4,1.1-1.9c0.6-0.5,1.3-0.7,2.2-0.7c1.2,0,2.2,0.4,2.9,1.2
		c0.7,0.8,1.1,1.9,1.1,3.3v8.1h-2.8v-7.8c0-0.8-0.2-1.4-0.6-1.8c-0.4-0.4-0.9-0.6-1.6-0.6c-0.7,0-1.3,0.2-1.7,0.6
		c-0.4,0.4-0.6,1-0.6,1.8v7.7H1018.7z"/>
	<path class="st21" d="M1036.1,128.2c-1.2,0-2.2-0.4-2.9-1.3c-0.7-0.9-1.1-2-1.1-3.4v-3.4c0-1.5,0.4-2.6,1.1-3.5
		c0.7-0.9,1.7-1.3,2.9-1.3c0.9,0,1.6,0.2,2.2,0.7c0.6,0.4,1,1,1.2,1.8l-0.1-2.8v-3.5h2.8V128h-2.7v-2.2c-0.2,0.8-0.6,1.4-1.2,1.8
		C1037.7,128,1037,128.2,1036.1,128.2z M1037.2,125.8c0.7,0,1.3-0.2,1.7-0.7c0.4-0.4,0.6-1,0.6-1.8v-3c0-0.8-0.2-1.4-0.6-1.8
		c-0.4-0.4-1-0.7-1.7-0.7s-1.3,0.2-1.7,0.6c-0.4,0.4-0.6,1-0.6,1.8v3.2c0,0.8,0.2,1.4,0.6,1.8
		C1035.9,125.6,1036.5,125.8,1037.2,125.8z"/>
</g>
<g class="st1">
	<path class="st22" d="M780.8,393.5l4.1-16.4h3.6l4.2,16.4h-2.9l-0.9-4h-4.4l-0.9,4H780.8z M785.1,387.2h3.3l-1-4.4
		c-0.2-0.7-0.3-1.4-0.4-2c-0.1-0.6-0.2-1-0.2-1.3c0,0.3-0.1,0.7-0.2,1.3c-0.1,0.6-0.3,1.2-0.4,2L785.1,387.2z"/>
	<path class="st22" d="M800.2,393.7c-1.6,0-2.8-0.4-3.7-1.3c-0.9-0.9-1.3-2.1-1.3-3.6v-7.7h2.8v7.7c0,0.8,0.2,1.4,0.6,1.8
		c0.4,0.4,0.9,0.7,1.7,0.7c0.7,0,1.3-0.2,1.7-0.7c0.4-0.4,0.6-1,0.6-1.8v-7.7h2.8v7.7c0,1.5-0.5,2.7-1.4,3.6
		C803,393.3,801.8,393.7,800.2,393.7z"/>
	<path class="st22" d="M813.2,393.7c-1.5,0-2.6-0.3-3.5-1c-0.9-0.7-1.3-1.6-1.3-2.7h2.8c0,0.5,0.2,0.8,0.5,1.1
		c0.4,0.3,0.8,0.4,1.5,0.4h1c0.7,0,1.2-0.1,1.6-0.4c0.4-0.3,0.6-0.6,0.6-1.1c0-0.5-0.1-0.8-0.4-1c-0.3-0.2-0.6-0.4-1.2-0.4l-3.1-0.4
		c-1-0.1-1.8-0.5-2.3-1.1c-0.5-0.6-0.8-1.4-0.8-2.5c0-1.2,0.4-2.1,1.2-2.7c0.8-0.6,1.9-0.9,3.4-0.9h1c1.4,0,2.5,0.3,3.3,0.9
		s1.3,1.5,1.3,2.5H816c0-0.4-0.2-0.7-0.5-0.9s-0.8-0.3-1.3-0.3h-1c-0.6,0-1.1,0.1-1.4,0.4c-0.3,0.2-0.5,0.6-0.5,1
		c0,0.4,0.1,0.7,0.3,0.8c0.2,0.2,0.6,0.3,1,0.3l2.9,0.4c1.1,0.1,2,0.5,2.6,1.2c0.6,0.7,0.9,1.6,0.9,2.7c0,1.2-0.4,2.1-1.2,2.8
		s-2,1-3.6,1H813.2z"/>
	<path class="st22" d="M828.5,393.5c-1.2,0-2.1-0.3-2.8-1c-0.7-0.7-1-1.6-1-2.7v-6.1h-3.4v-2.5h3.4v-3.5h2.8v3.5h4.9v2.5h-4.9v6.1
		c0,0.4,0.1,0.7,0.3,0.9c0.2,0.2,0.5,0.3,0.8,0.3h3.7v2.5H828.5z"/>
	<path class="st22" d="M836.2,393.5v-12.4h2.7v2.4c0.1-0.8,0.5-1.5,1.1-1.9c0.6-0.5,1.4-0.7,2.3-0.7c1.3,0,2.2,0.4,2.9,1.2
		c0.7,0.8,1.1,1.9,1.1,3.4v1.2h-2.8v-1c0-0.8-0.2-1.3-0.6-1.7c-0.4-0.4-0.9-0.6-1.7-0.6c-0.8,0-1.3,0.2-1.7,0.7s-0.6,1.1-0.6,1.9
		v7.6H836.2z"/>
	<path class="st22" d="M852.9,393.7c-1.3,0-2.3-0.4-3-1.1c-0.7-0.7-1.1-1.6-1.1-2.8c0-1.2,0.4-2.2,1.2-2.9c0.8-0.7,2-1.1,3.4-1.1h3
		V385c0-1.2-0.7-1.9-2.2-1.9c-0.7,0-1.2,0.1-1.6,0.4c-0.4,0.3-0.6,0.6-0.7,1.1h-2.7c0.1-1.1,0.5-2,1.4-2.7c0.9-0.7,2.1-1,3.5-1
		c1.6,0,2.8,0.4,3.7,1.1c0.9,0.7,1.3,1.8,1.3,3.1v8.4h-2.7v-2.3c-0.1,0.8-0.5,1.4-1.1,1.9S853.9,393.7,852.9,393.7z M853.8,391.4
		c0.8,0,1.5-0.2,2-0.6c0.5-0.4,0.7-0.9,0.7-1.6v-1.5h-2.9c-0.6,0-1.1,0.2-1.5,0.5c-0.4,0.3-0.5,0.8-0.5,1.3c0,0.6,0.2,1,0.6,1.3
		C852.5,391.3,853.1,391.4,853.8,391.4z"/>
	<path class="st22" d="M869.8,393.5c-1.2,0-2.2-0.4-3-1.1c-0.7-0.7-1.1-1.7-1.1-2.9v-9.9h-4.1v-2.5h6.9v12.4c0,0.5,0.1,0.8,0.4,1.1
		c0.3,0.3,0.6,0.4,1.1,0.4h3.6v2.5H869.8z"/>
	<path class="st22" d="M876.2,393.5V391h4.2v-7.3h-3.8v-2.5h6.6v9.8h3.8v2.5H876.2z M881.7,379.1c-0.6,0-1-0.1-1.3-0.4
		c-0.3-0.3-0.5-0.7-0.5-1.2c0-0.5,0.2-0.9,0.5-1.2c0.3-0.3,0.8-0.4,1.3-0.4c0.6,0,1,0.1,1.4,0.4c0.3,0.3,0.5,0.7,0.5,1.2
		c0,0.5-0.2,0.9-0.5,1.2C882.7,378.9,882.2,379.1,881.7,379.1z"/>
	<path class="st22" d="M893.4,393.7c-1.3,0-2.3-0.4-3-1.1c-0.7-0.7-1.1-1.6-1.1-2.8c0-1.2,0.4-2.2,1.2-2.9c0.8-0.7,2-1.1,3.4-1.1h3
		V385c0-1.2-0.7-1.9-2.2-1.9c-0.7,0-1.2,0.1-1.6,0.4c-0.4,0.3-0.6,0.6-0.7,1.1h-2.7c0.1-1.1,0.5-2,1.4-2.7c0.9-0.7,2.1-1,3.5-1
		c1.6,0,2.8,0.4,3.7,1.1c0.9,0.7,1.3,1.8,1.3,3.1v8.4H897v-2.3c-0.1,0.8-0.5,1.4-1.1,1.9S894.4,393.7,893.4,393.7z M894.3,391.4
		c0.8,0,1.5-0.2,2-0.6c0.5-0.4,0.7-0.9,0.7-1.6v-1.5h-2.9c-0.6,0-1.1,0.2-1.5,0.5s-0.5,0.8-0.5,1.3c0,0.6,0.2,1,0.6,1.3
		S893.6,391.4,894.3,391.4z"/>
</g>
<g class="st1">
	<path class="st23" d="M679.6,107.5V91.1h3.4l4.6,13.3c0-0.5-0.1-1-0.1-1.7s-0.1-1.3-0.1-2s-0.1-1.3-0.1-1.8v-7.8h2.6v16.4h-3.4
		l-4.5-13.3c0,0.4,0.1,1,0.1,1.6c0,0.6,0.1,1.2,0.1,1.9c0,0.6,0,1.2,0,1.8v8H679.6z"/>
	<path class="st23" d="M698.3,107.7c-1,0-2-0.2-2.7-0.6c-0.8-0.4-1.4-1-1.8-1.7c-0.4-0.7-0.6-1.6-0.6-2.6v-2.9c0-1,0.2-1.9,0.6-2.6
		c0.4-0.7,1-1.3,1.8-1.7c0.8-0.4,1.7-0.6,2.7-0.6c1,0,1.9,0.2,2.7,0.6c0.8,0.4,1.4,1,1.8,1.7c0.4,0.7,0.6,1.6,0.6,2.6v2.2h-7.6v0.9
		c0,0.8,0.2,1.5,0.7,1.9c0.4,0.4,1,0.6,1.8,0.6c0.6,0,1.1-0.1,1.5-0.3c0.4-0.2,0.7-0.5,0.7-0.9h2.8c-0.2,1.1-0.8,1.9-1.7,2.6
		C700.7,107.4,699.6,107.7,698.3,107.7z M695.8,99.8v0.4l4.9,0v-0.4c0-0.9-0.2-1.5-0.6-2c-0.4-0.5-1-0.7-1.8-0.7
		c-0.8,0-1.4,0.2-1.9,0.7S695.8,98.9,695.8,99.8z"/>
	<path class="st23" d="M707.3,107.5l-1.9-12.4h2.2l1.1,7.6c0.1,0.5,0.1,1,0.2,1.5s0.1,1,0.1,1.4c0-0.4,0-0.8,0.1-1.4
		c0-0.5,0.1-1,0.2-1.5l1.3-7.6h2.3l1.3,7.6c0.1,0.5,0.2,1,0.2,1.5s0.1,1,0.1,1.4c0-0.4,0.1-0.8,0.1-1.4s0.1-1.1,0.2-1.5l1.1-7.6h2.2
		l-2,12.4h-2.9l-1.2-7.6c-0.1-0.4-0.1-0.9-0.2-1.5c-0.1-0.5-0.1-1-0.1-1.3c0,0.3-0.1,0.8-0.1,1.3c-0.1,0.5-0.1,1-0.2,1.5l-1.2,7.6
		H707.3z"/>
	<path class="st23" d="M719.8,110.6v-2.5h10.8v2.5H719.8z"/>
	<path class="st23" d="M733.8,107.5v-2.6l6.6-11.3h-6.4v-2.5h9.5v2.6l-6.6,11.3h6.9v2.5H733.8z"/>
	<path class="st23" d="M752.3,107.7c-1.1,0-2-0.2-2.7-0.6c-0.8-0.4-1.4-1-1.8-1.7c-0.4-0.7-0.6-1.6-0.6-2.6v-2.9
		c0-1,0.2-1.9,0.6-2.6c0.4-0.7,1-1.3,1.8-1.7c0.8-0.4,1.7-0.6,2.7-0.6c1,0,1.9,0.2,2.7,0.6c0.8,0.4,1.4,1,1.8,1.7s0.6,1.6,0.6,2.6
		v2.2h-7.7v0.9c0,0.8,0.2,1.5,0.7,1.9c0.4,0.4,1,0.6,1.8,0.6c0.6,0,1.1-0.1,1.5-0.3c0.4-0.2,0.7-0.5,0.7-0.9h2.8
		c-0.2,1.1-0.8,1.9-1.7,2.6C754.7,107.4,753.6,107.7,752.3,107.7z M749.8,99.8v0.4l5,0v-0.4c0-0.9-0.2-1.5-0.6-2s-1-0.7-1.8-0.7
		c-0.8,0-1.4,0.2-1.9,0.7S749.8,98.9,749.8,99.8z"/>
	<path class="st23" d="M764.4,107.7c-1.3,0-2.3-0.4-3-1.1c-0.7-0.7-1.1-1.6-1.1-2.8c0-1.2,0.4-2.2,1.2-2.9c0.8-0.7,2-1.1,3.4-1.1h3
		V99c0-1.2-0.7-1.9-2.2-1.9c-0.7,0-1.2,0.1-1.6,0.4c-0.4,0.3-0.6,0.6-0.7,1.1h-2.7c0.1-1.1,0.5-2,1.4-2.7c0.9-0.7,2.1-1,3.5-1
		c1.6,0,2.8,0.4,3.7,1.1c0.9,0.7,1.3,1.8,1.3,3.1v8.4H768v-2.3c-0.1,0.8-0.5,1.4-1.1,1.9C766.3,107.5,765.4,107.7,764.4,107.7z
		 M765.3,105.4c0.8,0,1.5-0.2,2-0.6c0.5-0.4,0.7-0.9,0.7-1.6v-1.5h-2.9c-0.6,0-1.1,0.2-1.5,0.5c-0.4,0.3-0.5,0.8-0.5,1.3
		c0,0.6,0.2,1,0.6,1.3S764.6,105.4,765.3,105.4z"/>
	<path class="st23" d="M781.3,107.5c-1.2,0-2.2-0.4-3-1.1c-0.7-0.7-1.1-1.7-1.1-2.9v-9.9h-4.1v-2.5h6.9v12.4c0,0.5,0.1,0.8,0.4,1.1
		c0.3,0.3,0.6,0.4,1.1,0.4h3.6v2.5H781.3z"/>
	<path class="st23" d="M791.4,107.7c-1.3,0-2.3-0.4-3-1.1c-0.7-0.7-1.1-1.6-1.1-2.8c0-1.2,0.4-2.2,1.2-2.9c0.8-0.7,2-1.1,3.4-1.1h3
		V99c0-1.2-0.7-1.9-2.2-1.9c-0.7,0-1.2,0.1-1.6,0.4c-0.4,0.3-0.6,0.6-0.7,1.1h-2.7c0.1-1.1,0.5-2,1.4-2.7c0.9-0.7,2.1-1,3.5-1
		c1.6,0,2.8,0.4,3.7,1.1c0.9,0.7,1.3,1.8,1.3,3.1v8.4H795v-2.3c-0.1,0.8-0.5,1.4-1.1,1.9S792.4,107.7,791.4,107.7z M792.3,105.4
		c0.8,0,1.5-0.2,2-0.6c0.5-0.4,0.7-0.9,0.7-1.6v-1.5h-2.9c-0.6,0-1.1,0.2-1.5,0.5s-0.5,0.8-0.5,1.3c0,0.6,0.2,1,0.6,1.3
		S791.6,105.4,792.3,105.4z"/>
	<path class="st23" d="M801.2,107.5V95.1h2.7v2.3c0.1-0.8,0.5-1.4,1.1-1.9c0.6-0.5,1.3-0.7,2.2-0.7c1.2,0,2.2,0.4,2.9,1.2
		c0.7,0.8,1.1,1.9,1.1,3.3v8.1h-2.8v-7.8c0-0.8-0.2-1.4-0.6-1.8c-0.4-0.4-0.9-0.6-1.6-0.6c-0.7,0-1.3,0.2-1.7,0.6
		c-0.4,0.4-0.6,1-0.6,1.8v7.7H801.2z"/>
	<path class="st23" d="M818.6,107.7c-1.2,0-2.2-0.4-2.9-1.3c-0.7-0.9-1.1-2-1.1-3.4v-3.4c0-1.5,0.4-2.6,1.1-3.5
		c0.7-0.9,1.7-1.3,2.9-1.3c0.9,0,1.6,0.2,2.2,0.7c0.6,0.4,1,1,1.2,1.8l-0.1-2.8v-3.5h2.8v16.4H822v-2.2c-0.2,0.8-0.6,1.4-1.2,1.8
		C820.2,107.5,819.5,107.7,818.6,107.7z M819.7,105.3c0.7,0,1.3-0.2,1.7-0.7c0.4-0.4,0.6-1,0.6-1.8v-3c0-0.8-0.2-1.4-0.6-1.8
		c-0.4-0.4-1-0.7-1.7-0.7s-1.3,0.2-1.7,0.6c-0.4,0.4-0.6,1-0.6,1.8v3.2c0,0.8,0.2,1.4,0.6,1.8C818.4,105.1,819,105.3,819.7,105.3z"
		/>
</g>
<g class="st1">
	<path class="st24" d="M1038.8,263.7c-1.1,0-2.1-0.2-2.9-0.6c-0.8-0.4-1.5-0.9-1.9-1.7s-0.7-1.6-0.7-2.6h2.8c0,0.7,0.3,1.3,0.8,1.8
		c0.5,0.4,1.2,0.7,2,0.7c0.8,0,1.5-0.2,1.9-0.6c0.5-0.4,0.7-1,0.7-1.7c0-0.5-0.2-1-0.5-1.4c-0.3-0.4-0.7-0.7-1.3-0.8l-2.2-0.6
		c-1.2-0.3-2.1-0.9-2.8-1.7c-0.7-0.8-1-1.8-1-2.9c0-1.4,0.5-2.5,1.4-3.3c0.9-0.8,2.1-1.2,3.7-1.2c1,0,1.9,0.2,2.7,0.6
		c0.8,0.4,1.4,0.9,1.8,1.6s0.6,1.5,0.6,2.4h-2.7c0-0.6-0.2-1.1-0.7-1.5c-0.4-0.4-1-0.6-1.7-0.6c-0.7,0-1.3,0.2-1.7,0.6
		c-0.4,0.4-0.6,0.9-0.6,1.5c0,0.5,0.1,0.9,0.4,1.3s0.7,0.6,1.2,0.7l2.3,0.6c1.2,0.3,2.2,0.9,2.9,1.8c0.7,0.9,1,2,1,3.2
		c0,1-0.2,1.8-0.7,2.5c-0.4,0.7-1.1,1.3-1.9,1.7S1039.9,263.7,1038.8,263.7z"/>
	<path class="st24" d="M1052.2,263.7c-1.6,0-2.8-0.4-3.8-1.3c-0.9-0.9-1.4-2.1-1.4-3.6v-2.9c0-1.5,0.5-2.7,1.4-3.6
		c0.9-0.9,2.2-1.3,3.8-1.3s2.8,0.4,3.8,1.3c0.9,0.9,1.4,2.1,1.4,3.6v2.9c0,1.5-0.5,2.7-1.4,3.6
		C1055.1,263.3,1053.8,263.7,1052.2,263.7z M1052.2,261.2c0.8,0,1.3-0.2,1.7-0.6c0.4-0.4,0.6-1,0.6-1.8v-3.1c0-0.8-0.2-1.4-0.6-1.8
		c-0.4-0.4-1-0.6-1.7-0.6s-1.3,0.2-1.7,0.6c-0.4,0.4-0.6,1-0.6,1.8v3.1c0,0.8,0.2,1.4,0.6,1.8C1050.9,261,1051.5,261.2,1052.2,261.2
		z"/>
	<path class="st24" d="M1065.8,263.7c-1.6,0-2.8-0.4-3.7-1.3c-0.9-0.9-1.3-2.1-1.3-3.6v-7.7h2.8v7.7c0,0.8,0.2,1.4,0.6,1.8
		c0.4,0.4,0.9,0.7,1.7,0.7c0.7,0,1.3-0.2,1.7-0.7c0.4-0.4,0.6-1,0.6-1.8v-7.7h2.8v7.7c0,1.5-0.5,2.7-1.4,3.6
		C1068.5,263.3,1067.3,263.7,1065.8,263.7z"/>
	<path class="st24" d="M1080.5,263.5c-1.2,0-2.1-0.3-2.8-1c-0.7-0.7-1-1.6-1-2.7v-6.1h-3.4v-2.5h3.4v-3.5h2.8v3.5h4.9v2.5h-4.9v6.1
		c0,0.4,0.1,0.7,0.3,0.9c0.2,0.2,0.5,0.3,0.8,0.3h3.7v2.5H1080.5z"/>
	<path class="st24" d="M1087.7,263.5v-16.4h2.8v4l-0.1,2.3c0.2-0.8,0.5-1.4,1.1-1.8s1.3-0.7,2.2-0.7c1.2,0,2.2,0.4,2.9,1.2
		c0.7,0.8,1.1,1.9,1.1,3.3v8.1h-2.8v-7.8c0-0.8-0.2-1.4-0.6-1.8c-0.4-0.4-0.9-0.6-1.6-0.6c-0.7,0-1.3,0.2-1.7,0.6
		c-0.4,0.4-0.6,1-0.6,1.8v7.7H1087.7z"/>
	<path class="st24" d="M1100.8,266.6v-2.5h10.8v2.5H1100.8z"/>
	<path class="st24" d="M1114.7,263.5v-16.4h2.8v6.7h1.9l3.1-6.7h3l-3.7,7.8l3.9,8.6h-3.1l-3.2-7.3h-1.9v7.3H1114.7z"/>
	<path class="st24" d="M1133.2,263.7c-1.6,0-2.8-0.4-3.8-1.3c-0.9-0.9-1.4-2.1-1.4-3.6v-2.9c0-1.5,0.5-2.7,1.4-3.6
		c0.9-0.9,2.2-1.3,3.8-1.3s2.8,0.4,3.8,1.3s1.4,2.1,1.4,3.6v2.9c0,1.5-0.5,2.7-1.4,3.6C1136.1,263.3,1134.8,263.7,1133.2,263.7z
		 M1133.2,261.2c0.8,0,1.3-0.2,1.7-0.6c0.4-0.4,0.6-1,0.6-1.8v-3.1c0-0.8-0.2-1.4-0.6-1.8c-0.4-0.4-1-0.6-1.7-0.6s-1.3,0.2-1.7,0.6
		c-0.4,0.4-0.6,1-0.6,1.8v3.1c0,0.8,0.2,1.4,0.6,1.8C1131.9,261,1132.5,261.2,1133.2,261.2z"/>
	<path class="st24" d="M1142.2,263.5v-12.4h2.7v2.4c0.1-0.8,0.5-1.5,1.1-1.9c0.6-0.5,1.4-0.7,2.3-0.7c1.3,0,2.2,0.4,2.9,1.2
		c0.7,0.8,1.1,1.9,1.1,3.4v1.2h-2.8v-1c0-0.8-0.2-1.3-0.6-1.7c-0.4-0.4-0.9-0.6-1.7-0.6c-0.8,0-1.3,0.2-1.7,0.7
		c-0.4,0.5-0.6,1.1-0.6,1.9v7.6H1142.2z"/>
	<path class="st24" d="M1160.3,263.7c-1,0-2-0.2-2.7-0.6c-0.8-0.4-1.4-1-1.8-1.7c-0.4-0.7-0.6-1.6-0.6-2.6v-2.9c0-1,0.2-1.9,0.6-2.6
		c0.4-0.7,1-1.3,1.8-1.7c0.8-0.4,1.7-0.6,2.7-0.6c1,0,1.9,0.2,2.7,0.6c0.8,0.4,1.4,1,1.8,1.7c0.4,0.7,0.6,1.6,0.6,2.6v2.2h-7.6v0.9
		c0,0.8,0.2,1.5,0.7,1.9c0.4,0.4,1,0.6,1.8,0.6c0.6,0,1.1-0.1,1.5-0.3c0.4-0.2,0.7-0.5,0.7-0.9h2.8c-0.2,1.1-0.8,1.9-1.7,2.6
		C1162.7,263.4,1161.6,263.7,1160.3,263.7z M1157.8,255.8v0.4l4.9,0v-0.4c0-0.9-0.2-1.5-0.6-2c-0.4-0.5-1-0.7-1.8-0.7
		c-0.8,0-1.4,0.2-1.9,0.7S1157.8,254.9,1157.8,255.8z"/>
	<path class="st24" d="M1172.4,263.7c-1.3,0-2.3-0.4-3-1.1c-0.7-0.7-1.1-1.6-1.1-2.8c0-1.2,0.4-2.2,1.2-2.9c0.8-0.7,2-1.1,3.4-1.1h3
		V255c0-1.2-0.7-1.9-2.2-1.9c-0.7,0-1.2,0.1-1.6,0.4c-0.4,0.3-0.6,0.6-0.7,1.1h-2.7c0.1-1.1,0.5-2,1.4-2.7c0.9-0.7,2.1-1,3.5-1
		c1.6,0,2.8,0.4,3.7,1.1c0.9,0.7,1.3,1.8,1.3,3.1v8.4h-2.7v-2.3c-0.1,0.8-0.5,1.4-1.1,1.9S1173.4,263.7,1172.4,263.7z M1173.3,261.4
		c0.8,0,1.5-0.2,2-0.6c0.5-0.4,0.7-0.9,0.7-1.6v-1.5h-2.9c-0.6,0-1.1,0.2-1.5,0.5s-0.5,0.8-0.5,1.3c0,0.6,0.2,1,0.6,1.3
		S1172.6,261.4,1173.3,261.4z"/>
</g>
<g class="st1">
	<path class="st25" d="M358.2,395.5v-16.4h2.8V393h7v2.5H358.2z"/>
	<path class="st25" d="M375.8,395.7c-1.6,0-2.8-0.4-3.7-1.3c-0.9-0.9-1.4-2.1-1.4-3.6v-7.7h2.8v7.7c0,0.8,0.2,1.4,0.6,1.8
		c0.4,0.4,0.9,0.7,1.7,0.7c0.7,0,1.3-0.2,1.7-0.7c0.4-0.4,0.6-1,0.6-1.8v-7.7h2.8v7.7c0,1.5-0.5,2.7-1.4,3.6
		C378.5,395.3,377.3,395.7,375.8,395.7z"/>
	<path class="st25" d="M383.3,395.5l4.3-6.4l-4-6h3.2l1.9,3c0.1,0.2,0.2,0.4,0.3,0.6c0.1,0.2,0.2,0.4,0.2,0.5
		c0.1-0.1,0.1-0.3,0.2-0.5c0.1-0.2,0.2-0.4,0.3-0.6l1.9-3h3.2l-4,6l4.3,6.4H392l-2.1-3.4c-0.1-0.2-0.2-0.4-0.3-0.6
		c-0.1-0.2-0.2-0.4-0.3-0.6c-0.1,0.1-0.1,0.3-0.2,0.6c-0.1,0.2-0.2,0.4-0.3,0.6l-2.2,3.4H383.3z"/>
	<path class="st25" d="M402.8,395.7c-1.1,0-2-0.2-2.7-0.6c-0.8-0.4-1.4-1-1.8-1.7c-0.4-0.7-0.6-1.6-0.6-2.6v-2.9
		c0-1,0.2-1.9,0.6-2.6c0.4-0.7,1-1.3,1.8-1.7c0.8-0.4,1.7-0.6,2.7-0.6c1,0,1.9,0.2,2.7,0.6c0.8,0.4,1.4,1,1.8,1.7
		c0.4,0.7,0.6,1.6,0.6,2.6v2.2h-7.6v0.9c0,0.8,0.2,1.5,0.7,1.9c0.4,0.4,1,0.6,1.8,0.6c0.6,0,1.1-0.1,1.5-0.3
		c0.4-0.2,0.7-0.5,0.7-0.9h2.8c-0.2,1.1-0.8,1.9-1.7,2.6C405.2,395.4,404.1,395.7,402.8,395.7z M400.3,387.8v0.4l5,0v-0.4
		c0-0.9-0.2-1.5-0.6-2c-0.4-0.5-1-0.7-1.8-0.7c-0.8,0-1.4,0.2-1.9,0.7S400.3,386.9,400.3,387.8z"/>
	<path class="st25" d="M410.6,395.5v-12.4h2.3v1.8h0.1c0-0.6,0.3-1.1,0.6-1.5c0.4-0.4,0.8-0.6,1.4-0.6c0.6,0,1,0.2,1.4,0.5
		c0.4,0.4,0.7,0.8,0.8,1.4c0.1-0.6,0.3-1.1,0.7-1.4c0.4-0.4,0.9-0.5,1.5-0.5c0.8,0,1.4,0.3,1.9,0.9c0.5,0.6,0.7,1.4,0.7,2.3v9.4
		h-2.5v-9.2c0-0.4-0.1-0.7-0.3-1c-0.2-0.2-0.5-0.3-0.8-0.3c-0.7,0-1,0.4-1,1.3v9.2h-2.2v-9.2c0-0.4-0.1-0.7-0.3-1
		c-0.2-0.2-0.4-0.3-0.8-0.3c-0.7,0-1.1,0.4-1.1,1.3v9.2H410.6z"/>
	<path class="st25" d="M430.9,395.7c-0.9,0-1.6-0.2-2.2-0.7c-0.6-0.4-1-1-1.2-1.8v2.2h-2.7v-16.4h2.8v3.5l-0.1,2.8
		c0.2-0.8,0.7-1.4,1.2-1.8c0.6-0.4,1.3-0.7,2.2-0.7c1.2,0,2.2,0.4,2.9,1.3c0.7,0.9,1.1,2,1.1,3.5v3.4c0,1.4-0.4,2.6-1.1,3.4
		C433,395.3,432.1,395.7,430.9,395.7z M429.8,393.3c0.7,0,1.3-0.2,1.7-0.6c0.4-0.4,0.6-1,0.6-1.8v-3.2c0-0.8-0.2-1.4-0.6-1.8
		c-0.4-0.4-1-0.6-1.7-0.6c-0.7,0-1.3,0.2-1.7,0.7c-0.4,0.4-0.6,1-0.6,1.8v3c0,0.8,0.2,1.4,0.6,1.8
		C428.5,393.1,429.1,393.3,429.8,393.3z"/>
	<path class="st25" d="M443.2,395.7c-1.6,0-2.9-0.4-3.8-1.3c-0.9-0.9-1.4-2.1-1.4-3.6v-2.9c0-1.5,0.5-2.7,1.4-3.6
		c0.9-0.9,2.2-1.3,3.8-1.3c1.6,0,2.8,0.4,3.8,1.3s1.4,2.1,1.4,3.6v2.9c0,1.5-0.5,2.7-1.4,3.6C446.1,395.3,444.8,395.7,443.2,395.7z
		 M443.2,393.2c0.8,0,1.3-0.2,1.7-0.6c0.4-0.4,0.6-1,0.6-1.8v-3.1c0-0.8-0.2-1.4-0.6-1.8c-0.4-0.4-1-0.6-1.7-0.6s-1.3,0.2-1.7,0.6
		c-0.4,0.4-0.6,1-0.6,1.8v3.1c0,0.8,0.2,1.4,0.6,1.8C441.9,393,442.5,393.2,443.2,393.2z"/>
	<path class="st25" d="M456.7,395.7c-1.6,0-2.8-0.4-3.7-1.3c-0.9-0.9-1.4-2.1-1.4-3.6v-7.7h2.8v7.7c0,0.8,0.2,1.4,0.6,1.8
		c0.4,0.4,0.9,0.7,1.7,0.7c0.7,0,1.3-0.2,1.7-0.7c0.4-0.4,0.6-1,0.6-1.8v-7.7h2.8v7.7c0,1.5-0.5,2.7-1.4,3.6
		C459.5,395.3,458.3,395.7,456.7,395.7z"/>
	<path class="st25" d="M465.7,395.5v-12.4h2.7v2.4c0.1-0.8,0.5-1.5,1.1-1.9c0.6-0.5,1.4-0.7,2.3-0.7c1.3,0,2.2,0.4,2.9,1.2
		c0.7,0.8,1.1,1.9,1.1,3.4v1.2H473v-1c0-0.8-0.2-1.3-0.6-1.7c-0.4-0.4-0.9-0.6-1.7-0.6c-0.8,0-1.3,0.2-1.7,0.7
		c-0.4,0.5-0.6,1.1-0.6,1.9v7.6H465.7z"/>
	<path class="st25" d="M480.4,399.5v-2.3h3.5c0.7,0,1.2-0.2,1.5-0.5c0.4-0.4,0.5-0.8,0.5-1.4v-0.7l0-1.9c-0.3,0.7-0.7,1.2-1.2,1.6
		s-1.2,0.6-2.1,0.6c-1.3,0-2.3-0.4-3-1.3c-0.7-0.8-1.1-2-1.1-3.5v-2.4c0-1.4,0.4-2.6,1.1-3.4c0.7-0.9,1.7-1.3,3-1.3
		c0.8,0,1.5,0.2,2.1,0.6s1,0.9,1.2,1.6v-2h2.7v12.2c0,1.3-0.4,2.3-1.3,3.1c-0.9,0.8-2,1.1-3.5,1.1H480.4z M483.7,392.3
		c0.7,0,1.3-0.2,1.7-0.6c0.4-0.4,0.6-1,0.6-1.8v-2.2c0-0.8-0.2-1.4-0.6-1.8c-0.4-0.4-1-0.6-1.7-0.6c-0.7,0-1.3,0.2-1.7,0.6
		c-0.4,0.4-0.6,1-0.6,1.7v2.3c0,0.7,0.2,1.3,0.6,1.7C482.4,392.1,483,392.3,483.7,392.3z"/>
</g>
</svg>
